<svg width="278" height="46" viewBox="0 0 278 46" fill="none" xmlns="http://www.w3.org/2000/svg">
<path d="M77.7 10.728C80.364 10.728 82.692 11.256 84.684 12.312C86.676 13.368 88.212 14.856 89.292 16.776C90.396 18.672 90.948 20.868 90.948 23.364C90.948 25.836 90.396 28.032 89.292 29.952C88.212 31.872 86.664 33.36 84.648 34.416C82.656 35.472 80.34 36 77.7 36H68.232V10.728H77.7ZM77.304 30.672C79.632 30.672 81.444 30.036 82.74 28.764C84.036 27.492 84.684 25.692 84.684 23.364C84.684 21.036 84.036 19.224 82.74 17.928C81.444 16.632 79.632 15.984 77.304 15.984H74.388V30.672H77.304ZM113.324 25.632C113.324 26.208 113.288 26.808 113.216 27.432H99.2843C99.3803 28.68 99.7763 29.64 100.472 30.312C101.192 30.96 102.068 31.284 103.1 31.284C104.636 31.284 105.704 30.636 106.304 29.34H112.856C112.52 30.66 111.908 31.848 111.02 32.904C110.156 33.96 109.064 34.788 107.744 35.388C106.424 35.988 104.948 36.288 103.316 36.288C101.348 36.288 99.5963 35.868 98.0603 35.028C96.5243 34.188 95.3243 32.988 94.4603 31.428C93.5963 29.868 93.1643 28.044 93.1643 25.956C93.1643 23.868 93.5843 22.044 94.4243 20.484C95.2883 18.924 96.4883 17.724 98.0243 16.884C99.5603 16.044 101.324 15.624 103.316 15.624C105.26 15.624 106.988 16.032 108.5 16.848C110.012 17.664 111.188 18.828 112.028 20.34C112.892 21.852 113.324 23.616 113.324 25.632ZM107.024 24.012C107.024 22.956 106.664 22.116 105.944 21.492C105.224 20.868 104.324 20.556 103.244 20.556C102.212 20.556 101.336 20.856 100.616 21.456C99.9203 22.056 99.4883 22.908 99.3203 24.012H107.024ZM124.744 36.288C122.992 36.288 121.432 35.988 120.064 35.388C118.696 34.788 117.616 33.972 116.824 32.94C116.032 31.884 115.588 30.708 115.492 29.412H121.576C121.648 30.108 121.972 30.672 122.548 31.104C123.124 31.536 123.832 31.752 124.672 31.752C125.44 31.752 126.028 31.608 126.436 31.32C126.868 31.008 127.084 30.612 127.084 30.132C127.084 29.556 126.784 29.136 126.184 28.872C125.584 28.584 124.612 28.272 123.268 27.936C121.828 27.6 120.628 27.252 119.668 26.892C118.708 26.508 117.88 25.92 117.184 25.128C116.488 24.312 116.14 23.22 116.14 21.852C116.14 20.7 116.452 19.656 117.076 18.72C117.724 17.76 118.66 17.004 119.884 16.452C121.132 15.9 122.608 15.624 124.312 15.624C126.832 15.624 128.812 16.248 130.252 17.496C131.716 18.744 132.556 20.4 132.772 22.464H127.084C126.988 21.768 126.676 21.216 126.148 20.808C125.644 20.4 124.972 20.196 124.132 20.196C123.412 20.196 122.86 20.34 122.476 20.628C122.092 20.892 121.9 21.264 121.9 21.744C121.9 22.32 122.2 22.752 122.8 23.04C123.424 23.328 124.384 23.616 125.68 23.904C127.168 24.288 128.38 24.672 129.316 25.056C130.252 25.416 131.068 26.016 131.764 26.856C132.484 27.672 132.856 28.776 132.88 30.168C132.88 31.344 132.544 32.4 131.872 33.336C131.224 34.248 130.276 34.968 129.028 35.496C127.804 36.024 126.376 36.288 124.744 36.288ZM148.922 36L142.802 27.576V36H136.646V9.36H142.802V24.084L148.886 15.912H156.482L148.13 25.992L156.554 36H148.922ZM165.056 19.26C165.776 18.156 166.676 17.292 167.756 16.668C168.836 16.02 170.036 15.696 171.356 15.696V22.212H169.664C168.128 22.212 166.976 22.548 166.208 23.22C165.44 23.868 165.056 25.02 165.056 26.676V36H158.9V15.912H165.056V19.26ZM177.394 13.824C176.314 13.824 175.426 13.512 174.73 12.888C174.058 12.24 173.722 11.448 173.722 10.512C173.722 9.552 174.058 8.76 174.73 8.136C175.426 7.488 176.314 7.164 177.394 7.164C178.45 7.164 179.314 7.488 179.986 8.136C180.682 8.76 181.03 9.552 181.03 10.512C181.03 11.448 180.682 12.24 179.986 12.888C179.314 13.512 178.45 13.824 177.394 13.824ZM180.454 15.912V36H174.298V15.912H180.454ZM191.072 18.756C191.672 17.82 192.5 17.064 193.556 16.488C194.612 15.912 195.848 15.624 197.264 15.624C198.92 15.624 200.42 16.044 201.764 16.884C203.108 17.724 204.164 18.924 204.932 20.484C205.724 22.044 206.12 23.856 206.12 25.92C206.12 27.984 205.724 29.808 204.932 31.392C204.164 32.952 203.108 34.164 201.764 35.028C200.42 35.868 198.92 36.288 197.264 36.288C195.872 36.288 194.636 36 193.556 35.424C192.5 34.848 191.672 34.104 191.072 33.192V45.576H184.916V15.912H191.072V18.756ZM199.856 25.92C199.856 24.384 199.424 23.184 198.56 22.32C197.72 21.432 196.676 20.988 195.428 20.988C194.204 20.988 193.16 21.432 192.296 22.32C191.456 23.208 191.036 24.42 191.036 25.956C191.036 27.492 191.456 28.704 192.296 29.592C193.16 30.48 194.204 30.924 195.428 30.924C196.652 30.924 197.696 30.48 198.56 29.592C199.424 28.68 199.856 27.456 199.856 25.92ZM217.521 36.288C215.769 36.288 214.209 35.988 212.841 35.388C211.473 34.788 210.393 33.972 209.601 32.94C208.809 31.884 208.365 30.708 208.269 29.412H214.353C214.425 30.108 214.749 30.672 215.325 31.104C215.901 31.536 216.609 31.752 217.449 31.752C218.217 31.752 218.805 31.608 219.213 31.32C219.645 31.008 219.861 30.612 219.861 30.132C219.861 29.556 219.561 29.136 218.961 28.872C218.361 28.584 217.389 28.272 216.045 27.936C214.605 27.6 213.405 27.252 212.445 26.892C211.485 26.508 210.657 25.92 209.961 25.128C209.265 24.312 208.917 23.22 208.917 21.852C208.917 20.7 209.229 19.656 209.853 18.72C210.501 17.76 211.437 17.004 212.661 16.452C213.909 15.9 215.385 15.624 217.089 15.624C219.609 15.624 221.589 16.248 223.029 17.496C224.493 18.744 225.333 20.4 225.549 22.464H219.861C219.765 21.768 219.453 21.216 218.925 20.808C218.421 20.4 217.749 20.196 216.909 20.196C216.189 20.196 215.637 20.34 215.253 20.628C214.869 20.892 214.677 21.264 214.677 21.744C214.677 22.32 214.977 22.752 215.577 23.04C216.201 23.328 217.161 23.616 218.457 23.904C219.945 24.288 221.157 24.672 222.093 25.056C223.029 25.416 223.845 26.016 224.541 26.856C225.261 27.672 225.633 28.776 225.657 30.168C225.657 31.344 225.321 32.4 224.649 33.336C224.001 34.248 223.053 34.968 221.805 35.496C220.581 36.024 219.153 36.288 217.521 36.288ZM232.519 13.824C231.439 13.824 230.551 13.512 229.855 12.888C229.183 12.24 228.847 11.448 228.847 10.512C228.847 9.552 229.183 8.76 229.855 8.136C230.551 7.488 231.439 7.164 232.519 7.164C233.575 7.164 234.439 7.488 235.111 8.136C235.807 8.76 236.155 9.552 236.155 10.512C236.155 11.448 235.807 12.24 235.111 12.888C234.439 13.512 233.575 13.824 232.519 13.824ZM235.579 15.912V36H229.423V15.912H235.579Z" fill="white"/>
<path d="M268.205 29.3914L260.328 15.7488C259.323 14.0059 257.678 14.0059 256.672 15.7488L248.795 29.3914C247.79 31.1343 248.613 32.5578 250.623 32.5578H266.377C268.388 32.5578 269.211 31.1318 268.205 29.3914Z" fill="white"/>
<path d="M32.5837 34.5C30.4562 34.5 28.7503 36.2059 28.7503 38.3334C28.7503 39.35 29.1542 40.3251 29.8731 41.0439C30.592 41.7628 31.567 42.1667 32.5837 42.1667C33.6003 42.1667 34.5753 41.7628 35.2942 41.0439C36.0131 40.3251 36.417 39.35 36.417 38.3334C36.417 37.3167 36.0131 36.3417 35.2942 35.6228C34.5753 34.9039 33.6003 34.5 32.5837 34.5ZM1.91699 3.83337V7.66671H5.75033L12.6503 22.2142L10.0437 26.91C9.75616 27.4467 9.58366 28.0792 9.58366 28.75C9.58366 29.7667 9.98753 30.7417 10.7064 31.4606C11.4253 32.1795 12.4003 32.5834 13.417 32.5834H36.417V28.75H14.222C14.0949 28.75 13.973 28.6996 13.8832 28.6097C13.7933 28.5198 13.7428 28.398 13.7428 28.2709C13.7428 28.175 13.762 28.0984 13.8003 28.0409L15.5253 24.9167H29.8045C31.242 24.9167 32.507 24.1117 33.1587 22.9425L40.0203 10.5417C40.1545 10.235 40.2503 9.90921 40.2503 9.58337C40.2503 9.07504 40.0484 8.58753 39.6889 8.22809C39.3295 7.86864 38.842 7.66671 38.3337 7.66671H9.98616L8.18449 3.83337M13.417 34.5C11.2895 34.5 9.58366 36.2059 9.58366 38.3334C9.58366 39.35 9.98753 40.3251 10.7064 41.0439C11.4253 41.7628 12.4003 42.1667 13.417 42.1667C14.4337 42.1667 15.4087 41.7628 16.1276 41.0439C16.8465 40.3251 17.2503 39.35 17.2503 38.3334C17.2503 37.3167 16.8465 36.3417 16.1276 35.6228C15.4087 34.9039 14.4337 34.5 13.417 34.5Z" fill="white"/>
</svg>
