<?xml version="1.0" standalone="no"?>
<!DOCTYPE svg PUBLIC "-//W3C//DTD SVG 20010904//EN"
 "http://www.w3.org/TR/2001/REC-SVG-20010904/DTD/svg10.dtd">
<svg version="1.0" xmlns="http://www.w3.org/2000/svg"
 width="700.000000pt" height="394.000000pt" viewBox="0 0 700.000000 394.000000"
 preserveAspectRatio="xMidYMid meet">

<g transform="translate(0.000000,394.000000) scale(0.100000,-0.100000)"
fill="#000000" stroke="none">
<path d="M0 3125 c0 -716 2 -816 15 -821 8 -4 15 -11 15 -16 0 -7 -5 -6 -13 1
-11 9 -14 2 -16 -38 -1 -45 1 -51 28 -64 l29 -14 -2 39 c-1 22 -9 44 -17 49
-21 13 22 12 58 -2 15 -6 63 -20 106 -30 189 -46 220 -84 293 -350 42 -157 44
-201 8 -217 -25 -12 -25 -13 -19 -100 9 -113 18 -169 53 -327 16 -71 33 -159
36 -195 4 -36 12 -93 17 -127 10 -60 13 -63 39 -63 57 0 511 103 658 149 56
17 64 18 69 4 4 -9 2 -23 -4 -32 -7 -12 -6 -20 6 -30 12 -10 10 -10 -8 1 -21
13 -33 11 -105 -10 -111 -32 -415 -99 -532 -117 -53 -8 -99 -17 -102 -19 -2
-3 4 -40 14 -83 10 -43 17 -98 15 -121 -1 -24 3 -59 9 -78 11 -34 12 -34 41
-18 16 8 27 20 23 25 -4 7 1 9 13 5 11 -4 49 3 85 14 51 16 246 60 264 60 13
0 1 -51 -14 -60 -19 -12 -15 -12 105 11 56 11 62 15 65 38 4 37 45 42 54 7 5
-22 11 -25 47 -25 23 1 80 -6 126 -15 128 -25 139 -23 147 21 4 20 2 54 -3 75
-6 21 -8 77 -5 126 4 48 6 107 5 132 -7 298 -4 593 6 603 8 8 11 4 11 -15 0
-50 17 -78 47 -78 46 1 65 23 68 79 2 27 6 54 9 59 5 9 -95 32 -137 32 -9 0
-17 5 -17 10 0 6 6 10 14 10 9 0 12 10 10 30 -3 22 1 30 12 30 10 0 14 -6 10
-15 -3 -8 -2 -15 2 -16 4 0 32 -2 62 -4 50 -3 52 -2 20 6 -19 6 -41 10 -47 11
-7 1 -13 5 -13 9 0 9 37 19 73 19 15 0 27 5 27 10 0 6 -16 10 -35 10 -19 0
-35 -3 -35 -8 0 -4 -18 -6 -40 -4 -58 6 -46 28 13 25 25 -1 49 2 52 7 3 6 17
10 31 10 42 0 26 15 -18 16 -23 1 -44 7 -46 13 -2 6 -19 11 -37 11 -26 0 -35
5 -41 22 -4 13 -2 24 5 26 14 5 14 79 0 88 -8 5 -9 26 -4 68 4 33 7 68 7 76 1
8 5 18 10 21 8 5 107 -6 113 -13 6 -6 16 -104 18 -166 1 -34 4 -62 8 -62 4 0
10 -8 12 -17 3 -10 5 0 6 22 1 32 5 41 19 42 10 1 25 -10 34 -24 l15 -25 13
31 c16 39 60 45 60 9 0 -21 1 -21 15 6 8 15 15 37 15 47 0 18 17 35 26 26 2
-2 0 -16 -6 -31 -8 -22 -7 -28 6 -33 10 -4 20 0 26 10 12 22 41 10 35 -14 -3
-11 -1 -19 4 -19 5 0 15 -15 22 -32 l14 -33 8 25 c4 14 12 31 19 39 6 7 11 21
11 30 0 11 12 17 44 19 35 2 42 0 38 -12 -3 -8 1 -20 9 -26 8 -7 14 -26 14
-42 0 -17 4 -27 10 -23 6 3 10 15 10 25 0 12 8 20 22 22 18 2 24 11 28 37 6
43 27 52 28 12 0 -18 -5 -32 -15 -35 -11 -5 -13 -10 -4 -20 6 -7 8 -16 5 -19
-4 -3 1 -14 10 -23 9 -9 18 -15 20 -13 8 10 13 88 5 83 -5 -3 -9 -1 -9 4 0 6
11 13 24 16 13 3 26 15 29 27 4 13 12 20 24 17 16 -3 18 -14 19 -87 0 -55 -4
-88 -13 -96 -10 -11 -10 -14 3 -19 12 -5 15 -14 11 -35 -6 -29 -6 -29 20 -16
25 13 26 18 24 76 -2 52 0 61 11 51 11 -8 21 -8 42 3 33 18 46 19 46 5 0 -5
-9 -10 -20 -10 -19 0 -20 -5 -15 -112 11 -251 15 -356 15 -405 0 -29 5 -53 10
-53 6 0 19 -9 31 -21 14 -14 24 -18 31 -11 6 6 23 3 49 -10 35 -16 54 -18 152
-12 138 7 167 7 240 -1 39 -5 63 -3 72 5 11 9 18 9 30 -4 14 -14 14 -19 1 -51
-14 -32 -32 -52 -20 -21 7 18 -39 24 -135 20 -40 -2 -78 -1 -85 3 -6 4 -65 8
-131 9 -66 1 -109 -1 -96 -3 21 -4 16 -8 -29 -24 -71 -25 -74 -24 -67 11 6 25
3 30 -13 30 -19 0 -20 -7 -20 -149 l0 -149 -34 -6 c-63 -12 -61 -23 -64 292
-2 158 -6 289 -8 291 -15 15 -19 -43 -19 -287 0 -153 -3 -282 -8 -289 -5 -8
-50 -12 -142 -12 -114 0 -140 -3 -160 -18 -31 -23 -37 -49 -21 -88 16 -38 10
-85 -12 -102 -14 -12 -14 -13 1 -13 21 0 26 -31 30 -203 l3 -138 -49 -40 -50
-39 -141 7 c-78 4 -163 8 -191 8 l-50 0 -8 -60 c-13 -87 -20 -101 -79 -134
-31 -18 -45 -31 -34 -31 10 0 34 9 52 21 32 20 40 17 35 -13 0 -5 731 -8 1627
-7 1086 0 1617 4 1597 11 -58 19 -171 38 -225 38 -30 0 -82 7 -115 16 -33 9
-73 16 -90 16 -61 0 -192 19 -238 36 -39 13 -50 14 -56 3 -5 -8 -19 -10 -42
-6 -19 3 -47 8 -64 10 -16 2 -32 4 -35 5 -3 1 -18 1 -35 1 -21 -1 -26 1 -16 7
11 8 11 10 0 15 -8 3 3 6 23 6 21 1 38 -4 41 -11 3 -10 9 -10 25 -1 15 9 57
11 144 8 68 -3 287 -10 488 -15 201 -6 382 -13 402 -15 33 -5 38 -3 38 15 0
28 30 26 31 -2 0 -22 1 -22 8 -3 8 19 9 18 12 -5 4 -24 7 -25 82 -28 l77 -3 0
101 0 100 70 0 70 0 0 -67 c0 -38 3 -105 7 -150 l6 -83 221 0 221 0 -3 517 -3
517 -24 23 c-15 16 -24 20 -27 12 -8 -24 -29 3 -27 34 1 18 -2 52 -6 77 l-8
45 26 -31 c15 -18 27 -37 27 -42 0 -6 8 -18 17 -28 13 -13 14 -19 5 -22 -27
-9 -10 -22 28 -22 38 0 40 1 34 25 -6 23 -4 26 17 22 13 -2 18 -2 12 0 -19 7
-16 23 5 24 13 0 14 2 2 6 -8 2 -22 7 -30 10 -8 3 -24 8 -35 10 -11 2 -25 9
-30 16 -6 7 -9 11 -7 10 2 -1 19 5 38 13 20 8 45 12 60 8 20 -5 25 -3 22 7 -3
8 -19 14 -40 15 -37 1 -98 24 -98 36 0 9 35 10 317 12 111 1 205 5 209 9 4 4
-118 8 -272 9 l-279 1 268 8 c148 4 271 9 274 12 3 3 -23 9 -58 13 -52 6 -58
9 -34 14 20 3 26 8 18 13 -14 9 -17 45 -7 71 3 9 18 16 33 17 24 0 24 1 -9 14
-19 7 -56 19 -82 25 -27 7 -48 17 -48 21 0 5 -9 9 -19 9 -11 0 -27 7 -36 16
-9 9 -40 29 -71 44 -78 41 -144 37 -247 -13 l-78 -38 0 -47 c1 -26 0 -69 -2
-95 -1 -27 1 -51 5 -53 14 -9 9 -24 -8 -24 -17 0 -163 48 -179 59 -5 4 -31 15
-57 25 -27 10 -48 22 -48 27 0 5 -25 9 -55 9 -56 0 -69 -11 -37 -29 12 -7 13
-10 3 -11 -11 0 -10 -5 4 -20 11 -12 25 -18 36 -15 9 3 21 1 24 -6 6 -8 9 -8
15 1 6 9 12 9 27 -1 20 -12 20 -13 2 -32 -16 -18 -17 -22 -4 -41 17 -24 19
-36 6 -36 -5 0 -11 8 -14 18 -2 9 -4 1 -4 -18 -1 -74 -17 -97 -56 -79 -14 6
-34 8 -44 5 -17 -7 -17 -8 -1 -17 14 -8 16 -22 12 -87 l-4 -77 15 39 c8 21 13
42 10 46 -3 5 4 6 14 3 14 -3 19 0 18 13 -1 9 3 19 9 21 9 3 12 -31 13 -118
l2 -121 -26 4 c-20 4 -25 2 -21 -9 3 -8 6 -17 6 -19 0 -2 9 -4 20 -4 15 0 20
-7 20 -26 l0 -27 -368 8 c-202 4 -416 9 -477 11 -60 1 -150 3 -198 3 -56 1
-86 5 -82 11 8 13 -84 13 -105 0 -9 -6 -19 -5 -29 3 -8 7 -35 12 -60 12 -470
5 -1377 18 -1379 20 -5 5 122 95 134 95 6 0 14 6 17 13 3 7 24 19 48 27 24 8
63 22 86 32 27 12 82 21 150 26 l108 7 -4 45 c-1 25 -6 50 -11 55 -13 17 -23
772 -10 759 6 -6 10 -20 9 -30 -4 -46 -3 -241 1 -376 4 -133 6 -148 22 -148
10 0 18 -4 18 -10 0 -5 -10 -10 -21 -10 -20 0 -21 -4 -15 -52 3 -29 6 -64 6
-78 0 -15 3 -20 8 -13 4 6 19 9 34 6 26 -5 27 -8 30 -77 l3 -71 205 -3 c113
-1 209 -7 214 -12 12 -12 -5 -18 -59 -23 -22 -2 30 -5 115 -6 85 -1 178 -7
205 -12 28 -5 70 -12 95 -15 l45 -6 2 72 3 73 -38 -7 c-20 -3 -52 -6 -69 -6
-18 0 -33 -5 -33 -10 0 -6 11 -8 25 -6 20 4 25 1 25 -15 0 -14 -7 -19 -26 -19
-15 0 -23 -4 -19 -10 12 -19 -15 -39 -43 -34 -23 5 -76 8 -194 14 -14 1 -18
10 -18 36 0 33 1 34 43 35 41 2 41 2 -15 11 -54 10 -83 33 -59 47 5 3 11 17
12 31 3 19 11 26 32 28 15 2 32 12 37 23 13 23 43 25 64 4 21 -21 26 -19 26
14 0 16 6 31 15 35 8 3 15 12 15 21 0 16 -15 21 -24 7 -4 -7 -57 -8 -142 -3
-16 1 -23 9 -27 33 -6 45 7 58 59 58 40 0 44 2 44 25 0 13 5 36 12 51 12 27
12 26 24 -22 l12 -49 1 45 c1 25 5 50 9 56 5 9 129 15 412 23 223 7 452 13
510 15 155 4 153 5 155 -81 1 -71 8 -94 23 -79 6 7 21 176 16 184 -1 2 -115 3
-254 2 -169 0 -249 3 -245 10 3 5 0 10 -9 10 -8 0 -16 -6 -18 -12 -4 -10 -10
-10 -29 -1 -15 7 -19 12 -9 13 8 1 4 5 -9 9 -30 8 -40 31 -14 31 11 0 25 6 32
13 10 10 16 8 31 -11 10 -12 23 -22 29 -22 15 0 14 27 -1 32 -7 3 -9 14 -3 34
l8 29 11 -27 c9 -22 15 -25 24 -16 10 10 19 9 45 -4 57 -29 243 -29 200 1 -5
3 -12 14 -16 24 -3 9 -11 17 -17 17 -6 0 -10 -8 -8 -17 3 -19 3 -19 -118 -15
-40 1 -54 6 -51 15 2 6 0 22 -4 34 -7 18 -3 24 21 37 17 8 44 17 61 21 27 6
31 5 26 -9 -4 -10 -1 -16 9 -16 18 0 11 34 -12 61 -8 8 -14 21 -14 27 0 7 -4
12 -10 12 -5 0 -10 7 -10 15 0 8 8 15 17 15 16 0 16 1 1 16 -31 31 -107 -10
-112 -61 -2 -22 -9 -31 -25 -33 -15 -2 -21 -11 -21 -28 0 -14 -7 -27 -15 -30
-9 -4 -13 -13 -10 -24 4 -14 -2 -19 -32 -24 -21 -3 -53 -6 -70 -6 -24 0 -33
-5 -34 -17 -6 -68 -18 -96 -40 -90 -11 3 -19 1 -19 -4 0 -12 -77 -11 -85 1 -3
5 -15 10 -27 10 -15 0 -19 5 -15 19 3 14 -2 20 -19 24 -21 4 -23 1 -20 -19 3
-17 0 -24 -11 -24 -28 0 -42 33 -43 96 0 53 3 62 20 67 27 7 25 25 -2 29 -22
3 -23 8 -24 91 0 48 3 90 8 93 4 3 8 23 8 45 0 24 -4 38 -10 34 -6 -4 -9 12
-8 44 2 43 5 50 25 54 20 4 23 0 23 -29 0 -18 5 -36 10 -39 11 -7 12 2 11 85
0 30 2 48 6 40 3 -8 15 -25 26 -37 11 -13 17 -30 15 -41 -3 -11 -2 -26 3 -33
5 -9 9 -10 9 -2 0 6 9 9 20 6 11 -3 20 -11 20 -19 0 -8 -6 -11 -16 -7 -12 4
-15 2 -12 -8 3 -8 11 -13 17 -12 6 2 11 -2 11 -7 0 -6 -4 -10 -10 -10 -5 0
-10 -17 -10 -37 0 -42 -18 -78 -27 -55 -3 7 -15 17 -28 22 -17 7 -21 14 -18
33 3 14 0 28 -6 31 -8 5 -11 -13 -11 -58 0 -52 3 -66 15 -66 11 0 15 -12 15
-50 0 -38 -4 -50 -15 -50 -23 0 -18 -19 9 -30 25 -9 40 -52 23 -69 -16 -16 28
-26 96 -23 25 2 27 5 25 37 -3 43 7 53 69 75 l48 16 1 65 c1 35 -1 49 -3 31
-5 -41 -23 -32 -23 12 0 25 -5 35 -20 39 -15 4 -20 14 -20 41 0 42 21 57 65
48 26 -4 28 -3 17 10 -11 13 -9 16 12 20 34 7 51 -5 31 -22 -8 -7 -15 -27 -15
-45 0 -19 -3 -35 -7 -37 -5 -2 -7 -36 -5 -75 3 -66 6 -73 24 -73 17 0 20 5 16
30 -3 17 0 30 6 30 6 0 5 4 -3 9 -10 6 -12 19 -7 44 6 33 10 35 54 42 60 9 66
13 47 31 -37 38 -7 43 105 18 39 -9 74 -22 77 -30 2 -7 11 -10 18 -8 8 4 15
-3 18 -18 3 -14 5 -8 6 17 1 30 4 36 11 25 8 -12 10 -10 10 11 0 14 -5 30 -12
37 -9 9 -9 12 1 12 7 0 9 5 6 10 -4 6 -2 16 3 23 5 7 12 29 14 50 4 33 1 38
-19 44 -37 9 -19 15 22 7 20 -3 32 -9 27 -13 -7 -4 -7 -19 -2 -41 4 -19 8 -29
9 -22 1 7 5 11 10 8 21 -13 35 29 38 117 1 50 7 93 12 96 4 3 7 20 5 36 -6 55
48 190 73 181 7 -3 13 1 13 10 0 10 -6 14 -15 10 -8 -3 -15 -3 -15 -1 0 10 54
148 108 273 45 107 58 129 64 112 5 -13 2 -35 -7 -57 -14 -33 -14 -34 2 -22
15 13 16 9 9 -46 -4 -33 -9 -69 -10 -80 -1 -11 -7 -19 -14 -18 -11 3 -52 -65
-52 -87 0 -5 16 -10 35 -10 29 0 35 -4 35 -22 0 -12 3 -18 7 -15 3 4 8 98 10
209 4 213 7 233 23 223 5 -3 10 -41 11 -83 0 -42 4 -95 8 -117 7 -30 9 -6 11
95 1 74 4 129 7 122 10 -25 22 -1 16 33 -4 23 -2 35 6 35 10 0 17 -70 13 -122
-1 -10 5 -18 12 -18 8 0 21 -3 29 -6 8 -3 17 2 21 11 3 9 2 13 -4 10 -5 -3
-18 -1 -27 4 -15 9 -13 10 12 11 34 0 201 -27 214 -34 8 -6 19 -8 161 -31 89
-14 96 -14 105 2 6 10 27 35 48 57 20 21 37 42 37 47 0 6 7 12 15 15 21 8 19
20 -7 44 -12 11 -17 20 -12 20 6 0 20 -9 32 -20 19 -18 22 -31 22 -105 l0 -85
-42 -1 -43 -1 38 -8 c20 -4 39 -9 41 -11 2 -2 7 -34 11 -71 7 -64 6 -66 -16
-71 -24 -4 -24 -4 -1 -6 19 -1 22 -6 22 -46 0 -25 7 -56 15 -69 18 -28 20 -71
8 -201 -6 -55 -8 -120 -6 -145 2 -25 3 -185 3 -356 l0 -311 30 5 30 4 1 77 1
76 18 -40 c24 -52 36 -115 21 -115 -6 0 -8 -6 -5 -14 4 -11 12 -12 40 -3 19 6
34 14 34 19 0 4 8 8 18 8 16 0 18 9 15 93 l-2 92 -37 13 c-25 8 -47 9 -69 3
l-33 -9 -6 192 c-7 194 -26 1470 -26 1739 l0 147 -35 0 c-35 0 -41 -8 -36 -47
1 -7 -6 -13 -16 -13 -45 -1 -360 43 -380 53 -26 12 -38 5 -30 -16 3 -8 27 -17
54 -21 79 -11 347 -46 356 -46 4 0 7 -4 7 -9 0 -10 -58 -6 -200 16 -58 9 -116
17 -130 18 -14 1 -40 5 -58 9 -21 5 -38 4 -47 -4 -18 -15 -10 -35 14 -37 22
-2 97 -16 196 -38 84 -18 109 -19 99 -4 -5 9 10 10 57 5 35 -4 67 -10 71 -12
18 -11 -5 -23 -35 -19 l-32 5 33 -10 c28 -9 45 -30 25 -30 -28 0 -139 23 -148
30 -5 4 -32 11 -58 14 -74 10 -139 24 -170 35 -38 15 -77 14 -77 -1 0 -7 -3
-22 -6 -34 -5 -19 1 -22 48 -33 59 -13 59 -13 108 -28 19 -6 99 -24 178 -39
94 -18 142 -32 142 -40 0 -9 -10 -11 -34 -7 -31 5 -34 3 -39 -26 -5 -25 -12
-31 -31 -31 -14 0 -28 -4 -31 -10 -3 -5 -1 -10 5 -10 6 0 10 -10 8 -22 -4 -32
-41 -34 -208 -8 -77 12 -148 20 -158 18 -9 -2 48 -14 128 -26 169 -26 200 -33
183 -39 -16 -6 -17 -30 -1 -35 21 -7 -2 -28 -31 -28 -36 0 -62 -27 -40 -41 21
-13 11 -12 -171 18 -91 15 -156 29 -145 31 24 5 176 -15 223 -30 23 -7 37 -7
44 0 7 7 -3 14 -33 22 -24 6 -52 14 -63 17 -10 3 -24 6 -30 7 -6 1 -41 10 -79
20 -57 16 -66 22 -62 38 4 10 2 18 -3 18 -5 0 -17 -21 -27 -47 -10 -27 -29
-69 -42 -95 -22 -45 -26 -48 -64 -48 -37 0 -40 2 -34 21 4 12 24 80 45 153 21
72 59 198 84 280 25 81 46 150 46 152 0 2 -253 3 -562 3 -320 -1 -550 -5 -533
-10 21 -6 10 -7 -35 -4 -196 14 -393 17 -399 7 -4 -7 -21 -7 -51 -2 -25 5
-188 9 -364 10 -358 0 -341 5 -216 -69 91 -54 103 -65 95 -90 -4 -15 -14 -22
-28 -20 -37 2 -45 0 -50 -20 -3 -14 -11 -17 -31 -14 -14 3 -26 9 -26 14 0 5
-7 9 -16 9 -8 0 -53 18 -100 40 -47 22 -89 40 -94 40 -6 0 -29 20 -53 45 -24
24 -56 49 -71 55 -18 7 -482 10 -1442 10 l-1414 0 0 -815z m3378 757 c2 -7 -3
-12 -12 -12 -9 0 -16 7 -16 16 0 17 22 14 28 -4z m387 -6 c83 -12 146 -24 140
-28 -14 -8 -335 34 -335 44 0 11 26 9 195 -16z m-1849 -7 c10 -12 38 -32 61
-46 50 -29 54 -36 16 -27 -46 9 -72 26 -99 61 -28 38 -10 48 22 12z m2269 -9
c120 -13 167 -21 162 -26 -4 -4 -269 21 -340 32 -20 3 -35 9 -32 13 2 5 28 5
57 0 29 -4 98 -13 153 -19z m-2452 -30 l57 -32 -7 -51 c-5 -29 -7 -80 -6 -114
l2 -61 -27 14 c-15 8 -30 14 -34 14 -9 0 -47 -85 -47 -107 -1 -10 -4 -35 -7
-55 -5 -33 -4 -38 14 -38 11 0 58 -17 104 -39 174 -81 285 -133 341 -162 32
-16 65 -29 73 -29 7 0 18 -9 24 -20 9 -17 8 -20 -14 -20 -14 0 -27 4 -30 9 -3
5 -21 12 -40 15 -19 4 -63 22 -98 40 -35 18 -88 41 -118 51 -30 10 -97 38
-147 62 -71 33 -93 48 -93 63 0 13 -7 20 -20 20 -10 0 -24 8 -29 18 -6 9 -11
13 -11 7 0 -5 -5 -3 -10 5 -8 13 -10 12 -10 -2 0 -10 -7 -18 -15 -18 -17 0
-20 16 -4 25 6 4 8 13 5 20 -2 7 2 21 9 32 16 20 20 57 6 48 -13 -7 -26 36
-14 44 28 18 40 71 34 136 -4 37 -3 89 3 116 12 58 16 59 109 9z m1684 14 c-9
-9 -28 6 -21 18 4 6 10 6 17 -1 6 -6 8 -13 4 -17z m1205 6 c79 -12 154 -25
168 -30 25 -8 25 -8 -5 -9 -39 -1 -365 46 -373 53 -11 11 68 6 210 -14z
m-1092 0 c8 -5 11 -10 5 -10 -5 0 -17 5 -25 10 -8 5 -10 10 -5 10 6 0 17 -5
25 -10z m-1613 -52 c94 -62 102 -69 74 -61 -12 3 -24 9 -27 14 -11 19 -24 8
-24 -21 0 -16 -4 -30 -10 -30 -5 0 -9 15 -8 33 1 50 -1 57 -17 57 -10 0 -15
-11 -16 -32 0 -18 -3 -26 -6 -18 -3 8 -13 23 -21 33 -15 16 -14 17 1 11 12 -4
17 -1 17 10 0 19 -45 50 -60 41 -5 -3 -10 -1 -10 4 0 21 30 10 107 -41z m211
26 c14 8 15 1 6 -42 -5 -26 -9 -29 -19 -18 -8 7 -17 31 -20 52 -7 36 -6 37 7
20 8 -10 20 -16 26 -12z m2829 10 c-3 -3 -12 -4 -19 -1 -8 3 -5 6 6 6 11 1 17
-2 13 -5z m78 -12 c-3 -3 -11 0 -18 7 -9 10 -8 11 6 5 10 -3 15 -9 12 -12z
m-1463 -23 c32 -43 59 -104 47 -108 -12 -4 -102 14 -157 31 -32 10 -33 11 -18
34 9 13 16 35 16 50 0 26 1 26 47 21 33 -3 52 -12 65 -28z m-1405 -24 c2 -20
-1 -35 -7 -35 -5 0 -10 19 -10 42 0 48 12 44 17 -7z m1565 18 c48 -14 86 -28
84 -30 -5 -5 -195 43 -203 51 -13 13 35 5 119 -21z m463 -8 c72 -8 139 -15
150 -15 11 0 15 -3 10 -9 -6 -5 -75 -2 -170 10 -88 10 -166 18 -172 19 -7 0
-13 5 -13 11 0 7 12 9 33 5 17 -3 91 -12 162 -21z m336 -5 c30 -5 74 -12 99
-14 75 -7 180 -28 180 -35 0 -4 -24 -4 -52 0 -29 4 -115 16 -190 25 -76 10
-138 22 -138 26 0 11 35 10 101 -2z m1096 4 c-3 -3 -12 -4 -19 -1 -8 3 -5 6 6
6 11 1 17 -2 13 -5z m-3802 -14 c3 -5 1 -10 -4 -10 -6 0 -11 5 -11 10 0 6 2
10 4 10 3 0 8 -4 11 -10z m3813 -7 c-10 -2 -26 -2 -35 0 -10 3 -2 5 17 5 19 0
27 -2 18 -5z m-2228 -11 c0 -13 -12 -22 -22 -16 -10 6 -1 24 13 24 5 0 9 -4 9
-8z m315 -8 l50 -13 -60 5 c-33 2 -64 9 -69 14 -14 14 17 11 79 -6z m220 6
c-3 -5 -16 -10 -28 -10 -18 0 -19 2 -7 10 20 13 43 13 35 0z m1114 0 c139 -26
151 -30 74 -25 -148 10 -213 18 -213 26 0 12 71 11 139 -1z m-3198 -50 c10 0
19 6 19 13 0 8 3 7 10 -3 7 -11 4 -17 -12 -23 -21 -7 -21 -8 -2 -25 11 -9 33
-24 49 -32 15 -8 30 -22 32 -30 3 -10 2 -11 -4 -4 -13 17 -52 36 -63 29 -14
-9 -12 -38 3 -54 10 -11 10 -14 0 -18 -18 -7 -16 -24 5 -39 22 -17 49 -18 55
-1 4 7 6 8 6 1 1 -6 -5 -17 -13 -23 -10 -8 -29 -3 -79 22 -36 17 -66 38 -67
45 0 10 4 9 16 -2 8 -9 24 -16 33 -16 15 0 19 9 20 55 1 53 0 55 -34 71 -41
19 -46 29 -10 20 l24 -6 -24 24 c-14 14 -25 30 -25 37 0 6 9 0 21 -15 11 -14
29 -26 40 -26z m449 40 c0 -5 -2 -10 -4 -10 -3 0 -8 5 -11 10 -3 6 -1 10 4 10
6 0 11 -4 11 -10z m3430 0 c20 -6 21 -8 5 -8 -11 0 -33 4 -50 8 -27 7 -27 8
-5 8 14 0 36 -4 50 -8z m-3706 -26 c3 -8 2 -12 -4 -9 -6 3 -10 10 -10 16 0 14
7 11 14 -7z m156 6 c0 -5 -2 -10 -4 -10 -3 0 -8 5 -11 10 -3 6 -1 10 4 10 6 0
11 -4 11 -10z m1690 -6 c25 -2 59 -8 75 -13 28 -9 28 -9 -15 -10 -25 0 -69 6
-99 13 -56 15 -88 34 -36 22 17 -4 50 -9 75 -12z m292 6 c40 -5 103 -12 141
-15 37 -4 67 -11 67 -17 0 -7 -18 -9 -52 -4 -29 3 -102 11 -163 17 -122 12
-179 27 -108 28 23 1 75 -3 115 -9z m-2007 -30 c22 -16 86 -61 143 -100 56
-39 102 -75 102 -80 0 -6 7 -10 15 -10 22 0 38 -36 25 -59 -8 -16 -6 -23 8
-33 10 -7 18 -22 19 -33 0 -11 3 -33 8 -48 5 -20 4 -27 -5 -25 -7 2 -14 -2
-17 -8 -2 -7 4 -11 14 -10 17 1 18 -11 19 -154 2 -136 0 -152 -13 -135 -9 12
-14 39 -12 70 2 69 1 73 -18 78 -13 3 -12 5 5 6 13 0 20 6 17 11 -3 6 -1 10 4
10 6 0 11 5 11 11 0 5 -4 8 -9 5 -5 -3 -11 3 -14 14 -3 13 -14 20 -29 20 -29
1 -62 20 -66 39 -2 8 -3 71 -3 140 l0 126 -50 33 c-27 17 -49 36 -49 41 0 5
-8 11 -18 13 -22 6 -141 90 -142 101 0 13 14 7 55 -23z m2480 0 c94 -12 174
-26 180 -31 18 -18 -41 -12 -353 37 -18 3 -30 9 -27 14 3 5 11 7 18 5 7 -2 89
-14 182 -25z m602 24 c-3 -3 -12 -4 -19 -1 -8 3 -5 6 6 6 11 1 17 -2 13 -5z
m-3127 -44 l25 -20 -32 12 c-18 7 -33 16 -33 20 0 13 13 9 40 -12z m-176 -20
c6 0 17 5 24 12 9 9 12 8 12 -5 0 -12 -8 -17 -28 -17 -27 0 -52 15 -52 33 0 5
7 1 16 -7 8 -9 21 -16 28 -16z m3076 19 c16 -5 4 -6 -35 -2 -33 3 -62 7 -64 9
-8 8 74 2 99 -7z m-3223 -31 c-3 -7 -5 -2 -5 12 0 14 2 19 5 13 2 -7 2 -19 0
-25z m2098 17 c94 -7 101 -9 112 -32 10 -20 9 -24 -1 -20 -7 3 -62 15 -122 27
-60 12 -116 26 -124 32 -11 7 -9 8 10 4 14 -2 70 -8 125 -11z m220 5 c25 -11
-1 -11 -35 0 -20 6 -21 8 -5 8 11 0 29 -3 40 -8z m-2031 -16 c3 -8 2 -12 -4
-9 -6 3 -10 10 -10 16 0 14 7 11 14 -7z m3033 10 c-3 -3 -12 -4 -19 -1 -8 3
-5 6 6 6 11 1 17 -2 13 -5z m-3067 -18 c0 -17 -58 -32 -70 -20 -5 5 5 10 23
10 17 1 33 6 35 13 5 15 12 14 12 -3z m2195 4 c-3 -5 -14 -10 -23 -9 -14 0
-13 2 3 9 27 11 27 11 20 0z m-2055 -17 c28 -19 34 -24 70 -54 24 -19 24 -20
2 -9 -29 14 -28 15 -34 -35 -5 -39 -4 -42 36 -65 53 -32 60 -35 52 -21 -4 6
-2 11 3 11 6 0 11 -9 11 -20 0 -12 7 -20 17 -20 13 0 14 -3 5 -12 -8 -8 -15
-8 -29 3 -14 11 -14 9 2 -10 l20 -24 -23 8 c-13 4 -33 16 -43 26 -22 22 -39
25 -39 7 0 -7 -11 -13 -25 -13 -14 0 -25 6 -25 14 0 7 6 11 15 8 23 -9 26 9 5
28 -12 11 -26 14 -39 10 -12 -4 -21 -2 -21 4 0 19 58 13 69 -7 5 -10 19 -18
31 -19 27 -2 21 21 -7 25 -11 2 -33 15 -49 30 -17 15 -25 24 -20 20 6 -5 18
-8 28 -8 15 0 18 8 18 45 0 33 -4 45 -15 45 -9 0 -16 -10 -17 -27 0 -17 -3
-11 -7 17 -3 25 -11 45 -18 45 -6 0 -15 3 -19 8 -15 14 22 7 46 -10z m2406 -3
c28 -8 28 -8 4 -9 -14 0 -52 6 -85 14 l-60 14 56 -5 c32 -3 70 -9 85 -14z
m-206 -3 c0 -8 -131 2 -140 10 -3 3 28 3 68 1 39 -2 72 -7 72 -11z m1563 -14
c-10 -27 -137 -213 -145 -213 -4 0 16 37 46 83 29 45 61 97 72 115 19 34 38
44 27 15z m-3886 -14 c2 -16 -1 -19 -9 -11 -5 5 -7 15 -4 21 10 15 12 14 13
-10z m1988 11 c3 -5 2 -10 -4 -10 -5 0 -13 5 -16 10 -3 6 -2 10 4 10 5 0 13
-4 16 -10z m745 -10 l35 -8 -35 -1 c-19 0 -64 6 -100 14 l-65 14 65 -5 c36 -3
81 -9 100 -14z m265 -5 l90 -14 -80 5 c-111 7 -165 15 -165 25 0 4 15 5 33 3
17 -3 73 -12 122 -19z m-2905 -20 c0 -30 -3 -35 -22 -35 -31 1 -58 23 -57 46
0 14 2 15 6 4 8 -19 34 -39 52 -40 10 0 12 8 8 30 -4 17 -2 30 3 30 6 0 10
-16 10 -35z m2026 25 c43 -5 109 -12 147 -15 63 -6 67 -8 67 -31 0 -29 5 -28
-95 -5 -44 10 -113 25 -153 32 -40 7 -75 16 -78 21 -7 10 15 10 112 -2z
m-2236 -20 c0 -5 -5 -10 -11 -10 -5 0 -7 5 -4 10 3 6 8 10 11 10 2 0 4 -4 4
-10z m88 -10 c26 -25 30 -40 5 -18 -10 8 -27 20 -38 26 -15 9 -16 11 -4 12 8
0 25 -9 37 -20z m2465 13 c-7 -2 -19 -2 -25 0 -7 3 -2 5 12 5 14 0 19 -2 13
-5z m-2737 -29 c19 -15 19 -16 -1 -8 -11 4 -28 7 -37 8 -9 0 -14 4 -12 8 8 13
29 9 50 -8z m566 -22 c13 -11 14 -17 5 -27 -10 -10 -13 -9 -17 8 -9 32 -30 33
-31 0 0 -15 -3 -22 -6 -15 -3 7 -2 24 1 38 7 25 15 25 48 -4z m-202 -12 c13
-11 18 -20 12 -20 -6 0 -14 5 -17 11 -4 5 -17 9 -28 8 -35 -2 -43 2 -22 11 29
12 30 12 55 -10z m2315 10 c3 -5 1 -10 -4 -10 -6 0 -11 5 -11 10 0 6 2 10 4
10 3 0 8 -4 11 -10z m513 3 c-10 -2 -26 -2 -35 0 -10 3 -2 5 17 5 19 0 27 -2
18 -5z m-3077 -33 c35 -17 71 -35 79 -40 8 -5 42 -24 75 -40 71 -37 86 -49 51
-43 -24 5 -26 3 -26 -31 0 -20 -5 -36 -11 -36 -6 0 -9 9 -6 20 3 11 1 18 -4
14 -13 -8 -11 20 2 33 16 16 1 36 -22 30 -11 -3 -16 -1 -13 5 3 5 -3 12 -15
15 -12 3 -21 9 -21 13 0 10 -61 32 -68 25 -3 -2 -11 3 -18 13 -12 15 -15 15
-24 2 -6 -9 -10 -10 -10 -3 0 17 -30 44 -41 38 -4 -3 -6 -27 -4 -53 5 -45 5
-46 -6 -13 -11 35 -5 81 9 81 5 0 37 -14 73 -30z m2912 23 c-7 -2 -19 -2 -25
0 -7 3 -2 5 12 5 14 0 19 -2 13 -5z m1164 -133 l-1 -140 -27 0 c-16 0 -51 5
-79 11 -42 9 -49 13 -39 25 6 8 21 11 33 8 12 -3 32 -1 46 4 22 8 20 10 -21
16 l-44 7 24 20 c17 14 19 19 8 19 -9 0 -23 -10 -31 -22 -9 -12 -18 -20 -20
-17 -3 3 12 27 32 54 21 28 53 74 71 103 19 28 37 52 41 52 4 0 7 -63 7 -140z
m-1282 105 c76 -9 141 -18 143 -20 3 -2 2 -11 -1 -19 -5 -12 -15 -12 -79 0
-40 8 -111 21 -158 30 -47 9 -89 20 -95 26 -7 7 0 8 20 4 17 -3 93 -13 170
-21z m-2971 -25 c-6 -29 -5 -30 30 -30 20 0 36 -4 36 -9 0 -8 54 -41 67 -41 1
0 3 8 3 18 0 12 5 10 18 -10 23 -38 32 -35 32 9 0 20 3 33 7 30 3 -4 6 -23 5
-42 -1 -27 4 -39 23 -51 21 -14 28 -14 42 -3 14 12 16 12 11 -1 -5 -16 69 -60
102 -60 10 0 20 -7 24 -15 3 -8 12 -15 21 -15 8 0 15 -4 15 -10 0 -5 -21 1
-47 14 -55 27 -122 58 -245 115 -49 22 -88 45 -88 51 0 6 -8 9 -18 6 -30 -10
-56 16 -48 47 9 37 17 34 10 -3z m426 -11 c0 -24 -23 -21 -28 4 -2 10 3 17 12
17 10 0 16 -9 16 -21z m-75 1 c8 7 15 7 19 2 6 -10 -15 -22 -38 -22 -7 0 -21
7 -32 15 -18 14 -17 14 10 5 20 -7 32 -7 41 0z m2806 -23 c-16 -16 -26 0 -10
19 9 11 15 12 17 4 2 -6 -1 -17 -7 -23z m306 -3 c-3 -3 -12 -4 -19 -1 -8 3 -5
6 6 6 11 1 17 -2 13 -5z m-3017 -29 c25 8 26 -1 1 -15 -15 -7 -24 -5 -43 11
l-23 20 23 -11 c12 -6 32 -8 42 -5z m3002 -11 c31 -5 35 -8 25 -19 -11 -10
-31 -9 -112 6 -54 10 -101 21 -104 25 -6 6 119 -2 191 -12z m-391 -27 c31 -1
46 -6 46 -16 0 -13 -63 -12 -189 3 -16 2 -39 4 -53 5 -14 0 -25 7 -25 14 0 10
19 11 88 5 48 -4 108 -9 133 -11z m1029 4 c-5 -11 -15 -23 -21 -27 -6 -3 -3 5
6 20 20 30 30 35 15 7z m-3562 -13 c2 6 8 12 14 12 6 0 8 -6 5 -14 -7 -18 28
-52 38 -37 3 6 3 16 0 21 -3 6 -1 10 4 10 6 0 11 -11 11 -25 0 -17 9 -29 31
-40 19 -10 29 -22 25 -31 -3 -9 6 -20 24 -29 17 -9 30 -20 30 -25 0 -11 -32 4
-62 29 -10 7 -23 11 -31 8 -7 -3 -24 7 -38 21 l-24 25 -3 -26 c-5 -39 -22 -33
-22 8 0 19 -5 35 -11 35 -6 0 -17 7 -26 15 -8 8 -19 13 -24 10 -5 -4 -9 1 -9
10 0 14 10 11 58 -15 31 -18 64 -39 73 -46 8 -8 22 -14 29 -14 8 0 -7 13 -33
30 -26 16 -47 34 -47 40 0 5 -9 10 -21 10 -11 0 -27 6 -35 14 -23 23 -16 28
13 9 19 -13 28 -14 31 -5z m-78 -8 c0 -5 -4 -10 -10 -10 -5 0 -10 5 -10 10 0
6 5 10 10 10 6 0 10 -4 10 -10z m3437 -6 c-3 -3 -12 -4 -19 -1 -8 3 -5 6 6 6
11 1 17 -2 13 -5z m56 -11 c-7 -2 -21 -2 -30 0 -10 3 -4 5 12 5 17 0 24 -2 18
-5z m44 -9 c-3 -3 -12 -4 -19 -1 -8 3 -5 6 6 6 11 1 17 -2 13 -5z m-4037 -54
c-14 -27 -12 -76 5 -110 17 -33 53 -49 66 -29 14 23 10 93 -7 117 -8 12 -12
22 -9 22 17 0 155 -63 155 -71 0 -5 9 -9 19 -9 28 0 78 -21 64 -27 -8 -3 -13
-23 -13 -52 0 -52 14 -78 45 -83 18 -3 20 3 20 60 0 38 4 61 10 58 5 -2 64
-29 130 -59 66 -29 128 -57 138 -60 11 -4 17 -17 18 -39 1 -37 17 -87 18 -55
1 16 4 16 42 -4 29 -14 44 -18 52 -10 13 13 6 22 -22 24 -34 2 -24 14 14 15
34 1 35 1 35 -38 0 -29 -4 -40 -15 -40 -8 0 -15 -7 -15 -16 0 -12 -6 -15 -22
-11 -76 19 -78 19 -78 4 0 -9 13 -18 30 -22 16 -4 33 -11 36 -17 6 -10 -171
-2 -188 9 -5 2 -8 29 -8 59 0 40 -4 54 -14 54 -8 0 -17 -12 -19 -27 -4 -26 -4
-26 -6 5 -1 33 -20 46 -22 15 0 -14 -2 -15 -6 -3 -15 46 -15 46 -23 25 -8 -19
-9 -19 -9 2 -1 17 -9 24 -36 29 -19 3 -38 10 -41 15 -8 14 -24 0 -18 -15 3 -8
-5 -16 -20 -20 -14 -3 -26 -10 -26 -15 0 -4 -17 -16 -39 -25 -38 -18 -39 -17
-89 8 -69 35 -173 122 -166 140 3 9 -1 13 -13 13 -16 -2 -18 9 -21 116 l-3
118 31 -16 c25 -13 29 -19 20 -35z m2990 40 c0 -13 -20 -13 -40 0 -12 8 -9 10
13 10 15 0 27 -4 27 -10z m600 -45 c0 -42 -3 -55 -15 -55 -12 0 -15 13 -15 55
0 42 3 55 15 55 12 0 15 -13 15 -55z m50 25 c0 -24 5 -31 26 -36 l27 -7 -27
-14 c-18 -10 -26 -22 -26 -41 0 -26 0 -26 -14 -6 -8 11 -15 42 -16 69 -2 65
-2 65 15 65 10 0 15 -10 15 -30z m378 -5 c36 -9 20 -30 -19 -27 -52 4 -243 42
-252 51 -7 7 227 -14 271 -24z m-3488 -12 c0 -25 -15 -12 -17 14 -1 19 1 22 8
12 5 -8 9 -20 9 -26z m30 -28 c0 -28 -4 -35 -19 -35 -11 0 -22 4 -25 9 -4 5 3
7 14 4 17 -5 20 0 20 26 0 17 2 31 5 31 3 0 5 -16 5 -35z m3523 15 c-6 -24
-19 -34 -27 -21 -9 14 4 41 19 41 8 0 11 -8 8 -20z m-573 -6 c0 -14 -3 -15
-17 -3 -10 7 -20 15 -22 16 -2 2 5 3 17 3 14 0 22 -6 22 -16z m-149 -32 c-7
-2 -18 1 -23 6 -8 8 -4 9 13 5 13 -4 18 -8 10 -11z m94 -2 c17 -7 16 -9 -10
-9 -16 0 -37 4 -45 9 -12 8 -10 10 10 9 14 0 34 -4 45 -9z m828 2 c18 -3 27
-11 27 -23 0 -11 -2 -19 -5 -19 -4 0 -86 16 -133 26 -13 2 -20 9 -17 15 7 10
75 11 128 1z m-3583 -22 c8 -5 15 -24 16 -42 3 -49 2 -48 24 -48 11 0 20 -4
20 -10 0 -15 -11 -12 -55 16 -22 15 -33 24 -23 21 26 -9 29 4 8 31 -30 37 -25
54 10 32z m-82 -8 c9 9 12 8 12 -5 0 -20 16 -23 22 -5 3 7 7 2 10 -10 5 -17 2
-22 -13 -22 -10 0 -19 5 -19 10 0 6 -8 10 -19 10 -10 0 -25 7 -32 17 -13 15
-12 15 7 5 16 -8 24 -8 32 0z m3093 -23 c-5 -13 -10 -19 -10 -12 -1 15 10 45
15 40 3 -2 0 -15 -5 -28z m209 21 c47 -6 92 -13 100 -16 8 -3 46 -7 85 -10 71
-4 158 -21 119 -23 -24 -1 -100 -37 -109 -51 -3 -5 -19 -10 -36 -10 -31 0 -39
-14 -14 -24 28 -10 17 -36 -15 -36 -37 0 -297 48 -309 56 -2 2 2 11 10 21 12
15 12 16 -3 10 -12 -4 -18 -2 -18 8 0 8 7 15 15 15 8 0 15 5 15 11 0 5 -5 7
-11 3 -7 -4 -4 7 7 25 21 36 31 37 164 21z m-333 -22 c-3 -8 -6 -5 -6 6 -1 11
2 17 5 13 3 -3 4 -12 1 -19z m-2830 -35 c-3 -10 -5 -4 -5 12 0 17 2 24 5 18 2
-7 2 -21 0 -30z m2253 -23 c20 -6 21 -8 5 -8 -11 0 -29 3 -40 8 -25 11 1 11
35 0z m75 -10 c8 -13 -5 -13 -25 0 -13 8 -13 10 2 10 9 0 20 -4 23 -10z m-1
-30 c95 -14 98 -24 6 -16 -110 10 -150 17 -150 29 0 6 15 7 38 3 20 -3 68 -11
106 -16z m1115 1 c-7 -10 -21 -24 -32 -31 -18 -11 -17 -8 4 18 26 34 46 43 28
13z m-869 -1 c0 -5 -4 -10 -10 -10 -5 0 -10 5 -10 10 0 6 5 10 10 10 6 0 10
-4 10 -10z m-2540 -41 c0 -5 -11 -3 -25 3 -14 6 -25 15 -25 19 0 5 11 3 25 -3
14 -6 25 -15 25 -19z m2585 13 c49 3 66 -12 56 -49 -7 -24 -6 -33 5 -37 8 -3
14 -10 14 -15 0 -17 -47 -24 -72 -10 -12 7 -32 13 -43 14 -70 5 -68 3 -60 32
8 34 23 45 46 32 21 -11 106 -12 95 -1 -4 4 -35 12 -68 17 -34 6 -63 15 -65
22 -3 9 4 10 29 2 18 -5 47 -9 63 -7z m-305 -7 c47 -8 86 -15 88 -15 1 0 2 -4
2 -10 0 -13 -164 -3 -168 10 -2 6 -13 10 -25 11 -12 0 -31 4 -42 9 -34 15 50
12 145 -5z m-4263 -41 c-3 -3 -12 -4 -19 -1 -8 3 -5 6 6 6 11 1 17 -2 13 -5z
m118 -4 c-11 -5 -29 -8 -40 -8 -16 0 -15 2 5 8 34 11 60 11 35 0z m-72 -17
c-7 -2 -21 -2 -30 0 -10 3 -4 5 12 5 17 0 24 -2 18 -5z m2000 -5 c2 -7 5 -70
6 -140 1 -104 -1 -128 -12 -128 -33 0 -42 28 -28 88 7 31 12 62 12 67 -10 105
-9 125 3 125 8 0 16 -6 19 -12z m-523 -29 c0 -14 5 -19 14 -16 8 3 17 -1 20
-10 4 -8 13 -13 21 -9 8 3 14 0 12 -6 -1 -6 4 -13 11 -15 6 -3 12 0 12 7 0 6
5 8 10 5 6 -4 8 -16 4 -28 -6 -20 -5 -20 10 -8 15 13 19 13 27 0 9 -15 12 -29
5 -29 -16 0 -150 31 -160 37 -6 4 -1 9 13 13 14 3 26 11 29 18 4 14 -34 16
-43 2 -9 -15 -25 -12 -25 6 0 9 5 12 12 8 8 -5 9 -2 5 10 -8 19 -1 36 14 36 5
0 9 -9 9 -21z m-1719 -19 c52 -11 135 -29 184 -40 176 -37 228 -51 242 -65 21
-21 10 -31 -48 -45 -27 -7 -48 -14 -46 -17 3 -2 37 4 76 13 67 16 96 14 75 -5
-5 -5 -28 -12 -52 -15 -23 -3 -52 -15 -64 -26 l-22 -20 30 -1 c26 -2 26 -2 5
-6 -19 -4 -21 -7 -10 -15 10 -7 5 -8 -16 -4 -18 4 -25 3 -17 -2 8 -5 -10 -12
-50 -20 -73 -14 -186 2 -198 28 -4 8 -16 34 -26 56 -13 28 -33 51 -64 70 -39
25 -55 29 -122 30 -43 0 -79 2 -81 5 -3 2 -7 20 -11 40 -6 34 -5 37 26 46 50
16 86 15 189 -7z m462 13 c-7 -2 -19 -2 -25 0 -7 3 -2 5 12 5 14 0 19 -2 13
-5z m-46 -9 c-3 -3 -12 -4 -19 -1 -8 3 -5 6 6 6 11 1 17 -2 13 -5z m3985 -25
c24 -6 48 -12 53 -13 92 -18 60 -46 -42 -37 -28 2 -43 8 -43 17 0 8 -6 11 -17
7 -12 -5 -15 -2 -10 10 3 9 2 17 -3 17 -6 0 -10 5 -10 11 0 6 6 9 14 6 8 -3
34 -11 58 -18z m-2747 1 c-3 -5 -11 -10 -16 -10 -6 0 -7 5 -4 10 3 6 11 10 16
10 6 0 7 -4 4 -10z m245 -55 c0 -8 -4 -15 -9 -15 -5 0 -11 7 -15 15 -3 9 0 15
9 15 8 0 15 -7 15 -15z m2834 -19 c52 -14 61 -22 47 -45 -9 -15 -91 -6 -91 10
0 4 -8 5 -17 2 -12 -5 -15 -2 -10 10 4 11 1 17 -9 17 -8 0 -12 5 -9 10 8 13
29 12 89 -4z m-4017 -72 c-3 -3 -12 -4 -19 -1 -8 3 -5 6 6 6 11 1 17 -2 13 -5z
m33 -4 c-10 -6 6 -7 45 -4 57 5 59 4 40 -11 -26 -21 -105 -10 -105 16 0 5 8 9
18 9 14 0 15 -2 2 -10z m321 -86 c10 -5 -2 -54 -13 -54 -5 0 -7 -4 -4 -9 6
-10 -90 -25 -103 -16 -5 3 -11 1 -13 -5 -1 -5 -17 -12 -34 -16 -29 -6 -32 -4
-39 25 -3 17 -11 33 -16 36 -23 15 -6 31 34 34 23 1 58 6 77 11 31 8 95 5 111
-6z m1179 -24 c0 -45 -10 -51 -25 -17 -13 28 -8 57 11 57 10 0 14 -12 14 -40z
m-1935 0 c-11 -5 -27 -9 -35 -9 -9 0 -8 4 5 9 11 5 27 9 35 9 9 0 8 -4 -5 -9z
m883 -17 c-10 -2 -28 -2 -40 0 -13 2 -5 4 17 4 22 1 32 -1 23 -4z m-1033 -22
c28 -7 27 -8 -18 -15 -27 -4 -51 -5 -55 -2 -3 3 3 6 14 7 18 0 18 1 -1 9 -18
8 -18 9 5 8 14 0 39 -3 55 -7z m183 -73 c-6 -18 -58 -29 -80 -17 -11 6 -34 8
-51 5 -30 -6 -30 -5 -7 5 14 5 33 8 42 5 10 -2 21 0 24 5 8 14 76 11 72 -3z
m3619 -41 c2 -3 6 -13 7 -23 2 -11 16 -22 37 -27 46 -12 57 -23 52 -51 -4 -20
0 -24 29 -29 18 -3 85 -22 148 -42 63 -21 147 -47 185 -57 87 -25 103 -38 47
-38 -29 0 -45 5 -48 15 -4 8 -17 15 -31 15 -32 0 -148 28 -191 46 -18 8 -46
14 -62 14 -17 0 -42 11 -61 28 -18 15 -34 26 -36 25 -8 -7 -22 -1 -42 16 -16
14 -18 21 -9 25 7 3 3 3 -9 0 -13 -3 -23 -1 -23 4 0 5 -21 19 -47 30 -27 12
-43 21 -36 22 6 0 9 9 5 22 -5 20 -2 21 37 15 24 -3 45 -8 48 -10z m-95 -97
c-4 -42 -7 -45 -24 -34 -7 5 -22 9 -33 9 -26 0 -32 33 -8 51 10 7 29 13 43 11
22 -2 25 -6 22 -37z m-453 -320 c7 -224 14 -336 22 -340 16 -10 26 -370 11
-370 -8 0 -12 19 -12 50 0 28 -4 50 -10 50 -5 0 -10 -8 -11 -17 0 -15 -2 -15
-8 2 -5 11 -6 25 -3 30 3 6 -1 4 -9 -2 -18 -18 -39 -16 -39 3 0 8 -4 12 -10 9
-6 -4 -10 9 -9 32 0 30 2 34 9 18 6 -14 9 -16 10 -5 1 8 6 4 10 -10 7 -23 8
-24 9 -3 1 12 8 26 18 31 15 9 16 46 10 437 -3 235 -4 425 -2 423 2 -2 9 -154
14 -338z m-1104 310 c-3 -5 2 -11 12 -11 10 -1 5 -5 -12 -8 -37 -9 -50 -4 -34
15 13 16 44 19 34 4z m2352 -42 c-3 -8 -6 -5 -6 6 -1 11 2 17 5 13 3 -3 4 -12
1 -19z m-3235 -10 c-7 -7 -12 -8 -12 -2 0 6 3 14 7 17 3 4 9 5 12 2 2 -3 -1
-11 -7 -17z m73 2 c3 -5 1 -10 -4 -10 -6 0 -11 5 -11 10 0 6 2 10 4 10 3 0 8
-4 11 -10z m2092 -56 c-1 -19 -4 -34 -7 -34 -17 0 -38 29 -42 56 -4 30 -3 31
23 22 22 -8 26 -15 26 -44z m771 25 c12 -5 22 -11 22 -13 0 -6 -90 20 -98 29
-8 7 39 -3 76 -16z m-683 -10 c9 -14 5 -17 -33 -24 -31 -5 -44 10 -25 28 10
11 51 8 58 -4z m-1389 -46 c-4 -4 -11 -1 -16 7 -16 25 -11 35 7 17 9 -9 13
-20 9 -24z m2201 21 c30 -9 53 -18 50 -20 -6 -6 -99 18 -111 28 -14 12 -1 10
61 -8z m140 -16 c-3 -7 -5 -2 -5 12 0 14 2 19 5 13 2 -7 2 -19 0 -25z m-3082
12 c-3 -5 -15 -10 -26 -10 -10 0 -19 5 -19 10 0 6 12 10 26 10 14 0 23 -4 19
-10z m1375 -19 c0 -21 -18 -29 -67 -29 -75 -1 -34 43 45 47 15 1 22 -5 22 -18z
m740 0 c2 -1 -1 -6 -7 -12 -13 -13 -47 -4 -39 10 4 5 14 8 24 6 9 -2 19 -4 22
-4z m50 0 c0 -6 -4 -13 -10 -16 -5 -3 -10 1 -10 9 0 9 5 16 10 16 6 0 10 -4
10 -9z m-134 -14 c1 -1 5 -16 8 -34 6 -25 3 -34 -11 -41 -29 -16 -53 8 -53 53
0 36 1 37 27 30 16 -4 29 -7 29 -8z m-840 -11 c8 -8 14 -18 14 -22 0 -4 -3 -4
-7 -1 -3 4 -12 2 -19 -4 -17 -14 -34 -3 -34 22 0 22 25 25 46 5z m1054 -26
c16 0 12 -27 -6 -34 -13 -5 -15 -20 -10 -98 3 -51 8 -173 12 -270 l6 -178 -36
0 c-20 0 -36 5 -36 10 0 6 -7 10 -15 10 -8 0 -15 4 -15 9 0 5 7 14 15 21 8 7
15 23 15 36 0 28 20 74 32 74 4 0 7 19 7 43 l-2 42 -7 -35 c-8 -39 -10 -38
-15 3 -2 18 1 30 11 34 8 3 14 12 14 20 0 8 -5 11 -10 8 -6 -4 -17 10 -26 31
-13 30 -13 38 -2 45 10 7 9 9 -4 9 -10 0 -18 5 -18 10 0 16 32 11 46 -7 11
-15 13 -5 14 71 0 87 0 88 -18 66 -25 -31 -42 -18 -42 31 0 45 5 47 37 17 l23
-21 1 49 c0 39 2 45 9 27 5 -13 14 -23 20 -23z m-1940 20 c0 -5 -2 -10 -4 -10
-3 0 -8 5 -11 10 -3 6 -1 10 4 10 6 0 11 -4 11 -10z m2704 1 c4 -5 -3 -7 -14
-4 -23 6 -26 13 -6 13 8 0 17 -4 20 -9z m-2224 -21 c0 -5 -4 -10 -10 -10 -5 0
-10 5 -10 10 0 6 5 10 10 10 6 0 10 -4 10 -10z m657 -6 c-3 -3 -12 -4 -19 -1
-8 3 -5 6 6 6 11 1 17 -2 13 -5z m-67 -14 c0 -5 -6 -10 -12 -10 -7 0 -30 -3
-50 -6 -38 -7 -56 10 -20 19 33 9 82 7 82 -3z m-171 -26 c2 -2 -10 -4 -27 -4
-18 0 -32 5 -32 10 0 9 47 4 59 -6z m1231 -5 c0 -6 -4 -7 -10 -4 -5 3 -10 11
-10 16 0 6 5 7 10 4 6 -3 10 -11 10 -16z m-2135 1 c3 -5 1 -10 -4 -10 -6 0
-11 5 -11 10 0 6 2 10 4 10 3 0 8 -4 11 -10z m275 -26 c0 -8 -5 -12 -10 -9 -6
4 -8 11 -5 16 9 14 15 11 15 -7z m1507 -16 c-3 -8 -6 -5 -6 6 -1 11 2 17 5 13
3 -3 4 -12 1 -19z m-1770 -30 c-3 -7 -5 -2 -5 12 0 14 2 19 5 13 2 -7 2 -19 0
-25z m123 6 c0 -8 -4 -12 -10 -9 -5 3 -10 1 -10 -4 0 -6 -5 -11 -10 -11 -6 0
-5 8 2 20 15 24 28 26 28 4z m100 6 c0 -5 -7 -10 -15 -10 -8 0 -15 5 -15 10 0
6 7 10 15 10 8 0 15 -4 15 -10z m1945 0 c3 -5 -1 -10 -10 -10 -9 0 -13 5 -10
10 3 6 8 10 10 10 2 0 7 -4 10 -10z m-1730 -31 c9 -39 0 -47 -25 -24 -15 13
-17 22 -9 36 14 28 26 23 34 -12z m-175 -3 c0 -2 -7 -9 -15 -16 -13 -11 -14
-10 -9 4 5 14 24 23 24 12z m-260 -21 c0 -8 -4 -15 -10 -15 -5 0 -10 7 -10 15
0 8 5 15 10 15 6 0 10 -7 10 -15z m822 -47 c-15 -15 -24 -6 -16 16 5 12 10 14
17 7 8 -8 8 -14 -1 -23z m1408 11 c0 -5 -4 -9 -10 -9 -5 0 -10 7 -10 16 0 8 5
12 10 9 6 -3 10 -10 10 -16z m-2158 -11 c-7 -7 -12 -8 -12 -2 0 6 3 14 7 17 3
4 9 5 12 2 2 -3 -1 -11 -7 -17z m2193 -17 c3 -5 1 -12 -5 -16 -5 -3 -10 1 -10
9 0 18 6 21 15 7z m-35 -25 c0 -23 -16 -27 -17 -5 -1 10 2 19 8 19 5 0 9 -6 9
-14z m-990 -6 c13 -9 13 -11 1 -19 -18 -12 -41 -3 -41 15 0 16 18 18 40 4z
m496 -75 c7 -48 -1 -69 -16 -45 -13 20 -13 90 -1 90 6 0 13 -20 17 -45z m-56
1 c-1 -5 4 -12 11 -16 9 -6 8 -12 -4 -25 -10 -9 -17 -13 -18 -8 -5 45 -4 63 3
61 5 -2 9 -7 8 -12z m40 -92 c0 -2 -9 -4 -20 -4 -11 0 -20 4 -20 9 0 5 9 7 20
4 11 -3 20 -7 20 -9z m-2200 -4 c0 -5 -6 -10 -14 -10 -8 0 -18 5 -21 10 -3 6
3 10 14 10 12 0 21 -4 21 -10z m2213 -57 c-2 -31 -9 -52 -20 -60 -29 -22 -35
-15 -32 40 3 51 8 58 49 66 3 1 4 -20 3 -46z m107 37 c0 -5 -5 -10 -11 -10 -5
0 -7 5 -4 10 3 6 8 10 11 10 2 0 4 -4 4 -10z m445 -140 c3 -5 -1 -10 -9 -10
-9 0 -16 5 -16 10 0 6 4 10 9 10 6 0 13 -4 16 -10z m-2795 -35 c0 -8 -7 -15
-15 -15 -8 0 -15 7 -15 15 0 8 7 15 15 15 8 0 15 -7 15 -15z m73 -2 c-7 -2
-21 -2 -30 0 -10 3 -4 5 12 5 17 0 24 -2 18 -5z m1881 -101 c-6 -65 -9 -72
-28 -72 -38 1 -58 25 -60 74 -2 45 4 52 37 47 4 0 7 4 7 9 0 6 7 10 15 10 8 0
15 5 15 12 0 8 3 9 10 2 7 -7 8 -38 4 -82z m1853 -59 c-9 -2 -15 -9 -12 -14 3
-5 -1 -6 -9 -3 -26 10 -18 24 12 23 17 -1 20 -3 9 -6z m-2107 -67 c0 -3 -4 -8
-10 -11 -5 -3 -10 -1 -10 4 0 6 5 11 10 11 6 0 10 -2 10 -4z m2272 -28 c31
-17 35 -24 23 -30 -9 -5 -22 -5 -32 1 -10 6 -14 11 -10 11 5 0 5 5 1 11 -4 8
-9 7 -15 -2 -8 -12 -10 -12 -18 -1 -4 8 -12 13 -17 12 -5 -1 -10 2 -11 7 -6
17 42 12 79 -9z m-2414 -73 c-7 -6 -200 -13 -194 -7 8 8 165 19 184 14 7 -3
12 -6 10 -7z m-51 -121 c-3 -3 -12 -4 -19 -1 -8 3 -5 6 6 6 11 1 17 -2 13 -5z
m2358 -4 c3 -6 -1 -7 -9 -4 -18 7 -21 14 -7 14 6 0 13 -4 16 -10z m43 -37
c-10 -2 -18 -8 -18 -13 0 -4 9 -6 20 -3 11 3 20 2 20 -2 0 -10 -23 -29 -40
-34 -39 -9 -45 -6 -45 27 0 31 1 32 40 31 22 -1 32 -3 23 -6z m90 -96 c7 -6
12 -35 12 -78 l0 -69 -82 5 c-48 4 -86 11 -90 18 -11 18 -10 95 3 118 9 18 19
20 77 18 37 -1 73 -6 80 -12z m-2910 -57 c22 0 12 -18 -20 -34 -41 -21 -58
-20 -58 2 0 26 22 44 45 38 11 -3 26 -6 33 -6z m-1718 -54 c0 -2 -7 -7 -16
-10 -8 -3 -12 -2 -9 4 6 10 25 14 25 6z m3167 -22 c-3 -3 -12 -4 -19 -1 -8 3
-5 6 6 6 11 1 17 -2 13 -5z m1263 -63 c0 -12 -29 -23 -42 -15 -6 4 -5 10 3 15
18 11 39 11 39 0z m-3200 -145 c0 -7 7 -27 15 -42 8 -16 15 -52 15 -80 0 -27
4 -54 9 -60 5 -5 11 -60 14 -121 l4 -113 -33 0 -34 0 0 58 c0 31 -3 128 -7
215 -4 114 -3 157 6 157 6 0 11 -6 11 -14z m260 -281 c0 -11 -13 -15 -54 -15
-58 0 -85 16 -39 23 65 10 93 7 93 -8z m2355 -5 c3 -5 -1 -10 -9 -10 -8 0 -18
5 -21 10 -3 6 1 10 9 10 8 0 18 -4 21 -10z m-970 -180 c31 -7 24 -7 -30 -3
-38 3 -72 7 -74 9 -8 7 64 3 104 -6z m1645 -80 c8 -5 11 -12 8 -16 -10 -9 -38
3 -38 16 0 12 10 13 30 0z"/>
<path d="M5926 3465 c-9 -26 -7 -32 5 -12 6 10 9 21 6 23 -2 3 -7 -2 -11 -11z"/>
<path d="M2010 3067 c0 -32 3 -35 55 -54 l55 -21 0 30 c0 25 -7 32 -47 50 -27
12 -51 24 -55 26 -5 2 -8 -12 -8 -31z"/>
<path d="M2140 3031 c0 -5 -3 -16 -6 -25 -6 -15 48 -51 60 -39 13 14 5 53 -13
63 -24 12 -41 13 -41 1z"/>
<path d="M2342 2893 c4 -19 38 -31 38 -14 0 6 -7 11 -16 11 -8 0 -12 5 -9 10
3 6 1 10 -5 10 -6 0 -10 -8 -8 -17z"/>
<path d="M4946 2982 c-3 -5 1 -9 9 -9 8 0 12 4 9 9 -3 4 -7 8 -9 8 -2 0 -6 -4
-9 -8z"/>
<path d="M4990 2970 c8 -5 24 -10 35 -10 17 0 17 2 5 10 -8 5 -24 10 -35 10
-17 0 -17 -2 -5 -10z"/>
<path d="M1148 2603 c7 -3 16 -2 19 1 4 3 -2 6 -13 5 -11 0 -14 -3 -6 -6z"/>
<path d="M6450 3873 c0 -38 -4 -74 -9 -81 -5 -9 -28 -13 -72 -12 -35 1 -68 1
-74 0 -19 -4 50 -18 93 -19 l44 -1 -6 -72 c-3 -40 -5 -92 -6 -114 0 -35 -4
-43 -22 -48 -26 -7 -111 -101 -106 -116 2 -6 30 14 62 45 33 30 61 55 63 55 4
0 -3 -170 -6 -176 -1 -1 -12 -5 -26 -8 -35 -9 -31 -27 4 -20 23 5 32 2 41 -16
7 -12 9 -33 5 -48 -4 -15 -8 -63 -9 -107 -3 -92 -20 -152 -44 -158 -14 -4 -12
-6 7 -13 l24 -7 -9 -246 c-4 -135 -9 -340 -11 -456 -1 -115 -7 -239 -13 -275
-6 -36 -8 -75 -5 -88 3 -12 6 -68 6 -125 0 -57 3 -108 7 -114 4 -6 36 -19 71
-28 76 -19 145 -53 183 -89 24 -23 26 -30 21 -85 -6 -59 -5 -61 23 -72 16 -6
52 -13 81 -14 29 -2 56 -6 61 -9 5 -3 24 -8 43 -11 19 -3 52 -10 74 -15 53
-13 55 -12 55 5 0 8 -9 15 -20 15 -11 0 -20 5 -20 10 0 6 9 10 20 10 18 0 20
7 20 79 0 78 0 79 -27 86 -16 4 -22 10 -15 12 6 3 12 11 12 19 0 8 7 14 15 14
13 0 15 21 14 128 0 80 -4 120 -9 107 -5 -11 -9 -30 -9 -43 -1 -12 -5 -30 -10
-40 -18 -37 -41 -121 -41 -151 0 -18 -9 -49 -19 -70 -11 -21 -23 -61 -27 -89
-6 -46 -9 -51 -28 -47 -130 32 -121 28 -121 63 0 17 -3 32 -6 32 -3 0 -5 30
-3 67 2 46 -1 75 -11 89 -8 12 -14 30 -15 40 -1 35 -1 64 0 87 1 12 -3 55 -8
95 -6 55 -5 75 4 83 10 8 15 3 21 -22 5 -18 15 -35 22 -37 13 -4 11 9 -6 56
-3 7 3 12 13 13 11 0 4 5 -13 10 -29 8 -33 14 -33 43 0 27 4 32 23 32 12 -1
27 -7 32 -14 8 -10 11 -8 12 10 1 13 5 37 8 54 6 36 -13 59 -44 49 -22 -7 -34
6 -25 29 6 15 7 15 19 0 9 -13 14 -14 20 -4 4 7 2 16 -5 20 -9 5 -8 9 3 13 18
7 12 40 -9 58 -11 9 -10 14 5 30 11 12 18 34 17 57 -1 30 -5 38 -23 40 -29 4
-30 32 -3 39 18 5 19 8 7 22 -16 18 -28 69 -17 76 4 2 2 27 -4 55 -8 40 -7 53
2 59 14 8 9 64 -6 69 -9 3 2 84 13 103 4 5 -1 9 -9 9 -9 0 -16 -6 -17 -12 0
-7 -6 5 -13 27 -6 22 -11 57 -10 78 1 20 -3 37 -8 37 -10 0 -7 82 5 130 4 13
2 27 -4 31 -6 3 -14 24 -19 45 -10 42 -8 169 2 179 3 3 3 18 -1 33 -4 15 -4
41 0 57 23 94 29 129 29 164 0 23 7 46 16 55 8 9 11 16 5 16 -15 0 -24 39 -12
54 6 7 8 16 5 19 -10 10 16 65 33 71 8 4 13 13 10 20 -3 8 1 20 9 26 15 13 18
49 8 88 -6 22 -9 22 -155 22 l-149 0 0 -67z m278 -1822 c3 -8 -1 -12 -9 -9 -7
2 -15 10 -17 17 -3 8 1 12 9 9 7 -2 15 -10 17 -17z m32 5 c0 -3 -4 -8 -10 -11
-5 -3 -10 -1 -10 4 0 6 5 11 10 11 6 0 10 -2 10 -4z"/>
<path d="M5431 3873 c-1 -6 -4 -20 -7 -30 -5 -17 -5 -17 6 0 6 10 9 23 6 30
-3 9 -5 9 -5 0z"/>
<path d="M6929 3829 c-10 -19 -9 -20 13 -14 12 4 30 13 38 21 12 12 11 14 -13
14 -16 0 -30 -8 -38 -21z"/>
<path d="M6827 3743 c-13 -12 -7 -43 7 -43 8 0 27 11 42 25 l27 25 -35 0 c-19
0 -38 -3 -41 -7z"/>
<path d="M5427 3666 c-4 -10 -5 -21 -2 -24 9 -9 17 6 13 25 -3 17 -4 17 -11
-1z"/>
<path d="M5401 3592 c-14 -26 -7 -42 10 -25 6 6 9 19 7 29 -3 17 -5 17 -17 -4z"/>
<path d="M6300 3524 c-18 -47 -8 -55 30 -24 37 30 37 34 3 44 -19 6 -25 2 -33
-20z"/>
<path d="M6378 3393 c7 -3 16 -2 19 1 4 3 -2 6 -13 5 -11 0 -14 -3 -6 -6z"/>
<path d="M6300 3249 c0 -5 5 -7 10 -4 6 3 10 8 10 11 0 2 -4 4 -10 4 -5 0 -10
-5 -10 -11z"/>
<path d="M5375 3000 c3 -5 14 -10 23 -10 15 0 15 2 2 10 -20 13 -33 13 -25 0z"/>
<path d="M5528 2963 c7 -3 16 -2 19 1 4 3 -2 6 -13 5 -11 0 -14 -3 -6 -6z"/>
<path d="M6328 2948 c-16 -5 -28 -13 -28 -17 0 -14 48 0 54 15 3 8 4 14 3 13
-1 0 -14 -5 -29 -11z"/>
<path d="M5650 2901 c0 -5 -9 -13 -20 -16 -11 -4 -18 -10 -15 -15 3 -5 -6 -12
-21 -16 -16 -4 -22 -9 -14 -14 8 -5 5 -9 -9 -13 -12 -3 -24 -13 -27 -24 -3
-10 -9 -26 -14 -35 -8 -13 -4 -18 20 -23 35 -8 70 1 70 18 1 22 39 59 52 51 7
-4 10 -4 6 1 -5 5 3 23 17 41 28 37 31 46 11 38 -8 -3 -17 -1 -21 5 -8 13 -35
15 -35 2z m10 -54 c-62 -57 -76 -62 -26 -9 28 28 52 49 55 46 3 -3 -10 -19
-29 -37z"/>
<path d="M5831 2819 c-30 -16 -46 -29 -37 -29 9 0 16 -4 16 -10 0 -5 -6 -10
-14 -10 -18 0 -58 -49 -50 -61 3 -5 17 -9 32 -9 19 0 48 20 102 70 41 38 71
69 65 70 -5 0 -32 -21 -60 -46 -27 -25 -63 -55 -80 -67 l-30 -21 20 24 c11 14
30 33 43 43 12 10 22 25 22 33 0 8 6 14 14 14 7 0 19 7 26 15 20 24 -8 18 -69
-16z"/>
<path d="M5251 2804 c0 -11 3 -14 6 -6 3 7 2 16 -1 19 -3 4 -6 -2 -5 -13z"/>
<path d="M5310 2811 c0 -5 14 -11 31 -15 49 -10 57 -6 19 9 -43 17 -50 17 -50
6z"/>
<path d="M5116 2785 c-9 -26 -7 -32 5 -12 6 10 9 21 6 23 -2 3 -7 -2 -11 -11z"/>
<path d="M5438 2773 c7 -3 16 -2 19 1 4 3 -2 6 -13 5 -11 0 -14 -3 -6 -6z"/>
<path d="M5441 2670 c-38 -32 -37 -59 4 -61 14 -1 30 -2 37 -3 6 -1 12 9 13
20 1 12 9 30 19 39 27 28 9 31 -21 4 -20 -17 -23 -18 -10 -3 36 44 8 47 -42 4z"/>
<path d="M5116 2645 c5 -11 2 -13 -10 -9 -11 4 -19 -2 -26 -21 -14 -36 -6 -45
37 -45 27 0 33 3 26 13 -12 15 7 55 25 49 6 -2 12 1 12 6 0 5 -10 12 -22 16
-37 9 -48 7 -42 -9z"/>
<path d="M5632 2622 c-38 -32 -41 -46 -8 -48 14 -1 39 12 62 32 46 40 42 45
-6 9 -47 -34 -57 -31 -18 5 42 38 16 40 -30 2z"/>
<path d="M5178 2563 c7 -3 16 -2 19 1 4 3 -2 6 -13 5 -11 0 -14 -3 -6 -6z"/>
<path d="M5348 2559 c-21 -12 -24 -39 -4 -39 8 0 21 -2 28 -5 11 -5 38 30 38
48 0 8 -48 4 -62 -4z"/>
<path d="M5043 2500 c0 -30 2 -43 4 -27 2 15 2 39 0 55 -2 15 -4 2 -4 -28z"/>
<path d="M5073 2524 c-3 -8 -2 -19 3 -24 14 -13 115 -40 125 -34 18 11 -2 22
-51 29 -40 6 -50 11 -50 26 0 23 -18 25 -27 3z"/>
<path d="M5506 2511 c-10 -11 -13 -21 -7 -25 5 -4 12 -2 16 3 3 6 12 8 19 5 8
-3 17 -1 21 5 4 7 -1 8 -12 4 -16 -6 -16 -5 -4 10 20 25 -10 23 -33 -2z"/>
<path d="M5007 2513 c-4 -3 -7 -11 -7 -17 0 -6 5 -5 12 2 6 6 9 14 7 17 -3 3
-9 2 -12 -2z"/>
<path d="M5310 2461 c0 -20 33 -41 63 -39 l32 1 -34 4 c-22 3 -35 11 -38 24
-5 19 -23 27 -23 10z"/>
<path d="M5087 2433 c-13 -13 -7 -21 20 -26 39 -7 50 3 22 19 -28 15 -33 16
-42 7z"/>
<path d="M5165 2400 c3 -5 13 -10 21 -10 8 0 12 5 9 10 -3 6 -13 10 -21 10 -8
0 -12 -4 -9 -10z"/>
<path d="M4985 2383 c1 -10 8 -17 14 -15 6 1 11 -5 11 -13 0 -8 -5 -14 -12
-12 -21 4 -20 -30 2 -36 17 -4 20 0 20 23 0 17 7 33 18 39 16 10 16 10 0 11
-10 0 -18 5 -18 10 0 6 -9 10 -19 10 -13 0 -18 -6 -16 -17z"/>
<path d="M5086 2158 c4 -134 8 -255 8 -270 1 -31 11 -37 20 -13 3 8 13 15 21
15 9 0 13 5 10 10 -3 6 -3 15 1 21 4 8 9 7 15 -2 7 -11 9 -10 9 5 0 14 -5 17
-25 12 -14 -4 -25 -2 -25 4 0 5 5 10 11 10 6 0 10 18 8 43 -2 43 14 97 29 97
4 0 7 18 5 40 -1 31 3 42 18 50 23 13 26 42 4 34 -8 -4 -15 -1 -15 5 0 6 7 11
15 11 12 0 14 14 12 72 l-2 72 -50 13 c-27 7 -56 13 -64 13 -11 0 -12 -39 -5
-242z"/>
<path d="M6720 2396 c0 -2 7 -6 15 -10 8 -3 15 -1 15 4 0 6 -7 10 -15 10 -8 0
-15 -2 -15 -4z"/>
<path d="M4984 2278 c-3 -4 2 -11 11 -15 12 -4 15 -13 11 -34 -3 -16 -1 -31 4
-34 6 -4 10 14 10 43 0 37 -4 49 -15 49 -9 0 -18 -4 -21 -9z"/>
<path d="M4994 2158 c3 -13 6 -26 6 -30 0 -5 5 -8 10 -8 6 0 10 14 10 30 0 21
-5 30 -16 30 -12 0 -15 -6 -10 -22z"/>
<path d="M4992 2001 c3 -75 25 -72 27 5 1 43 -2 54 -15 54 -12 0 -15 -11 -12
-59z"/>
<path d="M0 1993 c0 -16 8 -37 18 -46 39 -36 43 -14 7 39 l-25 37 0 -30z"/>
<path d="M4420 1996 c0 -9 7 -16 16 -16 17 0 14 22 -4 28 -7 2 -12 -3 -12 -12z"/>
<path d="M4129 1973 c-2 -32 3 -128 7 -132 2 -2 4 30 4 72 0 43 -2 77 -5 77
-3 0 -6 -8 -6 -17z"/>
<path d="M4752 1925 c-2 -53 7 -85 24 -85 8 0 14 -7 14 -15 0 -8 -6 -15 -14
-15 -9 0 -13 -9 -12 -23 4 -32 14 -47 32 -47 8 0 14 -6 14 -12 0 -10 2 -10 9
0 7 11 9 11 14 -1 6 -17 55 -29 63 -16 12 20 -9 49 -47 65 -45 20 -47 27 -19
56 17 19 18 24 6 36 -11 11 -18 12 -36 2 -29 -15 -38 -5 -43 50 l-4 45 -1 -40z"/>
<path d="M6992 1920 c0 -19 2 -27 5 -17 2 9 2 25 0 35 -3 9 -5 1 -5 -18z"/>
<path d="M5110 1829 c-8 -15 -10 -76 -7 -203 3 -99 6 -182 6 -183 1 -2 13 3
27 9 23 11 24 13 7 19 -15 7 -15 8 5 8 28 1 24 26 -4 26 -15 0 -18 6 -16 30 2
17 8 32 13 33 6 3 5 10 -2 19 -10 12 -10 16 2 24 11 7 11 9 -4 9 -10 0 -15 5
-12 10 3 6 15 10 26 10 10 0 19 4 19 9 0 5 11 12 25 15 23 6 24 8 10 22 -15
15 -19 28 -16 50 1 7 -9 14 -21 17 -13 4 -31 20 -41 36 -16 28 -16 30 -1 39
11 6 13 12 6 16 -6 4 -16 -3 -22 -15z m40 -91 c0 -6 -6 -5 -15 2 -8 7 -15 14
-15 16 0 2 7 1 15 -2 8 -4 15 -11 15 -16z"/>
<path d="M300 1798 c-23 -37 -25 -38 -30 -17 -5 22 -7 21 -23 -13 -9 -20 -17
-53 -17 -75 0 -21 -7 -92 -16 -158 -8 -66 -17 -163 -20 -216 -3 -85 -1 -100
16 -122 24 -30 25 -41 5 -33 -12 4 -15 -3 -15 -35 0 -37 1 -39 26 -33 24 6 25
5 19 -28 -6 -31 -3 -37 29 -62 33 -25 36 -31 36 -77 0 -36 8 -67 29 -107 35
-69 62 -155 63 -202 1 -39 18 -79 42 -99 9 -8 16 -23 16 -35 0 -12 4 -26 9
-31 5 -6 12 -28 15 -50 9 -63 18 -99 28 -112 5 -6 6 -27 3 -47 -6 -28 -15 -39
-46 -56 -22 -11 -47 -20 -56 -20 -11 0 -13 -4 -5 -12 5 -7 15 -46 22 -85 l12
-73 324 0 c216 0 324 3 324 10 0 6 -7 27 -15 47 -9 21 -15 67 -15 112 0 82 -7
121 -21 121 -5 0 -9 -12 -9 -26 0 -24 -3 -26 -31 -20 -26 5 -29 3 -25 -12 8
-24 -59 -48 -82 -30 -17 15 -38 20 -79 18 -17 0 -34 4 -38 10 -3 6 -10 8 -15
5 -5 -3 -11 -1 -15 5 -11 18 -24 10 -27 -17 -4 -36 -19 -35 -37 1 -11 23 -11
33 -2 48 10 17 9 20 -8 25 -12 3 -21 14 -21 24 0 11 -4 19 -10 19 -5 0 -10 11
-10 23 0 13 -9 32 -21 43 -12 10 -34 36 -50 56 -28 35 -29 38 -17 81 10 37 9
54 -6 103 -9 33 -22 77 -28 99 -7 22 -19 58 -28 80 -48 112 -97 263 -92 282 2
7 -5 24 -14 38 -18 27 -12 47 8 27 20 -20 38 -14 38 12 0 14 -10 30 -22 38
-28 18 -52 99 -62 208 -6 59 -19 125 -27 130 -5 3 -2 18 6 33 l14 27 -44 0
-44 0 4 47 c3 31 11 53 23 63 23 19 65 87 60 99 -2 5 -14 -9 -28 -31z m510
-1640 c0 21 64 11 68 -10 3 -15 -4 -18 -46 -18 -46 0 -50 2 -45 21 4 16 8 17
14 7 7 -11 9 -11 9 0z m20 -108 c0 -5 -2 -10 -4 -10 -3 0 -8 5 -11 10 -3 6 -1
10 4 10 6 0 11 -4 11 -10z"/>
<path d="M6720 1802 c0 -11 20 -38 20 -28 0 5 6 4 13 -2 7 -6 18 -7 25 -3 10
6 10 10 0 18 -16 13 -58 23 -58 15z"/>
<path d="M1943 1784 c-3 -8 -1 -20 6 -27 8 -8 11 -4 11 16 0 30 -7 35 -17 11z"/>
<path d="M1756 1782 c-3 -5 1 -9 9 -9 8 0 12 4 9 9 -3 4 -7 8 -9 8 -2 0 -6 -4
-9 -8z"/>
<path d="M1994 1774 c4 -13 -1 -28 -13 -41 -19 -21 -19 -21 10 -19 27 1 29 3
23 31 -3 16 -11 35 -16 40 -7 7 -8 3 -4 -11z"/>
<path d="M1839 1738 c0 -18 -3 -27 -6 -20 -4 10 -8 9 -19 -5 -18 -24 -17 -33
3 -33 14 0 14 -2 -2 -20 -18 -20 -17 -20 58 -20 42 0 78 -4 81 -9 9 -14 40 -2
54 20 11 17 9 19 -15 20 -16 1 -44 1 -63 0 -34 -3 -34 -2 -15 14 11 9 15 14 8
11 -6 -4 -14 -2 -18 4 -4 6 -11 8 -16 4 -18 -11 -41 18 -34 43 3 13 1 23 -5
23 -5 0 -10 -15 -11 -32z"/>
<path d="M5756 1741 c-3 -5 1 -11 9 -15 9 -3 15 0 15 9 0 16 -16 20 -24 6z"/>
<path d="M2046 1705 c4 -8 11 -15 18 -16 6 0 0 -5 -14 -10 -24 -10 -24 -11 -5
-21 11 -6 24 -18 28 -25 7 -12 12 -12 28 3 25 22 24 34 -5 62 -27 25 -58 30
-50 7z"/>
<path d="M4150 1695 c0 -8 5 -15 10 -15 6 0 10 7 10 15 0 8 -4 15 -10 15 -5 0
-10 -7 -10 -15z"/>
<path d="M2355 1680 c3 -5 8 -10 11 -10 2 0 4 5 4 10 0 6 -5 10 -11 10 -5 0
-7 -4 -4 -10z"/>
<path d="M5320 1663 c0 -12 4 -24 9 -27 11 -7 20 -76 9 -76 -4 0 -8 -9 -8 -21
0 -12 5 -19 13 -16 6 2 11 10 9 17 -1 7 3 18 9 26 19 23 21 74 4 74 -8 0 -15
7 -15 15 0 18 36 20 43 3 4 -8 6 -7 6 3 1 13 -10 18 -39 21 -36 3 -40 1 -40
-19z"/>
<path d="M2288 1673 c12 -2 30 -2 40 0 9 3 -1 5 -23 4 -22 0 -30 -2 -17 -4z"/>
<path d="M5410 1656 c0 -2 7 -6 15 -10 8 -3 15 -1 15 4 0 6 -7 10 -15 10 -8 0
-15 -2 -15 -4z"/>
<path d="M1768 1643 c7 -3 16 -2 19 1 4 3 -2 6 -13 5 -11 0 -14 -3 -6 -6z"/>
<path d="M4903 1643 c-38 -7 -26 -23 17 -23 29 0 40 4 40 15 0 15 -13 17 -57
8z"/>
<path d="M5192 1638 c-18 -18 -15 -28 8 -28 13 0 20 7 20 20 0 23 -10 26 -28
8z"/>
<path d="M6023 1633 c9 -2 23 -2 30 0 6 3 -1 5 -18 5 -16 0 -22 -2 -12 -5z"/>
<path d="M2362 1540 c-1 -25 3 -63 7 -85 l9 -40 0 45 c1 25 -3 63 -7 85 l-9
40 0 -45z"/>
<path d="M1977 1499 c7 -7 15 -10 18 -7 3 3 -2 9 -12 12 -14 6 -15 5 -6 -5z"/>
<path d="M2330 1428 c0 -32 3 -39 10 -28 13 20 13 70 0 70 -5 0 -10 -19 -10
-42z"/>
<path d="M4102 1375 c1 -19 6 -35 10 -35 4 0 8 3 8 8 0 4 28 8 63 8 62 2 134
7 260 20 47 4 67 3 67 -5 0 -6 12 -11 26 -11 21 0 24 4 20 23 -3 12 -3 16 0
10 3 -7 12 -13 20 -13 8 0 14 -4 14 -10 0 -5 12 -10 28 -9 l27 1 -25 8 c-32
10 -20 13 59 11 40 0 68 -6 73 -13 6 -10 12 -10 29 0 15 10 24 11 28 3 8 -12
61 -11 61 1 0 4 -4 8 -10 8 -5 0 -10 7 -10 14 0 13 -55 15 -375 15 l-376 1 3
-35z m381 18 c-7 -2 -19 -2 -25 0 -7 3 -2 5 12 5 14 0 19 -2 13 -5z"/>
<path d="M4081 1364 c0 -11 3 -14 6 -6 3 7 2 16 -1 19 -3 4 -6 -2 -5 -13z"/>
<path d="M5184 1364 c-4 -16 -11 -20 -26 -16 -18 4 -19 3 -7 -17 8 -11 17 -21
20 -21 4 0 9 -9 12 -19 4 -17 0 -20 -33 -19 -21 0 -42 -2 -47 -5 -6 -4 -6 -30
-2 -64 5 -32 11 -78 14 -103 l6 -46 56 -1 56 -2 -7 57 c-4 31 -9 100 -13 152
-6 101 -18 143 -29 104z"/>
<path d="M5221 1364 c0 -11 3 -14 6 -6 3 7 2 16 -1 19 -3 4 -6 -2 -5 -13z"/>
<path d="M1779 1305 c-8 -21 -16 -30 -20 -23 -4 7 -10 -5 -15 -27 -4 -21 -3
-45 3 -54 5 -9 9 -37 7 -63 -2 -27 1 -48 6 -48 5 0 6 -15 3 -34 -4 -28 -2 -34
16 -39 18 -4 23 0 28 23 4 22 11 29 26 27 11 -1 22 4 24 11 3 7 1 12 -4 11 -4
-1 -17 -1 -28 0 -19 1 -18 3 5 21 20 16 22 22 11 29 -9 6 -12 19 -7 42 16 78
14 100 -9 111 -15 7 -21 16 -18 29 9 34 -15 20 -28 -16z m-2 -77 c-3 -8 -6 -5
-6 6 -1 11 2 17 5 13 3 -3 4 -12 1 -19z m25 -121 c-9 -35 -17 -24 -18 25 -1
49 -1 50 11 22 6 -16 10 -37 7 -47z m-10 -59 c-7 -7 -12 -8 -12 -2 0 14 12 26
19 19 2 -3 -1 -11 -7 -17z"/>
<path d="M4130 1328 c0 -4 -8 -7 -17 -6 -10 1 -44 0 -76 0 l-59 -2 7 -32 c12
-56 29 -83 53 -84 12 -1 22 3 22 9 0 5 -8 7 -19 4 -14 -3 -17 0 -14 14 6 20
23 26 23 8 0 -7 11 -9 27 -6 15 3 36 1 45 -4 22 -12 23 -6 3 14 -12 13 -11 15
11 20 18 3 24 0 22 -11 -2 -12 7 -16 35 -17 28 -1 37 2 33 12 -4 9 7 15 35 19
24 4 36 10 28 14 -18 11 25 32 53 25 13 -3 55 -1 93 4 l70 8 -75 2 c-41 1
-119 3 -172 3 -53 1 -95 4 -93 8 2 3 -5 6 -16 6 -10 0 -19 -4 -19 -8z m114
-36 c2 -4 -4 -9 -15 -9 -10 -1 -19 2 -19 8 0 11 27 12 34 1z"/>
<path d="M5338 1305 c-3 -14 -1 -28 3 -31 5 -3 9 0 9 6 0 6 5 8 10 5 11 -7 13
6 4 29 -9 24 -21 19 -26 -9z"/>
<path d="M4618 1313 c7 -3 16 -2 19 1 4 3 -2 6 -13 5 -11 0 -14 -3 -6 -6z"/>
<path d="M6480 1299 c43 -9 219 -4 229 6 2 3 -58 5 -135 4 -111 -1 -130 -3
-94 -10z"/>
<path d="M6752 1305 c9 -9 212 -13 233 -4 12 4 -34 8 -109 8 -71 1 -127 -1
-124 -4z"/>
<path d="M1695 1250 c-3 -5 -1 -10 4 -10 6 0 11 5 11 10 0 6 -2 10 -4 10 -3 0
-8 -4 -11 -10z"/>
<path d="M1957 1253 c-4 -3 -7 -22 -7 -41 0 -45 10 -36 13 12 4 39 4 39 -6 29z"/>
<path d="M6060 1239 c0 -10 45 -23 75 -22 11 1 14 -1 8 -4 -20 -7 -15 -22 7
-20 11 1 20 7 20 13 0 12 122 30 139 20 5 -3 23 -3 40 0 69 14 23 22 -129 22
-88 0 -160 -4 -160 -9z"/>
<path d="M6548 1233 c28 -2 76 -2 105 0 28 2 5 3 -53 3 -58 0 -81 -1 -52 -3z"/>
<path d="M1675 1210 c-8 -13 -1 -24 14 -19 6 3 7 10 2 18 -6 10 -10 10 -16 1z"/>
<path d="M6328 1193 c7 -3 16 -2 19 1 4 3 -2 6 -13 5 -11 0 -14 -3 -6 -6z"/>
<path d="M1713 1140 c0 -25 2 -35 4 -22 2 12 2 32 0 45 -2 12 -4 2 -4 -23z"/>
<path d="M4035 1150 c-3 -6 5 -10 19 -10 14 0 28 5 31 10 3 6 -5 10 -19 10
-14 0 -28 -4 -31 -10z"/>
<path d="M6025 1140 c3 -5 11 -10 16 -10 6 0 7 5 4 10 -3 6 -11 10 -16 10 -6
0 -7 -4 -4 -10z"/>
<path d="M2101 1124 c0 -11 3 -14 6 -6 3 7 2 16 -1 19 -3 4 -6 -2 -5 -13z"/>
<path d="M4200 1104 c0 -22 2 -25 15 -14 12 10 13 16 4 26 -16 20 -19 18 -19
-12z"/>
<path d="M6970 1115 c0 -8 4 -15 10 -15 5 0 7 7 4 15 -4 8 -8 15 -10 15 -2 0
-4 -7 -4 -15z"/>
<path d="M2151 1104 c0 -11 3 -14 6 -6 3 7 2 16 -1 19 -3 4 -6 -2 -5 -13z"/>
<path d="M4270 1088 c19 -74 22 -78 49 -78 l26 -1 -30 -14 c-27 -12 -18 -13
101 -14 72 -1 193 -4 270 -7 76 -4 137 -4 134 -1 -8 8 -117 16 -237 17 -126 0
-160 19 -40 21 39 1 60 4 45 6 -22 3 -28 10 -28 29 0 13 -4 24 -9 24 -5 0 -8
-11 -5 -25 4 -22 1 -25 -26 -25 -24 0 -30 4 -31 23 -1 21 -1 21 -9 -3 -4 -14
-8 -19 -9 -11 -1 10 -4 11 -15 2 -12 -10 -15 -7 -19 16 l-4 28 -2 -30 c-2 -26
-3 -27 -11 -10 -7 17 -9 17 -9 3 -2 -37 -82 -4 -89 37 -5 26 -12 33 -12 12 0
-9 -5 -17 -10 -17 -6 0 -10 6 -9 13 3 25 -1 37 -15 37 -11 0 -12 -7 -6 -32z
m190 -89 c0 -12 -81 -11 -100 1 -10 6 3 9 43 9 31 -1 57 -5 57 -10z"/>
<path d="M5998 1113 c7 -3 16 -2 19 1 4 3 -2 6 -13 5 -11 0 -14 -3 -6 -6z"/>
<path d="M6516 1105 c-17 -13 -18 -15 -2 -21 20 -8 29 -1 24 20 -3 13 -6 13
-22 1z"/>
<path d="M2010 1078 c0 -17 3 -28 7 -25 9 10 10 57 1 57 -4 0 -8 -14 -8 -32z"/>
<path d="M2047 1086 c-3 -8 1 -20 9 -26 12 -10 14 -8 14 14 0 28 -14 35 -23
12z"/>
<path d="M1916 1078 c-3 -7 -6 -32 -8 -55 -2 -30 0 -39 8 -32 6 5 14 6 17 2 4
-3 7 14 7 40 0 44 -15 73 -24 45z m11 -50 c-3 -7 -5 -2 -5 12 0 14 2 19 5 13
2 -7 2 -19 0 -25z"/>
<path d="M1961 1067 c-1 -16 6 -35 14 -44 14 -14 16 -12 13 20 -1 20 -5 34 -9
31 -4 -2 -10 2 -12 8 -3 7 -6 0 -6 -15z"/>
<path d="M2090 1065 c0 -6 7 -12 15 -12 8 0 15 6 15 12 0 6 -7 12 -15 12 -8 0
-15 -6 -15 -12z"/>
<path d="M4502 1050 c0 -14 2 -19 5 -12 2 6 2 18 0 25 -3 6 -5 1 -5 -13z"/>
<path d="M1712 1040 c0 -14 2 -19 5 -12 2 6 2 18 0 25 -3 6 -5 1 -5 -13z"/>
<path d="M4520 1045 c0 -8 4 -15 10 -15 5 0 7 7 4 15 -4 8 -8 15 -10 15 -2 0
-4 -7 -4 -15z"/>
<path d="M2010 1019 c0 -5 5 -7 10 -4 6 3 10 8 10 11 0 2 -4 4 -10 4 -5 0 -10
-5 -10 -11z"/>
<path d="M6088 1023 c-103 -2 -158 -7 -158 -14 0 -6 9 -13 21 -16 16 -5 18 -8
7 -15 -8 -5 5 -6 31 -2 32 5 42 4 37 -4 -4 -7 -18 -12 -32 -12 -26 0 -31 -12
-11 -28 7 -7 25 -7 47 -2 19 4 31 8 26 9 -5 1 1 10 14 21 46 40 140 18 140
-32 0 -25 50 -40 129 -39 41 0 76 3 78 5 2 2 -34 16 -81 32 -90 29 -108 44
-53 44 18 0 38 5 45 12 9 9 17 9 34 0 13 -6 46 -9 73 -7 127 10 415 17 439 11
24 -6 26 -10 26 -62 0 -34 -4 -53 -10 -49 -5 3 -10 16 -10 28 -1 40 -25 59
-74 59 -51 1 -69 -8 -46 -22 10 -7 11 -10 3 -10 -7 0 -12 -10 -10 -22 2 -21
-3 -23 -45 -26 -27 -2 -48 -8 -48 -14 0 -6 9 -8 21 -5 36 9 86 -22 108 -67 33
-70 5 -89 -110 -75 -35 4 -68 4 -72 0 -5 -5 22 -12 59 -16 121 -13 148 -78 53
-130 -47 -25 -56 -45 -22 -45 29 0 92 -43 104 -72 10 -25 9 -32 -10 -52 -22
-23 -28 -46 -12 -46 5 0 19 -16 31 -35 12 -19 28 -35 36 -35 16 0 19 -16 3
-25 -6 -4 -8 -13 -5 -21 5 -13 -6 -19 -27 -15 -4 1 -21 -6 -37 -14 -37 -19
-64 -19 -80 0 -9 11 -29 15 -76 13 -35 -2 -64 -4 -64 -6 0 -7 94 -42 113 -42
12 0 37 -9 55 -20 18 -11 42 -20 55 -20 41 0 65 -12 71 -33 3 -12 0 -25 -7
-30 -9 -7 -9 -10 1 -14 15 -6 16 -35 0 -51 -9 -9 3 -12 56 -12 l68 0 -6 312
c-4 172 -9 395 -11 495 -2 101 -6 187 -9 191 -3 5 -126 12 -273 15 -147 4
-304 8 -348 10 -44 2 -151 2 -237 0z m812 -165 c10 -62 11 -86 5 -116 -6 -32
-9 -34 -15 -17 -12 29 -12 135 0 135 6 0 10 -1 10 -2z m11 -321 c0 -76 -2
-141 -5 -144 -6 -7 -9 45 -6 108 1 20 -4 56 -10 80 -8 30 -9 44 -1 47 6 2 8
17 4 35 -4 23 -3 29 5 22 7 -6 12 -63 13 -148z m8 -259 l-2 -103 -7 75 c-7 67
-4 130 6 130 2 0 3 -46 3 -102z"/>
<path d="M1830 960 c-8 -5 -12 -12 -9 -15 4 -3 12 1 19 10 14 17 11 19 -10 5z"/>
<path d="M3529 909 c14 -14 20 -14 51 -1 51 21 50 23 -12 20 -51 -3 -55 -4
-39 -19z"/>
<path d="M1763 909 c-27 -10 -31 -47 -6 -56 15 -6 53 27 53 47 0 13 -24 18
-47 9z"/>
<path d="M2985 890 c-4 -6 8 -10 30 -10 22 0 34 4 30 10 -3 6 -17 10 -30 10
-13 0 -27 -4 -30 -10z"/>
<path d="M6260 860 c0 -13 11 -13 30 0 12 8 11 10 -7 10 -13 0 -23 -4 -23 -10z"/>
<path d="M6211 782 c-6 -11 -21 -22 -33 -24 -16 -2 -24 -11 -26 -28 -2 -14 -8
-29 -13 -34 -15 -16 -10 -25 24 -42 17 -9 38 -25 45 -35 14 -20 43 -22 84 -7
l28 10 -43 22 c-33 17 -42 27 -43 49 -1 15 3 27 8 27 5 0 6 5 3 10 -3 6 4 14
16 19 l23 8 -24 13 c-14 7 -28 17 -31 23 -4 5 -12 0 -18 -11z"/>
<path d="M2044 614 c-18 -14 -18 -14 6 -3 31 14 36 19 24 19 -6 0 -19 -7 -30
-16z"/>
<path d="M1763 487 l-153 -61 0 -33 c0 -18 4 -33 10 -33 15 0 114 53 122 66 4
6 31 22 60 34 29 12 62 33 73 45 11 12 29 27 40 33 43 24 -7 7 -152 -51z"/>
<path d="M10 520 c-28 -17 -1 -22 42 -7 l43 15 -35 1 c-19 0 -42 -3 -50 -9z"/>
<path d="M850 485 c-14 -16 -10 -18 14 -9 9 3 16 10 16 15 0 14 -16 11 -30 -6z"/>
<path d="M6242 460 c19 -17 43 -30 58 -30 22 1 20 3 -15 21 -22 10 -44 24 -49
29 -6 6 -14 10 -19 10 -4 0 7 -13 25 -30z"/>
<path d="M810 460 c-8 -5 -12 -11 -9 -14 2 -3 11 -1 19 4 8 5 12 11 9 14 -2 3
-11 1 -19 -4z"/>
<path d="M15 430 l-20 -9 20 0 c11 0 27 4 35 9 13 9 13 10 0 9 -8 0 -24 -4
-35 -9z"/>
<path d="M65 320 c3 -5 8 -10 11 -10 2 0 4 5 4 10 0 6 -5 10 -11 10 -5 0 -7
-4 -4 -10z"/>
<path d="M0 159 l0 -159 150 0 c93 0 150 4 150 10 0 6 -9 10 -20 10 -13 0 -20
7 -20 19 0 11 -9 22 -19 26 -12 4 -18 12 -14 21 7 18 -14 18 -47 -1 -30 -17
-40 -18 -40 -6 0 5 8 12 18 14 16 4 16 5 0 6 -10 0 -18 9 -18 18 0 9 -7 24
-15 33 -14 16 -14 20 2 48 16 28 16 32 1 49 -9 10 -18 27 -21 38 -5 19 -5 19
-12 -2 -9 -29 -13 -29 -36 1 -10 13 -28 26 -39 29 -19 5 -20 1 -20 -154z"/>
<path d="M6292 278 c18 -31 25 -36 54 -30 30 5 42 22 17 22 -11 0 -28 7 -39
15 -31 23 -47 20 -32 -7z"/>
<path d="M6257 136 c-9 -22 24 -45 50 -36 32 13 20 50 -17 50 -15 0 -30 -6
-33 -14z"/>
<path d="M6400 73 c0 -11 61 -45 68 -38 3 3 -1 12 -9 19 -17 17 -59 30 -59 19z"/>
<path d="M1417 23 c-4 -3 -7 -11 -7 -17 0 -6 5 -5 12 2 6 6 9 14 7 17 -3 3 -9
2 -12 -2z"/>
</g>
</svg>
