<?xml version="1.0" standalone="no"?>
<!DOCTYPE svg PUBLIC "-//W3C//DTD SVG 20010904//EN"
 "http://www.w3.org/TR/2001/REC-SVG-20010904/DTD/svg10.dtd">
<svg version="1.0" xmlns="http://www.w3.org/2000/svg"
 width="815.000000pt" height="420.000000pt" viewBox="0 0 815.000000 420.000000"
 preserveAspectRatio="xMidYMid meet">

<g transform="translate(0.000000,420.000000) scale(0.100000,-0.100000)"
fill="#000000" stroke="none">
<path d="M0 3742 l0 -459 31 5 c22 3 30 1 25 -7 -4 -6 0 -11 9 -11 10 0 15 6
12 13 -3 7 3 13 14 14 10 1 21 -7 24 -18 4 -11 15 -19 28 -19 18 0 19 2 7 10
-20 13 -4 13 21 0 15 -8 25 -6 48 11 29 21 69 20 56 -1 -3 -5 3 -10 14 -10 12
0 21 3 21 8 0 10 164 6 240 -8 36 -6 164 -15 285 -20 174 -7 109 -8 -307 -5
l-528 4 0 -35 c0 -19 4 -33 9 -30 5 3 23 3 41 -1 26 -5 29 -8 16 -15 -9 -5
-14 -13 -11 -19 4 -5 -8 -9 -24 -9 l-31 0 0 -130 0 -129 805 -1 805 0 0 100 0
100 -168 -1 c-99 0 -177 4 -192 11 -18 8 50 9 255 5 154 -3 339 -5 410 -6 72
-1 122 -3 113 -6 -16 -4 -18 -18 -18 -104 l0 -99 35 0 35 0 0 110 c0 103 1
110 20 110 11 0 20 -4 20 -10 0 -5 -7 -10 -16 -10 -8 0 -13 -4 -9 -10 3 -5 13
-6 21 -3 11 4 15 0 14 -13 -6 -53 1 -174 10 -174 6 0 10 43 10 109 l0 109 108
7 c192 11 187 11 187 -5 6 -123 20 -222 32 -227 8 -3 17 -3 20 1 5 5 -3 112
-23 294 l-6 52 -412 0 c-226 0 -528 3 -671 7 l-260 6 2 441 2 441 236 -2 235
-3 0 45 0 45 -800 0 -800 0 0 -458z m633 -469 c-7 -2 -19 -2 -25 0 -7 3 -2 5
12 5 14 0 19 -2 13 -5z m1240 -80 c-29 -2 -78 -2 -110 0 -32 2 -8 3 52 3 61 0
87 -1 58 -3z m-318 -28 c33 -2 195 -5 360 -6 165 -1 278 -5 252 -9 -27 -3 -52
-12 -56 -19 -4 -6 -12 -11 -17 -10 -5 1 -17 -1 -27 -6 -16 -7 -397 -2 -1574
21 l-323 6 -2 -58 c0 -33 -2 -63 -3 -69 -2 -5 -4 -21 -5 -35 -1 -23 -2 -23 -9
-5 -5 11 -6 26 -4 33 3 6 1 12 -5 12 -5 0 -14 -19 -19 -42 -10 -39 -11 -34
-12 57 -1 55 -4 111 -8 124 l-6 23 699 -7 c384 -4 726 -9 759 -10z m798 -2
c-18 -2 -48 -2 -65 0 -18 2 -4 4 32 4 36 0 50 -2 33 -4z m-189 -34 c3 -3 -4
-5 -14 -6 -11 -1 -20 2 -20 7 0 8 25 8 34 -1z m-1817 -55 c-3 -3 -12 -4 -19
-1 -8 3 -5 6 6 6 11 1 17 -2 13 -5z m299 -5 c3 -5 -9 -9 -25 -9 -34 0 -42 -15
-13 -24 9 -3 1 -3 -18 1 -19 3 -54 6 -77 6 -24 1 -43 5 -43 9 0 5 -12 8 -27 9
-16 0 -37 4 -48 9 -13 6 28 9 113 8 73 0 135 -5 138 -9z m762 -25 c12 -8 26
-13 31 -10 4 3 16 -3 26 -14 10 -11 13 -20 7 -20 -15 0 -91 40 -98 51 -8 14 9
11 34 -7z m-963 -4 c3 -5 1 -10 -4 -10 -6 0 -11 5 -11 10 0 6 2 10 4 10 3 0 8
-4 11 -10z m3 -44 c-7 -8 -15 -12 -17 -11 -5 6 10 25 20 25 5 0 4 -6 -3 -14z
m925 7 c3 -5 -13 -9 -35 -10 -33 -2 -63 -13 -142 -51 -5 -3 -6 0 -2 6 19 32
166 76 179 55z"/>
<path d="M122 3159 c2 -6 8 -10 13 -10 5 0 11 4 13 10 2 6 -4 11 -13 11 -9 0
-15 -5 -13 -11z"/>
<path d="M800 3150 c0 -5 22 -10 49 -10 28 0 53 5 56 10 4 6 -15 10 -49 10
-31 0 -56 -4 -56 -10z"/>
<path d="M1055 3150 c3 -5 21 -10 38 -10 24 0 28 3 17 10 -20 13 -63 13 -55 0z"/>
<path d="M2035 3130 c3 -5 8 -10 11 -10 2 0 4 5 4 10 0 6 -5 10 -11 10 -5 0
-7 -4 -4 -10z"/>
<path d="M2694 3540 c3 -548 1 -660 -11 -660 -7 0 -13 -4 -13 -10 0 -5 11 -10
23 -10 22 0 23 -3 17 -42 -4 -24 -12 -54 -17 -68 -6 -14 -13 -38 -17 -55 -6
-24 -5 -28 5 -17 7 6 26 12 42 12 22 0 28 -4 25 -17 -2 -10 -11 -19 -21 -21
-12 -3 -15 1 -11 15 5 16 4 16 -10 -1 -22 -28 -20 -33 17 -45 17 -7 64 -40
102 -75 56 -52 68 -67 58 -77 -20 -20 -15 -37 20 -72 19 -19 46 -68 66 -117
19 -47 41 -92 49 -100 8 -8 12 -9 8 -2 -4 7 3 37 15 67 l23 55 -20 48 c-12 26
-25 46 -31 45 -5 -1 -9 11 -8 28 1 16 -4 37 -11 47 -22 28 -16 33 34 26 61 -8
98 10 135 63 22 32 26 47 23 86 -2 27 -11 56 -20 66 -9 10 -16 22 -16 27 0 5
5 1 11 -8 13 -23 33 -24 25 -2 -4 9 0 22 8 28 13 10 21 46 16 71 -1 6 -1 25 0
43 1 20 -5 41 -16 53 -16 18 -16 19 -1 13 14 -5 17 0 17 27 0 48 -32 96 -69
104 -34 7 -38 14 -19 33 9 9 9 15 -1 25 -10 10 -11 9 -6 -4 8 -22 -15 -36 -29
-18 -6 8 -27 15 -46 17 -67 5 -64 -8 -56 220 4 114 13 354 19 535 7 180 9 327
5 327 -12 0 -17 -74 -28 -405 -22 -672 -21 -666 -39 -671 -51 -15 -108 -54
-135 -91 -16 -24 -34 -43 -39 -43 -7 0 -8 64 -4 173 4 94 11 321 17 502 5 182
12 376 14 431 l4 102 -53 1 -53 0 2 -659z m330 -1176 c3 -8 2 -12 -4 -9 -6 3
-10 10 -10 16 0 14 7 11 14 -7z"/>
<path d="M2068 4013 c-48 -55 -49 -94 -4 -139 38 -38 54 -41 96 -19 51 26 57
100 12 148 -30 32 -81 37 -104 10z m51 -71 c-3 -19 2 -23 16 -12 8 7 15 11 16
9 9 -46 12 -44 -41 -23 -37 15 -49 32 -34 47 8 7 44 -10 43 -21z"/>
<path d="M1220 3987 c0 -33 2 -35 40 -39 30 -3 40 0 40 11 0 11 4 10 15 -5 12
-17 14 -17 15 -2 0 25 -18 68 -30 68 -5 0 -12 -11 -16 -25 -7 -27 -19 -25 -19
3 0 10 -9 18 -22 20 -20 3 -23 -1 -23 -31z"/>
<path d="M1340 3987 c0 -20 5 -37 10 -37 6 0 10 5 10 12 0 6 6 3 14 -7 13 -18
14 -17 13 18 -1 24 -5 36 -13 33 -6 -2 -17 1 -23 7 -8 8 -11 1 -11 -26z"/>
<path d="M1410 4010 c-12 -8 -13 -13 -2 -30 7 -12 8 -20 2 -20 -5 0 -10 -4
-10 -10 0 -5 9 -10 20 -10 12 0 20 7 20 17 0 15 1 15 13 -1 17 -23 51 -17 55
10 2 11 -6 28 -17 38 -19 17 -20 17 -40 -3 -11 -11 -23 -16 -26 -11 -3 4 0 10
7 12 7 3 8 7 2 11 -5 3 -16 2 -24 -3z m67 -42 c-3 -8 -6 -5 -6 6 -1 11 2 17 5
13 3 -3 4 -12 1 -19z"/>
<path d="M3720 3923 c0 -26 3 -28 42 -30 24 -1 46 3 50 10 6 9 8 9 8 0 0 -7 9
-13 20 -13 13 0 20 7 20 20 0 22 -15 27 -23 8 -3 -8 -6 -5 -6 6 -1 15 -4 16
-16 6 -10 -9 -15 -9 -15 -1 0 6 -5 11 -11 11 -6 0 -9 -7 -5 -15 3 -8 1 -15 -4
-15 -6 0 -10 9 -10 20 0 22 -15 27 -23 8 -4 -10 -6 -10 -6 0 -2 25 -21 11 -21
-15z"/>
<path d="M3890 3920 c0 -35 10 -38 28 -10 14 23 8 40 -14 40 -9 0 -14 -11 -14
-30z"/>
<path d="M3980 3930 c-10 -13 -16 -16 -21 -8 -5 8 -12 7 -23 -5 -22 -22 -7
-29 66 -34 50 -3 58 -1 59 14 0 16 2 15 9 -2 5 -11 9 -15 10 -10 0 6 5 2 11
-7 16 -29 38 -22 37 12 -1 36 -13 46 -33 30 -11 -9 -15 -9 -15 -1 0 20 -20 12
-30 -11 l-9 -23 0 23 c-1 12 -6 22 -12 22 -6 0 -9 -7 -5 -15 3 -8 1 -15 -4
-15 -6 0 -10 9 -10 19 0 28 -14 33 -30 11z"/>
<path d="M1432 3918 c-5 -7 -13 -23 -16 -35 -10 -30 -30 -29 -50 2 -14 21 -23
25 -59 23 -56 -3 -117 -41 -117 -71 0 -13 3 -27 8 -31 4 -4 7 -31 7 -59 0 -47
2 -52 29 -61 24 -9 31 -7 46 12 21 26 27 27 46 7 10 -9 25 -13 39 -9 13 3 41
7 62 8 21 1 44 5 51 10 8 5 21 1 32 -9 15 -13 23 -15 33 -7 14 12 55 9 147
-12 68 -15 99 -9 130 29 21 26 2 87 -33 103 -16 8 -46 32 -67 54 -28 31 -42
39 -58 34 -14 -5 -24 -1 -30 9 -5 10 -18 15 -33 13 -19 -2 -26 -11 -32 -43
-10 -48 -28 -87 -42 -92 -14 -4 -35 52 -28 76 11 43 -39 81 -65 49z m38 -10
c-1 -7 -7 -24 -15 -38 -20 -34 -18 -42 5 -35 24 8 28 -16 5 -35 -8 -7 -15 -17
-15 -23 0 -5 9 -2 20 8 11 10 20 13 20 7 0 -6 -9 -16 -19 -22 -24 -13 -35 1
-25 32 6 20 5 21 -10 6 -9 -9 -16 -21 -16 -27 0 -9 -80 -31 -89 -24 -3 2 5 10
17 19 12 8 22 22 22 31 0 13 -5 12 -25 -7 -31 -29 -33 -15 -3 17 12 13 30 23
39 23 16 0 17 -4 8 -26 -5 -15 -7 -29 -5 -31 10 -11 26 10 36 49 18 63 29 88
40 88 5 0 10 -6 10 -12z m157 -35 c-6 -31 7 -29 28 3 23 35 40 18 21 -22 -22
-46 -28 -72 -16 -79 5 -3 14 5 20 19 5 14 14 26 20 26 13 0 13 -17 0 -25 -17
-11 -11 -31 9 -31 11 0 17 4 15 8 -3 4 0 17 6 29 9 15 15 18 23 10 6 -6 20
-11 30 -11 18 0 18 -1 3 -25 -20 -31 -20 -36 1 -28 11 4 14 3 9 -5 -4 -7 -14
-12 -23 -12 -11 0 -14 7 -11 25 6 27 -1 32 -20 13 -7 -7 -33 -13 -57 -14 -44
-1 -44 -1 -47 35 l-3 36 -19 -35 c-11 -20 -21 -29 -24 -22 -2 7 1 19 8 27 7 9
8 20 2 30 -7 14 -11 12 -21 -13 -14 -34 -48 -69 -57 -59 -3 3 6 18 20 34 15
15 31 46 37 68 20 73 18 69 35 54 9 -7 14 -22 11 -36z m-287 -24 c-18 -35 -51
-69 -68 -69 -8 0 -2 12 17 29 33 31 40 51 18 51 -19 0 -44 -30 -52 -62 -4 -16
-12 -28 -17 -28 -6 0 -7 7 -4 16 3 9 9 27 12 41 6 22 4 24 -15 18 -32 -10 -25
8 11 28 21 12 34 15 36 8 2 -7 11 -6 25 4 18 13 23 13 35 1 11 -11 12 -18 2
-37z m390 -9 c0 -5 -4 -10 -9 -10 -6 0 -13 5 -16 10 -3 6 1 10 9 10 9 0 16 -4
16 -10z"/>
<path d="M4423 3907 c-33 -15 -47 -58 -33 -101 22 -68 83 -75 113 -13 18 36
18 38 0 74 -20 41 -48 55 -80 40z m11 -53 c9 -3 16 -14 17 -23 0 -10 2 -11 6
-3 8 19 23 14 23 -8 0 -24 -3 -24 -40 -5 -17 9 -30 22 -30 30 0 17 2 17 24 9z"/>
<path d="M3740 3810 c-19 -11 -31 -19 -27 -20 5 0 17 5 28 10 14 8 19 7 19 -2
0 -9 3 -9 11 -1 23 23 3 31 -31 13z"/>
<path d="M3795 3819 c4 -5 0 -18 -9 -28 -9 -10 -15 -30 -14 -44 l2 -27 24 30
c28 36 78 44 67 10 -4 -11 -2 -20 4 -20 6 0 11 7 11 15 0 19 29 32 39 17 4 -6
14 -3 30 9 13 10 18 19 13 19 -6 0 -13 -4 -16 -9 -10 -16 -110 0 -125 20 -14
20 -37 27 -26 8z"/>
<path d="M4115 3799 c-4 -6 -5 -12 -2 -15 2 -3 7 2 10 11 7 17 1 20 -8 4z"/>
<path d="M4007 3789 c7 -7 15 -10 18 -7 3 3 -2 9 -12 12 -14 6 -15 5 -6 -5z"/>
<path d="M4075 3791 c-3 -5 -1 -12 5 -16 5 -3 10 1 10 9 0 18 -6 21 -15 7z"/>
<path d="M4121 3768 c-13 -16 -21 -31 -19 -33 7 -7 51 42 47 53 -2 5 -15 -4
-28 -20z"/>
<path d="M3981 3783 c-1 -6 -4 -20 -7 -30 -5 -17 -5 -17 6 0 6 10 9 23 6 30
-3 9 -5 9 -5 0z"/>
<path d="M3707 3746 c-6 -42 -2 -43 17 -5 19 39 19 36 2 36 -8 0 -16 -14 -19
-31z"/>
<path d="M4034 3769 c-3 -6 0 -15 7 -20 11 -6 9 -10 -6 -15 -12 -5 -20 -3 -23
5 -3 9 -7 9 -18 0 -8 -7 -29 -9 -49 -6 -19 3 -37 2 -39 -2 -3 -4 -17 -7 -33
-6 -24 0 -28 4 -26 25 2 22 1 23 -8 7 -5 -9 -7 -22 -4 -27 3 -6 0 -10 -7 -11
-7 0 -22 -2 -33 -4 -12 -3 -26 4 -35 16 -16 20 -16 20 -30 -5 -7 -14 -19 -26
-27 -26 -14 0 -16 -9 -5 -26 13 -19 36 -22 55 -6 12 11 21 12 28 5 8 -8 20 -8
38 -2 14 5 71 13 125 17 97 8 151 2 274 -28 34 -8 49 -7 72 5 16 8 32 20 35
26 11 17 -4 24 -26 11 -24 -15 -69 -5 -69 15 0 13 -3 13 -15 3 -13 -11 -14
-10 -9 6 7 18 6 18 -12 3 -15 -14 -29 -15 -69 -9 -27 4 -53 6 -57 3 -5 -2 -8
0 -8 6 0 5 6 11 12 13 9 3 8 9 -4 21 -20 20 -24 21 -34 6z"/>
<path d="M3947 3763 c-4 -3 -7 -11 -7 -17 0 -6 5 -5 12 2 6 6 9 14 7 17 -3 3
-9 2 -12 -2z"/>
<path d="M3890 3749 c0 -5 5 -7 10 -4 6 3 10 8 10 11 0 2 -4 4 -10 4 -5 0 -10
-5 -10 -11z"/>
<path d="M4140 3739 c0 -5 5 -7 10 -4 6 3 10 8 10 11 0 2 -4 4 -10 4 -5 0 -10
-5 -10 -11z"/>
<path d="M4282 3730 c-7 -12 -8 -20 -2 -20 5 0 10 5 10 11 0 5 4 7 10 4 6 -3
7 1 4 9 -8 20 -7 20 -22 -4z"/>
<path d="M4240 3719 c0 -5 5 -7 10 -4 6 3 10 8 10 11 0 2 -4 4 -10 4 -5 0 -10
-5 -10 -11z"/>
<path d="M5710 3702 c0 -16 9 -19 50 -21 40 -1 50 2 50 14 0 17 -39 18 -51 2
-3 -5 -13 -1 -22 7 -20 21 -27 20 -27 -2z"/>
<path d="M8124 3709 c-4 -6 -35 -24 -69 -40 -94 -42 -149 -113 -185 -236 -6
-21 -19 -100 -29 -175 -13 -97 -25 -147 -39 -170 -12 -18 -47 -80 -78 -138
-32 -58 -60 -107 -63 -110 -4 -3 -15 -23 -26 -45 -11 -22 -37 -65 -58 -96 -31
-46 -41 -73 -53 -145 -8 -49 -12 -103 -9 -119 3 -18 0 -38 -7 -47 -22 -27
-178 -129 -221 -144 -23 -8 -51 -23 -62 -33 -18 -16 -53 -29 -133 -48 -13 -3
-33 -1 -45 5 -12 6 -30 13 -39 16 -22 7 -24 54 -4 82 14 17 16 18 28 3 8 -11
33 -18 70 -21 53 -4 59 -2 93 29 20 18 40 33 46 33 5 0 9 5 9 10 0 6 -4 10
-10 10 -5 0 -10 8 -10 18 1 16 1 16 14 0 7 -10 21 -16 32 -14 99 18 96 16 91
39 -3 12 -12 52 -21 89 -16 74 -35 115 -63 140 -30 27 -168 78 -212 78 -42 0
-44 -2 -132 -83 -17 -15 -32 -17 -127 -11 -132 8 -166 0 -268 -67 -44 -28 -81
-53 -82 -54 -5 -4 47 -232 58 -260 5 -11 18 -65 30 -120 11 -55 39 -174 60
-265 22 -91 42 -181 45 -200 4 -25 15 -41 38 -55 17 -11 33 -28 35 -37 5 -25
-77 -74 -136 -83 -26 -3 -58 -9 -72 -12 -39 -9 -11 14 30 24 30 8 36 14 40 44
4 30 9 35 40 40 l35 6 -36 2 -36 1 3 45 c1 24 6 50 10 56 5 9 2 10 -9 6 -10
-3 -17 -2 -17 3 0 6 4 10 8 10 5 0 9 14 9 31 l0 31 -63 -5 c-62 -4 -94 -18
-94 -41 0 -7 -23 -10 -70 -8 -53 3 -70 0 -70 -10 0 -7 9 -57 20 -111 11 -55
20 -107 20 -118 0 -24 -20 -25 -20 -1 -1 9 -7 28 -16 42 l-15 25 6 -32 c8 -39
16 -37 -245 -58 -107 -9 -204 -21 -215 -26 -14 -6 -4 -8 35 -4 30 2 96 6 145
9 75 4 81 3 40 -4 -85 -16 -256 -32 -263 -25 -3 3 0 10 8 15 12 8 12 10 2 10
-10 0 -9 9 7 35 17 29 18 40 9 59 -14 31 -2 102 15 88 7 -5 47 -8 90 -6 48 2
75 -1 72 -6 -4 -6 -12 -10 -18 -10 -12 0 -47 -34 -47 -45 0 -3 26 -4 58 -4 47
1 52 3 27 9 -16 4 25 6 93 3 67 -2 122 -3 122 -1 0 2 -7 39 -14 83 -8 44 -13
82 -10 84 2 2 4 -2 4 -9 0 -9 5 -7 14 5 13 18 15 17 25 -21 19 -69 26 -138 13
-130 -6 3 -13 2 -16 -3 -4 -5 7 -9 25 -9 26 1 30 4 25 22 -3 12 -14 71 -25
131 -54 301 -113 617 -126 680 -9 39 -33 171 -55 294 -21 123 -41 225 -43 228
-5 5 -599 4 -604 -1 -2 -2 22 -55 54 -119 l58 -116 102 0 c62 -1 104 3 108 10
4 6 -2 13 -14 16 -12 3 -21 13 -21 24 0 24 17 25 23 2 3 -10 3 4 1 31 -5 61
-7 63 -101 82 -13 2 -23 11 -23 19 0 12 -16 15 -77 16 l-78 1 50 10 c37 7 61
6 90 -4 26 -8 96 -13 205 -13 l164 0 7 -35 c4 -19 3 -39 -2 -45 -12 -12 -12
-28 0 -21 5 3 12 -11 16 -32 4 -20 13 -53 22 -72 l14 -35 13 24 c12 21 15 15
34 -80 12 -57 24 -124 28 -147 l6 -44 -26 17 c-28 19 -36 48 -11 39 8 -4 15
-1 15 5 0 6 -19 11 -47 11 l-46 0 23 25 c19 20 21 28 11 38 -9 9 -14 9 -20 -2
-10 -15 -61 -8 -61 9 0 6 -7 10 -15 10 -8 0 -15 -5 -15 -11 0 -5 -4 -7 -10 -4
-6 4 -10 -9 -10 -30 0 -44 -22 -43 -31 1 -4 16 -7 21 -8 11 0 -10 -5 -16 -10
-13 -5 3 -11 -1 -14 -9 -4 -9 -1 -12 9 -8 7 3 14 0 14 -6 0 -8 -20 -12 -57
-11 -32 0 -67 0 -78 -2 -16 -2 -21 4 -23 32 -2 19 -9 38 -15 42 -8 5 -7 8 3 8
16 1 207 7 273 8 60 2 43 22 -18 22 -33 0 -55 4 -55 11 0 6 16 10 38 9 93 -5
99 -3 94 30 -3 21 -11 32 -28 36 -13 3 -28 12 -35 20 -6 8 -22 14 -34 14 -13
0 -25 6 -28 13 -3 9 -7 9 -19 -1 -9 -7 -23 -10 -32 -6 -10 4 -18 0 -22 -10 -3
-9 -12 -16 -20 -16 -8 0 -14 -4 -14 -10 0 -5 -6 -7 -12 -5 -7 3 -24 -2 -38
-10 -48 -27 -75 -37 -110 -38 -19 0 -28 -2 -20 -4 23 -6 60 -69 60 -103 0 -18
6 -33 15 -36 8 -4 15 -13 15 -21 0 -13 9 -14 48 -10 26 4 101 7 167 8 107 1
120 0 123 -16 2 -10 0 -15 -5 -12 -5 3 -33 2 -63 -3 l-55 -8 72 -1 c84 -1 73
16 107 -171 27 -142 44 -233 45 -237 2 -6 2 -9 6 -38 3 -17 11 -63 20 -103 8
-41 15 -75 15 -78 0 -2 -36 -4 -79 -4 -55 0 -81 -4 -83 -12 -3 -9 -34 -14
-101 -15 l-96 -2 -5 32 c-3 18 -7 94 -8 169 -3 119 -2 135 11 125 12 -10 14
-9 8 6 -4 10 -7 24 -7 30 0 7 -4 6 -10 -3 -7 -11 -10 4 -10 48 0 45 -5 72 -18
90 -10 15 -27 50 -37 77 -19 50 -19 50 -26 20 -4 -16 -7 -24 -8 -17 -2 23 -20
12 -24 -15 -2 -16 -5 -2 -6 30 -1 56 -3 61 -55 115 -63 68 -81 99 -94 172 -6
30 -17 73 -25 95 -21 57 -100 219 -111 226 -4 4 -6 12 -2 17 4 6 -2 16 -13 21
-11 6 -23 20 -26 32 -5 15 -10 17 -19 10 -14 -12 -26 -5 -26 14 0 11 15 12 53
6 4 0 21 -15 36 -32 l28 -30 6 36 c7 43 -13 111 -50 167 -29 43 -37 48 -28 16
7 -22 6 -22 -11 2 -11 14 -18 29 -16 34 4 11 -18 36 -32 36 -6 0 -2 -8 9 -17
19 -15 19 -15 -5 -8 -14 4 -52 10 -84 14 -60 6 -86 26 -44 34 15 3 9 5 -15 6
-46 1 -132 -37 -172 -77 -27 -27 -65 -33 -65 -11 0 5 -12 9 -26 9 -15 0 -23
-4 -19 -11 5 -7 -4 -9 -26 -6 -19 3 -199 9 -401 13 -203 4 -368 11 -368 15 0
5 12 10 28 10 26 2 26 2 2 6 -14 2 -30 11 -37 19 -15 21 -27 0 -14 -25 8 -15
7 -20 -5 -25 -9 -3 -20 -4 -25 -1 -5 3 -18 1 -30 -6 -20 -10 -21 -9 -17 20 3
22 1 28 -6 21 -6 -6 -100 -10 -256 -10 -136 0 -308 -3 -383 -7 l-137 -6 0 -56
c0 -31 4 -51 8 -46 4 6 19 11 35 12 l27 2 0 -631 c0 -347 -2 -629 -4 -627 -3
3 -18 782 -17 912 0 25 -19 10 -20 -16 -1 -20 -2 -20 -8 3 -16 58 -21 -25 -21
-353 0 -199 -4 -357 -10 -377 -7 -23 -7 -36 0 -38 15 -5 12 -23 -3 -20 -22 5
-106 -44 -113 -66 -7 -21 -7 -21 -14 -1 -4 11 -3 32 2 47 6 15 8 33 5 40 -3 8
-6 6 -6 -5 -2 -31 -27 -46 -85 -53 -83 -10 -86 -31 -4 -25 23 2 28 -2 33 -33
4 -19 5 -39 2 -43 -3 -5 -7 -55 -8 -111 -1 -56 -6 -102 -11 -102 -5 0 -7 -4
-4 -8 10 -17 -13 -34 -48 -35 -48 -2 -47 -18 2 -17 72 0 92 -2 92 -10 0 -12
-130 -20 -200 -11 l-65 8 57 2 c57 1 82 13 52 25 -9 3 -24 6 -34 6 -28 0 -36
21 -15 37 18 12 17 13 -8 13 -21 0 -27 5 -28 23 0 12 -2 33 -3 47 -1 14 -6 67
-10 118 -5 50 -11 92 -14 92 -3 0 -16 -10 -29 -22 l-23 -22 6 32 c4 21 3 32
-5 32 -6 0 -11 -6 -11 -12 0 -9 -3 -8 -10 2 -19 30 -20 -2 -5 -166 18 -203 20
-207 51 -201 13 2 21 0 18 -4 -3 -5 -14 -9 -25 -9 -23 0 -25 -34 -10 -170 6
-47 12 -109 15 -137 l5 -53 -39 0 c-21 0 -42 5 -45 11 -5 7 -47 8 -129 4 -66
-3 -359 -15 -651 -26 -291 -11 -744 -29 -1005 -39 -261 -11 -566 -23 -677 -27
l-203 -6 0 -158 0 -157 38 4 c20 2 147 8 282 14 135 6 319 15 410 20 187 11
457 23 1000 45 401 17 1189 58 1435 75 325 23 367 25 371 18 3 -4 -5 -9 -18
-9 -13 -1 -5 -5 17 -8 22 -4 45 -3 52 2 6 4 14 3 18 -3 3 -5 35 -10 71 -10 35
0 64 -3 64 -7 0 -5 29 -6 65 -5 46 3 65 0 65 -8 0 -9 19 -11 70 -8 39 3 73 1
76 -3 3 -5 -10 -10 -28 -10 l-33 -2 35 -6 35 -7 -55 -12 c-30 -6 -149 -19
-265 -27 -115 -8 -272 -20 -348 -26 -76 -6 -141 -8 -144 -5 -4 3 11 6 33 7 21
0 57 4 79 9 53 11 -177 3 -260 -10 -33 -5 -168 -11 -300 -14 -132 -3 -297 -10
-367 -16 -172 -14 -231 -17 -543 -29 -367 -15 -1552 -73 -1762 -87 l-93 -7 0
-198 0 -199 23 0 c27 0 32 34 27 163 -1 19 -8 31 -23 37 -21 8 -20 9 6 9 15 1
30 0 35 -1 4 -2 5 -50 4 -108 l-4 -105 2099 5 c1154 3 2310 3 2568 0 259 -3
579 -4 712 -2 l242 2 4 88 3 87 2 -90 2 -90 262 2 c145 1 304 3 354 4 l90 1
-4 28 c-2 16 1 36 7 47 10 17 11 16 12 -4 2 -27 3 -32 13 -55 7 -16 23 -18
118 -18 l109 0 -5 43 c-13 106 -16 162 -18 300 0 81 2 150 6 154 3 3 7 -34 8
-83 1 -49 3 -98 4 -109 1 -11 2 -56 3 -100 l1 -81 198 -12 c108 -7 254 -12
323 -12 111 0 128 2 134 18 4 9 10 69 12 133 7 143 0 159 -61 159 -71 0 -98
15 -137 78 -20 31 -42 68 -49 82 -7 14 -25 39 -39 55 -37 40 -48 72 -44 120 2
22 -2 70 -8 106 l-12 67 -36 -4 c-144 -13 -495 -34 -686 -40 -49 -1 -181 -6
-292 -10 -194 -7 -203 -6 -203 11 0 13 3 16 10 9 22 -22 555 49 750 101 69 18
133 36 143 40 36 15 15 -13 -23 -30 -22 -10 -40 -22 -40 -27 0 -11 78 1 111
18 15 7 30 10 33 6 4 -3 11 -1 15 6 5 9 22 12 47 10 l39 -4 -42 -20 c-24 -10
-43 -22 -43 -26 0 -8 66 1 100 15 14 6 33 9 43 8 38 -5 46 16 40 97 -3 43 -6
84 -6 92 0 8 -4 21 -10 28 -5 6 -6 12 -1 12 5 0 8 59 7 131 -3 139 4 199 34
319 24 94 44 102 94 40 19 -23 53 -60 77 -82 23 -23 42 -47 42 -53 0 -7 10
-20 21 -31 12 -10 37 -42 55 -70 18 -29 50 -69 70 -90 20 -22 44 -55 54 -74
11 -19 30 -48 45 -64 14 -17 28 -39 31 -51 7 -28 -34 -261 -52 -299 -8 -16
-14 -45 -14 -65 0 -20 -9 -67 -19 -105 -20 -77 -13 -129 21 -147 10 -5 43 -44
74 -87 32 -42 75 -94 96 -116 21 -21 38 -44 38 -52 0 -7 19 -30 41 -51 41 -37
129 -145 129 -158 0 -3 11 -16 25 -29 14 -13 25 -28 25 -33 0 -26 51 -44 118
-41 63 3 68 5 81 32 10 21 16 25 21 15 11 -17 48 -19 46 -3 -1 8 -5 17 -9 20
-11 12 -8 41 6 53 11 8 13 4 10 -22 -2 -17 0 -26 3 -19 3 6 14 12 24 12 14 0
20 -9 23 -33 2 -17 5 5 5 51 1 53 -2 81 -8 77 -5 -3 -10 -2 -10 4 0 5 5 13 10
16 13 8 14 3285 1 3285 -6 0 -13 -5 -17 -11z m-194 -344 c0 -26 -28 -42 -36
-21 -7 18 14 58 27 51 5 -4 9 -17 9 -30z m-3687 -212 c-7 -2 -13 -9 -13 -14 0
-11 27 -12 32 0 2 4 14 11 28 15 14 3 19 3 13 0 -20 -9 -15 -24 7 -24 17 0 20
-7 20 -39 0 -23 5 -41 13 -44 9 -3 13 7 13 37 l-1 41 58 3 c32 2 55 7 52 12
-4 6 64 7 172 3 98 -3 211 -5 251 -5 52 2 72 -2 72 -11 -1 -19 -27 -119 -39
-152 -11 -27 -10 -50 5 -90 6 -15 -25 -16 -405 -13 l-412 3 3 -25 c3 -25 3
-25 113 -25 l110 0 3 -36 c3 -34 1 -36 -33 -42 -19 -3 -50 -16 -68 -29 -17
-13 -45 -23 -62 -23 -34 0 -41 -17 -25 -59 8 -23 15 -27 47 -26 21 1 110 -1
198 -4 157 -6 220 -2 210 14 -2 4 63 8 145 9 83 1 150 1 150 -1 0 -2 -11 -37
-24 -79 -35 -111 -67 -179 -82 -179 -17 0 -19 -17 -2 -22 8 -3 -4 -50 -35
-146 -26 -78 -47 -151 -47 -162 0 -11 -5 -20 -11 -20 -5 0 -7 6 -4 13 4 6 0 4
-8 -5 -17 -22 -27 -23 -27 -4 0 27 -59 31 -132 10 -19 -6 -24 -39 -8 -49 6 -3
10 -15 10 -26 0 -13 11 -25 34 -34 30 -13 35 -20 40 -62 9 -75 10 -115 2 -151
l-8 -34 -56 5 c-32 2 -67 8 -79 12 -21 7 -22 5 -13 -24 5 -17 7 -31 6 -31 -1
0 -23 7 -49 16 l-47 16 0 74 c0 41 4 74 9 74 6 0 8 -10 6 -21 -3 -12 0 -29 5
-38 7 -13 10 -10 11 14 0 17 3 46 4 66 3 31 1 36 -14 32 -16 -4 -17 4 -14 109
10 292 9 308 -9 308 -16 0 -18 -15 -19 -177 0 -98 -3 -223 -6 -278 -10 -163
-6 -247 12 -264 13 -14 15 -12 15 22 0 39 10 46 30 23 6 -8 17 -13 23 -10 7 2
32 0 57 -5 l45 -10 -40 1 c-64 0 -73 -2 -50 -13 15 -7 11 -8 -17 -5 -22 3 -38
0 -38 -5 0 -7 26 -8 78 -3 42 4 99 7 126 7 47 -1 49 0 25 13 -22 12 -19 13 46
15 40 1 54 4 33 6 -45 5 -49 16 -54 184 l-4 127 28 10 c18 6 34 22 42 41 11
27 17 31 50 31 l37 0 -9 -47 c-15 -79 -40 -265 -43 -316 -2 -27 -5 -51 -8 -54
-3 -3 -3 -11 0 -19 4 -11 -9 -13 -65 -11 -62 2 -94 -5 -81 -17 2 -2 33 -7 68
-10 90 -9 89 -16 -2 -16 -45 0 -77 4 -77 10 0 6 -5 10 -12 10 -6 0 -8 -3 -5
-7 4 -3 1 -13 -6 -22 -11 -14 -10 -14 6 -2 15 12 17 11 17 -3 0 -9 -8 -16 -17
-16 -10 0 -28 -3 -40 -6 -14 -4 -23 -2 -23 5 0 6 10 11 22 11 38 0 13 10 -38
15 -27 3 -66 7 -86 11 l-37 6 14 -59 c8 -32 14 -71 15 -86 l0 -28 68 6 c37 3
92 10 122 15 125 21 139 18 103 -22 -13 -14 -14 -21 -5 -30 28 -28 10 -35
-123 -48 -96 -9 -138 -16 -143 -27 -29 -51 -54 56 -157 657 -19 113 -40 230
-45 260 -6 30 -42 233 -80 450 -38 217 -74 419 -80 449 -5 29 -7 57 -4 63 3 5
-5 6 -20 2 -14 -3 -26 -2 -26 3 0 6 16 10 35 11 26 1 33 -2 28 -13 -3 -8 0
-15 6 -15 6 0 11 9 11 20 0 17 8 20 88 23 48 1 92 3 97 4 6 1 4 -1 -2 -4z
m1156 -88 c0 -29 0 -28 -14 9 -8 22 -11 44 -8 50 9 13 22 -22 22 -59z m-1852
49 c-3 -3 -12 -4 -19 -1 -8 3 -5 6 6 6 11 1 17 -2 13 -5z m91 -1 c-10 -2 -26
-2 -35 0 -10 3 -2 5 17 5 19 0 27 -2 18 -5z m69 1 c-3 -3 -12 -4 -19 -1 -8 3
-5 6 6 6 11 1 17 -2 13 -5z m290 -32 c-8 -9 -13 -24 -11 -32 2 -8 -3 0 -11 18
-19 40 -12 56 16 41 18 -9 19 -12 6 -27z m-34 -64 c9 -40 24 -117 33 -171 8
-53 20 -112 25 -129 5 -17 7 -34 4 -36 -2 -2 -25 11 -50 29 -37 27 -50 31 -63
22 -9 -6 -16 -19 -14 -28 3 -15 -1 -16 -25 -10 -15 4 -48 7 -73 7 l-45 -1 0
47 c0 40 -3 47 -21 50 -22 3 -44 -31 -44 -71 0 -16 -3 -18 -9 -8 -6 10 -13 10
-28 3 -11 -6 -30 -8 -42 -5 -19 5 -22 11 -17 36 3 16 6 36 6 43 0 8 7 14 15
14 10 0 15 10 15 29 0 32 -15 50 -23 29 -3 -8 -6 -6 -6 5 -1 22 2 33 10 30 4
-1 9 7 12 17 7 29 -5 25 -42 -14 -28 -29 -33 -40 -30 -77 1 -24 -1 -56 -5 -72
-5 -17 -4 -39 4 -57 10 -25 10 -34 -3 -54 -16 -23 -15 -24 13 -28 39 -6 47 0
55 44 4 21 11 36 15 33 5 -3 6 -14 3 -24 -9 -33 17 -35 30 -2 6 17 15 31 19
31 14 0 9 -37 -7 -50 -8 -7 -15 -19 -15 -26 0 -11 34 -14 184 -14 l184 0 5
-27 c3 -16 14 -73 24 -129 l18 -100 -320 3 c-176 2 -329 5 -340 6 -18 2 -20
10 -21 122 -1 66 -3 143 -4 170 -2 44 -3 47 -10 20 -5 -22 -8 -9 -8 45 0 54 3
67 8 45 5 -21 8 -6 7 50 0 69 -1 73 -6 30 -6 -42 -7 -34 -12 55 -5 112 -2 153
12 144 5 -3 9 0 9 5 0 6 -9 11 -20 11 -20 0 -20 -7 -22 -317 -1 -175 -2 -325
-4 -333 -1 -8 -2 -21 -3 -27 -1 -7 -10 -13 -21 -13 -19 0 -20 6 -18 83 1 70 2
76 8 37 5 -33 7 -15 8 68 1 73 -2 111 -8 107 -6 -4 -9 29 -9 92 1 73 4 88 9
58 5 -26 8 9 9 100 1 77 5 146 9 152 6 9 63 13 207 16 110 1 248 3 306 5 l106
2 16 -72z m-652 -45 c-3 -133 -11 -132 -11 2 0 60 3 105 6 102 4 -3 6 -50 5
-104z m1999 29 c0 -4 -5 -14 -10 -22 -8 -13 -11 -12 -23 4 -13 17 -14 17 -31
1 -16 -17 -18 -16 -30 1 -12 15 -16 16 -30 5 -9 -7 -16 -10 -16 -5 0 5 -5 2
-11 -6 -6 -9 -12 -11 -15 -5 -2 6 -21 9 -42 7 -45 -5 -33 14 13 20 55 8 195 7
195 0z m-235 -42 c-3 -5 -11 -10 -16 -10 -6 0 -7 5 -4 10 3 6 11 10 16 10 6 0
7 -4 4 -10z m160 -95 c3 -27 8 -62 11 -77 3 -16 1 -28 -5 -28 -11 0 -17 28
-26 125 -6 73 11 56 20 -20z m82 1 c-3 -6 -12 6 -21 26 -22 51 -20 60 5 19 11
-18 18 -38 16 -45z m53 31 c0 -8 -3 -8 -11 0 -6 6 -17 9 -24 7 -7 -3 -15 3
-17 14 -5 18 -4 18 23 5 16 -8 29 -20 29 -26z m-16 -72 c3 -22 3 -31 0 -20 -3
11 -10 24 -15 30 -5 5 -9 18 -9 29 0 34 18 4 24 -39z m-414 15 c0 -6 -49 -9
-132 -8 l-133 2 125 6 c69 3 128 7 133 8 4 1 7 -2 7 -8z m-522 -74 c-2 -38 -7
-52 -20 -54 -13 -2 -18 7 -23 42 -8 50 5 79 31 69 11 -4 14 -19 12 -57z m224
35 c-6 -41 -36 -68 -57 -51 -22 18 -65 4 -65 -21 0 -18 -5 -20 -42 -17 l-43 3
0 50 0 50 45 5 c25 3 72 7 106 8 l61 2 -5 -29z m178 -61 c0 -5 -5 -10 -11 -10
-5 0 -7 5 -4 10 3 6 8 10 11 10 2 0 4 -4 4 -10z m-65 -10 c-3 -5 -12 -10 -20
-10 -8 0 -17 5 -20 10 -4 6 5 10 20 10 15 0 24 -4 20 -10z m-701 -26 c3 -8 2
-12 -4 -9 -6 3 -10 10 -10 16 0 14 7 11 14 -7z m646 -4 c-8 -5 -17 -7 -19 -4
-3 3 1 9 9 14 8 5 17 7 19 4 3 -3 -1 -9 -9 -14z m-340 0 c0 -5 -2 -10 -4 -10
-3 0 -8 5 -11 10 -3 6 -1 10 4 10 6 0 11 -4 11 -10z m-1117 -30 c-3 -12 -8
-19 -11 -16 -5 6 5 36 12 36 2 0 2 -9 -1 -20z m817 -30 c0 -25 5 -40 13 -41 8
0 8 -2 1 -5 -7 -3 -9 -15 -6 -27 3 -12 2 -20 -1 -17 -6 6 -16 45 -24 98 -3 20
-1 32 6 32 6 0 11 -17 11 -40z m513 15 c-3 -9 -8 -14 -10 -11 -3 3 -2 9 2 15
9 16 15 13 8 -4z m681 -142 c8 -34 22 -70 31 -79 24 -24 38 -65 26 -77 -6 -6
-15 1 -24 19 -25 49 -67 193 -66 227 l1 32 9 -30 c4 -16 15 -58 23 -92z m1936
107 c0 -5 -5 -10 -11 -10 -5 0 -7 5 -4 10 3 6 8 10 11 10 2 0 4 -4 4 -10z
m-1304 -11 c4 -7 1 -10 -7 -7 -8 3 -22 1 -31 -4 -11 -5 -18 -5 -18 1 0 8 15
15 42 20 4 0 10 -4 14 -10z m1275 -46 c-12 -20 -14 -14 -5 12 4 9 9 14 11 11
3 -2 0 -13 -6 -23z m-3784 -15 c-3 -8 -6 -5 -6 6 -1 11 2 17 5 13 3 -3 4 -12
1 -19z m700 -30 c-3 -8 -6 -5 -6 6 -1 11 2 17 5 13 3 -3 4 -12 1 -19z m-750
-205 c-3 -10 -5 -4 -5 12 0 17 2 24 5 18 2 -7 2 -21 0 -30z m300 21 c-3 -3
-12 -4 -19 -1 -8 3 -5 6 6 6 11 1 17 -2 13 -5z m470 -69 c7 -33 19 -109 28
-170 9 -60 25 -157 35 -215 19 -107 34 -251 22 -215 -7 21 -24 26 -38 13 -4
-5 -2 -8 4 -8 15 0 15 -19 0 -53 -10 -21 -18 -26 -34 -22 -12 2 -50 8 -85 11
-35 3 -68 7 -73 8 -6 0 -12 -7 -14 -17 -3 -16 2 -17 35 -14 21 2 47 1 58 -4
24 -9 25 -9 -47 -13 -31 -3 -72 -1 -92 4 -25 5 -36 4 -40 -5 -7 -20 44 -26
219 -26 117 0 155 -3 152 -12 -5 -16 -58 -26 -80 -14 -13 6 -24 4 -37 -8 -16
-14 -18 -14 -23 0 -4 8 -18 15 -33 15 -19 0 -25 -4 -21 -15 4 -8 2 -17 -3 -20
-5 -3 -11 4 -15 15 -3 11 -15 20 -25 20 -20 0 -81 -29 -92 -44 -4 -6 -12 -5
-20 1 -10 9 -18 6 -35 -13 -20 -22 -20 -24 -3 -24 13 0 17 -5 13 -20 -4 -15
-13 -20 -37 -19 l-31 1 30 8 c17 5 -64 7 -180 5 -206 -4 -207 -4 -70 5 217 14
217 18 0 16 -240 -2 -195 10 63 17 181 5 255 15 131 19 -42 1 -51 3 -26 5 20
2 37 9 37 15 0 6 -12 8 -31 4 -17 -3 -110 -6 -205 -6 l-174 0 0 -30 c0 -18 -5
-30 -13 -30 -17 0 -16 42 1 53 23 15 12 23 -32 20 -25 -1 -48 -4 -53 -5 -4 -1
-24 1 -44 5 -37 7 -60 41 -35 51 6 2 1 5 -12 5 -19 1 -21 -2 -12 -18 15 -30
13 -32 -32 -27 -68 7 -96 24 -68 41 6 3 10 16 11 28 0 21 1 21 9 2 5 -11 9
-14 9 -7 1 14 57 16 66 2 3 -5 11 -10 17 -10 7 0 6 6 -2 15 -10 12 -10 15 1
16 9 0 8 3 -3 7 -10 4 134 6 319 4 184 -2 339 0 344 5 4 4 -137 9 -314 10
-177 2 -347 7 -377 12 l-55 9 43 1 c24 0 41 4 39 9 -3 4 106 6 241 4 136 -2
272 0 302 5 40 6 -17 9 -215 13 l-270 5 255 3 c151 1 261 6 270 12 10 7 -49 9
-185 6 -129 -3 -184 -2 -155 4 25 5 122 9 217 9 94 1 174 5 177 9 3 4 -159 7
-360 5 -319 -3 -365 -2 -370 12 -3 8 -11 12 -18 9 -6 -3 -3 1 7 9 12 10 30 14
52 10 19 -3 47 -1 63 5 25 9 31 8 35 -7 3 -13 14 -17 43 -16 l39 2 3 272 c1
175 6 270 12 266 6 -4 10 -73 10 -169 0 -150 2 -164 20 -181 21 -19 27 -55 10
-55 -6 0 -16 13 -23 29 -11 25 -12 17 -12 -65 0 -52 3 -94 7 -94 3 0 4 9 1 20
-4 14 0 20 10 20 8 0 18 6 21 13 3 6 3 -3 0 -20 -4 -25 -2 -33 9 -33 18 0 31
84 17 110 -6 11 -10 101 -9 212 1 106 4 182 9 168 6 -22 8 -23 15 -7 4 9 5 26
2 36 -6 23 23 27 254 30 l157 2 -5 -38 c-3 -21 -10 -41 -17 -45 -8 -6 -8 -10
1 -15 6 -5 12 -42 14 -88 4 -77 3 -79 -21 -85 -26 -6 -27 -9 -29 -72 -1 -29
-5 -38 -18 -38 -13 0 -14 3 -5 12 19 19 14 48 -10 57 -22 8 -75 6 -111 -5 -10
-3 -19 1 -23 10 -5 12 -10 11 -29 -9 -22 -24 -53 -35 -40 -15 3 6 -4 10 -18
10 -34 0 -47 36 -47 128 0 88 -14 128 -23 66 -3 -22 -6 -46 -5 -54 0 -8 -4
-42 -10 -75 -12 -73 -6 -121 17 -129 9 -3 22 -9 30 -12 10 -5 12 -2 8 10 -9
22 6 20 23 -4 19 -26 43 -27 35 -1 -6 21 20 37 31 19 4 -7 2 -14 -4 -16 -25
-8 -1 -20 25 -13 18 5 38 2 58 -8 39 -21 45 -31 38 -61 -4 -14 -6 -33 -5 -42
0 -10 -8 -19 -21 -21 -12 -2 4 -5 36 -6 32 0 57 3 57 9 0 6 -12 10 -26 10 -24
0 -25 3 -19 28 4 15 7 35 7 44 0 9 5 19 13 21 8 4 11 -1 8 -13 -3 -12 2 -20
15 -24 24 -8 68 -46 74 -65 2 -8 12 -15 21 -17 13 -2 17 5 16 29 -1 30 -1 31
-9 7 -5 -16 -9 15 -11 88 -4 112 7 159 14 60 2 -29 4 42 5 159 l2 212 48 4
c26 2 79 3 117 3 l70 -1 12 -60z m2551 -82 c2 -7 -1 -13 -8 -13 -6 0 -8 5 -5
10 3 6 0 10 -8 10 -8 0 -17 -7 -21 -15 -3 -8 -15 -15 -27 -15 -17 0 -19 3 -10
13 6 8 8 17 3 21 -4 4 11 6 32 4 22 -2 41 -9 44 -15z m100 10 c-15 -2 -42 -2
-60 0 -18 2 -6 4 27 4 33 0 48 -2 33 -4z m-3307 -204 c6 -3 7 -13 3 -23 -10
-25 -24 0 -23 39 1 21 3 24 6 10 3 -11 9 -23 14 -26z m1193 19 c-3 -5 -15 -8
-25 -5 -12 3 -19 0 -19 -9 0 -16 -16 -19 -24 -5 -3 5 9 16 26 24 33 16 53 14
42 -5z m1543 0 c-3 -8 -6 -5 -6 6 -1 11 2 17 5 13 3 -3 4 -12 1 -19z m-440
-85 c7 -28 -4 -73 -17 -73 -6 0 -10 15 -9 33 0 17 -2 57 -6 87 l-6 55 16 -40
c9 -22 19 -50 22 -62z m-1081 58 c0 -14 -9 -21 -28 -23 -15 -3 -28 -3 -28 -1
0 8 25 30 40 36 8 3 15 6 15 6 1 1 1 -8 1 -18z m1531 -13 c-3 -8 -6 -5 -6 6
-1 11 2 17 5 13 3 -3 4 -12 1 -19z m-1185 -42 c10 -19 10 -20 -6 -7 -9 8 -22
24 -28 35 -10 19 -10 20 6 7 9 -8 22 -24 28 -35z m755 29 c0 -8 -4 -15 -9 -15
-10 0 -11 14 -1 23 9 10 10 9 10 -8z m442 -38 c0 -21 -1 -21 -9 -2 -12 28 -12
37 0 30 6 -3 10 -16 9 -28z m8 -39 c1 -7 4 -29 7 -48 6 -34 6 -34 -7 5 -8 22
-12 43 -10 48 6 10 10 9 10 -5z m-2010 -40 c-3 -8 -6 -5 -6 6 -1 11 2 17 5 13
3 -3 4 -12 1 -19z m-1130 -40 c-3 -7 -5 -2 -5 12 0 14 2 19 5 13 2 -7 2 -19 0
-25z m1140 1 c2 -16 -1 -19 -9 -11 -5 5 -7 15 -4 21 10 15 12 14 13 -10z m10
-91 c-3 -7 -5 -2 -5 12 0 14 2 19 5 13 2 -7 2 -19 0 -25z m1374 -36 c-4 -74
-18 -71 -20 4 -1 54 1 66 11 56 7 -7 11 -32 9 -60z m-2436 38 c-3 -5 2 -10 11
-10 10 0 15 -2 12 -5 -3 -4 -18 -3 -33 1 -20 5 -23 9 -13 15 18 12 31 11 23
-1z m163 3 c-26 -2 -71 -2 -100 0 -29 2 -8 3 47 3 55 0 79 -1 53 -3z m2877
-23 c-7 -12 -69 -12 -105 0 -18 6 -6 8 43 9 43 1 66 -3 62 -9z m361 -49 c-3
-5 -32 -9 -63 -9 -38 0 -51 2 -38 7 27 11 107 12 101 2z m-2350 -49 l3 -40
-60 -4 c-33 -1 -67 1 -75 5 -26 15 -4 27 41 23 42 -4 70 7 43 17 -9 3 -4 11
12 25 14 11 27 19 28 17 2 -2 5 -21 8 -43z m2237 -12 c-7 -8 -22 24 -16 34 4
5 10 1 13 -10 4 -10 6 -21 3 -24z m103 31 c-4 -5 0 -11 6 -13 7 -3 -3 -5 -22
-4 -19 0 -42 -2 -50 -5 -8 -3 -12 -4 -7 -2 4 3 7 10 7 16 0 7 16 13 36 15 19
1 33 -2 30 -7z m-7 -75 c-10 -11 -70 -16 -64 -6 3 5 20 10 37 10 17 0 29 -2
27 -4z m-1837 -48 c-7 -7 -12 -20 -12 -31 0 -10 -5 -15 -10 -12 -12 8 -9 37 5
47 16 12 30 9 17 -4z m-1702 -16 c0 -6 -31 -7 -172 -3 -16 1 -28 4 -28 9 0 4
45 6 100 4 55 -2 100 -6 100 -10z m1070 8 c0 -5 15 -8 33 -6 18 3 40 0 48 -5
9 -6 -7 -9 -48 -9 -58 0 -73 6 -56 23 10 10 23 8 23 -3z m2655 -28 c-22 -5
-27 1 -19 23 7 17 8 17 21 -1 12 -17 12 -19 -2 -22z m-2468 6 c-3 -8 -6 -5 -6
6 -1 11 2 17 5 13 3 -3 4 -12 1 -19z m-1088 -33 c0 -5 -4 -3 -9 5 -5 8 -9 22
-9 30 0 16 17 -16 18 -35z m3346 35 c-27 -12 -35 -12 -35 0 0 6 12 10 28 9 24
0 25 -1 7 -9z m-52 -7 c-7 -2 -21 -2 -30 0 -10 3 -4 5 12 5 17 0 24 -2 18 -5z
m-1039 -40 c-22 -53 -35 -64 -21 -17 9 32 22 53 34 54 1 0 -5 -17 -13 -37z
m-1152 2 c3 -14 1 -25 -3 -25 -5 0 -9 11 -9 25 0 14 2 25 4 25 2 0 6 -11 8
-25z m2208 16 c-23 -14 -127 -25 -115 -13 11 12 44 19 95 20 24 1 30 -1 20 -7z
m383 2 c-7 -2 -21 -2 -30 0 -10 3 -4 5 12 5 17 0 24 -2 18 -5z m-151 -43 c-2
-16 -6 -30 -8 -30 -2 0 -4 14 -4 30 0 17 4 30 8 30 5 0 7 -13 4 -30z m-559 13
c-7 -2 -19 -2 -25 0 -7 3 -2 5 12 5 14 0 19 -2 13 -5z m50 0 c-7 -2 -19 -2
-25 0 -7 3 -2 5 12 5 14 0 19 -2 13 -5z m-2508 -14 c-49 -4 -133 -6 -185 -6
l-95 1 95 6 c52 3 136 6 185 7 l90 0 -90 -8z m149 -9 c-8 -8 -305 -31 -394
-29 -29 0 -31 2 -15 9 11 5 65 9 120 10 82 2 195 9 285 18 9 1 11 -1 4 -8z
m433 -22 c-3 -8 -6 -5 -6 6 -1 11 2 17 5 13 3 -3 4 -12 1 -19z m-1154 -5 c-13
-2 -35 -2 -50 0 -16 2 -5 4 22 4 28 0 40 -2 28 -4z m709 -5 c-7 -7 -77 -12
-214 -14 l-203 -2 199 8 c109 5 201 12 204 15 3 3 10 5 16 5 6 0 6 -4 -2 -12z
m-19 -37 c-6 -23 -76 -32 -247 -29 l-121 1 169 8 c215 10 238 19 36 14 l-155
-4 130 9 c124 9 188 15 192 18 0 1 -1 -6 -4 -17z m2901 0 c10 -11 15 -25 11
-30 -10 -17 -25 -13 -19 4 4 8 -1 17 -10 21 -9 3 -16 10 -16 15 0 15 16 10 34
-10z m-1354 -5 c0 -2 -8 -10 -17 -17 -16 -13 -17 -12 -4 4 13 16 21 21 21 13z
m1400 -35 c0 -5 -7 -12 -16 -15 -14 -5 -15 -4 -4 9 14 17 20 19 20 6z m-2105
-11 c-3 -5 -21 -9 -38 -9 l-32 1 30 8 c43 11 47 11 40 0z m1084 -65 c0 -11 -6
-2 -14 20 -18 50 -18 57 0 25 8 -14 14 -34 14 -45z m751 55 c0 -5 -12 -10 -27
-9 -25 0 -26 1 -8 9 27 12 35 12 35 0z m-207 -37 c-13 -2 -35 -2 -50 0 -16 2
-5 4 22 4 28 0 40 -2 28 -4z m-695 -50 c-21 -2 -55 -2 -75 0 -21 2 -4 4 37 4
41 0 58 -2 38 -4z m-38 -130 c-1 -13 -38 -53 -49 -53 -6 0 -11 -4 -11 -9 0 -5
-20 -30 -45 -54 -41 -40 -45 -46 -36 -70 6 -15 16 -27 23 -27 20 0 -36 -35
-144 -90 -63 -32 -98 -46 -99 -38 -1 7 -2 47 -3 88 0 41 -3 81 -6 88 -3 9 23
24 86 46 50 18 131 54 180 79 94 48 104 52 104 40z m1402 -65 c-6 -6 -15 -8
-19 -4 -4 4 -1 11 7 16 19 12 27 3 12 -12z m-1867 -17 c15 -6 8 -9 -28 -14
-25 -4 -55 -3 -64 1 -17 6 -7 9 67 20 3 0 14 -3 25 -7z m1655 -5 c0 -7 -3 -28
-6 -45 l-6 -31 -202 1 c-151 1 -187 4 -146 10 30 5 69 9 86 9 17 0 37 6 44 15
13 16 50 21 50 7 0 -16 52 -7 61 11 7 12 6 17 -3 18 -23 2 46 17 85 18 25 1
37 -3 37 -13z m-205 -16 c-27 -3 -54 -3 -60 0 -5 3 13 7 40 10 28 3 55 3 60 0
6 -3 -12 -7 -40 -10z m-195 -14 c0 -8 -4 -18 -10 -21 -5 -3 -10 3 -10 14 0 12
5 21 10 21 6 0 10 -6 10 -14z m-481 -46 c-18 -22 -39 -40 -47 -40 -9 0 -3 14
18 40 17 22 38 40 46 40 10 0 5 -13 -17 -40z m-1130 -27 c-33 -42 -39 -46 -39
-24 0 12 -5 21 -11 21 -5 0 -7 5 -4 10 3 6 20 10 37 10 28 0 29 -2 17 -17z
m958 -255 c-1 -40 -3 -10 -3 67 0 77 1 110 3 73 2 -37 2 -100 0 -140z m110
140 c-2 -13 -4 -3 -4 22 0 25 2 35 4 23 2 -13 2 -33 0 -45z m-2654 35 c-13 -2
-35 -2 -50 0 -16 2 -5 4 22 4 28 0 40 -2 28 -4z m1607 -40 c20 -24 9 -26 -15
-3 -14 13 -25 31 -25 39 1 13 4 12 15 -4 8 -11 19 -25 25 -32z m-1827 30 c-7
-2 -21 -2 -30 0 -10 3 -4 5 12 5 17 0 24 -2 18 -5z m-103 -7 c0 -2 -93 -8
-207 -15 -115 -6 -225 -13 -246 -15 -21 -3 -36 -1 -32 2 11 11 485 39 485 28z
m1820 -38 c0 -18 -7 -68 -15 -111 -8 -43 -15 -81 -15 -83 0 -2 -72 -4 -160 -4
-121 0 -160 3 -160 13 0 9 29 11 122 9 68 -2 138 0 156 3 l33 6 -3 95 c-2 56
1 96 7 98 26 11 35 4 35 -26z m-113 16 c-3 -3 -12 -4 -19 -1 -8 3 -5 6 6 6 11
1 17 -2 13 -5z m-2219 -11 c-10 -2 -28 -2 -40 0 -13 2 -5 4 17 4 22 1 32 -1
23 -4z m-195 -10 c-7 -2 -19 -2 -25 0 -7 3 -2 5 12 5 14 0 19 -2 13 -5z m-240
-10 c-7 -2 -19 -2 -25 0 -7 3 -2 5 12 5 14 0 19 -2 13 -5z m-165 -10 c-21 -2
-55 -2 -75 0 -21 2 -4 4 37 4 41 0 58 -2 38 -4z m-128 -6 c-3 -2 -54 -7 -115
-9 -60 -3 -99 -2 -85 2 27 7 208 14 200 7z m-305 -17 c-22 -4 -114 -10 -205
-13 -91 -2 -145 -3 -120 0 73 7 282 20 325 20 l40 1 -40 -8z m-667 -37 c-10
-2 -28 -2 -40 0 -13 2 -5 4 17 4 22 1 32 -1 23 -4z m5079 -145 c-3 -7 -5 -2
-5 12 0 14 2 19 5 13 2 -7 2 -19 0 -25z m698 -48 c3 -5 1 -10 -4 -10 -6 0 -11
5 -11 10 0 6 2 10 4 10 3 0 8 -4 11 -10z m-2141 -136 c5 -14 4 -15 -9 -4 -17
14 -19 20 -6 20 5 0 12 -7 15 -16z m1593 -46 c-3 -8 -6 -5 -6 6 -1 11 2 17 5
13 3 -3 4 -12 1 -19z"/>
<path d="M4165 3078 c-16 -5 -42 -9 -57 -9 -16 0 -28 -5 -28 -10 0 -12 137
-11 161 2 46 24 -13 38 -76 17z"/>
<path d="M4820 3066 c0 -2 7 -6 15 -10 8 -3 15 -1 15 4 0 6 -7 10 -15 10 -8 0
-15 -2 -15 -4z"/>
<path d="M4098 2963 c7 -3 16 -2 19 1 4 3 -2 6 -13 5 -11 0 -14 -3 -6 -6z"/>
<path d="M4468 2953 c6 -2 18 -2 25 0 6 3 1 5 -13 5 -14 0 -19 -2 -12 -5z"/>
<path d="M4728 2953 c23 -2 59 -2 80 0 20 2 1 4 -43 4 -44 0 -61 -2 -37 -4z"/>
<path d="M4728 2598 c-3 -8 -32 -11 -91 -11 -48 1 -89 -3 -92 -8 -4 -5 2 -9
11 -9 30 0 8 -11 -28 -14 -20 -2 -45 -10 -57 -18 -21 -15 -21 -15 21 -43 l43
-28 -27 30 c-16 16 -28 32 -28 36 0 4 20 7 44 7 28 0 52 7 69 20 23 18 26 18
38 4 11 -14 10 -19 -7 -33 -51 -41 -77 -126 -48 -156 11 -11 24 -14 38 -10 12
4 39 10 61 15 l40 7 -47 2 c-42 1 -77 20 -51 28 5 2 8 15 5 30 -4 20 -2 24 8
18 10 -6 12 -4 7 8 -5 13 2 18 29 23 19 3 37 10 40 15 3 5 16 9 30 9 36 0 29
20 -8 21 -23 1 -14 5 32 14 36 7 58 13 49 14 -8 0 -24 8 -35 17 -18 15 -18 15
5 8 16 -4 21 -3 17 5 -9 15 -63 14 -68 -1z"/>
<path d="M4163 2581 c1 -13 6 -17 17 -13 13 5 13 3 1 -11 -12 -15 -10 -17 23
-17 20 0 36 -2 36 -5 0 -3 -14 -18 -32 -34 -31 -27 -31 -29 -20 -74 7 -25 12
-57 12 -71 l0 -25 178 6 c213 7 268 24 72 22 -174 -1 -182 -1 -175 10 3 5 -5
11 -17 13 -23 3 -30 24 -16 43 5 6 17 22 28 37 18 24 58 38 122 43 19 1 19 17
0 22 -12 3 -20 9 -17 13 2 4 -6 5 -19 3 -15 -3 -25 1 -29 11 -5 13 1 16 36 16
30 1 38 3 27 10 -21 12 -140 16 -165 6 -16 -6 -17 -6 -5 3 12 8 7 11 -22 11
-30 0 -36 -4 -35 -19z"/>
<path d="M4665 2360 c-27 -7 -25 -8 18 -9 30 -1 46 3 42 9 -7 11 -16 11 -60 0z"/>
<path d="M4548 2293 c17 -2 47 -2 65 0 17 2 3 4 -33 4 -36 0 -50 -2 -32 -4z"/>
<path d="M4428 2228 c5 -113 9 -125 10 -30 1 50 -1 92 -5 92 -5 0 -7 -28 -5
-62z"/>
<path d="M4574 2097 c-8 -9 -7 -16 3 -25 11 -11 13 -8 13 13 0 28 -1 29 -16
12z"/>
<path d="M4666 2071 c-3 -5 3 -11 13 -14 14 -3 18 -1 14 9 -6 16 -19 18 -27 5z"/>
<path d="M4468 1923 c7 -3 16 -2 19 1 4 3 -2 6 -13 5 -11 0 -14 -3 -6 -6z"/>
<path d="M4388 1718 c15 -15 16 -32 2 -23 -5 3 -10 2 -10 -3 0 -11 30 -25 38
-17 9 8 -17 55 -30 55 -9 0 -9 -3 0 -12z"/>
<path d="M4653 1573 c9 -2 23 -2 30 0 6 3 -1 5 -18 5 -16 0 -22 -2 -12 -5z"/>
<path d="M4448 1543 c6 -2 18 -2 25 0 6 3 1 5 -13 5 -14 0 -19 -2 -12 -5z"/>
<path d="M4390 1316 c0 -8 4 -17 9 -20 5 -4 7 3 4 14 -6 23 -13 26 -13 6z"/>
<path d="M3877 3073 c-4 -3 -96 -7 -205 -7 -188 0 -189 0 -35 -3 l161 -3 4
-66 c1 -36 0 -68 -3 -70 -4 -2 -19 3 -35 10 -16 8 -44 14 -61 12 -18 -1 -33 2
-33 8 0 6 -3 6 -9 0 -6 -5 -13 -39 -17 -76 l-7 -68 37 0 c20 0 53 7 73 15 34
14 38 14 47 -2 6 -10 11 -25 11 -33 1 -8 6 -14 13 -12 7 1 13 -11 14 -30 1
-18 5 44 8 137 5 167 5 170 28 173 12 2 22 8 22 13 0 11 -4 12 -13 2z m-50
-80 c-3 -10 -5 -4 -5 12 0 17 2 24 5 18 2 -7 2 -21 0 -30z"/>
<path d="M3900 3070 c0 -5 7 -7 15 -4 8 4 15 8 15 10 0 2 -7 4 -15 4 -8 0 -15
-4 -15 -10z"/>
<path d="M3800 2735 c0 -8 5 -15 10 -15 6 0 10 7 10 15 0 8 -4 15 -10 15 -5 0
-10 -7 -10 -15z"/>
<path d="M3470 2591 c-37 -31 -36 -54 0 -28 26 18 55 57 43 57 -5 0 -24 -13
-43 -29z"/>
<path d="M3585 2590 c-16 -4 -24 -8 -17 -9 6 0 12 -11 13 -23 l0 -23 11 23 c6
12 18 22 26 22 16 0 83 -38 95 -54 4 -7 11 -6 18 4 8 12 10 12 7 -5 -2 -11
-10 -20 -18 -21 -29 -2 -31 -4 -18 -18 11 -11 17 -10 42 11 40 33 47 19 8 -17
-18 -16 -32 -33 -32 -38 0 -6 14 3 31 19 17 16 41 30 53 30 11 1 26 2 31 4 6
1 24 3 40 4 25 2 27 4 11 10 -18 7 -18 8 -2 14 10 4 26 7 37 7 10 0 19 4 19 9
0 5 -25 8 -55 6 -30 -1 -55 2 -55 8 0 5 -7 7 -14 4 -10 -4 -13 -1 -10 8 5 11
10 12 24 3 14 -9 24 -9 42 0 13 6 41 13 63 15 22 2 -13 4 -77 5 -73 1 -118 -2
-118 -8 0 -12 -47 -13 -52 -1 -5 12 -69 20 -103 11z"/>
<path d="M3485 2559 c-4 -6 -4 -13 -1 -16 3 -4 6 -1 6 6 0 7 5 9 10 6 6 -3 10
-1 10 4 0 14 -17 14 -25 0z"/>
<path d="M3520 2493 c0 -23 15 -39 23 -26 3 5 -1 17 -9 28 -14 18 -14 18 -14
-2z"/>
<path d="M3412 2455 c0 -16 2 -22 5 -12 2 9 2 23 0 30 -3 6 -5 -1 -5 -18z"/>
<path d="M3560 2456 c-12 -34 -13 -46 -1 -46 11 0 26 59 17 67 -3 3 -10 -6
-16 -21z"/>
<path d="M3441 2434 c0 -11 3 -14 6 -6 3 7 2 16 -1 19 -3 4 -6 -2 -5 -13z"/>
<path d="M3311 2424 c0 -11 3 -14 6 -6 3 7 2 16 -1 19 -3 4 -6 -2 -5 -13z"/>
<path d="M3465 2410 c3 -5 8 -10 11 -10 2 0 4 5 4 10 0 6 -5 10 -11 10 -5 0
-7 -4 -4 -10z"/>
<path d="M3760 2280 c0 -5 5 -10 11 -10 5 0 7 5 4 10 -3 6 -8 10 -11 10 -2 0
-4 -4 -4 -10z"/>
<path d="M3430 2264 c0 -8 5 -12 10 -9 6 3 10 10 10 16 0 5 -4 9 -10 9 -5 0
-10 -7 -10 -16z"/>
<path d="M3572 2060 c0 -19 2 -27 5 -17 2 9 2 25 0 35 -3 9 -5 1 -5 -18z"/>
<path d="M3664 2067 c-7 -20 3 -37 22 -37 18 0 18 24 -1 40 -12 10 -16 9 -21
-3z"/>
<path d="M3573 1805 c2 -24 7 -30 27 -32 14 -1 18 0 9 3 -8 3 -20 17 -27 32
l-11 27 2 -30z"/>
<path d="M3835 1710 c-3 -6 1 -7 9 -4 18 7 21 14 7 14 -6 0 -13 -4 -16 -10z"/>
<path d="M4135 1710 c-18 -8 -17 -9 8 -9 15 -1 27 4 27 9 0 12 -8 12 -35 0z"/>
<path d="M3199 1647 c5 -5 21 -7 37 -5 27 3 26 4 -8 9 -22 3 -34 1 -29 -4z"/>
<path d="M3398 1643 c67 -2 177 -2 245 0 67 1 12 3 -123 3 -135 0 -190 -2
-122 -3z"/>
<path d="M4110 1620 c0 -5 5 -10 10 -10 6 0 10 5 10 10 0 6 -4 10 -10 10 -5 0
-10 -4 -10 -10z"/>
<path d="M3190 1585 c0 -7 10 -21 23 -30 l22 -17 -24 7 c-17 5 -22 4 -19 -6 3
-10 30 -15 94 -17 49 -2 91 -8 92 -13 4 -11 197 -12 308 -2 l79 8 -55 6 -55 6
52 1 c28 1 54 5 56 10 3 4 -115 6 -261 6 l-267 -1 250 7 c304 9 295 8 295 18
0 4 -125 7 -277 7 l-278 -1 262 6 c144 3 264 7 267 10 2 3 -123 6 -280 7 -240
2 -284 0 -284 -12z m343 -72 c-13 -2 -33 -2 -45 0 -13 2 -3 4 22 4 25 0 35 -2
23 -4z"/>
<path d="M5888 3700 c-61 -7 -71 -17 -18 -18 23 -1 47 -6 55 -12 16 -13 30 4
18 23 -6 8 -23 11 -55 7z"/>
<path d="M1162 3675 c0 -16 2 -22 5 -12 2 9 2 23 0 30 -3 6 -5 -1 -5 -18z"/>
<path d="M1475 3683 c-11 -3 -25 -9 -30 -14 -6 -4 -30 -11 -54 -15 -23 -4 -48
-12 -54 -18 -7 -6 -24 -17 -39 -23 -25 -11 -28 -18 -28 -59 0 -30 6 -54 17
-66 15 -17 15 -18 -5 -18 -26 0 -30 -19 -4 -21 143 -10 258 1 192 18 -16 4
-18 8 -9 20 7 8 14 27 15 42 4 35 -40 85 -68 78 -10 -3 -18 -1 -18 4 0 13 40
36 88 50 59 17 57 37 -3 22z m-108 -85 c-3 -8 -6 -5 -6 6 -1 11 2 17 5 13 3
-3 4 -12 1 -19z m23 -74 c0 -8 -4 -12 -10 -9 -5 3 -10 10 -10 16 0 5 5 9 10 9
6 0 10 -7 10 -16z m57 -41 c-8 -9 -35 -17 -59 -20 -38 -4 -49 -1 -74 21 l-29
26 63 -6 c42 -5 62 -3 62 4 0 6 6 9 14 6 8 -3 18 1 22 8 7 10 9 9 12 -6 2 -10
-3 -25 -11 -33z"/>
<path d="M6080 3671 c-12 -24 -13 -81 -1 -99 13 -21 43 -10 53 20 6 18 4 37
-6 62 -17 40 -30 45 -46 17z m30 -46 c7 -9 10 -18 7 -22 -8 -7 -37 15 -37 28
0 14 16 11 30 -6z"/>
<path d="M5430 3650 c0 -5 5 -10 10 -10 6 0 10 5 10 10 0 6 -4 10 -10 10 -5 0
-10 -4 -10 -10z"/>
<path d="M5475 3650 c-3 -6 1 -7 9 -4 18 7 21 14 7 14 -6 0 -13 -4 -16 -10z"/>
<path d="M5473 3633 c-19 -3 -33 -10 -33 -18 0 -11 7 -12 32 -4 22 6 34 6 36
-1 6 -18 22 -11 22 10 0 11 -6 19 -12 18 -7 0 -28 -3 -45 -5z"/>
<path d="M4152 3611 c3 -13 16 -16 71 -16 76 1 93 19 20 22 -27 2 -58 4 -71 6
-17 3 -22 0 -20 -12z"/>
<path d="M1207 3594 c9 -15 19 -22 21 -15 2 6 -3 18 -11 26 -24 24 -29 18 -10
-11z"/>
<path d="M3841 3611 c-7 -5 -10 -14 -7 -20 4 -7 2 -10 -5 -9 -6 2 -16 -12 -21
-30 -11 -43 11 -82 47 -82 13 0 27 -5 30 -10 8 -14 54 -1 88 24 34 25 36 66 3
100 -13 15 -27 26 -30 26 -4 0 -6 -29 -4 -64 3 -58 1 -63 -13 -50 -8 8 -25 14
-37 14 -13 0 -22 6 -22 15 0 8 -5 24 -12 35 -16 25 -4 37 17 16 20 -20 29 -20
45 -1 26 32 -39 61 -79 36z"/>
<path d="M4447 3614 c-12 -13 4 -24 34 -24 19 0 29 5 29 15 0 8 -7 15 -15 15
-8 0 -15 -5 -15 -11 0 -8 -4 -9 -13 0 -8 6 -17 8 -20 5z"/>
<path d="M5901 3584 c0 -11 3 -14 6 -6 3 7 2 16 -1 19 -3 4 -6 -2 -5 -13z"/>
<path d="M5476 3566 c-8 -10 -13 -23 -10 -28 8 -13 30 -9 44 7 9 11 35 15 101
15 53 0 89 4 89 10 0 10 -16 12 -141 14 -55 1 -70 -2 -83 -18z"/>
<path d="M4150 3567 c0 -17 37 -30 46 -16 3 6 11 6 17 2 20 -13 100 -9 105 5
3 10 -14 12 -71 11 -41 -1 -80 1 -86 5 -6 4 -11 1 -11 -7z"/>
<path d="M1207 3559 c7 -7 15 -10 18 -7 3 3 -2 9 -12 12 -14 6 -15 5 -6 -5z"/>
<path d="M4450 3555 c7 -8 23 -15 36 -15 15 0 24 6 24 15 0 18 -36 20 -43 3
-4 -10 -6 -10 -6 0 -1 6 -6 12 -12 12 -8 0 -8 -5 1 -15z"/>
<path d="M4728 3543 c18 -2 45 -2 60 0 15 2 0 4 -33 4 -33 0 -45 -2 -27 -4z"/>
<path d="M5534 3539 c-14 -6 -15 -8 -4 -9 8 -1 22 -3 30 -4 8 -2 24 0 35 4 17
6 15 8 -11 12 -17 2 -40 1 -50 -3z"/>
<path d="M5675 3540 c-19 -8 -19 -9 3 -9 12 -1 22 4 22 9 0 6 -1 10 -2 9 -2 0
-12 -4 -23 -9z"/>
<path d="M1584 3526 c-3 -8 -4 -25 -2 -38 3 -22 7 -23 83 -23 79 0 80 0 80 25
0 22 -4 25 -35 24 -19 0 -38 4 -42 10 -6 8 -10 7 -16 -1 -6 -10 -12 -10 -28 2
-24 18 -33 19 -40 1z"/>
<path d="M1841 3524 c0 -11 3 -14 6 -6 3 7 2 16 -1 19 -3 4 -6 -2 -5 -13z"/>
<path d="M5888 3534 c-7 -6 -33 -12 -60 -13 -10 -1 -18 -6 -18 -12 0 -5 4 -8
9 -4 5 3 26 -2 46 -12 31 -15 37 -15 46 -3 16 26 -4 64 -23 44z"/>
<path d="M1193 3523 c-20 -8 -16 -53 5 -53 16 -1 16 -1 0 -11 -14 -8 -18 -23
-18 -69 0 -32 4 -61 8 -64 7 -4 305 -10 336 -7 4 1 1 12 -7 25 -14 21 -14 26
0 45 8 12 13 24 12 26 -2 1 -72 5 -156 7 -84 2 -155 7 -158 10 -3 3 1 18 10
34 21 40 19 45 -12 38 -25 -7 -27 -6 -14 9 14 18 14 19 -6 10z m37 -159 c0 -8
-5 -12 -10 -9 -6 4 -8 11 -5 16 9 14 15 11 15 -7z m50 5 c0 7 5 9 10 6 20 -12
10 -25 -20 -25 -22 0 -28 4 -24 15 5 12 10 13 20 4 11 -9 14 -9 14 0z m100
-10 c0 -5 -9 -9 -20 -9 -19 0 -26 11 -14 23 8 8 34 -3 34 -14z m36 -6 c-10
-10 -19 5 -10 18 6 11 8 11 12 0 2 -7 1 -15 -2 -18z m37 13 c6 -16 -2 -28 -14
-20 -12 7 -11 34 0 34 5 0 11 -6 14 -14z"/>
<path d="M2048 3523 c-21 -5 -25 -62 -5 -64 6 -1 44 -2 84 -3 77 -3 84 2 76
46 -4 22 -9 25 -51 24 -44 -1 -47 -3 -53 -31 -6 -27 -9 -24 -13 14 -1 16 -13
21 -38 14z"/>
<path d="M4150 3514 c0 -11 8 -15 28 -14 15 1 29 1 32 0 19 -8 129 -3 127 5
-2 6 -34 11 -71 11 -36 1 -78 5 -91 8 -19 5 -25 2 -25 -10z"/>
<path d="M4450 3510 c0 -7 34 -20 53 -20 4 0 7 6 7 14 0 10 -10 14 -30 14 -16
-1 -30 -4 -30 -8z"/>
<path d="M5670 3510 c-12 -8 -11 -10 8 -10 12 0 22 5 22 10 0 13 -11 13 -30 0z"/>
<path d="M5543 3503 c15 -2 37 -2 50 0 12 2 0 4 -28 4 -27 0 -38 -2 -22 -4z"/>
<path d="M5670 3480 c-12 -8 -11 -10 8 -10 12 0 22 5 22 10 0 13 -11 13 -30 0z"/>
<path d="M1160 3461 c0 -25 6 -27 13 -6 4 8 2 17 -3 20 -6 4 -10 -3 -10 -14z"/>
<path d="M1536 3467 c3 -10 9 -15 12 -12 3 3 0 11 -7 18 -10 9 -11 8 -5 -6z"/>
<path d="M4150 3466 c0 -11 18 -15 88 -18 95 -3 101 -3 86 12 -9 9 -62 13
-114 8 -8 -1 -25 2 -37 6 -17 5 -23 3 -23 -8z"/>
<path d="M5533 3473 c9 -2 25 -2 35 0 9 3 1 5 -18 5 -19 0 -27 -2 -17 -5z"/>
<path d="M1900 3455 c-7 -9 -8 -15 -2 -15 5 0 12 7 16 15 3 8 4 15 2 15 -2 0
-9 -7 -16 -15z"/>
<path d="M4450 3460 c0 -11 49 -22 61 -15 5 4 7 10 4 15 -6 10 -65 10 -65 0z"/>
<path d="M5540 3450 c0 -5 7 -10 16 -10 8 0 12 5 9 10 -3 6 -10 10 -16 10 -5
0 -9 -4 -9 -10z"/>
<path d="M5660 3450 c0 -5 9 -10 20 -10 11 0 20 5 20 10 0 6 -9 10 -20 10 -11
0 -20 -4 -20 -10z"/>
<path d="M5810 3432 c0 -4 5 -13 12 -20 9 -9 9 -17 0 -34 -33 -67 -18 -125 20
-78 23 29 23 67 -2 108 -19 31 -30 40 -30 24z"/>
<path d="M1584 3415 c-4 -8 -3 -26 0 -39 5 -22 10 -23 68 -20 34 1 70 -2 79
-6 13 -8 16 -4 15 23 -1 29 -4 32 -36 35 -19 2 -39 9 -43 15 -6 9 -10 9 -14 0
-6 -15 -33 -17 -33 -3 0 16 -30 12 -36 -5z"/>
<path d="M1760 3395 c0 -24 5 -35 15 -36 8 -1 21 -2 28 -3 6 -1 15 -5 18 -10
4 -5 13 -5 20 0 8 5 27 9 43 9 27 0 30 4 30 30 l0 30 -57 -3 c-37 -3 -57 0
-57 7 0 6 -9 11 -20 11 -16 0 -20 -7 -20 -35z"/>
<path d="M2053 3422 c-19 -3 -23 -10 -23 -38 l0 -34 84 2 c74 1 85 4 90 21 9
34 -3 44 -54 46 -46 1 -49 -1 -52 -27 l-4 -27 -9 30 c-8 23 -15 29 -32 27z"/>
<path d="M4150 3414 c0 -10 27 -13 110 -13 66 -1 110 3 110 9 0 6 -32 10 -72
11 -40 0 -90 1 -110 3 -26 2 -38 -1 -38 -10z"/>
<path d="M5520 3418 c0 -4 16 -8 35 -8 19 0 35 4 35 8 0 5 -16 9 -35 9 -19 0
-35 -4 -35 -9z"/>
<path d="M5670 3420 c0 -5 7 -10 15 -10 8 0 15 5 15 10 0 6 -7 10 -15 10 -8 0
-15 -4 -15 -10z"/>
<path d="M4450 3410 c0 -5 5 -10 10 -11 38 -4 54 -2 58 9 2 8 -8 12 -32 12
-20 0 -36 -4 -36 -10z"/>
<path d="M3699 3400 c0 -5 -1 -28 -1 -50 0 -22 1 -44 1 -49 1 -11 243 -26 267
-17 12 5 14 9 5 20 -6 7 -8 27 -5 45 l7 31 -127 0 c-105 0 -126 2 -126 15 0
16 -20 21 -21 5z m42 -72 c0 -9 2 -9 6 1 5 11 7 11 14 0 6 -10 9 -11 9 -1 0 7
15 12 40 12 29 0 40 -4 40 -15 0 -12 -4 -13 -26 -3 -19 9 -27 9 -33 0 -9 -15
-63 -10 -69 6 -2 6 1 12 7 12 6 0 11 -6 12 -12z m149 -4 c0 -8 -5 -12 -10 -9
-6 4 -8 11 -5 16 9 14 15 11 15 -7z m30 -5 c0 -5 -4 -9 -10 -9 -5 0 -10 7 -10
16 0 8 5 12 10 9 6 -3 10 -10 10 -16z"/>
<path d="M5890 3394 c0 -8 8 -14 18 -15 9 0 39 -2 65 -4 32 -2 47 1 44 9 -2 6
-24 12 -48 13 -24 2 -52 4 -61 7 -11 2 -18 -2 -18 -10z"/>
<path d="M2241 3384 c0 -11 3 -14 6 -6 3 7 2 16 -1 19 -3 4 -6 -2 -5 -13z"/>
<path d="M5520 3390 c0 -5 9 -10 20 -10 11 0 20 5 20 10 0 6 -9 10 -20 10 -11
0 -20 -4 -20 -10z"/>
<path d="M5575 3390 c3 -5 10 -10 16 -10 5 0 9 5 9 10 0 6 -7 10 -16 10 -8 0
-12 -4 -9 -10z"/>
<path d="M5660 3390 c0 -5 9 -10 20 -10 11 0 20 5 20 10 0 6 -9 10 -20 10 -11
0 -20 -4 -20 -10z"/>
<path d="M6090 3390 c0 -8 25 -20 41 -20 5 0 9 6 9 14 0 8 -10 14 -25 14 -14
0 -25 -4 -25 -8z"/>
<path d="M1966 3373 c-3 -4 -6 -18 -6 -32 1 -23 2 -24 11 -8 9 15 13 16 27 5
9 -8 13 -8 9 -1 -4 6 -1 13 5 16 7 2 10 7 7 11 -9 10 -46 16 -53 9z"/>
<path d="M4153 3366 c5 -14 167 -19 167 -6 0 6 -21 10 -47 11 -27 0 -65 1 -86
3 -24 2 -36 -1 -34 -8z"/>
<path d="M4486 3371 c-4 -6 -13 -8 -21 -4 -8 3 -15 0 -15 -6 0 -6 16 -11 36
-11 23 0 34 4 32 12 -6 16 -25 21 -32 9z"/>
<path d="M5520 3360 c0 -5 5 -10 10 -10 6 0 10 5 10 10 0 6 -4 10 -10 10 -5 0
-10 -4 -10 -10z"/>
<path d="M5550 3360 c0 -5 9 -10 20 -10 11 0 20 5 20 10 0 6 -9 10 -20 10 -11
0 -20 -4 -20 -10z"/>
<path d="M5668 3358 c9 -9 15 -9 24 0 9 9 7 12 -12 12 -19 0 -21 -3 -12 -12z"/>
<path d="M5770 3335 c0 -8 2 -15 4 -15 2 0 6 7 10 15 3 8 1 15 -4 15 -6 0 -10
-7 -10 -15z"/>
<path d="M5890 3334 c0 -7 24 -12 65 -13 38 -1 65 3 65 9 0 5 -3 10 -7 11 -69
6 -123 3 -123 -7z"/>
<path d="M5520 3329 c0 -10 50 -8 56 2 3 5 -8 8 -25 7 -17 -1 -31 -5 -31 -9z"/>
<path d="M5590 3330 c0 -5 7 -10 15 -10 8 0 15 5 15 10 0 6 -7 10 -15 10 -8 0
-15 -4 -15 -10z"/>
<path d="M5665 3318 c2 -23 4 -24 28 -15 8 4 8 6 -2 6 -11 1 -11 4 -1 16 10
12 9 15 -7 15 -14 0 -19 -6 -18 -22z"/>
<path d="M6110 3331 c0 -17 18 -21 24 -6 3 9 0 15 -9 15 -8 0 -15 -4 -15 -9z"/>
<path d="M4153 3316 c2 -6 24 -12 48 -13 24 -1 74 -4 112 -6 53 -4 67 -2 67 9
0 8 -11 14 -27 15 -16 0 -67 2 -116 3 -59 2 -86 -1 -84 -8z"/>
<path d="M4490 3320 c-7 -4 -19 -6 -27 -3 -7 3 -13 0 -13 -6 0 -6 16 -11 35
-11 19 0 35 4 35 9 0 15 -15 21 -30 11z"/>
<path d="M1210 3289 c0 -16 7 -19 44 -19 25 0 48 5 51 10 7 12 -4 16 -57 24
-33 4 -38 2 -38 -15z"/>
<path d="M1320 3290 c0 -19 4 -22 35 -18 19 2 36 1 37 -3 5 -13 68 3 68 17 0
10 -15 14 -54 14 -30 0 -61 3 -70 6 -12 4 -16 0 -16 -16z"/>
<path d="M5513 3304 c10 -10 77 -12 77 -2 0 4 -19 8 -42 8 -23 0 -38 -3 -35
-6z"/>
<path d="M5890 3283 c0 -7 3 -13 8 -14 106 -8 173 -7 169 4 -2 7 -27 13 -63
14 -32 2 -71 4 -86 6 -18 2 -28 -1 -28 -10z"/>
<path d="M6107 3283 c-13 -12 -7 -23 13 -23 11 0 20 7 20 15 0 15 -21 21 -33
8z"/>
<path d="M5513 3273 c12 -11 66 -13 72 -3 4 6 -11 10 -36 10 -23 0 -39 -3 -36
-7z"/>
<path d="M5658 3273 c10 -4 10 -8 1 -19 -9 -11 -7 -14 9 -14 15 0 20 6 19 20
-1 13 -8 20 -22 19 -11 0 -14 -3 -7 -6z"/>
<path d="M378 3263 c7 -3 16 -2 19 1 4 3 -2 6 -13 5 -11 0 -14 -3 -6 -6z"/>
<path d="M3720 3260 c0 -6 9 -11 20 -11 11 -1 25 -2 32 -3 6 -1 13 4 15 9 1 6
-13 11 -32 12 -19 2 -35 -2 -35 -7z"/>
<path d="M3810 3258 c0 -11 14 -15 50 -16 27 0 52 3 55 9 4 5 -11 9 -34 9 -21
0 -46 3 -55 6 -10 4 -16 1 -16 -8z"/>
<path d="M5520 3239 c0 -6 -22 -9 -57 -8 -52 3 -58 1 -58 -17 0 -16 7 -19 45
-19 58 -1 67 2 73 27 4 15 12 19 25 16 11 -3 26 -2 33 3 9 6 1 9 -23 9 -21 0
-38 -5 -38 -11z"/>
<path d="M5764 3238 c-3 -5 1 -8 8 -9 7 -1 28 -2 46 -4 19 -2 32 2 32 9 0 13
-79 16 -86 4z"/>
<path d="M5890 3225 c0 -9 21 -13 70 -13 39 0 70 4 70 9 0 11 2 10 -77 14 -45
1 -63 -2 -63 -10z"/>
<path d="M6097 3223 c7 -18 43 -16 43 1 0 8 -9 13 -24 12 -14 0 -22 -6 -19
-13z"/>
<path d="M4268 3193 c12 -2 30 -2 40 0 9 3 -1 5 -23 4 -22 0 -30 -2 -17 -4z"/>
<path d="M5789 3189 c-10 -6 -7 -9 14 -9 29 0 35 5 14 13 -8 3 -20 1 -28 -4z"/>
<path d="M6058 3180 c-5 -16 -59 -19 -317 -19 -129 -1 -232 -3 -229 -6 2 -3
112 -5 244 -6 131 -1 248 -5 259 -10 12 -5 -112 -7 -292 -5 -172 2 -313 1
-313 -3 0 -4 8 -16 18 -27 10 -11 17 -25 14 -32 -5 -16 496 -6 516 10 17 15
22 7 28 -38 l4 -39 -13 34 c-9 24 -15 30 -19 20 -10 -27 3 -68 25 -75 46 -14
-18 -27 -140 -27 -67 0 -123 -4 -123 -8 0 -10 190 -12 266 -3 l51 6 -7 37
c-24 111 -24 109 12 119 29 7 33 13 36 45 3 33 -11 52 -20 27z m-385 -87 c-7
-2 -19 -2 -25 0 -7 3 -2 5 12 5 14 0 19 -2 13 -5z m154 1 c-3 -3 -12 -4 -19
-1 -8 3 -5 6 6 6 11 1 17 -2 13 -5z"/>
<path d="M5423 3153 c15 -2 39 -2 55 0 15 2 2 4 -28 4 -30 0 -43 -2 -27 -4z"/>
<path d="M2572 3090 c0 -19 2 -27 5 -17 2 9 2 25 0 35 -3 9 -5 1 -5 -18z"/>
<path d="M6064 3038 c-11 -5 22 -6 78 -3 86 5 98 3 106 -12 15 -30 44 -183 39
-203 -3 -11 -1 -20 4 -22 4 -2 26 -84 48 -183 21 -99 42 -192 46 -208 7 -25 5
-27 -21 -27 -153 3 -196 0 -192 -12 3 -9 36 -15 104 -19 111 -6 115 -10 9 -11
l-70 0 65 -9 c139 -20 127 -15 139 -67 39 -179 111 -491 117 -505 9 -25 25
-20 19 6 -64 269 -178 765 -225 977 -34 151 -66 283 -71 293 -8 15 -23 17 -93
15 -45 -1 -91 -5 -102 -10z"/>
<path d="M5666 3028 c3 -4 9 -8 15 -8 5 0 9 4 9 8 0 5 -7 9 -15 9 -8 0 -12 -4
-9 -9z"/>
<path d="M2582 2970 c0 -19 2 -27 5 -17 2 9 2 25 0 35 -3 9 -5 1 -5 -18z"/>
<path d="M5500 2960 c-8 -5 -12 -12 -9 -15 8 -8 39 5 39 16 0 11 -11 11 -30
-1z"/>
<path d="M5540 2950 c0 -5 7 -7 15 -4 8 4 15 8 15 10 0 2 -7 4 -15 4 -8 0 -15
-4 -15 -10z"/>
<path d="M5633 2953 c9 -2 23 -2 30 0 6 3 -1 5 -18 5 -16 0 -22 -2 -12 -5z"/>
<path d="M2591 2904 c0 -11 3 -14 6 -6 3 7 2 16 -1 19 -3 4 -6 -2 -5 -13z"/>
<path d="M3230 2846 c0 -2 7 -9 15 -16 13 -11 14 -10 9 4 -5 14 -24 23 -24 12z"/>
<path d="M0 1985 l0 -804 48 5 c26 3 119 7 207 9 88 2 202 4 253 5 61 2 92 6
92 14 0 6 -4 58 -10 116 -5 58 -17 195 -25 305 -9 110 -27 326 -41 480 -53
596 -55 628 -43 639 9 8 10 8 5 -1 -4 -7 -2 -21 3 -30 9 -15 11 -12 11 17 1
19 4 30 6 24 3 -7 14 -10 24 -7 17 5 20 0 20 -29 0 -20 8 -43 20 -56 20 -21
27 -52 12 -52 -5 0 -13 10 -19 23 -8 17 -9 7 -7 -43 2 -36 7 -81 10 -100 4
-19 7 -53 8 -75 1 -22 3 -59 4 -82 l2 -43 188 -2 187 -2 -185 -6 -185 -5 3
-45 c2 -25 5 -47 7 -48 2 -2 313 1 692 7 378 6 802 11 941 11 245 0 252 -1
252 -20 0 -12 -8 -21 -22 -24 -39 -8 -1061 -26 -1470 -26 l-388 0 0 -33 c0
-19 6 -103 14 -188 8 -85 17 -197 21 -249 4 -52 8 -108 10 -125 2 -16 10 -101
16 -188 11 -131 15 -157 27 -152 31 12 402 28 906 40 137 3 310 10 385 15 75
5 206 10 291 10 85 0 199 3 252 7 88 5 98 8 98 25 0 11 5 16 11 13 6 -4 8 -13
5 -21 -3 -8 1 -14 9 -14 8 0 12 6 10 13 -2 6 -9 64 -15 127 -9 110 -39 417
-61 640 -6 58 -17 173 -24 255 -29 310 -45 457 -51 467 -3 5 -567 8 -1255 8
l-1249 0 0 -805z m710 775 c0 -5 -4 -10 -10 -10 -5 0 -10 5 -10 10 0 6 5 10
10 10 6 0 10 -4 10 -10z m1761 1 c4 -1 10 -51 14 -112 4 -61 10 -123 15 -139
6 -22 5 -30 -7 -34 -12 -5 -14 -15 -9 -46 l6 -40 -130 1 c-71 1 -130 4 -130 8
0 4 5 12 11 18 8 8 4 17 -12 32 -13 11 -28 21 -35 21 -6 0 -23 9 -38 21 -35
27 -36 2 -1 -31 14 -13 25 -26 25 -29 0 -3 -24 -6 -54 -6 -30 0 -52 2 -50 4 2
2 -2 11 -9 19 -10 13 -9 15 4 10 13 -5 16 -1 15 18 -1 28 -13 30 -51 10 -30
-16 -68 -11 -43 5 10 7 8 9 -7 10 -13 0 -8 5 15 13 22 9 43 10 58 5 13 -5 24
-9 25 -9 1 0 1 56 -1 125 l-4 125 26 0 26 0 0 -115 c0 -114 0 -115 25 -121 14
-4 29 -4 32 0 4 3 -3 6 -15 6 -21 0 -22 4 -22 115 l0 115 45 0 c33 0 45 -4 45
-15 0 -24 126 -21 139 3 8 16 42 20 92 13z m-2181 -29 c69 2 86 0 82 -10 -2
-7 -10 -11 -17 -8 -7 2 -16 2 -20 -2 -8 -8 -75 -11 -75 -2 0 9 -54 6 -61 -4
-4 -4 -10 -3 -13 3 -4 6 -3 11 2 11 6 0 9 8 7 18 -1 9 0 11 2 4 4 -10 27 -13
93 -10z m128 21 c-10 -2 -26 -2 -35 0 -10 3 -2 5 17 5 19 0 27 -2 18 -5z m235
0 c-7 -2 -19 -2 -25 0 -7 3 -2 5 12 5 14 0 19 -2 13 -5z m339 -26 c9 -19 39
-61 67 -95 l52 -62 232 0 c128 0 237 4 244 8 20 13 35 65 34 125 l0 57 189 0
189 0 3 -87 c5 -139 4 -143 -43 -143 -45 0 -48 -9 -20 -63 l19 -37 -82 0
c-100 0 -116 8 -96 47 8 15 23 38 33 50 18 21 18 21 -10 27 -50 11 -226 4
-250 -10 -18 -11 -22 -11 -27 1 -8 23 -33 7 -60 -40 -19 -32 -33 -44 -56 -47
-17 -3 -33 -1 -36 3 -2 5 -12 5 -21 2 -11 -4 -14 -3 -9 5 4 7 2 12 -5 12 -8 0
-8 4 1 15 10 13 9 15 -9 15 -11 0 -21 -5 -21 -11 0 -5 -4 -8 -10 -4 -5 3 -6
13 -3 22 4 11 3 14 -6 9 -7 -5 -20 -1 -29 7 -10 8 -38 15 -67 15 -27 0 -63 3
-80 6 -16 2 -37 5 -45 6 -10 1 -9 4 5 9 19 7 17 11 -19 47 -39 39 -103 144
-88 144 5 0 15 -15 24 -33z m-566 0 c8 3 14 -1 14 -11 0 -9 -7 -16 -15 -16 -8
0 -15 2 -15 4 0 2 -2 10 -3 18 -2 7 -2 10 0 6 2 -4 11 -4 19 -1z m331 -3 c-3
-3 -12 -4 -19 -1 -8 3 -5 6 6 6 11 1 17 -2 13 -5z m-356 -53 c-20 -13 -4 -30
22 -24 12 3 19 3 16 -1 -4 -4 -20 -8 -35 -9 -22 -2 -32 -10 -43 -35 -8 -17
-21 -32 -28 -32 -8 0 -13 -13 -14 -32 -1 -31 -2 -31 -11 10 -8 39 -27 58 -29
30 0 -7 -4 -3 -9 10 -12 29 -3 52 21 52 12 0 19 -7 19 -19 0 -26 19 -37 33
-21 9 10 9 11 -3 5 -15 -9 15 33 35 47 6 5 6 8 1 8 -6 0 -1 6 10 14 10 8 21
12 24 10 2 -3 -2 -9 -9 -13z m277 -56 c-3 -13 -2 -23 1 -22 9 2 89 -42 96 -53
9 -15 -1 -12 -37 10 -18 11 -43 20 -55 20 -12 0 -24 3 -26 8 -8 12 5 62 15 62
6 0 8 -11 6 -25z m-588 -9 c0 -2 -7 -7 -16 -10 -8 -3 -12 -2 -9 4 6 10 25 14
25 6z m330 -22 c0 -16 -9 -18 -29 -5 -7 5 -11 14 -7 19 9 15 36 4 36 -14z
m-183 -41 c-4 -3 -1 -13 6 -21 9 -12 9 -14 0 -9 -7 5 -25 0 -40 -10 -26 -16
-27 -16 -14 0 7 9 10 17 6 17 -4 0 -2 7 5 15 7 8 19 15 28 15 8 0 12 -3 9 -7z
m1361 -24 c3 -11 1 -11 -6 -1 -5 7 -17 10 -28 6 -16 -5 -16 -4 -4 5 18 13 32
10 38 -10z m-883 1 c4 -6 11 -7 17 -4 7 4 8 2 4 -4 -5 -9 -13 -9 -27 -2 -10 6
-19 13 -19 15 0 9 19 5 25 -5z m125 -21 c0 7 5 9 11 5 8 -4 7 -9 -2 -15 -7 -4
-17 -5 -22 -2 -5 3 -14 -1 -19 -8 -8 -12 -9 -11 -5 1 2 8 0 24 -6 35 -8 17 -6
16 17 -4 14 -14 26 -19 26 -12z m850 3 c0 -8 -1 -13 -3 -11 -1 2 -9 12 -16 22
-12 15 -12 17 3 11 9 -3 16 -13 16 -22z m17 -4 c-3 -8 -6 -5 -6 6 -1 11 2 17
5 13 3 -3 4 -12 1 -19z m33 18 c0 -3 -4 -8 -10 -11 -5 -3 -10 -1 -10 4 0 6 5
11 10 11 6 0 10 -2 10 -4z m-1460 -33 c0 -3 -6 -3 -14 0 -8 3 -17 -1 -20 -9
-3 -9 -11 -12 -17 -8 -9 5 -7 11 5 20 16 11 46 9 46 -3z m600 -42 c0 -5 -9 -7
-20 -4 -15 4 -20 0 -20 -13 0 -16 -2 -16 -10 -4 -6 9 -5 17 3 22 17 11 47 10
47 -1z m145 -44 c28 -3 24 -4 -15 -3 -46 1 -55 4 -59 21 -3 19 -2 19 15 3 11
-9 37 -18 59 -21z m-866 9 c10 -12 7 -14 -22 -13 -27 2 -33 5 -25 15 14 16 33
15 47 -2z m1831 -6 c0 -12 -27 -20 -68 -20 -39 0 -34 -15 8 -23 21 -4 20 -4
-7 -6 -37 -1 -40 -7 -17 -33 14 -14 14 -20 4 -33 -11 -13 -16 -12 -42 10 -16
14 -35 25 -41 26 -7 0 -1 6 13 12 27 13 39 57 16 57 -7 0 -18 6 -24 13 -8 9 7
11 74 9 46 -2 84 -7 84 -12z m-235 -62 c-18 -35 -39 -63 -47 -63 -7 0 -20 -11
-28 -25 -14 -23 -19 -25 -75 -19 -59 6 -59 6 -15 9 62 4 63 5 78 13 25 16 10
24 -50 26 -35 1 -65 6 -68 10 -3 5 -15 11 -27 15 -13 4 -23 14 -23 22 0 8 -9
23 -20 34 -11 11 -20 22 -20 25 0 2 53 6 118 8 64 1 138 4 164 5 l46 2 -33
-62z m285 58 c0 -11 -19 -15 -25 -6 -3 5 1 10 9 10 9 0 16 -2 16 -4z m-594
-15 c-4 -5 -70 -9 -149 -8 l-142 1 105 6 c175 10 191 10 186 1z m-1196 -16 c0
-8 -7 -15 -15 -15 -16 0 -20 12 -8 23 11 12 23 8 23 -8z m1816 -1 c-3 -7 9
-24 25 -38 28 -26 42 -20 16 6 -8 7 -12 19 -9 26 6 18 42 15 49 -4 8 -21 -22
-70 -39 -65 -7 2 -20 4 -30 3 -9 0 -19 9 -22 21 -6 24 -22 15 -28 -16 -3 -18
-4 -18 -30 2 -33 26 -38 26 -38 1 0 -11 -6 -20 -14 -20 -12 0 -12 5 -3 30 7
18 17 28 24 26 7 -3 13 1 13 9 0 8 -6 15 -12 16 -30 1 26 14 62 14 27 0 39 -4
36 -11z m430 -4 c9 -22 16 -85 8 -78 -3 4 -15 -3 -26 -15 l-19 -22 7 25 c7 25
6 25 -14 6 -12 -10 -20 -23 -19 -29 1 -7 -9 -13 -23 -15 -24 -2 -24 -2 -6 13
11 8 14 15 8 15 -7 0 -12 7 -12 15 0 18 -45 21 -56 3 -5 -8 -11 -6 -20 7 -9
12 -21 16 -40 12 -17 -3 -32 1 -43 12 -25 25 -51 34 -44 15 6 -17 -13 -19 -23
-2 -22 35 -11 44 50 46 33 2 61 4 63 6 1 1 48 2 103 2 79 -1 101 -4 106 -16z
m-1116 -19 c-5 -11 -7 -27 -4 -35 5 -13 -1 -16 -31 -16 -25 0 -34 4 -29 12 4
6 -1 17 -11 24 -14 11 -15 14 -4 18 8 2 21 7 29 9 8 3 25 6 38 6 19 1 21 -2
12 -18z m30 0 c-10 -20 -30 -37 -30 -27 0 6 33 46 38 46 1 0 -2 -9 -8 -19z
m-1270 -11 c0 -10 8 -24 18 -29 15 -10 15 -10 -3 -11 -12 0 -26 -5 -31 -10 -8
-8 -15 -6 -24 5 -10 12 -9 19 4 40 20 30 36 32 36 5z m2030 -33 c0 -7 -12 -20
-27 -29 -16 -10 -22 -18 -15 -18 6 0 12 -4 12 -10 0 -17 -17 -11 -25 7 -4 13
2 25 22 40 33 27 33 27 33 10z m-1735 -5 c-6 -6 -76 -4 -83 2 -2 3 16 5 42 4
26 0 44 -3 41 -6z m-184 -41 c13 -10 31 -21 39 -24 10 -3 6 -6 -10 -7 -103 -8
-115 -4 -83 32 20 22 25 22 54 -1z m1949 9 c0 -5 9 -10 19 -10 11 0 23 -4 26
-10 4 -6 -13 -10 -45 -10 -48 0 -50 1 -40 20 11 21 40 28 40 10z m320 -11 c0
-5 -10 -9 -21 -9 -18 0 -19 2 -9 15 12 15 30 12 30 -6z m-1752 -6 c-10 -2 -26
-2 -35 0 -10 3 -2 5 17 5 19 0 27 -2 18 -5z m-700 -15 c-5 -16 -48 -24 -48 -9
0 8 17 16 43 20 5 0 7 -5 5 -11z m1252 2 c0 -6 -29 -10 -67 -9 -50 1 -61 3
-43 9 36 12 110 12 110 0z m1187 -52 c-3 -8 -6 -5 -6 6 -1 11 2 17 5 13 3 -3
4 -12 1 -19z m21 -53 c13 -99 26 -277 21 -280 -12 -8 -49 145 -49 207 0 67
-13 107 -25 76 -4 -9 -2 -25 4 -37 6 -11 11 -32 11 -48 0 -26 -1 -26 -13 -8
-16 24 -38 96 -32 104 2 4 21 6 42 6 30 0 39 -4 41 -20z m-398 -276 c0 -191
-3 -288 -10 -284 -5 3 -10 1 -10 -4 0 -6 5 -11 10 -11 6 0 10 -4 10 -9 0 -6
-9 -9 -20 -8 -20 1 -20 8 -20 304 0 296 0 303 20 303 20 0 20 -7 20 -291z
m236 216 c-10 -73 -11 -75 -38 -75 -28 0 -28 0 -30 73 l-2 72 -3 -72 -4 -73
-57 -2 -57 -2 58 -3 57 -4 -2 -92 c-1 -51 1 -98 6 -105 4 -7 1 -15 -8 -18 -9
-3 -16 -14 -16 -24 0 -10 -9 -20 -20 -23 -14 -3 -20 0 -20 11 0 27 -10 7 -14
-29 -2 -19 -7 -33 -12 -31 -47 13 -44 -2 -44 243 l0 229 108 0 107 0 -9 -75z
m-1926 45 c0 -5 -7 -10 -16 -10 -8 0 -12 5 -9 10 3 6 10 10 16 10 5 0 9 -4 9
-10z m-236 -15 c-4 -8 -8 -15 -10 -15 -2 0 -4 7 -4 15 0 8 4 15 10 15 5 0 7
-7 4 -15z m1823 -137 c-2 -29 -3 -6 -3 52 0 58 1 81 3 53 2 -29 2 -77 0 -105z
m319 -24 c-3 -25 -10 -52 -16 -60 -7 -7 -9 -25 -6 -39 4 -14 2 -25 -4 -25 -5
0 -10 12 -11 28 0 15 -2 47 -5 72 -5 55 0 70 26 70 18 0 20 -5 16 -46z m-319
-131 c-2 -21 -4 -6 -4 32 0 39 2 55 4 38 2 -18 2 -50 0 -70z m463 87 c10 -6 2
-7 -25 -3 -49 7 -58 13 -19 13 16 0 36 -5 44 -10z m-10 -110 c0 -6 -30 -9 -72
-8 l-73 1 55 7 c86 11 90 11 90 0z m-494 -107 c-5 -34 -4 -44 3 -33 6 8 11 25
11 38 0 12 4 22 9 22 5 0 7 -15 5 -32 -1 -18 -3 -57 -3 -85 l-1 -53 -59 0
c-38 0 -63 5 -70 14 -8 9 -8 15 -1 18 5 1 12 25 14 51 3 40 9 53 37 77 51 43
63 40 55 -17z m274 28 c0 -11 -31 -24 -39 -16 -3 3 1 10 9 15 19 12 30 12 30
1z m-1225 -11 c4 -6 10 -8 15 -5 13 8 -10 -57 -26 -75 -12 -12 -14 -7 -14 38
0 48 10 66 25 42z m1280 -22 c14 -6 25 -15 25 -20 0 -13 -10 -10 -37 12 -29
23 -25 25 12 8z m-1067 -48 c24 -22 32 -38 32 -64 0 -36 12 -46 55 -46 13 0
27 -5 30 -11 4 -6 13 -8 20 -5 16 6 39 -19 31 -32 -7 -12 -66 -2 -63 10 2 13
-40 26 -74 24 -13 -1 -30 5 -38 12 -11 11 -11 15 5 28 19 14 19 14 0 29 -11 8
-26 15 -34 15 -10 0 -9 4 3 17 16 16 16 18 -5 35 -13 11 -17 18 -9 18 8 0 29
-14 47 -30z m1137 20 c-3 -5 -11 -10 -16 -10 -6 0 -7 5 -4 10 3 6 11 10 16 10
6 0 7 -4 4 -10z m-1519 -16 c-3 -9 -6 -31 -6 -51 0 -23 -4 -33 -12 -30 -12 4
-13 71 -1 90 8 14 25 7 19 -9z m1344 -15 c0 -10 -4 -19 -9 -19 -14 0 -33 28
-27 39 10 16 36 1 36 -20z m-1040 11 c0 -5 -4 -10 -10 -10 -5 0 -10 5 -10 10
0 6 5 10 10 10 6 0 10 -4 10 -10z m654 -48 c3 -5 -30 -9 -72 -10 -42 0 -113
-4 -157 -8 -44 -3 -77 -3 -72 2 16 16 291 31 301 16z m379 -35 c-5 -8 -8 -7
-11 1 -5 16 -32 15 -32 -1 0 -9 12 -14 32 -15 18 0 41 -5 53 -11 49 -23 176
-34 270 -22 54 7 85 4 85 -9 0 -4 -21 -6 -47 -4 -27 2 -40 1 -30 -2 9 -3 17
-9 17 -14 0 -9 -30 -24 -42 -22 -15 3 -8 -15 12 -33 16 -14 20 -28 17 -59 -2
-22 -10 -42 -17 -44 -8 -3 -10 0 -5 8 5 9 4 11 -4 6 -16 -10 -91 -15 -91 -6 0
4 -17 2 -37 -5 -32 -11 -39 -11 -41 1 -3 12 -8 11 -33 -1 -38 -20 -173 -19
-165 1 3 8 1 14 -4 14 -6 0 -10 -5 -10 -11 0 -5 -5 -7 -11 -3 -7 4 -2 13 15
23 14 8 25 22 23 31 -1 11 9 16 35 18 27 2 39 9 44 24 10 32 -40 55 -52 23 -4
-8 -16 -15 -28 -15 -11 0 -34 -7 -50 -15 -33 -18 -46 -19 -46 -4 0 5 6 7 13 3
8 -5 8 -2 -2 9 -7 9 -21 17 -30 17 -9 0 -23 5 -31 10 -16 10 83 6 133 -6 40
-9 36 21 -5 35 l-31 11 20 23 c11 12 28 37 39 54 17 30 19 31 36 16 10 -8 15
-20 11 -26z m-1051 18 c0 -5 -5 -11 -11 -13 -6 -2 -11 4 -11 13 0 9 5 15 11
13 6 -2 11 -8 11 -13z m-241 -14 c-8 -5 -20 -7 -28 -4 -21 8 -15 13 15 13 20
0 23 -3 13 -9z m767 -37 c-6 -13 -16 -21 -21 -17 -6 4 -8 0 -4 -10 4 -11 1
-17 -8 -17 -8 0 -15 2 -15 4 0 8 29 72 36 79 14 13 22 -16 12 -39z m-873 26
c3 -5 1 -10 -4 -10 -6 0 -11 5 -11 10 0 6 2 10 4 10 3 0 8 -4 11 -10z m1098
-35 c5 -7 9 -7 15 0 4 7 25 8 60 2 l53 -9 -25 -19 c-36 -28 -106 -24 -106 7 0
8 -12 20 -26 26 -22 10 -28 10 -38 -4 -13 -18 -56 -7 -56 15 0 10 10 13 36 10
25 -2 33 0 29 8 -9 13 46 -21 58 -36z m687 24 c0 -11 -25 -11 -60 -2 l-25 7
25 6 c29 7 60 2 60 -11z m-1380 -14 c0 -8 -9 -15 -20 -15 -20 0 -26 11 -13 23
12 13 33 7 33 -8z m-294 -30 c-14 -14 -77 -45 -91 -45 -3 0 -5 5 -5 10 0 6 9
10 19 10 10 0 29 9 42 20 29 24 58 28 35 5z m624 6 c0 -5 -7 -12 -16 -15 -14
-5 -15 -4 -4 9 14 17 20 19 20 6z m-760 -52 c0 -18 -2 -19 -15 -9 -15 12 -12
30 6 30 5 0 9 -10 9 -21z m705 11 c-3 -5 -11 -10 -16 -10 -6 0 -7 5 -4 10 3 6
11 10 16 10 6 0 7 -4 4 -10z m225 0 c18 -12 2 -12 -25 0 -13 6 -15 9 -5 9 8 0
22 -4 30 -9z m224 -23 c3 3 6 -1 6 -10 0 -19 11 -22 26 -8 5 6 21 -3 42 -25
18 -18 27 -34 20 -34 -7 0 -1 -8 15 -18 38 -23 34 -36 -10 -28 -21 3 -64 6
-95 6 -34 0 -58 4 -58 11 0 5 12 9 28 8 50 -4 78 0 63 10 -7 5 -11 14 -7 20 5
7 1 9 -9 5 -11 -5 -14 -2 -8 12 4 12 3 15 -5 10 -7 -4 -29 -2 -49 3 -45 13
-70 -3 -30 -18 15 -6 27 -12 27 -13 0 -2 -18 -3 -39 -4 -32 0 -38 2 -33 15 3
9 12 21 20 27 10 7 11 13 4 18 -6 3 -13 2 -17 -4 -4 -6 -13 -5 -26 3 -17 11
-13 13 38 17 32 3 65 2 74 -2 9 -4 19 -4 23 -1z m-1631 -4 c-7 -2 -19 -2 -25
0 -7 3 -2 5 12 5 14 0 19 -2 13 -5z m100 0 c-13 -2 -33 -2 -45 0 -13 2 -3 4
22 4 25 0 35 -2 23 -4z m1037 -8 c0 -8 -4 -15 -10 -15 -5 0 -10 7 -10 15 0 8
5 15 10 15 6 0 10 -7 10 -15z m-1255 -5 c-3 -5 -11 -10 -16 -10 -6 0 -7 5 -4
10 3 6 11 10 16 10 6 0 7 -4 4 -10z m1567 0 c-4 -3 -14 -14 -22 -24 -14 -18
-13 -19 5 -13 19 7 19 6 3 -7 -22 -16 -23 -26 -2 -26 8 0 13 -4 9 -10 -3 -5
-12 -7 -20 -3 -10 3 -15 -1 -15 -13 0 -38 -21 4 -23 44 -1 23 -5 42 -10 42 -4
0 -6 4 -2 9 3 6 23 9 45 8 22 -1 36 -4 32 -7z m36 -12 c-2 -6 -10 -14 -16 -16
-7 -2 -10 2 -6 12 7 18 28 22 22 4z m-218 -18 c13 -8 13 -10 -2 -10 -9 0 -20
5 -23 10 -8 13 5 13 25 0z m42 -22 c-7 -7 -12 -8 -12 -2 0 6 3 14 7 17 3 4 9
5 12 2 2 -3 -1 -11 -7 -17z m325 -14 c-3 -3 -12 -4 -19 -1 -8 3 -5 6 6 6 11 1
17 -2 13 -5z m-291 -13 c-4 -5 -1 -12 4 -14 6 -3 5 -4 -2 -3 -15 3 -23 26 -8
26 6 0 9 -4 6 -9z m174 -1 c0 -5 -5 -10 -11 -10 -5 0 -7 5 -4 10 3 6 8 10 11
10 2 0 4 -4 4 -10z m47 -16 c-3 -3 -12 -4 -19 -1 -8 3 -5 6 6 6 11 1 17 -2 13
-5z"/>
<path d="M2205 2530 c4 -6 22 -9 43 -5 53 8 52 15 -2 15 -30 0 -45 -4 -41 -10z"/>
<path d="M2270 2500 c0 -5 7 -7 15 -4 8 4 15 8 15 10 0 2 -7 4 -15 4 -8 0 -15
-4 -15 -10z"/>
<path d="M2267 2456 c-4 -10 -1 -13 9 -9 15 6 19 23 5 23 -5 0 -11 -7 -14 -14z"/>
<path d="M2281 2431 c-8 -6 -9 -11 -3 -15 6 -3 14 -1 17 5 9 14 2 20 -14 10z"/>
<path d="M2338 2423 c18 -2 45 -2 60 0 15 2 0 4 -33 4 -33 0 -45 -2 -27 -4z"/>
<path d="M1500 2365 c0 -2 7 -8 15 -15 12 -10 15 -10 15 2 0 8 -7 15 -15 15
-8 0 -15 -1 -15 -2z"/>
<path d="M2418 2338 c17 -17 15 -31 -3 -24 -18 7 -20 -15 -3 -32 18 -18 27
-14 20 10 -3 14 -2 19 6 14 7 -4 12 -4 12 1 -1 12 -26 43 -36 43 -4 0 -3 -5 4
-12z"/>
<path d="M2210 1790 c0 -5 5 -10 10 -10 6 0 10 5 10 10 0 6 -4 10 -10 10 -5 0
-10 -4 -10 -10z"/>
<path d="M2188 1453 c7 -3 16 -2 19 1 4 3 -2 6 -13 5 -11 0 -14 -3 -6 -6z"/>
<path d="M2160 1359 c0 -5 5 -7 10 -4 6 3 10 8 10 11 0 2 -4 4 -10 4 -5 0 -10
-5 -10 -11z"/>
<path d="M1885 1400 c-3 -5 -1 -10 4 -10 6 0 11 5 11 10 0 6 -2 10 -4 10 -3 0
-8 -4 -11 -10z"/>
<path d="M6200 2770 c0 -5 10 -10 23 -10 18 0 19 2 7 10 -19 13 -30 13 -30 0z"/>
<path d="M2625 2599 c-7 -43 -3 -55 14 -44 13 8 15 85 2 85 -5 0 -12 -18 -16
-41z"/>
<path d="M6135 2550 c3 -5 8 -10 11 -10 2 0 4 5 4 10 0 6 -5 10 -11 10 -5 0
-7 -4 -4 -10z"/>
<path d="M6173 2532 c-20 -10 -31 -23 -28 -32 2 -8 7 -36 11 -62 l6 -48 72 1
c81 1 100 7 102 32 2 14 -3 16 -20 11 -21 -7 -21 -6 -2 14 10 12 23 19 27 16
5 -3 9 0 9 5 0 6 -4 11 -9 11 -5 0 -12 11 -15 24 -5 19 -14 24 -48 29 -24 2
-50 7 -58 10 -8 3 -29 -2 -47 -11z"/>
<path d="M2814 2415 c22 -17 36 -19 36 -6 0 10 -24 21 -43 21 -7 0 -3 -7 7
-15z"/>
<path d="M2634 2383 c2 -10 8 -58 12 -106 4 -58 10 -87 18 -84 6 2 12 23 14
46 2 24 0 41 -5 38 -4 -3 -9 6 -9 19 -1 13 -5 36 -8 50 -6 24 -5 25 24 19 38
-8 39 0 0 20 -38 20 -53 19 -46 -2z"/>
<path d="M2705 2340 c3 -5 11 -10 16 -10 6 0 7 5 4 10 -3 6 -11 10 -16 10 -6
0 -7 -4 -4 -10z"/>
<path d="M2853 2267 c-1 -39 0 -40 7 -12 8 30 11 28 15 -13 3 -25 12 -38 21
-29 8 8 -12 64 -29 81 -12 12 -14 8 -14 -27z"/>
<path d="M5761 2305 c1 -19 18 -51 18 -35 0 8 -4 22 -9 30 -5 8 -9 11 -9 5z"/>
<path d="M2816 2150 c3 -74 8 -146 11 -160 3 -14 4 -35 4 -47 0 -12 4 -25 11
-29 8 -5 10 8 5 50 -4 37 -2 54 4 50 7 -4 8 7 4 32 -4 22 -6 60 -6 86 1 25 -3
49 -9 53 -5 3 -10 18 -11 33 0 15 -4 36 -9 47 -6 12 -7 -32 -4 -115z"/>
<path d="M2945 2218 c14 -24 33 -59 42 -78 9 -19 18 -29 20 -23 5 13 -60 128
-78 139 -5 3 2 -14 16 -38z"/>
<path d="M2660 2115 c0 -18 5 -37 10 -40 6 -3 10 1 10 11 0 9 7 22 16 28 14
11 13 13 -10 24 -25 11 -26 11 -26 -23z"/>
<path d="M2915 2133 c-44 -10 -51 -15 -30 -23 12 -4 31 -2 46 6 15 7 30 10 34
6 5 -4 5 -1 1 6 -7 12 -15 13 -51 5z"/>
<path d="M551 2114 c0 -11 3 -14 6 -6 3 7 2 16 -1 19 -3 4 -6 -2 -5 -13z"/>
<path d="M3020 2105 c0 -8 7 -15 15 -15 8 0 15 7 15 15 0 8 -7 15 -15 15 -8 0
-15 -7 -15 -15z"/>
<path d="M6297 2064 c-8 -8 18 -74 29 -74 6 0 17 7 24 15 7 8 21 15 31 15 24
0 32 15 15 29 -14 12 -90 23 -99 15z"/>
<path d="M6010 2039 c-13 -6 -27 -15 -31 -21 -11 -17 1 -45 24 -56 21 -10 21
-11 -10 -22 -32 -12 -37 -19 -34 -52 1 -9 -3 -19 -8 -23 -14 -8 9 -45 28 -45
9 0 12 9 9 31 -5 32 19 59 54 59 10 0 18 5 18 10 0 7 6 7 19 0 23 -12 54 -3
48 14 -4 13 -35 15 -58 4 -39 -18 -42 40 -4 78 8 9 15 20 15 25 0 12 -38 11
-70 -2z"/>
<path d="M2683 2023 c-15 -6 -18 -53 -3 -53 6 0 10 7 10 15 0 8 15 21 33 29
l32 14 -30 0 c-16 0 -36 -2 -42 -5z"/>
<path d="M3050 2005 c0 -9 5 -15 11 -13 6 2 11 8 11 13 0 5 -5 11 -11 13 -6 2
-11 -4 -11 -13z"/>
<path d="M5891 2004 c0 -11 3 -14 6 -6 3 7 2 16 -1 19 -3 4 -6 -2 -5 -13z"/>
<path d="M6360 2000 c0 -5 5 -10 11 -10 5 0 7 5 4 10 -3 6 -8 10 -11 10 -2 0
-4 -4 -4 -10z"/>
<path d="M6245 1975 c3 -8 8 -23 11 -32 4 -10 6 -28 5 -40 -3 -28 16 -39 24
-13 3 11 12 20 18 20 7 0 18 10 26 21 12 21 12 22 -17 16 -24 -5 -31 -2 -42
19 -15 26 -32 33 -25 9z"/>
<path d="M5896 1965 c4 -8 8 -15 10 -15 2 0 4 7 4 15 0 8 -4 15 -10 15 -5 0
-7 -7 -4 -15z"/>
<path d="M6356 1962 c-2 -4 4 -8 15 -8 10 0 19 4 19 8 0 4 -6 8 -14 8 -8 0
-17 -4 -20 -8z"/>
<path d="M560 1951 c0 -6 4 -13 10 -16 6 -3 7 1 4 9 -7 18 -14 21 -14 7z"/>
<path d="M6431 1936 c7 -15 15 -23 17 -16 3 7 -3 19 -13 28 -15 16 -16 15 -4
-12z"/>
<path d="M2680 1940 c0 -13 20 -13 40 0 12 8 9 10 -12 10 -16 0 -28 -4 -28
-10z"/>
<path d="M2866 1924 c-4 -9 1 -14 14 -14 23 0 27 15 6 23 -8 3 -17 -1 -20 -9z"/>
<path d="M5896 1921 c-3 -5 3 -11 15 -14 16 -4 18 -3 8 9 -13 16 -16 17 -23 5z"/>
<path d="M572 1870 c0 -19 2 -27 5 -17 2 9 2 25 0 35 -3 9 -5 1 -5 -18z"/>
<path d="M6325 1880 c-3 -5 1 -10 10 -10 9 0 13 5 10 10 -3 6 -8 10 -10 10 -2
0 -7 -4 -10 -10z"/>
<path d="M6385 1860 c-3 -5 -2 -10 4 -10 5 0 13 5 16 10 3 6 2 10 -4 10 -5 0
-13 -4 -16 -10z"/>
<path d="M6277 1807 c3 -29 7 -54 9 -56 5 -6 193 -5 200 2 3 3 8 28 11 54 l4
48 -15 -32 c-19 -41 -28 -41 -42 -4 -11 28 -13 28 -60 21 -27 -5 -57 -11 -66
-15 -12 -5 -18 -2 -18 8 0 8 -7 17 -14 20 -12 5 -14 -3 -9 -46z m80 -15 c-14
-3 -15 -7 -7 -17 9 -11 7 -12 -9 -8 -12 3 -18 9 -15 14 3 5 -2 6 -10 3 -10 -4
-16 -1 -16 8 0 10 10 13 38 9 20 -3 29 -7 19 -9z"/>
<path d="M6000 1830 c-1 -3 -3 -20 -5 -39 -2 -29 -1 -31 11 -19 11 11 12 21 5
39 -5 13 -11 22 -11 19z"/>
<path d="M582 1775 c0 -16 2 -22 5 -12 2 9 2 23 0 30 -3 6 -5 -1 -5 -18z"/>
<path d="M5895 1779 c-4 -6 -13 -8 -21 -5 -7 3 -16 1 -20 -5 -4 -7 6 -9 27 -7
18 2 34 9 37 16 5 15 -14 16 -23 1z"/>
<path d="M5960 1774 c0 -8 5 -12 10 -9 6 4 8 11 5 16 -9 14 -15 11 -15 -7z"/>
<path d="M6026 1769 c-19 -19 -19 -19 7 -19 28 0 32 6 19 26 -5 8 -13 5 -26
-7z"/>
<path d="M5840 1720 c0 -5 12 -10 26 -10 14 0 23 4 19 10 -3 6 -15 10 -26 10
-10 0 -19 -4 -19 -10z"/>
<path d="M6305 1710 c3 -5 10 -10 16 -10 5 0 9 5 9 10 0 6 -7 10 -16 10 -8 0
-12 -4 -9 -10z"/>
<path d="M6393 1703 c9 -2 23 -2 30 0 6 3 -1 5 -18 5 -16 0 -22 -2 -12 -5z"/>
<path d="M5845 1510 c-17 -7 -14 -9 13 -9 20 -1 31 3 27 9 -7 12 -13 12 -40 0z"/>
<path d="M5857 1464 c-12 -13 21 -32 66 -39 34 -5 47 -4 47 5 0 8 9 10 28 6
15 -3 21 -3 15 0 -7 3 -13 12 -13 20 0 11 -16 14 -68 14 -38 0 -71 -3 -75 -6z"/>
<path d="M6108 1443 c6 -2 18 -2 25 0 6 3 1 5 -13 5 -14 0 -19 -2 -12 -5z"/>
<path d="M611 1394 c0 -11 3 -14 6 -6 3 7 2 16 -1 19 -3 4 -6 -2 -5 -13z"/>
<path d="M627 1229 c4 -13 8 -18 11 -10 2 7 -1 18 -6 23 -8 8 -9 4 -5 -13z"/>
<path d="M6920 1188 l-25 -11 23 -5 c30 -5 55 5 47 18 -8 12 -13 12 -45 -2z"/>
<path d="M6208 1133 c7 -3 16 -2 19 1 4 3 -2 6 -13 5 -11 0 -14 -3 -6 -6z"/>
<path d="M6128 1123 c12 -2 30 -2 40 0 9 3 -1 5 -23 4 -22 0 -30 -2 -17 -4z"/>
<path d="M7240 1111 c0 -21 44 -101 56 -101 19 0 45 73 31 87 -17 16 -87 28
-87 14z"/>
<path d="M3160 899 c-74 -4 -162 -15 -195 -23 -56 -15 -57 -15 -15 -11 25 2
110 9 190 15 80 6 188 15 240 19 l95 8 -90 0 c-49 0 -151 -4 -225 -8z"/>
<path d="M3558 873 c7 -3 16 -2 19 1 4 3 -2 6 -13 5 -11 0 -14 -3 -6 -6z"/>
<path d="M2863 863 c9 -2 23 -2 30 0 6 3 -1 5 -18 5 -16 0 -22 -2 -12 -5z"/>
<path d="M3428 863 c12 -2 32 -2 45 0 12 2 2 4 -23 4 -25 0 -35 -2 -22 -4z"/>
<path d="M3565 855 c-122 -14 -89 -19 54 -8 55 3 87 9 79 14 -7 5 -15 8 -18 7
-3 0 -54 -6 -115 -13z"/>
<path d="M2678 853 c7 -3 16 -2 19 1 4 3 -2 6 -13 5 -11 0 -14 -3 -6 -6z"/>
<path d="M3277 853 c18 -2 50 -2 70 0 21 2 7 4 -32 4 -38 0 -55 -2 -38 -4z"/>
<path d="M3398 833 c7 -3 16 -2 19 1 4 3 -2 6 -13 5 -11 0 -14 -3 -6 -6z"/>
<path d="M2083 823 c9 -2 25 -2 35 0 9 3 1 5 -18 5 -19 0 -27 -2 -17 -5z"/>
<path d="M7281 768 c-44 -60 -40 -84 11 -57 22 12 52 74 43 89 -11 18 -23 11
-54 -32z"/>
<path d="M1047 783 c18 -2 50 -2 70 0 21 2 7 4 -32 4 -38 0 -55 -2 -38 -4z"/>
<path d="M575 765 c-126 -7 -308 -16 -402 -20 -95 -4 -173 -11 -173 -15 0 -4
35 -6 77 -4 487 24 866 45 878 49 20 7 -154 2 -380 -10z"/>
<path d="M955 762 c-38 -2 -74 -8 -80 -14 -7 -8 -3 -9 15 -4 14 3 58 6 99 6
41 0 71 3 67 7 -8 8 -14 9 -101 5z"/>
<path d="M1178 763 c7 -3 16 -2 19 1 4 3 -2 6 -13 5 -11 0 -14 -3 -6 -6z"/>
<path d="M630 739 c-31 -4 4 -5 80 -2 74 3 137 7 139 9 7 6 -159 1 -219 -7z"/>
<path d="M1258 743 c12 -2 30 -2 40 0 9 3 -1 5 -23 4 -22 0 -30 -2 -17 -4z"/>
<path d="M1048 733 c23 -2 59 -2 80 0 20 2 1 4 -43 4 -44 0 -61 -2 -37 -4z"/>
<path d="M418 723 c12 -2 32 -2 45 0 12 2 2 4 -23 4 -25 0 -35 -2 -22 -4z"/>
<path d="M785 720 l-50 -7 52 -1 c28 -1 55 3 58 8 3 6 3 9 -2 8 -4 0 -30 -4
-58 -8z"/>
<path d="M898 723 c18 -2 45 -2 60 0 15 2 0 4 -33 4 -33 0 -45 -2 -27 -4z"/>
<path d="M208 713 c7 -3 16 -2 19 1 4 3 -2 6 -13 5 -11 0 -14 -3 -6 -6z"/>
<path d="M253 713 c9 -2 25 -2 35 0 9 3 1 5 -18 5 -19 0 -27 -2 -17 -5z"/>
<path d="M338 693 c6 -2 18 -2 25 0 6 3 1 5 -13 5 -14 0 -19 -2 -12 -5z"/>
<path d="M18 673 c12 -2 30 -2 40 0 9 3 -1 5 -23 4 -22 0 -30 -2 -17 -4z"/>
<path d="M6830 296 c0 -20 5 -36 10 -36 6 0 10 13 10 29 0 17 -4 33 -10 36 -6
4 -10 -8 -10 -29z"/>
<path d="M8088 243 c6 -2 18 -2 25 0 6 3 1 5 -13 5 -14 0 -19 -2 -12 -5z"/>
<path d="M5396 77 c3 -10 9 -15 12 -12 3 3 0 11 -7 18 -10 9 -11 8 -5 -6z"/>
</g>
</svg>
