<?xml version="1.0" standalone="no"?>
<!DOCTYPE svg PUBLIC "-//W3C//DTD SVG 20010904//EN"
 "http://www.w3.org/TR/2001/REC-SVG-20010904/DTD/svg10.dtd">
<svg version="1.0" xmlns="http://www.w3.org/2000/svg"
 width="300.000000pt" height="225.000000pt" viewBox="0 0 300.000000 225.000000"
 preserveAspectRatio="xMidYMid meet">
<metadata>
Created by potrace 1.10, written by Peter Selinger 2001-2011
</metadata>
<g transform="translate(0.000000,225.000000) scale(0.100000,-0.100000)"
fill="#000000" stroke="none">
<path d="M655 2138 c18 -13 50 -22 123 -33 12 -2 22 1 22 6 0 5 -10 8 -22 7
-20 -1 -74 11 -126 29 -12 4 -12 2 3 -9z"/>
<path d="M665 2041 c17 -4 41 -13 53 -20 13 -7 26 -10 29 -7 8 7 -66 36 -91
35 -15 -1 -13 -3 9 -8z"/>
<path d="M1270 2013 c-263 -8 -596 -64 -805 -135 -74 -25 -165 -71 -225 -111
-103 -70 -239 -225 -227 -259 2 -7 20 12 39 42 47 72 131 158 207 209 120 82
257 131 506 180 247 50 425 64 690 58 361 -9 637 -61 986 -188 160 -58 401
-178 487 -243 39 -30 72 -51 72 -46 0 21 -123 104 -245 165 -71 36 -125 65
-120 65 13 0 153 -39 268 -75 49 -15 91 -25 93 -22 2 2 -40 18 -93 34 -188 59
-252 75 -275 68 -13 -4 -19 -4 -15 1 5 5 -11 14 -35 20 -24 7 -81 26 -128 44
-368 138 -778 205 -1180 193z"/>
<path d="M1267 1981 c-6 -2 -15 -9 -19 -15 -5 -7 -8 -7 -8 2 0 14 -94 12 -237
-4 -48 -6 -52 -8 -42 -26 7 -14 14 -16 23 -9 18 15 95 30 102 20 3 -5 11 -6
17 -2 7 4 20 6 30 5 9 -2 17 2 17 8 0 6 5 8 13 3 15 -10 107 -14 107 -5 0 4
18 8 40 9 24 2 40 -2 40 -8 0 -7 -9 -9 -21 -6 -17 4 -19 3 -10 -6 28 -28 -9
-47 -46 -24 -6 4 -13 2 -15 -3 -5 -15 -39 -19 -62 -8 -13 7 -16 7 -12 -1 4 -6
0 -11 -9 -11 -9 0 -13 -5 -9 -11 4 -8 0 -8 -15 0 -16 9 -27 9 -43 0 -13 -7
-40 -12 -60 -10 -20 1 -46 -2 -57 -9 -15 -8 -26 -7 -39 1 -15 9 -25 9 -48 -2
-16 -8 -49 -14 -74 -12 -24 1 -50 -3 -58 -9 -8 -7 -23 -14 -35 -15 -12 -2 -24
-8 -28 -14 -4 -6 -9 -4 -13 7 -6 15 -9 16 -16 4 -7 -12 -11 -12 -27 0 -15 12
-16 12 -5 0 15 -17 17 -39 1 -23 -7 7 -24 4 -57 -12 -46 -22 -69 -24 -56 -4 3
6 -3 5 -14 -2 -12 -7 -18 -17 -15 -22 3 -5 -4 -4 -15 2 -16 8 -21 7 -26 -4 -3
-8 -12 -12 -21 -9 -30 12 -14 -7 17 -21 25 -10 35 -10 40 -2 6 9 8 9 8 0 0
-14 -12 -23 -41 -28 -14 -3 -19 0 -16 9 3 8 -3 16 -14 19 -14 4 -21 -1 -25
-19 -6 -23 -7 -23 -20 -7 -9 12 -16 14 -21 7 -13 -17 -43 -25 -43 -11 0 8 -4
6 -10 -3 -5 -8 -10 -11 -10 -6 0 5 -6 3 -13 -3 -8 -6 -18 -7 -22 -3 -5 4 -5
-1 -2 -10 4 -12 1 -18 -7 -18 -8 0 -16 9 -19 20 -3 11 -1 20 5 20 5 0 6 5 2
12 -5 7 -1 9 13 6 12 -3 20 0 20 8 0 8 -3 14 -6 14 -11 -1 -56 -29 -47 -30 5
0 2 -8 -5 -17 -11 -14 -11 -15 -1 -9 10 6 13 3 10 -9 -1 -10 -14 -20 -27 -22
-18 -2 -22 0 -17 13 4 10 1 14 -6 11 -7 -2 -14 -12 -14 -23 -1 -10 -2 -23 -3
-28 -1 -6 -6 -5 -13 2 -15 15 -38 -3 -38 -30 0 -10 -4 -17 -9 -13 -13 8 -54
-52 -45 -66 4 -7 3 -9 -3 -6 -6 4 -15 -5 -21 -18 -12 -26 -4 -33 15 -14 8 8
13 8 18 0 3 -6 1 -10 -6 -9 -6 2 -14 -3 -16 -10 -3 -7 1 -11 8 -10 8 2 14 -7
14 -22 0 -14 5 -38 12 -55 6 -16 14 -46 17 -65 3 -19 8 -46 12 -59 6 -19 4
-23 -7 -17 -8 5 -8 2 2 -6 20 -17 44 -60 40 -73 -1 -5 1 -7 4 -3 4 4 27 -22
50 -58 48 -72 245 -274 269 -274 10 0 14 -9 13 -27 -2 -21 2 -28 15 -27 10 1
15 -2 12 -7 -3 -5 4 -9 16 -9 14 0 20 -5 18 -17 -2 -13 5 -17 34 -18 20 -1 35
2 32 7 -3 4 2 5 10 2 9 -3 14 -10 11 -14 -7 -11 22 -20 42 -13 12 5 14 3 8 -7
-5 -9 -4 -11 3 -6 7 4 12 3 12 -2 0 -5 8 -12 18 -15 9 -3 69 -24 132 -47 152
-55 372 -110 437 -110 28 0 55 -4 58 -10 3 -5 16 -10 28 -9 46 0 152 -13 162
-21 15 -11 449 -4 605 11 74 6 149 12 167 13 17 1 29 4 26 9 -2 4 10 7 27 7
18 0 33 6 36 15 4 8 13 15 21 15 8 0 12 4 9 9 -5 7 38 21 65 21 19 0 8 -21
-16 -30 -14 -5 -25 -12 -25 -15 0 -4 5 -3 10 0 6 3 10 0 10 -7 1 -8 7 -5 16 7
12 17 16 18 24 5 7 -12 16 -12 63 3 60 19 91 22 82 8 -11 -18 139 36 268 96
69 32 77 39 77 64 l0 28 -57 -28 c-128 -63 -353 -141 -406 -141 -13 0 -27 6
-30 14 -6 16 -52 27 -64 15 -11 -11 -157 -49 -208 -54 -22 -2 -70 -5 -107 -7
-40 -1 -69 -7 -72 -14 -2 -6 -14 -14 -26 -17 -12 -3 -19 -3 -16 0 8 9 -34 53
-50 53 -7 0 -16 -5 -20 -12 -5 -8 0 -9 16 -5 22 6 21 4 -6 -24 -15 -16 -33
-29 -38 -29 -6 0 -3 7 6 14 16 12 16 14 -5 34 -12 11 -35 24 -52 27 -29 7 -29
7 -10 -8 11 -9 25 -17 31 -17 6 0 11 -7 11 -14 0 -10 -5 -12 -16 -7 -9 5 -22
6 -29 4 -7 -3 -33 2 -59 11 -54 19 -56 19 -49 7 4 -5 1 -11 -6 -13 -9 -3 -9
-6 0 -12 7 -4 12 -2 12 3 0 6 7 11 16 11 11 0 14 -5 10 -16 -6 -15 0 -16 39
-11 30 5 45 3 45 -5 0 -18 -253 -3 -284 17 -16 11 -26 13 -31 6 -9 -16 -62
-13 -88 3 -21 13 -61 16 -72 4 -3 -3 -22 -1 -43 3 -20 4 -84 18 -142 30 -140
28 -262 67 -254 80 7 12 52 6 124 -16 129 -39 166 -49 178 -48 6 0 12 -4 12
-9 0 -6 13 -8 31 -4 18 3 38 1 45 -5 8 -6 22 -8 31 -4 17 6 17 7 -1 21 -11 8
-28 14 -38 14 -10 0 -18 6 -18 14 0 18 -27 27 -62 21 -14 -3 -73 4 -130 16
-139 28 -178 32 -178 19 0 -17 -18 -11 -43 14 -14 14 -42 29 -63 35 -34 9
-185 69 -319 126 -61 26 -276 260 -308 335 -6 14 -20 32 -31 42 -11 9 -25 40
-32 70 -6 29 -20 91 -29 136 l-18 84 26 21 c14 12 32 36 41 53 11 22 29 36 63
49 26 10 57 24 68 32 11 7 33 13 50 13 64 0 175 41 175 65 0 16 35 30 50 20 6
-3 13 1 16 9 8 21 27 9 20 -13 -5 -14 -4 -13 8 2 7 9 21 17 31 17 11 0 15 5
12 14 -3 8 2 16 13 19 14 3 17 0 13 -12 -4 -14 -3 -14 7 1 6 10 17 15 27 11
13 -5 15 -2 10 12 -6 15 -5 16 7 6 8 -7 20 -10 25 -7 5 4 12 2 16 -4 3 -5 12
-10 18 -10 7 0 6 4 -3 10 -13 8 -13 10 2 10 9 0 24 3 34 7 13 5 15 3 9 -7 -6
-10 -4 -12 11 -6 50 21 87 27 186 31 59 2 117 9 130 16 13 7 34 13 48 15 74 7
126 19 136 32 9 12 15 10 37 -12 29 -29 52 -33 61 -11 3 8 17 20 32 25 36 14
25 34 -24 41 -44 6 -50 1 -30 -19 9 -9 7 -12 -10 -12 -12 0 -22 5 -22 10 0 6
-5 9 -12 8 -6 -2 -14 5 -16 15 -4 18 17 20 30 2 4 -6 8 -2 8 8 0 9 5 17 10 17
6 0 10 -5 10 -11 0 -6 8 -8 19 -4 24 7 73 -4 65 -16 -3 -5 -2 -9 3 -10 103
-10 108 -12 108 -48 0 -18 5 -31 12 -31 7 0 13 7 13 16 0 12 6 15 23 10 12 -3
26 -6 30 -6 5 0 5 -4 2 -10 -4 -6 8 -10 29 -10 25 0 36 5 36 14 0 8 5 18 11
21 6 4 9 1 7 -6 -3 -14 3 -19 23 -19 7 0 9 10 4 27 -6 24 -5 25 10 13 9 -8 14
-22 11 -32 -3 -12 2 -21 12 -24 9 -3 25 -10 35 -15 10 -6 27 -7 37 -4 18 6 18
7 -3 28 -12 12 -29 22 -37 22 -20 0 -40 14 -40 26 0 6 5 7 10 4 6 -3 10 1 10
10 0 12 6 14 28 9 15 -4 30 -12 34 -18 5 -7 8 -3 9 9 0 11 3 14 6 8 2 -7 11
-13 18 -13 7 0 15 -6 18 -12 4 -10 7 -10 18 0 18 16 29 15 29 -3 0 -8 4 -15 9
-15 14 0 24 -41 13 -52 -6 -6 -14 -4 -24 5 -7 8 -23 17 -35 21 -12 4 -24 13
-27 21 -6 17 -26 20 -26 4 0 -5 4 -7 10 -4 6 3 7 -1 4 -9 -4 -10 -1 -16 10
-16 9 0 13 -6 10 -14 -7 -19 35 -43 46 -26 6 9 9 9 11 1 3 -7 24 -14 49 -17
25 -3 50 -10 57 -16 7 -6 22 -8 33 -5 11 3 18 1 14 -4 -3 -5 2 -9 10 -9 8 0
18 5 21 10 11 17 39 11 64 -15 13 -14 34 -25 48 -25 13 0 32 -8 41 -17 16 -16
16 -16 0 -10 -10 3 -18 2 -18 -3 0 -6 3 -11 8 -11 4 -1 22 -3 41 -5 19 -2 40
-9 47 -15 7 -6 22 -8 32 -5 13 5 22 1 26 -10 5 -13 9 -15 18 -6 27 27 113 -2
133 -45 9 -22 44 -43 69 -43 7 0 35 -21 62 -47 37 -35 56 -46 77 -44 31 3 37
-18 7 -26 -37 -10 -13 -43 30 -43 15 0 48 -11 73 -24 l47 -23 0 22 c0 18 -10
27 -48 40 -38 14 -51 25 -66 56 -14 28 -26 39 -42 39 -12 0 -38 16 -58 36 -21
21 -40 33 -47 28 -8 -5 -10 -2 -6 9 4 11 1 15 -12 12 -9 -2 -32 10 -50 26 -19
16 -30 29 -25 29 5 1 -2 7 -16 16 -21 12 -22 14 -5 12 11 -2 26 -10 33 -18 8
-8 11 -9 7 -3 -4 9 -1 11 9 7 9 -3 14 -10 11 -14 -2 -4 6 -7 18 -7 38 -1 47
-3 46 -10 -4 -27 2 -33 22 -23 11 7 23 9 27 6 3 -3 2 -6 -2 -6 -14 0 20 -27
42 -34 12 -4 22 -12 22 -18 0 -5 6 -8 13 -5 6 2 20 -5 30 -16 10 -13 17 -15
17 -7 0 7 9 3 20 -10 11 -13 23 -21 26 -17 9 9 -59 66 -79 67 -10 0 -16 4 -13
9 7 11 -22 23 -36 14 -7 -3 -8 -1 -4 5 12 21 -401 211 -425 196 -22 -13 -5
-26 49 -39 8 -2 28 -10 46 -19 18 -9 44 -19 56 -24 20 -7 21 -10 7 -15 -10 -4
-17 -2 -17 5 0 7 -5 6 -15 -2 -12 -10 -15 -10 -15 0 0 10 -4 10 -16 -1 -10 -8
-18 -9 -22 -2 -10 15 -62 23 -62 9 0 -6 -4 -5 -9 2 -4 8 -11 13 -15 13 -19 -3
-27 0 -21 8 3 5 0 13 -6 17 -6 3 -14 2 -18 -4 -9 -15 -71 16 -65 33 5 11 -13
21 -60 31 -10 2 -24 -3 -31 -12 -9 -13 -14 -14 -19 -5 -4 6 -16 9 -26 6 -15
-5 -18 -1 -15 21 l3 27 -19 -24 c-10 -13 -19 -18 -19 -11 0 7 -3 11 -8 8 -13
-8 -39 18 -44 45 -3 19 0 25 14 26 10 1 18 -2 18 -8 0 -5 9 -9 20 -9 11 0 20
-6 20 -12 0 -10 3 -9 9 1 9 15 51 7 51 -10 0 -6 4 -8 9 -4 5 3 16 -1 23 -9 8
-8 28 -12 46 -10 21 2 31 0 29 -9 -1 -6 8 -12 20 -12 12 0 25 -4 29 -8 10 -10
64 -9 64 1 0 20 -387 126 -535 147 -22 3 -67 10 -100 16 -52 9 -160 14 -423
22 -34 1 -68 0 -75 -2z m453 -37 c0 -24 -23 -43 -52 -42 -18 1 -27 3 -20 5 6
3 12 11 12 19 0 8 6 11 15 8 8 -4 15 -1 15 5 0 6 7 11 15 11 8 0 15 -3 15 -6z
m52 -12 c-7 -2 -17 -15 -22 -28 -12 -31 -27 -31 -27 1 0 15 4 22 10 18 6 -4 8
0 5 9 -5 12 0 14 20 10 15 -3 21 -7 14 -10z m-1150 -1176 c4 -6 8 -7 8 -2 0 5
6 3 13 -3 8 -6 22 -12 33 -14 10 -2 37 -11 58 -21 22 -9 51 -19 65 -23 34 -7
101 -44 101 -55 0 -11 -8 -10 -38 6 -15 7 -52 21 -82 31 -87 28 -206 86 -219
107 -11 18 -11 18 21 2 18 -9 36 -22 40 -28z"/>
<path d="M825 1937 c-27 -5 -90 -21 -140 -34 -49 -13 -96 -25 -102 -25 -15 -2
-16 -8 -3 -28 6 -10 10 -11 10 -3 0 19 48 27 67 12 14 -12 16 -12 8 0 -6 11
-4 13 8 8 10 -4 16 -2 14 6 -1 7 5 13 13 13 8 1 17 3 20 4 10 3 45 11 72 15
46 7 53 10 60 20 5 6 8 5 8 -4 0 -10 4 -11 13 -3 20 16 67 2 79 -24 6 -13 15
-24 20 -24 5 0 -1 18 -12 40 -23 44 -36 47 -135 27z"/>
<path d="M1540 1890 c0 -5 9 -14 21 -20 26 -15 22 -26 -21 -53 -19 -12 -31
-16 -26 -9 12 19 -3 35 -21 21 -12 -10 -16 -10 -23 1 -12 20 -40 4 -40 -24 0
-14 -4 -28 -10 -31 -5 -3 -10 -12 -10 -18 0 -8 3 -7 9 2 11 18 100 32 124 20
11 -6 17 -6 17 1 0 5 -5 10 -11 10 -7 0 0 9 14 21 33 25 32 63 0 78 -14 6 -23
7 -23 1z"/>
<path d="M525 1863 c-11 -3 -27 -11 -35 -18 -8 -7 -23 -11 -33 -10 -10 2 -21
-3 -23 -10 -3 -8 -12 -11 -20 -8 -8 3 -22 -1 -32 -9 -9 -9 -24 -17 -32 -20 -9
-3 -5 -7 12 -10 19 -4 25 -1 21 9 -5 12 7 17 35 14 7 -1 15 5 18 13 3 9 10 13
16 10 5 -3 4 -13 -4 -22 -7 -10 1 -6 17 8 17 14 31 28 33 32 2 4 9 5 15 2 7
-2 21 2 32 10 20 16 16 18 -20 9z"/>
<path d="M1667 1820 c3 -10 12 -25 21 -34 15 -13 20 -13 42 0 14 9 17 13 7 10
-19 -6 -62 16 -52 26 3 3 -1 8 -8 11 -11 4 -13 0 -10 -13z"/>
<path d="M1604 1775 c0 -46 -6 -71 -27 -110 -31 -58 -32 -62 -12 -62 8 0 15 4
15 10 0 5 9 20 20 34 11 14 17 29 14 34 -3 5 -2 15 3 21 4 7 7 22 8 33 0 26
43 27 69 2 10 -10 24 -16 31 -13 8 3 16 0 19 -7 3 -9 5 -9 5 0 1 9 8 10 28 2
27 -10 27 -10 8 11 -11 12 -25 18 -35 15 -25 -8 -70 12 -70 31 0 12 -6 14 -28
9 -24 -5 -29 -2 -38 22 -9 24 -10 20 -10 -32z"/>
<path d="M1759 1778 c-9 -18 -7 -19 24 -13 38 7 46 1 58 -49 7 -30 7 -30 8 9
1 51 -6 61 -47 67 -25 4 -35 0 -43 -14z"/>
<path d="M1205 1780 c-18 -8 -17 -9 8 -9 34 -1 71 -30 40 -32 -11 0 -13 -3 -5
-6 7 -3 19 0 26 6 7 6 16 8 19 4 12 -12 7 -23 -10 -23 -15 0 -14 -2 3 -15 24
-18 35 -19 28 -1 -4 11 0 13 18 10 21 -5 22 -4 6 9 -27 22 -21 32 7 13 31 -20
41 -21 25 -1 -9 10 -9 15 -1 15 6 0 11 5 11 11 0 7 -14 8 -40 4 -30 -5 -44 -3
-56 9 -17 17 -47 20 -79 6z"/>
<path d="M1877 1775 c-5 -11 -1 -12 18 -5 20 8 29 5 49 -15 13 -13 21 -27 17
-31 -3 -4 2 -4 11 -1 20 7 35 -9 16 -16 -8 -4 -7 -6 4 -6 9 -1 24 -8 32 -17
15 -14 16 -14 16 4 0 20 -29 52 -48 52 -6 0 -19 11 -30 25 -22 28 -76 35 -85
10z"/>
<path d="M680 1739 c0 -8 26 -19 46 -19 8 0 14 6 14 13 0 7 -13 12 -30 12 -16
0 -30 -3 -30 -6z"/>
<path d="M1112 1723 c-22 -24 -24 -25 -36 -7 -13 17 -15 17 -41 -2 -51 -35
-69 -43 -80 -34 -14 11 -40 -4 -31 -19 4 -6 1 -11 -7 -11 -8 0 -20 -7 -27 -15
-11 -13 -9 -15 13 -13 18 2 28 10 32 25 3 13 10 23 15 23 14 0 12 -28 -2 -32
-7 -3 -5 -7 6 -11 9 -4 15 -3 12 2 -3 5 1 15 10 22 13 11 14 9 9 -14 -5 -18
-3 -27 5 -27 6 0 8 5 5 11 -4 6 2 13 12 15 11 3 27 18 37 34 14 25 21 28 46
23 23 -4 30 -2 30 10 0 8 10 22 23 30 15 11 17 16 7 16 -8 0 -25 -11 -38 -26z"/>
<path d="M840 1720 c12 -7 12 -14 4 -27 -8 -14 -7 -22 7 -37 17 -18 45 -14 34
5 -4 5 -1 9 4 9 6 0 11 7 11 17 0 14 -2 14 -20 -2 -20 -18 -20 -17 -20 13 0
24 -4 32 -17 32 -15 0 -16 -2 -3 -10z"/>
<path d="M2064 1710 c0 -11 6 -21 13 -21 7 -1 19 -2 26 -3 6 0 16 -11 22 -23
5 -13 13 -23 17 -23 16 0 8 -19 -9 -23 -17 -4 -17 -5 -1 -6 11 -1 23 11 31 32
13 29 12 33 -6 40 -10 4 -32 16 -47 27 -35 25 -46 25 -46 0z"/>
<path d="M2261 1709 c5 -10 14 -19 20 -19 5 0 13 -9 17 -19 6 -16 9 -17 21 -4
11 12 10 15 -8 20 -11 3 -19 8 -17 12 2 3 -6 11 -20 18 -21 10 -23 9 -13 -8z"/>
<path d="M706 1685 c-11 -8 -16 -21 -13 -30 9 -21 24 -19 38 6 14 27 -1 42
-25 24z"/>
<path d="M1508 1681 c-10 -10 -18 -23 -18 -29 0 -13 31 -4 42 12 10 14 10 36
1 35 -5 0 -16 -8 -25 -18z"/>
<path d="M1100 1653 c0 -20 -5 -32 -12 -30 -6 1 -18 -11 -26 -28 -8 -16 -21
-34 -29 -38 -7 -4 -25 -19 -40 -33 -14 -13 -29 -24 -33 -24 -4 0 -10 -9 -13
-20 -3 -11 -12 -20 -20 -20 -8 0 -17 -7 -21 -15 -3 -8 -14 -15 -25 -15 -10 0
-21 -7 -25 -15 -3 -8 -1 -15 5 -15 10 0 -27 -58 -49 -75 -10 -8 -11 -21 -4
-52 7 -32 7 -45 -3 -53 -7 -6 -16 -22 -19 -35 -4 -14 -11 -25 -17 -25 -17 0
-73 32 -85 48 -13 18 -35 7 -27 -14 3 -8 8 -12 11 -10 3 3 10 0 16 -8 15 -18
97 -49 106 -39 4 4 13 26 20 48 7 22 20 51 28 64 14 21 14 24 -1 32 -15 9 -15
12 1 39 13 22 22 28 37 23 16 -5 18 -3 8 9 -10 11 -8 20 6 41 16 25 18 26 39
11 22 -15 22 -15 10 10 -13 29 -4 46 14 28 7 -7 19 -12 27 -12 11 0 10 4 -5
14 -19 14 -18 15 6 36 14 12 24 27 22 32 -1 5 2 7 7 4 5 -4 15 0 23 7 7 7 26
20 41 30 20 13 26 23 22 38 -5 14 -2 19 11 19 10 0 14 3 10 7 -3 4 6 12 21 19
25 11 26 12 6 13 -12 1 -27 9 -32 19 -9 14 -10 11 -11 -15z"/>
<path d="M1776 1664 c-10 -25 -7 -54 5 -54 6 0 9 6 6 13 -2 6 0 22 4 35 5 12
5 22 0 22 -5 0 -12 -7 -15 -16z"/>
<path d="M1840 1665 c-7 -8 -9 -15 -4 -15 5 0 2 -5 -6 -10 -12 -8 -11 -10 8
-10 17 0 22 6 22 25 0 29 -3 31 -20 10z"/>
<path d="M550 1663 c0 -13 31 -32 44 -27 25 10 19 21 -14 26 -16 3 -30 3 -30
1z"/>
<path d="M2343 1663 c-7 -3 -13 -11 -13 -18 0 -8 -8 -19 -17 -24 -16 -9 -16
-12 -3 -21 8 -5 11 -10 6 -10 -5 0 -3 -7 4 -15 7 -8 16 -12 21 -9 5 3 9 2 10
-3 0 -4 3 -19 6 -33 3 -14 6 -54 6 -90 1 -52 -1 -64 -13 -62 -10 1 -8 -3 5
-14 11 -8 19 -20 17 -25 -1 -5 4 -12 11 -15 9 -3 12 -16 9 -37 -3 -18 -1 -29
3 -25 10 9 17 100 7 94 -4 -2 -11 1 -17 8 -13 14 -15 46 -4 46 5 0 9 -4 9 -10
0 -5 5 -10 10 -10 13 0 13 33 -1 47 -6 6 -12 28 -15 50 -4 34 -2 39 17 40 12
1 27 7 32 12 8 8 0 11 -26 11 -23 0 -44 7 -55 18 -21 21 -22 60 -2 72 16 10
10 29 -7 23z"/>
<path d="M510 1647 c0 -2 9 -14 19 -26 12 -14 22 -18 26 -11 7 11 -17 40 -34
40 -6 0 -11 -2 -11 -3z"/>
<path d="M793 1605 c1 -5 -6 -9 -16 -7 -17 3 -17 2 -1 -24 18 -26 18 -26 34
-6 9 10 26 23 38 26 36 12 25 27 -17 24 -22 -2 -39 -7 -38 -13z"/>
<path d="M934 1595 c5 -13 2 -16 -10 -11 -11 4 -18 -1 -21 -14 -3 -11 -12 -20
-19 -20 -8 0 -14 -5 -14 -11 0 -5 -4 -7 -10 -4 -5 3 -7 0 -4 -8 3 -8 -5 -18
-20 -25 -14 -6 -28 -23 -32 -38 -5 -19 -9 -22 -15 -12 -7 10 -10 8 -15 -9 -4
-13 -12 -23 -18 -23 -6 0 -19 -9 -29 -20 -15 -18 -16 -24 -4 -40 8 -11 17 -17
20 -13 4 3 7 2 7 -3 0 -5 -13 -15 -30 -21 -16 -6 -30 -16 -30 -22 0 -8 6 -9
19 -1 14 7 21 6 24 -3 3 -7 6 -4 6 6 1 10 5 16 10 12 6 -3 15 4 21 15 9 17 7
22 -17 31 -21 8 -24 12 -14 19 8 4 20 6 28 3 12 -5 18 8 14 30 -1 4 6 10 14
13 8 4 15 12 15 20 0 8 5 14 11 14 5 0 7 5 4 10 -3 6 -1 10 5 10 6 0 24 14 40
30 16 17 34 30 40 30 5 0 10 6 10 14 0 8 10 16 23 18 27 4 29 31 3 36 -14 3
-17 0 -12 -13z"/>
<path d="M2476 1589 c-11 -10 -17 -21 -15 -24 7 -6 49 24 49 36 0 14 -13 10
-34 -12z"/>
<path d="M1451 1591 c-10 -7 -11 -12 -1 -27 10 -16 11 -16 6 -1 -3 11 0 17 10
17 9 0 12 -5 8 -12 -4 -7 -3 -8 4 -4 16 10 15 36 0 36 -7 0 -19 -4 -27 -9z"/>
<path d="M731 1566 c-7 -8 -20 -12 -30 -9 -10 3 -22 0 -25 -6 -10 -16 -36 -14
-30 2 3 9 -6 13 -30 13 -19 0 -34 -5 -33 -10 1 -6 -6 -10 -15 -10 -10 1 -18
-2 -18 -7 0 -5 12 -9 26 -9 14 0 23 4 19 10 -3 6 -1 10 4 10 6 0 11 -8 11 -17
0 -10 10 -29 21 -43 11 -14 18 -19 14 -12 -4 7 1 12 13 12 12 0 22 9 25 22 4
12 9 19 13 16 3 -4 13 0 22 8 10 11 18 12 25 5 14 -14 37 -14 37 -1 0 6 -10
10 -21 10 -18 0 -19 2 -9 15 7 8 8 15 2 15 -5 0 -15 -6 -21 -14z"/>
<path d="M2137 1560 c-3 -11 0 -20 6 -20 7 0 5 -5 -3 -10 -13 -8 -12 -10 3
-10 12 0 17 8 17 30 0 34 -15 40 -23 10z"/>
<path d="M230 1551 c0 -17 32 -35 44 -24 5 6 -25 43 -36 43 -5 0 -8 -8 -8 -19z"/>
<path d="M2501 1551 c-12 -8 -12 -12 -2 -25 7 -8 19 -12 27 -9 10 4 14 -2 14
-21 0 -14 4 -26 9 -26 13 0 23 32 13 39 -5 3 -14 16 -21 29 -13 24 -19 26 -40
13z"/>
<path d="M185 1537 c-12 -10 -15 -16 -6 -21 8 -5 7 -11 -3 -22 -20 -19 -10
-44 18 -44 17 0 18 2 6 10 -13 9 -13 12 3 24 18 14 22 33 9 53 -7 10 -12 10
-27 0z"/>
<path d="M1490 1522 c0 -7 -9 -21 -20 -32 -25 -25 -13 -26 20 0 20 15 23 21
13 31 -10 10 -13 10 -13 1z"/>
<path d="M552 1473 l-19 -27 -28 22 c-34 27 -41 27 -41 2 0 -14 5 -18 17 -15
9 3 19 -1 22 -9 5 -12 12 -12 40 -4 27 8 35 16 35 34 0 30 -2 30 -26 -3z"/>
<path d="M1210 1438 c-33 -68 -39 -96 -14 -59 16 23 56 121 49 121 -2 0 -18
-28 -35 -62z"/>
<path d="M2440 1486 c0 -9 7 -16 15 -16 8 0 15 -7 15 -16 0 -23 24 -11 28 14
3 17 -1 20 -12 16 -9 -4 -23 -1 -31 6 -12 10 -15 9 -15 -4z"/>
<path d="M399 1478 c-1 -2 -3 -12 -4 -24 -2 -20 -1 -20 27 -7 30 16 29 33 -3
33 -10 0 -20 -1 -20 -2z"/>
<path d="M2605 1461 c-3 -5 -1 -12 5 -16 5 -3 10 -14 10 -25 0 -13 5 -17 20
-13 23 6 25 21 6 46 -15 19 -32 22 -41 8z"/>
<path d="M624 1450 c-12 -5 -24 -15 -27 -24 -6 -15 -4 -15 18 0 14 9 32 14 40
10 8 -3 15 -1 15 3 0 14 -23 19 -46 11z"/>
<path d="M320 1435 c0 -14 49 -14 53 0 1 6 -10 10 -25 10 -16 1 -28 -4 -28
-10z"/>
<path d="M2496 1425 c-3 -8 -12 -15 -21 -15 -8 0 -15 -4 -15 -9 0 -22 59 9 60
32 0 13 -18 7 -24 -8z"/>
<path d="M2563 1424 c-34 -15 -44 -34 -18 -34 9 0 19 -9 23 -20 7 -19 9 -19
27 -6 12 9 15 15 7 16 -9 0 -10 5 -2 19 22 42 14 48 -37 25z"/>
<path d="M402 1402 c4 -19 29 -23 35 -6 2 6 -6 14 -17 17 -16 4 -20 1 -18 -11z"/>
<path d="M480 1405 c-10 -13 -8 -15 11 -16 24 -1 24 -1 -3 -12 -14 -6 -29 -19
-31 -29 -8 -30 19 -21 47 17 25 33 26 35 7 44 -14 8 -22 7 -31 -4z"/>
<path d="M2697 1403 c-12 -11 -8 -25 5 -17 6 4 8 3 4 -4 -3 -5 0 -12 6 -15 7
-2 9 -8 5 -13 -4 -5 -12 -2 -16 5 -7 11 -13 9 -29 -7 -22 -22 -16 -37 8 -21
22 13 33 11 26 -6 -3 -8 -1 -15 5 -15 18 0 29 47 16 74 -12 27 -19 31 -30 19z"/>
<path d="M2820 1401 c0 -5 7 -11 15 -15 11 -4 13 -11 5 -31 -8 -20 -6 -27 5
-31 8 -4 15 -13 15 -22 0 -10 3 -12 9 -6 16 16 17 38 1 39 -8 0 -16 9 -18 19
-3 14 0 17 12 13 23 -9 20 -4 -14 21 -16 13 -30 18 -30 13z"/>
<path d="M295 1390 c-14 -23 50 -61 75 -45 14 9 -11 44 -27 38 -7 -3 -20 0
-27 6 -10 9 -16 9 -21 1z"/>
<path d="M1842 1380 c5 -16 45 -29 65 -22 24 8 2 22 -24 16 -16 -4 -29 -2 -35
7 -8 12 -9 12 -6 -1z"/>
<path d="M550 1369 c11 -8 12 -12 3 -16 -7 -2 -13 -13 -13 -23 0 -10 -6 -20
-14 -23 -16 -6 -18 -55 -2 -64 6 -3 8 -3 4 1 -7 9 30 98 46 109 8 5 6 10 -4
17 -20 13 -39 12 -20 -1z"/>
<path d="M156 1342 c12 -24 28 -61 48 -112 3 -8 4 -3 2 13 -3 23 0 27 20 27
12 0 26 5 29 10 4 7 -2 9 -18 5 -21 -6 -28 -1 -47 34 -27 46 -57 67 -34 23z"/>
<path d="M1950 1350 c0 -18 58 -81 65 -71 3 5 2 11 -2 13 -5 1 -20 18 -35 36
-16 19 -28 28 -28 22z"/>
<path d="M1153 1343 c-24 -9 -13 -20 17 -15 17 2 30 8 30 13 0 10 -27 11 -47
2z"/>
<path d="M2500 1333 c0 -7 -6 -13 -13 -13 -7 0 -19 -16 -27 -35 -7 -19 -17
-32 -21 -29 -4 2 -10 0 -13 -5 -7 -11 31 -22 50 -14 8 3 11 14 8 32 -4 21 -2
28 10 28 9 0 16 -4 16 -9 0 -4 -6 -8 -12 -8 -7 0 2 -10 20 -21 17 -12 32 -25
32 -31 0 -5 5 -6 11 -2 7 4 1 16 -15 33 -14 15 -26 34 -26 42 0 18 -20 49 -20
32z"/>
<path d="M2762 1328 c-5 -7 -8 -32 -6 -55 2 -28 -1 -43 -8 -43 -6 0 -9 -3 -6
-6 10 -9 68 26 68 41 0 8 -9 19 -20 25 -15 8 -19 17 -15 31 7 22 2 25 -13 7z"/>
<path d="M2581 1316 c-9 -11 -8 -15 5 -20 16 -6 33 8 34 27 0 12 -27 8 -39 -7z"/>
<path d="M2360 1300 c-8 -5 -10 -10 -5 -10 6 0 4 -4 -2 -8 -10 -7 -10 -11 0
-23 6 -8 11 -13 10 -11 0 2 3 17 7 33 5 16 8 29 7 29 -1 0 -9 -5 -17 -10z"/>
<path d="M433 1289 c-18 -5 -33 -11 -33 -13 0 -2 12 -12 27 -21 23 -16 25 -16
20 -1 -7 19 -6 19 28 6 23 -9 26 -8 21 6 -3 8 -6 20 -6 25 0 11 -14 10 -57 -2z"/>
<path d="M2664 1285 c7 -18 -15 -20 -32 -3 -9 9 -12 8 -12 -5 0 -9 -4 -17 -10
-17 -5 0 -10 -7 -10 -15 0 -8 7 -15 16 -15 9 0 12 -5 8 -12 -5 -9 -2 -8 9 1
13 10 24 11 40 4 25 -10 57 -6 57 8 0 5 -10 9 -22 9 -30 0 -54 15 -39 24 14 9
14 36 0 36 -6 0 -9 -7 -5 -15z"/>
<path d="M2889 1289 c-10 -6 -4 -10 19 -15 19 -4 29 -10 24 -13 -6 -4 -2 -16
11 -31 11 -14 18 -18 14 -8 -3 9 -1 19 6 21 8 3 6 10 -6 25 -22 24 -50 33 -68
21z"/>
<path d="M1889 1288 c-7 -16 -6 -57 2 -52 5 3 8 13 7 22 -2 12 3 16 20 15 12
-2 22 2 22 7 0 8 -48 15 -51 8z"/>
<path d="M344 1248 c9 -29 14 -51 15 -60 1 -4 7 -5 15 -2 8 3 23 -3 33 -13 19
-19 36 -23 49 -10 4 4 1 7 -8 7 -8 0 -29 14 -47 31 -24 22 -30 34 -22 43 13
16 4 26 -22 26 -15 0 -18 -5 -13 -22z"/>
<path d="M1915 1260 c3 -6 14 -10 23 -10 15 -1 16 -2 1 -13 -15 -11 -19 -18
-19 -34 0 -5 -5 -1 -10 7 -6 9 -10 10 -10 3 0 -25 19 -22 39 6 22 30 21 33
-12 44 -11 4 -16 3 -12 -3z"/>
<path d="M620 1224 c0 -10 -8 -14 -23 -12 -12 1 -32 -4 -43 -12 -25 -18 -28
-52 -5 -48 9 2 16 9 16 17 0 22 43 33 53 14 6 -11 11 -12 16 -4 4 6 1 11 -6
11 -8 0 -6 5 5 11 21 12 22 25 2 33 -9 3 -15 0 -15 -10z"/>
<path d="M2381 1231 c-1 -8 -8 -11 -22 -8 -13 3 -19 1 -16 -6 3 -7 9 -11 15
-10 13 3 3 -29 -12 -40 -7 -4 -2 -9 11 -13 35 -10 17 -24 -23 -18 -22 2 -33 0
-29 -6 4 -6 -5 -10 -19 -10 -17 0 -26 5 -26 16 0 14 -2 15 -17 3 -15 -12 -16
-12 -10 4 4 12 3 16 -4 11 -6 -3 -9 -14 -6 -23 3 -14 -1 -16 -24 -13 -16 2
-29 11 -29 18 0 17 16 18 24 2 3 -7 4 -1 2 14 -1 15 2 29 8 32 6 2 -4 5 -23 5
-29 1 -32 -1 -21 -14 9 -11 10 -19 3 -26 -8 -8 -13 -5 -18 10 -3 12 -10 21
-15 21 -6 0 -5 -11 0 -26 13 -34 13 -36 -7 -26 -10 5 -24 7 -32 4 -8 -3 -11 0
-7 7 4 6 2 9 -7 5 -18 -6 -20 -59 -3 -73 10 -8 16 -5 24 14 17 36 58 34 80 -5
19 -34 30 -39 28 -12 0 10 5 16 13 14 7 -2 22 5 32 14 11 10 22 14 26 10 5 -4
0 -12 -10 -17 -10 -6 -17 -22 -17 -40 0 -18 -4 -28 -10 -24 -5 3 -10 1 -10 -4
0 -6 9 -11 19 -11 11 0 21 -4 23 -10 2 -5 23 -12 48 -15 41 -5 41 -2 0 11 -13
5 -13 6 0 15 10 6 4 7 -18 3 -29 -6 -33 -4 -31 12 2 10 0 25 -4 32 -5 7 -2 14
8 18 10 4 25 -4 42 -22 20 -22 27 -25 30 -14 14 52 63 115 71 92 2 -7 10 -12
19 -12 27 0 7 25 -23 28 -40 5 -51 18 -32 39 10 12 13 25 8 38 -5 11 -9 14 -9
6z m-27 -127 c9 -22 -1 -33 -24 -27 -27 7 -36 23 -19 34 21 13 36 11 43 -7z"/>
<path d="M915 1198 c5 -19 2 -25 -12 -25 -10 0 -21 5 -25 11 -5 8 -8 7 -8 -1
0 -7 9 -22 20 -33 11 -11 20 -24 20 -30 0 -5 -9 -19 -20 -30 -11 -11 -16 -20
-11 -20 6 0 13 5 16 10 8 12 35 13 55 0 12 -7 11 -13 -10 -34 -13 -15 -32 -26
-42 -26 -11 0 -16 -5 -13 -10 4 -6 15 -8 26 -5 11 4 19 2 19 -4 0 -6 5 -11 11
-11 8 0 8 4 0 14 -8 9 -8 16 -2 20 5 4 12 2 16 -4 3 -5 14 -10 23 -9 11 0 12
2 4 6 -6 2 -10 8 -7 13 8 12 -16 71 -26 64 -5 -3 -9 2 -9 12 0 9 -9 25 -20 34
l-20 18 20 5 c11 3 23 -1 28 -8 6 -11 9 -10 19 1 8 8 9 15 3 19 -6 3 -10 1
-10 -5 0 -7 -6 -5 -15 4 -8 8 -15 19 -15 25 0 5 -5 13 -10 16 -7 4 -9 -2 -5
-17z"/>
<path d="M838 1176 c-4 -36 10 -66 32 -66 9 0 10 3 1 14 -6 7 -12 30 -13 50
-2 46 -15 47 -20 2z"/>
<path d="M1838 1198 c-9 -5 -4 -8 14 -8 33 0 38 -7 31 -43 -5 -27 -23 -38 -23
-14 0 15 -68 40 -82 31 -5 -3 -16 0 -25 8 -15 12 -15 11 -4 -9 8 -16 21 -23
42 -23 37 0 87 -28 95 -52 7 -24 44 -44 45 -26 1 7 1 17 0 22 -1 5 4 13 11 18
8 5 2 6 -14 2 -24 -5 -28 -3 -28 14 0 16 5 19 23 15 18 -4 19 -3 7 6 -13 10
-13 13 4 26 13 10 23 12 31 5 9 -8 14 -5 18 9 4 18 3 19 -33 6 -34 -12 -40
-12 -54 4 -17 19 -38 22 -58 9z"/>
<path d="M2645 1192 c-12 -8 -16 -62 -5 -62 7 0 23 60 17 66 -1 2 -7 0 -12 -4z"/>
<path d="M2750 1191 c0 -6 4 -12 9 -15 13 -8 42 4 35 15 -7 12 -44 12 -44 0z"/>
<path d="M1480 1181 c0 -5 6 -12 13 -15 9 -5 9 -7 -1 -12 -10 -5 -10 -9 -1
-20 7 -8 8 -18 4 -22 -4 -4 -10 -1 -12 6 -5 14 -23 17 -23 3 0 -13 27 -21 45
-15 22 9 19 57 -5 72 -11 7 -20 8 -20 3z"/>
<path d="M2499 1161 c20 -28 21 -29 55 -13 31 14 33 17 18 29 -24 18 -32 16
-32 -7 0 -11 -5 -20 -11 -20 -6 0 -9 6 -6 14 3 8 -1 17 -9 20 -31 12 -35 5
-15 -23z"/>
<path d="M2038 1173 c-24 -4 -49 -33 -28 -33 6 0 10 5 10 11 0 6 8 8 19 4 10
-3 24 1 31 10 7 8 9 14 4 14 -5 -1 -21 -4 -36 -6z"/>
<path d="M257 1153 c-14 -13 -6 -23 18 -23 18 0 23 4 19 15 -6 16 -26 20 -37
8z"/>
<path d="M1050 1142 c0 -10 -5 -23 -12 -30 -15 -15 -4 -27 16 -19 10 4 13 13
9 23 -4 12 -2 15 8 12 8 -3 15 -15 15 -27 1 -13 8 -29 17 -38 13 -14 17 -13
35 5 17 17 18 23 7 32 -10 8 -13 7 -11 -6 0 -9 -5 -19 -13 -22 -9 -3 -11 0 -6
8 5 8 4 11 -2 7 -6 -4 -13 6 -16 23 -7 35 -47 62 -47 32z"/>
<path d="M14 1130 c3 -14 5 -28 5 -32 2 -17 64 -77 74 -71 5 3 7 2 4 -4 -8
-12 81 -92 143 -128 13 -8 13 -7 1 8 -19 24 -4 21 27 -5 17 -13 20 -19 9 -15
-31 12 -9 -10 38 -37 25 -14 43 -21 40 -16 -3 4 1 10 9 13 8 3 17 0 20 -8 3
-8 0 -15 -7 -18 -11 -3 133 -87 149 -87 5 1 -11 12 -36 25 -25 13 -39 24 -31
25 9 0 4 9 -13 25 -32 29 -38 31 -29 9 4 -12 2 -15 -8 -12 -8 3 -14 13 -14 24
0 21 -142 126 -162 119 -7 -2 -15 1 -19 7 -4 7 -3 8 4 4 7 -4 12 -5 12 -2 0 3
-10 10 -21 17 -17 9 -20 8 -14 -3 3 -7 1 -6 -7 3 -7 9 -23 21 -35 28 -13 6
-23 18 -23 26 0 8 -4 14 -8 13 -13 -4 -73 63 -66 73 3 5 1 8 -5 7 -5 -2 -17 6
-25 17 -15 20 -16 19 -12 -5z"/>
<path d="M503 1125 c-7 -19 -5 -20 25 -29 16 -5 24 -3 28 9 4 9 3 19 -1 23 -4
4 -10 1 -12 -5 -3 -7 -9 -13 -15 -13 -6 0 -8 7 -4 15 3 8 1 15 -5 15 -5 0 -12
-7 -16 -15z"/>
<path d="M1807 1123 c-3 -5 10 -24 28 -42 26 -25 32 -28 28 -13 -6 25 -49 67
-56 55z"/>
<path d="M1996 1114 c-2 -6 1 -17 7 -23 14 -14 40 -15 32 -1 -3 6 -1 10 4 10
6 0 11 7 11 15 0 18 -47 17 -54 -1z"/>
<path d="M647 1109 c6 -6 9 -18 6 -25 -4 -10 0 -12 11 -8 9 3 16 1 16 -5 0 -6
7 -8 16 -4 9 3 19 1 23 -4 10 -15 61 -25 61 -12 0 8 5 8 15 -1 9 -8 12 -16 6
-19 -5 -3 4 -21 20 -39 16 -18 29 -29 29 -26 0 4 11 -5 25 -20 24 -26 45 -34
45 -17 0 5 -10 11 -21 14 -14 4 -20 11 -16 20 4 10 -4 19 -24 27 -36 15 -44
27 -30 44 9 11 8 14 -5 12 -9 0 -19 5 -21 12 -3 6 2 12 10 12 8 0 17 7 21 15
7 20 -3 19 -26 -1 -15 -15 -25 -15 -75 -5 -32 6 -61 18 -66 26 -4 8 -13 15
-19 15 -9 0 -9 -3 -1 -11z"/>
<path d="M978 1108 c7 -7 12 -20 12 -30 0 -19 15 -24 25 -8 3 6 1 10 -5 10 -6
0 -8 5 -4 11 3 6 0 15 -7 20 -21 13 -35 11 -21 -3z"/>
<path d="M1585 1082 c1 -32 4 -37 28 -39 22 -1 24 1 14 12 -6 7 -16 10 -21 7
-5 -3 -7 7 -4 21 3 15 0 28 -7 31 -8 3 -11 -8 -10 -32z"/>
<path d="M2529 1103 c-40 -20 -58 -45 -52 -75 3 -15 12 -29 20 -32 8 -4 11 -1
7 5 -3 6 4 21 16 34 12 13 19 28 15 34 -3 6 2 11 12 11 23 0 38 -11 46 -32 3
-10 12 -18 19 -18 9 0 9 3 0 12 -7 7 -12 20 -12 30 0 10 -4 18 -9 18 -5 0 -16
6 -23 13 -10 10 -18 10 -39 0z"/>
<path d="M415 1101 c-3 -6 1 -11 9 -11 9 0 16 -7 16 -15 0 -8 4 -15 9 -15 21
0 41 13 41 26 0 17 -17 18 -23 2 -3 -10 -10 -8 -25 5 -13 12 -22 15 -27 8z"/>
<path d="M1283 1073 c-3 -7 -3 -20 1 -28 3 -8 1 -15 -4 -15 -6 0 -10 -8 -10
-17 -1 -17 -1 -17 -11 0 -10 18 -11 18 -32 0 -19 -17 -20 -17 -14 0 5 12 1 17
-11 17 -10 0 -23 5 -30 12 -9 9 -12 9 -12 0 0 -7 -14 -12 -31 -12 -20 0 -29
-4 -27 -12 7 -19 34 -21 49 -5 14 14 49 12 49 -4 0 -9 51 -59 61 -59 3 0 10
17 15 38 8 31 13 37 34 34 l25 -3 -22 16 c-31 22 -29 36 5 30 15 -2 34 0 42 5
16 10 13 12 -39 14 -19 0 -36 -5 -38 -11z"/>
<path d="M520 1067 c0 -9 5 -27 11 -40 8 -19 8 -30 -2 -48 -14 -28 -21 -129
-8 -129 5 0 9 7 9 15 0 8 4 15 9 15 14 0 22 -30 8 -30 -7 0 -3 -7 7 -15 15
-11 23 -12 30 -4 8 8 7 13 -2 16 -21 8 -33 51 -20 72 8 13 8 26 0 50 -6 17 -7
31 -3 31 5 0 12 11 15 25 5 18 13 25 31 25 14 0 25 5 25 10 0 6 -18 10 -39 10
-22 0 -46 3 -55 6 -10 4 -16 1 -16 -9z"/>
<path d="M1763 1061 c-15 -25 -4 -46 13 -24 13 17 13 17 14 1 0 -10 6 -18 13
-18 9 0 9 -2 -1 -9 -10 -6 -4 -10 19 -15 33 -6 56 3 30 12 -8 3 -29 19 -46 37
-28 27 -34 29 -42 16z"/>
<path d="M1957 1073 c-14 -13 -6 -23 19 -23 22 0 25 2 14 15 -14 16 -23 19
-33 8z"/>
<path d="M2125 1070 c-3 -5 -1 -19 5 -31 15 -27 35 -10 25 20 -7 22 -20 27
-30 11z"/>
<path d="M2766 1071 c-3 -5 8 -14 24 -20 31 -10 39 -4 18 17 -14 14 -35 16
-42 3z"/>
<path d="M1039 1054 c-10 -12 -10 -18 3 -30 14 -14 16 -13 20 10 6 32 -5 42
-23 20z"/>
<path d="M1653 1027 l-3 -42 15 28 c9 15 20 27 25 27 15 0 12 -7 -15 -36 -27
-29 -33 -64 -11 -64 8 0 13 7 12 16 -2 25 21 28 29 5 5 -17 14 -21 48 -20 31
2 35 3 14 6 -16 3 -31 11 -34 19 -3 8 -11 14 -19 14 -15 0 -19 22 -7 34 17 16
9 36 -19 45 -17 6 -31 11 -32 11 -1 0 -2 -19 -3 -43z"/>
<path d="M2370 1060 c0 -5 5 -10 10 -10 6 0 10 -7 10 -15 0 -8 -3 -14 -7 -12
-5 1 -9 -1 -10 -5 -7 -21 0 -28 27 -28 17 0 30 -4 30 -10 0 -10 -14 -14 -39
-11 -7 2 -10 -2 -6 -8 10 -17 30 -13 53 12 24 25 30 46 9 29 -16 -14 -39 0
-33 19 3 8 -6 22 -19 32 -14 10 -25 13 -25 7z"/>
<path d="M656 1041 c5 -5 36 -18 68 -30 44 -16 56 -18 47 -7 -7 8 -26 18 -42
21 -16 4 -29 11 -29 16 0 5 -12 9 -27 9 -16 0 -23 -4 -17 -9z"/>
<path d="M1395 1032 c3 -3 -2 -14 -12 -24 -18 -21 -16 -26 15 -31 25 -4 42
-17 21 -17 -8 0 -20 -9 -26 -19 -10 -15 -9 -22 2 -31 12 -10 15 -10 15 2 0 26
26 51 53 51 15 0 30 3 33 8 9 15 24 10 24 -7 0 -10 6 -14 14 -11 10 4 13 1 9
-9 -4 -12 0 -14 23 -8 27 7 28 7 11 -10 -9 -10 -17 -20 -17 -23 0 -10 31 20
42 40 8 16 8 19 -5 14 -17 -6 -67 13 -67 27 0 4 9 6 20 3 15 -4 20 0 20 14 0
22 -4 23 -31 9 -13 -7 -19 -7 -19 0 0 5 -9 1 -20 -10 -24 -24 -68 -26 -96 -5
-10 8 -17 15 -14 15 3 1 13 3 23 5 29 6 30 12 2 17 -14 3 -23 3 -20 0z"/>
<path d="M2040 1011 c38 -22 60 -26 60 -12 0 5 -12 11 -27 13 -16 3 -37 8 -48
12 -11 4 -4 -2 15 -13z"/>
<path d="M600 983 c0 -27 3 -34 9 -23 6 8 7 18 5 22 -3 4 2 8 11 8 12 0 15 -6
10 -19 -7 -24 7 -33 39 -25 17 4 23 11 19 22 -4 10 -2 13 5 8 7 -4 12 -3 12 1
0 8 -84 43 -102 43 -5 0 -8 -17 -8 -37z"/>
<path d="M1612 1012 c-16 -10 -5 -42 14 -42 16 0 19 16 4 25 -6 4 -8 11 -5 16
7 11 4 11 -13 1z"/>
<path d="M1910 992 c0 -13 4 -20 10 -17 6 3 14 -3 18 -15 4 -12 11 -21 15 -21
23 3 29 -1 23 -14 -11 -31 22 -13 41 22 16 28 3 37 -37 28 -24 -5 -34 -2 -50
17 l-19 23 -1 -23z"/>
<path d="M1292 966 c-9 -19 -8 -25 4 -30 8 -3 14 0 15 7 0 7 4 3 8 -8 10 -24
-9 -47 -26 -33 -9 7 -11 -1 -7 -34 3 -24 6 -54 7 -68 3 -31 23 -46 43 -30 20
18 17 27 -11 34 -14 4 -25 13 -25 22 0 21 29 74 40 74 6 0 10 9 10 21 0 11 -4
18 -9 15 -5 -3 -11 3 -14 14 -4 17 -2 18 14 9 24 -12 25 -1 2 17 -26 19 -38
17 -51 -10z"/>
<path d="M2123 983 c-25 -10 -12 -23 22 -23 19 0 35 5 35 10 0 6 -4 10 -9 10
-5 0 -15 2 -23 4 -7 3 -19 2 -25 -1z"/>
<path d="M790 972 c0 -9 -7 -11 -21 -7 -15 5 -25 1 -35 -14 -9 -12 -22 -21
-30 -21 -8 0 -14 -5 -14 -10 0 -7 -19 -10 -45 -9 -52 3 -64 -5 -47 -31 6 -11
9 -26 6 -35 -7 -17 4 -19 25 -6 8 5 11 16 8 25 -4 10 -1 16 7 16 23 0 46 -11
41 -20 -3 -4 2 -10 10 -14 8 -3 17 0 21 6 4 6 3 8 -3 5 -9 -6 -22 21 -23 46 0
13 16 8 37 -13 21 -19 21 -19 31 9 8 22 6 30 -7 39 -14 9 -13 11 6 11 12 1 29
-6 37 -15 15 -14 16 -14 16 3 0 21 -20 56 -20 35z"/>
<path d="M1098 973 c20 -8 14 -23 -10 -23 -21 0 -21 0 -2 -21 l19 -21 3 21 c3
17 8 20 23 16 29 -9 23 14 -7 25 -25 10 -50 13 -26 3z"/>
<path d="M2244 954 c3 -9 6 -20 6 -25 0 -4 6 -6 13 -4 19 8 41 -33 26 -51 -9
-11 -8 -14 2 -14 8 0 20 9 26 19 7 11 26 22 42 26 17 4 34 11 38 17 4 8 0 9
-11 5 -10 -4 -19 -1 -22 7 -3 7 -18 13 -34 13 -33 0 -40 -13 -12 -20 13 -4 13
-5 -4 -6 -13 -1 -28 9 -38 24 -18 28 -42 34 -32 9z"/>
<path d="M1483 944 c-3 -9 -1 -24 5 -34 6 -10 7 -23 2 -30 -11 -17 -4 -30 17
-30 13 0 13 3 3 15 -8 9 -9 15 -2 15 6 0 14 -4 17 -10 7 -12 25 -13 25 -2 0 4
-10 12 -22 17 -18 8 -23 18 -22 43 2 34 -12 43 -23 16z"/>
<path d="M1170 938 c0 -19 36 -52 44 -40 3 5 -6 20 -19 32 -19 18 -25 20 -25
8z"/>
<path d="M2078 938 c7 -7 18 -13 25 -13 7 -1 24 -5 40 -9 35 -11 36 -30 0 -21
-23 5 -25 4 -14 -9 9 -11 19 -13 36 -6 17 6 27 5 35 -6 18 -21 30 -17 30 11 0
18 -4 23 -15 18 -9 -3 -23 1 -33 9 -19 17 -76 38 -100 38 -13 0 -13 -3 -4 -12z"/>
<path d="M1034 915 c22 -33 20 -50 -6 -76 -21 -20 -21 -21 -3 -14 11 4 35 11
53 17 17 5 32 11 32 13 0 7 -79 85 -86 85 -4 0 1 -11 10 -25z"/>
<path d="M1440 925 c-13 -16 -10 -47 6 -52 5 -2 10 12 11 32 1 40 0 41 -17 20z"/>
<path d="M1840 923 c19 -9 44 -17 55 -18 11 -1 30 -5 43 -9 32 -11 27 6 -9 26
-16 10 -27 12 -23 6 5 -8 0 -9 -17 -4 -13 4 -37 9 -54 12 -30 4 -30 4 5 -13z"/>
<path d="M2030 930 c0 -5 5 -10 10 -10 6 0 10 -14 10 -32 0 -17 3 -28 7 -25
12 13 33 -15 33 -44 0 -19 5 -29 15 -29 21 0 19 23 -5 53 -11 14 -20 31 -20
39 0 13 -35 58 -45 58 -3 0 -5 -4 -5 -10z"/>
<path d="M2430 930 c-7 -4 -3 -13 11 -26 12 -10 23 -18 25 -16 2 1 7 2 12 1
24 -3 68 4 77 13 7 7 6 9 -1 5 -6 -3 -22 0 -35 7 -33 17 -75 25 -89 16z"/>
<path d="M1634 912 c6 -10 18 -60 19 -84 1 -10 7 -18 14 -18 10 0 11 5 3 19
-5 11 -10 27 -10 35 0 20 27 10 33 -12 4 -15 5 -15 6 1 0 10 -11 29 -26 42
-27 24 -49 33 -39 17z"/>
<path d="M927 904 c-8 -8 10 -44 22 -44 16 0 19 39 4 44 -18 7 -18 7 -26 0z"/>
<path d="M1578 886 c-10 -7 -18 -19 -18 -26 0 -7 3 -10 7 -7 3 4 13 1 21 -6
12 -9 14 -9 8 0 -4 7 -2 22 4 33 12 23 3 25 -22 6z"/>
<path d="M1766 875 c-10 -8 -23 -12 -27 -9 -5 3 -9 -7 -8 -23 0 -15 3 -22 6
-15 2 6 11 12 19 12 9 0 13 4 10 9 -3 5 3 11 14 14 11 3 20 10 20 16 0 15 -11
13 -34 -4z"/>
<path d="M977 858 c-29 -31 -10 -35 21 -5 17 18 21 27 12 26 -8 0 -23 -10 -33
-21z"/>
<path d="M1850 861 c0 -16 7 -19 50 -18 42 2 50 5 50 21 0 16 -3 17 -12 8 -15
-15 -54 -16 -63 -2 -10 17 -25 11 -25 -9z"/>
<path d="M2347 865 c-4 -8 -2 -17 3 -20 21 -13 9 -27 -17 -22 -20 4 -32 -1
-45 -16 -23 -26 -23 -47 0 -47 27 0 43 15 36 33 -8 21 5 22 34 1 22 -15 22
-15 19 35 -2 49 -18 68 -30 36z"/>
<path d="M1170 861 c0 -5 -10 -12 -22 -15 -22 -7 -22 -7 -3 -16 30 -13 32 -12
37 15 3 14 1 25 -3 25 -5 0 -9 -4 -9 -9z"/>
<path d="M1382 850 c-27 -29 -28 -40 -2 -33 11 3 18 9 15 13 -3 5 0 10 6 12 7
2 10 10 7 18 -3 10 -10 7 -26 -10z"/>
<path d="M1212 834 c2 -17 -4 -38 -12 -47 -30 -33 -42 -48 -39 -50 2 -1 19
-10 36 -19 20 -10 35 -13 39 -7 3 5 14 7 24 4 10 -3 21 -1 25 5 3 5 -2 10 -13
10 -23 0 -52 30 -52 55 0 17 1 17 20 0 19 -18 20 -17 20 3 0 12 -6 22 -14 22
-8 0 -19 12 -25 28 l-10 27 1 -31z"/>
<path d="M2396 853 c-11 -12 -6 -22 14 -28 11 -4 20 -15 20 -26 0 -11 -4 -18
-9 -15 -15 10 -19 -77 -4 -93 15 -14 26 -9 29 14 1 8 -2 12 -8 9 -6 -4 -8 1
-4 12 3 11 7 37 10 59 3 33 0 43 -19 57 -12 9 -25 14 -29 11z"/>
<path d="M2030 837 c0 -7 5 -29 11 -51 8 -28 14 -35 22 -27 8 8 8 14 -1 23
-16 16 -15 28 3 28 12 0 14 4 7 17 -11 19 -42 27 -42 10z"/>
<path d="M2483 835 c-3 -9 2 -22 13 -30 29 -22 33 -18 21 15 -13 33 -24 38
-34 15z"/>
<path d="M730 825 c-7 -8 -20 -15 -30 -15 -10 0 -23 -7 -30 -15 -11 -13 -8
-15 14 -15 14 0 29 0 34 0 4 0 7 4 7 9 0 13 14 26 28 26 5 0 12 6 15 13 5 17
-23 15 -38 -3z"/>
<path d="M2657 833 c-2 -5 4 -16 14 -25 20 -19 35 -8 25 17 -6 16 -32 20 -39
8z"/>
<path d="M1413 800 c0 -16 4 -27 8 -24 14 9 19 -14 5 -25 -10 -8 -16 -9 -21
-1 -8 12 -35 13 -35 1 0 -5 8 -12 18 -14 15 -4 15 -5 -2 -6 -15 -1 -16 -4 -6
-16 7 -8 19 -15 26 -15 8 0 11 6 8 15 -4 9 0 15 9 15 9 0 24 3 34 7 15 6 16 4
6 -8 -7 -8 -8 -20 -4 -28 6 -9 11 -10 15 -2 10 16 26 13 26 -5 0 -9 6 -14 13
-11 8 3 20 1 28 -3 8 -5 19 -4 28 3 11 9 15 9 18 0 3 -7 13 -13 24 -13 10 0
19 -4 19 -10 0 -5 23 -10 51 -10 36 0 49 4 46 13 -2 8 -19 11 -49 9 -36 -3
-48 0 -56 14 -7 12 -18 15 -43 11 -63 -9 -131 52 -138 126 -1 4 -7 7 -14 7 -8
0 -14 -12 -14 -30z"/>
<path d="M1510 820 c-12 -8 -9 -10 11 -10 19 0 34 -11 54 -40 31 -45 33 -47
31 -22 0 9 -10 22 -21 29 -14 9 -16 12 -5 13 8 0 26 9 39 19 l24 19 -27 0
c-19 0 -26 -5 -22 -14 3 -9 -2 -14 -13 -14 -10 0 -21 7 -25 15 -6 17 -24 19
-46 5z"/>
<path d="M1906 818 c3 -5 -2 -18 -12 -29 -24 -26 -13 -32 25 -13 27 13 34 14
48 2 13 -10 17 -10 20 0 3 6 9 10 14 6 5 -3 9 2 9 10 0 21 -21 31 -30 15 -6
-9 -12 -10 -22 -2 -18 14 -59 23 -52 11z"/>
<path d="M2930 799 c-25 -16 -55 -34 -68 -40 -13 -5 -20 -14 -17 -20 5 -7 15
-4 29 9 11 10 35 24 53 31 17 7 34 19 37 28 3 8 11 11 17 7 8 -4 9 -3 5 4 -9
15 -4 17 -56 -19z"/>
<path d="M863 813 c-31 -6 -29 -23 2 -23 16 0 25 6 25 15 0 8 -1 14 -2 14 -2
-1 -13 -4 -25 -6z"/>
<path d="M951 794 c-13 -13 -27 -24 -32 -24 -5 0 -9 -4 -9 -10 0 -20 27 -9 49
21 28 38 24 46 -8 13z"/>
<path d="M1062 813 c-24 -3 -32 -8 -28 -19 3 -8 -1 -14 -9 -14 -8 0 -19 -9
-25 -20 -8 -16 -8 -20 4 -20 8 0 18 5 21 10 4 6 11 8 16 4 6 -3 10 0 8 7 -3
29 2 39 20 39 11 0 23 -4 26 -10 3 -5 11 -10 16 -10 6 0 7 5 4 10 -3 6 -1 10
5 10 6 0 8 5 5 10 -3 6 -12 9 -18 8 -7 0 -27 -3 -45 -5z"/>
<path d="M1782 808 c3 -7 14 -17 26 -23 11 -5 23 -18 26 -29 5 -21 18 -16 22
9 2 14 -24 35 -59 48 -13 5 -17 3 -15 -5z"/>
<path d="M2187 813 c-4 -3 -2 -13 5 -20 9 -11 9 -17 -3 -24 -8 -5 -10 -9 -5
-9 5 0 1 -10 -10 -22 l-19 -22 28 17 c15 10 27 14 28 10 0 -5 4 2 10 15 13 35
-13 77 -34 55z"/>
<path d="M293 803 c5 -9 -8 -13 -45 -16 -37 -2 -29 -4 27 -4 44 0 71 2 60 4
-11 3 -26 10 -34 17 -11 8 -13 8 -8 -1z"/>
<path d="M1713 796 c4 -10 7 -24 7 -32 0 -15 35 -20 44 -6 3 5 -9 19 -26 32
-25 19 -30 20 -25 6z"/>
<path d="M750 780 c0 -10 24 -30 36 -30 7 0 10 8 7 19 -4 17 -43 27 -43 11z"/>
<path d="M1526 776 c3 -8 0 -17 -6 -21 -7 -5 -2 -12 16 -21 33 -17 43 -11 21
14 -10 10 -15 21 -12 24 3 3 -1 8 -9 11 -10 4 -13 1 -10 -7z"/>
<path d="M1627 783 c-16 -15 -5 -24 23 -18 17 4 30 3 29 -2 -3 -18 1 -33 10
-33 19 0 -3 42 -26 51 -29 11 -28 11 -36 2z"/>
<path d="M2570 780 c0 -5 -9 -10 -19 -10 -26 0 -51 -10 -51 -21 0 -5 11 -4 25
1 14 5 25 7 25 4 0 -2 9 0 20 6 21 11 27 30 10 30 -5 0 -10 -4 -10 -10z"/>
<path d="M2976 771 c-20 -22 -98 -60 -173 -85 -29 -10 -53 -22 -53 -27 0 -13
14 -11 47 5 140 68 180 86 191 86 6 0 12 9 12 20 0 25 -3 25 -24 1z"/>
<path d="M2131 771 c-14 -4 -27 -13 -29 -20 -3 -9 0 -11 7 -7 8 6 10 0 5 -18
-3 -15 -2 -26 4 -26 12 0 24 29 16 41 -3 5 2 9 10 9 17 0 30 16 19 23 -5 2
-19 1 -32 -2z"/>
<path d="M1110 760 c0 -6 -7 -10 -16 -8 -10 2 -19 -2 -21 -7 -2 -6 5 -11 14
-11 10 -1 26 -4 35 -8 13 -6 15 -3 11 13 -6 23 -23 39 -23 21z"/>
<path d="M1305 741 c-6 -10 6 -51 15 -51 4 0 10 -9 13 -21 5 -18 8 -19 29 -8
l23 12 -35 15 c-29 12 -32 15 -17 23 9 6 17 14 17 18 0 11 -39 21 -45 12z"/>
<path d="M1948 741 c7 -4 15 -16 16 -26 3 -19 26 -35 26 -18 0 15 -31 53 -43
53 -8 0 -8 -3 1 -9z"/>
<path d="M1995 735 c16 -50 14 -48 31 -31 8 9 12 21 8 27 -4 8 -9 7 -15 -2 -7
-11 -9 -10 -9 4 0 9 -4 17 -10 17 -5 0 -7 -7 -5 -15z"/>
<path d="M924 720 c-41 -16 -34 -27 9 -13 23 8 44 16 46 19 8 7 -33 3 -55 -6z"/>
<path d="M2656 704 c-9 -8 -13 -20 -10 -26 4 -7 10 -4 16 6 7 13 13 14 23 6
11 -9 12 -7 8 9 -6 25 -16 26 -37 5z"/>
<path d="M1747 693 c-13 -12 -7 -23 13 -23 27 0 25 -19 -2 -29 -19 -8 -15 -9
17 -8 39 2 58 13 49 29 -3 4 -12 8 -21 8 -9 0 -24 7 -33 15 -9 8 -20 12 -23 8z"/>
<path d="M310 681 c0 -6 3 -10 8 -10 19 3 33 -2 27 -11 -8 -13 155 -13 175 0
10 6 -2 7 -37 3 -46 -5 -107 4 -157 23 -9 3 -16 1 -16 -5z"/>
<path d="M2235 680 c-3 -5 -21 -10 -40 -10 -35 0 -53 -14 -34 -26 16 -10 89
17 89 33 0 15 -6 17 -15 3z"/>
<path d="M650 669 c11 -8 4 -9 -27 -7 -24 2 -43 0 -43 -3 0 -4 30 -9 68 -11
37 -2 76 -7 87 -11 11 -4 -2 4 -30 17 -52 26 -81 34 -55 15z"/>
<path d="M2048 673 c18 -7 15 -24 -10 -50 l-21 -23 41 17 c48 21 53 39 16 53
-25 10 -50 13 -26 3z"/>
<path d="M2550 660 c-8 -5 -7 -9 5 -14 24 -9 45 -8 45 3 0 12 -35 20 -50 11z"/>
<path d="M2350 645 c-7 -8 -19 -15 -26 -15 -8 0 -14 -4 -14 -10 0 -5 5 -10 11
-10 6 0 17 -7 25 -15 9 -8 20 -15 27 -15 6 0 2 6 -8 14 -19 14 -19 15 -2 33 9
11 17 23 17 26 0 12 -17 7 -30 -8z"/>
<path d="M1935 642 c-9 -6 -11 -23 -6 -59 0 -7 6 -13 12 -13 6 0 8 9 4 20 -6
18 3 25 28 21 4 -1 2 8 -5 19 -14 22 -18 23 -33 12z"/>
<path d="M2606 630 c-22 -11 -56 -20 -75 -20 l-35 0 23 -16 c22 -16 26 -16 75
8 37 19 61 24 88 21 20 -3 45 0 55 6 15 9 13 10 -17 11 -19 0 -44 2 -55 5 -11
3 -38 -4 -59 -15z"/>
<path d="M1853 633 c-24 -9 -14 -30 12 -25 14 2 25 11 25 18 0 14 -14 17 -37
7z"/>
<path d="M769 622 c7 -5 9 -12 5 -14 -5 -3 -3 -3 5 -1 14 4 110 -26 121 -37 3
-3 19 -6 35 -7 17 -2 -7 10 -53 27 -107 37 -131 44 -113 32z"/>
<path d="M1411 623 c-1 -6 3 -23 9 -37 11 -29 44 -35 54 -11 6 17 -17 31 -34
20 -5 -3 -14 4 -19 17 -6 13 -10 18 -10 11z"/>
<path d="M2397 610 c3 -11 9 -20 14 -20 5 0 6 6 3 14 -4 11 4 16 28 19 30 3
30 4 -9 5 -37 2 -41 0 -36 -18z"/>
<path d="M2203 592 l-22 -7 20 -25 c12 -14 19 -18 16 -8 -7 22 3 30 20 16 17
-13 28 -4 20 17 -7 16 -18 17 -54 7z"/>
<path d="M290 581 c0 -10 -12 -12 -45 -8 -24 3 -47 2 -50 -4 -4 -5 15 -9 44
-9 46 0 72 13 57 27 -3 4 -6 1 -6 -6z"/>
<path d="M410 581 c17 -4 4 -7 -40 -12 l-65 -6 80 0 c44 -1 74 1 67 4 -6 2
-10 9 -6 14 3 5 -10 8 -28 8 -29 -2 -30 -2 -8 -8z"/>
<path d="M568 583 c6 -2 10 -9 6 -14 -6 -10 0 -11 98 -13 38 0 68 2 68 7 0 4
-34 7 -76 7 -47 0 -73 4 -69 10 3 6 -4 10 -17 9 -13 0 -17 -3 -10 -6z"/>
<path d="M800 575 c-13 -16 -7 -21 35 -28 11 -2 28 -7 37 -11 10 -5 57 -21
105 -36 69 -22 91 -26 102 -17 9 7 12 7 8 1 -4 -7 4 -9 23 -6 43 6 26 22 -23
22 -23 0 -64 7 -91 15 -26 8 -52 12 -57 9 -5 -3 -9 0 -9 5 0 6 -15 11 -32 11
-25 0 -29 3 -18 10 10 7 11 10 3 11 -7 1 -22 3 -33 4 -11 1 -25 3 -31 4 -5 0
-7 6 -4 11 9 15 -1 12 -15 -5z"/>
<path d="M2087 567 c4 -20 9 -22 41 -18 l37 6 -32 3 c-21 2 -33 9 -33 18 0 8
-4 14 -9 14 -4 0 -6 -10 -4 -23z"/>
<path d="M0 562 c0 -20 11 -27 110 -68 231 -95 455 -160 713 -204 142 -25 179
-30 292 -45 66 -9 132 -17 147 -19 15 -2 29 1 31 7 3 9 8 9 19 -1 9 -7 24 -9
33 -5 10 3 16 2 13 -3 -6 -8 38 -12 160 -13 31 0 52 -5 52 -12 0 -7 14 -9 43
-4 30 4 38 3 27 -4 -12 -9 -10 -11 10 -12 14 0 43 -2 65 -4 22 -2 158 -7 303
-11 214 -5 265 -4 279 7 9 8 14 9 11 4 -8 -13 227 7 357 30 104 18 293 63 314
75 16 8 24 40 11 40 -4 0 -26 -7 -49 -14 -22 -8 -50 -13 -61 -11 -12 2 -27 2
-35 -2 -22 -8 -7 -25 16 -18 10 4 19 2 19 -3 0 -14 -47 -21 -59 -9 -6 6 -11 7
-11 3 0 -5 -7 -2 -17 5 -15 13 -15 12 -3 -11 12 -23 12 -24 -3 -11 -10 7 -17
9 -17 4 0 -5 -10 -9 -21 -10 -20 -2 -20 -1 -3 12 16 11 10 11 -36 3 -63 -12
-70 -16 -51 -27 10 -7 10 -9 -3 -14 -9 -4 -17 1 -20 11 -5 14 -16 16 -60 14
-37 -3 -56 -9 -60 -19 -5 -12 -2 -13 11 -8 32 14 89 18 77 6 -12 -13 -174 -31
-174 -19 0 9 13 11 46 9 12 -1 24 5 28 14 3 10 2 14 -4 10 -12 -8 -44 -11
-190 -20 -58 -4 -106 -11 -108 -16 -2 -5 -10 -9 -18 -9 -9 0 -13 4 -9 9 3 5
-14 9 -37 9 -77 0 -556 36 -633 47 -16 3 -82 9 -145 15 -63 6 -140 13 -170 16
-77 7 -354 53 -420 69 -30 7 -89 19 -130 25 -129 20 -471 124 -566 173 -55 28
-74 30 -74 9z"/>
<path d="M110 570 c14 -4 36 -8 50 -8 23 -1 23 0 5 8 -11 5 -33 8 -50 8 -29 0
-29 0 -5 -8z"/>
<path d="M1205 495 c50 -13 102 -24 118 -24 15 -1 27 -5 27 -10 0 -13 36 -20
125 -22 99 -2 149 -18 55 -17 -36 0 -109 3 -163 7 -55 3 -101 3 -104 -1 -4 -8
32 -13 75 -10 12 0 21 -2 18 -6 -5 -9 62 -12 424 -15 168 -2 312 0 320 4 8 4
85 21 170 38 164 33 283 62 277 67 -2 2 -46 -5 -98 -16 -227 -47 -579 -68
-809 -48 -58 5 -135 10 -171 11 -37 1 -65 5 -63 8 2 3 -50 15 -114 28 -172 32
-187 33 -87 6z"/>
<path d="M1150 466 c0 -18 38 -17 44 1 4 8 -3 13 -19 13 -15 0 -25 -6 -25 -14z"/>
<path d="M837 430 c18 -4 40 -13 49 -20 12 -11 15 -11 12 1 -3 16 -31 27 -68
27 -20 0 -19 -2 7 -8z"/>
<path d="M2448 379 c-15 -10 -10 -11 60 -11 50 0 88 11 46 13 -10 1 -36 2 -56
3 -20 2 -43 -1 -50 -5z"/>
<path d="M2585 370 c4 -6 59 -10 127 -10 67 0 119 2 117 4 -10 9 -249 15 -244
6z"/>
<path d="M2965 355 l-30 -13 33 -1 c22 -1 32 4 32 14 0 8 -1 15 -2 15 -2 -1
-16 -7 -33 -15z"/>
<path d="M990 200 c-8 -15 -17 -19 -31 -15 -10 4 -19 2 -19 -3 0 -14 38 -22
43 -8 3 8 8 8 18 -1 20 -19 35 -16 36 8 2 21 1 21 -12 3 -13 -18 -14 -18 -20
-2 -4 9 -4 22 0 28 3 5 4 10 1 10 -3 0 -10 -9 -16 -20z"/>
<path d="M2935 160 c-4 -6 -19 -16 -33 -22 -24 -10 -25 -12 -7 -16 10 -2 21 1
23 7 2 6 10 11 17 11 18 0 28 17 16 24 -5 4 -13 1 -16 -4z"/>
<path d="M623 152 c-39 -6 -25 -18 22 -20 26 -1 45 3 45 9 0 6 -5 7 -10 4 -6
-4 -16 -3 -23 2 -7 5 -22 7 -34 5z"/>
<path d="M1713 103 c0 -24 5 -43 10 -43 6 0 7 3 4 7 -4 3 -2 12 5 20 6 7 8 16
4 20 -3 3 -7 0 -7 -8 -1 -8 -5 0 -9 16 -7 27 -8 26 -7 -12z"/>
<path d="M1824 105 c8 -8 20 -15 27 -15 9 0 9 -3 -1 -14 -10 -13 -8 -13 14 -3
33 15 33 27 2 27 -14 0 -28 5 -31 10 -3 6 -11 10 -16 10 -6 0 -4 -7 5 -15z"/>
<path d="M2830 104 c0 -8 6 -14 13 -14 7 0 28 -9 48 -19 20 -11 41 -16 48 -11
9 5 10 10 2 14 -6 4 -11 3 -11 -3 0 -6 -16 -1 -35 10 -19 12 -33 24 -31 28 3
4 -4 8 -15 8 -10 1 -19 -5 -19 -13z"/>
<path d="M2703 103 c-26 -10 -12 -19 23 -15 25 3 32 7 23 13 -15 10 -27 10
-46 2z"/>
</g>
</svg>
