<svg width="1316" height="434" viewBox="0 0 1316 434" fill="none" xmlns="http://www.w3.org/2000/svg">
<g filter="url(#filter0_dddd_190_76)">
<mask id="path-1-outside-1_190_76" maskUnits="userSpaceOnUse" x="21.9316" y="22.2" width="1017" height="156" fill="black">
<rect fill="white" x="21.9316" y="22.2" width="1017" height="156"/>
<path d="M96.15 40.45L97.5 38.8L95.85 40C85.95 47.35 79.8 59.2 79.8 76.9V118.6C79.8 123.85 75 128.35 69.75 128.35C64.5 128.35 60 123.85 60 118.6V39.25C60 35.5 57.3 32.95 53.55 32.95C43.05 32.95 37.65 45.1 37.65 52.9C37.65 62.35 42.6 71.8 50.85 74.05C49.2 76.9 45 80.05 40.5 80.05C31.2 80.05 27 65.5 27 58.15C27 43.6 37.35 28 60 28C66.9 28 71.55 31.9 71.55 39.25V118.6C71.55 120.25 72.6 121 73.5 121C74.55 121 75.6 120.1 75.6 118.6V78.1C75.6 47.05 94.05 28 125.1 28V32.95C107.4 35.5 93.6 55.3 93.6 78.85C93.6 102.25 107.25 121.75 125.1 123.7V128.35C100.95 128.35 81.6 106 81.6 78.4C81.6 63.1 87.45 50.05 96.15 40.45ZM149.422 68.95C145.072 68.95 143.722 73.3 143.722 76.9V103.15C144.472 103.45 145.522 103.6 146.272 103.6C151.072 103.6 154.972 97.9 154.972 93.1V76.9C154.972 73.6 154.072 68.95 149.422 68.95ZM149.422 63.1C159.472 63.1 166.522 70 166.522 79.45V95.35C166.372 103.45 158.272 109.45 150.022 109.45C147.922 109.45 146.122 109.3 144.172 108.7C146.122 117.85 154.222 120.55 159.472 120.55C166.822 120.55 174.022 114.85 174.022 104.5H177.922C177.922 117.7 168.772 128.35 157.072 128.35C144.022 128.35 132.322 120.25 132.322 104.5V79.45C132.322 70.3 140.272 63.1 149.422 63.1ZM183.82 63.1C188.02 63.1 191.47 65.8 192.82 69.55C195.82 65.65 200.77 63.1 206.02 63.1C215.17 63.1 222.52 70.3 222.52 79.45V116.8C222.52 118.9 224.02 120.55 226.12 120.55C228.22 120.55 230.02 118.9 230.02 116.8V104.5H233.92V116.8C233.92 123.25 228.97 128.35 222.52 128.35C216.07 128.35 210.82 123.25 210.82 116.8V79.45C210.82 74.65 206.92 70.75 202.12 70.75C197.32 70.75 193.42 74.65 193.42 79.45V128.35H182.02V72.85C182.02 71.2 180.97 70.45 179.92 70.45C179.02 70.45 177.97 71.2 177.97 72.85V104.5H174.07V72.85C174.07 67.6 178.57 63.1 183.82 63.1ZM250.277 70.9C245.477 70.9 241.427 74.65 241.427 79.45V111.85C241.427 116.65 245.477 120.55 250.277 120.55C258.227 120.55 258.977 108.25 258.977 98.95V79.45C258.977 74.65 255.077 70.9 250.277 70.9ZM268.577 63.1C273.827 63.1 278.327 67.6 278.327 72.85V116.8C278.327 118.9 279.977 120.55 282.077 120.55C284.177 120.55 285.977 118.9 285.977 116.8V104.5H289.877V116.8C289.877 123.25 284.777 128.35 278.327 128.35C271.877 128.35 266.777 123.25 266.777 116.8V72.85C266.777 71.2 265.877 70.45 264.827 70.45C263.927 70.45 262.877 71.2 262.877 72.85V79.6V102.55C262.877 115.3 259.877 128.35 246.527 128.35C237.377 128.35 230.027 121 230.027 111.85V79.6C230.027 70.45 237.377 63.1 246.527 63.1C251.777 63.1 256.427 65.65 259.427 69.55C260.777 65.8 264.377 63.1 268.577 63.1ZM305.334 73V163.45C305.334 164.95 306.384 165.85 307.434 165.85C308.334 165.85 309.234 165.1 309.234 163.45V74.95C309.234 67.3 313.284 63.1 319.284 63.1C336.684 63.1 345.234 85.9 345.234 99.25C345.234 112.45 338.934 128.65 326.334 128.65C321.834 128.65 317.634 125.5 315.984 122.65C326.784 121.75 333.234 107.35 333.234 93.4C333.234 79.6 323.334 67.9 317.484 67.9C315.084 67.9 313.284 70 313.284 74.8V140.2V163.45C313.284 168.7 308.784 173.2 303.534 173.2C298.284 173.2 293.934 168.7 293.934 163.45V145.45V73C293.934 71.5 292.884 70.45 291.834 70.45C290.934 70.45 289.884 71.35 289.884 73V104.5H285.984V73C285.984 67.75 290.334 63.1 295.734 63.1C301.284 63.1 305.334 67.6 305.334 73ZM372.152 70.9C367.352 70.9 363.302 74.65 363.302 79.45V111.85C363.302 116.65 367.352 120.55 372.152 120.55C380.102 120.55 380.852 108.25 380.852 98.95V79.45C380.852 74.65 376.952 70.9 372.152 70.9ZM390.452 63.1C395.702 63.1 400.202 67.6 400.202 72.85V116.8C400.202 118.9 401.852 120.55 403.952 120.55C406.052 120.55 407.852 118.9 407.852 116.8V104.5H411.752V116.8C411.752 123.25 406.652 128.35 400.202 128.35C393.752 128.35 388.652 123.25 388.652 116.8V72.85C388.652 71.2 387.752 70.45 386.702 70.45C385.802 70.45 384.752 71.2 384.752 72.85V79.6V102.55C384.752 115.3 381.752 128.35 368.402 128.35C359.252 128.35 351.902 121 351.902 111.85V79.6C351.902 70.45 359.252 63.1 368.402 63.1C373.652 63.1 378.302 65.65 381.302 69.55C382.652 65.8 386.252 63.1 390.452 63.1ZM440.379 83.95C440.379 52.9 463.929 28 488.979 28C508.329 28 523.029 42.85 526.629 63.1H521.979C518.679 47.35 507.129 36.1 492.429 36.1C471.429 36.1 453.129 58.15 453.129 85.15C453.129 105.1 462.429 120.1 479.679 120.1C489.729 120.1 499.779 112.9 499.779 101.35C499.779 88.75 490.029 79.45 479.679 79.45C473.379 79.45 469.779 71.2 469.779 68.8H499.779C514.929 68.8 520.479 74.8 520.479 89.2V128.35H508.779V87.25C508.779 82.75 506.979 79.45 502.479 79.45H493.929C500.679 83.8 505.029 92.05 505.029 101.95C504.879 116.05 494.229 128.35 478.929 128.35C456.729 128.35 440.379 108.85 440.379 83.95ZM554.086 70.9C549.286 70.9 545.236 74.65 545.236 79.45V111.85C545.236 116.65 549.286 120.55 554.086 120.55C562.036 120.55 562.786 108.25 562.786 98.95V79.45C562.786 74.65 558.886 70.9 554.086 70.9ZM572.386 63.1C577.636 63.1 582.136 67.6 582.136 72.85V116.8C582.136 118.9 583.786 120.55 585.886 120.55C587.986 120.55 589.786 118.9 589.786 116.8V104.5H593.686V116.8C593.686 123.25 588.586 128.35 582.136 128.35C575.686 128.35 570.586 123.25 570.586 116.8V72.85C570.586 71.2 569.686 70.45 568.636 70.45C567.736 70.45 566.686 71.2 566.686 72.85V79.6V102.55C566.686 115.3 563.686 128.35 550.336 128.35C541.186 128.35 533.836 121 533.836 111.85V79.6C533.836 70.45 541.186 63.1 550.336 63.1C555.586 63.1 560.236 65.65 563.236 69.55C564.586 65.8 568.186 63.1 572.386 63.1ZM599.543 63.1C603.293 63.1 606.443 65.2 608.093 68.2C610.493 65.05 614.393 63.1 618.593 63.1C623.393 63.1 627.593 65.65 629.843 69.4C632.093 65.65 636.593 63.1 641.393 63.1C648.743 63.1 654.593 69.1 654.593 76.45V116.8C654.593 118.9 656.243 120.55 658.343 120.55C660.443 120.55 662.243 118.9 662.243 116.8V104.5H666.143V116.8C666.143 123.25 661.043 128.35 654.593 128.35C648.143 128.35 643.043 123.25 643.043 116.8V75.85C643.043 72.7 640.643 70.3 637.493 70.3C634.343 70.3 631.943 72.7 631.943 75.85V115.6H620.393V75.85C620.393 72.7 617.843 70.3 614.693 70.3C611.543 70.3 609.143 72.7 609.143 75.85V128.35H597.743V72.85C597.743 71.2 596.693 70.45 595.643 70.45C594.743 70.45 593.693 71.2 593.693 72.85V104.5H589.793V72.85C589.793 67.6 594.293 63.1 599.543 63.1ZM682.553 70.9C677.753 70.9 673.703 74.65 673.703 79.45V111.85C673.703 116.65 677.753 120.55 682.553 120.55C690.503 120.55 691.253 108.25 691.253 98.95V79.45C691.253 74.65 687.353 70.9 682.553 70.9ZM700.853 63.1C706.103 63.1 710.603 67.6 710.603 72.85V116.8C710.603 118.9 712.253 120.55 714.353 120.55C716.453 120.55 718.253 118.9 718.253 116.8V104.5H722.153V116.8C722.153 123.25 717.053 128.35 710.603 128.35C704.153 128.35 699.053 123.25 699.053 116.8V72.85C699.053 71.2 698.153 70.45 697.103 70.45C696.203 70.45 695.153 71.2 695.153 72.85V79.6V102.55C695.153 115.3 692.153 128.35 678.803 128.35C669.653 128.35 662.303 121 662.303 111.85V79.6C662.303 70.45 669.653 63.1 678.803 63.1C684.053 63.1 688.703 65.65 691.703 69.55C693.053 65.8 696.653 63.1 700.853 63.1ZM738.51 70.9C733.71 70.9 729.66 74.65 729.66 79.45V111.85C729.66 116.65 733.71 120.55 738.51 120.55C746.46 120.55 747.21 108.4 747.21 99.25V79.45C747.21 74.65 743.31 70.9 738.51 70.9ZM766.56 128.35C759.66 128.35 755.01 124.3 755.01 116.95V37.6C755.01 36.1 754.11 35.35 753.06 35.35C752.16 35.35 751.11 36.1 751.11 37.6V104.5C751.11 116.5 747.21 128.35 734.76 128.35C725.61 128.35 718.26 121 718.26 111.85V79.6C718.26 70.45 725.61 63.1 734.76 63.1C739.86 63.1 744.21 65.35 747.21 68.95V37.6C747.21 32.35 751.56 28 756.81 28C762.06 28 766.56 32.35 766.56 37.6V116.8C766.56 118.9 768.21 120.55 770.31 120.55C772.41 120.55 774.21 118.9 774.21 116.8V104.5H778.11V116.8C778.11 123.25 773.01 128.35 766.56 128.35ZM794.467 70.9C789.667 70.9 785.617 74.65 785.617 79.45V111.85C785.617 116.65 789.667 120.55 794.467 120.55C802.417 120.55 803.167 108.25 803.167 98.95V79.45C803.167 74.65 799.267 70.9 794.467 70.9ZM812.767 63.1C818.017 63.1 822.517 67.6 822.517 72.85V116.8C822.517 118.9 824.167 120.55 826.267 120.55C828.367 120.55 830.167 118.9 830.167 116.8V104.5H834.067V116.8C834.067 123.25 828.967 128.35 822.517 128.35C816.067 128.35 810.967 123.25 810.967 116.8V72.85C810.967 71.2 810.067 70.45 809.017 70.45C808.117 70.45 807.067 71.2 807.067 72.85V79.6V102.55C807.067 115.3 804.067 128.35 790.717 128.35C781.567 128.35 774.217 121 774.217 111.85V79.6C774.217 70.45 781.567 63.1 790.717 63.1C795.967 63.1 800.617 65.65 803.617 69.55C804.967 65.8 808.567 63.1 812.767 63.1ZM839.924 63.1C844.124 63.1 847.574 65.8 848.924 69.55C851.924 65.65 856.874 63.1 862.124 63.1C871.274 63.1 878.624 70.3 878.624 79.45V116.8C878.624 118.9 880.124 120.55 882.224 120.55C884.324 120.55 886.124 118.9 886.124 116.8V104.5H890.024V116.8C890.024 123.25 885.074 128.35 878.624 128.35C872.174 128.35 866.924 123.25 866.924 116.8V79.45C866.924 74.65 863.024 70.75 858.224 70.75C853.424 70.75 849.524 74.65 849.524 79.45V128.35H838.124V72.85C838.124 71.2 837.074 70.45 836.024 70.45C835.124 70.45 834.074 71.2 834.074 72.85V104.5H830.174V72.85C830.174 67.6 834.674 63.1 839.924 63.1ZM886.131 83.95C886.131 52.9 909.681 28 934.731 28C954.081 28 968.781 42.85 972.381 63.1H967.731C964.431 47.35 952.881 36.1 938.181 36.1C917.181 36.1 898.881 58.15 898.881 85.15C898.881 105.1 908.181 120.1 925.431 120.1C935.481 120.1 945.531 112.9 945.531 101.35C945.531 88.75 935.781 79.45 925.431 79.45C919.131 79.45 915.531 71.2 915.531 68.8H945.531C960.681 68.8 966.231 74.8 966.231 89.2V128.35H954.531V87.25C954.531 82.75 952.731 79.45 948.231 79.45H939.681C946.431 83.8 950.781 92.05 950.781 101.95C950.631 116.05 939.981 128.35 924.681 128.35C902.481 128.35 886.131 108.85 886.131 83.95ZM1009.74 114.55C1013.49 114.55 1016.64 117.7 1016.64 121.45C1016.64 125.2 1013.49 128.35 1009.74 128.35C1005.99 128.35 1002.84 125.2 1002.84 121.45C1002.84 117.7 1005.99 114.55 1009.74 114.55ZM1033.89 52.15V63.1C1033.89 82.9 1010.64 91 1010.64 109.3H1007.19C1007.19 91.6 1022.34 80.95 1022.34 62.95V45.7C1022.34 38.65 1016.79 32.95 1009.74 32.95C1002.69 32.95 996.988 38.65 996.988 45.7V68.5C996.988 69.7 998.038 70.45 999.088 70.45C999.988 70.45 1001.04 69.7 1001.04 68.5V47.95H1004.94V68.5C1004.94 73.75 1000.59 78.1 995.338 78.1C990.088 78.1 985.588 73.75 985.588 68.5V52.15C985.588 36.1 997.738 28 1009.74 28C1021.89 28 1033.89 36.1 1033.89 52.15Z"/>
</mask>
<path d="M96.15 40.45L97.5 38.8L95.85 40C85.95 47.35 79.8 59.2 79.8 76.9V118.6C79.8 123.85 75 128.35 69.75 128.35C64.5 128.35 60 123.85 60 118.6V39.25C60 35.5 57.3 32.95 53.55 32.95C43.05 32.95 37.65 45.1 37.65 52.9C37.65 62.35 42.6 71.8 50.85 74.05C49.2 76.9 45 80.05 40.5 80.05C31.2 80.05 27 65.5 27 58.15C27 43.6 37.35 28 60 28C66.9 28 71.55 31.9 71.55 39.25V118.6C71.55 120.25 72.6 121 73.5 121C74.55 121 75.6 120.1 75.6 118.6V78.1C75.6 47.05 94.05 28 125.1 28V32.95C107.4 35.5 93.6 55.3 93.6 78.85C93.6 102.25 107.25 121.75 125.1 123.7V128.35C100.95 128.35 81.6 106 81.6 78.4C81.6 63.1 87.45 50.05 96.15 40.45ZM149.422 68.95C145.072 68.95 143.722 73.3 143.722 76.9V103.15C144.472 103.45 145.522 103.6 146.272 103.6C151.072 103.6 154.972 97.9 154.972 93.1V76.9C154.972 73.6 154.072 68.95 149.422 68.95ZM149.422 63.1C159.472 63.1 166.522 70 166.522 79.45V95.35C166.372 103.45 158.272 109.45 150.022 109.45C147.922 109.45 146.122 109.3 144.172 108.7C146.122 117.85 154.222 120.55 159.472 120.55C166.822 120.55 174.022 114.85 174.022 104.5H177.922C177.922 117.7 168.772 128.35 157.072 128.35C144.022 128.35 132.322 120.25 132.322 104.5V79.45C132.322 70.3 140.272 63.1 149.422 63.1ZM183.82 63.1C188.02 63.1 191.47 65.8 192.82 69.55C195.82 65.65 200.77 63.1 206.02 63.1C215.17 63.1 222.52 70.3 222.52 79.45V116.8C222.52 118.9 224.02 120.55 226.12 120.55C228.22 120.55 230.02 118.9 230.02 116.8V104.5H233.92V116.8C233.92 123.25 228.97 128.35 222.52 128.35C216.07 128.35 210.82 123.25 210.82 116.8V79.45C210.82 74.65 206.92 70.75 202.12 70.75C197.32 70.75 193.42 74.65 193.42 79.45V128.35H182.02V72.85C182.02 71.2 180.97 70.45 179.92 70.45C179.02 70.45 177.97 71.2 177.97 72.85V104.5H174.07V72.85C174.07 67.6 178.57 63.1 183.82 63.1ZM250.277 70.9C245.477 70.9 241.427 74.65 241.427 79.45V111.85C241.427 116.65 245.477 120.55 250.277 120.55C258.227 120.55 258.977 108.25 258.977 98.95V79.45C258.977 74.65 255.077 70.9 250.277 70.9ZM268.577 63.1C273.827 63.1 278.327 67.6 278.327 72.85V116.8C278.327 118.9 279.977 120.55 282.077 120.55C284.177 120.55 285.977 118.9 285.977 116.8V104.5H289.877V116.8C289.877 123.25 284.777 128.35 278.327 128.35C271.877 128.35 266.777 123.25 266.777 116.8V72.85C266.777 71.2 265.877 70.45 264.827 70.45C263.927 70.45 262.877 71.2 262.877 72.85V79.6V102.55C262.877 115.3 259.877 128.35 246.527 128.35C237.377 128.35 230.027 121 230.027 111.85V79.6C230.027 70.45 237.377 63.1 246.527 63.1C251.777 63.1 256.427 65.65 259.427 69.55C260.777 65.8 264.377 63.1 268.577 63.1ZM305.334 73V163.45C305.334 164.95 306.384 165.85 307.434 165.85C308.334 165.85 309.234 165.1 309.234 163.45V74.95C309.234 67.3 313.284 63.1 319.284 63.1C336.684 63.1 345.234 85.9 345.234 99.25C345.234 112.45 338.934 128.65 326.334 128.65C321.834 128.65 317.634 125.5 315.984 122.65C326.784 121.75 333.234 107.35 333.234 93.4C333.234 79.6 323.334 67.9 317.484 67.9C315.084 67.9 313.284 70 313.284 74.8V140.2V163.45C313.284 168.7 308.784 173.2 303.534 173.2C298.284 173.2 293.934 168.7 293.934 163.45V145.45V73C293.934 71.5 292.884 70.45 291.834 70.45C290.934 70.45 289.884 71.35 289.884 73V104.5H285.984V73C285.984 67.75 290.334 63.1 295.734 63.1C301.284 63.1 305.334 67.6 305.334 73ZM372.152 70.9C367.352 70.9 363.302 74.65 363.302 79.45V111.85C363.302 116.65 367.352 120.55 372.152 120.55C380.102 120.55 380.852 108.25 380.852 98.95V79.45C380.852 74.65 376.952 70.9 372.152 70.9ZM390.452 63.1C395.702 63.1 400.202 67.6 400.202 72.85V116.8C400.202 118.9 401.852 120.55 403.952 120.55C406.052 120.55 407.852 118.9 407.852 116.8V104.5H411.752V116.8C411.752 123.25 406.652 128.35 400.202 128.35C393.752 128.35 388.652 123.25 388.652 116.8V72.85C388.652 71.2 387.752 70.45 386.702 70.45C385.802 70.45 384.752 71.2 384.752 72.85V79.6V102.55C384.752 115.3 381.752 128.35 368.402 128.35C359.252 128.35 351.902 121 351.902 111.85V79.6C351.902 70.45 359.252 63.1 368.402 63.1C373.652 63.1 378.302 65.65 381.302 69.55C382.652 65.8 386.252 63.1 390.452 63.1ZM440.379 83.95C440.379 52.9 463.929 28 488.979 28C508.329 28 523.029 42.85 526.629 63.1H521.979C518.679 47.35 507.129 36.1 492.429 36.1C471.429 36.1 453.129 58.15 453.129 85.15C453.129 105.1 462.429 120.1 479.679 120.1C489.729 120.1 499.779 112.9 499.779 101.35C499.779 88.75 490.029 79.45 479.679 79.45C473.379 79.45 469.779 71.2 469.779 68.8H499.779C514.929 68.8 520.479 74.8 520.479 89.2V128.35H508.779V87.25C508.779 82.75 506.979 79.45 502.479 79.45H493.929C500.679 83.8 505.029 92.05 505.029 101.95C504.879 116.05 494.229 128.35 478.929 128.35C456.729 128.35 440.379 108.85 440.379 83.95ZM554.086 70.9C549.286 70.9 545.236 74.65 545.236 79.45V111.85C545.236 116.65 549.286 120.55 554.086 120.55C562.036 120.55 562.786 108.25 562.786 98.95V79.45C562.786 74.65 558.886 70.9 554.086 70.9ZM572.386 63.1C577.636 63.1 582.136 67.6 582.136 72.85V116.8C582.136 118.9 583.786 120.55 585.886 120.55C587.986 120.55 589.786 118.9 589.786 116.8V104.5H593.686V116.8C593.686 123.25 588.586 128.35 582.136 128.35C575.686 128.35 570.586 123.25 570.586 116.8V72.85C570.586 71.2 569.686 70.45 568.636 70.45C567.736 70.45 566.686 71.2 566.686 72.85V79.6V102.55C566.686 115.3 563.686 128.35 550.336 128.35C541.186 128.35 533.836 121 533.836 111.85V79.6C533.836 70.45 541.186 63.1 550.336 63.1C555.586 63.1 560.236 65.65 563.236 69.55C564.586 65.8 568.186 63.1 572.386 63.1ZM599.543 63.1C603.293 63.1 606.443 65.2 608.093 68.2C610.493 65.05 614.393 63.1 618.593 63.1C623.393 63.1 627.593 65.65 629.843 69.4C632.093 65.65 636.593 63.1 641.393 63.1C648.743 63.1 654.593 69.1 654.593 76.45V116.8C654.593 118.9 656.243 120.55 658.343 120.55C660.443 120.55 662.243 118.9 662.243 116.8V104.5H666.143V116.8C666.143 123.25 661.043 128.35 654.593 128.35C648.143 128.35 643.043 123.25 643.043 116.8V75.85C643.043 72.7 640.643 70.3 637.493 70.3C634.343 70.3 631.943 72.7 631.943 75.85V115.6H620.393V75.85C620.393 72.7 617.843 70.3 614.693 70.3C611.543 70.3 609.143 72.7 609.143 75.85V128.35H597.743V72.85C597.743 71.2 596.693 70.45 595.643 70.45C594.743 70.45 593.693 71.2 593.693 72.85V104.5H589.793V72.85C589.793 67.6 594.293 63.1 599.543 63.1ZM682.553 70.9C677.753 70.9 673.703 74.65 673.703 79.45V111.85C673.703 116.65 677.753 120.55 682.553 120.55C690.503 120.55 691.253 108.25 691.253 98.95V79.45C691.253 74.65 687.353 70.9 682.553 70.9ZM700.853 63.1C706.103 63.1 710.603 67.6 710.603 72.85V116.8C710.603 118.9 712.253 120.55 714.353 120.55C716.453 120.55 718.253 118.9 718.253 116.8V104.5H722.153V116.8C722.153 123.25 717.053 128.35 710.603 128.35C704.153 128.35 699.053 123.25 699.053 116.8V72.85C699.053 71.2 698.153 70.45 697.103 70.45C696.203 70.45 695.153 71.2 695.153 72.85V79.6V102.55C695.153 115.3 692.153 128.35 678.803 128.35C669.653 128.35 662.303 121 662.303 111.85V79.6C662.303 70.45 669.653 63.1 678.803 63.1C684.053 63.1 688.703 65.65 691.703 69.55C693.053 65.8 696.653 63.1 700.853 63.1ZM738.51 70.9C733.71 70.9 729.66 74.65 729.66 79.45V111.85C729.66 116.65 733.71 120.55 738.51 120.55C746.46 120.55 747.21 108.4 747.21 99.25V79.45C747.21 74.65 743.31 70.9 738.51 70.9ZM766.56 128.35C759.66 128.35 755.01 124.3 755.01 116.95V37.6C755.01 36.1 754.11 35.35 753.06 35.35C752.16 35.35 751.11 36.1 751.11 37.6V104.5C751.11 116.5 747.21 128.35 734.76 128.35C725.61 128.35 718.26 121 718.26 111.85V79.6C718.26 70.45 725.61 63.1 734.76 63.1C739.86 63.1 744.21 65.35 747.21 68.95V37.6C747.21 32.35 751.56 28 756.81 28C762.06 28 766.56 32.35 766.56 37.6V116.8C766.56 118.9 768.21 120.55 770.31 120.55C772.41 120.55 774.21 118.9 774.21 116.8V104.5H778.11V116.8C778.11 123.25 773.01 128.35 766.56 128.35ZM794.467 70.9C789.667 70.9 785.617 74.65 785.617 79.45V111.85C785.617 116.65 789.667 120.55 794.467 120.55C802.417 120.55 803.167 108.25 803.167 98.95V79.45C803.167 74.65 799.267 70.9 794.467 70.9ZM812.767 63.1C818.017 63.1 822.517 67.6 822.517 72.85V116.8C822.517 118.9 824.167 120.55 826.267 120.55C828.367 120.55 830.167 118.9 830.167 116.8V104.5H834.067V116.8C834.067 123.25 828.967 128.35 822.517 128.35C816.067 128.35 810.967 123.25 810.967 116.8V72.85C810.967 71.2 810.067 70.45 809.017 70.45C808.117 70.45 807.067 71.2 807.067 72.85V79.6V102.55C807.067 115.3 804.067 128.35 790.717 128.35C781.567 128.35 774.217 121 774.217 111.85V79.6C774.217 70.45 781.567 63.1 790.717 63.1C795.967 63.1 800.617 65.65 803.617 69.55C804.967 65.8 808.567 63.1 812.767 63.1ZM839.924 63.1C844.124 63.1 847.574 65.8 848.924 69.55C851.924 65.65 856.874 63.1 862.124 63.1C871.274 63.1 878.624 70.3 878.624 79.45V116.8C878.624 118.9 880.124 120.55 882.224 120.55C884.324 120.55 886.124 118.9 886.124 116.8V104.5H890.024V116.8C890.024 123.25 885.074 128.35 878.624 128.35C872.174 128.35 866.924 123.25 866.924 116.8V79.45C866.924 74.65 863.024 70.75 858.224 70.75C853.424 70.75 849.524 74.65 849.524 79.45V128.35H838.124V72.85C838.124 71.2 837.074 70.45 836.024 70.45C835.124 70.45 834.074 71.2 834.074 72.85V104.5H830.174V72.85C830.174 67.6 834.674 63.1 839.924 63.1ZM886.131 83.95C886.131 52.9 909.681 28 934.731 28C954.081 28 968.781 42.85 972.381 63.1H967.731C964.431 47.35 952.881 36.1 938.181 36.1C917.181 36.1 898.881 58.15 898.881 85.15C898.881 105.1 908.181 120.1 925.431 120.1C935.481 120.1 945.531 112.9 945.531 101.35C945.531 88.75 935.781 79.45 925.431 79.45C919.131 79.45 915.531 71.2 915.531 68.8H945.531C960.681 68.8 966.231 74.8 966.231 89.2V128.35H954.531V87.25C954.531 82.75 952.731 79.45 948.231 79.45H939.681C946.431 83.8 950.781 92.05 950.781 101.95C950.631 116.05 939.981 128.35 924.681 128.35C902.481 128.35 886.131 108.85 886.131 83.95ZM1009.74 114.55C1013.49 114.55 1016.64 117.7 1016.64 121.45C1016.64 125.2 1013.49 128.35 1009.74 128.35C1005.99 128.35 1002.84 125.2 1002.84 121.45C1002.84 117.7 1005.99 114.55 1009.74 114.55ZM1033.89 52.15V63.1C1033.89 82.9 1010.64 91 1010.64 109.3H1007.19C1007.19 91.6 1022.34 80.95 1022.34 62.95V45.7C1022.34 38.65 1016.79 32.95 1009.74 32.95C1002.69 32.95 996.988 38.65 996.988 45.7V68.5C996.988 69.7 998.038 70.45 999.088 70.45C999.988 70.45 1001.04 69.7 1001.04 68.5V47.95H1004.94V68.5C1004.94 73.75 1000.59 78.1 995.338 78.1C990.088 78.1 985.588 73.75 985.588 68.5V52.15C985.588 36.1 997.738 28 1009.74 28C1021.89 28 1033.89 36.1 1033.89 52.15Z" fill="url(#paint0_linear_190_76)"/>
<path d="M96.15 40.45L99.8549 43.8076C99.9115 43.7452 99.9665 43.6814 100.02 43.6162L96.15 40.45ZM97.5 38.8L101.37 41.9662C102.962 40.0202 102.861 37.1944 101.135 35.3665C99.4081 33.5387 96.5926 33.2774 94.5591 34.7563L97.5 38.8ZM95.85 40L92.9091 35.9563C92.8959 35.966 92.8827 35.9757 92.8695 35.9855L95.85 40ZM50.85 74.05L55.1771 76.5552C55.9545 75.2124 56.0645 73.5848 55.4748 72.1496C54.8851 70.7145 53.6625 69.6344 52.1656 69.2262L50.85 74.05ZM125.1 28H130.1C130.1 25.2386 127.861 23 125.1 23V28ZM125.1 32.95L125.813 37.8989C128.274 37.5444 130.1 35.436 130.1 32.95H125.1ZM125.1 123.7H130.1C130.1 121.149 128.179 119.007 125.643 118.73L125.1 123.7ZM125.1 128.35V133.35C127.861 133.35 130.1 131.111 130.1 128.35H125.1ZM96.15 40.45L100.02 43.6162L101.37 41.9662L97.5 38.8L93.6302 35.6338L92.2802 37.2838L96.15 40.45ZM97.5 38.8L94.5591 34.7563L92.9091 35.9563L95.85 40L98.7909 44.0437L100.441 42.8437L97.5 38.8ZM95.85 40L92.8695 35.9855C81.4758 44.4444 74.8 57.918 74.8 76.9H79.8H84.8C84.8 60.4821 90.4242 50.2556 98.8305 44.0146L95.85 40ZM79.8 76.9H74.8V118.6H79.8H84.8V76.9H79.8ZM79.8 118.6H74.8C74.8 120.896 72.4349 123.35 69.75 123.35V128.35V133.35C77.5651 133.35 84.8 126.804 84.8 118.6H79.8ZM69.75 128.35V123.35C67.2614 123.35 65 121.089 65 118.6H60H55C55 126.611 61.7386 133.35 69.75 133.35V128.35ZM60 118.6H65V39.25H60H55V118.6H60ZM60 39.25H65C65 36.1286 63.8505 33.221 61.6574 31.0998C59.4803 28.9941 56.5748 27.95 53.55 27.95V32.95V37.95C54.2752 37.95 54.5947 38.1809 54.7051 38.2877C54.7995 38.379 55 38.6214 55 39.25H60ZM53.55 32.95V27.95C46.104 27.95 40.7549 32.3247 37.4963 37.2355C34.2837 42.077 32.65 48.0281 32.65 52.9H37.65H42.65C42.65 49.9719 43.7163 45.948 45.8287 42.7645C47.8951 39.6503 50.496 37.95 53.55 37.95V32.95ZM37.65 52.9H32.65C32.65 63.5512 38.2374 75.7928 49.5344 78.8738L50.85 74.05L52.1656 69.2262C46.9626 67.8072 42.65 61.1488 42.65 52.9H37.65ZM50.85 74.05L46.5229 71.5448C46.1651 72.1627 45.3239 73.1052 44.082 73.8861C42.8643 74.6519 41.6005 75.05 40.5 75.05V80.05V85.05C43.8995 85.05 46.9857 83.8731 49.4055 82.3514C51.8011 80.8449 53.8849 78.7873 55.1771 76.5552L50.85 74.05ZM40.5 80.05V75.05C38.835 75.05 36.7374 73.7437 34.7602 69.6722C32.8927 65.8263 32 61.1021 32 58.15H27H22C22 62.5479 23.2073 68.7738 25.7648 74.0404C28.2126 79.0813 32.865 85.05 40.5 85.05V80.05ZM27 58.15H32C32 52.0198 34.1854 45.7544 38.6357 41.0578C43.013 36.4381 49.8998 33 60 33V28V23C47.4502 23 37.837 27.3619 31.3768 34.1797C24.9896 40.9206 22 49.7302 22 58.15H27ZM60 28V33C62.5364 33 64.0786 33.7083 64.9473 34.5207C65.7647 35.2851 66.55 36.6648 66.55 39.25H71.55H76.55C76.55 34.4852 75.0103 30.24 71.7777 27.2169C68.5964 24.2418 64.3636 23 60 23V28ZM71.55 39.25H66.55V118.6H71.55H76.55V39.25H71.55ZM71.55 118.6H66.55C66.55 122.779 69.6115 126 73.5 126V121V116C74.4093 116 75.2332 116.367 75.8082 116.97C76.4352 117.629 76.55 118.321 76.55 118.6H71.55ZM73.5 121V126C77.5281 126 80.6 122.64 80.6 118.6H75.6H70.6C70.6 117.56 71.5719 116 73.5 116V121ZM75.6 118.6H80.6V78.1H75.6H70.6V118.6H75.6ZM75.6 78.1H80.6C80.6 63.5619 84.9022 52.4113 92.2726 44.9107C99.6312 37.4221 110.61 33 125.1 33V28V23C108.54 23 94.7688 28.1029 85.1399 37.9018C75.5228 47.6888 70.6 61.5881 70.6 78.1H75.6ZM125.1 28H120.1V32.95H125.1H130.1V28H125.1ZM125.1 32.95L124.387 28.0011C103.327 31.0351 88.6 53.8459 88.6 78.85H93.6H98.6C98.6 56.7541 111.473 39.9649 125.813 37.8989L125.1 32.95ZM93.6 78.85H88.6C88.6 103.666 103.183 126.335 124.557 128.67L125.1 123.7L125.643 118.73C111.317 117.165 98.6 100.834 98.6 78.85H93.6ZM125.1 123.7H120.1V128.35H125.1H130.1V123.7H125.1ZM125.1 128.35V123.35C104.346 123.35 86.6 103.919 86.6 78.4H81.6H76.6C76.6 108.081 97.5539 133.35 125.1 133.35V128.35ZM81.6 78.4H86.6C86.6 64.4282 91.928 52.5545 99.8549 43.8076L96.15 40.45L92.4451 37.0924C82.972 47.5455 76.6 61.7718 76.6 78.4H81.6ZM143.722 103.15H138.722C138.722 105.195 139.967 107.033 141.865 107.792L143.722 103.15ZM166.522 95.35L171.521 95.4426C171.522 95.4117 171.522 95.3809 171.522 95.35H166.522ZM144.172 108.7L145.643 103.921C143.948 103.4 142.104 103.815 140.797 105.011C139.489 106.208 138.913 108.008 139.282 109.742L144.172 108.7ZM174.022 104.5V99.5C171.261 99.5 169.022 101.739 169.022 104.5H174.022ZM177.922 104.5H182.922C182.922 101.739 180.684 99.5 177.922 99.5V104.5ZM149.422 68.95V63.95C145.187 63.95 142.233 66.2445 140.603 69.0886C139.131 71.6566 138.722 74.6092 138.722 76.9H143.722H148.722C148.722 76.3 148.78 75.7063 148.892 75.1799C149.006 74.6446 149.155 74.2783 149.279 74.0614C149.396 73.8578 149.442 73.8658 149.357 73.9191C149.244 73.9905 149.209 73.95 149.422 73.95V68.95ZM143.722 76.9H138.722V103.15H143.722H148.722V76.9H143.722ZM143.722 103.15L141.865 107.792C143.354 108.388 145.068 108.6 146.272 108.6V103.6V98.6C146.2 98.6 146.026 98.59 145.819 98.5555C145.724 98.5397 145.647 98.5228 145.594 98.5088C145.536 98.4938 145.535 98.4898 145.579 98.5076L143.722 103.15ZM146.272 103.6V108.6C150.728 108.6 154.214 105.991 156.369 103.22C158.543 100.425 159.972 96.7412 159.972 93.1H154.972H149.972C149.972 94.2588 149.452 95.8251 148.476 97.0803C147.481 98.3592 146.617 98.6 146.272 98.6V103.6ZM154.972 93.1H159.972V76.9H154.972H149.972V93.1H154.972ZM154.972 76.9H159.972C159.972 74.9531 159.732 72.0271 158.392 69.4092C157.687 68.0332 156.614 66.6173 155.006 65.5557C153.368 64.4736 151.46 63.95 149.422 63.95V68.95V73.95C149.71 73.95 149.658 74.0077 149.496 73.9006C149.365 73.8139 149.388 73.7668 149.49 73.9659C149.602 74.1834 149.735 74.5609 149.833 75.125C149.93 75.6765 149.972 76.2889 149.972 76.9H154.972ZM149.422 63.1V68.1C156.892 68.1 161.522 72.9387 161.522 79.45H166.522H171.522C171.522 67.0613 162.053 58.1 149.422 58.1V63.1ZM166.522 79.45H161.522V95.35H166.522H171.522V79.45H166.522ZM166.522 95.35L161.523 95.2574C161.439 99.8225 156.436 104.45 150.022 104.45V109.45V114.45C160.109 114.45 171.306 107.078 171.521 95.4426L166.522 95.35ZM150.022 109.45V104.45C148.181 104.45 146.931 104.318 145.643 103.921L144.172 108.7L142.702 113.479C145.313 114.282 147.664 114.45 150.022 114.45V109.45ZM144.172 108.7L139.282 109.742C141.928 122.159 153.006 125.55 159.472 125.55V120.55V115.55C155.439 115.55 150.316 113.541 149.062 107.658L144.172 108.7ZM159.472 120.55V125.55C169.584 125.55 179.022 117.611 179.022 104.5H174.022H169.022C169.022 112.089 164.061 115.55 159.472 115.55V120.55ZM174.022 104.5V109.5H177.922V104.5V99.5H174.022V104.5ZM177.922 104.5H172.922C172.922 115.618 165.378 123.35 157.072 123.35V128.35V133.35C172.167 133.35 182.922 119.782 182.922 104.5H177.922ZM157.072 128.35V123.35C151.542 123.35 146.592 121.633 143.099 118.571C139.698 115.59 137.322 111.033 137.322 104.5H132.322H127.322C127.322 113.717 130.796 121.085 136.508 126.091C142.128 131.017 149.553 133.35 157.072 133.35V128.35ZM132.322 104.5H137.322V79.45H132.322H127.322V104.5H132.322ZM132.322 79.45H137.322C137.322 73.3478 142.738 68.1 149.422 68.1V63.1V58.1C137.806 58.1 127.322 67.2522 127.322 79.45H132.322ZM192.82 69.55L188.116 71.2436C188.735 72.963 190.243 74.2078 192.048 74.49C193.854 74.7723 195.669 74.047 196.783 72.5986L192.82 69.55ZM230.02 104.5V99.5C227.259 99.5 225.02 101.739 225.02 104.5H230.02ZM233.92 104.5H238.92C238.92 101.739 236.682 99.5 233.92 99.5V104.5ZM193.42 128.35V133.35C196.182 133.35 198.42 131.111 198.42 128.35H193.42ZM182.02 128.35H177.02C177.02 131.111 179.259 133.35 182.02 133.35V128.35ZM177.97 104.5V109.5C180.732 109.5 182.97 107.261 182.97 104.5H177.97ZM174.07 104.5H169.07C169.07 107.261 171.309 109.5 174.07 109.5V104.5ZM183.82 63.1V68.1C185.742 68.1 187.421 69.3126 188.116 71.2436L192.82 69.55L197.525 67.8564C195.52 62.2874 190.299 58.1 183.82 58.1V63.1ZM192.82 69.55L196.783 72.5986C198.85 69.9125 202.343 68.1 206.02 68.1V63.1V58.1C199.197 58.1 192.791 61.3875 188.857 66.5015L192.82 69.55ZM206.02 63.1V68.1C212.469 68.1 217.52 73.1209 217.52 79.45H222.52H227.52C227.52 67.4791 217.872 58.1 206.02 58.1V63.1ZM222.52 79.45H217.52V116.8H222.52H227.52V79.45H222.52ZM222.52 116.8H217.52C217.52 121.388 220.993 125.55 226.12 125.55V120.55V115.55C226.44 115.55 226.857 115.7 227.168 116.029C227.458 116.337 227.52 116.65 227.52 116.8H222.52ZM226.12 120.55V125.55C230.724 125.55 235.02 121.913 235.02 116.8H230.02H225.02C225.02 116.371 225.215 116.026 225.419 115.833C225.61 115.652 225.857 115.55 226.12 115.55V120.55ZM230.02 116.8H235.02V104.5H230.02H225.02V116.8H230.02ZM230.02 104.5V109.5H233.92V104.5V99.5H230.02V104.5ZM233.92 104.5H228.92V116.8H233.92H238.92V104.5H233.92ZM233.92 116.8H228.92C228.92 120.575 226.124 123.35 222.52 123.35V128.35V133.35C231.817 133.35 238.92 125.925 238.92 116.8H233.92ZM222.52 128.35V123.35C218.747 123.35 215.82 120.405 215.82 116.8H210.82H205.82C205.82 126.095 213.393 133.35 222.52 133.35V128.35ZM210.82 116.8H215.82V79.45H210.82H205.82V116.8H210.82ZM210.82 79.45H215.82C215.82 71.8886 209.682 65.75 202.12 65.75V70.75V75.75C204.159 75.75 205.82 77.4114 205.82 79.45H210.82ZM202.12 70.75V65.75C194.559 65.75 188.42 71.8886 188.42 79.45H193.42H198.42C198.42 77.4114 200.082 75.75 202.12 75.75V70.75ZM193.42 79.45H188.42V128.35H193.42H198.42V79.45H193.42ZM193.42 128.35V123.35H182.02V128.35V133.35H193.42V128.35ZM182.02 128.35H187.02V72.85H182.02H177.02V128.35H182.02ZM182.02 72.85H187.02C187.02 70.9208 186.377 68.9732 184.9 67.4957C183.467 66.0626 181.62 65.45 179.92 65.45V70.45V75.45C179.27 75.45 178.474 75.2124 177.829 74.5668C177.139 73.8768 177.02 73.1292 177.02 72.85H182.02ZM179.92 70.45V65.45C176.032 65.45 172.97 68.6713 172.97 72.85H177.97H182.97C182.97 73.1292 182.856 73.8211 182.229 74.4795C181.654 75.0833 180.83 75.45 179.92 75.45V70.45ZM177.97 72.85H172.97V104.5H177.97H182.97V72.85H177.97ZM177.97 104.5V99.5H174.07V104.5V109.5H177.97V104.5ZM174.07 104.5H179.07V72.85H174.07H169.07V104.5H174.07ZM174.07 72.85H179.07C179.07 70.3614 181.332 68.1 183.82 68.1V63.1V58.1C175.809 58.1 169.07 64.8386 169.07 72.85H174.07ZM285.977 104.5V99.5C283.216 99.5 280.977 101.739 280.977 104.5H285.977ZM289.877 104.5H294.877C294.877 101.739 292.639 99.5 289.877 99.5V104.5ZM259.427 69.55L255.464 72.5986C256.578 74.047 258.394 74.7723 260.2 74.49C262.005 74.2078 263.513 72.963 264.132 71.2436L259.427 69.55ZM250.277 70.9V65.9C242.943 65.9 236.427 71.6668 236.427 79.45H241.427H246.427C246.427 77.6332 248.012 75.9 250.277 75.9V70.9ZM241.427 79.45H236.427V111.85H241.427H246.427V79.45H241.427ZM241.427 111.85H236.427C236.427 119.522 242.827 125.55 250.277 125.55V120.55V115.55C248.127 115.55 246.427 113.778 246.427 111.85H241.427ZM250.277 120.55V125.55C253.748 125.55 256.599 124.132 258.679 121.858C260.612 119.747 261.729 117.076 262.425 114.58C263.81 109.613 263.977 103.59 263.977 98.95H258.977H253.977C253.977 103.61 253.77 108.387 252.792 111.895C252.307 113.636 251.746 114.622 251.302 115.107C251.006 115.431 250.782 115.55 250.277 115.55V120.55ZM258.977 98.95H263.977V79.45H258.977H253.977V98.95H258.977ZM258.977 79.45H263.977C263.977 71.7757 257.725 65.9 250.277 65.9V70.9V75.9C252.43 75.9 253.977 77.5243 253.977 79.45H258.977ZM268.577 63.1V68.1C271.066 68.1 273.327 70.3614 273.327 72.85H278.327H283.327C283.327 64.8386 276.589 58.1 268.577 58.1V63.1ZM278.327 72.85H273.327V116.8H278.327H283.327V72.85H278.327ZM278.327 116.8H273.327C273.327 121.661 277.216 125.55 282.077 125.55V120.55V115.55C282.368 115.55 282.698 115.675 282.95 115.927C283.202 116.179 283.327 116.509 283.327 116.8H278.327ZM282.077 120.55V125.55C286.681 125.55 290.977 121.913 290.977 116.8H285.977H280.977C280.977 116.371 281.172 116.026 281.376 115.833C281.567 115.652 281.814 115.55 282.077 115.55V120.55ZM285.977 116.8H290.977V104.5H285.977H280.977V116.8H285.977ZM285.977 104.5V109.5H289.877V104.5V99.5H285.977V104.5ZM289.877 104.5H284.877V116.8H289.877H294.877V104.5H289.877ZM289.877 116.8H284.877C284.877 120.489 282.016 123.35 278.327 123.35V128.35V133.35C287.539 133.35 294.877 126.011 294.877 116.8H289.877ZM278.327 128.35V123.35C274.639 123.35 271.777 120.489 271.777 116.8H266.777H261.777C261.777 126.011 269.116 133.35 278.327 133.35V128.35ZM266.777 116.8H271.777V72.85H266.777H261.777V116.8H266.777ZM266.777 72.85H271.777C271.777 71.1332 271.299 69.2187 269.904 67.6767C268.481 66.1037 266.577 65.45 264.827 65.45V70.45V75.45C264.127 75.45 263.199 75.1714 262.488 74.3858C261.806 73.6313 261.777 72.9169 261.777 72.85H266.777ZM264.827 70.45V65.45C260.939 65.45 257.877 68.6713 257.877 72.85H262.877H267.877C267.877 73.1292 267.763 73.8211 267.136 74.4795C266.561 75.0833 265.737 75.45 264.827 75.45V70.45ZM262.877 72.85H257.877V79.6H262.877H267.877V72.85H262.877ZM262.877 79.6H257.877V102.55H262.877H267.877V79.6H262.877ZM262.877 102.55H257.877C257.877 108.702 257.125 114.204 255.233 118.002C254.326 119.824 253.231 121.101 251.963 121.937C250.72 122.756 249.013 123.35 246.527 123.35V128.35V133.35C250.717 133.35 254.391 132.313 257.466 130.287C260.514 128.277 262.673 125.495 264.184 122.46C267.13 116.546 267.877 109.148 267.877 102.55H262.877ZM246.527 128.35V123.35C240.139 123.35 235.027 118.239 235.027 111.85H230.027H225.027C225.027 123.761 234.616 133.35 246.527 133.35V128.35ZM230.027 111.85H235.027V79.6H230.027H225.027V111.85H230.027ZM230.027 79.6H235.027C235.027 73.2114 240.139 68.1 246.527 68.1V63.1V58.1C234.616 58.1 225.027 67.6886 225.027 79.6H230.027ZM246.527 63.1V68.1C250.106 68.1 253.336 69.8314 255.464 72.5986L259.427 69.55L263.39 66.5015C259.519 61.4686 253.449 58.1 246.527 58.1V63.1ZM259.427 69.55L264.132 71.2436C264.795 69.4013 266.565 68.1 268.577 68.1V63.1V58.1C262.189 58.1 256.76 62.1987 254.723 67.8564L259.427 69.55ZM315.984 122.65L315.569 117.667C313.862 117.81 312.346 118.816 311.553 120.335C310.759 121.853 310.799 123.672 311.657 125.155L315.984 122.65ZM289.884 104.5V109.5C292.646 109.5 294.884 107.261 294.884 104.5H289.884ZM285.984 104.5H280.984C280.984 107.261 283.223 109.5 285.984 109.5V104.5ZM305.334 73H300.334V163.45H305.334H310.334V73H305.334ZM305.334 163.45H300.334C300.334 167.49 303.406 170.85 307.434 170.85V165.85V160.85C309.362 160.85 310.334 162.41 310.334 163.45H305.334ZM307.434 165.85V170.85C309.317 170.85 311.164 170.045 312.468 168.523C313.756 167.021 314.234 165.172 314.234 163.45H309.234H304.234C304.234 163.378 304.263 162.729 304.876 162.015C305.505 161.28 306.451 160.85 307.434 160.85V165.85ZM309.234 163.45H314.234V74.95H309.234H304.234V163.45H309.234ZM309.234 74.95H314.234C314.234 71.97 315.019 70.3062 315.766 69.4562C316.449 68.6785 317.513 68.1 319.284 68.1V63.1V58.1C315.055 58.1 311.095 59.6216 308.253 62.8563C305.475 66.0189 304.234 70.28 304.234 74.95H309.234ZM319.284 63.1V68.1C325.478 68.1 330.61 72.1006 334.469 78.6943C338.321 85.2762 340.234 93.4384 340.234 99.25H345.234H350.234C350.234 91.7116 347.873 81.7988 343.1 73.6433C338.334 65.4995 330.491 58.1 319.284 58.1V63.1ZM345.234 99.25H340.234C340.234 105.171 338.8 111.655 336.133 116.482C333.468 121.304 330.122 123.65 326.334 123.65V128.65V133.65C335.147 133.65 341.251 127.896 344.886 121.318C348.519 114.745 350.234 106.529 350.234 99.25H345.234ZM326.334 128.65V123.65C325.234 123.65 323.97 123.252 322.752 122.486C321.51 121.705 320.669 120.763 320.311 120.145L315.984 122.65L311.657 125.155C312.95 127.387 315.033 129.445 317.429 130.951C319.849 132.473 322.935 133.65 326.334 133.65V128.65ZM315.984 122.65L316.4 127.633C324.134 126.988 329.661 121.552 333.053 115.305C336.477 108.999 338.234 101.064 338.234 93.4H333.234H328.234C328.234 99.6862 326.766 105.926 324.265 110.533C321.733 115.198 318.635 117.412 315.569 117.667L315.984 122.65ZM333.234 93.4H338.234C338.234 85.338 335.361 77.9904 331.669 72.6367C329.819 69.9534 327.673 67.6379 325.412 65.9431C323.258 64.328 320.49 62.9 317.484 62.9V67.9V72.9C317.404 72.9 318.067 72.9345 319.414 73.9444C320.655 74.8746 322.081 76.3466 323.437 78.3133C326.158 82.2596 328.234 87.662 328.234 93.4H333.234ZM317.484 67.9V62.9C314.602 62.9 311.995 64.2696 310.324 66.7765C308.813 69.0438 308.284 71.8863 308.284 74.8H313.284H318.284C318.284 73.9013 318.37 73.267 318.469 72.8479C318.568 72.4271 318.665 72.2931 318.645 72.3235C318.612 72.3726 318.47 72.5531 318.181 72.7081C317.893 72.8629 317.63 72.9 317.484 72.9V67.9ZM313.284 74.8H308.284V140.2H313.284H318.284V74.8H313.284ZM313.284 140.2H308.284V163.45H313.284H318.284V140.2H313.284ZM313.284 163.45H308.284C308.284 165.939 306.023 168.2 303.534 168.2V173.2V178.2C311.546 178.2 318.284 171.461 318.284 163.45H313.284ZM303.534 173.2V168.2C301.146 168.2 298.934 166.039 298.934 163.45H293.934H288.934C288.934 171.361 295.423 178.2 303.534 178.2V173.2ZM293.934 163.45H298.934V145.45H293.934H288.934V163.45H293.934ZM293.934 145.45H298.934V73H293.934H288.934V145.45H293.934ZM293.934 73H298.934C298.934 69.3866 296.252 65.45 291.834 65.45V70.45V75.45C290.679 75.45 289.902 74.8967 289.515 74.455C289.093 73.9724 288.934 73.4327 288.934 73H293.934ZM291.834 70.45V65.45C287.54 65.45 284.884 69.2676 284.884 73H289.884H294.884C294.884 73.4324 294.329 75.45 291.834 75.45V70.45ZM289.884 73H284.884V104.5H289.884H294.884V73H289.884ZM289.884 104.5V99.5H285.984V104.5V109.5H289.884V104.5ZM285.984 104.5H290.984V73H285.984H280.984V104.5H285.984ZM285.984 73H290.984C290.984 70.3622 293.243 68.1 295.734 68.1V63.1V58.1C287.426 58.1 280.984 65.1378 280.984 73H285.984ZM295.734 63.1V68.1C298.274 68.1 300.334 70.1061 300.334 73H305.334H310.334C310.334 65.094 304.294 58.1 295.734 58.1V63.1ZM407.852 104.5V99.5C405.091 99.5 402.852 101.739 402.852 104.5H407.852ZM411.752 104.5H416.752C416.752 101.739 414.514 99.5 411.752 99.5V104.5ZM381.302 69.55L377.339 72.5986C378.453 74.047 380.269 74.7723 382.075 74.49C383.88 74.2078 385.388 72.963 386.007 71.2436L381.302 69.55ZM372.152 70.9V65.9C364.818 65.9 358.302 71.6668 358.302 79.45H363.302H368.302C368.302 77.6332 369.887 75.9 372.152 75.9V70.9ZM363.302 79.45H358.302V111.85H363.302H368.302V79.45H363.302ZM363.302 111.85H358.302C358.302 119.522 364.702 125.55 372.152 125.55V120.55V115.55C370.002 115.55 368.302 113.778 368.302 111.85H363.302ZM372.152 120.55V125.55C375.623 125.55 378.474 124.132 380.554 121.858C382.487 119.747 383.604 117.076 384.3 114.58C385.685 109.613 385.852 103.59 385.852 98.95H380.852H375.852C375.852 103.61 375.645 108.387 374.667 111.895C374.182 113.636 373.621 114.622 373.177 115.107C372.881 115.431 372.657 115.55 372.152 115.55V120.55ZM380.852 98.95H385.852V79.45H380.852H375.852V98.95H380.852ZM380.852 79.45H385.852C385.852 71.7757 379.6 65.9 372.152 65.9V70.9V75.9C374.305 75.9 375.852 77.5243 375.852 79.45H380.852ZM390.452 63.1V68.1C392.941 68.1 395.202 70.3614 395.202 72.85H400.202H405.202C405.202 64.8386 398.464 58.1 390.452 58.1V63.1ZM400.202 72.85H395.202V116.8H400.202H405.202V72.85H400.202ZM400.202 116.8H395.202C395.202 121.661 399.091 125.55 403.952 125.55V120.55V115.55C404.243 115.55 404.573 115.675 404.825 115.927C405.077 116.179 405.202 116.509 405.202 116.8H400.202ZM403.952 120.55V125.55C408.556 125.55 412.852 121.913 412.852 116.8H407.852H402.852C402.852 116.371 403.047 116.026 403.251 115.833C403.442 115.652 403.689 115.55 403.952 115.55V120.55ZM407.852 116.8H412.852V104.5H407.852H402.852V116.8H407.852ZM407.852 104.5V109.5H411.752V104.5V99.5H407.852V104.5ZM411.752 104.5H406.752V116.8H411.752H416.752V104.5H411.752ZM411.752 116.8H406.752C406.752 120.489 403.891 123.35 400.202 123.35V128.35V133.35C409.414 133.35 416.752 126.011 416.752 116.8H411.752ZM400.202 128.35V123.35C396.514 123.35 393.652 120.489 393.652 116.8H388.652H383.652C383.652 126.011 390.991 133.35 400.202 133.35V128.35ZM388.652 116.8H393.652V72.85H388.652H383.652V116.8H388.652ZM388.652 72.85H393.652C393.652 71.1332 393.174 69.2187 391.779 67.6767C390.356 66.1037 388.452 65.45 386.702 65.45V70.45V75.45C386.002 75.45 385.074 75.1714 384.363 74.3858C383.681 73.6313 383.652 72.9169 383.652 72.85H388.652ZM386.702 70.45V65.45C382.814 65.45 379.752 68.6713 379.752 72.85H384.752H389.752C389.752 73.1292 389.638 73.8211 389.011 74.4795C388.436 75.0833 387.612 75.45 386.702 75.45V70.45ZM384.752 72.85H379.752V79.6H384.752H389.752V72.85H384.752ZM384.752 79.6H379.752V102.55H384.752H389.752V79.6H384.752ZM384.752 102.55H379.752C379.752 108.702 379 114.204 377.108 118.002C376.201 119.824 375.106 121.101 373.838 121.937C372.595 122.756 370.888 123.35 368.402 123.35V128.35V133.35C372.592 133.35 376.266 132.313 379.341 130.287C382.389 128.277 384.548 125.495 386.059 122.46C389.005 116.546 389.752 109.148 389.752 102.55H384.752ZM368.402 128.35V123.35C362.014 123.35 356.902 118.239 356.902 111.85H351.902H346.902C346.902 123.761 356.491 133.35 368.402 133.35V128.35ZM351.902 111.85H356.902V79.6H351.902H346.902V111.85H351.902ZM351.902 79.6H356.902C356.902 73.2114 362.014 68.1 368.402 68.1V63.1V58.1C356.491 58.1 346.902 67.6886 346.902 79.6H351.902ZM368.402 63.1V68.1C371.981 68.1 375.211 69.8314 377.339 72.5986L381.302 69.55L385.265 66.5015C381.394 61.4686 375.324 58.1 368.402 58.1V63.1ZM381.302 69.55L386.007 71.2436C386.67 69.4013 388.44 68.1 390.452 68.1V63.1V58.1C384.064 58.1 378.635 62.1987 376.598 67.8564L381.302 69.55ZM526.629 63.1V68.1C528.108 68.1 529.511 67.445 530.461 66.3113C531.411 65.1775 531.811 63.6812 531.552 62.2248L526.629 63.1ZM521.979 63.1L517.085 64.1254C517.57 66.4413 519.613 68.1 521.979 68.1V63.1ZM469.779 68.8V63.8C467.017 63.8 464.779 66.0386 464.779 68.8H469.779ZM520.479 128.35V133.35C523.24 133.35 525.479 131.111 525.479 128.35H520.479ZM508.779 128.35H503.779C503.779 131.111 506.017 133.35 508.779 133.35V128.35ZM493.929 79.45V74.45C491.711 74.45 489.758 75.9108 489.132 78.0383C488.506 80.1658 489.356 82.4515 491.22 83.6529L493.929 79.45ZM505.029 101.95L510.029 102.003C510.029 101.985 510.029 101.968 510.029 101.95H505.029ZM440.379 83.95H445.379C445.379 55.111 467.21 33 488.979 33V28V23C460.647 23 435.379 50.689 435.379 83.95H440.379ZM488.979 28V33C505.366 33 518.428 45.5382 521.706 63.9752L526.629 63.1L531.552 62.2248C527.629 40.1618 511.292 23 488.979 23V28ZM526.629 63.1V58.1H521.979V63.1V68.1H526.629V63.1ZM521.979 63.1L526.873 62.0747C523.211 44.598 510.049 31.1 492.429 31.1V36.1V41.1C504.209 41.1 514.147 50.102 517.085 64.1254L521.979 63.1ZM492.429 36.1V31.1C467.735 31.1 448.129 56.4236 448.129 85.15H453.129H458.129C458.129 59.8764 475.122 41.1 492.429 41.1V36.1ZM453.129 85.15H448.129C448.129 95.8211 450.605 105.682 455.873 113.022C461.267 120.536 469.397 125.1 479.679 125.1V120.1V115.1C472.71 115.1 467.566 112.164 463.997 107.191C460.302 102.043 458.129 94.429 458.129 85.15H453.129ZM479.679 120.1V125.1C491.76 125.1 504.779 116.339 504.779 101.35H499.779H494.779C494.779 109.461 487.698 115.1 479.679 115.1V120.1ZM499.779 101.35H504.779C504.779 86.1993 492.996 74.45 479.679 74.45V79.45V84.45C487.061 84.45 494.779 91.3007 494.779 101.35H499.779ZM479.679 79.45V74.45C478.879 74.45 477.714 73.9093 476.435 72.1188C475.851 71.3007 475.394 70.4127 475.094 69.6501C474.741 68.7505 474.779 68.4725 474.779 68.8H469.779H464.779C464.779 70.3275 465.267 71.9807 465.785 73.303C466.358 74.7623 467.195 76.3868 468.298 77.9312C470.394 80.8657 474.179 84.45 479.679 84.45V79.45ZM469.779 68.8V73.8H499.779V68.8V63.8H469.779V68.8ZM499.779 68.8V73.8C506.878 73.8 510.389 75.2394 512.265 77.1255C514.143 79.0147 515.479 82.4542 515.479 89.2H520.479H525.479C525.479 81.5458 524.04 74.7853 519.356 70.0746C514.669 65.3606 507.829 63.8 499.779 63.8V68.8ZM520.479 89.2H515.479V128.35H520.479H525.479V89.2H520.479ZM520.479 128.35V123.35H508.779V128.35V133.35H520.479V128.35ZM508.779 128.35H513.779V87.25H508.779H503.779V128.35H508.779ZM508.779 87.25H513.779C513.779 84.4558 513.24 81.2974 511.355 78.7152C509.282 75.8743 506.112 74.45 502.479 74.45V79.45V84.45C502.989 84.45 503.194 84.5416 503.221 84.5546C503.232 84.5597 503.238 84.5563 503.277 84.6099C503.418 84.8026 503.779 85.5442 503.779 87.25H508.779ZM502.479 79.45V74.45H493.929V79.45V84.45H502.479V79.45ZM493.929 79.45L491.22 83.6529C496.334 86.9485 500.029 93.4866 500.029 101.95H505.029H510.029C510.029 90.6134 505.023 80.6515 496.637 75.2472L493.929 79.45ZM505.029 101.95L500.029 101.897C499.905 113.553 491.201 123.35 478.929 123.35V128.35V133.35C497.257 133.35 509.853 118.547 510.029 102.003L505.029 101.95ZM478.929 128.35V123.35C460.176 123.35 445.379 106.828 445.379 83.95H440.379H435.379C435.379 110.872 453.282 133.35 478.929 133.35V128.35ZM589.786 104.5V99.5C587.025 99.5 584.786 101.739 584.786 104.5H589.786ZM593.686 104.5H598.686C598.686 101.739 596.447 99.5 593.686 99.5V104.5ZM563.236 69.55L559.273 72.5986C560.387 74.047 562.203 74.7723 564.008 74.49C565.814 74.2078 567.321 72.963 567.94 71.2436L563.236 69.55ZM554.086 70.9V65.9C546.752 65.9 540.236 71.6668 540.236 79.45H545.236H550.236C550.236 77.6332 551.82 75.9 554.086 75.9V70.9ZM545.236 79.45H540.236V111.85H545.236H550.236V79.45H545.236ZM545.236 111.85H540.236C540.236 119.522 546.636 125.55 554.086 125.55V120.55V115.55C551.936 115.55 550.236 113.778 550.236 111.85H545.236ZM554.086 120.55V125.55C557.556 125.55 560.408 124.132 562.488 121.858C564.42 119.747 565.538 117.076 566.234 114.58C567.618 109.613 567.786 103.59 567.786 98.95H562.786H557.786C557.786 103.61 557.579 108.387 556.601 111.895C556.115 113.636 555.555 114.622 555.111 115.107C554.814 115.431 554.591 115.55 554.086 115.55V120.55ZM562.786 98.95H567.786V79.45H562.786H557.786V98.95H562.786ZM562.786 79.45H567.786C567.786 71.7757 561.533 65.9 554.086 65.9V70.9V75.9C556.239 75.9 557.786 77.5243 557.786 79.45H562.786ZM572.386 63.1V68.1C574.875 68.1 577.136 70.3614 577.136 72.85H582.136H587.136C587.136 64.8386 580.397 58.1 572.386 58.1V63.1ZM582.136 72.85H577.136V116.8H582.136H587.136V72.85H582.136ZM582.136 116.8H577.136C577.136 121.661 581.025 125.55 585.886 125.55V120.55V115.55C586.177 115.55 586.507 115.675 586.759 115.927C587.011 116.179 587.136 116.509 587.136 116.8H582.136ZM585.886 120.55V125.55C590.489 125.55 594.786 121.913 594.786 116.8H589.786H584.786C584.786 116.371 584.98 116.026 585.185 115.833C585.376 115.652 585.622 115.55 585.886 115.55V120.55ZM589.786 116.8H594.786V104.5H589.786H584.786V116.8H589.786ZM589.786 104.5V109.5H593.686V104.5V99.5H589.786V104.5ZM593.686 104.5H588.686V116.8H593.686H598.686V104.5H593.686ZM593.686 116.8H588.686C588.686 120.489 585.825 123.35 582.136 123.35V128.35V133.35C591.347 133.35 598.686 126.011 598.686 116.8H593.686ZM582.136 128.35V123.35C578.447 123.35 575.586 120.489 575.586 116.8H570.586H565.586C565.586 126.011 572.924 133.35 582.136 133.35V128.35ZM570.586 116.8H575.586V72.85H570.586H565.586V116.8H570.586ZM570.586 72.85H575.586C575.586 71.1332 575.107 69.2187 573.712 67.6767C572.289 66.1037 570.386 65.45 568.636 65.45V70.45V75.45C567.936 75.45 567.008 75.1714 566.297 74.3858C565.614 73.6313 565.586 72.9169 565.586 72.85H570.586ZM568.636 70.45V65.45C564.747 65.45 561.686 68.6713 561.686 72.85H566.686H571.686C571.686 73.1292 571.571 73.8211 570.944 74.4795C570.369 75.0833 569.545 75.45 568.636 75.45V70.45ZM566.686 72.85H561.686V79.6H566.686H571.686V72.85H566.686ZM566.686 79.6H561.686V102.55H566.686H571.686V79.6H566.686ZM566.686 102.55H561.686C561.686 108.702 560.934 114.204 559.042 118.002C558.134 119.824 557.04 121.101 555.771 121.937C554.529 122.756 552.822 123.35 550.336 123.35V128.35V133.35C554.525 133.35 558.199 132.313 561.274 130.287C564.323 128.277 566.482 125.495 567.993 122.46C570.938 116.546 571.686 109.148 571.686 102.55H566.686ZM550.336 128.35V123.35C543.947 123.35 538.836 118.239 538.836 111.85H533.836H528.836C528.836 123.761 538.424 133.35 550.336 133.35V128.35ZM533.836 111.85H538.836V79.6H533.836H528.836V111.85H533.836ZM533.836 79.6H538.836C538.836 73.2114 543.947 68.1 550.336 68.1V63.1V58.1C538.424 58.1 528.836 67.6886 528.836 79.6H533.836ZM550.336 63.1V68.1C553.914 68.1 557.144 69.8314 559.273 72.5986L563.236 69.55L567.199 66.5015C563.328 61.4686 557.257 58.1 550.336 58.1V63.1ZM563.236 69.55L567.94 71.2436C568.604 69.4013 570.374 68.1 572.386 68.1V63.1V58.1C565.998 58.1 560.568 62.1987 558.531 67.8564L563.236 69.55ZM608.093 68.2L603.712 70.6096C604.527 72.0916 606.036 73.061 607.723 73.1863C609.409 73.3115 611.045 72.5756 612.07 71.2302L608.093 68.2ZM629.843 69.4L625.555 71.9725C626.459 73.4785 628.087 74.4 629.843 74.4C631.599 74.4 633.227 73.4785 634.13 71.9725L629.843 69.4ZM662.243 104.5V99.5C659.482 99.5 657.243 101.739 657.243 104.5H662.243ZM666.143 104.5H671.143C671.143 101.739 668.904 99.5 666.143 99.5V104.5ZM631.943 115.6V120.6C634.704 120.6 636.943 118.361 636.943 115.6H631.943ZM620.393 115.6H615.393C615.393 118.361 617.632 120.6 620.393 120.6V115.6ZM609.143 128.35V133.35C611.904 133.35 614.143 131.111 614.143 128.35H609.143ZM597.743 128.35H592.743C592.743 131.111 594.982 133.35 597.743 133.35V128.35ZM593.693 104.5V109.5C596.454 109.5 598.693 107.261 598.693 104.5H593.693ZM589.793 104.5H584.793C584.793 107.261 587.032 109.5 589.793 109.5V104.5ZM599.543 63.1V68.1C601.335 68.1 602.874 69.0856 603.712 70.6096L608.093 68.2L612.474 65.7904C610.012 61.3144 605.251 58.1 599.543 58.1V63.1ZM608.093 68.2L612.07 71.2302C613.504 69.3484 615.919 68.1 618.593 68.1V63.1V58.1C612.867 58.1 607.482 60.7516 604.116 65.1698L608.093 68.2ZM618.593 63.1V68.1C621.599 68.1 624.189 69.6955 625.555 71.9725L629.843 69.4L634.13 66.8275C630.997 61.6045 625.187 58.1 618.593 58.1V63.1ZM629.843 69.4L634.13 71.9725C635.433 69.8018 638.262 68.1 641.393 68.1V63.1V58.1C634.924 58.1 628.753 61.4982 625.555 66.8275L629.843 69.4ZM641.393 63.1V68.1C645.908 68.1 649.593 71.7875 649.593 76.45H654.593H659.593C659.593 66.4125 651.578 58.1 641.393 58.1V63.1ZM654.593 76.45H649.593V116.8H654.593H659.593V76.45H654.593ZM654.593 116.8H649.593C649.593 121.661 653.482 125.55 658.343 125.55V120.55V115.55C658.634 115.55 658.964 115.675 659.216 115.927C659.468 116.179 659.593 116.509 659.593 116.8H654.593ZM658.343 120.55V125.55C662.946 125.55 667.243 121.913 667.243 116.8H662.243H657.243C657.243 116.371 657.437 116.026 657.642 115.833C657.833 115.652 658.079 115.55 658.343 115.55V120.55ZM662.243 116.8H667.243V104.5H662.243H657.243V116.8H662.243ZM662.243 104.5V109.5H666.143V104.5V99.5H662.243V104.5ZM666.143 104.5H661.143V116.8H666.143H671.143V104.5H666.143ZM666.143 116.8H661.143C661.143 120.489 658.282 123.35 654.593 123.35V128.35V133.35C663.804 133.35 671.143 126.011 671.143 116.8H666.143ZM654.593 128.35V123.35C650.904 123.35 648.043 120.489 648.043 116.8H643.043H638.043C638.043 126.011 645.382 133.35 654.593 133.35V128.35ZM643.043 116.8H648.043V75.85H643.043H638.043V116.8H643.043ZM643.043 75.85H648.043C648.043 69.9386 643.404 65.3 637.493 65.3V70.3V75.3C637.765 75.3 637.874 75.3892 637.914 75.4293C637.954 75.4693 638.043 75.5783 638.043 75.85H643.043ZM637.493 70.3V65.3C631.582 65.3 626.943 69.9386 626.943 75.85H631.943H636.943C636.943 75.5783 637.032 75.4693 637.072 75.4293C637.112 75.3892 637.221 75.3 637.493 75.3V70.3ZM631.943 75.85H626.943V115.6H631.943H636.943V75.85H631.943ZM631.943 115.6V110.6H620.393V115.6V120.6H631.943V115.6ZM620.393 115.6H625.393V75.85H620.393H615.393V115.6H620.393ZM620.393 75.85H625.393C625.393 69.7656 620.428 65.3 614.693 65.3V70.3V75.3C614.982 75.3 615.161 75.4041 615.255 75.4942C615.303 75.5407 615.334 75.5886 615.355 75.6352C615.373 75.6783 615.393 75.7447 615.393 75.85H620.393ZM614.693 70.3V65.3C608.782 65.3 604.143 69.9386 604.143 75.85H609.143H614.143C614.143 75.5783 614.232 75.4693 614.272 75.4293C614.312 75.3892 614.421 75.3 614.693 75.3V70.3ZM609.143 75.85H604.143V128.35H609.143H614.143V75.85H609.143ZM609.143 128.35V123.35H597.743V128.35V133.35H609.143V128.35ZM597.743 128.35H602.743V72.85H597.743H592.743V128.35H597.743ZM597.743 72.85H602.743C602.743 70.9208 602.1 68.9732 600.622 67.4957C599.189 66.0626 597.343 65.45 595.643 65.45V70.45V75.45C594.993 75.45 594.197 75.2124 593.551 74.5668C592.861 73.8768 592.743 73.1292 592.743 72.85H597.743ZM595.643 70.45V65.45C591.754 65.45 588.693 68.6713 588.693 72.85H593.693H598.693C598.693 73.1292 598.578 73.8211 597.951 74.4795C597.376 75.0833 596.552 75.45 595.643 75.45V70.45ZM593.693 72.85H588.693V104.5H593.693H598.693V72.85H593.693ZM593.693 104.5V99.5H589.793V104.5V109.5H593.693V104.5ZM589.793 104.5H594.793V72.85H589.793H584.793V104.5H589.793ZM589.793 72.85H594.793C594.793 70.3614 597.054 68.1 599.543 68.1V63.1V58.1C591.532 58.1 584.793 64.8386 584.793 72.85H589.793ZM718.253 104.5V99.5C715.491 99.5 713.253 101.739 713.253 104.5H718.253ZM722.153 104.5H727.153C727.153 101.739 724.914 99.5 722.153 99.5V104.5ZM691.703 69.55L687.74 72.5986C688.854 74.047 690.669 74.7723 692.475 74.49C694.28 74.2078 695.788 72.963 696.407 71.2436L691.703 69.55ZM682.553 70.9V65.9C675.218 65.9 668.703 71.6668 668.703 79.45H673.703H678.703C678.703 77.6332 680.287 75.9 682.553 75.9V70.9ZM673.703 79.45H668.703V111.85H673.703H678.703V79.45H673.703ZM673.703 111.85H668.703C668.703 119.522 675.103 125.55 682.553 125.55V120.55V115.55C680.403 115.55 678.703 113.778 678.703 111.85H673.703ZM682.553 120.55V125.55C686.023 125.55 688.874 124.132 690.955 121.858C692.887 119.747 694.005 117.076 694.7 114.58C696.085 109.613 696.253 103.59 696.253 98.95H691.253H686.253C686.253 103.61 686.045 108.387 685.068 111.895C684.582 113.636 684.021 114.622 683.577 115.107C683.281 115.431 683.058 115.55 682.553 115.55V120.55ZM691.253 98.95H696.253V79.45H691.253H686.253V98.95H691.253ZM691.253 79.45H696.253C696.253 71.7757 690 65.9 682.553 65.9V70.9V75.9C684.706 75.9 686.253 77.5243 686.253 79.45H691.253ZM700.853 63.1V68.1C703.341 68.1 705.603 70.3614 705.603 72.85H710.603H715.603C715.603 64.8386 708.864 58.1 700.853 58.1V63.1ZM710.603 72.85H705.603V116.8H710.603H715.603V72.85H710.603ZM710.603 116.8H705.603C705.603 121.661 709.491 125.55 714.353 125.55V120.55V115.55C714.644 115.55 714.974 115.675 715.226 115.927C715.478 116.179 715.603 116.509 715.603 116.8H710.603ZM714.353 120.55V125.55C718.956 125.55 723.253 121.913 723.253 116.8H718.253H713.253C713.253 116.371 713.447 116.026 713.651 115.833C713.843 115.652 714.089 115.55 714.353 115.55V120.55ZM718.253 116.8H723.253V104.5H718.253H713.253V116.8H718.253ZM718.253 104.5V109.5H722.153V104.5V99.5H718.253V104.5ZM722.153 104.5H717.153V116.8H722.153H727.153V104.5H722.153ZM722.153 116.8H717.153C717.153 120.489 714.291 123.35 710.603 123.35V128.35V133.35C719.814 133.35 727.153 126.011 727.153 116.8H722.153ZM710.603 128.35V123.35C706.914 123.35 704.053 120.489 704.053 116.8H699.053H694.053C694.053 126.011 701.391 133.35 710.603 133.35V128.35ZM699.053 116.8H704.053V72.85H699.053H694.053V116.8H699.053ZM699.053 72.85H704.053C704.053 71.1332 703.574 69.2187 702.179 67.6767C700.756 66.1037 698.853 65.45 697.103 65.45V70.45V75.45C696.403 75.45 695.475 75.1714 694.764 74.3858C694.081 73.6313 694.053 72.9169 694.053 72.85H699.053ZM697.103 70.45V65.45C693.214 65.45 690.153 68.6713 690.153 72.85H695.153H700.153C700.153 73.1292 700.038 73.8211 699.411 74.4795C698.836 75.0833 698.012 75.45 697.103 75.45V70.45ZM695.153 72.85H690.153V79.6H695.153H700.153V72.85H695.153ZM695.153 79.6H690.153V102.55H695.153H700.153V79.6H695.153ZM695.153 102.55H690.153C690.153 108.702 689.4 114.204 687.508 118.002C686.601 119.824 685.506 121.101 684.238 121.937C682.996 122.756 681.289 123.35 678.803 123.35V128.35V133.35C682.992 133.35 686.666 132.313 689.741 130.287C692.79 128.277 694.948 125.495 696.46 122.46C699.405 116.546 700.153 109.148 700.153 102.55H695.153ZM678.803 128.35V123.35C672.414 123.35 667.303 118.239 667.303 111.85H662.303H657.303C657.303 123.761 666.891 133.35 678.803 133.35V128.35ZM662.303 111.85H667.303V79.6H662.303H657.303V111.85H662.303ZM662.303 79.6H667.303C667.303 73.2114 672.414 68.1 678.803 68.1V63.1V58.1C666.891 58.1 657.303 67.6886 657.303 79.6H662.303ZM678.803 63.1V68.1C682.381 68.1 685.611 69.8314 687.74 72.5986L691.703 69.55L695.666 66.5015C691.794 61.4686 685.724 58.1 678.803 58.1V63.1ZM691.703 69.55L696.407 71.2436C697.07 69.4013 698.841 68.1 700.853 68.1V63.1V58.1C694.465 58.1 689.035 62.1987 686.998 67.8564L691.703 69.55ZM747.21 68.95L743.369 72.1509C744.716 73.7681 746.932 74.368 748.912 73.6514C750.891 72.9347 752.21 71.0551 752.21 68.95H747.21ZM774.21 104.5V99.5C771.448 99.5 769.21 101.739 769.21 104.5H774.21ZM778.11 104.5H783.11C783.11 101.739 780.871 99.5 778.11 99.5V104.5ZM738.51 70.9V65.9C731.175 65.9 724.66 71.6668 724.66 79.45H729.66H734.66C734.66 77.6332 736.244 75.9 738.51 75.9V70.9ZM729.66 79.45H724.66V111.85H729.66H734.66V79.45H729.66ZM729.66 111.85H724.66C724.66 119.522 731.06 125.55 738.51 125.55V120.55V115.55C736.36 115.55 734.66 113.778 734.66 111.85H729.66ZM738.51 120.55V125.55C741.958 125.55 744.804 124.159 746.89 121.908C748.831 119.814 749.954 117.165 750.653 114.691C752.042 109.772 752.21 103.816 752.21 99.25H747.21H742.21C742.21 103.834 742.002 108.528 741.029 111.972C740.547 113.679 739.992 114.639 739.556 115.11C739.266 115.423 739.036 115.55 738.51 115.55V120.55ZM747.21 99.25H752.21V79.45H747.21H742.21V99.25H747.21ZM747.21 79.45H752.21C752.21 71.7757 745.957 65.9 738.51 65.9V70.9V75.9C740.663 75.9 742.21 77.5243 742.21 79.45H747.21ZM766.56 128.35V123.35C764.072 123.35 762.533 122.632 761.648 121.788C760.799 120.979 760.01 119.54 760.01 116.95H755.01H750.01C750.01 121.71 751.545 125.971 754.746 129.025C757.911 132.043 762.148 133.35 766.56 133.35V128.35ZM755.01 116.95H760.01V37.6H755.01H750.01V116.95H755.01ZM755.01 37.6H760.01C760.01 35.8368 759.462 33.9509 758.054 32.4688C756.648 30.9897 754.795 30.35 753.06 30.35V35.35V40.35C752.374 40.35 751.496 40.0853 750.804 39.3563C750.108 38.6241 750.01 37.8633 750.01 37.6H755.01ZM753.06 35.35V30.35C749.398 30.35 746.11 33.3386 746.11 37.6H751.11H756.11C756.11 38.0868 755.907 38.8241 755.283 39.448C754.731 40 753.951 40.35 753.06 40.35V35.35ZM751.11 37.6H746.11V104.5H751.11H756.11V37.6H751.11ZM751.11 104.5H746.11C746.11 110.099 745.177 115.068 743.254 118.458C741.522 121.512 739.012 123.35 734.76 123.35V128.35V133.35C742.958 133.35 748.622 129.263 751.953 123.392C755.092 117.857 756.11 110.901 756.11 104.5H751.11ZM734.76 128.35V123.35C728.371 123.35 723.26 118.239 723.26 111.85H718.26H713.26C713.26 123.761 722.848 133.35 734.76 133.35V128.35ZM718.26 111.85H723.26V79.6H718.26H713.26V111.85H718.26ZM718.26 79.6H723.26C723.26 73.2114 728.371 68.1 734.76 68.1V63.1V58.1C722.848 58.1 713.26 67.6886 713.26 79.6H718.26ZM734.76 63.1V68.1C738.294 68.1 741.265 69.6266 743.369 72.1509L747.21 68.95L751.051 65.7491C747.154 61.0734 741.425 58.1 734.76 58.1V63.1ZM747.21 68.95H752.21V37.6H747.21H742.21V68.95H747.21ZM747.21 37.6H752.21C752.21 35.1114 754.321 33 756.81 33V28V23C748.798 23 742.21 29.5886 742.21 37.6H747.21ZM756.81 28V33C759.399 33 761.56 35.2112 761.56 37.6H766.56H771.56C771.56 29.4888 764.72 23 756.81 23V28ZM766.56 37.6H761.56V116.8H766.56H771.56V37.6H766.56ZM766.56 116.8H761.56C761.56 121.661 765.448 125.55 770.31 125.55V120.55V115.55C770.601 115.55 770.931 115.675 771.183 115.927C771.435 116.179 771.56 116.509 771.56 116.8H766.56ZM770.31 120.55V125.55C774.913 125.55 779.21 121.913 779.21 116.8H774.21H769.21C769.21 116.371 769.404 116.026 769.609 115.833C769.8 115.652 770.046 115.55 770.31 115.55V120.55ZM774.21 116.8H779.21V104.5H774.21H769.21V116.8H774.21ZM774.21 104.5V109.5H778.11V104.5V99.5H774.21V104.5ZM778.11 104.5H773.11V116.8H778.11H783.11V104.5H778.11ZM778.11 116.8H773.11C773.11 120.489 770.248 123.35 766.56 123.35V128.35V133.35C775.771 133.35 783.11 126.011 783.11 116.8H778.11ZM830.167 104.5V99.5C827.405 99.5 825.167 101.739 825.167 104.5H830.167ZM834.067 104.5H839.067C839.067 101.739 836.828 99.5 834.067 99.5V104.5ZM803.617 69.55L799.654 72.5986C800.768 74.047 802.584 74.7723 804.389 74.49C806.195 74.2078 807.702 72.963 808.321 71.2436L803.617 69.55ZM794.467 70.9V65.9C787.132 65.9 780.617 71.6668 780.617 79.45H785.617H790.617C790.617 77.6332 792.201 75.9 794.467 75.9V70.9ZM785.617 79.45H780.617V111.85H785.617H790.617V79.45H785.617ZM785.617 111.85H780.617C780.617 119.522 787.017 125.55 794.467 125.55V120.55V115.55C792.317 115.55 790.617 113.778 790.617 111.85H785.617ZM794.467 120.55V125.55C797.937 125.55 800.788 124.132 802.869 121.858C804.801 119.747 805.919 117.076 806.614 114.58C807.999 109.613 808.167 103.59 808.167 98.95H803.167H798.167C798.167 103.61 797.96 108.387 796.982 111.895C796.496 113.636 795.935 114.622 795.492 115.107C795.195 115.431 794.972 115.55 794.467 115.55V120.55ZM803.167 98.95H808.167V79.45H803.167H798.167V98.95H803.167ZM803.167 79.45H808.167C808.167 71.7757 801.914 65.9 794.467 65.9V70.9V75.9C796.62 75.9 798.167 77.5243 798.167 79.45H803.167ZM812.767 63.1V68.1C815.255 68.1 817.517 70.3614 817.517 72.85H822.517H827.517C827.517 64.8386 820.778 58.1 812.767 58.1V63.1ZM822.517 72.85H817.517V116.8H822.517H827.517V72.85H822.517ZM822.517 116.8H817.517C817.517 121.661 821.405 125.55 826.267 125.55V120.55V115.55C826.558 115.55 826.888 115.675 827.14 115.927C827.392 116.179 827.517 116.509 827.517 116.8H822.517ZM826.267 120.55V125.55C830.87 125.55 835.167 121.913 835.167 116.8H830.167H825.167C825.167 116.371 825.361 116.026 825.566 115.833C825.757 115.652 826.003 115.55 826.267 115.55V120.55ZM830.167 116.8H835.167V104.5H830.167H825.167V116.8H830.167ZM830.167 104.5V109.5H834.067V104.5V99.5H830.167V104.5ZM834.067 104.5H829.067V116.8H834.067H839.067V104.5H834.067ZM834.067 116.8H829.067C829.067 120.489 826.205 123.35 822.517 123.35V128.35V133.35C831.728 133.35 839.067 126.011 839.067 116.8H834.067ZM822.517 128.35V123.35C818.828 123.35 815.967 120.489 815.967 116.8H810.967H805.967C805.967 126.011 813.305 133.35 822.517 133.35V128.35ZM810.967 116.8H815.967V72.85H810.967H805.967V116.8H810.967ZM810.967 72.85H815.967C815.967 71.1332 815.488 69.2187 814.093 67.6767C812.67 66.1037 810.767 65.45 809.017 65.45V70.45V75.45C808.317 75.45 807.389 75.1714 806.678 74.3858C805.995 73.6313 805.967 72.9169 805.967 72.85H810.967ZM809.017 70.45V65.45C805.128 65.45 802.067 68.6713 802.067 72.85H807.067H812.067C812.067 73.1292 811.952 73.8211 811.325 74.4795C810.75 75.0833 809.926 75.45 809.017 75.45V70.45ZM807.067 72.85H802.067V79.6H807.067H812.067V72.85H807.067ZM807.067 79.6H802.067V102.55H807.067H812.067V79.6H807.067ZM807.067 102.55H802.067C802.067 108.702 801.314 114.204 799.422 118.002C798.515 119.824 797.421 121.101 796.152 121.937C794.91 122.756 793.203 123.35 790.717 123.35V128.35V133.35C794.906 133.35 798.58 132.313 801.655 130.287C804.704 128.277 806.862 125.495 808.374 122.46C811.319 116.546 812.067 109.148 812.067 102.55H807.067ZM790.717 128.35V123.35C784.328 123.35 779.217 118.239 779.217 111.85H774.217H769.217C769.217 123.761 778.805 133.35 790.717 133.35V128.35ZM774.217 111.85H779.217V79.6H774.217H769.217V111.85H774.217ZM774.217 79.6H779.217C779.217 73.2114 784.328 68.1 790.717 68.1V63.1V58.1C778.805 58.1 769.217 67.6886 769.217 79.6H774.217ZM790.717 63.1V68.1C794.295 68.1 797.525 69.8314 799.654 72.5986L803.617 69.55L807.58 66.5015C803.708 61.4686 797.638 58.1 790.717 58.1V63.1ZM803.617 69.55L808.321 71.2436C808.984 69.4013 810.755 68.1 812.767 68.1V63.1V58.1C806.379 58.1 800.949 62.1987 798.912 67.8564L803.617 69.55ZM848.924 69.55L844.219 71.2436C844.838 72.963 846.346 74.2078 848.152 74.49C849.957 74.7723 851.773 74.047 852.887 72.5986L848.924 69.55ZM886.124 104.5V99.5C883.362 99.5 881.124 101.739 881.124 104.5H886.124ZM890.024 104.5H895.024C895.024 101.739 892.785 99.5 890.024 99.5V104.5ZM849.524 128.35V133.35C852.285 133.35 854.524 131.111 854.524 128.35H849.524ZM838.124 128.35H833.124C833.124 131.111 835.362 133.35 838.124 133.35V128.35ZM834.074 104.5V109.5C836.835 109.5 839.074 107.261 839.074 104.5H834.074ZM830.174 104.5H825.174C825.174 107.261 827.412 109.5 830.174 109.5V104.5ZM839.924 63.1V68.1C841.846 68.1 843.524 69.3126 844.219 71.2436L848.924 69.55L853.628 67.8564C851.623 62.2874 846.402 58.1 839.924 58.1V63.1ZM848.924 69.55L852.887 72.5986C854.953 69.9125 858.447 68.1 862.124 68.1V63.1V58.1C855.301 58.1 848.895 61.3875 844.961 66.5015L848.924 69.55ZM862.124 63.1V68.1C868.572 68.1 873.624 73.1209 873.624 79.45H878.624H883.624C883.624 67.4791 873.975 58.1 862.124 58.1V63.1ZM878.624 79.45H873.624V116.8H878.624H883.624V79.45H878.624ZM878.624 116.8H873.624C873.624 121.388 877.097 125.55 882.224 125.55V120.55V115.55C882.544 115.55 882.96 115.7 883.271 116.029C883.562 116.337 883.624 116.65 883.624 116.8H878.624ZM882.224 120.55V125.55C886.827 125.55 891.124 121.913 891.124 116.8H886.124H881.124C881.124 116.371 881.318 116.026 881.523 115.833C881.714 115.652 881.96 115.55 882.224 115.55V120.55ZM886.124 116.8H891.124V104.5H886.124H881.124V116.8H886.124ZM886.124 104.5V109.5H890.024V104.5V99.5H886.124V104.5ZM890.024 104.5H885.024V116.8H890.024H895.024V104.5H890.024ZM890.024 116.8H885.024C885.024 120.575 882.227 123.35 878.624 123.35V128.35V133.35C887.921 133.35 895.024 125.925 895.024 116.8H890.024ZM878.624 128.35V123.35C874.851 123.35 871.924 120.405 871.924 116.8H866.924H861.924C861.924 126.095 869.497 133.35 878.624 133.35V128.35ZM866.924 116.8H871.924V79.45H866.924H861.924V116.8H866.924ZM866.924 79.45H871.924C871.924 71.8886 865.785 65.75 858.224 65.75V70.75V75.75C860.262 75.75 861.924 77.4114 861.924 79.45H866.924ZM858.224 70.75V65.75C850.662 65.75 844.524 71.8886 844.524 79.45H849.524H854.524C854.524 77.4114 856.185 75.75 858.224 75.75V70.75ZM849.524 79.45H844.524V128.35H849.524H854.524V79.45H849.524ZM849.524 128.35V123.35H838.124V128.35V133.35H849.524V128.35ZM838.124 128.35H843.124V72.85H838.124H833.124V128.35H838.124ZM838.124 72.85H843.124C843.124 70.9208 842.481 68.9732 841.003 67.4957C839.57 66.0626 837.724 65.45 836.024 65.45V70.45V75.45C835.374 75.45 834.578 75.2124 833.932 74.5668C833.242 73.8768 833.124 73.1292 833.124 72.85H838.124ZM836.024 70.45V65.45C832.135 65.45 829.074 68.6713 829.074 72.85H834.074H839.074C839.074 73.1292 838.959 73.8211 838.332 74.4795C837.757 75.0833 836.933 75.45 836.024 75.45V70.45ZM834.074 72.85H829.074V104.5H834.074H839.074V72.85H834.074ZM834.074 104.5V99.5H830.174V104.5V109.5H834.074V104.5ZM830.174 104.5H835.174V72.85H830.174H825.174V104.5H830.174ZM830.174 72.85H835.174C835.174 70.3614 837.435 68.1 839.924 68.1V63.1V58.1C831.912 58.1 825.174 64.8386 825.174 72.85H830.174ZM972.381 63.1V68.1C973.86 68.1 975.263 67.445 976.213 66.3113C977.163 65.1775 977.563 63.6812 977.304 62.2248L972.381 63.1ZM967.731 63.1L962.837 64.1254C963.322 66.4413 965.365 68.1 967.731 68.1V63.1ZM915.531 68.8V63.8C912.769 63.8 910.531 66.0386 910.531 68.8H915.531ZM966.231 128.35V133.35C968.992 133.35 971.231 131.111 971.231 128.35H966.231ZM954.531 128.35H949.531C949.531 131.111 951.769 133.35 954.531 133.35V128.35ZM939.681 79.45V74.45C937.463 74.45 935.51 75.9108 934.884 78.0383C934.258 80.1658 935.108 82.4515 936.972 83.6529L939.681 79.45ZM950.781 101.95L955.781 102.003C955.781 101.985 955.781 101.968 955.781 101.95H950.781ZM886.131 83.95H891.131C891.131 55.111 912.962 33 934.731 33V28V23C906.399 23 881.131 50.689 881.131 83.95H886.131ZM934.731 28V33C951.118 33 964.18 45.5382 967.458 63.9752L972.381 63.1L977.304 62.2248C973.381 40.1618 957.044 23 934.731 23V28ZM972.381 63.1V58.1H967.731V63.1V68.1H972.381V63.1ZM967.731 63.1L972.625 62.0747C968.963 44.598 955.801 31.1 938.181 31.1V36.1V41.1C949.96 41.1 959.899 50.102 962.837 64.1254L967.731 63.1ZM938.181 36.1V31.1C913.487 31.1 893.881 56.4236 893.881 85.15H898.881H903.881C903.881 59.8764 920.874 41.1 938.181 41.1V36.1ZM898.881 85.15H893.881C893.881 95.8211 896.357 105.682 901.625 113.022C907.018 120.536 915.149 125.1 925.431 125.1V120.1V115.1C918.462 115.1 913.318 112.164 909.749 107.191C906.054 102.043 903.881 94.429 903.881 85.15H898.881ZM925.431 120.1V125.1C937.512 125.1 950.531 116.339 950.531 101.35H945.531H940.531C940.531 109.461 933.45 115.1 925.431 115.1V120.1ZM945.531 101.35H950.531C950.531 86.1993 938.748 74.45 925.431 74.45V79.45V84.45C932.813 84.45 940.531 91.3007 940.531 101.35H945.531ZM925.431 79.45V74.45C924.631 74.45 923.466 73.9093 922.187 72.1188C921.603 71.3007 921.146 70.4127 920.846 69.6501C920.493 68.7505 920.531 68.4725 920.531 68.8H915.531H910.531C910.531 70.3275 911.018 71.9807 911.537 73.303C912.11 74.7623 912.947 76.3868 914.05 77.9312C916.146 80.8657 919.931 84.45 925.431 84.45V79.45ZM915.531 68.8V73.8H945.531V68.8V63.8H915.531V68.8ZM945.531 68.8V73.8C952.63 73.8 956.141 75.2394 958.017 77.1255C959.895 79.0147 961.231 82.4542 961.231 89.2H966.231H971.231C971.231 81.5458 969.792 74.7853 965.108 70.0746C960.421 65.3606 953.581 63.8 945.531 63.8V68.8ZM966.231 89.2H961.231V128.35H966.231H971.231V89.2H966.231ZM966.231 128.35V123.35H954.531V128.35V133.35H966.231V128.35ZM954.531 128.35H959.531V87.25H954.531H949.531V128.35H954.531ZM954.531 87.25H959.531C959.531 84.4558 958.992 81.2974 957.107 78.7152C955.034 75.8743 951.864 74.45 948.231 74.45V79.45V84.45C948.741 84.45 948.946 84.5416 948.973 84.5546C948.984 84.5597 948.99 84.5563 949.029 84.6099C949.17 84.8026 949.531 85.5442 949.531 87.25H954.531ZM948.231 79.45V74.45H939.681V79.45V84.45H948.231V79.45ZM939.681 79.45L936.972 83.6529C942.086 86.9485 945.781 93.4866 945.781 101.95H950.781H955.781C955.781 90.6134 950.775 80.6515 942.389 75.2472L939.681 79.45ZM950.781 101.95L945.781 101.897C945.657 113.553 936.953 123.35 924.681 123.35V128.35V133.35C943.009 133.35 955.605 118.547 955.781 102.003L950.781 101.95ZM924.681 128.35V123.35C905.928 123.35 891.131 106.828 891.131 83.95H886.131H881.131C881.131 110.872 899.034 133.35 924.681 133.35V128.35ZM1010.64 109.3V114.3C1013.4 114.3 1015.64 112.061 1015.64 109.3H1010.64ZM1007.19 109.3H1002.19C1002.19 112.061 1004.43 114.3 1007.19 114.3V109.3ZM1001.04 47.95V42.95C998.276 42.95 996.038 45.1886 996.038 47.95H1001.04ZM1004.94 47.95H1009.94C1009.94 45.1886 1007.7 42.95 1004.94 42.95V47.95ZM1009.74 114.55V119.55C1010.73 119.55 1011.64 120.461 1011.64 121.45H1016.64H1021.64C1021.64 114.939 1016.25 109.55 1009.74 109.55V114.55ZM1016.64 121.45H1011.64C1011.64 122.439 1010.73 123.35 1009.74 123.35V128.35V133.35C1016.25 133.35 1021.64 127.961 1021.64 121.45H1016.64ZM1009.74 128.35V123.35C1008.75 123.35 1007.84 122.439 1007.84 121.45H1002.84H997.838C997.838 127.961 1003.23 133.35 1009.74 133.35V128.35ZM1002.84 121.45H1007.84C1007.84 120.461 1008.75 119.55 1009.74 119.55V114.55V109.55C1003.23 109.55 997.838 114.939 997.838 121.45H1002.84ZM1033.89 52.15H1028.89V63.1H1033.89H1038.89V52.15H1033.89ZM1033.89 63.1H1028.89C1028.89 70.9073 1024.42 76.5564 1018.47 83.5103C1012.94 89.9599 1005.64 97.9772 1005.64 109.3H1010.64H1015.64C1015.64 102.323 1019.96 97.1401 1026.06 90.0147C1031.73 83.3936 1038.89 75.0927 1038.89 63.1H1033.89ZM1010.64 109.3V104.3H1007.19V109.3V114.3H1010.64V109.3ZM1007.19 109.3H1012.19C1012.19 101.879 1015.31 95.8535 1019.18 88.5844C1022.9 81.5748 1027.34 73.3668 1027.34 62.95H1022.34H1017.34C1017.34 70.5332 1014.2 76.6502 1010.35 83.8906C1006.64 90.8715 1002.19 99.0212 1002.19 109.3H1007.19ZM1022.34 62.95H1027.34V45.7H1022.34H1017.34V62.95H1022.34ZM1022.34 45.7H1027.34C1027.34 35.9662 1019.63 27.95 1009.74 27.95V32.95V37.95C1013.95 37.95 1017.34 41.3338 1017.34 45.7H1022.34ZM1009.74 32.95V27.95C999.926 27.95 991.988 35.8886 991.988 45.7H996.988H1001.99C1001.99 41.4114 1005.45 37.95 1009.74 37.95V32.95ZM996.988 45.7H991.988V68.5H996.988H1001.99V45.7H996.988ZM996.988 68.5H991.988C991.988 73.1568 996.027 75.45 999.088 75.45V70.45V65.45C999.706 65.45 1000.35 65.6571 1000.9 66.1287C1001.52 66.6597 1001.99 67.5197 1001.99 68.5H996.988ZM999.088 70.45V75.45C1002.24 75.45 1006.04 72.9439 1006.04 68.5H1001.04H996.038C996.038 67.534 996.493 66.7151 997.056 66.2085C997.542 65.7706 998.229 65.45 999.088 65.45V70.45ZM1001.04 68.5H1006.04V47.95H1001.04H996.038V68.5H1001.04ZM1001.04 47.95V52.95H1004.94V47.95V42.95H1001.04V47.95ZM1004.94 47.95H999.938V68.5H1004.94H1009.94V47.95H1004.94ZM1004.94 68.5H999.938C999.938 70.9886 997.826 73.1 995.338 73.1V78.1V83.1C1003.35 83.1 1009.94 76.5114 1009.94 68.5H1004.94ZM995.338 78.1V73.1C992.748 73.1 990.588 70.8888 990.588 68.5H985.588H980.588C980.588 76.6112 987.427 83.1 995.338 83.1V78.1ZM985.588 68.5H990.588V52.15H985.588H980.588V68.5H985.588ZM985.588 52.15H990.588C990.588 45.4955 993.057 40.8386 996.484 37.7942C1000 34.668 1004.82 33 1009.74 33V28V23C1002.66 23 995.398 25.382 989.842 30.3184C984.194 35.3364 980.588 42.7545 980.588 52.15H985.588ZM1009.74 28V33C1014.74 33 1019.55 34.6738 1023.04 37.7873C1026.44 40.8213 1028.89 45.4754 1028.89 52.15H1033.89H1038.89C1038.89 42.7747 1035.33 35.3537 1029.7 30.3252C1024.15 25.3762 1016.88 23 1009.74 23V28Z" fill="white" mask="url(#path-1-outside-1_190_76)"/>
</g>
<defs>
<filter id="filter0_dddd_190_76" x="0" y="0" width="1315.89" height="433.2" filterUnits="userSpaceOnUse" color-interpolation-filters="sRGB">
<feFlood flood-opacity="0" result="BackgroundImageFix"/>
<feColorMatrix in="SourceAlpha" type="matrix" values="0 0 0 0 0 0 0 0 0 0 0 0 0 0 0 0 0 0 127 0" result="hardAlpha"/>
<feOffset dx="11" dy="10"/>
<feGaussianBlur stdDeviation="16.5"/>
<feColorMatrix type="matrix" values="0 0 0 0 0 0 0 0 0 0 0 0 0 0 0 0 0 0 0.1 0"/>
<feBlend mode="normal" in2="BackgroundImageFix" result="effect1_dropShadow_190_76"/>
<feColorMatrix in="SourceAlpha" type="matrix" values="0 0 0 0 0 0 0 0 0 0 0 0 0 0 0 0 0 0 127 0" result="hardAlpha"/>
<feOffset dx="45" dy="40"/>
<feGaussianBlur stdDeviation="30"/>
<feColorMatrix type="matrix" values="0 0 0 0 0 0 0 0 0 0 0 0 0 0 0 0 0 0 0.09 0"/>
<feBlend mode="normal" in2="effect1_dropShadow_190_76" result="effect2_dropShadow_190_76"/>
<feColorMatrix in="SourceAlpha" type="matrix" values="0 0 0 0 0 0 0 0 0 0 0 0 0 0 0 0 0 0 127 0" result="hardAlpha"/>
<feOffset dx="102" dy="89"/>
<feGaussianBlur stdDeviation="40.5"/>
<feColorMatrix type="matrix" values="0 0 0 0 0 0 0 0 0 0 0 0 0 0 0 0 0 0 0.05 0"/>
<feBlend mode="normal" in2="effect2_dropShadow_190_76" result="effect3_dropShadow_190_76"/>
<feColorMatrix in="SourceAlpha" type="matrix" values="0 0 0 0 0 0 0 0 0 0 0 0 0 0 0 0 0 0 127 0" result="hardAlpha"/>
<feOffset dx="181" dy="159"/>
<feGaussianBlur stdDeviation="48"/>
<feColorMatrix type="matrix" values="0 0 0 0 0 0 0 0 0 0 0 0 0 0 0 0 0 0 0.01 0"/>
<feBlend mode="normal" in2="effect3_dropShadow_190_76" result="effect4_dropShadow_190_76"/>
<feBlend mode="normal" in="SourceGraphic" in2="effect4_dropShadow_190_76" result="shape"/>
</filter>
<linearGradient id="paint0_linear_190_76" x1="5.28878" y1="52.5256" x2="950.81" y2="463.397" gradientUnits="userSpaceOnUse">
<stop stop-color="#E7A24A"/>
<stop offset="1" stop-color="#EF8A07"/>
</linearGradient>
</defs>
</svg>
