<?xml version="1.0" standalone="no"?>
<!DOCTYPE svg PUBLIC "-//W3C//DTD SVG 20010904//EN"
 "http://www.w3.org/TR/2001/REC-SVG-20010904/DTD/svg10.dtd">
<svg version="1.0" xmlns="http://www.w3.org/2000/svg"
 width="720.000000pt" height="541.000000pt" viewBox="0 0 720.000000 541.000000"
 preserveAspectRatio="xMidYMid meet">

<g transform="translate(0.000000,541.000000) scale(0.100000,-0.100000)"
fill="#000000" stroke="none">
<path d="M0 4324 l0 -1086 80 131 c44 73 80 135 80 137 0 14 71 106 130 170
37 39 72 87 79 105 37 98 54 118 200 226 41 31 72 64 88 93 33 62 95 117 190
168 59 32 90 56 119 94 46 61 96 95 204 138 61 25 94 46 139 90 51 49 75 64
163 98 57 22 142 58 190 80 94 44 318 134 438 177 139 49 280 95 294 95 8 0
33 -17 55 -37 45 -40 46 -57 6 -97 -23 -23 -24 -23 -64 -5 -45 20 -61 12 -30
-14 25 -22 24 -58 -2 -91 -22 -28 -42 -35 -33 -11 4 9 -9 21 -40 35 -44 21
-47 21 -95 5 -27 -9 -61 -25 -75 -36 -16 -13 -40 -19 -73 -19 -42 0 -55 -5
-96 -39 -26 -22 -56 -42 -65 -45 -10 -3 -31 -34 -47 -68 -16 -35 -34 -66 -41
-70 -6 -4 -9 -18 -7 -31 6 -31 -31 -115 -42 -97 -4 7 -8 22 -9 34 -1 16 -10
22 -41 28 -22 4 -52 10 -66 13 -38 10 -125 -31 -139 -65 -6 -15 -24 -37 -41
-49 -16 -12 -29 -29 -29 -38 0 -28 -66 -81 -95 -76 -17 4 -34 -3 -55 -21 -18
-14 -40 -26 -49 -26 -22 0 -71 -37 -71 -53 0 -18 -66 -59 -92 -57 -38 3 -41 2
-94 -48 -68 -63 -80 -85 -89 -167 -9 -89 -19 -108 -52 -102 -35 7 -38 -12 -11
-80 18 -44 22 -68 17 -98 -6 -34 -3 -43 17 -62 19 -18 24 -32 24 -72 0 -27 -5
-53 -10 -56 -6 -3 -10 -21 -10 -39 0 -43 -42 -156 -63 -167 -9 -6 -26 -5 -42
1 -33 12 -35 12 -35 0 0 -6 12 -15 27 -21 39 -15 57 -31 43 -39 -8 -5 -8 -15
0 -34 18 -48 12 -90 -16 -117 -30 -27 -68 -84 -78 -115 -5 -17 -1 -23 16 -29
22 -8 22 -8 -4 -12 -36 -6 -35 -18 2 -53 33 -31 37 -57 15 -100 -8 -16 -12
-36 -9 -44 4 -11 0 -16 -14 -16 -10 0 -42 -22 -70 -50 -27 -27 -63 -52 -78
-56 -16 -4 -39 -16 -52 -28 -21 -19 -23 -26 -17 -81 7 -64 33 -117 84 -175 17
-19 31 -43 31 -52 0 -10 5 -18 12 -18 6 0 19 -7 28 -15 25 -22 148 -30 246
-15 83 13 86 13 107 -8 20 -20 20 -25 8 -54 -22 -56 -19 -70 16 -80 21 -5 38
-19 47 -37 8 -15 35 -44 60 -65 26 -21 44 -42 41 -47 -4 -5 -1 -9 4 -9 6 0 11
-7 11 -15 0 -8 8 -15 19 -15 25 0 44 -25 36 -49 -4 -14 2 -27 24 -47 19 -17
31 -37 31 -53 0 -14 11 -36 24 -50 13 -15 36 -50 51 -79 24 -46 34 -56 56 -54
12 2 40 -136 33 -162 -3 -15 -1 -46 5 -69 7 -23 13 -62 14 -87 1 -25 6 -48 10
-51 4 -3 3 -17 -2 -31 -15 -40 -4 -67 27 -65 26 2 27 -1 27 -43 0 -39 3 -45
23 -48 12 -2 22 -6 23 -10 10 -86 15 -92 83 -115 37 -13 84 -17 181 -17 100 0
136 -4 151 -15 26 -19 75 -19 118 2 29 13 40 14 61 5 14 -7 35 -12 46 -12 25
0 80 -28 95 -48 5 -8 16 -34 23 -59 14 -46 44 -69 76 -57 8 3 33 -9 57 -29 35
-28 55 -36 107 -42 37 -4 72 -3 85 3 63 29 85 37 125 47 38 9 46 15 56 45 6
19 18 36 26 38 8 1 19 13 24 25 6 12 16 22 24 22 22 0 90 -58 91 -76 0 -9 6
-27 13 -40 17 -33 110 -129 124 -129 7 0 25 -12 40 -26 26 -24 33 -26 90 -20
62 6 127 28 137 45 4 5 21 12 39 16 17 4 51 16 74 27 24 11 57 21 75 24 18 2
62 11 98 20 36 8 90 20 120 24 67 11 94 38 104 103 10 68 18 71 140 56 82 -10
116 -10 158 -1 29 7 74 9 100 6 45 -6 49 -5 80 28 18 19 54 63 81 97 38 51 47
70 47 103 l0 41 49 -6 c44 -5 49 -4 61 19 13 23 17 24 124 24 136 -1 192 -13
231 -49 48 -46 103 -68 186 -74 94 -8 123 0 194 55 32 23 73 54 93 66 40 27
76 66 96 102 9 16 33 32 65 43 56 19 94 61 106 114 3 17 17 39 31 48 22 14 23
17 10 38 -19 29 -31 114 -19 130 13 17 9 82 -6 101 -15 18 -6 56 13 56 8 0 19
14 26 31 8 17 18 28 26 25 36 -14 145 -27 236 -28 96 -2 107 0 171 29 87 41
127 80 120 117 -3 15 -11 30 -18 33 -16 5 -40 61 -32 70 11 11 -35 43 -62 43
-14 0 -42 5 -61 11 -62 19 -110 27 -116 18 -10 -17 -34 -9 -34 11 0 11 -7 23
-15 26 -8 4 -15 12 -15 20 0 8 -7 14 -15 14 -8 0 -14 3 -13 8 1 4 -3 16 -9 27
-8 15 -8 24 0 36 14 18 58 44 56 32 -1 -4 -1 -25 0 -46 1 -39 18 -54 48 -43
15 6 14 8 -2 20 -20 15 -12 38 12 34 10 -2 20 9 27 29 14 41 41 68 87 87 35
15 38 14 64 -10 22 -20 25 -27 14 -40 -10 -12 -8 -18 9 -30 12 -8 22 -25 22
-38 0 -27 35 -61 71 -70 16 -3 29 -15 33 -28 11 -42 7 -50 -21 -46 -23 2 -27
0 -25 -17 6 -36 20 -40 43 -12 27 36 70 57 112 57 48 0 103 25 123 55 16 24
15 27 -1 45 -9 10 -14 24 -10 30 10 16 25 2 18 -17 -7 -17 -2 -16 42 11 41 25
107 128 92 141 -25 21 -19 55 14 82 l32 27 -34 9 c-42 11 -59 24 -59 46 0 12
2 13 9 3 5 -9 17 -11 36 -6 23 6 25 8 11 16 -24 13 -20 31 5 23 15 -5 19 -4
15 4 -4 6 -1 11 6 11 9 0 9 3 2 8 -6 4 -14 21 -18 37 -3 17 -8 36 -9 44 -2 7
-12 18 -23 24 -40 21 -98 97 -74 97 6 0 10 -7 10 -15 0 -17 16 -20 25 -5 3 6
18 10 33 11 25 1 24 2 -8 11 -19 5 -39 13 -43 18 -14 13 -46 0 -40 -16 3 -9 0
-12 -8 -9 -20 7 -48 -13 -32 -23 8 -5 2 -12 -18 -21 -22 -10 -27 -16 -20 -25
8 -9 6 -18 -4 -32 -13 -18 -15 -18 -50 17 l-36 35 35 -4 c19 -2 43 1 53 7 10
6 12 11 6 11 -18 0 -16 20 2 20 8 0 15 5 15 11 0 6 -9 8 -20 4 -12 -4 -20 -2
-20 4 0 11 -52 9 -107 -3 -26 -5 -30 6 -10 26 8 7 17 25 20 40 4 16 19 31 37
40 36 16 38 24 6 32 -23 6 -23 7 -11 43 13 39 39 53 58 34 15 -15 27 -14 27 1
0 7 12 23 27 36 26 22 21 23 -24 5 -11 -4 -14 -3 -9 5 5 8 -2 12 -21 12 -15 0
-36 7 -46 14 -10 8 -27 12 -37 9 -15 -4 -20 0 -20 15 0 35 25 45 113 44 l82
-1 -33 16 c-25 13 -35 14 -41 5 -11 -18 -78 6 -85 32 -8 32 9 41 40 22 18 -13
36 -16 58 -11 17 3 44 7 60 7 l29 1 -27 14 c-15 8 -41 13 -59 11 -29 -3 -32 0
-35 25 -3 22 -7 27 -20 21 -40 -16 -62 -16 -62 0 0 9 -18 36 -40 60 -22 24
-40 48 -40 55 0 6 -6 11 -13 11 -14 0 -31 -27 -42 -67 -4 -13 -14 -23 -23 -23
-10 0 -22 -9 -27 -21 -6 -13 -38 -32 -83 -50 -40 -16 -74 -29 -76 -29 -10 0
-1 40 11 44 11 4 13 14 9 32 -10 38 17 74 54 74 17 0 30 2 30 5 0 19 -33 65
-48 66 -9 1 -24 2 -32 3 -10 1 -14 10 -12 27 2 19 -4 33 -22 47 -46 36 -20 68
28 37 14 -10 26 -13 26 -7 0 6 -9 14 -20 17 -11 3 -20 13 -20 21 0 8 -7 14
-15 14 -8 0 -15 -4 -15 -10 0 -5 -7 -10 -15 -10 -8 0 -15 9 -15 19 0 11 -9 27
-21 35 -12 8 -18 19 -14 25 3 6 -1 11 -11 11 -11 0 -15 6 -11 20 4 15 0 20
-13 20 -23 0 -90 -80 -90 -108 0 -27 -17 -37 -35 -22 -9 8 -15 31 -15 60 0 27
-3 55 -6 64 -8 20 -34 21 -34 1 0 -16 -16 -20 -24 -6 -3 5 1 12 10 15 11 4 13
14 9 39 -6 29 -4 35 14 40 12 3 21 0 21 -6 0 -7 5 -5 10 3 6 10 10 11 10 3 0
-19 42 -15 70 7 15 11 41 20 63 20 44 0 60 -25 46 -75 -12 -40 -11 -45 5 -45
20 0 107 49 139 79 33 30 57 81 57 120 0 15 9 44 20 66 24 47 25 82 5 132 -18
44 -45 66 -66 52 -12 -8 -12 -10 1 -18 12 -9 12 -11 -4 -17 -11 -4 -21 -2 -27
7 -10 16 -12 46 -3 36 3 -3 12 0 19 6 11 10 10 17 -3 40 -17 29 -35 37 -26 12
7 -17 -31 -21 -56 -5 -13 9 -13 10 0 10 47 0 37 68 -10 71 -44 3 -48 4 -56 12
-4 4 -1 7 7 7 8 0 20 9 27 20 11 18 10 20 -12 20 -16 0 -23 5 -22 17 0 12 -7
19 -21 21 -13 2 -23 9 -23 15 0 7 -11 24 -24 39 -23 25 -55 42 -156 82 -25 10
-53 22 -62 27 -10 5 -31 9 -47 9 -16 0 -34 6 -40 14 -14 17 -83 27 -181 27
-123 0 -120 0 -120 -19 0 -21 -39 -62 -61 -63 -8 0 -6 -4 6 -8 11 -5 30 -4 43
0 36 14 53 11 50 -8 -4 -23 -19 -34 -39 -28 -9 3 -34 -1 -57 -9 -39 -14 -42
-14 -42 3 0 10 -10 23 -22 29 -23 11 -23 11 -2 17 19 6 63 65 49 65 -4 0 -26
-12 -50 -26 -36 -21 -48 -23 -65 -14 -12 6 -25 8 -28 4 -4 -4 0 -9 8 -12 8 -3
27 -17 42 -32 21 -21 26 -34 22 -55 -7 -39 56 -96 101 -93 17 2 30 8 30 15 0
7 6 18 12 24 18 18 15 -59 -4 -89 -13 -22 -13 -26 5 -45 11 -12 30 -42 42 -67
27 -53 46 -69 81 -70 34 0 46 -26 17 -36 -12 -3 -24 -1 -28 6 -10 17 -30 3
-30 -21 0 -15 7 -19 34 -19 34 0 34 0 25 -34 -6 -21 -6 -43 0 -59 10 -27 -2
-47 -28 -47 -12 0 -11 -3 2 -18 10 -10 17 -25 17 -33 0 -8 7 -22 15 -32 7 -11
11 -25 9 -32 -10 -24 76 -112 120 -123 18 -5 32 -16 34 -26 3 -16 -1 -17 -36
-11 -52 9 -84 -22 -81 -76 2 -22 -5 -48 -19 -71 -26 -42 -31 -132 -8 -157 12
-14 13 -28 4 -89 -12 -77 -28 -94 -67 -72 -16 8 -24 7 -40 -9 -29 -29 -52 -68
-50 -83 4 -31 -2 -58 -13 -58 -6 0 -22 10 -35 22 -20 19 -25 20 -33 8 -5 -8
-8 -35 -6 -60 4 -62 -8 -92 -36 -88 -21 3 -24 11 -31 78 -4 41 -8 92 -7 113 1
47 -5 57 -30 50 -17 -5 -18 -7 -5 -27 7 -11 17 -37 20 -58 6 -34 4 -38 -31
-62 -43 -29 -71 -33 -99 -12 -18 13 -17 15 18 37 29 19 36 29 31 44 -14 47
-25 118 -20 131 3 9 -1 14 -13 14 -10 0 -48 14 -84 30 -37 17 -68 30 -71 30
-3 0 -16 -41 -15 -49 1 -9 -28 -21 -53 -21 -63 0 -72 -19 -32 -61 30 -31 42
-105 24 -140 -8 -15 -8 -24 0 -34 12 -15 6 -35 -11 -35 -5 0 -9 9 -9 20 0 30
-44 27 -58 -4 -12 -28 -56 -61 -69 -53 -16 10 -12 -38 5 -56 16 -17 15 -20 -8
-38 -14 -10 -29 -19 -33 -19 -5 0 -22 -9 -37 -20 -16 -11 -31 -16 -34 -11 -6
10 -20 9 -49 -4 -10 -4 -21 -5 -24 -1 -4 3 -25 -5 -49 -19 -49 -29 -58 -31
-51 -10 4 8 2 17 -3 20 -15 10 -3 40 18 43 13 2 22 -4 27 -17 12 -38 35 -17
35 30 0 11 5 29 11 41 l11 20 19 -21 c10 -11 19 -25 19 -31 0 -5 5 -10 10 -10
6 0 10 7 10 15 0 24 25 28 59 11 16 -9 32 -13 35 -8 2 4 -22 20 -55 36 -33 16
-59 34 -58 40 3 23 -14 76 -25 76 -20 0 -39 -17 -27 -24 18 -12 12 -36 -9 -36
-12 0 -20 -7 -20 -16 0 -13 -7 -15 -37 -9 -21 4 -42 7 -47 8 -5 1 -14 -11 -20
-28 -13 -36 -28 -48 -38 -32 -4 7 -8 8 -8 3 0 -6 -6 -1 -14 10 -10 12 -11 21
-4 25 15 10 0 29 -17 22 -8 -3 -15 0 -15 6 0 6 -9 11 -20 11 -13 0 -20 -7 -20
-19 0 -10 -9 -21 -20 -24 -24 -6 -27 8 -4 17 8 3 12 10 9 16 -11 18 -21 11
-35 -25 -8 -19 -20 -35 -27 -35 -7 0 -10 -6 -7 -15 9 -22 -13 -18 -29 6 -13
17 -13 27 -1 66 18 60 18 79 -2 87 -14 5 -15 4 -5 -8 20 -24 3 -36 -53 -36
-48 0 -57 4 -87 35 -27 27 -42 35 -71 35 -52 0 -68 9 -68 37 0 14 -4 22 -10
18 -6 -4 -23 1 -37 11 -26 17 -27 16 -42 -7 -9 -13 -29 -37 -45 -53 -17 -17
-32 -46 -36 -66 -5 -33 -8 -35 -43 -36 -34 -1 -37 1 -37 26 0 28 27 60 51 60
9 0 14 11 14 30 0 17 -3 30 -7 30 -5 0 -8 -4 -8 -10 0 -5 -15 -10 -34 -10 -25
0 -35 -5 -39 -19 -5 -22 -38 -19 -58 5 -6 8 -17 14 -24 14 -17 0 -27 27 -12
34 9 3 8 5 -1 5 -28 2 -23 -30 8 -59 27 -25 30 -33 20 -46 -10 -11 -10 -18 -2
-26 17 -17 15 -28 -4 -28 -9 0 -21 14 -27 30 -8 21 -18 30 -33 30 -13 0 -24 7
-27 18 -4 13 -5 11 -6 -5 -1 -18 -7 -23 -26 -23 -14 0 -25 4 -25 8 0 5 -19 15
-42 22 -73 24 -128 50 -128 62 0 6 -3 9 -6 6 -3 -4 0 -17 7 -30 13 -23 13 -31
4 -75 -6 -24 -38 -32 -50 -13 -9 15 -48 -9 -41 -26 3 -9 -1 -14 -14 -14 -13 0
-20 7 -20 20 0 13 -10 24 -26 30 -32 13 -77 13 -69 1 8 -15 -34 -24 -50 -11
-10 8 -15 8 -20 0 -5 -8 -12 -4 -22 9 -22 32 -35 26 -28 -13 5 -26 3 -35 -10
-40 -9 -3 -22 -3 -28 1 -7 3 -9 3 -5 -2 10 -10 -10 -35 -28 -35 -8 0 -14 5
-14 11 0 18 -69 81 -80 74 -16 -10 -12 -33 8 -44 9 -6 12 -11 6 -11 -6 0 -17
7 -24 15 -7 9 -28 15 -49 14 -28 -1 -31 -2 -14 -7 13 -4 31 -14 41 -23 10 -9
39 -22 65 -30 26 -7 47 -17 47 -21 0 -4 -36 -8 -79 -8 -62 0 -80 3 -85 16 -4
10 -13 13 -26 9 -12 -4 -20 -2 -20 4 0 7 -12 9 -30 6 -29 -5 -38 3 -23 19 8 8
9 13 12 41 1 9 11 15 26 15 29 0 31 8 10 36 -12 16 -14 16 -15 3 0 -9 -9 -19
-19 -22 -19 -5 -35 16 -44 58 -3 11 -5 2 -6 -21 0 -22 -7 -49 -15 -59 -12 -17
-16 -18 -32 -5 -16 14 -17 13 -12 -8 4 -12 2 -20 -3 -16 -5 3 -9 11 -9 18 0 8
-11 21 -25 30 -14 9 -25 24 -25 32 0 13 -9 15 -42 12 -24 -3 -52 -8 -62 -13
-14 -6 -17 -5 -12 4 4 6 -2 32 -14 56 -17 36 -27 45 -47 45 -27 0 -27 4 -8 83
6 21 3 26 -16 29 -33 5 -48 34 -27 54 15 15 21 15 49 4 28 -12 33 -12 44 4 7
9 16 13 19 8 7 -12 46 -4 46 9 0 6 -8 12 -17 15 -10 3 -26 10 -36 15 -24 13
-66 1 -46 -13 12 -8 11 -9 -1 -5 -8 2 -14 13 -13 25 2 13 -12 33 -36 55 -35
31 -38 40 -44 101 -3 36 -2 66 2 66 5 0 9 21 10 48 1 65 1 68 -3 142 -3 36 -1
70 4 75 17 21 37 95 33 120 -10 51 7 135 33 158 13 11 24 30 24 41 1 12 14 37
30 56 20 22 30 45 30 66 0 30 25 64 47 64 15 0 40 32 47 62 5 21 13 27 45 33
33 5 41 11 46 34 3 16 17 38 30 50 14 11 25 30 25 41 0 17 4 18 25 10 21 -8
27 -6 40 14 9 13 13 31 9 40 -9 23 53 84 86 85 54 2 62 5 70 27 14 36 31 40
53 10 22 -30 37 -21 37 21 0 31 38 64 65 57 16 -4 26 2 39 20 10 16 26 26 40
26 12 0 31 9 41 20 10 11 28 20 41 20 13 0 26 5 29 10 4 7 13 6 27 -1 16 -9
24 -7 40 11 13 14 26 19 37 14 9 -4 37 -9 63 -12 40 -3 49 -1 55 15 18 48 35
51 230 46 152 -4 187 -2 213 11 30 14 34 14 58 -4 28 -20 41 -23 80 -21 24 1
40 27 26 41 -5 5 -28 11 -51 14 -33 4 -43 2 -43 -10 0 -8 -5 -14 -10 -14 -12
0 -6 28 20 110 18 53 18 55 -3 92 -21 37 -24 38 -62 32 -22 -3 -65 -16 -95
-29 -30 -13 -68 -26 -84 -30 -43 -9 -114 -62 -148 -110 l-30 -42 -91 -7 c-57
-4 -100 -12 -115 -22 -21 -14 -30 -14 -62 -4 -27 9 -43 9 -57 2 -11 -6 -28 -9
-39 -6 -14 4 -22 -3 -31 -26 -11 -29 -13 -30 -55 -24 -59 8 -306 92 -382 129
-77 38 -88 68 -29 84 101 27 390 81 488 92 61 6 133 21 160 32 40 16 83 22
220 27 94 4 196 13 227 20 47 12 77 12 171 1 91 -9 131 -9 200 0 80 12 94 11
192 -11 93 -20 114 -22 180 -13 80 12 141 4 285 -36 41 -11 146 -36 232 -56
361 -81 631 -173 913 -309 175 -85 355 -190 355 -207 0 -4 36 -19 80 -34 98
-33 163 -75 208 -135 58 -79 79 -96 144 -121 62 -23 146 -94 191 -159 l18 -25
17 21 c22 27 78 49 114 45 24 -2 28 1 28 23 0 14 5 26 10 26 6 0 10 -4 10 -10
0 -5 8 -10 18 -10 13 0 14 2 4 9 -17 11 7 21 49 21 29 0 39 14 17 23 -8 3 -6
6 5 6 9 1 27 7 38 14 17 10 23 10 26 0 3 -8 22 -13 44 -13 l39 0 0 555 0 555
-3600 0 -3600 0 0 -1086z m2340 432 c0 -3 -4 -8 -10 -11 -5 -3 -10 -1 -10 4 0
6 5 11 10 11 6 0 10 -2 10 -4z m-310 -66 c0 -13 -7 -20 -20 -20 -13 0 -20 7
-20 20 0 13 7 20 20 20 13 0 20 -7 20 -20z m645 9 c10 -14 1 -21 -19 -13 -9 3
-13 10 -10 15 7 12 21 11 29 -2z m-135 -109 c0 -5 -4 -10 -10 -10 -5 0 -10 5
-10 10 0 6 5 10 10 10 6 0 10 -4 10 -10z m-676 -132 c20 -29 20 -38 0 -38 -13
0 -14 -3 -5 -14 16 -20 -12 -40 -44 -32 -24 6 -25 8 -10 23 13 13 14 18 3 25
-10 8 -10 11 0 15 6 2 10 9 6 14 -3 5 2 9 11 9 9 0 13 5 10 10 -13 20 14 9 29
-12z m3726 1 c0 -6 -4 -7 -10 -4 -5 3 -10 11 -10 16 0 6 5 7 10 4 6 -3 10 -11
10 -16z m-3430 -19 c0 -6 -11 -10 -25 -10 -23 0 -34 18 -19 33 9 8 44 -11 44
-23z m3485 -10 c3 -5 -3 -10 -15 -10 -12 0 -18 5 -15 10 3 6 10 10 15 10 5 0
12 -4 15 -10z m-4057 -16 c21 -14 31 -44 15 -44 -12 0 -76 24 -92 34 -11 7
-11 10 0 17 21 13 52 11 77 -7z m3922 -13 c0 -23 -16 -36 -25 -21 -9 14 1 40
15 40 5 0 10 -9 10 -19z m184 10 c10 -15 -7 -21 -22 -8 -11 8 -14 8 -9 0 9
-14 -9 -27 -25 -17 -7 5 -5 11 7 21 21 15 41 17 49 4z m82 -13 c8 -12 -14 -28
-37 -28 -10 0 -15 8 -13 23 1 12 3 23 3 24 3 5 42 -11 47 -19z m50 -7 c-4 -5
-1 -11 6 -13 14 -5 22 -48 9 -48 -12 0 -16 8 -25 43 -4 17 -2 27 4 27 6 0 9
-4 6 -9z m-4049 -17 c-3 -3 -12 -4 -19 -1 -8 3 -5 6 6 6 11 1 17 -2 13 -5z
m-288 -18 c9 -10 9 -16 1 -21 -17 -11 -40 3 -34 20 8 19 18 19 33 1z m4011 -6
c11 -20 -3 -30 -15 -10 -9 15 -25 12 -25 -5 0 -22 -28 -18 -41 6 -10 20 -9 21
10 16 11 -3 24 -1 27 4 9 16 33 10 44 -11z m-90 -25 c0 -8 -4 -15 -9 -15 -13
0 -22 16 -14 24 11 11 23 6 23 -9z m-3495 -15 c-3 -5 -10 -10 -16 -10 -5 0 -9
5 -9 10 0 6 7 10 16 10 8 0 12 -4 9 -10z m3535 -23 c0 -24 -21 -37 -42 -26
-15 8 -17 13 -7 25 14 18 49 18 49 1z m199 -4 c-11 -13 -11 -17 -1 -20 20 -7
14 -23 -13 -35 -14 -6 -24 -17 -21 -24 7 -18 -32 -28 -49 -14 -7 6 -12 20 -10
31 4 21 -21 27 -27 7 -3 -7 -5 2 -5 20 0 18 3 29 6 24 3 -4 15 -9 26 -9 11 -1
27 -3 35 -5 9 -2 14 3 12 14 -2 11 6 18 25 21 15 2 30 5 32 6 2 0 -3 -6 -10
-16z m-139 -7 c0 -2 -7 -9 -15 -16 -12 -10 -15 -10 -15 4 0 9 7 16 15 16 8 0
15 -2 15 -4z m450 -6 c0 -5 -4 -10 -9 -10 -6 0 -13 5 -16 10 -3 6 1 10 9 10 9
0 16 -4 16 -10z m-45 -30 c3 -5 -1 -10 -9 -10 -9 0 -16 5 -16 10 0 6 4 10 9
10 6 0 13 -4 16 -10z m-4386 -9 c9 -6 10 -11 2 -15 -6 -4 -18 0 -27 8 -12 12
-12 16 -2 16 7 0 19 -4 27 -9z m4331 -7 c0 -17 -22 -14 -28 4 -2 7 3 12 12 12
9 0 16 -7 16 -16z m-4251 -13 c20 -13 6 -41 -17 -34 -26 6 -37 43 -14 43 10 0
23 -4 31 -9z m147 -26 c0 -27 -4 -35 -18 -35 -14 0 -18 8 -18 35 0 27 4 35 18
35 14 0 18 -8 18 -35z m4241 24 c6 -6 9 -18 6 -25 -3 -9 2 -14 13 -14 18 -1
18 -1 0 -15 -10 -7 -15 -19 -11 -25 4 -7 -4 -4 -19 5 -22 14 -24 20 -14 32 10
12 9 17 -5 25 -19 10 -14 28 7 28 6 0 17 -5 23 -11z m-552 -19 c0 -9 -11 -16
-27 -18 -30 -4 -36 6 -16 26 16 16 43 11 43 -8z m230 -1 c8 -12 -31 -49 -52
-49 -19 0 -16 17 7 40 22 22 36 25 45 9z m215 2 c0 -17 -20 -23 -48 -16 l-27
8 25 7 c36 11 50 11 50 1z m65 -78 c5 -17 2 -23 -10 -23 -12 0 -15 6 -10 20 4
12 2 20 -5 20 -6 0 -8 5 -4 11 8 13 19 2 29 -28z m-4654 -92 c-19 -19 -20 -19
-39 2 -11 12 -22 42 -25 65 l-5 44 44 -46 c43 -45 43 -47 25 -65z m-94 82 c3
-7 -4 -9 -16 -6 -12 3 -18 9 -15 15 7 11 26 6 31 -9z m4278 -3 c3 -5 -1 -10
-10 -10 -9 0 -13 5 -10 10 3 6 8 10 10 10 2 0 7 -4 10 -10z m117 -34 c-11 -11
-18 -26 -16 -31 2 -6 -5 -16 -15 -22 -15 -10 -19 -9 -17 2 1 8 9 22 17 32 9
10 19 26 22 36 4 10 12 15 18 12 7 -5 4 -14 -9 -29z m188 17 c0 -5 -7 -16 -14
-26 -11 -14 -15 -15 -24 -4 -9 10 -8 17 0 25 13 13 38 16 38 5z m85 -8 c-21
-17 -37 -15 -43 3 -2 8 8 12 30 12 31 -1 32 -1 13 -15z m235 5 c13 -8 11 -11
-7 -16 -13 -4 -23 -14 -23 -23 -1 -14 -2 -14 -14 1 -7 10 -16 15 -19 12 -3 -4
-14 -3 -24 1 -15 6 -14 9 12 21 36 16 55 17 75 4z m48 -28 c2 -7 -3 -12 -12
-12 -9 0 -16 7 -16 16 0 17 22 14 28 -4z m-4776 -44 c-6 -6 -16 -7 -22 -3 -9
6 -9 9 1 16 17 10 34 0 21 -13z m4745 16 c-3 -3 -12 -4 -19 -1 -8 3 -5 6 6 6
11 1 17 -2 13 -5z m-4127 -33 c0 -11 -5 -23 -11 -27 -15 -9 -33 12 -26 30 9
23 37 20 37 -3z m-650 -17 c16 -6 51 -70 42 -78 -2 -3 -14 1 -24 9 -11 7 -25
12 -32 11 -6 -2 -8 -1 -4 1 4 3 1 20 -7 40 -11 25 -11 33 -2 29 6 -3 19 -9 27
-12z m45 6 c3 -5 1 -10 -4 -10 -6 0 -11 5 -11 10 0 6 2 10 4 10 3 0 8 -4 11
-10z m-256 -106 c24 -15 38 -30 32 -32 -20 -7 -161 93 -161 113 0 3 19 -7 43
-23 23 -16 62 -42 86 -58z m921 55 c0 -6 -4 -7 -10 -4 -5 3 -10 11 -10 16 0 6
5 7 10 4 6 -3 10 -11 10 -16z m-76 -61 c7 -31 -5 -36 -25 -11 -10 12 -11 17
-2 20 7 2 9 12 6 21 -4 12 -3 14 4 7 6 -5 13 -22 17 -37z m-484 12 c0 -5 -7
-10 -15 -10 -8 0 -15 5 -15 10 0 6 7 10 15 10 8 0 15 -4 15 -10z m525 0 c3 -5
1 -10 -4 -10 -6 0 -11 5 -11 10 0 6 2 10 4 10 3 0 8 -4 11 -10z m3565 -29 c0
-13 -10 -20 -32 -25 -39 -8 -41 -5 -22 22 19 27 54 29 54 3z m-3550 -13 c0
-19 -2 -20 -10 -8 -13 19 -13 30 0 30 6 0 10 -10 10 -22z m-677 -22 c10 -8 15
-20 11 -30 -6 -15 -8 -16 -23 -1 -9 9 -25 22 -35 29 -24 16 -13 41 12 26 9 -5
25 -16 35 -24z m336 -18 c1 -27 -18 -22 -25 6 -8 32 6 58 17 30 4 -10 8 -27 8
-36z m-54 32 c-3 -5 -10 -10 -16 -10 -5 0 -9 5 -9 10 0 6 7 10 16 10 8 0 12
-4 9 -10z m-150 -91 c4 -11 4 -23 1 -26 -3 -4 -6 1 -6 10 0 11 -6 15 -17 11
-11 -4 -14 -3 -7 3 8 5 5 14 -8 28 -19 20 -19 20 -12 0 8 -21 6 -21 -16 9 -10
13 -10 17 -2 12 13 -8 17 14 5 30 -5 5 6 -5 24 -24 18 -18 35 -42 38 -53z
m4145 76 c0 -9 -52 -11 -57 -2 -3 6 -1 7 5 3 7 -4 12 -3 12 2 0 6 9 8 20 5 11
-3 20 -7 20 -8z m-4441 -22 c2 -2 -3 -3 -11 -3 -9 0 -19 7 -22 16 -6 15 -4 15
11 3 10 -7 20 -15 22 -16z m336 17 c3 -5 2 -10 -4 -10 -5 0 -13 5 -16 10 -3 6
-2 10 4 10 5 0 13 -4 16 -10z m4345 -21 c0 -5 -12 -9 -27 -9 -27 1 -27 1 -9
15 19 14 36 12 36 -6z m-4280 -19 c0 -5 -2 -10 -4 -10 -3 0 -8 5 -11 10 -3 6
-1 10 4 10 6 0 11 -4 11 -10z m-651 -29 c8 -15 7 -20 -6 -25 -21 -8 -35 6 -27
27 8 22 21 21 33 -2z m631 -22 c0 -6 -4 -7 -10 -4 -5 3 -10 1 -10 -6 0 -7 -2
-10 -5 -7 -9 8 6 38 16 32 5 -3 9 -10 9 -15z m100 11 c0 -5 -2 -10 -4 -10 -3
0 -8 5 -11 10 -3 6 -1 10 4 10 6 0 11 -4 11 -10z m-360 -34 c0 -5 -8 -2 -18 7
-10 10 -22 14 -27 10 -4 -5 -5 -2 -1 4 5 10 11 10 26 0 11 -6 20 -16 20 -21z
m450 24 c0 -5 -2 -10 -4 -10 -3 0 -8 5 -11 10 -3 6 -1 10 4 10 6 0 11 -4 11
-10z m3970 1 c0 -13 -27 -21 -45 -15 -25 10 -17 24 15 24 17 0 30 -4 30 -9z
m-88 -23 c-7 -7 -12 -8 -12 -2 0 14 12 26 19 19 2 -3 -1 -11 -7 -17z m128 -8
c12 -8 11 -10 -7 -10 -13 0 -23 5 -23 10 0 13 11 13 30 0z m-4420 -25 c7 -9
10 -18 6 -22 -7 -8 -56 17 -56 29 0 14 37 9 50 -7z m505 -15 c14 0 29 -29 19
-39 -7 -8 -44 37 -43 53 0 7 2 7 6 -1 2 -7 11 -13 18 -13z m-385 -38 c-15 -5
-41 18 -34 30 3 5 15 1 26 -9 11 -10 15 -19 8 -21z m-360 18 c0 -5 -9 -10 -20
-10 -11 0 -20 5 -20 10 0 6 9 10 20 10 11 0 20 -4 20 -10z m54 -40 c7 -7 3
-10 -11 -10 -28 0 -53 10 -53 21 0 12 50 3 64 -11z m285 1 c16 -16 71 -114 71
-127 0 -2 -7 -4 -15 -4 -9 0 -15 -9 -15 -22 0 -20 -1 -21 -20 -3 -11 10 -20
22 -20 27 0 4 9 8 20 8 32 0 24 30 -20 70 -37 35 -53 70 -30 70 6 0 19 -9 29
-19z m340 5 c9 -11 7 -13 -13 -13 -14 0 -27 6 -30 13 -3 9 2 14 13 14 10 0 24
-6 30 -14z m-279 -39 c0 -4 -7 -2 -15 7 -8 8 -15 21 -15 28 1 14 30 -20 30
-35z m503 6 c-21 -8 -15 -23 9 -23 17 0 19 -3 10 -12 -18 -18 -46 13 -37 42 5
17 10 19 18 10 9 -10 9 -14 0 -17z m-443 -37 c-1 -21 -1 -21 -15 -2 -21 27
-20 53 0 36 8 -7 15 -22 15 -34z m-380 4 c0 -10 7 -23 15 -30 17 -14 20 -40 6
-40 -5 0 -23 11 -40 26 -26 22 -29 28 -19 49 12 26 38 23 38 -5z m4528 17 c8
-9 5 -26 -11 -60 -18 -40 -26 -47 -46 -45 -33 4 -40 28 -9 28 34 0 50 18 36
40 -12 18 -5 50 10 50 5 0 14 -6 20 -13z m269 -19 c-3 -8 -6 -5 -6 6 -1 11 2
17 5 13 3 -3 4 -12 1 -19z m-4601 -33 c35 -30 29 -38 -19 -23 -35 11 -46 26
-30 41 11 11 18 8 49 -18z m-305 -55 l24 -19 -35 9 c-19 6 -36 10 -37 10 -2 0
-3 5 -3 10 0 16 26 11 51 -10z m4796 14 c-3 -3 -12 -4 -19 -1 -8 3 -5 6 6 6
11 1 17 -2 13 -5z m-4523 -59 c3 -8 12 -15 21 -15 9 0 18 7 21 15 4 8 10 15
16 15 5 0 6 -4 3 -10 -3 -5 1 -10 9 -10 22 0 20 -17 -4 -30 -11 -6 -18 -15
-15 -21 11 -17 -32 -9 -55 11 -13 11 -18 20 -12 20 7 0 12 5 12 10 0 6 -7 10
-15 10 -8 0 -15 5 -15 10 0 16 27 12 34 -5z m4516 -18 c0 -23 -45 -97 -58 -97
-11 0 -38 20 -28 20 5 0 3 6 -3 14 -9 10 -8 16 4 26 8 7 15 18 15 24 0 14 51
46 62 40 5 -3 8 -15 8 -27z m-4744 14 c-4 -5 0 -11 6 -14 7 -2 10 -8 6 -12
-12 -13 -38 3 -32 20 3 8 10 15 16 15 5 0 7 -4 4 -9z m154 -11 c0 -6 -23 -20
-34 -20 -1 0 -2 8 -3 19 -1 14 3 17 18 14 10 -3 19 -9 19 -13z m370 0 c0 -5 7
-10 15 -10 8 0 15 -4 15 -10 0 -13 -3 -13 -34 1 -14 7 -23 16 -20 20 7 12 24
11 24 -1z m4120 -9 c0 -5 -5 -11 -12 -13 -7 -3 -13 -24 -14 -49 -2 -24 -6 -63
-9 -86 -6 -39 -10 -43 -36 -43 -19 0 -29 5 -29 15 0 22 -33 18 -48 -5 -7 -11
-17 -20 -22 -20 -15 0 -44 50 -46 79 -2 14 -3 27 -4 29 -5 7 -2 73 3 78 3 3
29 1 56 -6 46 -11 53 -10 78 9 28 21 83 29 83 12z m-4090 -48 c22 -10 23 -12
7 -18 -20 -9 -47 11 -47 34 0 9 3 12 8 6 4 -6 18 -16 32 -22z m4230 -18 c0 -7
-7 -18 -15 -22 -17 -10 -10 -22 33 -52 32 -22 43 -50 20 -52 -10 0 -10 -2 0
-6 6 -2 12 -9 12 -13 0 -14 -46 -60 -59 -60 -7 0 -22 -9 -34 -21 l-22 -20 -9
31 c-9 31 -11 32 -52 26 -24 -3 -45 -2 -48 3 -6 9 30 51 44 51 5 0 30 18 55
40 25 22 42 40 37 40 -9 0 -8 21 4 58 5 17 34 15 34 -3z m130 -5 c0 -10 -39
-34 -46 -27 -3 2 -2 12 2 21 7 17 44 23 44 6z m-5165 -21 c4 -11 4 -23 1 -27
-8 -7 -36 30 -30 40 9 14 23 8 29 -13z m517 6 c15 -2 30 0 33 5 8 13 42 13 50
0 4 -7 -2 -9 -18 -4 -22 5 -25 3 -20 -15 5 -18 1 -20 -31 -19 -20 1 -36 5 -36
10 0 4 -16 8 -35 8 -26 0 -35 4 -35 16 0 13 7 15 33 10 17 -3 44 -8 59 -11z
m4591 -17 c3 -9 -6 -13 -24 -14 -28 -1 -36 6 -22 19 11 12 41 8 46 -5z m-4916
-14 c-3 -3 -12 -4 -19 -1 -8 3 -5 6 6 6 11 1 17 -2 13 -5z m5341 -26 c-3 -30
-6 -33 -40 -36 -41 -3 -50 11 -18 28 11 6 20 17 20 25 0 8 9 15 21 15 17 0 20
-5 17 -32z m-5183 -8 c4 -6 -7 -10 -27 -10 -25 0 -29 3 -18 10 19 13 37 13 45
0z m499 -31 c-4 -7 -7 -23 -8 -37 -1 -14 -6 -27 -13 -29 -9 -3 -10 4 -3 26 9
33 18 51 26 51 3 0 2 -5 -2 -11z m3221 -29 c4 0 3 5 0 10 -3 6 -1 10 4 10 13
0 13 -3 5 -24 -9 -23 -31 -20 -37 6 -8 30 4 47 14 20 5 -12 11 -22 14 -22z
m-3075 10 c0 -11 -48 -25 -56 -17 -4 3 -3 10 1 16 8 14 55 14 55 1z m3762 -46
c9 -19 8 -28 -7 -44 -21 -24 -71 -50 -79 -42 -12 11 -5 42 9 42 19 0 19 10 -1
38 -21 30 -12 39 31 34 26 -3 40 -11 47 -28z m-4622 6 c0 -5 -4 -10 -10 -10
-5 0 -10 5 -10 10 0 6 5 10 10 10 6 0 10 -4 10 -10z m4704 -11 c-7 -11 -34
-12 -34 -1 0 14 11 21 26 15 8 -3 11 -9 8 -14z m496 3 c0 -5 -12 -15 -27 -23
-16 -8 -32 -20 -36 -26 -4 -7 -17 -13 -27 -13 -11 0 -20 -4 -20 -9 0 -14 49
-98 65 -111 19 -15 20 -50 2 -50 -8 0 -35 14 -60 31 -33 22 -51 28 -60 21 -6
-5 -27 -13 -44 -17 -39 -8 -43 -22 -8 -31 14 -3 25 -10 25 -15 0 -5 9 -9 20
-9 12 0 24 -10 30 -24 5 -13 18 -27 29 -31 12 -3 21 -12 21 -19 0 -8 6 -19 14
-26 8 -6 12 -18 9 -26 -3 -9 2 -14 14 -14 11 0 27 -6 37 -13 16 -12 16 -14 -7
-26 -22 -12 -27 -10 -50 13 -36 36 -87 33 -87 -4 0 -26 -40 -37 -55 -16 -7 9
-26 16 -46 16 -34 0 -35 1 -36 40 l-2 40 44 0 c24 0 47 5 50 10 3 6 -4 10 -18
10 -14 0 -40 15 -61 34 -19 19 -44 36 -53 38 -10 2 -16 8 -15 13 2 6 8 9 13 8
4 -2 21 2 36 8 22 8 24 12 13 19 -28 18 -60 11 -71 -14 -13 -29 -55 -42 -76
-25 -12 10 -16 10 -23 -1 -5 -8 -6 -17 -2 -20 12 -9 8 -56 -7 -73 -11 -14 -11
-17 1 -17 7 0 24 -7 36 -16 17 -12 20 -19 12 -32 -25 -45 -25 -45 -67 -23 -22
11 -43 17 -47 14 -3 -4 -6 -1 -6 5 0 7 7 12 15 12 12 0 12 3 -2 18 -10 11 -21
17 -25 15 -10 -5 -21 17 -23 46 -2 14 -4 31 -5 36 -7 32 1 65 17 65 9 0 25 8
35 17 14 12 21 14 26 6 4 -6 20 -15 35 -18 15 -4 27 -11 27 -17 0 -5 5 -6 10
-3 15 9 12 25 -6 25 -8 0 -13 4 -9 10 3 5 12 7 20 3 8 -3 15 0 15 7 0 9 13 11
45 8 49 -6 54 -2 28 18 -17 12 -16 13 5 14 12 0 31 -9 43 -21 21 -21 53 -19
74 6 5 6 22 19 38 29 23 14 26 20 17 36 -15 27 0 50 47 75 39 22 113 32 113
17z m128 -9 c5 -17 -26 -29 -40 -15 -6 6 -7 15 -3 22 9 14 37 9 43 -7z m-4678
3 c0 -3 -4 -8 -10 -11 -5 -3 -10 -1 -10 4 0 6 5 11 10 11 6 0 10 -2 10 -4z
m3870 -16 c0 -13 -28 -25 -38 -16 -3 4 0 11 8 16 20 13 30 12 30 0z m-4528
-12 c-9 -9 -15 -9 -24 0 -9 9 -7 12 12 12 19 0 21 -3 12 -12z m4987 -12 c7 -8
8 -17 3 -20 -6 -3 -12 3 -15 14 -6 24 -4 25 12 6z m-4204 -6 c3 -5 4 -14 0
-20 -8 -13 -35 -1 -35 16 0 16 26 19 35 4z m4510 0 c-3 -5 -10 -10 -16 -10 -5
0 -9 5 -9 10 0 6 7 10 16 10 8 0 12 -4 9 -10z m-5405 -10 c0 -5 -12 -10 -27
-9 l-28 1 25 8 c14 4 26 8 28 9 1 1 2 -3 2 -9z m4125 -11 c0 -8 -10 -15 -22
-17 -25 -4 -33 22 -10 31 18 8 32 2 32 -14z m818 -29 c10 -8 -31 -50 -47 -50
-6 0 -19 7 -29 14 -18 14 -18 15 -1 35 18 20 56 20 77 1z m397 10 c0 -5 -7
-10 -15 -10 -8 0 -15 5 -15 10 0 6 7 10 15 10 8 0 15 -4 15 -10z m120 0 c0 -5
-2 -10 -4 -10 -3 0 -8 5 -11 10 -3 6 -1 10 4 10 6 0 11 -4 11 -10z m-4412 -12
c-3 -7 -13 -15 -24 -17 -16 -3 -17 -1 -5 13 16 19 34 21 29 4z m3557 2 c3 -5
-1 -10 -10 -10 -9 0 -13 5 -10 10 3 6 8 10 10 10 2 0 7 -4 10 -10z m-4655 -4
c0 -3 -4 -8 -10 -11 -5 -3 -10 -1 -10 4 0 6 5 11 10 11 6 0 10 -2 10 -4z m780
-27 c0 -5 -6 -9 -14 -9 -15 0 -28 24 -19 34 7 7 33 -13 33 -25z m4040 21 c0
-5 -2 -10 -4 -10 -3 0 -8 5 -11 10 -3 6 -1 10 4 10 6 0 11 -4 11 -10z m-3780
-14 c0 -2 -7 -7 -16 -10 -8 -3 -12 -2 -9 4 6 10 25 14 25 6z m3642 -21 c3 -14
1 -25 -3 -25 -5 0 -9 -6 -9 -13 0 -8 -12 -20 -26 -27 -21 -12 -27 -12 -33 -1
-6 9 -11 10 -15 2 -4 -6 -2 -11 4 -11 9 0 31 -41 25 -48 -1 -1 -15 2 -30 8
-20 8 -26 15 -22 30 3 11 -1 21 -12 25 -25 10 25 34 72 35 26 0 37 4 37 15 0
8 -5 15 -11 15 -5 0 -7 5 -4 10 11 17 22 11 27 -15z m878 21 c0 -3 -4 -8 -10
-11 -5 -3 -10 -1 -10 4 0 6 5 11 10 11 6 0 10 -2 10 -4z m-740 -30 c0 -30 -14
-40 -46 -32 -30 8 -31 30 -1 44 35 17 47 14 47 -12z m770 -16 c-5 -10 -10 -28
-10 -40 0 -19 -4 -21 -27 -15 -16 4 -30 8 -32 10 -2 2 11 20 30 39 33 36 57
39 39 6z m-4626 6 c-10 -8 -21 -12 -24 -10 -5 6 21 24 34 24 6 0 1 -6 -10 -14z
m-654 -6 c13 -8 13 -10 -2 -10 -9 0 -20 5 -23 10 -8 13 5 13 25 0z m5220 1 c0
-5 -7 -12 -16 -15 -24 -9 -28 -7 -14 9 14 17 30 20 30 6z m-5101 -36 c8 -9
-27 -5 -53 5 -14 5 -26 14 -26 20 0 9 65 -12 79 -25z m-492 -22 c3 -7 -3 -9
-16 -6 -12 3 -21 10 -21 15 0 13 32 6 37 -9z m4363 8 c0 -22 -45 -61 -88 -77
-26 -9 -51 -21 -56 -26 -6 -4 -19 -8 -30 -8 -17 0 -15 4 12 21 39 26 35 36 -8
21 -18 -7 -28 -7 -25 -2 4 6 11 10 17 10 6 0 19 7 29 16 45 40 149 72 149 45z
m448 -24 c3 -15 -1 -17 -24 -11 -23 6 -26 4 -21 -10 7 -19 -4 -21 -21 -4 -14
14 -16 4 -2 -21 11 -22 -8 -81 -28 -81 -7 0 -15 -7 -18 -15 -4 -10 -21 -15
-48 -16 -22 0 -34 -3 -26 -6 8 -4 21 -14 27 -24 8 -11 21 -15 35 -12 21 4 22
3 6 -10 -10 -8 -18 -19 -18 -26 0 -13 -56 -15 -64 -2 -3 5 4 11 16 14 18 5 19
8 8 22 -10 12 -23 14 -55 9 -27 -4 -45 -2 -49 5 -4 6 -16 11 -28 11 -13 0 -18
5 -15 14 4 10 -1 12 -16 9 -18 -4 -19 -3 -7 6 19 14 50 14 50 1 0 -21 19 -9
28 18 7 21 5 33 -9 52 -16 24 -16 29 -2 58 14 30 43 44 43 22 0 -5 -7 -10 -15
-10 -20 0 -19 -16 1 -24 11 -4 15 -15 12 -34 -3 -25 -1 -28 18 -24 12 2 25 -1
28 -7 8 -12 86 -16 86 -4 0 3 -7 14 -16 24 -15 17 -15 19 10 31 19 8 26 17 23
30 -3 10 -1 18 5 18 5 0 7 4 4 8 -2 4 14 8 37 7 32 0 42 -4 45 -18z m-4401 7
c-3 -3 -12 -4 -19 -1 -8 3 -5 6 6 6 11 1 17 -2 13 -5z m-441 -31 c-10 -10 -19
5 -10 18 6 11 8 11 12 0 2 -7 1 -15 -2 -18z m5593 1 c2 -2 -3 -12 -12 -22 -10
-10 -17 -24 -17 -30 0 -19 -17 -22 -46 -8 -19 10 -33 12 -45 5 -10 -5 -24 -9
-31 -9 -7 0 12 13 42 29 30 15 54 33 52 40 -1 8 7 9 25 5 16 -4 30 -8 32 -10z
m-4729 -25 c0 -5 -7 -9 -15 -9 -8 0 -15 7 -15 15 0 9 6 12 15 9 8 -4 15 -10
15 -15z m647 15 c-3 -3 -12 -4 -19 -1 -8 3 -5 6 6 6 11 1 17 -2 13 -5z m2646
-14 c15 -7 27 -22 27 -32 0 -16 -6 -19 -36 -16 -44 4 -65 28 -45 52 7 9 16 14
20 13 3 -2 18 -9 34 -17z m-2933 -26 c0 -8 -4 -12 -10 -9 -5 3 -10 10 -10 16
0 5 5 9 10 9 6 0 10 -7 10 -16z m-246 -29 c-33 -43 -64 -44 -75 -2 -4 15 -3
27 2 27 5 0 9 -4 9 -10 0 -16 60 -12 66 5 4 8 10 15 16 15 5 0 -3 -16 -18 -35z
m3456 9 c17 -43 12 -54 -19 -54 -43 0 -60 9 -76 40 -17 33 -11 38 48 39 31 1
39 -3 47 -25z m676 11 c16 -12 17 -16 4 -24 -12 -8 -10 -12 10 -19 20 -8 22
-11 9 -17 -10 -3 -31 4 -52 18 -33 22 -34 25 -19 40 22 20 24 20 48 2z m-299
-31 c-3 -3 -12 -4 -19 -1 -8 3 -5 6 6 6 11 1 17 -2 13 -5z m48 -23 c3 -5 1
-12 -5 -16 -18 -11 -11 -21 35 -44 24 -12 47 -26 50 -31 3 -4 24 -18 47 -30
24 -12 50 -31 59 -42 17 -22 39 -17 39 8 0 30 32 64 59 64 28 0 81 -20 81 -31
0 -11 -53 -30 -59 -21 -3 5 -13 11 -23 15 -12 4 -18 -1 -22 -20 -9 -33 -41
-67 -59 -60 -7 3 -33 1 -58 -3 -48 -9 -65 -4 -50 13 11 14 -12 77 -27 77 -6 0
-37 18 -71 41 -55 36 -60 43 -45 54 9 6 14 17 10 23 -5 8 0 12 13 12 11 0 22
-4 26 -9z m693 -42 c-10 -7 -10 -9 0 -9 6 0 12 -4 12 -10 0 -5 -9 -10 -20 -10
-22 0 -27 -16 -8 -22 9 -3 7 -10 -6 -24 -14 -13 -21 -15 -24 -6 -2 6 -10 12
-17 12 -23 0 -28 20 -9 41 14 16 15 23 5 45 l-12 27 41 -7 c29 -4 40 -3 41 6
1 7 4 2 6 -11 3 -13 -1 -27 -9 -32z m-1335 28 c3 -8 1 -20 -4 -28 -6 -10 -9
-7 -9 14 0 29 5 35 13 14z m87 -34 c0 -12 8 -14 38 -9 32 6 34 5 17 -6 -20
-13 -76 -18 -107 -11 -27 7 -21 23 8 23 22 0 24 3 18 22 -6 20 -5 21 10 9 9
-7 16 -20 16 -28z m-4225 17 c3 -5 1 -10 -4 -10 -6 0 -11 5 -11 10 0 6 2 10 4
10 3 0 8 -4 11 -10z m4051 -25 c46 -19 39 -39 -14 -43 -41 -3 -42 -2 -42 27 0
35 6 37 56 16z m279 -5 c3 -5 -1 -10 -9 -10 -9 0 -16 5 -16 10 0 6 4 10 9 10
6 0 13 -4 16 -10z m200 -38 c-8 -8 -25 10 -19 20 4 6 9 5 15 -3 4 -7 6 -15 4
-17z m450 18 c4 -6 -5 -10 -20 -10 -15 0 -24 4 -20 10 3 6 12 10 20 10 8 0 17
-4 20 -10z m-5010 -10 c-3 -5 -15 -10 -26 -10 -11 0 -17 5 -14 10 3 6 15 10
26 10 11 0 17 -4 14 -10z m3035 6 c0 -11 -19 -15 -25 -6 -3 5 1 10 9 10 9 0
16 -2 16 -4z m560 -16 c0 -5 -8 -10 -17 -10 -15 0 -16 2 -3 10 19 12 20 12 20
0z m2020 -21 c0 -5 -9 -9 -20 -9 -11 0 -20 4 -20 8 0 4 9 8 20 9 11 1 20 -2
20 -8z m-5705 -9 c4 -6 -5 -10 -20 -10 -15 0 -24 4 -20 10 3 6 12 10 20 10 8
0 17 -4 20 -10z m1695 1 c0 -6 -4 -12 -8 -15 -5 -3 -9 1 -9 9 0 8 4 15 9 15 4
0 8 -4 8 -9z m2724 0 c9 -15 -23 -36 -36 -23 -5 5 -7 15 -4 21 9 13 33 14 40
2z m1607 -19 c9 -25 -7 -40 -24 -23 -6 6 -23 11 -38 11 -18 0 -28 6 -32 20 -5
18 -1 20 40 17 37 -2 48 -7 54 -25z m-3022 -12 c9 -28 8 -30 -13 -30 -12 0
-26 -4 -32 -10 -6 -6 -14 -2 -22 11 -12 19 -11 20 7 14 19 -6 20 -4 11 19 -9
23 -7 26 14 26 18 0 27 -8 35 -30z m261 26 c0 -2 -9 -6 -20 -9 -11 -3 -18 -1
-14 4 5 9 34 13 34 5z m2560 0 c0 -3 -4 -8 -10 -11 -5 -3 -10 -1 -10 4 0 6 5
11 10 11 6 0 10 -2 10 -4z m-1098 -38 c-7 -7 -12 -8 -12 -2 0 14 12 26 19 19
2 -3 -1 -11 -7 -17z m541 10 c2 -7 0 -20 -4 -28 -27 -54 -39 -93 -34 -109 4
-13 -3 -26 -21 -40 -31 -24 -44 -27 -44 -7 0 8 -15 17 -35 20 -19 4 -35 11
-35 16 0 4 10 6 22 2 15 -4 19 -2 13 8 -4 7 -2 15 4 20 8 4 2 11 -18 20 -44
18 -39 33 9 25 36 -6 40 -5 40 14 0 15 7 21 23 23 12 0 27 2 32 3 6 2 14 3 19
4 5 0 3 7 -3 15 -9 11 -9 15 1 19 21 9 26 8 31 -5z m-2098 -24 c-23 -17 -32
-10 -15 11 7 8 17 12 23 8 6 -4 3 -11 -8 -19z m2278 5 c20 -5 37 -13 37 -17
-1 -17 -19 -34 -29 -28 -6 4 -11 4 -11 -1 0 -16 -61 -8 -71 10 -6 9 -15 17
-21 17 -9 0 -9 -3 0 -12 18 -18 15 -28 -9 -28 -14 0 -19 5 -16 14 3 7 0 19 -6
25 -14 14 26 15 53 1 15 -8 17 -6 13 10 -6 23 5 25 60 9z m102 1 c6 -9 -24
-64 -31 -57 -2 2 -1 18 2 35 7 32 18 40 29 22z m160 -44 c-25 -19 -35 -9 -28
27 l6 29 20 -21 c21 -21 21 -21 2 -35z m-920 34 c3 -5 2 -10 -4 -10 -5 0 -13
5 -16 10 -3 6 -2 10 4 10 5 0 13 -4 16 -10z m80 -30 c17 -18 17 -20 2 -15 -9
3 -24 7 -33 10 -8 3 -12 9 -9 15 9 15 20 12 40 -10z m-505 0 c0 -5 -4 -10 -10
-10 -5 0 -10 5 -10 10 0 6 5 10 10 10 6 0 10 -4 10 -10z m1417 -36 c-3 -3 -12
0 -20 7 -10 10 -11 17 -3 25 8 10 13 8 20 -7 5 -11 6 -22 3 -25z m-778 4 c11
-29 5 -35 -43 -44 -26 -4 -37 -3 -33 4 4 5 0 12 -8 16 -18 7 -20 32 -2 39 6 3
27 6 45 6 25 1 35 -4 41 -21z m381 2 c0 -10 -58 -50 -72 -50 -5 0 -8 5 -8 10
0 6 5 10 10 10 6 0 19 9 30 20 22 22 40 26 40 10z m97 -7 c5 -14 -24 -43 -42
-43 -9 0 -12 6 -9 15 4 8 10 15 15 15 5 0 9 7 9 16 0 17 21 15 27 -3z m373 3
c0 -3 -4 -8 -10 -11 -5 -3 -10 -1 -10 4 0 6 5 11 10 11 6 0 10 -2 10 -4z
m-138 -41 c-3 -21 -7 -23 -23 -14 -25 13 -24 18 4 29 12 5 23 9 23 9 1 1 -1
-10 -4 -24z m-923 -9 c13 -14 20 -29 16 -35 -10 -18 -36 -13 -42 8 -3 11 -17
21 -34 25 -40 8 -37 26 4 26 23 0 41 -8 56 -24z m1099 8 c15 -10 21 -22 17
-33 -3 -10 6 -37 19 -61 23 -41 25 -70 4 -70 -12 0 -38 26 -38 39 0 5 -8 17
-17 27 -18 17 -29 114 -14 114 3 0 17 -7 29 -16z m-1020 -34 c0 -22 -4 -40 -8
-40 -5 0 -15 -3 -24 -6 -11 -4 -16 0 -16 14 0 11 7 22 15 26 8 3 15 15 15 26
0 11 4 20 9 20 6 0 9 -18 9 -40z m-4641 14 c-3 -3 -12 -4 -19 -1 -8 3 -5 6 6
6 11 1 17 -2 13 -5z m1693 -4 c0 -5 -5 -10 -11 -10 -5 0 -7 5 -4 10 3 6 8 10
11 10 2 0 4 -4 4 -10z m1865 0 c3 -5 -1 -10 -10 -10 -9 0 -13 5 -10 10 3 6 8
10 10 10 2 0 7 -4 10 -10z m731 -5 c-8 -8 -17 -15 -20 -15 -3 0 -3 7 0 15 4 8
13 15 21 15 12 0 12 -2 -1 -15z m539 5 c13 -6 15 -9 5 -9 -8 0 -22 4 -30 9
-18 12 -2 12 25 0z m305 -39 c0 -5 8 -7 19 -4 12 3 24 -3 35 -18 23 -33 21
-36 -29 -43 -24 -4 -49 -14 -53 -23 -5 -8 -33 -23 -63 -33 -46 -16 -54 -23
-54 -44 1 -13 -2 -23 -6 -20 -4 2 -9 -2 -12 -8 -2 -7 -5 6 -5 30 -1 37 4 48
36 78 20 19 39 34 42 34 4 0 12 11 18 25 10 21 9 25 -3 25 -26 0 -16 19 13 22
29 4 62 -7 62 -21z m-273 13 c-3 -3 -12 -4 -19 -1 -8 3 -5 6 6 6 11 1 17 -2
13 -5z m601 -11 c-6 -7 -16 -13 -22 -13 -6 0 -17 -9 -24 -20 -14 -23 -54 -26
-72 -5 -9 11 -9 17 2 28 20 21 39 26 85 25 34 -1 40 -4 31 -15z m-4398 -23 c0
-5 -4 -10 -10 -10 -5 0 -10 5 -10 10 0 6 5 10 10 10 6 0 10 -4 10 -10z m2448
-10 c13 0 12 -3 -4 -15 -22 -17 -43 -20 -27 -4 6 6 10 17 9 23 -2 6 -1 8 1 4
3 -5 12 -8 21 -8z m1307 10 c3 -5 -1 -10 -9 -10 -9 0 -16 5 -16 10 0 6 4 10 9
10 6 0 13 -4 16 -10z m795 0 c13 -9 13 -11 0 -20 -15 -10 -40 -14 -40 -6 0 2
-3 11 -6 20 -7 18 22 22 46 6z m-879 -57 c-9 -15 -10 -13 -11 13 0 17 3 34 8
38 11 12 14 -32 3 -51z m759 43 c0 -21 -21 -31 -31 -15 -14 22 -11 29 11 29
11 0 20 -6 20 -14z m-553 -39 c-3 -11 -59 -12 -94 -2 -30 10 -18 28 13 21 13
-4 24 -2 24 3 0 6 11 6 30 -1 17 -5 29 -15 27 -21z m-1400 -1 c0 -8 -8 -11
-19 -8 -10 2 -18 10 -18 17 0 8 8 11 18 8 10 -2 19 -10 19 -17z m1713 14 c0
-5 -4 -10 -10 -10 -5 0 -10 5 -10 10 0 6 5 10 10 10 6 0 10 -4 10 -10z m-5029
-14 c5 3 9 -4 9 -15 0 -12 -4 -21 -10 -21 -5 0 -10 7 -10 15 0 8 -8 15 -17 15
-15 0 -16 2 -3 10 10 6 16 6 18 0 2 -6 8 -8 13 -4z m3079 5 c0 -5 -7 -12 -16
-15 -24 -9 -28 -7 -14 9 14 17 30 20 30 6z m1480 -21 c0 -5 -9 -10 -21 -10
-11 0 -17 5 -14 10 3 6 13 10 21 10 8 0 14 -4 14 -10z m784 1 c4 -5 26 -19 50
-31 50 -24 64 -46 35 -55 -10 -4 -19 -10 -19 -15 0 -4 -9 -6 -21 -3 -16 4 -17
8 -7 14 10 7 10 9 0 9 -7 0 -17 11 -22 25 -5 14 -15 25 -22 25 -16 1 -142 -62
-146 -72 -2 -5 -13 -8 -24 -8 -35 0 -16 33 30 48 25 8 39 18 36 24 -5 7 -2 8
6 3 7 -4 15 -3 19 2 10 15 54 43 68 43 6 0 14 -4 17 -9z m-1941 -21 c-3 -11
-7 -20 -9 -20 -2 0 -4 9 -4 20 0 11 4 20 9 20 5 0 7 -9 4 -20z m1100 -10 c-3
-11 -12 -20 -19 -20 -17 0 -18 12 -2 28 18 18 27 15 21 -8z m-1515 -21 c-3 -8
-7 -3 -11 10 -4 17 -3 21 5 13 5 -5 8 -16 6 -23z m1285 1 c-21 -24 -29 -25
-36 -6 -4 10 -1 13 9 9 7 -3 14 0 14 6 0 6 7 11 15 11 12 0 12 -3 -2 -20z
m-2629 -6 c10 -25 -1 -29 -14 -5 -6 12 -7 21 -1 21 5 0 12 -7 15 -16z m993 0
c-3 -3 -12 -4 -19 -1 -8 3 -5 6 6 6 11 1 17 -2 13 -5z m817 -6 c-3 -4 -9 -8
-15 -8 -5 0 -9 4 -9 8 0 5 7 9 15 9 8 0 12 -4 9 -9z m-269 -49 c4 -5 18 -14
31 -19 23 -9 34 -40 14 -40 -22 0 -25 2 -22 15 2 10 -6 11 -35 4 -52 -12 -53
-12 -53 11 0 30 51 53 65 29z m1290 -9 c3 -5 2 -10 -4 -10 -5 0 -13 5 -16 10
-3 6 -2 10 4 10 5 0 13 -4 16 -10z m287 -87 c-2 -17 4 -23 28 -28 16 -4 30
-11 30 -16 0 -13 -24 -11 -39 4 -10 10 -15 9 -24 -4 -7 -9 -24 -19 -39 -23
-16 -3 -28 -10 -28 -16 0 -5 12 -11 28 -13 16 -2 9 -5 -20 -6 -27 0 -48 4 -48
9 0 6 -12 10 -27 10 -25 0 -25 1 -9 19 16 18 16 20 -6 35 -23 16 -23 16 10 10
26 -5 32 -3 32 10 0 21 35 36 80 33 30 -2 35 -5 32 -24z m-3912 -13 c0 -5 -5
-10 -11 -10 -5 0 -7 5 -4 10 3 6 8 10 11 10 2 0 4 -4 4 -10z m1700 -30 c0 -5
-4 -10 -9 -10 -6 0 -13 5 -16 10 -3 6 1 10 9 10 9 0 16 -4 16 -10z m490 -60
c0 -5 -7 -10 -16 -10 -8 0 -12 5 -9 10 3 6 10 10 16 10 5 0 9 -4 9 -10z m1904
-8 c-6 -4 -13 -15 -17 -24 -3 -10 -11 -18 -18 -18 -6 0 -8 7 -5 16 3 9 6 19 6
24 0 9 32 19 40 13 2 -2 0 -7 -6 -11z m-1607 2 c-3 -3 -12 -4 -19 -1 -8 3 -5
6 6 6 11 1 17 -2 13 -5z m226 -13 c4 -4 1 -15 -7 -26 -16 -22 -49 -14 -40 10
4 11 2 14 -9 10 -8 -4 -17 0 -20 8 -4 11 3 13 31 10 21 -2 40 -7 45 -12z
m-1043 5 c0 -3 -4 -8 -10 -11 -5 -3 -10 -1 -10 4 0 6 5 11 10 11 6 0 10 -2 10
-4z m2477 -41 c6 -14 7 -25 2 -25 -5 0 -9 5 -9 10 0 6 -7 10 -15 10 -16 0 -20
12 -8 23 11 12 18 8 30 -18z m-169 -2 c2 -8 -6 -13 -22 -13 -19 0 -24 4 -19
15 6 18 34 16 41 -2z m242 8 c0 -11 -39 -25 -47 -18 -3 3 -2 10 2 16 8 13 45
15 45 2z m-1498 -43 c-7 -7 -12 -8 -12 -2 0 14 12 26 19 19 2 -3 -1 -11 -7
-17z m113 12 c3 -5 2 -10 -4 -10 -5 0 -13 5 -16 10 -3 6 -2 10 4 10 5 0 13 -4
16 -10z m1240 0 c3 -5 1 -10 -4 -10 -6 0 -11 5 -11 10 0 6 2 10 4 10 3 0 8 -4
11 -10z m-1805 -10 c8 -5 11 -10 5 -10 -5 0 -17 5 -25 10 -8 5 -10 10 -5 10 6
0 17 -5 25 -10z m-360 -14 c0 -3 -4 -8 -10 -11 -5 -3 -10 -1 -10 4 0 6 5 11
10 11 6 0 10 -2 10 -4z m-329 -53 c-12 -20 -14 -14 -5 12 4 9 9 14 11 11 3 -2
0 -13 -6 -23z m-681 -47 c0 -3 -4 -8 -10 -11 -5 -3 -10 -1 -10 4 0 6 5 11 10
11 6 0 10 -2 10 -4z m-230 -10 c0 -3 -4 -8 -10 -11 -5 -3 -10 -1 -10 4 0 6 5
11 10 11 6 0 10 -2 10 -4z m1000 -68 c0 -17 -23 -3 -26 16 -2 14 0 15 12 5 8
-6 14 -16 14 -21z m1749 -20 c12 -31 -15 -47 -34 -21 -20 26 -18 43 5 43 12 0
24 -9 29 -22z m-464 -8 c3 -5 1 -10 -4 -10 -6 0 -11 5 -11 10 0 6 2 10 4 10 3
0 8 -4 11 -10z m-3190 -10 c3 -5 1 -10 -4 -10 -6 0 -11 5 -11 10 0 6 2 10 4
10 3 0 8 -4 11 -10z m3445 -24 c0 -3 -4 -8 -10 -11 -5 -3 -10 -1 -10 4 0 6 5
11 10 11 6 0 10 -2 10 -4z m-1900 -16 c0 -5 -2 -10 -4 -10 -3 0 -8 5 -11 10
-3 6 -1 10 4 10 6 0 11 -4 11 -10z m2065 0 c3 -6 -1 -7 -9 -4 -18 7 -21 14 -7
14 6 0 13 -4 16 -10z m-1315 -20 c0 -5 -4 -10 -10 -10 -5 0 -10 5 -10 10 0 6
5 10 10 10 6 0 10 -4 10 -10z m790 -10 c0 -5 -4 -10 -10 -10 -5 0 -10 5 -10
10 0 6 5 10 10 10 6 0 10 -4 10 -10z m-1752 -142 c-2 -6 -10 -14 -16 -16 -7
-2 -10 2 -6 12 7 18 28 22 22 4z m635 -15 c-7 -2 -19 -2 -25 0 -7 3 -2 5 12 5
14 0 19 -2 13 -5z m33 -51 c-4 -3 -11 0 -16 8 -15 24 -11 33 6 15 9 -9 13 -19
10 -23z m64 8 c0 -5 -5 -10 -11 -10 -5 0 -7 5 -4 10 3 6 8 10 11 10 2 0 4 -4
4 -10z m-145 -110 c-3 -5 -12 -10 -18 -10 -7 0 -6 4 3 10 19 12 23 12 15 0z
m-1835 -39 c0 -6 -4 -13 -10 -16 -5 -3 -10 1 -10 9 0 9 5 16 10 16 6 0 10 -4
10 -9z m1470 -1 c0 -5 -4 -10 -10 -10 -5 0 -10 5 -10 10 0 6 5 10 10 10 6 0
10 -4 10 -10z m86 -22 c-10 -6 -20 -7 -24 -3 -9 8 20 25 31 18 5 -3 2 -10 -7
-15z m159 12 c3 -5 1 -10 -4 -10 -6 0 -11 5 -11 10 0 6 2 10 4 10 3 0 8 -4 11
-10z m-370 -30 c3 -5 1 -10 -4 -10 -6 0 -11 5 -11 10 0 6 2 10 4 10 3 0 8 -4
11 -10z m341 -17 c-7 -8 -56 9 -51 18 3 4 17 3 30 -3 14 -6 23 -13 21 -15z
m134 23 c0 -3 -4 -8 -10 -11 -5 -3 -10 -1 -10 4 0 6 5 11 10 11 6 0 10 -2 10
-4z m-290 -56 c0 -5 -2 -10 -4 -10 -3 0 -8 5 -11 10 -3 6 -1 10 4 10 6 0 11
-4 11 -10z m70 0 c8 -5 11 -10 5 -10 -5 0 -17 5 -25 10 -8 5 -10 10 -5 10 6 0
17 -5 25 -10z m640 0 c0 -5 -2 -10 -4 -10 -3 0 -8 5 -11 10 -3 6 -1 10 4 10 6
0 11 -4 11 -10z m-1573 -56 c-3 -3 -12 -4 -19 -1 -8 3 -5 6 6 6 11 1 17 -2 13
-5z m-257 -34 c0 -5 -5 -10 -11 -10 -5 0 -7 5 -4 10 3 6 8 10 11 10 2 0 4 -4
4 -10z m1107 -186 c-3 -3 -12 -4 -19 -1 -8 3 -5 6 6 6 11 1 17 -2 13 -5z
m-243 -253 c-8 -8 -53 42 -47 52 3 5 16 -4 28 -19 13 -16 21 -31 19 -33z"/>
<path d="M5690 3276 c0 -7 6 -19 14 -25 19 -16 32 5 16 24 -16 19 -30 19 -30
1z"/>
<path d="M5670 3266 c0 -8 4 -17 9 -20 5 -4 7 3 4 14 -6 23 -13 26 -13 6z"/>
<path d="M6095 3080 c3 -5 8 -10 11 -10 2 0 4 5 4 10 0 6 -5 10 -11 10 -5 0
-7 -4 -4 -10z"/>
<path d="M5340 2711 c0 -5 6 -11 13 -14 8 -3 14 1 14 9 0 8 -6 14 -14 14 -7 0
-13 -4 -13 -9z"/>
<path d="M3503 4660 c1 -19 8 -26 27 -27 21 -2 22 -1 6 5 -11 5 -23 17 -28 28
-6 16 -7 15 -5 -6z"/>
<path d="M5010 4555 c0 -19 5 -25 21 -25 11 0 29 -5 40 -10 28 -15 23 2 -9 33
-35 34 -52 34 -52 2z"/>
<path d="M3719 4385 c-1 -5 -1 -14 0 -19 1 -5 -8 -15 -20 -24 -19 -13 -20 -17
-7 -26 8 -6 17 -19 21 -28 4 -12 17 -18 38 -18 26 0 30 3 24 18 -4 9 -7 25 -7
35 0 10 -6 21 -14 24 -9 3 -20 15 -24 27 -5 12 -10 17 -11 11z"/>
<path d="M7137 4283 c-25 -24 18 -32 49 -8 18 14 17 14 -12 15 -17 0 -34 -3
-37 -7z"/>
<path d="M3540 4229 c0 -5 5 -7 10 -4 6 3 10 8 10 11 0 2 -4 4 -10 4 -5 0 -10
-5 -10 -11z"/>
<path d="M3623 4233 c-13 -2 -23 -10 -23 -17 0 -15 24 -38 36 -35 5 1 26 -1
47 -6 29 -6 42 -4 54 8 13 13 13 17 -3 36 -18 21 -53 25 -111 14z"/>
<path d="M3740 4150 c-8 -5 -12 -11 -9 -14 3 -3 14 1 25 9 21 16 8 20 -16 5z"/>
<path d="M6805 4140 c-3 -5 1 -10 9 -10 9 0 16 5 16 10 0 6 -4 10 -9 10 -6 0
-13 -4 -16 -10z"/>
<path d="M3600 4129 c0 -5 5 -7 10 -4 6 3 10 8 10 11 0 2 -4 4 -10 4 -5 0 -10
-5 -10 -11z"/>
<path d="M2450 4110 c-13 -8 -12 -10 3 -10 9 0 17 5 17 10 0 12 -1 12 -20 0z"/>
<path d="M7173 3828 c-30 -15 -29 -28 2 -28 18 0 25 5 25 20 0 11 -1 20 -2 19
-2 0 -13 -5 -25 -11z"/>
<path d="M2290 3420 c0 -11 4 -20 9 -20 17 0 19 15 5 28 -12 11 -14 9 -14 -8z"/>
<path d="M6185 3420 c3 -5 10 -10 16 -10 5 0 9 5 9 10 0 6 -7 10 -16 10 -8 0
-12 -4 -9 -10z"/>
<path d="M6223 3298 c2 -7 12 -13 22 -13 10 0 20 6 23 13 2 7 -6 12 -23 12
-17 0 -25 -5 -22 -12z"/>
<path d="M3820 3175 c0 -8 4 -15 10 -15 5 0 7 7 4 15 -4 8 -8 15 -10 15 -2 0
-4 -7 -4 -15z"/>
<path d="M5290 3142 c-14 -2 -29 -8 -35 -14 -7 -7 1 -9 24 -4 51 9 61 26 11
18z"/>
<path d="M6717 3136 c-3 -7 -22 -16 -41 -20 -30 -6 -36 -11 -36 -31 0 -14 0
-28 0 -32 -1 -5 8 -9 20 -11 28 -5 25 -20 -6 -34 l-25 -12 23 -17 c19 -15 21
-20 10 -31 -7 -7 -28 -11 -47 -9 -20 1 -35 -2 -35 -8 0 -10 12 -14 65 -24 18
-3 16 -5 -9 -17 -25 -13 -30 -12 -41 3 -16 22 -22 21 -28 -2 -4 -18 1 -19 64
-18 52 2 68 -1 64 -10 -3 -7 -7 -19 -11 -27 -3 -7 6 -20 20 -30 27 -17 35 -9
14 12 -23 23 3 25 47 2 25 -13 48 -20 52 -16 4 4 3 10 -3 14 -6 4 -10 15 -8
26 1 10 -6 33 -17 52 -24 43 -24 44 0 44 25 0 34 -14 35 -54 1 -24 6 -32 23
-34 18 -3 23 1 22 20 0 13 1 32 4 43 2 11 -3 25 -12 32 -15 11 -15 12 0 13 9
0 21 -10 28 -22 l12 -23 -5 24 c-3 14 0 31 7 39 10 12 7 14 -21 8 -21 -5 -32
-4 -32 4 0 6 -4 9 -9 6 -15 -10 -39 4 -44 26 -4 14 -11 19 -23 14 -12 -5 -15
-2 -10 11 4 9 1 36 -6 60 -12 43 -31 56 -41 29z m-17 -56 c0 -5 -5 -10 -11
-10 -5 0 -7 5 -4 10 3 6 8 10 11 10 2 0 4 -4 4 -10z m60 -105 c0 -17 -4 -18
-40 -8 l-25 7 25 7 c38 11 40 10 40 -6z m-10 -95 c0 -5 -7 -7 -15 -4 -8 4 -15
8 -15 10 0 2 7 4 15 4 8 0 15 -4 15 -10z"/>
<path d="M3850 3038 c-12 -22 -12 -22 6 -6 10 10 15 20 12 24 -4 3 -12 -5 -18
-18z"/>
<path d="M2836 2991 c-12 -14 -14 -21 -6 -26 16 -10 41 17 31 33 -6 9 -12 8
-25 -7z"/>
<path d="M2860 2936 c0 -2 7 -6 15 -10 8 -3 15 -1 15 4 0 6 -7 10 -15 10 -8 0
-15 -2 -15 -4z"/>
<path d="M3100 2910 c0 -5 5 -10 10 -10 6 0 10 5 10 10 0 6 -4 10 -10 10 -5 0
-10 -4 -10 -10z"/>
<path d="M3615 2870 c-3 -5 -1 -10 4 -10 6 0 11 5 11 10 0 6 -2 10 -4 10 -3 0
-8 -4 -11 -10z"/>
<path d="M6853 2832 c-12 -8 -6 -62 8 -62 5 0 8 16 7 35 -1 19 -2 35 -2 35 -1
0 -6 -4 -13 -8z"/>
<path d="M6814 2669 c-3 -6 -19 -9 -35 -5 -30 6 -37 -2 -18 -21 14 -14 69 6
69 24 0 16 -7 17 -16 2z"/>
<path d="M6275 2100 c3 -5 8 -10 11 -10 2 0 4 5 4 10 0 6 -5 10 -11 10 -5 0
-7 -4 -4 -10z"/>
<path d="M6332 2078 c5 -15 28 -18 29 -3 0 6 -7 12 -17 13 -10 3 -15 -1 -12
-10z"/>
<path d="M7165 1687 c-33 -68 -95 -149 -156 -204 -64 -58 -81 -89 -95 -172 -7
-42 -20 -94 -29 -115 -28 -66 -119 -144 -245 -211 -62 -33 -125 -71 -140 -85
-14 -14 -39 -58 -54 -98 -35 -91 -109 -175 -195 -221 -33 -17 -115 -50 -181
-71 -164 -54 -192 -70 -234 -132 -103 -155 -209 -211 -487 -258 -135 -23 -210
-49 -259 -90 l-34 -30 1072 0 1072 0 0 875 c0 481 -1 875 -2 874 -2 0 -16 -28
-33 -62z"/>
<path d="M0 630 l0 -630 753 1 c413 0 745 3 737 6 -141 47 -249 110 -389 228
-62 53 -125 102 -140 109 -14 8 -63 19 -109 25 -159 21 -230 76 -316 246 -67
132 -90 154 -203 187 -138 42 -177 90 -212 260 -11 51 -24 105 -29 119 -10 26
-66 79 -83 79 -5 0 -9 -252 -9 -630z"/>
</g>
</svg>
