<?xml version="1.0" standalone="no"?>
<!DOCTYPE svg PUBLIC "-//W3C//DTD SVG 20010904//EN"
 "http://www.w3.org/TR/2001/REC-SVG-20010904/DTD/svg10.dtd">
<svg version="1.0" xmlns="http://www.w3.org/2000/svg"
 width="700.000000pt" height="394.000000pt" viewBox="0 0 700.000000 394.000000"
 preserveAspectRatio="xMidYMid meet">

<g transform="translate(0.000000,394.000000) scale(0.100000,-0.100000)"
fill="#000000" stroke="none">
<path d="M3592 3748 c2 -6 10 -14 16 -16 7 -2 10 2 6 12 -7 18 -28 22 -22 4z"/>
<path d="M3042 3673 c-12 -2 -27 -13 -33 -24 -5 -11 -14 -17 -20 -14 -5 4 -9
1 -9 -4 0 -6 -5 -11 -11 -11 -5 0 -7 5 -4 10 12 20 -41 9 -65 -13 -14 -12 -40
-29 -57 -36 -32 -13 -38 -24 -34 -68 1 -12 -3 -24 -9 -28 -6 -3 -8 -11 -4 -16
3 -5 1 -8 -5 -7 -5 2 -16 -5 -23 -16 -11 -14 -12 -26 -4 -52 6 -19 14 -34 18
-34 5 0 8 -7 8 -15 0 -9 -9 -15 -22 -15 -23 -1 -23 -1 3 -24 15 -13 24 -27 20
-32 -10 -15 -43 -16 -52 -3 -4 8 -11 11 -14 7 -12 -12 16 -48 55 -73 22 -14
40 -29 40 -33 0 -4 30 -7 67 -7 67 0 68 0 71 -28 3 -23 6 -26 18 -16 14 11 53
9 88 -6 13 -6 17 -5 13 2 -6 10 70 -8 92 -22 5 -3 11 0 13 7 3 7 11 9 24 4 19
-8 19 -8 -1 -16 -23 -10 -5 -13 19 -4 9 3 13 11 9 17 -3 6 -1 7 5 3 7 -4 12
-2 12 6 0 8 5 7 17 -5 9 -9 13 -20 9 -24 -4 -4 -11 -2 -15 5 -6 10 -11 10 -21
-3 -16 -19 -17 -18 48 -40 29 -9 58 -26 65 -36 6 -10 18 -19 25 -19 7 0 15 -7
18 -15 4 -8 13 -15 21 -15 9 0 23 -8 32 -18 9 -10 36 -33 60 -52 24 -18 50
-48 57 -66 8 -18 30 -46 49 -61 19 -15 35 -34 35 -40 0 -7 9 -18 20 -25 20
-13 28 -38 11 -38 -5 0 0 -18 11 -40 11 -22 24 -40 28 -40 11 0 48 -78 56
-118 7 -34 18 -41 28 -17 3 8 13 15 23 16 12 1 10 3 -7 9 -18 6 -20 8 -7 9 18
1 47 23 47 35 0 3 -6 6 -14 6 -9 0 -13 10 -12 25 1 29 5 30 32 10 27 -20 51
-18 57 5 3 12 14 20 26 20 22 0 25 4 35 53 4 15 11 27 17 27 6 0 7 -4 4 -10
-4 -6 6 -10 24 -10 16 0 37 -3 46 -6 10 -4 15 -2 13 6 -2 7 5 14 15 15 9 2 17
-2 17 -8 0 -7 5 -4 11 5 5 10 42 27 82 39 40 12 78 28 85 37 8 11 12 12 12 3
0 -7 5 -9 11 -5 6 3 15 0 20 -7 7 -11 9 -10 9 4 0 16 2 16 22 -3 12 -11 30
-20 40 -20 10 0 18 -4 18 -10 0 -5 9 -10 20 -10 29 0 25 -17 -7 -28 -28 -10
-28 -10 9 -11 36 -1 36 -2 33 -36 -2 -19 1 -35 6 -35 5 0 8 -6 7 -12 -2 -8 7
-13 20 -12 20 1 33 -14 15 -17 -36 -6 -60 -5 -70 3 -8 6 -20 4 -38 -8 -14 -9
-28 -14 -31 -11 -12 11 7 26 41 33 19 3 35 8 35 11 0 14 -23 43 -34 43 -8 0
-16 9 -19 20 -8 30 -45 26 -58 -7 -14 -37 -44 -64 -63 -57 -10 4 -16 1 -16
-10 0 -8 -8 -20 -19 -25 -15 -8 -18 -7 -17 9 0 11 10 26 21 34 11 9 15 16 8
16 -7 0 -10 7 -7 15 8 21 -12 19 -22 -2 -4 -10 -7 -21 -6 -25 1 -4 -6 -4 -15
-1 -10 4 -14 2 -10 -4 4 -6 -4 -9 -21 -7 -14 1 -32 -2 -40 -8 -10 -9 -12 -8
-10 2 5 20 -42 41 -65 29 -14 -8 -16 -14 -7 -24 9 -10 5 -17 -16 -32 -14 -10
-48 -37 -74 -60 -26 -24 -49 -41 -52 -38 -3 3 -26 -15 -53 -40 -34 -33 -45
-49 -37 -57 6 -6 8 -17 5 -24 -3 -8 0 -14 6 -14 6 0 11 -9 11 -20 0 -11 -4
-20 -8 -20 -16 0 3 -79 26 -104 23 -28 29 -41 12 -31 -19 12 -39 -15 -35 -47
2 -17 5 -31 7 -32 44 -20 49 -37 35 -118 -3 -16 -2 -28 2 -28 4 0 7 -9 8 -20
1 -11 -4 -20 -10 -20 -8 0 -8 -3 -2 -8 6 -4 11 -23 12 -42 3 -33 2 -34 -12
-15 -9 11 -13 25 -11 32 3 6 0 13 -6 15 -7 3 -8 10 -3 18 11 17 6 114 -5 118
-5 2 -6 10 -3 18 3 9 -1 14 -13 14 -9 0 -15 -3 -11 -6 3 -4 0 -13 -8 -21 -17
-16 -20 -33 -7 -33 5 0 6 -20 2 -44 -4 -25 -6 -56 -5 -70 0 -14 -3 -26 -8 -26
-4 0 -6 -4 -2 -9 3 -5 1 -12 -4 -15 -4 -3 -21 -30 -36 -61 -14 -30 -31 -53
-36 -50 -5 4 -9 1 -9 -5 0 -6 -5 -8 -11 -4 -8 4 -7 9 2 15 13 8 12 10 -11 13
-6 0 -14 6 -18 11 -4 6 -20 19 -37 29 l-29 19 24 11 c14 6 31 17 39 24 21 20
-4 34 -46 27 -32 -6 -33 -5 -33 30 0 22 -4 34 -10 30 -5 -3 -10 -19 -10 -36 0
-16 -4 -29 -10 -29 -16 0 -49 -42 -43 -56 3 -8 9 -11 14 -8 13 8 11 -3 -8 -39
-10 -18 -23 -45 -30 -62 -9 -23 -12 -26 -13 -10 l-1 20 -10 -20 c-7 -16 -8
-14 -3 10 3 17 10 32 15 33 5 2 6 9 2 15 -3 7 -3 9 2 5 9 -9 35 9 35 24 0 5
-6 6 -12 1 -7 -4 -25 -6 -40 -4 -14 1 -29 -2 -33 -8 -9 -16 -67 -13 -93 5 -12
8 -22 23 -22 33 0 10 -3 21 -7 25 -5 4 -9 12 -9 17 -1 5 -2 14 -3 19 -2 15
-17 12 -36 -6 -11 -12 -13 -20 -6 -27 8 -8 15 -5 26 9 15 19 15 19 8 -1 -9
-27 -43 -71 -43 -55 0 10 -3 10 -16 -1 -9 -7 -14 -22 -11 -36 3 -16 -1 -23
-10 -23 -19 0 -83 30 -83 39 0 4 -12 21 -27 38 -20 22 -40 34 -70 38 l-41 6
-11 -50 c-6 -28 -8 -57 -5 -66 3 -8 1 -15 -5 -15 -6 0 -11 6 -11 13 0 6 -6 3
-12 -7 -6 -10 -20 -29 -31 -42 -17 -20 -23 -21 -36 -11 -9 7 -12 8 -8 1 4 -7
0 -17 -8 -24 -8 -7 -15 -17 -15 -22 0 -5 -9 -22 -21 -37 -14 -19 -27 -27 -40
-24 -21 6 -27 -13 -6 -20 8 -3 4 -12 -13 -27 -15 -13 -20 -24 -14 -27 7 -2 -4
-21 -25 -42 -55 -59 -79 -89 -86 -111 -6 -18 -8 -18 -47 -4 -50 17 -48 17 -48
-1 0 -20 -58 -9 -86 17 -20 18 -24 18 -50 4 -39 -21 -64 -41 -64 -52 -1 -13
-50 -47 -50 -34 0 6 -6 10 -12 8 -7 -1 -23 3 -36 10 -18 11 -20 16 -12 33 11
20 5 60 -8 57 -17 -2 -72 15 -72 23 0 5 5 9 10 9 6 0 10 5 10 11 0 6 -9 8 -22
3 -13 -4 -31 -8 -40 -9 -10 -1 -21 -4 -24 -8 -4 -4 -18 5 -31 19 -13 14 -28
22 -35 18 -7 -5 -9 -2 -5 8 8 21 -3 31 -19 17 -8 -6 -11 -22 -8 -39 3 -15 1
-37 -5 -49 -10 -17 -9 -21 4 -21 8 0 20 -11 25 -24 5 -13 19 -34 31 -45 21
-20 22 -21 3 -21 -17 0 -16 -3 6 -20 14 -10 45 -24 69 -31 41 -12 42 -13 25
-27 -18 -14 -18 -14 1 -8 11 3 25 2 31 -2 13 -8 24 -71 14 -77 -3 -2 -47 -5
-98 -6 -114 -2 -142 -7 -142 -26 0 -12 10 -14 53 -7 28 4 77 6 107 6 94 -2
144 -21 73 -28 -16 -1 -41 -6 -58 -10 -28 -7 -29 -6 -16 10 14 16 12 17 -15
14 -17 -2 -28 -8 -26 -15 1 -7 -4 -13 -12 -13 -8 0 -17 -7 -20 -16 -3 -8 -10
-12 -16 -9 -6 4 -8 11 -5 16 9 13 -9 11 -24 -3 -11 -11 -13 -10 -8 4 4 10 3
17 -1 16 -4 -1 -39 6 -79 15 -85 20 -93 21 -93 5 0 -6 -7 -20 -16 -30 -24 -26
-6 -42 63 -57 32 -7 86 -19 120 -27 34 -8 68 -14 75 -14 17 0 -2 17 -27 23
-11 3 1 5 28 6 60 1 59 1 80 13 30 16 62 1 101 -46 32 -39 33 -44 13 -39 -19
4 -17 1 11 -24 35 -31 33 -46 -3 -37 -13 3 -26 1 -30 -5 -3 -6 -11 -8 -17 -5
-6 4 -8 2 -5 -3 4 -6 20 -13 38 -17 17 -3 49 -24 72 -46 55 -52 97 -84 115
-87 8 -1 19 -8 23 -15 7 -10 9 -10 9 0 0 7 8 4 20 -8 11 -11 25 -20 30 -20 6
0 10 -5 10 -11 0 -5 -4 -7 -10 -4 -5 3 -10 1 -10 -4 0 -6 12 -11 26 -11 22 0
24 -3 15 -14 -10 -12 -9 -20 4 -40 17 -25 50 -35 57 -17 2 5 15 7 30 4 24 -4
25 -7 13 -19 -9 -9 -13 -29 -11 -54 3 -36 1 -40 -18 -36 -11 2 -27 -3 -34 -10
-11 -12 -9 -14 8 -14 12 0 18 -4 15 -10 -3 -5 -15 -10 -26 -10 -21 0 -79 -53
-79 -72 0 -7 -9 -22 -21 -34 -27 -29 -20 -49 34 -106 37 -38 49 -45 83 -45 21
0 47 -4 57 -8 13 -5 17 -2 17 15 0 11 5 18 10 15 6 -3 10 -2 10 4 0 6 17 15
39 21 21 5 44 17 51 25 21 25 41 19 30 -10 -6 -17 -6 -27 3 -32 28 -18 144
-42 178 -37 22 4 39 2 43 -5 17 -27 96 2 96 35 0 7 14 18 30 26 17 7 30 16 30
20 0 5 6 8 13 8 8 0 22 8 31 19 9 10 30 21 45 24 16 3 35 12 42 20 17 16 74
32 65 18 -11 -18 39 -17 76 1 21 10 44 18 52 18 31 0 152 54 181 80 17 15 40
31 53 35 12 3 20 11 17 16 -4 5 -1 9 4 9 6 0 11 -5 11 -12 0 -6 7 -4 18 5 10
10 22 17 26 17 13 0 76 52 76 64 1 21 35 51 87 75 29 13 54 29 56 36 3 6 24
17 48 24 54 16 64 26 77 73 2 9 16 19 30 23 15 3 35 8 46 12 12 3 16 1 11 -6
-5 -8 2 -10 22 -6 21 5 24 4 13 -4 -13 -9 -12 -11 3 -11 14 0 17 -5 11 -22 -3
-13 -11 -24 -15 -26 -5 -2 -9 -15 -9 -28 0 -41 44 -25 45 16 0 9 11 16 30 18
22 2 26 0 16 -7 -12 -8 -9 -11 15 -16 16 -3 65 -17 110 -30 44 -14 88 -25 98
-25 26 0 78 -29 71 -40 -3 -6 4 -9 17 -9 13 1 37 -6 53 -15 35 -19 86 -21 103
-4 14 14 16 74 3 82 -5 4 -20 2 -33 -3 -19 -7 -24 -6 -24 8 -1 9 -3 21 -5 26
-2 6 1 10 6 10 5 0 9 -3 8 -7 -2 -5 2 -8 7 -8 15 0 12 18 -7 38 -10 9 -19 27
-21 40 -3 17 2 22 18 22 27 0 21 24 -6 28 -44 7 -46 12 -15 38 17 14 31 30 31
35 0 5 -19 9 -42 10 l-43 1 34 9 c18 6 36 8 39 5 3 -3 11 6 18 20 12 22 11 27
-6 44 -26 26 -26 89 0 134 15 23 17 36 10 41 -11 6 -39 -21 -40 -37 0 -8 -22
-37 -48 -64 -7 -8 -10 -18 -7 -24 3 -5 2 -10 -3 -10 -6 0 -12 6 -15 14 -3 8
-21 17 -39 22 l-33 7 40 18 c30 14 39 23 37 38 -4 26 27 81 46 81 7 0 23 9 34
20 12 11 29 18 39 15 9 -3 24 1 32 9 8 8 25 17 38 20 38 7 57 17 63 32 3 8 12
14 21 14 8 0 15 4 15 9 0 5 8 12 18 15 9 3 28 13 42 21 26 15 50 5 50 -21 0
-8 7 -14 15 -14 7 0 18 -7 23 -16 12 -21 70 -21 112 1 23 12 35 14 40 6 4 -8
15 -4 32 12 14 13 39 29 57 36 20 9 31 20 31 33 0 14 5 18 14 15 10 -4 13 -1
9 9 -3 8 5 23 18 35 13 11 24 27 25 35 1 9 9 23 18 33 8 9 18 32 21 51 6 34 6
34 -15 15 -11 -10 -20 -24 -20 -31 0 -10 -6 -11 -24 -4 -13 5 -28 6 -32 2 -5
-4 -2 1 5 10 15 20 7 38 -17 38 -15 0 -15 2 -2 10 12 8 12 10 1 10 -11 0 -11
3 0 17 12 15 12 16 -7 11 -12 -3 -28 -2 -35 3 -11 7 -10 9 4 9 26 0 16 24 -11
28 -16 2 -20 -1 -16 -11 4 -10 -3 -13 -28 -12 -45 3 -53 -3 -32 -26 17 -19 17
-20 -2 -14 -17 5 -17 4 -3 -6 23 -18 3 -68 -28 -70 -13 -1 -29 -2 -35 -3 -7
-1 -16 -5 -20 -11 -5 -6 -11 -6 -19 2 -8 8 -6 18 8 39 10 15 18 40 18 54 0 19
6 26 25 29 30 4 42 19 35 46 -5 24 29 42 103 55 41 7 44 5 53 -19 6 -14 8 -36
6 -49 -5 -25 18 -56 34 -46 6 3 2 12 -8 20 -17 13 -17 14 1 7 16 -5 18 -3 13
18 -4 13 -7 36 -7 52 0 17 -5 27 -14 27 -8 0 -22 7 -31 16 -13 14 -14 19 -3
25 10 7 9 9 -4 9 -10 0 -18 -4 -18 -10 0 -14 -44 -41 -72 -44 -13 -1 -29 -6
-36 -10 -7 -4 -22 0 -34 9 -23 16 -23 16 12 15 46 -2 73 4 77 17 6 18 -45 24
-80 9 -50 -20 -69 0 -71 72 -1 18 -7 33 -13 33 -26 3 -30 4 -46 21 -21 21 -21
28 0 43 14 11 12 14 -17 28 -38 20 -43 21 -35 7 3 -5 2 -10 -3 -10 -17 0 -22
28 -6 34 27 10 16 29 -13 21 -16 -3 -45 -7 -65 -8 -35 -2 -38 -1 -51 40 -13
39 -13 43 3 48 14 4 16 15 12 58 -2 28 -11 66 -19 82 -12 26 -12 27 0 13 17
-22 27 -23 27 -3 0 8 -10 20 -22 26 -29 15 -38 28 -38 59 0 34 -17 59 -28 42
-7 -10 -15 -9 -40 4 -35 17 -43 29 -13 19 11 -3 22 -1 26 5 3 5 1 10 -6 10
-15 0 -38 30 -39 52 0 9 -9 20 -20 23 -11 4 -17 11 -14 17 5 7 0 9 -14 6 -12
-4 -24 -2 -27 2 -3 5 -21 7 -39 5 -23 -3 -36 0 -39 9 -4 11 4 13 34 11 34 -2
38 0 27 12 -18 22 -19 43 -2 43 9 0 12 5 9 10 -4 6 -14 9 -22 8 -9 -2 -18 2
-20 8 -5 14 52 38 72 30 9 -3 15 0 15 9 0 8 9 20 20 28 11 8 17 17 12 22 -4 4
10 5 31 1 23 -4 37 -3 37 4 0 5 -3 10 -7 9 -5 -1 -18 2 -31 6 -21 7 -21 8 -5
20 10 7 21 11 25 9 26 -16 4 69 -23 86 -4 3 -5 11 0 18 10 17 51 -13 51 -39 0
-13 7 -19 21 -19 31 0 107 -98 157 -206 11 -23 35 -50 55 -63 19 -12 38 -28
41 -36 3 -8 14 -15 24 -15 40 0 146 -41 192 -75 26 -19 51 -35 55 -35 4 0 32
-7 62 -16 55 -16 55 -16 31 -32 -28 -20 -48 -39 -48 -46 0 -3 15 -10 33 -15
l32 -10 -38 3 c-20 2 -40 0 -43 -5 -11 -19 -26 -8 -22 16 3 14 0 33 -7 42 -12
15 -13 15 -19 -3 -9 -30 1 -96 16 -105 7 -5 8 -9 2 -9 -5 0 -16 6 -23 12 -11
11 -11 9 0 -9 17 -28 89 -38 84 -11 -5 22 11 24 19 3 3 -8 11 -15 18 -14 10 0
10 2 1 6 -10 3 -10 8 1 19 19 18 27 18 20 -1 -5 -11 1 -15 24 -15 17 0 33 6
36 13 5 10 7 10 12 0 3 -7 12 -13 20 -13 9 0 12 -4 9 -10 -3 -5 -1 -10 4 -10
6 0 11 7 11 15 0 8 5 15 11 15 5 0 7 -5 3 -11 -4 -7 -1 -10 7 -7 8 3 15 14 17
26 4 25 30 30 38 7 4 -8 11 -15 17 -15 7 0 7 4 -1 12 -17 17 -15 28 7 28 19 0
45 24 46 44 2 24 18 72 32 94 8 13 12 29 10 37 -3 7 -1 31 4 54 11 51 -12 103
-61 139 -17 13 -36 34 -42 48 -6 13 -18 24 -26 24 -8 0 -12 6 -8 15 4 11 -1
15 -17 14 -12 0 -16 -3 -9 -6 6 -2 12 -9 12 -15 0 -6 -7 -8 -15 -5 -17 7 -27
-4 -17 -18 4 -6 19 -16 35 -24 29 -15 38 -35 10 -24 -12 5 -14 3 -8 -7 6 -10
4 -12 -11 -6 -10 4 -32 10 -49 13 -16 2 -47 11 -67 19 -23 8 -39 10 -43 4 -3
-6 -1 -10 5 -10 8 0 8 -6 0 -20 -8 -15 -15 -17 -32 -11 -12 4 -24 14 -26 22
-2 10 -1 10 5 3 6 -9 11 -8 20 1 10 11 8 13 -10 11 -12 -1 -35 -8 -50 -14 -34
-15 -37 -15 -37 -2 0 6 8 10 19 10 10 0 24 7 31 15 10 12 9 16 -3 21 -9 3 -22
2 -28 -2 -8 -5 -10 -2 -7 8 4 8 -2 21 -13 29 -10 7 -19 21 -19 31 0 15 4 16
26 8 33 -13 34 -13 34 8 0 14 -2 15 -10 2 -6 -10 -10 -11 -10 -3 0 7 -8 22
-17 33 -20 22 -78 28 -86 8 -3 -9 -10 -8 -23 6 -11 10 -14 16 -8 13 6 -3 23
-3 38 1 l27 7 -30 12 c-27 10 -34 8 -58 -10 -22 -18 -26 -19 -20 -4 4 12 1 17
-11 17 -22 0 -37 -11 -45 -32 -3 -9 -19 -19 -36 -23 -17 -4 -36 -15 -42 -26
-8 -17 -13 -18 -32 -7 -12 7 -25 11 -29 10 -5 -1 -8 2 -8 8 0 5 9 10 21 10 11
0 18 4 15 8 -3 5 -27 7 -53 6 l-48 -3 29 16 c20 11 25 17 16 23 -7 4 -10 12
-6 18 3 6 2 13 -4 17 -7 4 -7 12 0 25 9 17 6 18 -30 15 -22 -2 -44 -6 -49 -9
-5 -4 -29 10 -53 29 -23 19 -57 42 -74 50 -44 20 -51 43 -17 56 19 7 29 7 31
0 2 -6 19 -13 38 -17 19 -3 34 -10 34 -15 0 -5 6 -9 13 -9 7 0 32 -9 56 -21
45 -21 121 -23 128 -3 5 15 -88 28 -98 13 -8 -13 -23 7 -24 30 0 8 -7 17 -15
19 -13 5 -13 3 -1 -11 17 -22 7 -22 -25 -1 -31 21 -55 60 -31 51 10 -4 14 -1
11 6 -5 14 33 17 54 4 16 -11 16 -10 -14 48 -24 46 -26 47 -20 16 l6 -34 -30
41 c-17 23 -35 41 -42 39 -7 -1 -12 4 -13 11 0 8 -9 20 -20 28 -17 12 -20 12
-28 -1 -6 -11 -2 -21 14 -34 21 -17 20 -41 -2 -41 -14 0 -32 50 -30 85 1 23
-1 26 -9 15 -8 -12 -10 -11 -10 8 0 13 -4 21 -9 18 -5 -3 -11 1 -15 9 -6 16 9
21 19 5 3 -5 28 -20 55 -32 28 -13 50 -28 50 -34 0 -12 29 -28 36 -21 2 2 -15
24 -39 48 -23 24 -50 56 -59 70 -10 16 -30 29 -48 33 -23 4 -31 10 -26 21 3 8
1 15 -4 15 -6 0 -10 -4 -10 -10 0 -5 -5 -10 -11 -10 -5 0 -7 5 -4 11 4 6 -1
16 -11 23 -15 11 -13 13 16 11 l33 -2 -22 19 c-13 10 -29 18 -37 18 -8 0 -14
5 -14 11 0 5 4 8 9 4 5 -3 12 -1 15 4 3 5 -1 11 -9 15 -8 3 -15 1 -15 -5 0 -6
-7 -9 -15 -6 -8 4 -17 2 -20 -2 -3 -5 2 -11 10 -15 22 -8 18 -43 -7 -61 l-23
-17 23 7 c26 7 28 -3 7 -31 -8 -10 -15 -29 -15 -41 0 -13 -4 -23 -10 -23 -5 0
-7 7 -3 16 3 9 0 20 -8 25 -9 5 -16 3 -20 -8 -5 -14 -6 -14 -11 -2 -3 8 3 32
13 54 21 42 25 70 9 60 -5 -3 -10 0 -10 7 0 7 -13 27 -28 45 -22 25 -31 29
-46 21 -16 -9 -17 -8 -6 12 10 19 9 21 -6 18 -28 -5 -28 -25 0 -53 33 -33 33
-36 -6 -28 -28 5 -31 4 -22 -8 17 -21 33 -98 23 -105 -5 -3 -13 -3 -18 1 -11
6 -26 -32 -22 -54 1 -8 -3 -11 -11 -8 -48 19 -48 19 -48 -2 0 -24 -25 -28 -34
-5 -9 22 -8 24 9 24 8 0 15 5 15 10 0 6 -9 10 -20 10 -11 0 -20 4 -20 9 0 5
-7 17 -17 26 -13 13 -13 19 -3 25 10 6 10 9 -1 14 -11 5 -11 7 -1 12 18 8 15
21 -8 27 -11 3 -18 0 -17 -6 1 -6 -8 -13 -20 -15 -17 -3 -21 0 -17 12 3 9 2
16 -4 16 -6 0 -18 3 -28 7 -13 5 -16 3 -11 -10 3 -9 2 -19 -3 -22 -6 -4 -10 1
-10 9 0 9 -4 16 -10 16 -5 0 -10 -4 -10 -10 0 -5 -7 -10 -15 -10 -8 0 -15 5
-15 10 0 13 -37 13 -42 0 -2 -6 -18 -3 -40 7 -32 15 -37 21 -34 46 2 16 8 32
13 35 6 4 13 25 16 47 5 36 3 41 -14 41 -10 0 -19 -3 -19 -7 0 -13 -44 -18
-52 -6 -6 9 -11 8 -21 -3 -6 -8 -25 -16 -42 -18 -16 -2 -34 -8 -40 -13 -7 -7
-4 -8 9 -3 18 7 18 6 2 -19 -10 -14 -24 -28 -32 -31 -8 -3 -14 -17 -14 -31 0
-16 -6 -25 -16 -25 -9 0 -14 5 -12 12 2 6 -4 20 -13 29 -16 16 -21 17 -45 4
-15 -8 -29 -20 -30 -28 -7 -48 -16 -58 -47 -55 -22 2 -35 11 -44 28 -12 24
-13 25 -13 3 0 -22 -12 -28 -52 -25 -26 2 -11 -25 23 -40 29 -13 39 -28 18
-28 -5 0 -7 -4 -4 -10 3 -5 11 -10 16 -10 6 0 7 5 4 10 -3 6 -2 10 4 10 6 0
15 -9 21 -19 13 -25 -4 -38 -25 -21 -9 7 -22 9 -32 5 -16 -7 -15 -9 7 -14 19
-5 26 -14 28 -39 2 -23 -1 -32 -12 -32 -8 0 -18 -9 -21 -20 -7 -22 -25 -28
-25 -8 0 6 -11 1 -24 -11 l-25 -23 -11 42 c-8 29 -8 45 -1 49 6 4 7 12 1 21
-8 13 -10 12 -10 -3 0 -11 -4 -15 -12 -11 -6 4 -8 3 -4 -4 3 -6 2 -13 -4 -17
-6 -4 -8 -11 -5 -16 4 -5 2 -9 -4 -9 -6 0 -8 -7 -5 -15 4 -9 0 -15 -10 -15 -9
0 -16 7 -16 15 0 18 -16 20 -23 3 -4 -10 -6 -10 -6 -1 -1 7 -8 10 -16 7 -8 -4
-15 -1 -15 5 0 6 5 11 11 11 5 0 7 5 4 11 -4 6 -13 8 -21 5 -8 -3 -14 -1 -14
5 0 6 -8 8 -17 5 -10 -4 -14 -4 -11 0 11 10 -11 44 -28 44 -8 0 -17 -7 -20
-15 -4 -10 -10 -12 -18 -6 -19 15 -78 1 -83 -20 -6 -23 -45 -25 -63 -4 -7 8
-16 15 -21 15 -5 0 -6 -7 -3 -15 4 -8 1 -15 -5 -15 -6 0 -13 11 -17 25 -5 20
-9 23 -24 15 -30 -16 -35 -12 -35 25 0 21 5 35 13 35 6 0 12 5 12 10 0 17 -15
11 -41 -16 -21 -22 -21 -25 -4 -19 11 3 7 -1 -8 -8 -16 -8 -33 -20 -38 -28 -7
-12 -11 -11 -26 5 -10 10 -12 16 -5 12 15 -9 16 10 1 19 -5 4 -8 12 -6 18 2 7
-5 16 -16 22 -11 5 -19 13 -18 18 0 4 1 21 1 37 0 21 5 30 16 30 8 0 13 -4 10
-9 -3 -5 0 -11 7 -14 8 -3 12 6 11 29 -1 19 2 34 7 34 5 0 9 4 9 9 0 4 -15 3
-34 -3 -24 -7 -32 -15 -28 -26 5 -13 3 -13 -11 -2 -9 8 -20 11 -26 8 -5 -3
-20 -2 -33 3 l-23 10 23 7 c21 6 21 7 5 20 -11 8 -13 13 -6 14 7 0 18 -8 25
-19 10 -17 13 -17 28 -2 9 9 24 29 34 44 9 15 28 33 42 39 17 8 23 17 18 30
-4 13 2 21 21 28 37 14 65 12 65 -4 0 -16 -45 -30 -62 -20 -7 4 -8 3 -4 -4 4
-7 31 -12 61 -12 41 0 54 4 60 17 3 10 1 19 -4 21 -6 2 -8 8 -5 14 4 6 -2 8
-17 3 -19 -5 -17 -2 9 15 17 12 32 29 32 38 -1 25 -25 52 -46 52 -16 0 -17 2
-4 10 12 8 11 9 -5 8 -11 0 -30 -3 -43 -5z m918 -247 c0 -3 -4 -8 -10 -11 -5
-3 -10 -1 -10 4 0 6 5 11 10 11 6 0 10 -2 10 -4z m-155 -56 c-4 -6 -1 -17 5
-25 9 -11 8 -18 -6 -32 -16 -17 -17 -16 -12 10 3 15 1 27 -3 27 -5 0 -9 7 -9
15 0 8 7 15 16 15 8 0 12 -5 9 -10z m503 -106 c28 -8 28 -20 1 -34 -17 -9 -23
-8 -35 7 -24 32 -15 40 34 27z m-1464 -19 c5 -13 2 -14 -17 -4 -32 17 -33 19
-10 19 12 0 23 -7 27 -15z m1888 -2 c8 -31 -2 -45 -19 -28 -15 16 -12 45 6 45
5 0 11 -8 13 -17z m55 -19 c-3 -3 -12 -4 -19 -1 -8 3 -5 6 6 6 11 1 17 -2 13
-5z m-421 -51 c-2 -2 -18 5 -36 16 l-33 19 29 4 c21 2 31 -2 37 -16 4 -10 6
-21 3 -23z m368 26 c13 11 16 9 22 -14 3 -14 4 -29 1 -32 -4 -3 -2 -14 4 -24
12 -23 6 -24 -16 -3 -10 10 -13 24 -9 37 6 20 5 21 -11 7 -11 -8 -16 -10 -12
-3 4 6 3 14 -3 18 -5 3 -10 12 -10 18 0 8 4 7 9 -2 8 -12 12 -12 25 -2z m-185
-25 c4 3 8 -1 8 -8 0 -8 -7 -12 -15 -8 -10 3 -13 1 -8 -6 4 -7 1 -12 -8 -12
-9 0 -16 6 -16 14 0 9 -8 13 -22 9 -21 -4 -21 -3 -5 7 10 6 25 9 33 6 8 -3 14
0 15 7 0 9 2 9 6 -1 2 -6 8 -10 12 -8z m-1309 -39 c-7 -8 -18 -15 -24 -15 -8
0 -8 3 0 8 6 4 14 16 18 27 6 13 10 16 13 7 3 -7 -1 -19 -7 -27z m415 -44 c3
-5 1 -12 -5 -16 -5 -3 -10 1 -10 9 0 18 6 21 15 7z m1055 -21 c0 -5 -5 -10
-11 -10 -5 0 -7 5 -4 10 3 6 8 10 11 10 2 0 4 -4 4 -10z m195 1 c3 -5 1 -12
-5 -16 -5 -3 -10 1 -10 9 0 18 6 21 15 7z m-1608 -7 c-3 -3 -12 -4 -19 -1 -8
3 -5 6 6 6 11 1 17 -2 13 -5z m1433 -131 c0 -10 -4 -22 -8 -28 -10 -15 -57
-12 -57 3 0 7 11 19 25 26 34 19 40 19 40 -1z m-785 -23 c-5 -14 -2 -20 9 -20
9 0 16 -5 16 -10 0 -7 -6 -7 -20 0 -20 11 -26 31 -13 43 12 12 14 7 8 -13z
m-7 -65 c-3 -3 -9 2 -12 12 -6 14 -5 15 5 6 7 -7 10 -15 7 -18z m832 -170 c0
-3 -15 -14 -32 -25 -18 -11 -27 -20 -19 -20 16 0 7 -13 -12 -16 -7 -2 -22 -6
-34 -10 -19 -5 -21 -3 -19 22 2 15 8 30 15 32 7 2 9 -3 4 -14 -6 -16 -4 -16
23 3 38 27 74 40 74 28z m-140 -15 c0 -5 -7 -10 -15 -10 -8 0 -15 5 -15 10 0
6 7 10 15 10 8 0 15 -4 15 -10z m421 -27 c-8 -15 -10 -15 -11 -2 0 17 10 32
18 25 2 -3 -1 -13 -7 -23z m-421 -3 c15 -1 -44 -30 -61 -30 -5 0 -9 9 -9 19 0
16 6 19 28 16 15 -2 34 -4 42 -5z m-225 -10 c3 -5 -1 -10 -9 -10 -8 0 -18 5
-21 10 -3 6 1 10 9 10 8 0 18 -4 21 -10z m989 -11 c20 3 26 0 21 -9 -4 -6 -10
-8 -15 -5 -4 3 -10 -2 -14 -10 -3 -8 -11 -15 -17 -15 -8 0 -8 5 1 16 12 13 10
14 -14 3 -21 -10 -29 -10 -39 1 -9 10 -9 11 1 6 19 -11 52 3 52 22 0 13 2 14
9 4 4 -8 11 -13 15 -13z m-640 -5 c3 -8 2 -12 -4 -9 -6 3 -10 10 -10 16 0 14
7 11 14 -7z m-19 -14 c3 -6 -1 -7 -9 -4 -18 7 -21 14 -7 14 6 0 13 -4 16 -10z
m-206 -26 c-16 -19 -24 -17 -26 5 -1 14 3 17 18 14 15 -4 17 -8 8 -19z m134
-6 c-6 -23 -6 -23 23 2 16 14 23 18 17 10 -15 -17 -17 -60 -3 -60 15 0 12 -17
-4 -23 -10 -4 -13 -1 -9 9 4 10 0 12 -13 7 -16 -6 -17 -4 -6 9 11 14 8 17 -23
22 -40 8 -42 27 -4 37 13 4 25 7 26 8 0 1 -1 -9 -4 -21z m767 2 c0 -5 -4 -10
-10 -10 -5 0 -10 5 -10 10 0 6 5 10 10 10 6 0 10 -4 10 -10z m-850 -24 c0 -2
-8 -10 -17 -17 -16 -13 -17 -12 -4 4 13 16 21 21 21 13z m-260 -28 c0 -9 4 -8
11 2 9 12 10 10 6 -8 -4 -19 -3 -21 8 -12 8 7 20 8 27 4 8 -5 2 -10 -17 -16
-23 -6 -33 -4 -42 9 -16 20 -17 33 -3 33 6 0 10 -6 10 -12z m1490 -3 c7 -9 8
-15 2 -15 -5 0 -8 -9 -5 -20 4 -15 0 -20 -13 -20 -14 0 -16 3 -6 9 10 6 10 10
-3 21 -8 7 -15 19 -15 26 0 19 24 18 40 -1z m-1670 -10 c0 -8 -4 -15 -10 -15
-5 0 -10 7 -10 15 0 8 5 15 10 15 6 0 10 -7 10 -15z m490 -1 c0 -2 -9 -8 -19
-13 -16 -9 -18 -8 -14 8 3 12 11 17 19 14 8 -3 14 -7 14 -9z m-420 2 c0 -3 -4
-8 -10 -11 -5 -3 -10 -1 -10 4 0 6 5 11 10 11 6 0 10 -2 10 -4z m231 -53 c-16
-7 -41 -15 -57 -18 l-29 -7 34 31 c19 18 40 30 47 27 8 -3 11 1 8 12 -3 9 1 6
10 -8 14 -24 14 -26 -13 -37z m79 28 c0 -5 -7 -14 -15 -21 -13 -11 -14 -10
-10 3 4 8 2 18 -4 22 -20 12 -12 26 9 15 11 -6 20 -14 20 -19z m-464 4 c-19
-14 -36 -12 -36 6 0 5 12 9 28 9 26 -1 26 -1 8 -15z m195 -38 c-10 -9 -11 -8
-5 6 3 10 9 15 12 12 3 -3 0 -11 -7 -18z m46 1 c-3 -8 -6 -5 -6 6 -1 11 2 17
5 13 3 -3 4 -12 1 -19z m-160 -3 c0 -9 -10 -15 -24 -15 -24 0 -31 15 -10 23
23 10 34 7 34 -8z m143 -52 c0 -6 -5 -15 -10 -18 -6 -4 -8 -11 -5 -16 4 -5 -5
-4 -19 3 -28 12 -36 53 -13 61 16 5 47 -14 47 -30z m-93 -4 c-6 -10 -13 -15
-15 -9 -6 17 7 42 18 35 6 -4 5 -13 -3 -26z m283 1 c0 -5 7 -7 16 -3 9 3 5 -6
-10 -22 -15 -16 -32 -25 -41 -21 -20 7 -19 33 3 45 22 13 32 14 32 1z m-320
-30 c0 -13 -20 -13 -40 0 -12 8 -9 10 13 10 15 0 27 -4 27 -10z m577 4 c-3 -3
-12 -4 -19 -1 -8 3 -5 6 6 6 11 1 17 -2 13 -5z m-397 -22 c0 -4 15 -13 33 -21
29 -11 30 -13 12 -21 -28 -12 -43 -12 -25 0 12 8 11 10 -6 10 -12 0 -25 -7
-28 -16 -3 -8 -10 -12 -16 -9 -14 8 -13 38 2 53 14 14 28 16 28 4z m337 -7 c0
-8 -4 -12 -9 -9 -5 3 -6 10 -3 15 9 13 12 11 12 -6z m-407 -15 c0 -11 -7 -20
-15 -20 -15 0 -21 21 -8 33 12 13 23 7 23 -13z m250 -11 c0 -12 -50 -32 -59
-24 -3 4 5 15 19 25 24 18 40 18 40 -1z m248 -4 c-3 -3 -9 2 -12 12 -6 14 -5
15 5 6 7 -7 10 -15 7 -18z m-541 -67 c-3 -7 -5 -2 -5 12 0 14 2 19 5 13 2 -7
2 -19 0 -25z m75 17 c3 3 8 -3 11 -14 6 -26 -23 -38 -40 -16 -15 21 -6 50 12
35 6 -5 14 -7 17 -5z m478 -19 c0 -3 -4 -8 -10 -11 -5 -3 -10 -1 -10 4 0 6 5
11 10 11 6 0 10 -2 10 -4z m-163 -13 c-9 -2 -14 -9 -11 -15 4 -7 2 -8 -4 -4
-20 12 -13 26 11 25 17 -1 18 -2 4 -6z m-337 -30 c0 -3 -6 -3 -14 0 -8 3 -17
-1 -20 -10 -4 -11 -2 -14 9 -10 8 4 17 2 20 -2 8 -14 -51 -18 -69 -6 -14 11
-14 14 1 32 14 17 22 19 45 11 15 -6 28 -12 28 -15z m40 7 c0 -5 -4 -10 -10
-10 -5 0 -10 5 -10 10 0 6 5 10 10 10 6 0 10 -4 10 -10z m65 -9 c-3 -6 -11 -8
-17 -5 -6 4 -5 9 3 15 16 10 23 4 14 -10z m515 -3 c0 -16 -3 -19 -11 -11 -6 6
-8 16 -5 22 11 17 16 13 16 -11z m-760 2 c0 -5 -8 -10 -17 -10 -15 0 -16 2 -3
10 19 12 20 12 20 0z m383 -7 c-7 -2 -19 -2 -25 0 -7 3 -2 5 12 5 14 0 19 -2
13 -5z m-525 -28 c-3 -3 -9 2 -12 12 -6 14 -5 15 5 6 7 -7 10 -15 7 -18z m777
15 c3 -5 -1 -10 -9 -10 -9 0 -16 5 -16 10 0 6 4 10 9 10 6 0 13 -4 16 -10z
m-625 -10 c0 -5 -4 -10 -9 -10 -6 0 -13 5 -16 10 -3 6 1 10 9 10 9 0 16 -4 16
-10z m-180 -4 c0 -3 -4 -8 -10 -11 -5 -3 -10 -1 -10 4 0 6 5 11 10 11 6 0 10
-2 10 -4z m150 -11 c0 -3 -9 -9 -19 -14 -14 -8 -22 -7 -30 3 -9 10 -5 13 19
14 17 0 30 -1 30 -3z m80 1 c0 -3 -4 -8 -10 -11 -5 -3 -10 -1 -10 4 0 6 5 11
10 11 6 0 10 -2 10 -4z m500 -22 c0 -8 -4 -14 -10 -14 -5 0 -10 9 -10 21 0 11
5 17 10 14 6 -3 10 -13 10 -21z m795 8 c-3 -3 -11 0 -18 7 -9 10 -8 11 6 5 10
-3 15 -9 12 -12z m-965 -6 c0 -18 -19 -31 -28 -21 -4 4 -1 10 6 12 6 3 10 9 6
14 -3 5 0 9 5 9 6 0 11 -6 11 -14z m325 -16 c-4 -11 -2 -20 4 -20 6 0 11 -9
11 -19 0 -11 7 -26 14 -34 19 -19 2 -44 -33 -49 -14 -2 -26 -8 -28 -14 -4 -13
47 -70 60 -66 5 1 6 -2 2 -8 -3 -5 2 -10 12 -10 10 0 29 -9 43 -20 15 -12 18
-18 8 -14 -10 3 -18 2 -18 -4 0 -5 -7 -12 -14 -15 -10 -4 -13 -1 -10 7 7 19
-36 57 -57 51 -10 -3 -20 -1 -24 5 -3 6 -11 8 -16 5 -5 -4 -9 3 -9 14 0 12 -5
21 -11 21 -6 0 -8 7 -5 16 3 8 2 12 -4 9 -19 -12 -31 6 -15 21 21 21 19 41 -6
47 -16 4 -20 12 -17 34 2 22 9 29 30 31 14 2 32 10 38 18 7 8 21 14 32 14 15
0 18 -5 13 -20z m-695 -15 c-7 -8 -19 -15 -26 -15 -8 0 -14 7 -14 15 0 10 10
15 26 15 22 0 25 -2 14 -15z m94 -32 c4 -9 5 -16 4 -17 -2 -1 -23 -12 -48 -26
-28 -15 -40 -18 -33 -8 7 8 10 18 6 22 -4 4 0 4 9 1 13 -5 15 -2 11 14 -3 12
-1 21 6 21 6 0 8 -7 4 -17 -5 -11 -3 -14 6 -9 7 5 11 16 8 26 -6 23 19 16 27
-7z m43 -1 c19 -26 19 -28 2 -28 -10 0 -16 2 -14 4 2 2 0 15 -5 28 -12 31 -8
30 17 -4z m-192 -12 c-3 -5 -10 -10 -16 -10 -5 0 -9 5 -9 10 0 6 7 10 16 10 8
0 12 -4 9 -10z m318 -6 c9 -9 -4 -35 -14 -28 -5 3 -9 12 -9 20 0 14 12 19 23
8z m118 -51 c-13 -26 -74 -30 -69 -5 2 9 13 21 24 27 11 6 19 17 16 25 -3 10
3 8 18 -6 18 -17 20 -25 11 -41z m-276 19 c-3 -3 -11 0 -18 7 -9 10 -8 11 6 5
10 -3 15 -9 12 -12z m-115 -27 c-7 -9 -15 -13 -19 -10 -3 3 1 10 9 15 21 14
24 12 10 -5z m583 -5 c3 -11 1 -18 -4 -14 -5 3 -9 12 -9 20 0 20 7 17 13 -6z
m-378 -10 c3 -5 1 -10 -4 -10 -6 0 -11 5 -11 10 0 6 2 10 4 10 3 0 8 -4 11
-10z m-405 -30 c0 -5 -7 -10 -15 -10 -8 0 -15 5 -15 10 0 6 7 10 15 10 8 0 15
-4 15 -10z m500 0 c0 -5 -2 -10 -4 -10 -3 0 -8 5 -11 10 -3 6 -1 10 4 10 6 0
11 -4 11 -10z m283 -40 c3 -11 1 -18 -3 -15 -5 3 -14 -4 -20 -15 -16 -29 -57
-53 -77 -45 -17 6 -17 7 1 21 11 7 17 17 13 20 -4 4 -14 1 -24 -7 -15 -12 -16
-12 -10 3 3 9 1 18 -6 21 -8 2 -7 8 3 20 10 11 32 16 66 17 43 0 53 -3 57 -20z
m328 7 c-6 -8 -7 -18 -3 -22 4 -5 2 -5 -5 -1 -14 8 -6 36 9 36 7 0 6 -5 -1
-13z m-455 -71 c3 -21 0 -28 -18 -35 -13 -5 -28 -6 -34 -4 -20 7 -10 43 16 57
30 15 30 15 36 -18z m210 17 c22 -29 17 -33 -45 -33 -64 0 -84 16 -47 36 32
18 77 16 92 -3z m212 -35 c8 -10 1 -13 -28 -13 -27 -1 -36 3 -33 12 7 17 47
17 61 1z m-128 -12 c0 -8 -5 -18 -11 -22 -6 -3 -8 -15 -6 -26 4 -13 1 -18 -7
-15 -24 10 -37 -8 -21 -29 13 -18 14 -18 8 4 -4 17 -2 21 10 16 17 -6 33 -42
23 -51 -3 -4 1 -15 11 -25 9 -10 12 -18 7 -18 -14 0 -29 13 -43 35 -11 18 -12
18 -8 -7 5 -30 -19 -40 -29 -13 -4 8 -17 15 -30 15 -19 0 -25 8 -34 41 -6 22
-14 47 -17 55 -4 10 0 12 11 8 12 -5 19 0 22 13 4 15 12 18 37 15 18 -3 38 -9
45 -14 9 -8 12 -5 12 11 0 11 5 21 10 21 6 0 10 -6 10 -14z m-155 -6 c3 -5 2
-10 -4 -10 -5 0 -13 5 -16 10 -3 6 -2 10 4 10 5 0 13 -4 16 -10z m-479 -9 c-4
-5 -1 -11 5 -13 18 -6 -2 -40 -22 -35 -10 3 -20 0 -23 -7 -2 -6 -5 -3 -5 6 -1
10 9 26 21 38 23 21 33 26 24 11z m128 -24 c24 -17 10 -52 -14 -37 -12 8 -12
10 -1 10 11 0 10 5 -4 20 -21 23 -8 27 19 7z m336 -26 c0 -12 -13 -21 -37 -29
-20 -6 -39 -9 -42 -7 -2 3 1 5 7 5 7 0 12 11 12 25 0 29 16 34 23 8 4 -15 6
-15 12 4 8 26 25 21 25 -6z m-235 9 c-3 -5 -11 -10 -16 -10 -6 0 -7 5 -4 10 3
6 11 10 16 10 6 0 7 -4 4 -10z m-68 -64 c-18 -19 -27 -20 -27 -6 0 18 24 39
34 30 5 -5 2 -15 -7 -24z m-627 -7 c-13 -8 -13 -10 0 -19 9 -6 11 -10 3 -10
-7 0 -17 9 -23 19 -8 16 -6 20 8 23 23 6 30 -1 12 -13z m575 8 c17 -13 17 -14
-4 -12 -26 2 -54 25 -30 25 8 0 23 -6 34 -13z m738 -15 c29 -29 16 -56 -23
-47 -17 4 -30 2 -30 -3 0 -10 -22 -9 -57 3 -19 6 -21 11 -12 27 6 11 17 17 25
14 11 -4 14 -1 10 12 -5 15 0 17 30 16 21 -1 45 -10 57 -22z m-333 -39 c0 -28
-20 -30 -27 -3 -4 16 -8 18 -19 9 -24 -20 -25 -4 -2 26 20 26 22 26 35 9 7
-10 13 -28 13 -41z m557 51 c-3 -3 -12 -4 -19 -1 -8 3 -5 6 6 6 11 1 17 -2 13
-5z m-2301 -13 c-3 -5 8 -14 24 -20 17 -5 30 -17 30 -26 0 -9 -4 -14 -9 -10
-5 3 -12 -3 -14 -12 -3 -11 -5 -8 -6 9 -1 21 -5 26 -18 21 -11 -4 -14 -3 -9 5
4 7 2 12 -3 12 -6 0 -11 7 -11 15 0 8 5 15 11 15 5 0 8 -4 5 -9z m2124 -6 c6
-8 10 -22 8 -32 -3 -14 -7 -11 -20 15 -17 33 -10 43 12 17z m-700 -30 l23 -25
-29 1 c-21 0 -24 2 -12 7 15 6 13 9 -8 19 -20 9 -26 9 -31 -3 -3 -8 -10 -14
-16 -14 -5 0 -2 9 8 20 24 26 37 25 65 -5z m128 -22 c5 -18 -10 -16 -34 2 -18
15 -18 15 5 13 14 -2 26 -9 29 -15z m-1082 -38 c-3 -8 -11 -15 -18 -14 -10 0
-10 2 0 6 6 2 12 14 13 26 0 12 3 16 6 9 3 -7 2 -19 -1 -27z m652 5 c-7 -11
-17 -20 -22 -20 -5 0 -1 9 9 20 10 11 20 20 22 20 2 0 -2 -9 -9 -20z m239 14
c-3 -3 -12 -4 -19 -1 -8 3 -5 6 6 6 11 1 17 -2 13 -5z m52 -21 c-58 -17 -61
-16 -19 6 19 9 41 15 49 13 8 -3 -6 -11 -30 -19z m906 -41 c-3 -3 -11 0 -18 7
-9 10 -8 11 6 5 10 -3 15 -9 12 -12z m58 -32 c7 0 7 -4 -1 -12 -10 -10 -15
-10 -22 2 -8 13 -10 12 -10 -2 0 -10 -7 -18 -15 -18 -18 0 -20 26 -3 44 10 11
15 11 26 -1 7 -7 19 -13 25 -13z m-1239 -18 c-7 -4 -20 -22 -31 -41 -10 -19
-24 -36 -30 -38 -17 -6 -2 48 16 55 9 3 20 11 24 19 4 7 13 13 20 13 9 0 9 -2
1 -8z m806 -7 c20 -24 4 -29 -40 -11 -22 9 -40 11 -40 6 0 -6 -8 -10 -17 -10
-15 0 -14 2 3 15 25 19 78 19 94 0z m458 -18 c-9 -7 -25 -17 -35 -23 -10 -7
-14 -16 -10 -20 5 -5 14 -2 21 8 7 10 17 13 25 9 9 -6 8 -11 -4 -21 -8 -7 -15
-9 -15 -4 0 4 -6 1 -12 -7 -7 -8 -12 -12 -10 -10 1 2 -5 13 -15 23 -9 10 -13
18 -8 18 4 0 2 6 -4 13 -8 10 -7 14 2 15 44 6 57 9 63 15 4 4 10 4 13 1 3 -3
-2 -11 -11 -17z m-94 -22 c-4 -8 -10 -15 -15 -15 -4 0 -6 7 -3 15 4 8 10 15
15 15 4 0 6 -7 3 -15z m-2542 -67 c-19 -19 -32 2 -14 23 15 17 17 18 20 3 2
-9 -1 -21 -6 -26z m138 1 c-11 -38 -34 -65 -61 -72 -17 -5 -17 -2 5 18 14 13
26 29 26 34 0 9 30 51 37 51 1 0 -2 -14 -7 -31z m2287 9 c-3 -8 -6 -5 -6 6 -1
11 2 17 5 13 3 -3 4 -12 1 -19z m-1133 -14 c3 -8 2 -12 -4 -9 -6 3 -10 10 -10
16 0 14 7 11 14 -7z m476 -4 c0 -5 -6 -7 -14 -4 -8 3 -17 -3 -21 -15 -3 -11
-26 -31 -50 -45 -48 -29 -55 -31 -55 -16 0 6 7 10 15 10 20 0 19 16 0 24 -13
5 -13 9 -3 25 7 11 19 22 28 25 31 8 100 6 100 -4z m-1790 -10 c0 -5 -7 -10
-15 -10 -8 0 -15 5 -15 10 0 6 7 10 15 10 8 0 15 -4 15 -10z m1300 -10 c0 -5
-5 -10 -11 -10 -5 0 -7 5 -4 10 3 6 8 10 11 10 2 0 4 -4 4 -10z m1166 -36 c-9
-8 -11 -9 -6 -2 6 7 11 21 11 33 1 18 2 18 6 1 3 -10 -2 -25 -11 -32z m-2186
32 c0 -2 -7 -7 -16 -10 -8 -3 -12 -2 -9 4 6 10 25 14 25 6z m-120 -26 c0 -5
-4 -10 -10 -10 -5 0 -10 5 -10 10 0 6 5 10 10 10 6 0 10 -4 10 -10z m-150 -4
c0 -2 -8 -10 -17 -17 -16 -13 -17 -12 -4 4 13 16 21 21 21 13z m2376 -43 c-7
-7 -26 7 -26 19 0 6 6 6 15 -2 9 -7 13 -15 11 -17z m-901 7 c3 -5 -1 -10 -10
-10 -9 0 -13 5 -10 10 3 6 8 10 10 10 2 0 7 -4 10 -10z m-1284 -27 c13 -16 12
-17 -3 -4 -10 7 -18 15 -18 17 0 8 8 3 21 -13z m1279 3 c0 -2 -7 -6 -15 -10
-8 -3 -15 -1 -15 4 0 6 7 10 15 10 8 0 15 -2 15 -4z m300 -5 c0 -6 -4 -13 -10
-16 -5 -3 -10 1 -10 9 0 9 5 16 10 16 6 0 10 -4 10 -9z m-1760 -51 c0 -5 -4
-10 -10 -10 -5 0 -10 5 -10 10 0 6 5 10 10 10 6 0 10 -4 10 -10z m1321 -37
c13 -15 16 -22 7 -14 -9 7 -21 10 -25 8 -5 -3 -10 3 -10 14 -2 25 -1 24 28 -8z
m-291 -53 c-12 -17 -25 -28 -28 -25 -4 3 -2 9 4 13 6 4 17 18 23 30 7 13 15
21 18 18 3 -2 -5 -19 -17 -36z m-1280 26 c0 -2 -8 -10 -17 -17 -16 -13 -17
-12 -4 4 13 16 21 21 21 13z m1594 -45 c-2 -3 -12 3 -22 13 -16 17 -16 18 5 5
12 -7 20 -15 17 -18z m96 -28 c0 4 10 1 23 -6 12 -8 43 -20 70 -27 60 -16 70
-30 20 -30 -25 0 -33 3 -25 9 10 6 2 10 -25 15 -21 4 -55 14 -75 23 -29 12
-34 18 -25 29 10 10 14 10 25 -4 6 -8 12 -13 12 -9z m-1803 2 c0 -9 -6 -14
-12 -11 -7 2 -18 -1 -24 -7 -6 -6 -11 -7 -11 -3 0 9 30 35 41 36 3 0 6 -7 6
-15z m1933 -5 c-20 -13 -43 -13 -35 0 3 6 16 10 28 10 18 0 19 -2 7 -10z
m-2017 -37 c-7 -2 -19 -2 -25 0 -7 3 -2 5 12 5 14 0 19 -2 13 -5z m1410 -8
c-3 -9 -8 -14 -10 -11 -3 3 -2 9 2 15 9 16 15 13 8 -4z m-1903 -45 c-8 -5 -17
-7 -19 -4 -3 3 1 9 9 14 8 5 17 7 19 4 3 -3 -1 -9 -9 -14z m2805 -190 c3 -5
-3 -10 -14 -10 -12 0 -21 5 -21 10 0 6 6 10 14 10 8 0 18 -4 21 -10z m55 -10
c0 -5 -10 -10 -22 -9 -22 0 -22 1 -3 9 11 5 21 9 23 9 1 1 2 -3 2 -9z m77 -6
c-3 -3 -12 -4 -19 -1 -8 3 -5 6 6 6 11 1 17 -2 13 -5z m-908 -60 c-33 -25 -79
-52 -69 -41 17 18 84 67 93 67 6 0 -5 -12 -24 -26z m-102 -68 c-15 -12 -50
-33 -77 -47 -26 -13 -46 -27 -44 -31 3 -4 -3 -5 -12 -1 -10 4 -15 2 -11 -3 3
-5 -6 -11 -21 -12 -15 -1 -72 -25 -127 -53 -55 -28 -95 -46 -88 -39 24 25 199
116 252 130 21 5 42 17 45 25 3 8 11 15 18 15 7 0 29 9 48 19 46 26 51 25 17
-3z m-477 -101 c0 -8 -4 -15 -10 -15 -5 0 -7 7 -4 15 4 8 8 15 10 15 2 0 4 -7
4 -15z m-560 1 c0 -3 -4 -8 -10 -11 -5 -3 -10 -1 -10 4 0 6 5 11 10 11 6 0 10
-2 10 -4z m-13 -83 c-9 -9 -19 -14 -23 -11 -10 10 6 28 24 28 15 0 15 -1 -1
-17z m-104 -168 c9 0 8 -16 -4 -35 -5 -10 -8 -11 -9 -2 0 6 -6 12 -14 12 -12
0 -14 10 -7 38 1 2 7 0 14 -5 6 -4 15 -8 20 -8z"/>
<path d="M3201 3661 c-23 -6 -50 -36 -41 -45 18 -17 45 -8 61 22 19 33 19 34
-20 23z"/>
<path d="M4365 3551 c33 -17 76 -32 95 -33 36 -2 115 -48 138 -80 16 -21 81
-41 96 -28 16 13 142 40 187 40 44 0 113 -25 105 -38 -3 -5 4 -16 14 -25 31
-27 152 -84 192 -91 29 -5 44 -17 73 -56 20 -27 44 -52 54 -55 10 -3 29 -17
42 -32 l24 -26 -37 27 c-40 30 -52 19 -24 -19 10 -14 25 -19 62 -18 54 1 183
19 191 26 6 6 -107 127 -119 127 -5 0 -6 -6 -2 -12 4 -8 3 -10 -2 -5 -5 5 -9
14 -9 20 0 25 -97 51 -200 52 -104 1 -128 8 -174 52 -14 13 -55 40 -90 60 -55
31 -75 37 -144 41 -44 3 -110 -1 -148 -8 -64 -11 -70 -10 -98 9 -57 41 -176
90 -231 96 l-55 6 60 -30z m1032 -337 l28 -26 -35 23 c-46 29 -45 29 -32 29 6
0 24 -12 39 -26z"/>
<path d="M4144 3555 c-8 -21 10 -39 30 -32 22 9 20 24 -4 37 -16 9 -22 8 -26
-5z"/>
<path d="M3136 3490 c-11 -3 -15 -9 -10 -13 10 -6 42 9 34 16 -3 3 -14 1 -24
-3z"/>
<path d="M3370 3477 c0 -8 -5 -17 -11 -19 -7 -2 -10 -10 -8 -17 3 -9 11 -7 27
7 19 17 20 21 7 32 -12 10 -15 10 -15 -3z"/>
<path d="M3065 3460 c-3 -5 -1 -10 4 -10 6 0 11 5 11 10 0 6 -2 10 -4 10 -3 0
-8 -4 -11 -10z"/>
<path d="M3261 3444 c-12 -9 -28 -13 -36 -10 -10 3 -15 -1 -15 -13 0 -10 -8
-22 -17 -25 -24 -10 -2 -27 25 -20 12 4 22 11 22 16 0 6 6 6 14 -1 12 -10 13
-8 9 9 -4 14 1 26 13 35 27 19 13 28 -15 9z"/>
<path d="M3029 3423 c-12 -16 -12 -17 1 -7 8 6 22 14 30 17 13 5 12 6 -1 6 -9
1 -23 -7 -30 -16z"/>
<path d="M3065 3410 c-3 -5 -1 -10 4 -10 6 0 11 5 11 10 0 6 -2 10 -4 10 -3 0
-8 -4 -11 -10z"/>
<path d="M3725 3400 c3 -5 8 -10 11 -10 2 0 4 5 4 10 0 6 -5 10 -11 10 -5 0
-7 -4 -4 -10z"/>
<path d="M4460 3389 c0 -5 5 -7 10 -4 6 3 10 8 10 11 0 2 -4 4 -10 4 -5 0 -10
-5 -10 -11z"/>
<path d="M3040 3369 c-19 -8 -21 -12 -10 -19 11 -7 11 -11 1 -24 -14 -17 -56
-23 -46 -6 3 6 2 10 -4 10 -5 0 -9 -8 -8 -18 1 -21 39 -24 58 -5 8 8 19 9 37
2 14 -5 31 -8 38 -5 8 3 12 -3 11 -14 -1 -10 -4 -17 -7 -15 -3 2 -12 0 -20 -6
-11 -6 -4 -9 23 -9 20 0 37 -5 37 -11 0 -6 -8 -9 -18 -7 -10 3 -23 -1 -30 -9
-11 -11 -8 -13 13 -13 15 0 35 -4 45 -10 10 -5 26 -7 36 -3 15 6 15 7 1 18
-18 13 -17 39 1 57 7 7 12 18 12 25 0 17 -20 17 -21 1 0 -7 -5 1 -10 19 -9 30
-11 31 -45 26 -28 -5 -39 -2 -46 10 -10 19 -13 20 -48 6z m30 -19 c0 -5 -2
-10 -4 -10 -3 0 -8 5 -11 10 -3 6 -1 10 4 10 6 0 11 -4 11 -10z"/>
<path d="M3460 3352 c0 -5 7 -9 15 -9 8 0 15 4 15 9 0 4 -7 8 -15 8 -8 0 -15
-4 -15 -8z"/>
<path d="M3567 3346 c-4 -10 1 -12 14 -9 10 3 19 0 19 -6 0 -6 5 -11 10 -11
19 0 10 17 -14 28 -19 8 -25 8 -29 -2z"/>
<path d="M3380 3340 c0 -7 -11 -23 -25 -36 -14 -13 -25 -32 -25 -44 0 -11 -7
-23 -15 -26 -8 -4 -15 -13 -15 -20 0 -26 38 4 61 47 18 35 22 39 37 27 13 -11
14 -11 7 2 -5 8 -11 24 -12 34 -4 23 -13 35 -13 16z"/>
<path d="M3240 3330 c0 -5 4 -10 9 -10 6 0 13 5 16 10 3 6 -1 10 -9 10 -9 0
-16 -4 -16 -10z"/>
<path d="M3544 3305 c-8 -21 6 -41 17 -24 12 19 11 39 -1 39 -6 0 -13 -7 -16
-15z"/>
<path d="M2125 3285 c-16 -13 -25 -24 -20 -25 6 0 24 11 40 25 17 13 26 24 20
25 -5 0 -23 -11 -40 -25z"/>
<path d="M3037 3293 c-12 -11 -8 -23 7 -23 8 0 16 7 20 15 5 15 -14 21 -27 8z"/>
<path d="M4387 3283 c3 -7 6 -13 8 -13 2 0 5 6 8 13 3 8 -1 14 -8 14 -7 0 -11
-6 -8 -14z"/>
<path d="M3590 3256 c0 -2 7 -6 15 -10 8 -3 15 -1 15 4 0 6 -7 10 -15 10 -8 0
-15 -2 -15 -4z"/>
<path d="M3450 3239 c0 -5 5 -7 10 -4 6 3 10 8 10 11 0 2 -4 4 -10 4 -5 0 -10
-5 -10 -11z"/>
<path d="M3544 3225 c-11 -8 -14 -15 -6 -15 6 0 12 -9 12 -20 0 -20 32 -44 44
-33 3 4 -1 14 -10 24 -9 10 -14 27 -11 39 6 24 -2 25 -29 5z"/>
<path d="M3065 3220 c-3 -5 -1 -10 4 -10 6 0 11 5 11 10 0 6 -2 10 -4 10 -3 0
-8 -4 -11 -10z"/>
<path d="M3365 3222 c-11 -11 -4 -32 10 -32 8 0 15 -4 15 -10 0 -5 6 -10 13
-10 6 1 1 10 -12 20 -25 21 -13 27 20 10 15 -8 19 -7 19 5 0 8 -3 15 -7 16 -5
0 -18 2 -31 3 -12 2 -24 0 -27 -2z"/>
<path d="M3470 3220 c0 -5 5 -10 10 -10 6 0 10 5 10 10 0 6 -4 10 -10 10 -5 0
-10 -4 -10 -10z"/>
<path d="M3219 3203 c-13 -16 -12 -17 4 -4 16 13 21 21 13 21 -2 0 -10 -8 -17
-17z"/>
<path d="M3457 3163 c-4 -3 -7 -11 -7 -17 0 -6 5 -5 12 2 6 6 9 14 7 17 -3 3
-9 2 -12 -2z"/>
<path d="M5705 3085 c56 -39 151 -113 171 -131 43 -41 67 -165 42 -219 -6 -14
-8 -28 -4 -32 4 -4 40 10 82 30 75 37 117 46 129 26 4 -6 14 -8 22 -5 8 4 11
2 7 -5 -4 -6 -2 -14 3 -18 26 -17 64 -85 92 -161 l31 -85 -3 60 c-3 33 -7 69
-11 80 -3 11 0 7 8 -10 8 -16 15 -59 17 -95 3 -61 12 -90 28 -90 11 0 1 121
-15 178 -29 104 -130 178 -257 190 -32 3 -53 8 -46 12 9 6 9 15 0 41 -22 63
-80 154 -117 183 -45 35 -123 66 -167 66 -30 -1 -31 -1 -12 -15z m161 -50 c19
-14 39 -36 45 -48 7 -14 -7 -5 -37 23 -27 25 -51 46 -53 48 -2 1 -1 2 4 2 4 0
23 -11 41 -25z m69 -85 c3 -5 1 -10 -4 -10 -6 0 -11 5 -11 10 0 6 2 10 4 10 3
0 8 -4 11 -10z"/>
<path d="M5158 2770 c-4 -24 -1 -30 9 -25 8 3 17 5 20 5 3 0 0 7 -8 16 -10 13
-10 17 2 25 12 7 11 9 -2 9 -11 0 -18 -11 -21 -30z"/>
<path d="M4309 2713 c-16 -4 -29 -31 -29 -61 0 -10 5 -10 20 -2 13 7 17 16 13
28 -6 16 -6 16 11 -1 25 -24 42 -10 19 16 -10 12 -18 22 -18 23 0 0 -7 -1 -16
-3z"/>
<path d="M5637 2613 c-14 -13 -6 -24 15 -21 27 4 36 28 11 28 -11 0 -23 -3
-26 -7z"/>
<path d="M5524 2595 c-4 -8 -11 -12 -17 -8 -6 3 -7 1 -3 -5 4 -7 16 -12 28
-12 16 0 18 3 9 13 -6 8 -8 17 -4 20 3 4 3 7 -1 7 -3 0 -9 -7 -12 -15z"/>
<path d="M5640 2550 c0 -5 5 -10 11 -10 5 0 7 5 4 10 -3 6 -8 10 -11 10 -2 0
-4 -4 -4 -10z"/>
<path d="M6295 2391 c3 -20 6 -78 7 -128 1 -96 4 -105 58 -162 l24 -26 13 40
13 40 -4 -42 c-3 -31 1 -46 13 -57 19 -17 37 -21 44 -8 2 4 2 2 1 -5 -2 -6 4
-17 12 -23 23 -20 46 50 51 155 5 87 4 92 -25 137 -35 54 -105 99 -169 108
l-44 7 6 -36z m110 -9 c-3 -3 -11 0 -18 7 -9 10 -8 11 6 5 10 -3 15 -9 12 -12z
m92 -194 c-3 -8 -6 -5 -6 6 -1 11 2 17 5 13 3 -3 4 -12 1 -19z m3 -34 c0 -8
-5 -12 -10 -9 -6 4 -8 11 -5 16 9 14 15 11 15 -7z m-16 -58 c-3 -15 -8 -25
-11 -23 -2 3 -1 17 3 31 3 15 8 25 11 23 2 -3 1 -17 -3 -31z"/>
<path d="M3796 2407 c3 -10 9 -15 12 -12 3 3 0 11 -7 18 -10 9 -11 8 -5 -6z"/>
<path d="M1007 2183 c-9 -18 -17 -40 -17 -50 0 -16 2 -15 21 3 14 14 19 31 17
50 l-3 29 -18 -32z"/>
<path d="M5000 2176 c0 -8 -3 -23 -6 -33 -5 -15 -4 -16 6 -3 10 12 11 11 7 -8
-7 -29 2 -54 15 -46 5 3 18 -2 29 -12 18 -17 19 -16 19 23 0 46 -13 63 -50 63
-5 0 -7 7 -4 15 4 8 1 15 -5 15 -6 0 -11 -6 -11 -14z"/>
<path d="M3815 2100 c-3 -5 -1 -10 4 -10 6 0 11 5 11 10 0 6 -2 10 -4 10 -3 0
-8 -4 -11 -10z"/>
<path d="M5080 2095 c0 -8 5 -15 10 -15 6 0 10 7 10 15 0 8 -4 15 -10 15 -5 0
-10 -7 -10 -15z"/>
<path d="M5390 2106 c0 -2 8 -10 18 -17 15 -13 16 -12 3 4 -13 16 -21 21 -21
13z"/>
<path d="M5116 2091 c-4 -5 -2 -20 3 -33 9 -21 10 -21 10 -2 1 11 6 25 13 32
9 9 8 12 -4 12 -9 0 -19 -4 -22 -9z"/>
<path d="M5350 2080 c0 -5 6 -10 14 -10 8 0 18 5 21 10 3 6 -3 10 -14 10 -12
0 -21 -4 -21 -10z"/>
<path d="M5005 2060 c-3 -5 -1 -10 4 -10 6 0 11 5 11 10 0 6 -2 10 -4 10 -3 0
-8 -4 -11 -10z"/>
<path d="M5265 2023 c-13 -26 -15 -41 -7 -52 10 -16 42 -16 52 -1 3 4 16 10
30 13 25 4 25 5 3 12 -18 6 -21 11 -13 25 16 30 12 40 -19 40 -23 0 -32 -7
-46 -37z"/>
<path d="M5475 1980 c-3 -5 -1 -10 4 -10 6 0 11 5 11 10 0 6 -2 10 -4 10 -3 0
-8 -4 -11 -10z"/>
<path d="M5223 1926 c-28 -29 -29 -36 -4 -36 21 0 34 14 38 43 4 23 -8 21 -34
-7z"/>
<path d="M5130 1930 c-12 -8 -11 -10 5 -10 17 0 18 -2 5 -11 -12 -8 -10 -9 9
-4 17 5 21 4 16 -5 -5 -8 -3 -11 4 -9 7 3 12 8 11 13 -1 5 4 13 12 18 9 7 8 8
-6 4 -10 -4 -24 -2 -30 3 -7 6 -17 6 -26 1z"/>
<path d="M5370 1920 c0 -5 4 -10 9 -10 6 0 13 5 16 10 3 6 -1 10 -9 10 -9 0
-16 -4 -16 -10z"/>
<path d="M5345 1850 c-3 -5 -1 -10 4 -10 6 0 11 5 11 10 0 6 -2 10 -4 10 -3 0
-8 -4 -11 -10z"/>
<path d="M3786 1825 c-3 -9 -2 -24 3 -32 7 -13 9 -12 13 5 7 26 -7 50 -16 27z"/>
<path d="M3190 1804 c0 -8 5 -12 10 -9 6 4 8 11 5 16 -9 14 -15 11 -15 -7z"/>
<path d="M5310 1785 c0 -17 2 -18 24 -9 18 7 12 24 -10 24 -8 0 -14 -7 -14
-15z"/>
<path d="M3703 1710 c0 -14 1 -18 4 -7 6 22 21 23 19 1 0 -9 4 -19 10 -21 7
-2 10 6 9 19 -4 34 -3 34 -23 34 -12 0 -18 -8 -19 -26z"/>
<path d="M2928 1663 c7 -3 16 -2 19 1 4 3 -2 6 -13 5 -11 0 -14 -3 -6 -6z"/>
<path d="M6450 1470 c-8 -5 -33 -10 -56 -10 -40 0 -40 0 -54 -52 -42 -166 -82
-268 -161 -403 -97 -169 -130 -210 -206 -260 -77 -52 -83 -60 -83 -119 0 -87
-18 -166 -57 -250 -47 -103 -57 -115 -83 -98 -18 11 -24 7 -57 -38 -30 -41
-43 -50 -68 -50 -16 -1 -41 -7 -55 -15 -14 -8 -38 -14 -53 -15 -56 0 -288 52
-474 106 -246 73 -234 69 -273 89 -24 12 -49 16 -89 13 -99 -7 -141 -33 -490
-303 l-84 -65 806 0 c635 0 806 3 810 13 4 10 6 10 6 0 1 -18 38 -16 45 3 3 8
2 12 -4 9 -15 -9 -12 5 5 21 11 11 15 12 15 3 0 -7 2 -10 5 -7 3 3 2 13 -1 23
-7 17 -8 17 -22 -1 -14 -18 -14 -18 -7 1 4 11 11 35 15 54 11 45 42 74 79 74
26 0 30 4 33 31 2 25 7 31 28 31 38 0 88 80 130 210 17 49 36 84 66 116 24 26
44 45 46 43 2 -2 19 19 37 47 23 35 31 58 27 73 -3 13 -3 26 1 29 3 4 8 19 9
34 2 15 8 29 14 31 5 2 10 17 10 33 0 16 4 29 8 29 5 0 6 20 2 45 -4 29 -3 46
4 49 7 3 6 8 -2 14 -11 7 -11 10 3 16 9 3 13 10 10 16 -4 6 -10 8 -14 6 -4 -3
-13 -1 -21 5 -8 5 -10 9 -4 9 7 0 49 38 95 85 101 102 149 184 149 254 0 55
-17 86 -40 71z m-15 -120 c-25 -48 -29 -30 -8 36 16 54 18 56 21 27 2 -17 -4
-46 -13 -63z"/>
<path d="M2337 1283 c-12 -12 -7 -22 8 -17 8 4 15 10 15 15 0 11 -14 12 -23 2z"/>
<path d="M2625 1280 c-3 -5 1 -10 9 -10 8 0 18 5 21 10 3 6 -1 10 -9 10 -8 0
-18 -4 -21 -10z"/>
<path d="M4757 1053 c-4 -3 -7 -11 -7 -17 0 -6 5 -5 12 2 6 6 9 14 7 17 -3 3
-9 2 -12 -2z"/>
<path d="M2195 770 c-3 -5 -1 -10 4 -10 6 0 11 5 11 10 0 6 -2 10 -4 10 -3 0
-8 -4 -11 -10z"/>
<path d="M1345 561 c-69 -6 -70 -6 -45 -23 14 -9 46 -27 72 -39 26 -12 45 -26
42 -31 -3 -4 1 -8 8 -8 9 0 9 -3 -2 -10 -12 -8 -12 -10 5 -11 11 0 15 -3 9 -5
-14 -6 3 -74 18 -74 4 0 8 -8 8 -18 0 -22 83 -107 120 -124 16 -7 27 -15 24
-19 -2 -4 2 -7 9 -6 36 1 58 -4 52 -12 -3 -6 2 -16 11 -23 9 -7 31 -28 50 -47
19 -19 34 -29 34 -22 0 6 4 11 8 11 4 0 8 -12 7 -27 0 -22 5 -29 23 -31 12 -2
22 -8 22 -13 0 -5 7 -9 15 -9 8 0 15 -4 15 -10 0 -6 70 -10 190 -10 105 0 190
2 190 6 0 3 -31 52 -69 110 -39 58 -77 126 -87 152 -58 165 -93 203 -220 246
-115 39 -356 61 -509 47z m485 -421 c8 -5 11 -10 5 -10 -5 0 -17 5 -25 10 -8
5 -10 10 -5 10 6 0 17 -5 25 -10z"/>
<path d="M2635 380 c-3 -5 -1 -10 4 -10 6 0 11 5 11 10 0 6 -2 10 -4 10 -3 0
-8 -4 -11 -10z"/>
<path d="M5837 144 c-10 -11 -8 -24 4 -24 5 0 7 5 4 10 -3 6 0 10 9 10 8 0 17
-5 19 -10 3 -6 4 -5 3 2 -3 15 -28 22 -39 12z"/>
<path d="M5830 102 c0 -18 29 -27 43 -13 9 9 8 11 -7 5 -11 -4 -21 -2 -27 7
-6 10 -9 11 -9 1z"/>
</g>
</svg>
