<svg width="1920" height="1069" viewBox="0 0 1920 1069" fill="none" xmlns="http://www.w3.org/2000/svg">
<g opacity="0.1">
<path d="M961 106.9C961 165.939 913.139 213.8 854.1 213.8C795.061 213.8 747.2 165.939 747.2 106.9C747.2 47.8608 795.061 0 854.1 0C913.139 0 961 47.8608 961 106.9Z" fill="white"/>
<path d="M854.1 0C854.1 0 868.882 48.36 890.761 70.239C912.64 92.118 961 106.9 961 106.9C961 106.9 912.64 121.682 890.761 143.561C868.882 165.44 854.1 213.8 854.1 213.8C854.1 213.8 839.318 165.44 817.439 143.561C795.56 121.682 747.2 106.9 747.2 106.9C747.2 106.9 795.56 92.118 817.439 70.239C839.318 48.36 854.1 0 854.1 0Z" fill="#FAC480"/>
<path d="M747.2 106.9C747.2 165.939 699.339 213.8 640.3 213.8C581.261 213.8 533.4 165.939 533.4 106.9C533.4 47.8608 581.261 0 640.3 0C699.339 0 747.2 47.8608 747.2 106.9Z" fill="white"/>
<path d="M640.3 0C640.3 0 655.082 48.36 676.961 70.239C698.84 92.118 747.2 106.9 747.2 106.9C747.2 106.9 698.84 121.682 676.961 143.561C655.082 165.44 640.3 213.8 640.3 213.8C640.3 213.8 625.518 165.44 603.639 143.561C581.76 121.682 533.4 106.9 533.4 106.9C533.4 106.9 581.76 92.118 603.639 70.239C625.518 48.36 640.3 0 640.3 0Z" fill="#FAC480"/>
<path d="M533.4 106.9C533.4 165.939 485.539 213.8 426.5 213.8C367.461 213.8 319.6 165.939 319.6 106.9C319.6 47.8608 367.461 0 426.5 0C485.539 0 533.4 47.8608 533.4 106.9Z" fill="white"/>
<path d="M426.5 0C426.5 0 441.282 48.36 463.161 70.239C485.04 92.118 533.4 106.9 533.4 106.9C533.4 106.9 485.04 121.682 463.161 143.561C441.282 165.44 426.5 213.8 426.5 213.8C426.5 213.8 411.718 165.44 389.839 143.561C367.96 121.682 319.6 106.9 319.6 106.9C319.6 106.9 367.96 92.118 389.839 70.239C411.718 48.36 426.5 0 426.5 0Z" fill="#FAC480"/>
<path d="M319.6 106.9C319.6 165.939 271.739 213.8 212.7 213.8C153.661 213.8 105.8 165.939 105.8 106.9C105.8 47.8608 153.661 0 212.7 0C271.739 0 319.6 47.8608 319.6 106.9Z" fill="white"/>
<path d="M212.7 0C212.7 0 227.482 48.36 249.361 70.239C271.24 92.118 319.6 106.9 319.6 106.9C319.6 106.9 271.24 121.682 249.361 143.561C227.482 165.44 212.7 213.8 212.7 213.8C212.7 213.8 197.918 165.44 176.039 143.561C154.16 121.682 105.8 106.9 105.8 106.9C105.8 106.9 154.16 92.118 176.039 70.239C197.918 48.36 212.7 0 212.7 0Z" fill="#FAC480"/>
<path d="M105.8 106.9C105.8 165.939 57.9392 213.8 -1.10001 213.8C-60.1392 213.8 -108 165.939 -108 106.9C-108 47.8608 -60.1392 0 -1.10001 0C57.9392 0 105.8 47.8608 105.8 106.9Z" fill="white"/>
<path d="M-1.10001 0C-1.10001 0 13.682 48.36 35.561 70.239C57.44 92.118 105.8 106.9 105.8 106.9C105.8 106.9 57.44 121.682 35.561 143.561C13.682 165.44 -1.10001 213.8 -1.10001 213.8C-1.10001 213.8 -15.882 165.44 -37.761 143.561C-59.64 121.682 -108 106.9 -108 106.9C-108 106.9 -59.64 92.118 -37.761 70.239C-15.882 48.36 -1.10001 0 -1.10001 0Z" fill="#FAC480"/>
<path d="M961 320.7C961 379.739 913.139 427.6 854.1 427.6C795.061 427.6 747.2 379.739 747.2 320.7C747.2 261.661 795.061 213.8 854.1 213.8C913.139 213.8 961 261.661 961 320.7Z" fill="white"/>
<path d="M854.1 213.8C854.1 213.8 868.882 262.16 890.761 284.039C912.64 305.918 961 320.7 961 320.7C961 320.7 912.64 335.482 890.761 357.361C868.882 379.24 854.1 427.6 854.1 427.6C854.1 427.6 839.318 379.24 817.439 357.361C795.56 335.482 747.2 320.7 747.2 320.7C747.2 320.7 795.56 305.918 817.439 284.039C839.318 262.16 854.1 213.8 854.1 213.8Z" fill="#FAC480"/>
<path d="M747.2 320.7C747.2 379.739 699.339 427.6 640.3 427.6C581.261 427.6 533.4 379.739 533.4 320.7C533.4 261.661 581.261 213.8 640.3 213.8C699.339 213.8 747.2 261.661 747.2 320.7Z" fill="white"/>
<path d="M640.3 213.8C640.3 213.8 655.082 262.16 676.961 284.039C698.84 305.918 747.2 320.7 747.2 320.7C747.2 320.7 698.84 335.482 676.961 357.361C655.082 379.24 640.3 427.6 640.3 427.6C640.3 427.6 625.518 379.24 603.639 357.361C581.76 335.482 533.4 320.7 533.4 320.7C533.4 320.7 581.76 305.918 603.639 284.039C625.518 262.16 640.3 213.8 640.3 213.8Z" fill="#FAC480"/>
<path d="M533.4 320.7C533.4 379.739 485.539 427.6 426.5 427.6C367.461 427.6 319.6 379.739 319.6 320.7C319.6 261.661 367.461 213.8 426.5 213.8C485.539 213.8 533.4 261.661 533.4 320.7Z" fill="white"/>
<path d="M426.5 213.8C426.5 213.8 441.282 262.16 463.161 284.039C485.04 305.918 533.4 320.7 533.4 320.7C533.4 320.7 485.04 335.482 463.161 357.361C441.282 379.24 426.5 427.6 426.5 427.6C426.5 427.6 411.718 379.24 389.839 357.361C367.96 335.482 319.6 320.7 319.6 320.7C319.6 320.7 367.96 305.918 389.839 284.039C411.718 262.16 426.5 213.8 426.5 213.8Z" fill="#FAC480"/>
<path d="M319.6 320.7C319.6 379.739 271.739 427.6 212.7 427.6C153.661 427.6 105.8 379.739 105.8 320.7C105.8 261.661 153.661 213.8 212.7 213.8C271.739 213.8 319.6 261.661 319.6 320.7Z" fill="white"/>
<path d="M212.7 213.8C212.7 213.8 227.482 262.16 249.361 284.039C271.24 305.918 319.6 320.7 319.6 320.7C319.6 320.7 271.24 335.482 249.361 357.361C227.482 379.24 212.7 427.6 212.7 427.6C212.7 427.6 197.918 379.24 176.039 357.361C154.16 335.482 105.8 320.7 105.8 320.7C105.8 320.7 154.16 305.918 176.039 284.039C197.918 262.16 212.7 213.8 212.7 213.8Z" fill="#FAC480"/>
<path d="M105.8 320.7C105.8 379.739 57.9392 427.6 -1.10001 427.6C-60.1392 427.6 -108 379.739 -108 320.7C-108 261.661 -60.1392 213.8 -1.10001 213.8C57.9392 213.8 105.8 261.661 105.8 320.7Z" fill="white"/>
<path d="M-1.10001 213.8C-1.10001 213.8 13.682 262.16 35.561 284.039C57.44 305.918 105.8 320.7 105.8 320.7C105.8 320.7 57.44 335.482 35.561 357.361C13.682 379.24 -1.10001 427.6 -1.10001 427.6C-1.10001 427.6 -15.882 379.24 -37.761 357.361C-59.64 335.482 -108 320.7 -108 320.7C-108 320.7 -59.64 305.918 -37.761 284.039C-15.882 262.16 -1.10001 213.8 -1.10001 213.8Z" fill="#FAC480"/>
<path d="M961 534.5C961 593.539 913.139 641.4 854.1 641.4C795.061 641.4 747.2 593.539 747.2 534.5C747.2 475.461 795.061 427.6 854.1 427.6C913.139 427.6 961 475.461 961 534.5Z" fill="white"/>
<path d="M854.1 427.6C854.1 427.6 868.882 475.96 890.761 497.839C912.64 519.718 961 534.5 961 534.5C961 534.5 912.64 549.282 890.761 571.161C868.882 593.04 854.1 641.4 854.1 641.4C854.1 641.4 839.318 593.04 817.439 571.161C795.56 549.282 747.2 534.5 747.2 534.5C747.2 534.5 795.56 519.718 817.439 497.839C839.318 475.96 854.1 427.6 854.1 427.6Z" fill="#FAC480"/>
<path d="M747.2 534.5C747.2 593.539 699.339 641.4 640.3 641.4C581.261 641.4 533.4 593.539 533.4 534.5C533.4 475.461 581.261 427.6 640.3 427.6C699.339 427.6 747.2 475.461 747.2 534.5Z" fill="white"/>
<path d="M640.3 427.6C640.3 427.6 655.082 475.96 676.961 497.839C698.84 519.718 747.2 534.5 747.2 534.5C747.2 534.5 698.84 549.282 676.961 571.161C655.082 593.04 640.3 641.4 640.3 641.4C640.3 641.4 625.518 593.04 603.639 571.161C581.76 549.282 533.4 534.5 533.4 534.5C533.4 534.5 581.76 519.718 603.639 497.839C625.518 475.96 640.3 427.6 640.3 427.6Z" fill="#FAC480"/>
<path d="M533.4 534.5C533.4 593.539 485.539 641.4 426.5 641.4C367.461 641.4 319.6 593.539 319.6 534.5C319.6 475.461 367.461 427.6 426.5 427.6C485.539 427.6 533.4 475.461 533.4 534.5Z" fill="white"/>
<path d="M426.5 427.6C426.5 427.6 441.282 475.96 463.161 497.839C485.04 519.718 533.4 534.5 533.4 534.5C533.4 534.5 485.04 549.282 463.161 571.161C441.282 593.04 426.5 641.4 426.5 641.4C426.5 641.4 411.718 593.04 389.839 571.161C367.96 549.282 319.6 534.5 319.6 534.5C319.6 534.5 367.96 519.718 389.839 497.839C411.718 475.96 426.5 427.6 426.5 427.6Z" fill="#FAC480"/>
<path d="M319.6 534.5C319.6 593.539 271.739 641.4 212.7 641.4C153.661 641.4 105.8 593.539 105.8 534.5C105.8 475.461 153.661 427.6 212.7 427.6C271.739 427.6 319.6 475.461 319.6 534.5Z" fill="white"/>
<path d="M212.7 427.6C212.7 427.6 227.482 475.96 249.361 497.839C271.24 519.718 319.6 534.5 319.6 534.5C319.6 534.5 271.24 549.282 249.361 571.161C227.482 593.04 212.7 641.4 212.7 641.4C212.7 641.4 197.918 593.04 176.039 571.161C154.16 549.282 105.8 534.5 105.8 534.5C105.8 534.5 154.16 519.718 176.039 497.839C197.918 475.96 212.7 427.6 212.7 427.6Z" fill="#FAC480"/>
<path d="M105.8 534.5C105.8 593.539 57.9392 641.4 -1.10001 641.4C-60.1392 641.4 -108 593.539 -108 534.5C-108 475.461 -60.1392 427.6 -1.10001 427.6C57.9392 427.6 105.8 475.461 105.8 534.5Z" fill="white"/>
<path d="M-1.10001 427.6C-1.10001 427.6 13.682 475.96 35.561 497.839C57.44 519.718 105.8 534.5 105.8 534.5C105.8 534.5 57.44 549.282 35.561 571.161C13.682 593.04 -1.10001 641.4 -1.10001 641.4C-1.10001 641.4 -15.882 593.04 -37.761 571.161C-59.64 549.282 -108 534.5 -108 534.5C-108 534.5 -59.64 519.718 -37.761 497.839C-15.882 475.96 -1.10001 427.6 -1.10001 427.6Z" fill="#FAC480"/>
<path d="M961 748.3C961 807.339 913.139 855.2 854.1 855.2C795.061 855.2 747.2 807.339 747.2 748.3C747.2 689.261 795.061 641.4 854.1 641.4C913.139 641.4 961 689.261 961 748.3Z" fill="white"/>
<path d="M854.1 641.4C854.1 641.4 868.882 689.76 890.761 711.639C912.64 733.518 961 748.3 961 748.3C961 748.3 912.64 763.082 890.761 784.961C868.882 806.84 854.1 855.2 854.1 855.2C854.1 855.2 839.318 806.84 817.439 784.961C795.56 763.082 747.2 748.3 747.2 748.3C747.2 748.3 795.56 733.518 817.439 711.639C839.318 689.76 854.1 641.4 854.1 641.4Z" fill="#FAC480"/>
<path d="M747.2 748.3C747.2 807.339 699.339 855.2 640.3 855.2C581.261 855.2 533.4 807.339 533.4 748.3C533.4 689.261 581.261 641.4 640.3 641.4C699.339 641.4 747.2 689.261 747.2 748.3Z" fill="white"/>
<path d="M640.3 641.4C640.3 641.4 655.082 689.76 676.961 711.639C698.84 733.518 747.2 748.3 747.2 748.3C747.2 748.3 698.84 763.082 676.961 784.961C655.082 806.84 640.3 855.2 640.3 855.2C640.3 855.2 625.518 806.84 603.639 784.961C581.76 763.082 533.4 748.3 533.4 748.3C533.4 748.3 581.76 733.518 603.639 711.639C625.518 689.76 640.3 641.4 640.3 641.4Z" fill="#FAC480"/>
<path d="M533.4 748.3C533.4 807.339 485.539 855.2 426.5 855.2C367.461 855.2 319.6 807.339 319.6 748.3C319.6 689.261 367.461 641.4 426.5 641.4C485.539 641.4 533.4 689.261 533.4 748.3Z" fill="white"/>
<path d="M426.5 641.4C426.5 641.4 441.282 689.76 463.161 711.639C485.04 733.518 533.4 748.3 533.4 748.3C533.4 748.3 485.04 763.082 463.161 784.961C441.282 806.84 426.5 855.2 426.5 855.2C426.5 855.2 411.718 806.84 389.839 784.961C367.96 763.082 319.6 748.3 319.6 748.3C319.6 748.3 367.96 733.518 389.839 711.639C411.718 689.76 426.5 641.4 426.5 641.4Z" fill="#FAC480"/>
<path d="M319.6 748.3C319.6 807.339 271.739 855.2 212.7 855.2C153.661 855.2 105.8 807.339 105.8 748.3C105.8 689.261 153.661 641.4 212.7 641.4C271.739 641.4 319.6 689.261 319.6 748.3Z" fill="white"/>
<path d="M212.7 641.4C212.7 641.4 227.482 689.76 249.361 711.639C271.24 733.518 319.6 748.3 319.6 748.3C319.6 748.3 271.24 763.082 249.361 784.961C227.482 806.84 212.7 855.2 212.7 855.2C212.7 855.2 197.918 806.84 176.039 784.961C154.16 763.082 105.8 748.3 105.8 748.3C105.8 748.3 154.16 733.518 176.039 711.639C197.918 689.76 212.7 641.4 212.7 641.4Z" fill="#FAC480"/>
<path d="M105.8 748.3C105.8 807.339 57.9392 855.2 -1.10001 855.2C-60.1392 855.2 -108 807.339 -108 748.3C-108 689.261 -60.1392 641.4 -1.10001 641.4C57.9392 641.4 105.8 689.261 105.8 748.3Z" fill="white"/>
<path d="M-1.10001 641.4C-1.10001 641.4 13.682 689.76 35.561 711.639C57.44 733.518 105.8 748.3 105.8 748.3C105.8 748.3 57.44 763.082 35.561 784.961C13.682 806.84 -1.10001 855.2 -1.10001 855.2C-1.10001 855.2 -15.882 806.84 -37.761 784.961C-59.64 763.082 -108 748.3 -108 748.3C-108 748.3 -59.64 733.518 -37.761 711.639C-15.882 689.76 -1.10001 641.4 -1.10001 641.4Z" fill="#FAC480"/>
<path d="M961 962.1C961 1021.14 913.139 1069 854.1 1069C795.061 1069 747.2 1021.14 747.2 962.1C747.2 903.061 795.061 855.2 854.1 855.2C913.139 855.2 961 903.061 961 962.1Z" fill="white"/>
<path d="M854.1 855.2C854.1 855.2 868.882 903.56 890.761 925.439C912.64 947.318 961 962.1 961 962.1C961 962.1 912.64 976.882 890.761 998.761C868.882 1020.64 854.1 1069 854.1 1069C854.1 1069 839.318 1020.64 817.439 998.761C795.56 976.882 747.2 962.1 747.2 962.1C747.2 962.1 795.56 947.318 817.439 925.439C839.318 903.56 854.1 855.2 854.1 855.2Z" fill="#FAC480"/>
<path d="M747.2 962.1C747.2 1021.14 699.339 1069 640.3 1069C581.261 1069 533.4 1021.14 533.4 962.1C533.4 903.061 581.261 855.2 640.3 855.2C699.339 855.2 747.2 903.061 747.2 962.1Z" fill="white"/>
<path d="M640.3 855.2C640.3 855.2 655.082 903.56 676.961 925.439C698.84 947.318 747.2 962.1 747.2 962.1C747.2 962.1 698.84 976.882 676.961 998.761C655.082 1020.64 640.3 1069 640.3 1069C640.3 1069 625.518 1020.64 603.639 998.761C581.76 976.882 533.4 962.1 533.4 962.1C533.4 962.1 581.76 947.318 603.639 925.439C625.518 903.56 640.3 855.2 640.3 855.2Z" fill="#FAC480"/>
<path d="M533.4 962.1C533.4 1021.14 485.539 1069 426.5 1069C367.461 1069 319.6 1021.14 319.6 962.1C319.6 903.061 367.461 855.2 426.5 855.2C485.539 855.2 533.4 903.061 533.4 962.1Z" fill="white"/>
<path d="M426.5 855.2C426.5 855.2 441.282 903.56 463.161 925.439C485.04 947.318 533.4 962.1 533.4 962.1C533.4 962.1 485.04 976.882 463.161 998.761C441.282 1020.64 426.5 1069 426.5 1069C426.5 1069 411.718 1020.64 389.839 998.761C367.96 976.882 319.6 962.1 319.6 962.1C319.6 962.1 367.96 947.318 389.839 925.439C411.718 903.56 426.5 855.2 426.5 855.2Z" fill="#FAC480"/>
<path d="M319.6 962.1C319.6 1021.14 271.739 1069 212.7 1069C153.661 1069 105.8 1021.14 105.8 962.1C105.8 903.061 153.661 855.2 212.7 855.2C271.739 855.2 319.6 903.061 319.6 962.1Z" fill="white"/>
<path d="M212.7 855.2C212.7 855.2 227.482 903.56 249.361 925.439C271.24 947.318 319.6 962.1 319.6 962.1C319.6 962.1 271.24 976.882 249.361 998.761C227.482 1020.64 212.7 1069 212.7 1069C212.7 1069 197.918 1020.64 176.039 998.761C154.16 976.882 105.8 962.1 105.8 962.1C105.8 962.1 154.16 947.318 176.039 925.439C197.918 903.56 212.7 855.2 212.7 855.2Z" fill="#FAC480"/>
<path d="M105.8 962.1C105.8 1021.14 57.9392 1069 -1.10001 1069C-60.1392 1069 -108 1021.14 -108 962.1C-108 903.061 -60.1392 855.2 -1.10001 855.2C57.9392 855.2 105.8 903.061 105.8 962.1Z" fill="white"/>
<path d="M-1.10001 855.2C-1.10001 855.2 13.682 903.56 35.561 925.439C57.44 947.318 105.8 962.1 105.8 962.1C105.8 962.1 57.44 976.882 35.561 998.761C13.682 1020.64 -1.10001 1069 -1.10001 1069C-1.10001 1069 -15.882 1020.64 -37.761 998.761C-59.64 976.882 -108 962.1 -108 962.1C-108 962.1 -59.64 947.318 -37.761 925.439C-15.882 903.56 -1.10001 855.2 -1.10001 855.2Z" fill="#FAC480"/>
<path d="M2030 106.9C2030 165.939 1982.14 213.8 1923.1 213.8C1864.06 213.8 1816.2 165.939 1816.2 106.9C1816.2 47.8608 1864.06 0 1923.1 0C1982.14 0 2030 47.8608 2030 106.9Z" fill="white"/>
<path d="M1923.1 0C1923.1 0 1937.88 48.36 1959.76 70.239C1981.64 92.118 2030 106.9 2030 106.9C2030 106.9 1981.64 121.682 1959.76 143.561C1937.88 165.44 1923.1 213.8 1923.1 213.8C1923.1 213.8 1908.32 165.44 1886.44 143.561C1864.56 121.682 1816.2 106.9 1816.2 106.9C1816.2 106.9 1864.56 92.118 1886.44 70.239C1908.32 48.36 1923.1 0 1923.1 0Z" fill="#FAC480"/>
<path d="M1816.2 106.9C1816.2 165.939 1768.34 213.8 1709.3 213.8C1650.26 213.8 1602.4 165.939 1602.4 106.9C1602.4 47.8608 1650.26 0 1709.3 0C1768.34 0 1816.2 47.8608 1816.2 106.9Z" fill="white"/>
<path d="M1709.3 0C1709.3 0 1724.08 48.36 1745.96 70.239C1767.84 92.118 1816.2 106.9 1816.2 106.9C1816.2 106.9 1767.84 121.682 1745.96 143.561C1724.08 165.44 1709.3 213.8 1709.3 213.8C1709.3 213.8 1694.52 165.44 1672.64 143.561C1650.76 121.682 1602.4 106.9 1602.4 106.9C1602.4 106.9 1650.76 92.118 1672.64 70.239C1694.52 48.36 1709.3 0 1709.3 0Z" fill="#FAC480"/>
<path d="M1602.4 106.9C1602.4 165.939 1554.54 213.8 1495.5 213.8C1436.46 213.8 1388.6 165.939 1388.6 106.9C1388.6 47.8608 1436.46 0 1495.5 0C1554.54 0 1602.4 47.8608 1602.4 106.9Z" fill="white"/>
<path d="M1495.5 0C1495.5 0 1510.28 48.36 1532.16 70.239C1554.04 92.118 1602.4 106.9 1602.4 106.9C1602.4 106.9 1554.04 121.682 1532.16 143.561C1510.28 165.44 1495.5 213.8 1495.5 213.8C1495.5 213.8 1480.72 165.44 1458.84 143.561C1436.96 121.682 1388.6 106.9 1388.6 106.9C1388.6 106.9 1436.96 92.118 1458.84 70.239C1480.72 48.36 1495.5 0 1495.5 0Z" fill="#FAC480"/>
<path d="M1388.6 106.9C1388.6 165.939 1340.74 213.8 1281.7 213.8C1222.66 213.8 1174.8 165.939 1174.8 106.9C1174.8 47.8608 1222.66 0 1281.7 0C1340.74 0 1388.6 47.8608 1388.6 106.9Z" fill="white"/>
<path d="M1281.7 0C1281.7 0 1296.48 48.36 1318.36 70.239C1340.24 92.118 1388.6 106.9 1388.6 106.9C1388.6 106.9 1340.24 121.682 1318.36 143.561C1296.48 165.44 1281.7 213.8 1281.7 213.8C1281.7 213.8 1266.92 165.44 1245.04 143.561C1223.16 121.682 1174.8 106.9 1174.8 106.9C1174.8 106.9 1223.16 92.118 1245.04 70.239C1266.92 48.36 1281.7 0 1281.7 0Z" fill="#FAC480"/>
<path d="M1174.8 106.9C1174.8 165.939 1126.94 213.8 1067.9 213.8C1008.86 213.8 961 165.939 961 106.9C961 47.8608 1008.86 0 1067.9 0C1126.94 0 1174.8 47.8608 1174.8 106.9Z" fill="white"/>
<path d="M1067.9 0C1067.9 0 1082.68 48.36 1104.56 70.239C1126.44 92.118 1174.8 106.9 1174.8 106.9C1174.8 106.9 1126.44 121.682 1104.56 143.561C1082.68 165.44 1067.9 213.8 1067.9 213.8C1067.9 213.8 1053.12 165.44 1031.24 143.561C1009.36 121.682 961 106.9 961 106.9C961 106.9 1009.36 92.118 1031.24 70.239C1053.12 48.36 1067.9 0 1067.9 0Z" fill="#FAC480"/>
<path d="M2030 320.7C2030 379.739 1982.14 427.6 1923.1 427.6C1864.06 427.6 1816.2 379.739 1816.2 320.7C1816.2 261.661 1864.06 213.8 1923.1 213.8C1982.14 213.8 2030 261.661 2030 320.7Z" fill="white"/>
<path d="M1923.1 213.8C1923.1 213.8 1937.88 262.16 1959.76 284.039C1981.64 305.918 2030 320.7 2030 320.7C2030 320.7 1981.64 335.482 1959.76 357.361C1937.88 379.24 1923.1 427.6 1923.1 427.6C1923.1 427.6 1908.32 379.24 1886.44 357.361C1864.56 335.482 1816.2 320.7 1816.2 320.7C1816.2 320.7 1864.56 305.918 1886.44 284.039C1908.32 262.16 1923.1 213.8 1923.1 213.8Z" fill="#FAC480"/>
<path d="M1816.2 320.7C1816.2 379.739 1768.34 427.6 1709.3 427.6C1650.26 427.6 1602.4 379.739 1602.4 320.7C1602.4 261.661 1650.26 213.8 1709.3 213.8C1768.34 213.8 1816.2 261.661 1816.2 320.7Z" fill="white"/>
<path d="M1709.3 213.8C1709.3 213.8 1724.08 262.16 1745.96 284.039C1767.84 305.918 1816.2 320.7 1816.2 320.7C1816.2 320.7 1767.84 335.482 1745.96 357.361C1724.08 379.24 1709.3 427.6 1709.3 427.6C1709.3 427.6 1694.52 379.24 1672.64 357.361C1650.76 335.482 1602.4 320.7 1602.4 320.7C1602.4 320.7 1650.76 305.918 1672.64 284.039C1694.52 262.16 1709.3 213.8 1709.3 213.8Z" fill="#FAC480"/>
<path d="M1602.4 320.7C1602.4 379.739 1554.54 427.6 1495.5 427.6C1436.46 427.6 1388.6 379.739 1388.6 320.7C1388.6 261.661 1436.46 213.8 1495.5 213.8C1554.54 213.8 1602.4 261.661 1602.4 320.7Z" fill="white"/>
<path d="M1495.5 213.8C1495.5 213.8 1510.28 262.16 1532.16 284.039C1554.04 305.918 1602.4 320.7 1602.4 320.7C1602.4 320.7 1554.04 335.482 1532.16 357.361C1510.28 379.24 1495.5 427.6 1495.5 427.6C1495.5 427.6 1480.72 379.24 1458.84 357.361C1436.96 335.482 1388.6 320.7 1388.6 320.7C1388.6 320.7 1436.96 305.918 1458.84 284.039C1480.72 262.16 1495.5 213.8 1495.5 213.8Z" fill="#FAC480"/>
<path d="M1388.6 320.7C1388.6 379.739 1340.74 427.6 1281.7 427.6C1222.66 427.6 1174.8 379.739 1174.8 320.7C1174.8 261.661 1222.66 213.8 1281.7 213.8C1340.74 213.8 1388.6 261.661 1388.6 320.7Z" fill="white"/>
<path d="M1281.7 213.8C1281.7 213.8 1296.48 262.16 1318.36 284.039C1340.24 305.918 1388.6 320.7 1388.6 320.7C1388.6 320.7 1340.24 335.482 1318.36 357.361C1296.48 379.24 1281.7 427.6 1281.7 427.6C1281.7 427.6 1266.92 379.24 1245.04 357.361C1223.16 335.482 1174.8 320.7 1174.8 320.7C1174.8 320.7 1223.16 305.918 1245.04 284.039C1266.92 262.16 1281.7 213.8 1281.7 213.8Z" fill="#FAC480"/>
<path d="M1174.8 320.7C1174.8 379.739 1126.94 427.6 1067.9 427.6C1008.86 427.6 961 379.739 961 320.7C961 261.661 1008.86 213.8 1067.9 213.8C1126.94 213.8 1174.8 261.661 1174.8 320.7Z" fill="white"/>
<path d="M1067.9 213.8C1067.9 213.8 1082.68 262.16 1104.56 284.039C1126.44 305.918 1174.8 320.7 1174.8 320.7C1174.8 320.7 1126.44 335.482 1104.56 357.361C1082.68 379.24 1067.9 427.6 1067.9 427.6C1067.9 427.6 1053.12 379.24 1031.24 357.361C1009.36 335.482 961 320.7 961 320.7C961 320.7 1009.36 305.918 1031.24 284.039C1053.12 262.16 1067.9 213.8 1067.9 213.8Z" fill="#FAC480"/>
<path d="M2030 534.5C2030 593.539 1982.14 641.4 1923.1 641.4C1864.06 641.4 1816.2 593.539 1816.2 534.5C1816.2 475.461 1864.06 427.6 1923.1 427.6C1982.14 427.6 2030 475.461 2030 534.5Z" fill="white"/>
<path d="M1923.1 427.6C1923.1 427.6 1937.88 475.96 1959.76 497.839C1981.64 519.718 2030 534.5 2030 534.5C2030 534.5 1981.64 549.282 1959.76 571.161C1937.88 593.04 1923.1 641.4 1923.1 641.4C1923.1 641.4 1908.32 593.04 1886.44 571.161C1864.56 549.282 1816.2 534.5 1816.2 534.5C1816.2 534.5 1864.56 519.718 1886.44 497.839C1908.32 475.96 1923.1 427.6 1923.1 427.6Z" fill="#FAC480"/>
<path d="M1816.2 534.5C1816.2 593.539 1768.34 641.4 1709.3 641.4C1650.26 641.4 1602.4 593.539 1602.4 534.5C1602.4 475.461 1650.26 427.6 1709.3 427.6C1768.34 427.6 1816.2 475.461 1816.2 534.5Z" fill="white"/>
<path d="M1709.3 427.6C1709.3 427.6 1724.08 475.96 1745.96 497.839C1767.84 519.718 1816.2 534.5 1816.2 534.5C1816.2 534.5 1767.84 549.282 1745.96 571.161C1724.08 593.04 1709.3 641.4 1709.3 641.4C1709.3 641.4 1694.52 593.04 1672.64 571.161C1650.76 549.282 1602.4 534.5 1602.4 534.5C1602.4 534.5 1650.76 519.718 1672.64 497.839C1694.52 475.96 1709.3 427.6 1709.3 427.6Z" fill="#FAC480"/>
<path d="M1602.4 534.5C1602.4 593.539 1554.54 641.4 1495.5 641.4C1436.46 641.4 1388.6 593.539 1388.6 534.5C1388.6 475.461 1436.46 427.6 1495.5 427.6C1554.54 427.6 1602.4 475.461 1602.4 534.5Z" fill="white"/>
<path d="M1495.5 427.6C1495.5 427.6 1510.28 475.96 1532.16 497.839C1554.04 519.718 1602.4 534.5 1602.4 534.5C1602.4 534.5 1554.04 549.282 1532.16 571.161C1510.28 593.04 1495.5 641.4 1495.5 641.4C1495.5 641.4 1480.72 593.04 1458.84 571.161C1436.96 549.282 1388.6 534.5 1388.6 534.5C1388.6 534.5 1436.96 519.718 1458.84 497.839C1480.72 475.96 1495.5 427.6 1495.5 427.6Z" fill="#FAC480"/>
<path d="M1388.6 534.5C1388.6 593.539 1340.74 641.4 1281.7 641.4C1222.66 641.4 1174.8 593.539 1174.8 534.5C1174.8 475.461 1222.66 427.6 1281.7 427.6C1340.74 427.6 1388.6 475.461 1388.6 534.5Z" fill="white"/>
<path d="M1281.7 427.6C1281.7 427.6 1296.48 475.96 1318.36 497.839C1340.24 519.718 1388.6 534.5 1388.6 534.5C1388.6 534.5 1340.24 549.282 1318.36 571.161C1296.48 593.04 1281.7 641.4 1281.7 641.4C1281.7 641.4 1266.92 593.04 1245.04 571.161C1223.16 549.282 1174.8 534.5 1174.8 534.5C1174.8 534.5 1223.16 519.718 1245.04 497.839C1266.92 475.96 1281.7 427.6 1281.7 427.6Z" fill="#FAC480"/>
<path d="M1174.8 534.5C1174.8 593.539 1126.94 641.4 1067.9 641.4C1008.86 641.4 961 593.539 961 534.5C961 475.461 1008.86 427.6 1067.9 427.6C1126.94 427.6 1174.8 475.461 1174.8 534.5Z" fill="white"/>
<path d="M1067.9 427.6C1067.9 427.6 1082.68 475.96 1104.56 497.839C1126.44 519.718 1174.8 534.5 1174.8 534.5C1174.8 534.5 1126.44 549.282 1104.56 571.161C1082.68 593.04 1067.9 641.4 1067.9 641.4C1067.9 641.4 1053.12 593.04 1031.24 571.161C1009.36 549.282 961 534.5 961 534.5C961 534.5 1009.36 519.718 1031.24 497.839C1053.12 475.96 1067.9 427.6 1067.9 427.6Z" fill="#FAC480"/>
<path d="M2030 748.3C2030 807.339 1982.14 855.2 1923.1 855.2C1864.06 855.2 1816.2 807.339 1816.2 748.3C1816.2 689.261 1864.06 641.4 1923.1 641.4C1982.14 641.4 2030 689.261 2030 748.3Z" fill="white"/>
<path d="M1923.1 641.4C1923.1 641.4 1937.88 689.76 1959.76 711.639C1981.64 733.518 2030 748.3 2030 748.3C2030 748.3 1981.64 763.082 1959.76 784.961C1937.88 806.84 1923.1 855.2 1923.1 855.2C1923.1 855.2 1908.32 806.84 1886.44 784.961C1864.56 763.082 1816.2 748.3 1816.2 748.3C1816.2 748.3 1864.56 733.518 1886.44 711.639C1908.32 689.76 1923.1 641.4 1923.1 641.4Z" fill="#FAC480"/>
<path d="M1816.2 748.3C1816.2 807.339 1768.34 855.2 1709.3 855.2C1650.26 855.2 1602.4 807.339 1602.4 748.3C1602.4 689.261 1650.26 641.4 1709.3 641.4C1768.34 641.4 1816.2 689.261 1816.2 748.3Z" fill="white"/>
<path d="M1709.3 641.4C1709.3 641.4 1724.08 689.76 1745.96 711.639C1767.84 733.518 1816.2 748.3 1816.2 748.3C1816.2 748.3 1767.84 763.082 1745.96 784.961C1724.08 806.84 1709.3 855.2 1709.3 855.2C1709.3 855.2 1694.52 806.84 1672.64 784.961C1650.76 763.082 1602.4 748.3 1602.4 748.3C1602.4 748.3 1650.76 733.518 1672.64 711.639C1694.52 689.76 1709.3 641.4 1709.3 641.4Z" fill="#FAC480"/>
<path d="M1602.4 748.3C1602.4 807.339 1554.54 855.2 1495.5 855.2C1436.46 855.2 1388.6 807.339 1388.6 748.3C1388.6 689.261 1436.46 641.4 1495.5 641.4C1554.54 641.4 1602.4 689.261 1602.4 748.3Z" fill="white"/>
<path d="M1495.5 641.4C1495.5 641.4 1510.28 689.76 1532.16 711.639C1554.04 733.518 1602.4 748.3 1602.4 748.3C1602.4 748.3 1554.04 763.082 1532.16 784.961C1510.28 806.84 1495.5 855.2 1495.5 855.2C1495.5 855.2 1480.72 806.84 1458.84 784.961C1436.96 763.082 1388.6 748.3 1388.6 748.3C1388.6 748.3 1436.96 733.518 1458.84 711.639C1480.72 689.76 1495.5 641.4 1495.5 641.4Z" fill="#FAC480"/>
<path d="M1388.6 748.3C1388.6 807.339 1340.74 855.2 1281.7 855.2C1222.66 855.2 1174.8 807.339 1174.8 748.3C1174.8 689.261 1222.66 641.4 1281.7 641.4C1340.74 641.4 1388.6 689.261 1388.6 748.3Z" fill="white"/>
<path d="M1281.7 641.4C1281.7 641.4 1296.48 689.76 1318.36 711.639C1340.24 733.518 1388.6 748.3 1388.6 748.3C1388.6 748.3 1340.24 763.082 1318.36 784.961C1296.48 806.84 1281.7 855.2 1281.7 855.2C1281.7 855.2 1266.92 806.84 1245.04 784.961C1223.16 763.082 1174.8 748.3 1174.8 748.3C1174.8 748.3 1223.16 733.518 1245.04 711.639C1266.92 689.76 1281.7 641.4 1281.7 641.4Z" fill="#FAC480"/>
<path d="M1174.8 748.3C1174.8 807.339 1126.94 855.2 1067.9 855.2C1008.86 855.2 961 807.339 961 748.3C961 689.261 1008.86 641.4 1067.9 641.4C1126.94 641.4 1174.8 689.261 1174.8 748.3Z" fill="white"/>
<path d="M1067.9 641.4C1067.9 641.4 1082.68 689.76 1104.56 711.639C1126.44 733.518 1174.8 748.3 1174.8 748.3C1174.8 748.3 1126.44 763.082 1104.56 784.961C1082.68 806.84 1067.9 855.2 1067.9 855.2C1067.9 855.2 1053.12 806.84 1031.24 784.961C1009.36 763.082 961 748.3 961 748.3C961 748.3 1009.36 733.518 1031.24 711.639C1053.12 689.76 1067.9 641.4 1067.9 641.4Z" fill="#FAC480"/>
<path d="M2030 962.1C2030 1021.14 1982.14 1069 1923.1 1069C1864.06 1069 1816.2 1021.14 1816.2 962.1C1816.2 903.061 1864.06 855.2 1923.1 855.2C1982.14 855.2 2030 903.061 2030 962.1Z" fill="white"/>
<path d="M1923.1 855.2C1923.1 855.2 1937.88 903.56 1959.76 925.439C1981.64 947.318 2030 962.1 2030 962.1C2030 962.1 1981.64 976.882 1959.76 998.761C1937.88 1020.64 1923.1 1069 1923.1 1069C1923.1 1069 1908.32 1020.64 1886.44 998.761C1864.56 976.882 1816.2 962.1 1816.2 962.1C1816.2 962.1 1864.56 947.318 1886.44 925.439C1908.32 903.56 1923.1 855.2 1923.1 855.2Z" fill="#FAC480"/>
<path d="M1816.2 962.1C1816.2 1021.14 1768.34 1069 1709.3 1069C1650.26 1069 1602.4 1021.14 1602.4 962.1C1602.4 903.061 1650.26 855.2 1709.3 855.2C1768.34 855.2 1816.2 903.061 1816.2 962.1Z" fill="white"/>
<path d="M1709.3 855.2C1709.3 855.2 1724.08 903.56 1745.96 925.439C1767.84 947.318 1816.2 962.1 1816.2 962.1C1816.2 962.1 1767.84 976.882 1745.96 998.761C1724.08 1020.64 1709.3 1069 1709.3 1069C1709.3 1069 1694.52 1020.64 1672.64 998.761C1650.76 976.882 1602.4 962.1 1602.4 962.1C1602.4 962.1 1650.76 947.318 1672.64 925.439C1694.52 903.56 1709.3 855.2 1709.3 855.2Z" fill="#FAC480"/>
<path d="M1602.4 962.1C1602.4 1021.14 1554.54 1069 1495.5 1069C1436.46 1069 1388.6 1021.14 1388.6 962.1C1388.6 903.061 1436.46 855.2 1495.5 855.2C1554.54 855.2 1602.4 903.061 1602.4 962.1Z" fill="white"/>
<path d="M1495.5 855.2C1495.5 855.2 1510.28 903.56 1532.16 925.439C1554.04 947.318 1602.4 962.1 1602.4 962.1C1602.4 962.1 1554.04 976.882 1532.16 998.761C1510.28 1020.64 1495.5 1069 1495.5 1069C1495.5 1069 1480.72 1020.64 1458.84 998.761C1436.96 976.882 1388.6 962.1 1388.6 962.1C1388.6 962.1 1436.96 947.318 1458.84 925.439C1480.72 903.56 1495.5 855.2 1495.5 855.2Z" fill="#FAC480"/>
<path d="M1388.6 962.1C1388.6 1021.14 1340.74 1069 1281.7 1069C1222.66 1069 1174.8 1021.14 1174.8 962.1C1174.8 903.061 1222.66 855.2 1281.7 855.2C1340.74 855.2 1388.6 903.061 1388.6 962.1Z" fill="white"/>
<path d="M1281.7 855.2C1281.7 855.2 1296.48 903.56 1318.36 925.439C1340.24 947.318 1388.6 962.1 1388.6 962.1C1388.6 962.1 1340.24 976.882 1318.36 998.761C1296.48 1020.64 1281.7 1069 1281.7 1069C1281.7 1069 1266.92 1020.64 1245.04 998.761C1223.16 976.882 1174.8 962.1 1174.8 962.1C1174.8 962.1 1223.16 947.318 1245.04 925.439C1266.92 903.56 1281.7 855.2 1281.7 855.2Z" fill="#FAC480"/>
<path d="M1174.8 962.1C1174.8 1021.14 1126.94 1069 1067.9 1069C1008.86 1069 961 1021.14 961 962.1C961 903.061 1008.86 855.2 1067.9 855.2C1126.94 855.2 1174.8 903.061 1174.8 962.1Z" fill="white"/>
<path d="M1067.9 855.2C1067.9 855.2 1082.68 903.56 1104.56 925.439C1126.44 947.318 1174.8 962.1 1174.8 962.1C1174.8 962.1 1126.44 976.882 1104.56 998.761C1082.68 1020.64 1067.9 1069 1067.9 1069C1067.9 1069 1053.12 1020.64 1031.24 998.761C1009.36 976.882 961 962.1 961 962.1C961 962.1 1009.36 947.318 1031.24 925.439C1053.12 903.56 1067.9 855.2 1067.9 855.2Z" fill="#FAC480"/>
</g>
</svg>
