<?xml version="1.0" standalone="no"?>
<!DOCTYPE svg PUBLIC "-//W3C//DTD SVG 20010904//EN"
 "http://www.w3.org/TR/2001/REC-SVG-20010904/DTD/svg10.dtd">
<svg version="1.0" xmlns="http://www.w3.org/2000/svg"
 width="1024.000000pt" height="690.000000pt" viewBox="0 0 1024.000000 690.000000"
 preserveAspectRatio="xMidYMid meet">

<g transform="translate(0.000000,690.000000) scale(0.100000,-0.100000)"
fill="#000000" stroke="none">
<path d="M0 6486 l0 -413 30 -6 c22 -5 30 -12 30 -28 0 -18 4 -20 25 -15 24 6
25 5 25 -45 0 -45 2 -50 15 -39 11 9 12 16 5 25 -7 9 -6 16 3 24 19 15 67 -29
67 -62 0 -30 28 -43 48 -23 8 7 15 28 17 45 1 17 5 34 8 38 8 7 46 -37 47 -54
0 -11 26 -17 68 -16 6 1 12 -5 12 -13 0 -8 -8 -13 -17 -12 -10 1 -35 0 -57 0
l-39 -2 7 -42 c6 -38 5 -40 -10 -27 -15 12 -17 12 -12 -1 2 -8 25 -26 51 -40
55 -30 61 -35 52 -49 -4 -8 -15 -6 -35 4 -20 10 -36 12 -52 6 l-23 -9 28 -7
c15 -4 27 -12 27 -17 0 -6 -7 -7 -16 -4 -9 3 -27 6 -41 6 -18 0 -24 4 -19 15
4 11 -1 15 -18 15 -25 0 -51 22 -39 33 3 4 -1 7 -11 7 -10 0 -24 16 -36 43
-19 42 -12 60 14 38 11 -9 15 -6 20 11 9 35 7 90 -3 84 -5 -4 -12 0 -15 6 -3
7 -3 -4 0 -24 7 -43 -2 -47 -37 -19 -16 13 -23 29 -24 52 0 25 -4 33 -15 30
-8 -2 -30 -4 -47 -3 -18 0 -33 -3 -33 -7 0 -14 83 -101 97 -101 7 0 13 -5 13
-11 0 -7 -9 -9 -22 -5 -13 3 -29 6 -35 6 -7 0 -13 11 -13 25 0 23 -2 24 -20
15 -22 -12 -26 -35 -7 -44 9 -5 9 -7 -1 -12 -9 -4 -12 -112 -12 -488 l0 -482
38 -12 37 -11 -37 4 c-32 3 -38 1 -38 -16 0 -14 7 -19 25 -19 14 0 25 -4 25
-10 0 -5 -11 -10 -25 -10 l-25 0 1 -139 c0 -123 2 -140 17 -144 16 -4 15 -5 0
-6 -17 -1 -18 -17 -18 -192 l0 -191 27 5 c35 6 73 -11 73 -34 0 -24 -10 -28
-39 -18 -19 8 -21 12 -11 24 10 12 9 15 -4 15 -28 0 -42 -22 -43 -67 l-2 -43
40 0 c21 0 39 5 39 10 0 6 -9 10 -20 10 -12 0 -20 7 -20 16 0 11 5 14 16 10 9
-3 20 -6 26 -6 5 0 8 -12 6 -27 -2 -16 2 -28 11 -31 10 -3 13 2 9 21 -3 16 0
28 8 31 18 7 20 -114 2 -132 -15 -15 -37 -81 -29 -86 17 -11 33 13 27 39 -5
19 -3 25 5 20 6 -5 8 -20 5 -39 -4 -17 -6 -40 -6 -51 0 -11 -5 -38 -11 -60
-21 -75 -19 -71 -29 -56 -7 12 -15 12 -42 3 -18 -6 -24 -11 -13 -10 36 1 63
-13 69 -35 11 -42 8 -44 -44 -39 -30 3 -50 1 -50 -6 0 -14 34 -25 38 -13 2 6
12 11 23 11 22 0 24 -28 8 -100 -6 -25 -12 -70 -12 -100 -2 -52 -3 -55 -26
-52 -15 2 -21 0 -17 -7 4 -6 14 -11 22 -11 8 0 14 -4 14 -10 0 -5 -11 -10 -25
-10 l-25 0 0 -1327 0 -1326 238 6 c130 4 1444 10 2919 14 2515 6 2683 5 2683
-11 0 -23 -15 -27 -148 -36 l-117 -8 122 2 c119 3 159 -3 133 -19 -6 -4 -309
-9 -673 -12 -364 -3 -675 -9 -692 -14 l-30 -9 32 5 c53 7 1756 7 1776 -1 15
-5 18 -17 16 -68 -1 -33 -8 -71 -15 -83 -8 -13 -17 -81 -24 -175 -5 -84 -13
-177 -16 -205 -4 -33 -2 -53 4 -53 13 0 20 43 27 190 4 69 16 164 26 212 10
48 19 106 19 128 0 33 4 42 23 50 l22 9 -22 0 c-46 2 -69 23 -37 35 8 3 13 2
10 -2 -2 -4 182 -7 409 -7 227 0 408 3 403 6 -6 4 -155 8 -332 9 -316 1 -378
3 -526 17 -41 3 -82 5 -92 4 -21 -3 -31 14 -15 26 7 6 98 6 227 2 118 -4 400
-10 625 -13 226 -4 433 -8 460 -11 28 -2 417 -8 865 -12 1040 -9 972 -8 1065
-12 l80 -3 -50 -13 c-48 -12 -48 -18 0 -28 58 -11 -690 -15 -815 -4 -65 6
-115 -2 -100 -16 3 -3 286 -7 630 -10 344 -3 632 -8 642 -12 22 -9 33 -201 23
-400 -7 -141 -7 -145 13 -145 22 0 23 8 42 375 9 168 36 367 39 280 2 -68 21
-79 21 -12 0 31 5 57 10 57 6 0 10 -20 10 -45 0 -35 3 -43 15 -39 11 5 15 22
15 70 0 57 3 67 28 92 28 29 36 30 127 12 28 -5 71 -12 98 -14 l47 -6 0 3065
0 3065 -3070 0 c-1688 0 -3070 -4 -3070 -8 0 -15 216 -107 288 -123 53 -11 70
-28 30 -30 -16 -1 -12 -4 12 -9 19 -5 38 -6 42 -4 4 3 21 -2 37 -11 17 -8 39
-15 49 -15 10 0 27 -9 38 -21 13 -14 25 -18 42 -14 16 4 31 0 43 -11 10 -9 25
-14 33 -11 9 4 18 2 21 -4 12 -19 81 -47 133 -54 28 -4 52 -11 52 -16 0 -5 7
-9 15 -9 8 0 23 -4 33 -9 9 -6 41 -17 71 -27 29 -9 73 -29 96 -45 25 -17 56
-29 74 -29 17 0 55 -13 84 -29 28 -16 73 -33 100 -36 26 -4 58 -16 71 -26 13
-11 32 -19 43 -19 36 0 61 -12 66 -31 4 -13 14 -19 35 -19 17 0 34 -4 37 -10
9 -14 -28 -12 -72 4 -21 7 -56 18 -78 24 -102 27 -128 37 -133 54 -2 10 -8 15
-13 12 -5 -3 -9 -1 -9 4 0 10 -48 22 -106 27 -17 2 -52 10 -78 19 -26 9 -56
16 -67 16 -12 0 -42 14 -67 31 -29 20 -54 29 -69 26 -13 -2 -26 0 -29 4 -3 5
-18 9 -34 9 -16 0 -35 6 -42 13 -7 7 -21 16 -30 20 -10 3 -18 11 -18 17 0 5
-11 10 -24 10 -13 0 -40 7 -60 15 -20 8 -36 13 -36 10 0 -3 -17 4 -37 15 -55
29 -99 26 -140 -10 l-34 -30 33 0 c25 0 29 -3 20 -12 -9 -9 -24 -8 -67 6 -30
11 -52 23 -49 28 3 4 -9 8 -26 8 -16 0 -38 4 -48 9 -9 5 -39 17 -67 27 -27 9
-54 23 -60 30 -10 12 -44 20 -120 29 -22 3 -43 12 -48 20 -4 8 -15 15 -22 15
-8 0 -15 4 -15 8 0 15 -49 32 -90 32 -26 0 -39 4 -37 12 1 7 -14 15 -38 18
-22 4 -54 14 -72 23 -18 9 -46 17 -63 17 -20 0 -30 5 -30 15 0 8 -10 17 -22
19 -13 3 -36 8 -53 12 -16 5 -832 9 -1812 11 l-1782 3 -1 -414z m8528 393 c-2
-6 -7 -10 -11 -10 -4 1 -15 1 -24 2 -15 0 -15 2 2 9 28 12 37 12 33 -1z
m-4194 -8 c4 -5 -3 -7 -14 -4 -23 6 -26 13 -6 13 8 0 17 -4 20 -9z m186 -11
c0 -12 -8 -12 -35 0 -18 8 -17 9 8 9 15 1 27 -3 27 -9z m-3960 -26 c0 -8 -5
-12 -10 -9 -6 4 -8 11 -5 16 9 14 15 11 15 -7z m4020 -4 c0 -5 -4 -10 -10 -10
-5 0 -10 5 -10 10 0 6 5 10 10 10 6 0 10 -4 10 -10z m-4473 -16 c-3 -3 -12 -4
-19 -1 -8 3 -5 6 6 6 11 1 17 -2 13 -5z m4380 0 c-3 -3 -12 -4 -19 -1 -8 3 -5
6 6 6 11 1 17 -2 13 -5z m233 -30 c27 -13 54 -24 59 -24 6 0 13 -5 17 -11 8
-13 -24 -5 -79 22 -21 9 -51 21 -67 24 -17 4 -33 11 -36 17 -10 15 47 1 106
-28z m-4567 19 c-7 -2 -19 -2 -25 0 -7 3 -2 5 12 5 14 0 19 -2 13 -5z m8234
-9 c-3 -3 -12 -4 -19 -1 -8 3 -5 6 6 6 11 1 17 -2 13 -5z m-3834 -11 c-7 -2
-19 -2 -25 0 -7 3 -2 5 12 5 14 0 19 -2 13 -5z m87 -39 c0 -2 -9 0 -20 6 -11
6 -20 13 -20 16 0 2 9 0 20 -6 11 -6 20 -13 20 -16z m-4255 -14 l20 -9 -20 1
c-11 0 -31 4 -45 8 l-25 8 25 0 c14 0 34 -3 45 -8z m4499 -11 c5 -4 -8 -3 -30
2 -21 6 -41 13 -44 16 -9 9 65 -9 74 -18z m-4586 -19 c-15 -23 -28 -26 -28 -7
0 17 10 27 27 27 11 0 11 -4 1 -20z m111 -10 c66 -12 71 -12 71 0 0 6 -19 11
-42 11 -24 1 -35 3 -24 6 10 3 38 2 62 -2 43 -6 44 -7 44 -46 0 -33 -3 -39
-22 -41 -36 -2 -72 3 -83 12 -5 4 -30 11 -55 16 l-45 8 35 6 35 7 -32 12 c-34
13 -47 37 -15 27 9 -3 41 -10 71 -16z m-285 -56 c7 -19 -1 -34 -19 -34 -18 0
-26 25 -12 39 15 15 24 14 31 -5z m4471 -54 c5 -15 15 -20 40 -20 20 0 35 -6
39 -15 3 -8 12 -12 20 -9 8 3 17 -2 20 -13 5 -15 23 -22 81 -32 75 -12 96 -24
77 -43 -7 -7 -22 -6 -46 2 -29 9 -40 9 -52 -1 -13 -11 -15 -10 -12 7 2 15 -3
20 -27 22 -16 1 -39 7 -50 11 -11 5 -33 14 -50 19 -16 6 -39 14 -50 18 -11 4
-24 8 -30 8 -16 1 -18 48 -3 57 21 14 36 10 43 -11z m478 13 c-7 -2 -19 -2
-25 0 -7 3 -2 5 12 5 14 0 19 -2 13 -5z m-4973 -18 c0 -8 -4 -15 -10 -15 -5 0
-10 7 -10 15 0 8 5 15 10 15 6 0 10 -7 10 -15z m330 5 c-8 -5 -19 -10 -25 -10
-5 0 -3 5 5 10 8 5 20 10 25 10 6 0 3 -5 -5 -10z m-124 -18 c-10 -2 -22 0 -28
6 -6 6 0 7 19 4 21 -5 23 -7 9 -10z m164 8 c-8 -5 -22 -10 -30 -10 -13 0 -13
1 0 10 8 5 22 10 30 10 13 0 13 -1 0 -10z m34 -24 c-6 -16 -24 -23 -24 -8 0
10 22 33 27 28 2 -2 1 -11 -3 -20z m4653 18 c-3 -3 -12 -4 -19 -1 -8 3 -5 6 6
6 11 1 17 -2 13 -5z m221 -25 c42 -16 22 -18 -23 -2 -25 8 -45 17 -45 20 0 4
25 -2 68 -18z m-5138 -4 c0 -11 -29 -11 -33 -1 -4 10 1 12 14 9 10 -3 19 -7
19 -8z m249 -20 c9 -2 18 -4 20 -4 2 -1 -3 -9 -12 -19 -10 -10 -14 -22 -10
-25 3 -4 -11 -7 -33 -6 -33 0 -36 2 -16 9 29 12 28 26 -5 45 l-28 16 34 -7
c18 -3 41 -8 50 -9z m-144 -15 c4 -6 -5 -10 -19 -10 -14 0 -26 5 -26 10 0 6 9
10 19 10 11 0 23 -4 26 -10z m-6 -58 c-5 -2 -16 3 -24 11 -23 24 -18 30 9 10
13 -10 20 -19 15 -21z m-56 -4 c31 -6 57 -15 57 -20 0 -4 13 -8 28 -8 16 0 37
-9 46 -19 17 -18 17 -19 -1 -23 -17 -4 -62 10 -73 22 -3 3 -25 12 -50 19 -89
27 -110 35 -110 44 0 5 10 6 23 3 12 -4 48 -12 80 -18z m122 -8 c3 -5 -1 -10
-9 -10 -8 0 -18 5 -21 10 -3 6 1 10 9 10 8 0 18 -4 21 -10z m4564 4 c17 -4 31
-13 31 -20 0 -8 10 -14 24 -14 14 0 28 -5 31 -11 4 -6 21 -10 39 -9 17 1 36 2
42 1 16 -1 25 -41 10 -41 -16 0 -74 18 -103 32 -12 6 -33 8 -48 6 -14 -3 -23
-3 -21 0 11 10 -41 40 -64 37 -14 -1 -17 0 -7 2 9 2 17 9 17 14 0 11 7 11 49
3z m-4509 -13 c0 -13 -12 -20 -26 -14 -20 8 -17 19 6 20 11 1 20 -2 20 -6z
m4860 -101 c0 -5 -6 -10 -14 -10 -8 0 -18 5 -21 10 -3 6 3 10 14 10 12 0 21
-4 21 -10z m28 -40 c18 -11 43 -20 57 -20 13 0 26 -4 30 -9 11 -19 -12 -19
-65 -1 -30 11 -63 19 -72 20 -10 0 -18 4 -18 9 0 5 -10 12 -22 14 -13 2 -6 5
17 6 24 0 53 -7 73 -19z m-4948 -40 c0 -5 -4 -10 -9 -10 -6 0 -13 5 -16 10 -3
6 1 10 9 10 9 0 16 -4 16 -10z m5345 0 c4 -6 -6 -10 -24 -10 -16 0 -33 5 -36
10 -4 6 6 10 24 10 16 0 33 -4 36 -10z m-205 -21 c0 -5 -7 -5 -17 -2 -11 4
-14 3 -9 -5 8 -14 -6 -16 -19 -3 -6 5 -19 11 -30 13 -11 3 1 5 28 5 26 0 47
-4 47 -8z m-5406 -64 c-3 -7 -12 -11 -20 -8 -17 6 -18 20 -1 26 18 6 27 -1 21
-18z m5854 0 c39 -21 43 -25 22 -25 -23 0 -90 33 -90 45 0 11 23 4 68 -20z
m-5768 1 c0 -8 -4 -18 -10 -21 -5 -3 -10 -4 -10 -1 0 2 -3 11 -6 20 -4 11 -1
16 10 16 9 0 16 -6 16 -14z m75 -16 c-3 -5 0 -10 8 -10 8 0 17 -9 20 -21 5
-19 4 -20 -12 -5 -10 9 -23 16 -29 16 -6 0 -9 7 -6 15 4 8 10 15 16 15 5 0 6
-4 3 -10z m133 -83 c4 -34 -15 -35 -28 -1 -13 34 -13 36 8 32 10 -2 18 -14 20
-31z m-228 8 c0 -8 -9 -15 -20 -15 -11 0 -20 7 -20 15 0 8 9 15 20 15 11 0 20
-7 20 -15z m80 -14 c0 -5 -11 -11 -25 -13 -24 -5 -32 2 -18 15 9 10 43 8 43
-2z m-80 -32 c0 -7 -10 -9 -25 -7 -14 3 -28 1 -31 -4 -3 -4 -10 -6 -15 -2 -5
3 -7 10 -4 15 9 13 75 11 75 -2z m50 -24 c0 -13 -4 -14 -20 -5 -11 6 -20 13
-20 15 0 3 9 5 20 5 11 0 20 -7 20 -15z m150 -5 c0 -5 -4 -10 -10 -10 -5 0
-10 5 -10 10 0 6 5 10 10 10 6 0 10 -4 10 -10z m-11 -51 c-14 -8 -59 1 -59 13
0 5 9 7 19 3 11 -3 23 -1 26 6 6 8 10 8 16 -2 4 -8 4 -16 -2 -20z m2121 -9 c0
-5 -2 -10 -4 -10 -3 0 -8 5 -11 10 -3 6 -1 10 4 10 6 0 11 -4 11 -10z m3923
-7 c-7 -2 -19 -2 -25 0 -7 3 -2 5 12 5 14 0 19 -2 13 -5z m-6059 -53 c14 -5
26 -14 26 -20 0 -15 -28 -12 -37 4 -4 8 -17 16 -28 19 -15 3 -16 5 -3 6 9 0
28 -3 42 -9z m2286 -110 c0 -5 -4 -10 -10 -10 -5 0 -10 5 -10 10 0 6 5 10 10
10 6 0 10 -4 10 -10z m-2335 -86 c24 -4 51 -37 35 -42 -6 -2 -28 6 -51 17 -22
12 -46 21 -54 21 -7 0 -17 5 -20 11 -5 7 5 8 32 3 21 -4 47 -8 58 -10z m962
-41 c8 -36 8 -50 -1 -55 -7 -5 -6 -8 5 -8 10 0 21 -19 32 -52 18 -56 16 -68
-7 -49 -9 7 -29 9 -55 5 -49 -8 -56 9 -8 22 21 7 32 16 33 29 1 16 0 16 -3 3
-5 -22 -39 -24 -47 -3 -3 8 -2 15 3 15 12 0 20 59 9 66 -11 7 -10 44 2 44 6 0
10 7 10 15 0 32 16 13 27 -32z m-167 -43 c0 -5 -2 -10 -4 -10 -3 0 -8 5 -11
10 -3 6 -1 10 4 10 6 0 11 -4 11 -10z m-53 -6 c-3 -3 -12 -4 -19 -1 -8 3 -5 6
6 6 11 1 17 -2 13 -5z m1330 -31 c-3 -10 -5 -4 -5 12 0 17 2 24 5 18 2 -7 2
-21 0 -30z m573 33 c0 -2 -7 -9 -15 -16 -13 -11 -14 -10 -9 4 5 14 24 23 24
12z m-2810 -21 c0 -8 -2 -15 -4 -15 -2 0 -6 7 -10 15 -3 8 -1 15 4 15 6 0 10
-7 10 -15z m176 -72 c-8 -23 -11 -44 -8 -48 4 -4 -11 -5 -33 -3 -38 3 -53 23
-17 23 10 0 16 8 16 18 -1 9 2 17 7 17 5 0 9 7 9 15 0 8 -5 15 -11 15 -5 0 -8
-4 -5 -9 12 -19 -21 -32 -48 -19 l-27 12 23 13 c13 7 17 12 11 13 -7 0 -13 4
-13 9 0 17 74 17 93 0 16 -14 16 -19 3 -56z m2162 49 c-22 -4 -24 -22 -3 -22
8 0 15 -4 15 -10 0 -16 -27 -11 -34 6 -8 20 12 46 28 37 7 -5 5 -9 -6 -11z
m-2328 -12 c-20 -13 -57 -13 -65 0 -4 6 11 10 37 10 31 0 39 -3 28 -10z m820
-1 c11 -8 12 -12 3 -16 -18 -7 -16 -30 3 -41 14 -8 15 -14 5 -43 -13 -41 -11
-87 5 -93 6 -2 14 -14 17 -25 5 -19 1 -21 -35 -21 -36 0 -39 -2 -33 -22 7 -22
6 -22 -11 -6 -17 16 -16 18 7 37 13 11 19 20 13 21 -5 0 -15 -5 -22 -12 -9 -9
-15 -8 -27 8 -8 10 -15 26 -15 34 0 8 -9 21 -20 28 -24 14 -28 47 -5 38 8 -3
15 -1 15 4 0 6 -11 10 -24 10 -16 0 -26 7 -30 23 -10 40 -7 47 24 47 21 0 30
5 30 16 0 13 7 15 30 11 17 -4 30 -2 30 3 0 13 21 12 40 -1z m1420 -3 c0 -3
-4 -8 -10 -11 -5 -3 -10 -1 -10 4 0 6 5 11 10 11 6 0 10 -2 10 -4z m510 -6 c0
-5 -4 -10 -10 -10 -5 0 -10 5 -10 10 0 6 5 10 10 10 6 0 10 -4 10 -10z m-20
-24 c0 -3 -4 -8 -10 -11 -5 -3 -10 -1 -10 4 0 6 5 11 10 11 6 0 10 -2 10 -4z
m-2680 -26 c20 -6 21 -8 5 -8 -11 0 -31 4 -45 8 -20 6 -21 8 -5 8 11 0 31 -4
45 -8z m1130 -30 c0 -5 -4 -10 -9 -10 -6 0 -13 5 -16 10 -3 6 1 10 9 10 9 0
16 -4 16 -10z m2134 -25 c-4 -8 -8 -15 -10 -15 -2 0 -4 7 -4 15 0 8 4 15 10
15 5 0 7 -7 4 -15z m-644 -5 c0 -5 -5 -10 -11 -10 -5 0 -7 5 -4 10 3 6 8 10
11 10 2 0 4 -4 4 -10z m-30 -30 c0 -5 -5 -10 -11 -10 -5 0 -7 5 -4 10 3 6 8
10 11 10 2 0 4 -4 4 -10z m-1465 -20 c0 -7 -6 -15 -12 -17 -8 -3 -13 4 -13 17
0 13 5 20 13 18 6 -3 12 -11 12 -18z m12 -77 c-3 -3 -11 -2 -17 2 -9 6 -9 10
1 16 14 8 27 -7 16 -18z m-50 -4 c-9 -6 -17 -19 -17 -29 0 -25 -5 -25 -31 1
l-21 21 24 -7 c12 -4 20 -4 16 0 -5 5 2 13 15 20 26 14 40 8 14 -6z m8333 -39
c0 -5 -9 -10 -21 -10 -11 0 -17 5 -14 10 3 6 13 10 21 10 8 0 14 -4 14 -10z
m66 -80 c4 -14 8 -28 9 -32 2 -5 3 -14 4 -21 1 -11 19 -13 79 -9 109 6 122 -2
122 -78 0 -45 -4 -61 -17 -69 -13 -7 -14 -12 -6 -23 9 -10 9 -26 2 -57 -7 -31
-6 -47 2 -57 8 -10 8 -14 0 -14 -6 0 -11 -7 -11 -15 0 -12 -10 -15 -47 -11
-27 2 -63 5 -82 5 -30 1 -32 3 -20 17 8 10 15 12 17 5 2 -6 13 -11 25 -10 12
0 16 3 9 6 -6 2 -10 9 -6 14 3 5 -3 9 -13 10 -10 1 2 5 26 10 28 5 51 5 63 -2
16 -9 19 -8 16 2 -3 8 -24 17 -49 21 -74 12 -88 18 -84 31 9 28 13 114 6 126
-9 15 -31 7 -31 -11 0 -6 -8 -17 -17 -24 -15 -10 -16 -15 -5 -25 12 -13 17
-49 6 -49 -4 0 -13 8 -20 18 -7 9 -14 12 -14 6 0 -6 9 -21 20 -34 29 -34 25
-40 -24 -40 -57 0 -76 8 -76 31 0 18 5 21 40 23 9 1 17 16 21 41 4 22 12 52
18 68 11 29 -1 72 -28 93 -8 6 -11 18 -8 28 5 11 1 16 -13 17 -35 2 -40 4 -40
12 0 4 0 11 0 16 0 4 27 8 59 7 55 0 60 -2 67 -26z m-6736 10 c-19 -13 -30
-13 -30 0 0 6 10 10 23 10 18 0 19 -2 7 -10z m-1715 -48 c-3 -3 -11 0 -18 7
-9 10 -8 11 6 5 10 -3 15 -9 12 -12z m2182 -74 c-3 -7 -5 -2 -5 12 0 14 2 19
5 13 2 -7 2 -19 0 -25z m-3230 -84 c-3 -3 -12 -4 -19 -1 -8 3 -5 6 6 6 11 1
17 -2 13 -5z m13 -74 c0 -5 -6 -10 -14 -10 -8 0 -18 5 -21 10 -3 6 3 10 14 10
12 0 21 -4 21 -10z m20 -50 c0 -5 -9 -10 -20 -10 -11 0 -20 5 -20 10 0 6 9 10
20 10 11 0 20 -4 20 -10z m-32 -32 c7 -7 12 -16 12 -20 0 -14 -37 -9 -50 6 -6
8 -21 17 -33 19 -12 2 -4 5 19 6 22 0 45 -4 52 -11z m9435 2 c22 -1 22 -1 -2
-14 -18 -10 -20 -14 -8 -19 8 -3 24 -3 35 -1 13 4 21 0 26 -13 3 -10 9 -24 12
-30 3 -8 -1 -13 -10 -13 -10 0 -16 9 -16 21 0 18 -2 19 -15 9 -9 -7 -13 -21
-10 -31 4 -13 -3 -20 -30 -30 -19 -7 -35 -17 -35 -21 0 -4 -7 -8 -15 -8 -12 0
-15 13 -15 60 0 47 3 60 15 60 9 0 15 9 15 21 0 15 4 19 16 15 9 -3 25 -6 37
-6z m-123 -55 c0 -9 -6 -12 -15 -9 -8 4 -12 10 -9 15 8 14 24 10 24 -6z
m-9310 -5 c12 -8 11 -10 -7 -10 -13 0 -23 5 -23 10 0 13 11 13 30 0z m-97 -17
c-7 -2 -19 -2 -25 0 -7 3 -2 5 12 5 14 0 19 -2 13 -5z m112 -20 c20 -15 19
-15 -5 -9 -14 3 -33 6 -42 6 -10 0 -18 5 -18 10 0 16 43 11 65 -7z m2555 7
c-20 -13 -40 -13 -40 0 0 6 12 10 28 10 21 0 24 -2 12 -10z m6732 -62 c-13
-13 -32 -1 -32 19 0 9 8 25 18 36 17 19 17 19 20 -13 2 -18 -1 -37 -6 -42z
m338 62 c18 -12 2 -12 -25 0 -13 6 -15 9 -5 9 8 0 22 -4 30 -9z m-7121 -54
c-3 -3 -11 5 -18 17 -13 21 -12 21 5 5 10 -10 16 -20 13 -22z m7140 21 c30
-11 34 -16 34 -47 0 -45 -19 -80 -43 -80 -13 0 -18 -7 -18 -22 1 -13 1 -38 0
-55 -2 -30 -5 -33 -36 -33 -39 0 -96 18 -96 31 0 5 5 9 11 9 8 0 8 4 1 13 -8
11 -9 44 -4 154 2 24 7 33 25 36 42 8 92 6 126 -6z m-9619 -37 c0 -5 -6 -10
-14 -10 -8 0 -18 5 -21 10 -3 6 3 10 14 10 12 0 21 -4 21 -10z m9251 -62 l-4
-43 -9 34 c-10 35 -4 66 10 57 4 -2 6 -24 3 -48z m-9261 7 c0 -9 -9 -15 -25
-15 -24 0 -32 10 -18 23 12 13 43 7 43 -8z m-30 -41 c0 -9 -5 -12 -11 -8 -7 4
-9 2 -6 -7 25 -61 30 -92 19 -109 -6 -11 -9 -26 -6 -34 3 -7 -1 -20 -8 -27
-10 -9 -13 -29 -10 -65 2 -28 -1 -60 -7 -70 -6 -11 -11 -13 -11 -6 0 7 -3 11
-7 9 -5 -3 -17 -1 -28 4 -19 7 -19 8 3 8 35 1 30 41 -5 41 -16 0 -35 5 -43 10
-11 7 -4 10 28 10 23 0 42 5 42 10 0 6 1 13 3 17 1 4 -11 11 -28 14 -27 6 -28
7 -5 8 14 1 32 5 39 10 12 8 11 13 -10 30 -21 18 -19 24 7 20 7 -1 24 22 24
31 0 3 -23 7 -51 8 -28 1 -58 7 -67 13 -13 7 1 9 50 6 38 -3 65 -1 62 4 -3 5
-11 9 -18 9 -8 0 -19 7 -26 15 -10 12 -9 16 4 21 10 4 15 12 12 20 -4 11 3 15
47 23 4 0 7 -6 7 -15z m9384 -70 c3 -8 15 -14 26 -14 11 0 20 -4 20 -9 0 -5
10 -12 23 -16 19 -7 17 -9 -15 -12 -61 -7 -122 40 -92 70 9 9 32 -3 38 -19z
m-9504 -54 c12 -8 11 -10 -5 -9 -11 1 -33 5 -50 9 l-30 8 35 1 c19 0 42 -4 50
-9z m9774 -25 c6 -11 15 -23 21 -27 22 -16 -9 -20 -65 -7 -53 11 -60 16 -60
37 0 21 4 23 46 20 35 -2 50 -8 58 -23z m-4224 -235 c10 -8 -5 -9 -50 -4 -36
4 -67 8 -69 10 -10 9 106 3 119 -6z m173 -67 c-7 -2 -19 -2 -25 0 -7 3 -2 5
12 5 14 0 19 -2 13 -5z m-107 -36 c4 -4 -2 -7 -13 -7 -12 0 -23 -4 -25 -8 -1
-5 -14 -5 -28 -1 l-25 7 28 1 c15 1 27 5 27 10 0 10 26 9 36 -2z m37 -71 c-10
-13 -19 -23 -21 -21 -7 6 19 45 29 45 5 0 2 -11 -8 -24z m3855 -15 c27 -13
118 -41 135 -41 25 0 181 -52 196 -66 18 -16 6 -34 -25 -34 -29 0 -31 -20 -5
-44 19 -17 19 -18 1 -36 -12 -12 -39 -21 -72 -24 -42 -4 -46 -3 -18 3 28 7 18
9 -48 9 -61 0 -89 4 -108 17 -15 9 -24 13 -20 7 3 -5 -3 -12 -14 -15 -11 -3
-20 -1 -20 4 0 5 -8 9 -18 9 -10 0 -28 11 -41 23 -19 21 -21 33 -20 110 l2 87
29 0 c15 0 36 -4 46 -9z m-114 -123 c-4 -29 -10 -62 -14 -73 -6 -16 -9 -13
-15 20 -6 26 -4 40 4 43 6 2 11 14 11 26 0 21 7 36 17 36 2 0 1 -24 -3 -52z
m-8487 -114 c-8 -8 -47 29 -40 39 3 4 14 -1 25 -13 11 -12 18 -24 15 -26z
m8568 -44 c4 -12 19 -22 40 -26 19 -3 34 -9 33 -13 -1 -3 4 -16 11 -29 10 -18
10 -26 0 -38 -9 -11 -8 -14 4 -14 17 0 30 27 21 42 -4 7 5 8 25 3 24 -5 31 -3
31 9 0 24 51 21 57 -3 3 -11 17 -21 32 -24 17 -4 28 -13 29 -24 5 -49 0 -268
-6 -271 -4 -1 -6 -21 -4 -45 l4 -42 -54 1 c-51 0 -68 5 -150 41 -24 10 -52 14
-76 10 -22 -2 -45 -2 -51 2 -18 11 -17 201 1 212 11 7 11 9 -1 9 -22 0 -8 190
16 208 23 17 31 15 38 -8z m-83 -138 c-1 -70 -5 -149 -9 -177 -4 -27 -7 -54
-7 -60 -1 -5 -9 -11 -20 -13 -12 -3 -17 1 -14 10 3 7 1 21 -4 31 -6 13 -5 17
7 17 15 0 15 1 1 16 -12 11 -16 35 -16 84 0 38 -5 72 -10 75 -8 5 -7 11 0 20
6 8 11 22 10 32 -4 33 0 41 23 48 12 3 17 9 10 11 -8 4 -7 10 5 23 9 10 19 16
22 14 2 -2 3 -61 2 -131z m-6564 -229 c4 -27 -5 -29 -30 -6 -24 22 -23 35 5
31 14 -2 23 -11 25 -25z m2792 -27 c0 -21 -39 -238 -65 -366 -20 -97 -23 -105
-19 -50 5 58 32 234 55 360 4 25 8 51 8 58 1 17 21 15 21 -2z m-3442 -11 c31
-4 52 -12 52 -19 0 -7 9 -21 20 -31 10 -9 19 -20 18 -24 -3 -25 5 -41 20 -41
15 0 15 2 2 11 -11 7 -5 9 25 7 22 -1 46 1 53 5 6 5 20 3 31 -3 11 -5 31 -10
45 -10 14 0 27 -6 27 -12 1 -7 2 -29 4 -48 1 -19 9 -60 18 -90 19 -64 22 -106
6 -116 -14 -8 -3 -51 20 -76 10 -10 17 -28 14 -38 -3 -10 0 -21 6 -24 30 -19
2 -92 -55 -143 -44 -39 -32 -35 -117 -38 -38 -2 -84 -6 -103 -10 -33 -6 -34
-5 -34 25 0 22 5 30 18 30 9 0 25 11 34 24 16 22 16 25 1 30 -9 4 -24 4 -34 1
-11 -4 -19 -2 -19 4 0 6 -15 11 -32 12 -18 0 -27 3 -20 6 6 2 12 18 12 34 0
16 -6 29 -12 30 -7 0 -4 5 8 11 15 7 20 16 16 34 -3 19 0 24 17 24 16 0 21 6
21 25 0 28 32 65 55 65 8 0 15 5 15 10 0 6 18 -1 40 -15 42 -27 63 -18 32 13
-13 13 -18 28 -15 44 4 21 -1 26 -35 36 -53 16 -62 15 -62 -7 0 -21 -32 -39
-38 -21 -3 8 -10 6 -21 -4 -9 -8 -34 -16 -56 -18 -52 -4 -89 30 -80 72 8 37
-18 69 -51 62 -13 -2 -24 -8 -24 -13 0 -16 -20 -9 -27 9 -3 9 -13 25 -22 35
-14 17 -14 20 3 33 10 7 24 15 30 17 8 3 7 8 -1 18 -19 20 -15 39 8 39 11 0
18 4 15 9 -8 13 45 24 57 12 8 -8 5 -11 -10 -11 -16 0 -22 -7 -25 -36 -5 -42
6 -53 23 -22 7 13 18 27 25 31 17 10 18 53 2 61 -7 3 1 4 17 1 17 -2 54 -7 83
-10z m642 -21 c0 -22 -4 -24 -42 -24 l-43 1 34 29 c38 32 51 31 51 -6z m2481
-4 c17 -16 28 -34 24 -40 -3 -5 -1 -10 5 -10 13 0 4 -102 -11 -132 -5 -9 -9
-55 -10 -102 -1 -62 -5 -91 -16 -101 -17 -17 -29 -19 -38 -5 -3 6 -15 10 -25
10 -10 0 -20 5 -22 11 -4 11 -38 2 -38 -11 0 -4 9 -10 20 -13 27 -7 25 -16 -9
-56 -21 -25 -34 -32 -49 -27 -29 9 -54 -28 -42 -60 7 -19 6 -24 -5 -24 -8 0
-15 7 -15 15 0 34 -72 41 -84 8 -4 -11 -14 -13 -32 -9 -34 9 -61 0 -67 -23 -4
-18 -57 -36 -57 -20 0 5 9 9 20 9 11 0 20 7 20 15 0 11 -12 15 -42 16 -32 1
-37 3 -20 8 l24 6 -22 20 c-12 11 -24 19 -26 18 -16 -11 -25 1 -10 12 20 15
20 15 0 15 -15 0 -16 2 -4 10 12 7 12 12 -4 28 -13 15 -14 21 -4 25 10 4 10 8
-2 16 -8 5 -11 13 -7 17 3 4 13 1 22 -6 10 -8 15 -9 15 -1 0 6 0 14 1 19 2 19
33 21 96 6 37 -9 91 -14 120 -12 29 3 50 1 47 -4 -3 -4 4 -8 14 -8 11 0 35 -2
53 -5 19 -3 28 -3 21 1 -6 3 -10 9 -7 13 2 5 -6 6 -19 4 -13 -3 -30 2 -39 11
-8 9 -33 16 -54 17 -37 1 -37 1 -10 9 16 5 35 6 42 4 9 -4 15 4 17 23 2 22 8
28 28 28 14 0 29 6 33 13 7 10 16 6 38 -19 32 -36 37 -33 14 11 -9 17 -21 30
-28 30 -7 0 -21 9 -30 21 -15 17 -17 31 -12 77 4 31 13 67 21 79 8 12 14 27
14 33 0 28 41 49 113 59 5 0 22 -12 38 -29z m-3479 -104 c-8 -67 -27 -87 -29
-29 -1 33 23 101 32 91 2 -1 0 -30 -3 -62z m88 49 c0 -8 -4 -15 -10 -15 -5 0
-10 7 -10 15 0 8 5 15 10 15 6 0 10 -7 10 -15z m858 -6 c53 -6 102 -15 109
-20 6 -6 24 -7 40 -4 25 6 26 5 11 -8 -20 -16 -23 -38 -8 -53 12 -12 -6 -64
-22 -64 -5 0 -6 -5 -3 -11 4 -6 -3 -13 -14 -16 -16 -4 -20 -11 -16 -24 5 -14
1 -19 -13 -19 -10 0 -22 -3 -25 -6 -10 -10 12 -44 27 -44 9 0 18 -23 26 -65
13 -70 8 -115 -14 -115 -7 0 -19 -7 -26 -15 -10 -12 -9 -15 5 -15 9 0 15 -6
12 -12 -2 -7 -9 -12 -15 -11 -23 5 -31 -33 -20 -94 12 -65 4 -133 -15 -133
-12 0 -41 -61 -42 -85 0 -5 -4 -13 -10 -17 -5 -4 -1 -8 11 -8 24 0 41 -30 46
-82 4 -34 1 -38 -18 -38 -18 0 -22 -5 -19 -22 3 -13 8 -24 13 -26 4 -1 6 -19
4 -40 -5 -51 -29 -66 -74 -48 -18 8 -57 17 -87 21 -30 4 -61 13 -68 20 -17 17
-17 65 0 66 29 2 50 8 61 19 8 9 6 11 -11 5 -14 -4 -23 -2 -23 4 0 6 -6 11
-12 11 -7 0 -24 9 -38 20 l-25 20 23 0 c13 0 21 4 17 9 -8 14 15 25 27 13 8
-8 17 -7 32 3 11 7 38 16 59 19 55 10 45 22 -25 32 -41 5 -53 9 -35 12 34 4
36 22 3 22 -32 0 -39 13 -43 73 -4 66 39 157 74 157 12 0 23 4 23 10 0 15 42
60 57 60 7 0 13 5 13 10 0 6 -7 10 -16 10 -14 0 -14 1 0 16 41 40 1 101 -41
62 -27 -25 -47 -19 -68 22 -15 29 -15 33 -1 49 9 10 14 21 11 24 -3 4 -2 5 2
2 3 -3 12 0 18 5 7 6 34 13 61 16 27 3 56 8 64 11 31 9 -20 25 -61 18 -25 -4
-39 -3 -39 4 0 6 -9 11 -20 11 -11 0 -20 5 -20 11 0 7 -8 18 -17 25 -16 12
-16 13 -2 14 22 0 33 54 16 81 -10 17 -9 22 6 33 19 14 23 51 7 61 -17 11 -11
25 10 25 12 0 64 -5 118 -11z m-1386 -51 c-7 -7 -12 -8 -12 -2 0 14 12 26 19
19 2 -3 -1 -11 -7 -17z m519 -1 c-13 -13 -26 -3 -16 12 3 6 11 8 17 5 6 -4 6
-10 -1 -17z m1186 6 c24 -3 43 -9 43 -14 0 -5 14 -15 30 -24 23 -12 30 -22 30
-45 0 -23 4 -30 20 -30 25 0 25 -8 1 -40 -11 -14 -31 -25 -48 -26 -15 -1 -28
-3 -28 -4 0 -8 -123 -25 -135 -19 -8 5 -28 14 -44 19 -23 8 -26 13 -16 24 6 8
10 20 9 28 -5 37 2 46 41 52 34 5 40 10 40 31 0 17 6 25 18 26 9 0 2 6 -16 13
-18 6 -30 15 -26 19 5 4 15 5 23 2 8 -3 34 -9 58 -12z m-1720 -83 c-1 -27 -5
-50 -9 -50 -12 0 -9 -45 3 -57 6 -6 9 -16 5 -21 -8 -13 -65 -21 -72 -10 -3 4
6 33 20 63 14 29 26 58 26 64 0 14 19 61 24 61 3 0 4 -22 3 -50z m2367 -9 c17
-7 26 -7 30 2 3 8 7 9 13 2 4 -5 17 -12 28 -13 11 -2 27 -10 35 -18 9 -7 25
-11 37 -8 15 4 23 0 28 -15 3 -12 11 -21 16 -21 5 0 9 -14 9 -31 0 -19 4 -28
11 -24 6 4 8 13 5 21 -3 8 0 13 7 11 6 -1 13 8 15 21 5 35 40 43 117 27 70
-15 83 -20 72 -31 -4 -4 -14 -1 -22 6 -13 11 -19 10 -33 -4 -16 -16 -16 -17 0
-14 9 2 18 -1 20 -7 4 -14 -52 -19 -65 -6 -17 17 -67 13 -74 -4 -7 -19 -5 -22
30 -30 23 -6 27 -4 28 16 2 24 2 24 6 2 3 -14 12 -23 22 -23 32 0 81 12 76 19
-2 4 0 13 6 21 7 13 9 12 9 -2 0 -10 5 -18 10 -18 6 0 10 14 10 30 0 17 5 30
10 30 16 0 24 -30 11 -43 -16 -16 -14 -27 7 -27 13 0 24 -14 35 -41 15 -37 15
-43 1 -64 -8 -13 -22 -26 -31 -29 -9 -4 -13 -9 -10 -12 3 -4 -3 -15 -14 -27
-10 -11 -19 -27 -19 -34 0 -7 -4 -13 -10 -13 -5 0 -10 -7 -10 -16 0 -13 -7
-15 -36 -10 -19 4 -42 10 -50 13 -10 4 -14 -2 -14 -21 0 -20 5 -26 23 -27 19
-1 18 -2 -7 -9 -18 -6 -36 -5 -48 1 -11 6 -22 8 -25 5 -4 -3 -11 4 -18 17 -6
12 -19 21 -28 19 -14 -2 -17 6 -17 48 0 61 13 90 40 90 13 0 20 7 20 20 0 16
7 20 30 20 17 0 30 3 30 6 0 13 -31 35 -41 28 -6 -3 -14 -1 -18 5 -5 7 -14 5
-29 -9 -11 -11 -28 -20 -35 -20 -8 0 -20 -7 -27 -15 -10 -12 -24 -14 -57 -9
-34 5 -43 3 -43 -8 0 -17 -53 -58 -75 -58 -8 0 -15 5 -15 10 0 6 8 10 17 10
13 0 14 3 5 12 -9 9 -16 7 -32 -7 -31 -28 -26 -48 9 -40 25 5 33 2 46 -19 10
-14 15 -33 11 -41 -4 -11 2 -15 20 -15 23 0 26 -4 22 -25 -4 -17 -1 -25 8 -25
8 0 14 -4 14 -10 0 -6 40 -10 100 -10 55 0 100 -4 100 -9 0 -5 4 -20 9 -33 5
-13 9 -26 10 -30 1 -4 6 -21 11 -37 6 -22 5 -31 -7 -35 -8 -3 -12 -10 -9 -15
3 -5 -3 -20 -14 -34 -15 -19 -17 -27 -8 -30 7 -2 3 -2 -9 0 -13 2 -23 -1 -23
-7 0 -18 -17 -11 -23 9 -3 15 -11 17 -33 13 -24 -4 -25 -6 -9 -12 27 -10 1
-24 -31 -16 -18 5 -24 2 -24 -10 0 -14 -1 -14 -16 0 -8 9 -22 16 -30 16 -8 0
-14 6 -14 14 0 16 -27 29 -35 16 -3 -4 1 -11 7 -14 7 -3 1 -4 -14 -3 -16 3
-26 0 -25 -7 1 -6 -9 -10 -23 -10 -26 1 -46 -16 -30 -26 5 -3 5 -12 -1 -20 -8
-13 -10 -13 -18 0 -9 12 -11 12 -17 -3 -7 -18 -34 -24 -34 -7 0 6 -7 10 -15
10 -8 0 -15 -9 -15 -20 0 -17 7 -20 49 -20 28 0 53 -4 56 -10 4 -6 -1 -7 -11
-3 -14 5 -16 3 -10 -13 17 -42 27 -87 22 -100 -3 -7 -1 -16 5 -19 5 -4 7 -10
4 -15 -3 -4 5 -11 18 -15 21 -7 20 -8 -8 -14 -16 -3 -28 -10 -26 -14 2 -4 1
-16 -2 -26 -4 -17 -10 -18 -40 -12 -19 5 -60 7 -92 6 -32 -2 -74 2 -94 8 -44
13 -48 14 -61 16 -5 0 -10 17 -10 36 0 28 4 35 19 35 31 0 35 19 7 32 -36 16
-32 28 8 28 19 0 38 5 42 11 3 6 -1 10 -12 9 -11 -1 -26 -2 -34 -1 -12 1 -13
3 -1 10 9 6 10 11 2 15 -26 17 -7 33 52 45 78 16 87 19 62 20 -24 1 -45 19
-45 38 0 15 54 45 65 35 5 -4 5 -1 1 6 -4 6 -13 12 -21 12 -28 0 -65 24 -65
42 0 24 17 23 32 -2 7 -11 21 -20 31 -20 17 0 17 1 3 16 -9 8 -16 19 -16 24 0
4 -8 7 -17 6 -15 -1 -18 7 -19 42 -1 30 3 42 13 42 10 0 12 -6 8 -20 -3 -11
-2 -20 3 -20 15 0 23 28 16 55 -4 16 1 29 17 44 12 11 26 18 31 15 4 -3 8 1 8
9 0 10 7 13 20 10 28 -7 54 15 39 33 -8 10 -15 11 -24 4 -14 -11 -17 -8 -29
24 -6 19 -6 19 12 3 21 -19 33 -14 26 11 -3 10 1 6 8 -8 17 -35 18 -36 28 -20
8 13 10 12 10 -2 0 -22 13 -23 30 -3 15 18 5 35 -21 35 -14 0 -19 7 -19 25 0
14 -4 25 -10 25 -5 0 -10 -7 -10 -16 0 -24 -18 -7 -25 25 -4 20 -14 31 -31 35
-19 5 -24 13 -24 36 0 38 15 46 42 20 19 -17 20 -22 8 -30 -8 -5 -12 -12 -8
-15 3 -4 16 4 28 17 l21 23 -21 3 c-17 3 -21 9 -17 27 4 23 -7 33 -39 40 -27
6 -65 39 -60 52 4 8 6 24 6 35 0 19 4 20 58 15 44 -5 110 2 129 12 1 1 13 -3
27 -8z m2268 -63 c10 -27 28 -38 28 -18 0 5 7 7 16 3 10 -4 15 -1 14 8 -4 28
0 38 15 32 9 -3 13 -8 10 -11 -3 -3 7 -19 22 -34 22 -24 25 -31 13 -38 -11 -7
-11 -11 -1 -24 7 -8 10 -20 6 -26 -7 -12 -38 23 -55 62 -8 19 -9 16 -4 -17 3
-22 10 -45 14 -50 15 -18 62 -16 76 2 12 16 13 15 14 -15 0 -20 -4 -31 -10
-27 -6 4 -10 -6 -10 -22 0 -15 -10 -39 -21 -53 -17 -22 -19 -22 -15 -5 5 18 2
20 -32 19 -20 -2 -50 0 -65 3 l-29 5 3 91 c1 51 -1 112 -4 137 -3 25 -4 36 -1
25 3 -11 10 -32 16 -47z m-3992 32 c0 -5 -4 -10 -10 -10 -5 0 -10 5 -10 10 0
6 5 10 10 10 6 0 10 -4 10 -10z m1327 -2 c52 -12 77 -35 28 -25 -18 3 -30 -2
-41 -17 -13 -19 -13 -22 3 -33 9 -7 14 -14 10 -14 -4 -1 -10 -2 -14 -3 -5 -1
-14 -5 -20 -9 -7 -5 -17 -5 -23 -2 -5 3 -10 -1 -10 -10 0 -9 5 -13 11 -9 21
12 56 -44 63 -100 8 -62 0 -102 -24 -126 -10 -10 -19 -23 -21 -29 -2 -6 -29
-19 -59 -30 -41 -15 -58 -17 -68 -8 -12 9 -11 12 5 18 16 7 16 8 -3 8 -33 1
-94 62 -88 87 4 16 0 23 -18 29 -18 5 -19 8 -7 12 25 6 33 63 13 82 -9 9 -14
10 -10 4 5 -9 0 -13 -13 -13 -12 0 -21 3 -21 8 0 15 42 33 63 26 22 -7 22 -6
3 15 -22 24 -22 23 21 40 19 8 47 10 71 6 l39 -6 12 55 c14 63 15 63 98 44z
m2433 -4 c0 -3 -5 -24 -11 -48 -10 -40 -13 -43 -60 -52 -54 -12 -64 -8 -65 21
-1 11 -3 31 -5 45 -4 24 -2 25 40 23 24 -1 52 -9 62 -19 18 -16 19 -16 19 9 0
15 5 27 10 27 6 0 10 -3 10 -6z m-2280 -16 c0 -7 -7 -22 -15 -32 -8 -11 -15
-29 -15 -41 0 -12 -3 -25 -7 -29 -4 -3 -6 -29 -4 -56 1 -28 -2 -50 -7 -50 -5
0 -8 -10 -8 -21 1 -12 -5 -24 -13 -27 -12 -4 -13 10 -7 84 3 48 11 91 18 95 6
4 8 14 5 22 -3 9 -1 18 6 20 9 3 9 8 0 18 -20 21 -15 29 17 29 18 0 30 -5 30
-12z m2797 -24 c-3 -3 -12 -4 -19 -1 -8 3 -5 6 6 6 11 1 17 -2 13 -5z m-51
-34 c33 0 33 -1 17 -19 -9 -11 -21 -17 -26 -14 -5 3 -4 -4 2 -15 6 -11 11 -29
11 -39 0 -15 -2 -16 -10 -3 -5 8 -10 11 -11 5 -1 -5 -4 6 -8 25 -4 23 -14 38
-28 45 -33 14 -39 37 -7 25 14 -6 41 -10 60 -10z m-1659 -14 c-3 -8 -1 -17 6
-19 9 -3 9 -7 0 -17 -15 -16 -36 -3 -28 18 3 8 0 19 -7 24 -9 5 -5 8 11 8 16
0 21 -4 18 -14z m1853 -18 c0 -5 -7 -8 -15 -8 -8 0 -15 -4 -15 -10 0 -5 9 -10
20 -10 20 0 24 -12 21 -57 -1 -11 3 -24 9 -28 5 -3 8 -11 5 -16 -4 -5 4 -8 17
-6 20 2 23 -2 20 -28 -4 -38 -12 -45 -48 -48 -29 -2 -29 -2 -26 48 1 28 5 68
8 90 5 33 4 38 -7 28 -16 -16 -29 -17 -29 -2 0 6 -12 20 -26 32 l-26 20 22 12
c23 12 70 0 70 -17z m3049 23 c7 -5 10 -14 7 -20 -5 -7 2 -11 18 -11 25 0 66
-31 66 -49 0 -5 -6 -12 -12 -14 -7 -3 -2 -6 12 -7 14 -2 35 -4 48 -5 12 -1 25
2 28 6 3 5 -9 9 -25 9 -17 0 -31 5 -31 10 0 6 11 10 25 10 18 0 23 4 19 15 -5
11 1 15 22 15 31 0 73 -19 44 -20 -25 -1 11 -20 38 -20 23 0 22 1 25 -85 1
-46 -22 -88 -44 -82 -26 7 -33 -22 -8 -31 19 -7 19 -9 5 -21 -9 -7 -13 -17
-10 -22 9 -15 -6 -49 -22 -49 -25 0 -15 -17 15 -23 25 -5 28 -9 23 -34 -4 -17
-7 -22 -10 -12 -2 11 -12 16 -28 15 -21 -1 -24 -5 -18 -28 3 -16 1 -28 -4 -28
-19 0 -42 12 -37 20 2 4 -4 15 -15 25 -15 14 -20 15 -20 4 -1 -9 -7 -6 -19 8
-15 18 -20 20 -25 8 -3 -10 -19 -15 -47 -15 -47 0 -50 -22 -4 -30 21 -4 31
-13 36 -34 14 -52 -12 -141 -43 -149 -21 -6 -24 -27 -4 -27 12 0 13 -4 2 -25
-15 -29 -9 -84 10 -92 16 -6 19 -59 4 -68 -21 -13 -117 -18 -124 -6 -4 6 -1
11 6 11 8 1 7 4 -3 10 -14 8 -17 28 -16 115 0 58 -3 108 -6 112 -4 3 -7 -8 -7
-25 0 -29 -3 -32 -29 -32 -38 0 -43 -10 -25 -44 18 -36 18 -42 -2 -25 -13 11
-14 9 -9 -12 4 -17 1 -30 -9 -38 -9 -8 -16 -28 -16 -45 0 -17 -4 -35 -8 -41
-12 -16 -32 -16 -32 0 0 8 -6 15 -12 15 -9 0 -8 3 2 10 20 12 23 60 5 80 -7 8
-16 32 -20 53 -4 20 -15 47 -24 60 -10 12 -23 36 -30 54 -7 18 -19 38 -27 44
-8 6 -14 16 -14 21 0 6 7 5 15 -2 12 -10 18 -10 31 1 13 11 14 9 8 -17 -7 -28
-6 -29 13 -11 12 10 36 17 62 17 38 0 43 3 52 30 7 19 18 30 29 30 11 0 22 5
25 10 3 6 -3 10 -15 10 -12 0 -18 5 -15 10 3 6 17 10 30 10 19 0 23 -5 22 -24
-3 -34 17 -37 21 -3 2 15 9 27 17 27 10 0 9 7 -4 33 -14 27 -15 55 -10 192 7
170 8 178 27 213 13 23 46 29 71 13z m-5024 -11 c7 -12 -12 -40 -26 -40 -10 0
-12 34 -2 43 9 10 21 9 28 -3z m4908 -37 c-1 -27 -2 -123 -2 -215 l-1 -166
-30 14 c-33 17 -36 24 -18 42 7 7 8 12 4 12 -5 0 -3 7 4 15 10 12 9 16 -4 21
-22 8 -20 21 4 29 26 8 26 41 0 48 -13 3 -18 11 -15 26 2 12 5 53 6 91 2 61 4
70 21 70 10 0 18 5 18 10 0 6 -5 10 -10 10 -6 0 -5 8 2 20 19 30 23 25 21 -27z
m-5003 33 c0 -11 -19 -15 -25 -6 -3 5 1 10 9 10 9 0 16 -2 16 -4z m360 -6 c10
-6 11 -10 3 -10 -16 0 -17 -63 -3 -91 8 -15 7 -19 -3 -19 -8 0 -17 10 -20 21
-4 15 -11 20 -22 15 -9 -3 -21 -4 -26 0 -13 8 9 44 26 44 23 0 18 26 -7 38
-22 10 -22 11 7 11 17 0 37 -4 45 -9z m-2695 -27 c37 -5 54 -16 55 -35 0 -5
-7 -8 -15 -8 -8 0 -15 -8 -15 -18 0 -10 -5 -23 -10 -28 -6 -6 -12 -24 -13 -40
-2 -18 -9 -30 -20 -32 -9 -2 -17 1 -17 7 0 6 -21 11 -50 11 -51 0 -64 12 -39
37 9 9 8 16 -5 28 -17 17 -21 43 -8 60 13 18 56 34 77 28 11 -3 38 -8 60 -10z
m2458 -87 c-6 -9 -15 -11 -30 -5 -28 10 -30 25 -3 32 11 3 20 10 20 16 0 6 -9
11 -20 11 -11 0 -20 5 -20 10 0 6 9 10 19 10 11 0 23 6 28 13 11 16 17 -68 6
-87z m-938 74 c-3 -5 -10 -10 -16 -10 -5 0 -9 5 -9 10 0 6 7 10 16 10 8 0 12
-4 9 -10z m1900 0 c3 -5 -1 -10 -10 -10 -9 0 -13 5 -10 10 3 6 8 10 10 10 2 0
7 -4 10 -10z m1035 -12 c0 -16 -3 -19 -11 -11 -6 6 -8 16 -5 22 11 17 16 13
16 -11z m-1926 -14 c3 -9 2 -12 -5 -9 -5 4 -16 1 -24 -5 -16 -14 -18 -10 -9
14 8 20 30 21 38 0z m736 -14 c0 -5 -4 -10 -10 -10 -5 0 -10 5 -10 10 0 6 5
10 10 10 6 0 10 -4 10 -10z m190 0 c-17 -11 -12 -18 17 -23 21 -3 62 -37 45
-37 -6 0 -7 -11 -3 -27 9 -35 -15 -81 -46 -89 -13 -4 -23 -10 -23 -15 0 -16
-23 -9 -72 22 -37 24 -47 36 -42 48 4 9 7 28 6 42 -2 41 57 85 118 88 13 1 13
0 0 -9z m1075 -77 c-4 -30 -9 -52 -12 -49 -3 2 -2 33 2 68 5 35 10 57 13 50 2
-7 1 -38 -3 -69z m-175 16 c0 -47 -17 -51 -47 -11 -21 28 -21 28 -1 44 30 24
48 12 48 -33z m-2780 -11 c0 -19 -2 -20 -10 -8 -13 19 -13 30 0 30 6 0 10 -10
10 -22z m1635 11 c4 -6 13 -8 21 -5 8 3 14 -1 14 -9 0 -8 9 -15 19 -15 16 0
21 -9 26 -42 6 -46 2 -104 -8 -114 -4 -4 -13 -1 -22 6 -10 8 -15 9 -15 1 0 -6
-9 -11 -20 -11 -11 0 -20 5 -20 10 0 16 -57 12 -74 -5 -13 -13 -15 -13 -21 5
-6 20 -5 137 2 156 2 7 14 9 25 6 13 -3 24 1 30 12 10 18 34 21 43 5z m-505
-14 c0 -2 -7 -5 -15 -9 -9 -3 -15 0 -15 9 0 9 6 12 15 9 8 -4 15 -7 15 -9z
m1570 5 c0 -5 -5 -10 -11 -10 -5 0 -7 5 -4 10 3 6 8 10 11 10 2 0 4 -4 4 -10z
m-5850 -10 c9 -5 19 -5 27 2 9 7 32 7 76 -1 35 -6 80 -11 100 -11 20 0 39 -5
43 -11 4 -8 8 -8 13 -1 7 12 256 -9 268 -22 4 -4 -3 -16 -14 -28 -21 -20 -25
-20 -115 -8 -51 6 -132 15 -179 18 -49 4 -93 13 -103 21 -12 10 -16 10 -16 1
0 -9 -9 -10 -32 -6 -18 4 -44 9 -57 10 -13 2 -27 10 -32 17 -17 28 -7 37 21
19z m3062 -32 c-7 -7 -12 -8 -12 -2 0 6 3 14 7 17 3 4 9 5 12 2 2 -3 -1 -11
-7 -17z m-78 -13 c-4 -8 -8 -15 -10 -15 -2 0 -4 7 -4 15 0 8 4 15 10 15 5 0 7
-7 4 -15z m142 -31 c-8 -21 -11 -17 -20 21 -7 28 -6 29 10 13 10 -10 14 -23
10 -34z m1191 40 c-3 -3 -12 -4 -19 -1 -8 3 -5 6 6 6 11 1 17 -2 13 -5z m-533
-28 c-6 -15 -24 -23 -24 -11 0 8 24 34 28 30 1 -1 0 -10 -4 -19z m341 14 c3
-6 -1 -7 -9 -4 -18 7 -21 14 -7 14 6 0 13 -4 16 -10z m-3410 -11 l20 0 -20 -9
c-16 -7 -12 -9 20 -9 45 -1 74 -14 56 -25 -16 -10 -161 -4 -168 7 -9 15 30 49
52 43 11 -3 29 -6 40 -7z m3102 -32 c-23 -34 -38 -33 -26 2 7 20 15 28 25 24
13 -5 13 -8 1 -26z m1423 1 c-1 -13 -1 -25 0 -28 16 -46 -12 -179 -31 -148
-12 19 -11 128 1 128 6 0 10 16 10 35 0 19 5 35 11 35 6 0 10 -10 9 -22z m507
5 c4 -9 1 -19 -5 -21 -7 -2 -10 -7 -7 -11 2 -5 0 -23 -5 -41 -11 -38 5 -73 22
-48 6 10 10 10 18 -2 8 -13 10 -13 10 2 0 9 8 21 18 27 16 9 16 11 -3 25 -11
8 -23 12 -27 10 -9 -6 -10 3 -2 34 l6 22 23 -24 c13 -14 26 -22 29 -19 3 4 9
-8 12 -25 6 -29 24 -46 24 -22 0 6 15 9 33 9 22 -1 26 -3 10 -6 -16 -3 -25
-15 -33 -41 -15 -54 -13 -56 20 -22 17 17 30 26 30 20 0 -6 -13 -23 -30 -37
-16 -13 -30 -31 -30 -39 0 -28 -53 -63 -95 -64 -47 0 -61 -8 -68 -35 -9 -30 3
201 14 265 5 30 9 56 9 58 0 10 22 -1 27 -15z m-4146 -3 c10 -6 19 -17 19 -25
0 -8 9 -15 20 -15 13 0 20 -7 20 -20 0 -13 7 -20 20 -20 15 0 20 -7 20 -26 0
-17 6 -28 20 -31 16 -4 18 -9 9 -25 -13 -24 -5 -48 16 -48 17 0 22 -55 5 -65
-23 -14 -7 -21 50 -20 33 0 60 -3 60 -7 0 -5 7 -8 16 -8 14 0 14 3 4 15 -7 9
-10 19 -6 22 4 4 18 -7 32 -24 17 -22 30 -30 44 -26 23 6 92 -61 84 -82 -3 -7
1 -28 9 -47 18 -42 11 -60 -48 -123 -36 -38 -48 -46 -55 -35 -7 11 -11 11 -24
1 -18 -15 -56 -5 -56 15 0 8 -15 16 -40 20 -22 4 -40 10 -40 15 0 5 4 9 10 9
5 0 6 8 3 17 -4 11 -8 12 -11 5 -7 -21 -50 -13 -70 12 -10 14 -34 27 -55 31
-21 4 -37 12 -37 17 0 6 13 8 31 4 25 -5 32 -2 36 14 3 11 9 20 13 20 5 0 6 8
3 18 -3 15 -22 22 -86 32 -64 11 -76 16 -57 22 16 5 3 6 -36 5 -45 -2 -61 0
-61 10 0 7 4 13 9 13 4 0 8 9 8 20 0 18 -11 25 -34 21 -5 -1 -16 1 -25 5 -9 4
-27 9 -40 10 -13 2 -26 5 -29 8 -13 13 12 19 68 17 l61 -2 -3 28 c-2 22 1 28
15 27 14 -2 15 1 6 12 -6 8 -18 14 -25 14 -8 0 -14 6 -14 14 0 8 -3 22 -7 31
-5 15 -3 16 16 6 22 -12 41 -8 41 9 0 5 -11 12 -25 16 -22 5 -45 30 -45 48 0
3 13 6 30 6 16 0 37 8 47 19 29 30 54 36 84 21z m-683 -35 c-1 -1 -21 0 -43 4
l-40 8 30 7 c17 4 35 9 40 10 9 3 21 -22 13 -29z m3665 10 c19 -8 37 -11 41
-8 3 4 6 -25 6 -63 0 -69 -15 -143 -28 -145 -137 -11 -147 -3 -137 107 6 64 5
74 -9 74 -16 0 -22 30 -9 43 12 12 100 7 136 -8z m-620 -23 c15 -14 17 -13 17
1 0 8 -6 18 -12 20 -10 4 -10 6 -1 6 7 1 21 -9 33 -21 11 -12 20 -16 20 -10 0
7 5 12 10 12 6 0 10 -7 10 -15 0 -8 -4 -15 -10 -15 -14 0 -12 -68 2 -72 35
-12 -64 -66 -112 -62 -8 1 -22 2 -30 3 -10 1 -20 17 -26 40 -8 30 -8 38 1 34
7 -2 15 3 19 13 4 12 2 15 -9 10 -21 -8 -20 42 1 66 19 20 57 16 87 -10z
m1510 21 c8 -8 -25 -33 -35 -27 -5 3 -8 12 -8 20 0 14 31 20 43 7z m-4096 -25
c-3 -8 -6 -5 -6 6 -1 11 2 17 5 13 3 -3 4 -12 1 -19z m2423 -7 c0 -6 -4 -13
-10 -16 -5 -3 -10 1 -10 9 0 9 5 16 10 16 6 0 10 -4 10 -9z m2330 -46 c8 -6
34 -10 58 -9 33 3 42 0 42 -12 0 -9 -9 -18 -20 -21 -35 -9 -22 -26 15 -20 19
3 35 2 35 -4 0 -5 -14 -9 -30 -9 -26 0 -29 -2 -18 -14 8 -9 17 -11 23 -5 15
15 65 10 72 -7 3 -8 12 -13 20 -10 8 3 11 1 8 -4 -3 -6 -2 -10 3 -10 12 0 32
-46 32 -73 0 -12 -8 -41 -17 -64 -13 -31 -24 -43 -46 -47 -18 -4 -26 -10 -21
-17 5 -8 -3 -10 -27 -5 -19 4 -45 7 -59 8 -14 0 -19 3 -12 5 17 7 15 38 -5 54
-9 8 -14 9 -10 2 4 -7 -5 -15 -25 -22 -43 -15 -83 -14 -98 4 -7 8 -25 15 -41
15 -16 0 -29 5 -29 10 0 6 9 10 19 10 15 0 18 5 13 23 -3 12 -12 28 -19 35 -7
8 -13 35 -13 63 0 39 3 49 16 49 22 0 43 29 44 58 0 24 -15 30 -23 10 -4 -8
-6 -7 -6 4 -1 9 5 19 12 21 19 8 90 -4 107 -18z m-5911 -25 c12 0 21 -4 21
-10 0 -12 -79 -10 -86 2 -10 16 7 28 26 18 10 -5 28 -10 39 -10z m2501 7 c0
-7 9 -19 20 -27 13 -10 20 -26 20 -48 0 -28 -3 -32 -14 -23 -11 9 -12 6 -8
-14 2 -15 0 -25 -7 -25 -9 0 -9 -5 -1 -20 12 -23 8 -26 -47 -32 -21 -3 -34 0
-37 9 -3 7 -16 13 -30 13 -14 0 -28 5 -31 10 -4 7 -13 6 -26 -1 -11 -6 -28 -7
-37 -3 -9 4 -19 8 -22 9 -29 10 -40 20 -40 38 0 20 0 20 14 2 12 -17 17 -18
39 -6 21 11 24 17 14 32 -9 15 -6 23 21 49 18 16 32 35 32 40 0 6 30 10 70 10
50 0 70 -4 70 -13z m2246 -12 c19 -23 24 -24 54 -14 44 16 52 1 44 -80 -7 -79
-30 -104 -84 -96 -54 9 -80 45 -80 110 0 61 13 105 32 105 7 0 22 -11 34 -25z
m1826 10 c0 -5 -5 -11 -11 -13 -6 -2 -11 4 -11 13 0 9 5 15 11 13 6 -2 11 -8
11 -13z m-476 -53 c-11 -10 -15 4 -8 28 l7 25 3 -23 c2 -13 1 -26 -2 -30z
m-3306 18 c0 -5 -7 -10 -15 -10 -8 0 -15 5 -15 10 0 6 7 10 15 10 8 0 15 -4
15 -10z m-1170 -25 c0 -8 -4 -15 -10 -15 -5 0 -10 7 -10 15 0 8 5 15 10 15 6
0 10 -7 10 -15z m4795 5 c3 -5 1 -10 -4 -10 -6 0 -11 5 -11 10 0 6 2 10 4 10
3 0 8 -4 11 -10z m-5905 -10 c0 -5 -4 -10 -10 -10 -5 0 -10 5 -10 10 0 6 5 10
10 10 6 0 10 -4 10 -10z m124 -12 c-33 -6 -64 -6 -85 1 -28 8 -20 9 51 9 83 0
84 -1 34 -10z m1052 -44 c-4 -12 -10 -12 -26 -4 -17 9 -20 8 -20 -7 0 -15 -2
-16 -10 -3 -15 24 -12 40 9 40 11 0 23 5 27 11 9 16 27 -18 20 -37z m194 31
c0 -8 -7 -15 -15 -15 -9 0 -12 6 -9 15 4 8 10 15 15 15 5 0 9 -7 9 -15z m2173
-61 c-3 -8 0 -14 6 -14 6 0 11 -7 11 -15 0 -8 -7 -15 -15 -15 -8 0 -15 -6 -16
-12 0 -7 -5 -2 -10 11 -5 14 -7 32 -3 40 8 18 10 26 13 56 2 16 4 14 11 -8 5
-16 6 -35 3 -43z m2354 29 c-3 -10 -5 -4 -5 12 0 17 2 24 5 18 2 -7 2 -21 0
-30z m897 25 c4 -10 7 -10 12 -1 6 13 52 3 85 -21 32 -22 66 -87 59 -113 -3
-12 -14 -32 -26 -46 l-21 -24 41 -11 c53 -14 122 -9 117 10 -23 80 -20 142 8
152 9 3 24 11 33 18 20 14 91 -1 133 -28 27 -18 42 -85 30 -131 -14 -48 -13
-51 6 -46 10 3 19 0 19 -6 0 -6 17 -11 38 -11 l39 0 9 -57 c8 -49 13 -59 31
-61 25 -4 40 -39 24 -55 -7 -7 -14 -7 -25 2 -8 7 -16 8 -19 4 -12 -20 -21 -83
-18 -131 2 -29 -2 -58 -7 -65 -6 -7 -12 -23 -14 -37 -3 -23 -6 -25 -53 -22
-32 2 -45 0 -37 -6 11 -8 11 -15 -1 -43 -14 -33 -67 -91 -67 -74 0 4 -8 1 -17
-8 -22 -19 -39 -22 -81 -12 -26 6 -34 14 -39 36 -4 20 -11 28 -22 27 -12 -2
-17 7 -19 40 -3 35 0 42 14 42 13 0 15 3 7 11 -5 5 -40 11 -76 12 -37 1 -67 6
-67 10 0 5 -5 5 -11 1 -7 -4 -1 -15 16 -29 l28 -22 -17 -45 c-18 -45 -18 -46
-73 -52 -74 -9 -96 -21 -87 -49 13 -41 5 -99 -16 -117 -35 -30 -26 -44 68
-103 18 -11 12 93 -6 112 -9 10 -10 17 -3 24 13 13 15 30 2 23 -4 -3 -6 7 -2
22 5 25 6 25 9 5 3 -19 7 -21 23 -13 10 6 19 21 19 33 0 31 13 48 38 50 11 0
19 4 16 8 -4 7 30 19 58 19 9 0 36 -18 59 -40 24 -22 46 -40 50 -40 24 0 39
-146 18 -167 -19 -19 -3 -40 35 -47 20 -4 36 -12 36 -18 0 -6 11 -8 30 -5 27
6 31 3 45 -29 17 -40 14 -126 -4 -132 -6 -2 -11 -11 -11 -19 0 -13 10 -15 59
-10 57 6 59 5 65 -18 4 -16 16 -27 34 -31 15 -4 39 -16 54 -26 27 -19 28 -19
49 1 l21 20 -21 22 c-29 32 -25 46 12 40 4 0 7 6 7 14 0 25 18 17 51 -24 24
-30 38 -39 60 -39 26 1 44 18 19 18 -5 0 -10 5 -10 11 0 6 9 9 20 6 12 -3 20
0 20 7 0 21 -180 89 -207 79 -20 -8 -15 -19 14 -32 27 -12 27 -13 7 -29 -11
-9 -26 -30 -33 -47 -13 -29 -14 -30 -24 -8 -6 15 -6 35 0 62 15 59 6 88 -31
101 -17 7 -25 14 -18 17 6 2 12 15 12 28 0 17 6 25 22 27 14 2 25 13 29 28 7
24 7 24 8 3 1 -13 5 -23 10 -23 5 0 12 -10 15 -22 10 -33 102 -108 131 -108
14 0 25 4 25 8 0 11 -72 69 -104 83 -19 9 -26 20 -26 39 0 16 -9 38 -19 51
-14 17 -17 33 -14 57 4 23 1 37 -8 44 -10 7 -9 8 6 4 16 -5 25 2 38 24 10 17
22 30 28 30 11 0 12 -13 0 -25 -5 -6 -12 -21 -16 -34 -7 -23 -6 -24 28 -18 30
5 37 2 42 -14 4 -10 10 -19 14 -19 13 0 32 -72 39 -153 4 -43 10 -76 13 -75 3
2 12 -2 20 -8 8 -6 21 -9 29 -5 17 7 25 31 10 31 -6 0 -10 9 -10 20 0 11 5 20
11 20 5 0 7 5 3 11 -4 8 -9 7 -15 -2 -8 -11 -12 -10 -24 5 -14 19 -19 54 -15
103 1 16 -3 21 -13 18 -9 -4 -13 1 -12 16 2 32 22 35 56 10 32 -24 47 -28 30
-7 -8 10 -9 16 -1 21 17 10 30 -4 30 -35 0 -16 5 -32 10 -35 22 -14 9 -27 -20
-21 -35 7 -37 3 -11 -30 l20 -25 12 22 c11 21 12 22 22 3 6 -10 13 -21 17 -24
4 -3 12 -14 18 -25 11 -19 11 -19 12 -1 0 18 1 18 20 1 11 -10 20 -24 20 -32
0 -14 23 -43 34 -43 11 0 6 61 -6 83 -11 21 -18 55 -22 102 0 11 -7 26 -13 33
-16 17 -17 33 -1 29 6 -1 34 -13 62 -27 40 -20 52 -32 54 -53 2 -20 9 -27 25
-28 15 -1 17 -3 6 -6 -12 -3 -16 -15 -15 -43 1 -39 9 -50 21 -30 3 5 12 7 20
4 10 -4 12 0 8 15 -7 28 9 27 23 -2 6 -12 19 -37 28 -54 17 -32 17 -33 -10
-58 -28 -26 -79 -35 -71 -12 2 6 8 12 13 13 5 0 17 4 27 8 21 10 23 46 2 46
-8 0 -12 6 -9 13 3 8 -2 14 -10 14 -11 0 -14 -8 -10 -31 4 -29 4 -30 -7 -8
-17 32 -29 27 -29 -12 0 -29 -3 -33 -20 -29 -14 4 -20 0 -20 -11 0 -20 -20
-23 -76 -11 -16 4 -41 6 -56 6 -20 -1 -28 4 -28 16 0 15 -2 16 -10 3 -6 -10
-6 -16 0 -18 18 -7 10 -32 -10 -32 -11 0 -20 7 -20 15 0 8 -4 15 -10 15 -5 0
-7 -7 -4 -15 4 -9 0 -15 -7 -16 -8 0 -2 -6 12 -12 15 -7 27 -16 28 -22 3 -15
12 -56 22 -97 11 -44 29 -50 30 -10 0 15 3 21 6 15 2 -7 9 -13 15 -13 9 0 7
47 -5 125 -2 12 45 8 53 -5 3 -5 19 -16 35 -24 20 -11 24 -16 13 -16 -10 0
-18 -4 -18 -10 0 -5 5 -10 10 -10 6 0 10 -6 10 -13 0 -7 9 -19 20 -27 18 -13
18 -15 3 -33 -14 -15 -15 -20 -4 -26 7 -5 22 -6 32 -4 17 5 18 13 13 84 -5 55
-3 79 5 79 6 0 11 -9 11 -20 0 -11 4 -20 10 -20 5 0 12 -11 16 -25 3 -14 10
-25 14 -25 12 0 28 -60 26 -98 -1 -17 -9 -41 -19 -52 -9 -11 -17 -24 -17 -29
0 -4 -11 -13 -24 -19 -23 -10 -24 -9 -23 15 1 14 -4 28 -11 30 -7 3 -10 -1 -6
-11 8 -20 -5 -20 -30 -1 -23 17 -40 20 -31 4 4 -6 -3 -20 -15 -32 l-23 -21
-18 22 c-10 14 -23 20 -33 16 -11 -4 -16 -1 -16 10 0 20 -33 21 -50 1 -6 -8
-19 -14 -28 -13 -10 1 -30 0 -46 0 l-29 -2 20 -23 c12 -12 24 -37 28 -54 3
-18 14 -37 22 -42 9 -5 17 -17 18 -27 1 -11 7 -29 13 -41 17 -30 -5 -42 -24
-14 -18 25 -34 27 -34 5 0 -32 -24 -6 -37 42 -8 27 -19 53 -24 58 -5 6 -9 19
-9 29 0 20 -30 80 -42 85 -5 2 -8 15 -8 29 0 19 -5 24 -22 22 -23 -2 -38 2
-95 27 -40 18 -47 18 -39 -1 3 -8 3 -15 0 -15 -2 0 -9 11 -14 25 -5 14 -14 25
-20 25 -11 0 -14 -46 -2 -53 4 -2 1 -2 -5 -1 -7 2 -13 -1 -13 -7 0 -20 21 -49
35 -49 8 0 15 -8 16 -17 0 -14 2 -13 9 4 11 28 26 29 40 4 6 -13 17 -17 30
-14 17 5 20 0 20 -27 0 -28 -2 -31 -15 -20 -8 7 -15 8 -15 2 0 -5 7 -15 16
-23 13 -10 17 -10 25 2 6 10 9 11 9 1 0 -7 5 -18 10 -25 21 -25 60 -88 60 -97
0 -14 -27 -12 -36 1 -5 8 -10 6 -16 -5 -5 -9 -22 -16 -38 -16 -23 0 -35 9 -59
46 -17 25 -31 52 -31 60 0 7 -6 14 -12 14 -7 0 -22 19 -33 43 -33 69 -58 86
-70 46 -7 -20 -12 -21 -64 -15 -35 4 -60 12 -66 22 -5 9 -21 31 -35 47 -14 17
-19 27 -12 23 10 -6 9 0 -3 23 -9 18 -20 29 -24 26 -23 -13 -22 63 1 92 11 13
-10 30 -22 17 -4 -5 -10 -48 -13 -96 l-6 -88 32 -15 c18 -8 37 -25 42 -38 6
-14 21 -23 40 -25 16 -2 37 -13 47 -24 20 -24 24 -78 7 -95 -7 -7 -12 -22 -13
-35 -1 -22 -4 -23 -66 -20 -101 4 -140 12 -140 28 0 8 -5 14 -11 14 -6 0 -9 6
-6 14 3 7 -3 26 -14 42 -13 19 -17 38 -13 57 5 24 2 29 -31 43 -21 8 -43 13
-50 10 -7 -2 -21 2 -32 10 -10 9 -12 13 -3 9 8 -4 6 2 -5 12 -23 20 -55 97
-55 132 0 16 -4 21 -14 18 -17 -7 -27 14 -19 42 4 16 1 21 -15 21 -19 0 -21
-6 -20 -59 1 -39 -5 -66 -16 -82 -21 -31 -20 -46 3 -54 10 -3 31 -16 46 -29
15 -13 45 -29 67 -37 21 -7 44 -21 50 -32 30 -57 -35 -157 -103 -157 -78 0
-94 8 -108 54 -11 39 -9 251 5 376 2 19 8 123 14 230 5 107 17 321 26 475 22
396 23 408 25 528 1 107 1 107 28 114 l26 7 -25 7 -25 7 27 1 c14 1 29 -5 32
-11z m-927 -50 c-2 -13 -4 -5 -4 17 -1 22 1 32 4 23 2 -10 2 -28 0 -40z
m-2705 26 c27 -14 29 -18 15 -26 -16 -9 -87 -1 -87 10 0 4 31 31 38 32 2 0 17
-7 34 -16z m590 -39 c14 -6 17 -19 16 -77 -1 -67 0 -71 30 -94 17 -14 47 -40
67 -59 19 -19 41 -35 48 -35 6 0 3 8 -8 16 -12 10 -15 18 -9 20 19 8 4 54 -17
54 -11 0 -20 6 -21 13 0 6 -2 17 -2 23 -1 6 -9 22 -19 37 -9 14 -17 31 -17 37
0 5 -7 10 -15 10 -8 0 -15 6 -15 14 0 35 115 -10 163 -65 41 -45 52 -49 43
-14 -5 20 -3 25 14 25 20 0 27 -14 11 -24 -5 -3 -6 -35 -3 -71 5 -68 -6 -85
-34 -48 -18 26 -28 9 -11 -19 20 -32 29 -86 15 -94 -13 -9 -40 26 -34 43 3 7
-1 10 -10 6 -17 -6 -18 -20 -2 -25 7 -3 9 -11 4 -24 -6 -13 -10 -15 -13 -6 -4
10 -9 10 -23 -3 -38 -34 -90 19 -94 98 -2 28 -11 47 -34 70 -18 17 -32 26 -32
19 0 -6 -9 -12 -20 -12 -11 0 -23 -6 -26 -14 -4 -12 -10 -12 -32 -1 -15 8 -39
18 -53 24 -29 11 -38 38 -44 133 -2 46 0 58 14 60 22 4 142 -8 163 -17z m138
5 c0 -5 -4 -10 -10 -10 -5 0 -10 5 -10 10 0 6 5 10 10 10 6 0 10 -4 10 -10z
m2007 -52 c-2 -13 -4 -3 -4 22 0 25 2 35 4 23 2 -13 2 -33 0 -45z m819 1 c1
-60 -4 -79 -17 -79 -6 0 -9 32 -8 70 2 85 24 92 25 9z m-476 45 c0 -3 -9 -17
-19 -30 -12 -16 -22 -21 -26 -14 -4 6 1 20 11 31 17 18 34 25 34 13z m-3103
-36 c-3 -8 -6 -5 -6 6 -1 11 2 17 5 13 3 -3 4 -12 1 -19z m913 2 c0 -25 -11
-25 -41 0 l-24 19 33 1 c25 0 32 -4 32 -20z m-2165 -2 c14 -6 25 -15 25 -19 0
-5 14 -6 30 -2 20 4 30 2 30 -7 0 -9 -19 -11 -77 -5 -43 4 -80 9 -82 11 -7 6
21 34 35 34 7 0 25 -5 39 -12z m-1735 -23 c0 -8 -4 -17 -10 -20 -6 -4 -10 5
-10 20 0 15 4 24 10 20 6 -3 10 -12 10 -20z m6480 10 c0 -8 -4 -15 -10 -15 -5
0 -10 7 -10 15 0 8 5 15 10 15 6 0 10 -7 10 -15z m-3390 -16 c0 -5 -7 -9 -15
-9 -8 0 -15 7 -15 15 0 9 6 12 15 9 8 -4 15 -10 15 -15z m65 11 c17 -7 14 -9
-13 -9 -20 -1 -31 3 -27 9 7 12 13 12 40 0z m-3185 -20 c0 -11 -7 -20 -15 -20
-8 0 -15 9 -15 20 0 11 7 20 15 20 8 0 15 -9 15 -20z m2540 10 c0 -5 -2 -10
-4 -10 -3 0 -8 5 -11 10 -3 6 -1 10 4 10 6 0 11 -4 11 -10z m120 0 c0 -5 -5
-10 -11 -10 -5 0 -7 5 -4 10 3 6 8 10 11 10 2 0 4 -4 4 -10z m-2338 -10 c2 -5
14 -11 28 -12 21 -2 25 -7 26 -35 0 -22 -3 -30 -9 -24 -16 16 -67 -16 -68 -42
0 -12 -3 -16 -6 -9 -2 6 -9 10 -13 7 -5 -3 -25 4 -45 15 -19 11 -49 20 -65 20
-17 0 -30 5 -30 10 0 6 14 10 30 10 36 0 109 35 117 55 6 17 30 20 35 5z m885
-12 c-3 -8 -6 -5 -6 6 -1 11 2 17 5 13 3 -3 4 -12 1 -19z m1546 8 c22 -17 22
-26 -1 -26 -9 0 -23 9 -30 20 -15 24 2 28 31 6z m2317 3 c0 -6 11 -20 25 -31
13 -10 24 -22 23 -26 -1 -4 2 -14 5 -22 3 -8 7 -24 9 -35 4 -27 38 -33 38 -7
0 20 25 32 70 32 32 0 68 -51 70 -100 3 -64 0 -91 -10 -85 -5 3 -10 2 -10 -2
0 -5 -6 -17 -12 -26 -11 -14 -19 -15 -53 -6 -22 6 -53 23 -70 39 -42 39 -57
41 -82 11 -20 -22 -29 -25 -80 -23 -31 1 -61 8 -65 15 -9 14 1 139 12 147 4 3
15 22 25 43 10 21 31 45 47 53 16 8 26 19 23 24 -4 6 3 10 14 10 12 0 21 -5
21 -11z m1235 2 c3 -5 1 -12 -5 -16 -5 -3 -10 1 -10 9 0 18 6 21 15 7z m-3295
-10 c0 -5 18 -7 40 -4 26 4 40 2 40 -6 0 -6 17 -11 39 -11 44 0 75 -25 51 -40
-12 -7 -10 -13 9 -29 16 -14 21 -26 17 -38 -5 -12 -9 -14 -14 -6 -9 14 -92 -3
-92 -19 0 -6 10 -7 23 -3 51 16 62 12 59 -20 -2 -16 -4 -58 -4 -92 l-1 -63
-51 -1 c-38 -1 -44 -3 -26 -8 19 -5 30 -21 47 -66 19 -53 22 -57 24 -30 2 17
2 43 0 60 -1 23 1 27 10 18 14 -14 -4 -126 -21 -131 -6 -2 -10 -11 -10 -20 0
-9 -11 -28 -25 -40 -20 -19 -31 -22 -57 -17 -18 4 -44 16 -57 26 -13 11 -30
19 -37 19 -7 0 -23 21 -36 48 -12 26 -24 50 -26 55 -2 4 3 7 11 7 10 0 14 8
12 25 -2 19 2 25 16 25 11 0 19 3 19 8 0 9 95 32 134 32 44 0 21 14 -27 16
-57 3 -167 21 -174 28 -15 14 16 25 81 27 38 1 80 4 92 7 22 4 22 5 7 28 -18
28 -26 30 -47 8 -14 -13 -21 -13 -51 -3 -22 8 -35 20 -35 31 0 19 -25 25 -35
8 -3 -5 -15 -10 -26 -10 -29 0 -26 48 4 59 20 8 19 9 -15 16 -42 8 -66 -1 -49
-18 16 -16 13 -58 -6 -79 -15 -17 -14 -18 33 -19 27 -1 41 -3 31 -6 -12 -3
-15 -11 -11 -28 6 -23 5 -23 -90 -24 -53 0 -98 4 -101 10 -4 5 -15 7 -26 4
-10 -4 -19 -2 -19 3 0 6 -16 9 -35 8 -44 -4 -50 5 -22 29 15 13 18 20 8 23 -7
2 -17 -1 -21 -8 -4 -7 -15 -10 -24 -7 -19 7 -21 27 -3 27 6 0 22 3 34 6 18 5
25 1 32 -17 7 -18 10 -19 10 -6 1 20 14 22 43 6 16 -9 23 -8 29 2 13 21 11 27
-8 25 -10 0 -17 5 -16 11 2 9 -6 11 -25 7 -26 -5 -30 -2 -45 37 -9 23 -14 45
-11 48 4 3 8 2 11 -4 12 -32 21 -39 37 -26 11 9 20 10 35 1 16 -8 21 -8 21 3
0 7 -5 18 -12 25 -9 9 -9 12 1 12 9 0 11 8 7 25 -4 14 -2 25 4 25 5 0 10 -6
10 -14 0 -8 7 -16 15 -20 8 -3 15 -1 15 4 0 6 9 10 20 10 11 0 20 -4 20 -10 0
-5 14 -10 30 -10 17 0 30 -4 30 -10 0 -15 52 -11 74 5 16 12 22 12 34 2 12 -9
11 -5 -2 15 -18 27 -9 45 18 35 7 -3 19 -1 27 4 18 11 29 11 29 0z m-1105 -11
c3 -5 1 -10 -4 -10 -6 0 -11 5 -11 10 0 6 2 10 4 10 3 0 8 -4 11 -10z m-30
-14 c11 -7 32 -16 46 -19 15 -4 29 -16 32 -26 6 -24 0 -31 -25 -31 -22 0 -23
-7 -2 -27 9 -10 33 -16 57 -16 26 0 32 -2 15 -4 -19 -3 -28 -10 -28 -23 0 -21
-33 -45 -78 -54 -17 -4 -32 -11 -32 -15 0 -12 -83 1 -107 16 -16 11 -34 13
-64 8 -29 -5 -40 -4 -35 4 4 6 2 9 -6 6 -7 -3 -20 -1 -28 5 -13 8 -12 11 5 25
17 14 17 16 3 11 -10 -3 -18 -1 -18 4 0 6 -10 10 -22 11 -22 1 -22 1 2 8 21 6
25 13 24 44 -1 36 16 51 31 27 5 -8 12 -7 22 1 13 11 13 14 -3 26 -16 12 -16
13 4 20 39 14 184 14 207 -1z m2188 -3 c-7 -2 -19 -2 -25 0 -7 3 -2 5 12 5 14
0 19 -2 13 -5z m3667 3 c0 -3 -4 -8 -10 -11 -5 -3 -10 -1 -10 4 0 6 5 11 10
11 6 0 10 -2 10 -4z m-7017 -45 c9 -9 9 -16 0 -29 -8 -12 -23 -17 -57 -15 -45
1 -46 0 -46 -28 0 -23 4 -29 21 -29 16 0 20 5 16 20 -4 16 0 20 19 20 21 0 29
-10 25 -32 0 -5 3 -8 8 -8 10 0 30 -44 41 -94 8 -35 8 -35 -24 -30 -17 2 -25
2 -18 -2 23 -11 12 -24 -15 -18 -48 11 -93 36 -93 50 0 8 -2 14 -4 14 -2 0
-11 3 -20 6 -12 5 -16 0 -16 -19 0 -14 5 -29 10 -32 12 -7 13 -35 2 -35 -12 0
-63 80 -57 90 3 4 14 6 25 3 22 -6 28 12 8 21 -7 3 0 3 15 -1 26 -5 28 -4 21
21 -3 15 -2 26 4 26 5 0 12 11 14 25 4 20 -1 29 -27 45 -18 11 -42 20 -54 20
-12 0 -21 6 -21 15 0 12 9 13 45 8 38 -5 44 -3 40 9 -5 13 2 14 60 3 37 -7 72
-18 78 -24z m1867 24 c0 -8 -2 -15 -4 -15 -2 0 -6 7 -10 15 -3 8 -1 15 4 15 6
0 10 -7 10 -15z m1781 -12 c-8 -15 -10 -15 -11 -2 0 17 10 32 18 25 2 -3 -1
-13 -7 -23z m-3546 7 c-3 -5 -11 -10 -16 -10 -6 0 -7 5 -4 10 3 6 11 10 16 10
6 0 7 -4 4 -10z m1831 -17 c-10 -10 -19 5 -10 18 6 11 8 11 12 0 2 -7 1 -15
-2 -18z m779 18 c7 -12 -12 -24 -25 -16 -11 7 -4 25 10 25 5 0 11 -4 15 -9z
m510 -11 c-3 -5 -13 -6 -21 -3 -12 4 -13 8 -3 14 15 9 32 2 24 -11z m198 -5
c-7 -19 -33 -20 -33 -1 0 15 20 26 32 19 4 -2 5 -10 1 -18z m3698 -81 c21 -19
25 -34 7 -34 -6 0 -9 3 -5 6 3 3 -3 14 -14 25 -10 10 -18 29 -18 42 2 21 2 22
6 1 2 -12 13 -30 24 -40z m57 3 l12 -28 -25 18 c-13 10 -25 28 -25 41 0 19 2
21 13 10 7 -7 18 -26 25 -41z m-2358 33 c0 -5 -2 -10 -4 -10 -3 0 -8 5 -11 10
-3 6 -1 10 4 10 6 0 11 -4 11 -10z m-1457 -39 c6 -24 -19 -36 -27 -14 -7 16 0
33 13 33 5 0 11 -9 14 -19z m767 -17 c0 -21 -4 -33 -10 -29 -5 3 -10 19 -10
36 0 16 5 29 10 29 6 0 10 -16 10 -36z m759 23 c6 -8 8 -17 4 -20 -3 -4 -1 -7
6 -7 9 0 11 -9 6 -29 -6 -26 -4 -29 14 -24 22 6 30 -12 9 -19 -9 -3 -10 -11
-2 -28 8 -18 6 -32 -9 -61 -11 -22 -22 -39 -26 -40 -3 0 -24 -2 -46 -4 -35 -4
-41 -1 -52 22 -29 61 -11 148 42 210 14 16 40 16 54 0z m1817 -32 c18 -14 42
-25 54 -25 18 0 19 -3 10 -20 -6 -11 -7 -20 -3 -20 5 0 13 -10 18 -22 6 -14
17 -22 28 -20 18 3 24 -13 8 -22 -5 -3 -7 -15 -4 -25 3 -10 0 -22 -6 -25 -6
-4 -11 -14 -11 -22 0 -9 -13 -27 -30 -41 -29 -24 -41 -63 -19 -63 6 0 3 -7 -5
-16 -18 -18 -36 -11 -36 15 0 29 -28 88 -44 94 -8 3 -13 14 -11 24 2 10 4 23
5 28 1 6 6 -1 11 -14 6 -14 15 -21 24 -18 10 5 16 -6 21 -39 4 -32 10 -42 17
-35 7 7 6 28 -3 68 -8 32 -15 65 -16 73 -2 8 -6 26 -10 39 -6 19 -4 22 7 16 8
-5 5 3 -6 16 -21 25 -45 65 -45 74 0 10 14 4 46 -20z m328 -2 c29 -37 47 -73
36 -73 -8 0 2 -24 23 -58 11 -16 35 1 48 35 11 30 24 29 54 -3 25 -27 25 -44
-1 -44 -8 0 -12 -5 -9 -10 4 -6 14 -9 23 -8 25 4 43 -41 38 -97 -3 -48 -5 -50
-35 -53 -47 -5 -151 29 -151 49 0 10 -7 16 -17 15 -18 -1 -20 6 -8 36 4 11 0
18 -14 23 -12 3 -21 12 -21 18 0 7 -7 25 -16 42 -8 17 -13 40 -9 55 4 18 3 21
-4 10 -8 -12 -13 -7 -26 22 -19 46 -19 61 0 28 l14 -25 1 27 c0 44 42 51 74
11z m146 -27 c0 -11 -19 -15 -25 -6 -3 5 1 10 9 10 9 0 16 -2 16 -4z m-350
-21 c0 -8 -4 -15 -10 -15 -5 0 -10 7 -10 15 0 8 5 15 10 15 6 0 10 -7 10 -15z
m-5011 -24 c-15 -5 -22 6 -14 19 6 9 10 9 16 -1 5 -8 4 -15 -2 -18z m5066 18
c4 -5 -1 -19 -10 -29 -16 -17 -15 -19 4 -29 12 -7 18 -17 15 -26 -4 -11 -2
-13 9 -10 8 4 17 -1 21 -10 3 -9 11 -13 18 -9 8 5 9 2 5 -10 -4 -10 -7 -24 -7
-32 0 -11 -9 -14 -32 -12 -30 3 -34 7 -41 48 -17 93 -16 130 3 130 5 0 12 -5
15 -11z m-2772 -18 c2 -10 1 -25 -4 -32 -6 -10 -9 -4 -9 19 0 36 5 42 13 13z
m3064 13 c-3 -3 -12 -4 -19 -1 -8 3 -5 6 6 6 11 1 17 -2 13 -5z m-6512 -13
c-7 -12 31 -25 46 -16 17 11 38 -27 32 -57 -6 -33 8 -36 82 -16 39 11 48 10
55 -2 6 -8 8 -21 5 -27 -2 -7 0 -13 5 -13 6 0 10 5 10 11 0 14 46 4 78 -17 19
-13 21 -18 11 -30 -9 -11 -9 -18 -1 -26 8 -8 7 -16 -1 -31 -9 -15 -9 -21 1
-24 6 -3 12 -13 12 -23 0 -10 9 -22 20 -25 11 -3 20 -11 20 -16 0 -6 12 -9 28
-7 23 3 27 -1 27 -22 0 -21 -6 -26 -40 -31 -22 -3 -35 -7 -29 -8 7 0 14 -10
17 -21 3 -12 14 -20 26 -20 12 0 21 -4 21 -10 0 -5 -8 -10 -17 -10 -13 0 -11
-4 7 -13 21 -11 26 -11 32 2 7 17 7 17 14 -16 3 -16 -3 -26 -18 -34 l-22 -12
22 -8 c26 -10 28 -31 7 -53 -8 -8 -15 -20 -15 -27 0 -7 -9 -22 -20 -34 -20
-21 -20 -22 -1 -39 10 -9 28 -18 39 -19 15 -1 22 -10 27 -34 7 -37 25 -54 25
-24 0 12 7 21 15 21 11 0 12 5 5 25 -7 19 -6 23 5 19 7 -3 13 -18 13 -32 -1
-56 5 -65 14 -22 5 25 9 54 8 65 0 71 2 89 17 112 12 18 18 21 25 11 6 -10 10
-10 17 2 12 18 26 6 17 -15 -3 -10 -11 -13 -18 -9 -10 6 -10 4 0 -8 10 -12 11
-33 6 -77 -7 -63 -11 -70 -32 -49 -7 7 -12 8 -12 4 0 -4 10 -16 22 -26 19 -15
21 -21 11 -43 -6 -14 -9 -34 -6 -45 2 -11 0 -23 -6 -26 -7 -5 -11 9 -11 41 -1
36 -3 44 -10 31 -13 -22 -21 -180 -9 -172 5 3 10 24 10 47 l2 42 7 -50 c4 -27
5 -63 2 -78 -4 -23 -9 -28 -31 -25 -25 3 -26 4 -23 71 1 37 -2 76 -7 85 -8 13
-10 8 -11 -25 0 -41 -1 -43 -32 -44 -31 -2 -31 -2 -5 -6 21 -3 27 -10 27 -29
0 -21 -4 -23 -24 -18 -18 4 -25 1 -29 -15 -4 -16 1 -21 27 -24 26 -3 24 -4
-11 -5 -24 -1 -43 -6 -43 -11 0 -5 -10 -11 -21 -14 -19 -5 -21 -11 -16 -41 4
-27 2 -36 -9 -36 -8 0 -14 -9 -14 -19 0 -11 -5 -23 -11 -26 -6 -4 -8 -13 -6
-20 3 -7 -10 -19 -29 -29 -42 -20 -54 -20 -54 -2 0 8 -7 17 -16 20 -8 3 -13
10 -10 15 4 5 0 11 -6 14 -9 3 -5 13 12 31 21 24 26 25 36 12 6 -9 20 -16 31
-16 27 0 38 39 15 47 -51 17 -72 30 -72 45 0 9 -4 19 -9 22 -4 3 -6 16 -4 28
2 13 0 34 -6 48 -7 18 -10 20 -10 8 -1 -10 -5 -18 -11 -18 -5 0 -10 22 -10 49
0 31 -5 51 -12 54 -10 3 -8 10 5 24 10 11 21 37 24 58 4 26 13 39 29 46 14 5
24 17 24 28 0 11 8 24 18 30 24 14 4 45 -32 49 -44 5 -59 40 -55 131 2 44 9
84 14 90 14 14 65 1 65 -16 0 -23 35 -10 38 15 4 23 0 24 -76 25 -31 1 -32 2
-26 30 4 21 1 32 -12 42 -11 7 -22 11 -27 8 -5 -3 -24 -2 -43 1 -28 6 -34 11
-34 31 0 14 5 25 10 25 20 0 10 49 -12 61 -18 9 -24 8 -34 -6 -7 -10 -20 -15
-28 -12 -8 3 -17 3 -21 -1 -4 -4 -10 -7 -13 -7 -34 -3 -81 -18 -77 -25 3 -5
12 -7 20 -4 7 3 22 1 32 -5 14 -8 9 -10 -29 -11 -27 0 -48 4 -48 8 0 5 -28 8
-62 8 -48 -1 -62 2 -60 13 1 7 -1 18 -7 25 -12 15 10 106 27 106 7 0 15 7 18
15 4 8 17 15 31 15 13 0 21 4 18 10 -3 6 3 10 14 10 14 0 21 6 21 20 0 16 6
19 35 18 19 -1 38 2 42 5 9 10 15 8 8 -2z m6150 -11 c-3 -5 -10 -10 -16 -10
-5 0 -9 5 -9 10 0 6 7 10 16 10 8 0 12 -4 9 -10z m-7221 -32 c6 -4 7 -10 3
-14 -11 -12 -36 16 -30 34 6 13 7 13 11 1 3 -7 10 -17 16 -21z m1981 -19 c4
-11 15 -19 26 -19 10 0 19 -4 19 -10 0 -5 9 -10 20 -10 25 0 27 -37 4 -55 -22
-15 -27 -135 -7 -135 7 0 13 -5 13 -11 0 -6 -9 -9 -20 -6 -11 3 -20 0 -20 -5
0 -6 -13 -8 -32 -4 -30 6 -31 5 -13 -7 29 -19 83 -20 101 -2 12 11 12 15 2 15
-8 0 -6 5 5 11 20 12 77 3 77 -12 0 -5 -5 -9 -11 -9 -14 0 -39 -25 -39 -39 0
-6 -8 -11 -17 -11 -10 0 -36 -3 -57 -7 -30 -5 -37 -3 -31 6 5 9 -2 12 -26 11
-48 -3 -62 -1 -79 10 -13 8 -12 11 5 24 19 15 19 15 -12 16 -17 0 -35 -4 -38
-10 -3 -5 0 -10 7 -10 8 0 7 -5 -4 -17 -15 -14 -21 -15 -45 -4 l-28 13 24 12
23 13 -29 6 c-29 6 -30 8 -36 74 -6 67 -5 68 25 94 17 14 39 24 48 22 8 -2 24
5 34 16 11 12 25 21 31 21 8 0 10 10 7 27 l-5 28 31 -35 c22 -24 32 -29 32
-18 0 9 -4 18 -9 20 -4 2 -12 14 -16 28 -8 25 -7 25 13 6 12 -10 24 -27 27
-37z m-3019 21 c19 -8 24 -14 17 -21 -15 -15 -70 -2 -70 16 0 18 16 19 53 5z
m4107 -17 c-7 -2 -19 -2 -25 0 -7 3 -2 5 12 5 14 0 19 -2 13 -5z m377 -3 c0
-5 -2 -10 -4 -10 -2 0 -12 -3 -20 -6 -12 -5 -15 -2 -10 10 7 17 34 22 34 6z
m60 0 c0 -5 -7 -7 -15 -4 -8 4 -15 8 -15 10 0 2 7 4 15 4 8 0 15 -4 15 -10z
m37 -5 c0 -8 -4 -15 -9 -15 -4 0 -8 -7 -8 -15 0 -10 -10 -15 -30 -15 -16 0
-30 5 -30 10 0 6 8 10 19 10 21 0 45 23 34 33 -3 4 0 7 9 7 8 0 15 -7 15 -15z
m1020 -15 c49 0 67 -30 67 -113 0 -40 2 -60 4 -44 2 15 7 27 12 27 5 0 11 10
13 23 2 12 3 7 1 -12 -2 -19 -11 -53 -21 -77 -17 -41 -21 -44 -55 -44 -30 0
-38 4 -38 18 0 14 -2 15 -10 2 -8 -13 -11 -13 -19 -1 -7 11 -10 10 -15 -5 -3
-10 -3 35 0 101 3 66 6 129 5 140 0 19 1 19 13 3 8 -10 26 -18 43 -18z m1540
-17 c-3 -10 -5 -4 -5 12 0 17 2 24 5 18 2 -7 2 -21 0 -30z m1153 28 c0 -6 -4
-13 -10 -16 -5 -3 -10 1 -10 9 0 9 5 16 10 16 6 0 10 -4 10 -9z m-3230 -26 c0
-14 -6 -25 -12 -26 -10 0 -10 -2 0 -6 6 -2 12 -11 12 -19 0 -8 5 -14 11 -14 8
0 7 -5 -2 -16 -12 -14 -14 -14 -25 0 -6 9 -24 16 -39 16 l-28 0 21 23 c12 13
22 30 22 39 0 15 12 25 33 27 4 1 7 -10 7 -24z m985 16 c3 -5 1 -12 -5 -16 -5
-3 -10 1 -10 9 0 18 6 21 15 7z m-4965 -11 c0 -5 -11 -10 -25 -10 -14 0 -25 5
-25 10 0 6 11 10 25 10 14 0 25 -4 25 -10z m1800 6 c0 -3 -4 -8 -10 -11 -5 -3
-10 -1 -10 4 0 6 5 11 10 11 6 0 10 -2 10 -4z m3602 -48 c-9 -9 -12 -4 -11 23
0 32 1 33 11 11 8 -17 8 -26 0 -34z m-4854 25 c5 -18 -10 -16 -34 2 -18 15
-18 15 5 13 14 -2 26 -9 29 -15z m-1168 -3 c0 -5 8 -10 17 -10 9 0 14 -3 10
-6 -8 -8 -47 5 -47 17 0 5 5 9 10 9 6 0 10 -4 10 -10z m1042 -39 c-4 -53 -2
-52 -64 -42 -18 3 -6 21 17 27 18 4 25 13 25 29 0 13 6 26 13 28 6 3 12 6 12
6 0 1 -2 -21 -3 -48z m3328 34 c0 -16 -9 -19 -34 -9 -25 9 -19 24 9 24 16 0
25 -6 25 -15z m3463 -7 c8 -28 2 -34 -17 -19 -8 7 -12 19 -9 27 8 21 20 17 26
-8z m-6968 2 c3 -5 -1 -10 -10 -10 -9 0 -13 5 -10 10 3 6 8 10 10 10 2 0 7 -4
10 -10z m-225 -4 c0 -2 -7 -9 -15 -16 -12 -10 -15 -10 -15 4 0 9 7 16 15 16 8
0 15 -2 15 -4z m80 -26 c0 -16 -4 -30 -9 -30 -5 0 -8 12 -6 28 4 34 4 32 10
32 3 0 5 -13 5 -30z m1361 -80 c-8 -74 -8 -74 -10 -20 -1 59 12 148 16 115 2
-11 -1 -54 -6 -95z m3214 100 c3 -5 2 -10 -4 -10 -5 0 -13 5 -16 10 -3 6 -2
10 4 10 5 0 13 -4 16 -10z m287 -16 c32 -23 39 -33 44 -75 7 -51 24 -77 24
-37 0 37 12 46 71 53 53 7 57 5 78 -20 11 -15 26 -45 33 -66 10 -36 9 -41 -11
-63 -14 -15 -18 -25 -11 -28 7 -2 1 -14 -15 -30 -28 -28 -34 -28 -112 3 -26
11 -33 20 -38 51 -4 20 -4 42 0 48 3 5 2 10 -4 10 -5 0 -18 -14 -28 -30 -9
-17 -25 -33 -35 -36 -10 -3 -25 -13 -35 -22 -14 -14 -17 -15 -21 -2 -3 8 -21
29 -39 46 -34 31 -35 33 -28 88 6 44 13 61 34 79 15 12 30 30 34 40 9 23 14
22 59 -9z m585 4 c-3 -8 -6 -5 -6 6 -1 11 2 17 5 13 3 -3 4 -12 1 -19z m-5629
-19 c-17 -10 -28 -2 -21 17 4 11 8 12 20 3 11 -10 11 -14 1 -20z m2255 -1 c-7
-58 -13 -79 -23 -73 -8 5 -5 59 6 93 8 26 20 11 17 -20z m3097 22 c0 -5 -4
-10 -9 -10 -5 0 -11 -9 -14 -21 -4 -13 -12 -19 -23 -17 -28 5 -28 27 0 34 14
3 26 10 26 15 0 5 5 9 10 9 6 0 10 -4 10 -10z m-3056 -8 c2 -4 1 -14 -3 -21
-5 -7 -6 -22 -3 -33 7 -27 22 -3 22 35 0 42 20 22 21 -21 l2 -37 6 35 7 35 8
-35 c11 -44 10 -80 -4 -94 -7 -7 -10 -4 -10 10 0 15 -2 16 -9 5 -5 -8 -7 -20
-4 -28 4 -10 -7 -13 -43 -13 -27 0 -44 4 -39 8 6 4 11 21 12 37 2 35 11 119
12 123 2 5 20 1 25 -6z m1606 -52 c8 -13 21 -28 28 -36 28 -30 4 -95 -43 -114
-14 -5 -28 -1 -47 15 -15 13 -33 25 -40 28 -10 4 -10 8 2 16 13 9 13 11 -1 11
-10 0 -19 11 -21 25 -3 13 -1 22 3 19 12 -7 58 28 59 44 0 6 5 12 11 12 5 0 7
5 3 11 -13 21 30 -9 46 -31z m880 28 c0 -19 -18 -43 -25 -36 -4 3 -2 16 5 27
12 24 20 27 20 9z m-4440 -8 c-25 -4 -49 -4 -54 1 -6 5 12 8 45 8 l54 -2 -45
-7z m5254 -16 c5 -14 3 -38 -10 -86 -5 -17 -20 -18 -41 -5 -14 9 -17 64 -7 91
8 21 50 21 58 0z m1779 -10 c-3 -8 -11 -13 -18 -10 -15 5 -28 -20 -19 -35 4
-6 10 -6 18 0 15 13 27 4 20 -14 -3 -7 -1 -16 5 -20 7 -3 8 0 5 9 -11 29 13
16 37 -19 23 -34 39 -44 39 -26 0 22 -26 78 -47 101 l-23 25 32 7 c35 7 48 -3
41 -31 -5 -19 27 -101 39 -101 5 0 8 4 8 9 0 6 9 9 20 8 11 -1 20 -5 20 -9 0
-4 7 -8 15 -8 8 0 15 -4 15 -10 0 -5 9 -10 20 -10 17 0 19 -5 15 -30 -4 -22
-2 -28 8 -24 10 4 13 -3 9 -28 -5 -35 11 -30 22 7 3 11 3 -13 1 -54 -2 -41 -9
-79 -15 -85 -7 -7 -10 -6 -10 4 0 9 -4 8 -14 -5 -12 -16 -16 -17 -30 -6 -9 7
-16 19 -16 25 0 6 -8 19 -19 28 -10 8 -21 22 -24 29 -3 11 -10 8 -26 -8 -12
-13 -27 -23 -33 -23 -13 0 -48 29 -48 40 0 5 -12 21 -27 38 -16 16 -35 45 -44
63 -9 19 -22 46 -29 61 -7 14 -10 31 -6 36 3 6 1 14 -4 17 -6 4 -10 19 -8 33
2 21 10 28 33 33 37 6 46 3 38 -17z m-5193 -13 c0 -5 -9 -7 -20 -4 -11 3 -20
7 -20 9 0 2 9 4 20 4 11 0 20 -4 20 -9z m5768 -43 c2 -26 -2 -61 -7 -80 -10
-29 -10 -26 -6 25 4 46 2 57 -10 57 -15 0 -21 31 -8 44 16 15 28 -3 31 -46z
m-3201 10 c-3 -7 -5 -2 -5 12 0 14 2 19 5 13 2 -7 2 -19 0 -25z m-4085 -2 c4
-6 0 -19 -9 -28 -10 -11 -12 -18 -5 -18 7 0 12 6 13 13 0 6 4 2 9 -11 12 -28
2 -79 -16 -86 -8 -3 -14 -12 -14 -21 0 -8 -4 -15 -10 -15 -5 0 -10 -7 -10 -16
0 -13 -3 -14 -15 -4 -8 6 -19 9 -24 5 -15 -9 -45 10 -65 41 -17 25 -17 27 3
48 24 26 26 36 7 36 -11 0 -11 6 2 35 16 34 17 35 72 33 30 -1 58 -7 62 -12z
m1518 -5 c0 -6 -5 -13 -10 -16 -14 -9 -52 4 -45 16 8 12 55 12 55 0z m4110
-51 c0 -33 -2 -60 -5 -60 -4 0 -35 67 -35 77 0 2 5 1 10 -2 6 -4 10 5 10 19 0
14 5 26 10 26 6 0 10 -27 10 -60z m-4064 33 c-2 -24 -18 -34 -33 -21 -10 8
-10 14 -2 24 16 20 37 17 35 -3z m442 6 c-2 -6 -8 -10 -13 -10 -5 0 -11 4 -13
10 -2 6 4 11 13 11 9 0 15 -5 13 -11z m938 0 c3 -6 0 -15 -7 -20 -11 -7 -10
-11 6 -24 20 -15 19 -16 -5 -13 -20 2 -26 9 -28 36 -2 23 1 32 12 32 8 0 18
-5 22 -11z m2462 -22 c2 -10 -3 -17 -12 -17 -18 0 -29 16 -21 31 9 14 29 6 33
-14z m-5101 7 c-3 -3 -12 -4 -19 -1 -8 3 -5 6 6 6 11 1 17 -2 13 -5z m5130
-16 c-3 -8 -6 -5 -6 6 -1 11 2 17 5 13 3 -3 4 -12 1 -19z m1123 6 c0 -16 -5
-17 -37 -8 -33 9 -28 21 7 22 20 0 30 -4 30 -14z m424 -46 c3 -16 3 -28 -2
-28 -10 0 -32 57 -24 65 8 8 19 -6 26 -37z m-1829 22 c3 -5 -3 -10 -15 -10
-12 0 -18 5 -15 10 3 6 10 10 15 10 5 0 12 -4 15 -10z m-5918 -6 c-3 -3 -12
-4 -19 -1 -8 3 -5 6 6 6 11 1 17 -2 13 -5z m7346 -22 c9 -8 17 -28 17 -44 0
-27 1 -28 16 -13 26 26 44 1 44 -60 0 -39 -4 -52 -15 -52 -9 0 -15 10 -15 24
0 33 -20 29 -21 -4 -1 -21 -2 -23 -6 -8 -3 11 -11 27 -19 35 -7 9 -16 36 -20
60 -4 25 -14 50 -22 56 -8 6 -12 16 -8 23 8 12 19 8 49 -17z m-8049 -4 c21
-30 7 -46 -15 -17 -10 13 -19 27 -19 32 0 15 19 6 34 -15z m2576 12 c0 -5 -4
-10 -10 -10 -5 0 -10 5 -10 10 0 6 5 10 10 10 6 0 10 -4 10 -10z m607 -16 c10
-1 77 -5 148 -9 140 -8 212 -27 121 -33 -26 -2 -61 1 -77 7 -16 5 -29 6 -29 1
0 -15 23 -24 55 -22 16 1 37 -3 45 -8 11 -7 6 -10 -22 -10 -21 0 -38 -4 -38
-9 0 -4 -23 -6 -52 -3 -50 5 -52 4 -35 -13 10 -10 26 -15 38 -12 19 5 20 1 18
-51 -2 -31 1 -65 5 -74 5 -11 4 -18 -3 -18 -6 0 -10 3 -10 8 4 25 -4 22 -17
-7 -11 -26 -12 -36 -3 -42 8 -5 2 -17 -21 -37 -36 -34 -61 -41 -105 -31 -24 5
-27 7 -12 13 9 5 24 6 32 3 29 -12 25 12 -8 45 -43 41 -49 62 -38 121 9 51 9
52 -19 37 -16 -8 -18 -8 -14 5 4 8 16 16 28 16 20 2 20 2 -1 6 -38 7 -26 23
17 23 25 0 40 -5 41 -12 0 -10 2 -10 6 0 2 6 11 12 19 12 32 0 11 16 -22 17
-61 2 -124 14 -124 24 0 5 16 9 35 9 19 0 35 5 35 10 0 6 -9 10 -19 10 -11 0
-23 5 -26 10 -3 6 -1 10 4 10 6 0 11 8 11 18 0 14 2 15 10 2 5 -8 17 -16 27
-16z m-1347 6 c0 -5 -2 -10 -4 -10 -3 0 -8 5 -11 10 -3 6 -1 10 4 10 6 0 11
-4 11 -10z m3717 -22 c-3 -7 -5 -2 -5 12 0 14 2 19 5 13 2 -7 2 -19 0 -25z
m-3847 -18 c9 -14 4 -43 -17 -89 -14 -31 -20 -52 -22 -75 -1 -5 -10 -1 -22 10
-16 15 -24 16 -39 7 -14 -10 -21 -9 -30 2 -7 8 -19 15 -26 15 -18 0 -18 31 1
56 8 10 15 29 15 41 0 12 6 24 13 26 7 3 6 6 -5 6 -9 1 -20 6 -24 12 -4 8 16
9 71 6 45 -3 81 -10 85 -17z m1883 14 c41 -7 52 -34 13 -34 -49 0 -85 12 -79
26 6 16 12 16 66 8z m3501 -129 c-2 -64 -6 -119 -8 -124 -3 -5 -6 -72 -8 -150
-1 -77 -5 -141 -8 -141 -8 0 -24 169 -24 250 0 37 4 54 12 53 7 -2 12 1 12 7
0 5 -12 12 -27 15 -16 3 -45 11 -66 16 -36 10 -38 12 -23 28 9 10 16 31 16 48
0 49 8 60 56 74 26 8 46 21 50 31 13 43 21 0 18 -107z m1672 110 c19 -14 19
-15 -3 -21 -14 -4 -27 -21 -37 -48 -11 -31 -15 -35 -15 -17 -1 29 20 101 29
101 3 0 15 -7 26 -15z m-5901 -5 c-3 -5 -11 -10 -16 -10 -6 0 -7 5 -4 10 3 6
11 10 16 10 6 0 7 -4 4 -10z m-819 -24 c-4 -18 -1 -25 13 -29 21 -5 40 -79 22
-85 -6 -2 -13 -19 -17 -37 -7 -39 -30 -51 -66 -34 -20 9 -27 23 -37 74 -11 56
-11 66 5 90 9 14 23 24 30 21 8 -3 20 1 26 9 20 22 31 18 24 -9z m1801 -8 c-3
-7 -5 -2 -5 12 0 14 2 19 5 13 2 -7 2 -19 0 -25z m718 1 c41 -14 91 -109 74
-142 -18 -36 -52 -57 -91 -57 -27 0 -36 -4 -32 -13 3 -10 -6 -13 -35 -13 -22
1 -43 4 -47 9 -4 4 -2 7 5 7 7 0 9 5 5 11 -4 8 1 9 15 4 16 -5 27 -1 36 12 20
25 19 63 -1 63 -17 0 -54 40 -66 72 -6 14 -1 26 17 43 25 26 48 26 120 4z
m771 -107 c-14 -13 -17 10 -9 69 l8 64 3 -64 c2 -35 1 -66 -2 -69z m192 109
c12 -11 22 -30 22 -46 0 -23 4 -26 28 -23 21 2 28 9 30 31 l3 28 87 -6 c92 -7
105 -11 82 -25 -8 -6 -10 -10 -4 -10 13 0 16 -17 17 -98 1 -51 -3 -66 -20 -84
-25 -24 -123 -39 -123 -18 0 7 -6 10 -14 7 -8 -3 -24 5 -37 19 -19 20 -20 24
-6 24 9 0 17 5 17 11 0 6 -9 9 -20 6 -11 -3 -18 -1 -14 4 3 5 1 9 -4 9 -5 0
-14 -11 -20 -25 -8 -16 -23 -28 -42 -31 -16 -4 -30 -13 -30 -20 0 -7 -9 -18
-19 -24 -25 -13 -31 -13 -31 0 0 6 9 10 21 10 11 0 17 5 14 10 -3 6 -15 10
-25 10 -12 0 -17 5 -14 13 3 8 -8 18 -28 26 l-33 13 3 65 c2 65 16 93 46 93 8
0 23 11 33 25 21 29 50 31 81 6z m-5688 -7 c0 -8 -4 -12 -10 -9 -5 3 -10 10
-10 16 0 5 5 9 10 9 6 0 10 -7 10 -16z m3774 2 l49 -13 -54 -6 c-31 -4 -58 -2
-63 3 -6 6 -23 10 -38 10 -15 0 -28 5 -28 10 0 14 75 12 134 -4z m4138 -38
c29 -33 37 -52 38 -81 0 -70 -53 -127 -120 -127 -40 0 -83 48 -91 103 -6 41
15 102 50 140 26 31 79 16 123 -35z m-2892 -8 c0 -10 -7 -23 -15 -30 -8 -7
-16 -22 -17 -34 0 -11 -4 2 -7 29 -7 56 3 82 25 64 8 -6 14 -19 14 -29z m1407
8 c-3 -7 -5 -2 -5 12 0 14 2 19 5 13 2 -7 2 -19 0 -25z m1626 11 c3 -13 1 -19
-6 -16 -15 5 -22 37 -9 37 5 0 12 -9 15 -21z m927 7 c0 -3 -4 -8 -10 -11 -5
-3 -10 -1 -10 4 0 6 5 11 10 11 6 0 10 -2 10 -4z m-4780 -36 c-13 -9 -13 -11
0 -20 8 -6 26 -13 40 -16 44 -10 51 -14 46 -23 -3 -4 -25 -4 -51 2 -46 11 -71
3 -45 -13 8 -5 25 -7 37 -3 18 4 23 1 23 -15 0 -24 -16 -37 -25 -22 -8 13 -22
5 -37 -23 -10 -20 -10 -21 6 -8 22 18 27 11 20 -27 -8 -38 -28 -41 -61 -10
-27 26 -29 43 -6 52 15 6 15 8 3 16 -8 6 -27 10 -42 10 -37 0 -35 15 3 29 24
8 29 15 24 30 -7 24 54 76 70 60 7 -7 5 -13 -5 -19z m-424 9 c4 -8 9 -7 15 2
6 9 9 -1 9 -29 0 -24 5 -52 11 -63 7 -14 7 -30 -1 -54 -10 -31 -16 -35 -45
-35 -18 0 -40 6 -47 13 -7 7 -26 18 -43 26 -16 7 -25 15 -19 18 13 4 -3 62
-21 75 -5 4 -6 10 -2 14 3 4 14 1 22 -6 9 -7 15 -9 14 -4 -4 23 3 35 24 44 31
12 75 12 83 -1z m2452 -1 c10 -10 17 -10 33 0 18 12 20 11 11 -4 -10 -18 3
-62 21 -75 8 -6 10 -57 6 -124 -1 -20 -75 -105 -91 -105 -15 0 -8 19 9 22 16
3 27 48 11 48 -4 0 -8 -9 -8 -20 0 -11 -4 -20 -10 -20 -5 0 -10 9 -10 21 0 15
-5 19 -18 15 -10 -4 -33 1 -51 10 l-32 16 6 67 c4 36 11 70 16 76 5 5 9 17 9
27 0 21 33 40 54 32 12 -5 15 -2 10 10 -7 19 16 22 34 4z m-3511 -20 c-3 -8
-6 -5 -6 6 -1 11 2 17 5 13 3 -3 4 -12 1 -19z m1783 -3 c13 -14 18 -25 12 -25
-20 0 -13 -16 11 -27 19 -9 15 -11 -35 -18 -44 -5 -58 -11 -59 -24 0 -11 -3
-9 -9 7 -5 12 -14 22 -20 22 -5 0 -10 7 -10 15 0 8 4 15 8 15 5 0 15 11 22 25
11 21 22 28 51 34 3 0 16 -10 29 -24z m-3932 -2 c5 -18 -23 -16 -39 3 -11 14
-10 15 11 12 13 -1 25 -9 28 -15z m8352 -20 c0 -23 8 -45 21 -59 l21 -22 -21
-11 c-15 -9 -21 -21 -21 -48 0 -20 -3 -33 -7 -30 -13 13 -33 -32 -39 -89 -5
-39 -18 -76 -37 -107 -35 -58 -49 -54 -19 6 11 23 25 69 31 102 8 49 7 67 -7
97 -9 21 -20 38 -24 38 -3 0 -18 -14 -32 -31 -26 -31 -35 -69 -16 -69 6 0 10
-11 10 -25 0 -27 -18 -33 -38 -13 -19 19 -14 62 12 101 21 30 22 38 10 48 -22
18 -7 28 25 16 39 -15 65 -3 56 26 -15 47 -11 62 13 60 16 -2 26 5 34 22 16
36 28 31 28 -12z m55 16 c6 -19 0 -38 -9 -28 -10 12 -16 49 -7 49 5 0 13 -9
16 -21z m-6068 -21 c-3 -7 -5 -2 -5 12 0 14 2 19 5 13 2 -7 2 -19 0 -25z
m-271 -35 c-11 -11 -17 4 -9 23 7 18 8 18 11 1 2 -10 1 -21 -2 -24z m5364 7
c0 -16 -4 -30 -9 -30 -10 0 -21 47 -13 55 13 13 22 3 22 -25z m276 18 c4 -7 4
-10 -1 -6 -4 4 -16 3 -26 -3 -12 -6 -19 -6 -19 0 0 9 15 18 32 20 4 1 10 -5
14 -11z m-3899 -14 c-3 -3 -12 -4 -19 -1 -8 3 -5 6 6 6 11 1 17 -2 13 -5z
m4050 0 c-3 -3 -12 -4 -19 -1 -8 3 -5 6 6 6 11 1 17 -2 13 -5z m-7147 -19
c-10 -12 -16 -13 -26 -4 -20 16 -18 19 12 19 22 0 25 -2 14 -15z m82 -10 c3
-16 1 -25 -7 -25 -8 0 -10 9 -7 25 2 14 6 25 7 25 1 0 5 -11 7 -25z m2708 9
c0 -2 -11 -4 -25 -4 -14 0 -25 4 -25 9 0 4 11 6 25 3 14 -2 25 -6 25 -8z
m-2480 -14 c0 -5 -5 -10 -11 -10 -5 0 -7 5 -4 10 3 6 8 10 11 10 2 0 4 -4 4
-10z m40 0 c0 -5 -4 -10 -10 -10 -5 0 -10 5 -10 10 0 6 5 10 10 10 6 0 10 -4
10 -10z m67 4 c-3 -3 -12 -4 -19 -1 -8 3 -5 6 6 6 11 1 17 -2 13 -5z m65 -29
c11 -14 30 -25 44 -25 13 0 24 -6 24 -13 0 -8 9 -22 20 -32 23 -21 27 -88 8
-130 -16 -35 -86 -75 -121 -68 -16 3 -27 1 -27 -6 0 -6 -6 -11 -14 -11 -8 0
-16 -4 -18 -10 -4 -13 -88 59 -88 76 0 8 -4 14 -10 14 -5 0 -10 7 -10 15 0 9
-9 15 -23 15 -15 0 -27 8 -33 23 -14 31 -6 57 17 57 12 0 19 7 19 20 0 11 -4
20 -10 20 -23 0 -8 21 20 26 16 4 27 10 25 14 -7 12 61 33 83 26 11 -4 30 -2
43 3 13 5 26 10 28 10 2 1 12 -10 23 -24z m848 4 c0 -10 -4 -21 -10 -24 -5 -3
-10 1 -10 9 0 9 -5 16 -11 16 -5 0 -8 4 -5 8 10 16 36 9 36 -9z m1404 -31 c6
19 9 20 22 7 11 -11 12 -19 4 -34 -5 -11 -10 -35 -10 -55 0 -45 -9 -66 -24
-60 -8 3 -17 -8 -24 -28 -8 -26 -9 -13 -6 67 3 55 8 111 11 125 6 23 7 23 13
-10 5 -32 7 -33 14 -12z m3111 -18 c-1 -12 -14 -28 -30 -36 -16 -8 -32 -20
-36 -26 -4 -7 -9 -7 -13 1 -4 6 -2 11 5 11 6 0 9 8 6 20 -6 25 17 50 47 50 17
0 22 -5 21 -20z m-4545 -4 c0 -3 -4 -8 -10 -11 -5 -3 -10 -1 -10 4 0 6 5 11
10 11 6 0 10 -2 10 -4z m5817 -48 c-3 -8 -6 -5 -6 6 -1 11 2 17 5 13 3 -3 4
-12 1 -19z m-4190 -105 c-3 -65 -9 -128 -13 -140 -8 -30 -44 -31 -44 -2 0 17
-3 19 -14 10 -7 -6 -28 -9 -47 -5 -62 11 -63 11 -44 40 12 19 14 29 6 37 -21
21 -9 109 14 100 8 -2 21 -1 30 5 16 8 16 10 0 26 -20 19 -19 21 13 30 16 6
22 3 22 -8 0 -18 25 -22 35 -5 4 6 13 8 21 5 8 -3 14 1 14 9 0 8 3 15 6 15 4
0 4 -53 1 -117z m-2170 60 c14 -30 14 -39 2 -75 -7 -22 -12 -49 -12 -59 1 -14
-5 -19 -22 -19 -27 0 -53 35 -32 43 7 4 6 6 -4 6 -12 1 -19 13 -22 39 -3 20
-9 49 -12 65 -6 23 -4 27 13 27 12 0 23 4 26 9 12 18 47 -2 63 -36z m833 37
c11 -7 6 -10 -20 -10 -26 0 -31 3 -20 10 8 5 17 10 20 10 3 0 12 -5 20 -10z
m150 -37 c0 -16 7 -27 20 -30 23 -6 28 -43 6 -43 -23 0 -31 -22 -12 -32 27
-15 20 -55 -11 -66 -27 -10 -27 -10 12 -12 67 -1 17 -20 -75 -27 -57 -4 -80
-3 -80 6 0 6 -11 11 -24 11 -13 0 -29 7 -36 15 -7 8 -22 15 -33 15 -11 0 -17
3 -13 8 8 7 13 8 41 11 23 2 18 21 -6 21 -12 0 -19 5 -16 13 2 6 10 12 18 12
15 0 32 42 22 58 -3 5 -19 16 -37 24 l-31 14 32 -5 c17 -3 33 -1 35 4 2 5 20
11 41 12 24 2 36 7 33 15 -6 14 82 23 102 9 6 -5 12 -20 12 -33z m5786 35 c23
-36 -13 -175 -39 -149 -7 7 -5 20 8 44 11 22 16 47 13 75 -3 41 4 54 18 30z
m-6719 -4 c-3 -3 -12 -4 -19 -1 -8 3 -5 6 6 6 11 1 17 -2 13 -5z m1674 -46
c-5 -32 -6 -32 -9 -5 -2 15 -9 27 -15 27 -7 0 -6 4 3 9 21 14 27 5 21 -31z
m2152 24 c4 10 9 9 20 -4 8 -10 18 -18 24 -18 5 0 15 -16 23 -35 9 -24 20 -35
34 -35 16 0 17 -3 8 -12 -16 -16 -15 -28 3 -28 8 0 17 11 21 24 8 32 21 36 86
29 l55 -5 11 -44 c15 -54 15 -78 2 -126 -8 -28 -14 -35 -29 -31 -24 6 -31 -5
-24 -40 4 -18 15 -33 32 -40 23 -11 40 -26 83 -77 22 -25 15 -113 -11 -146
-22 -28 -23 -28 -16 -4 8 24 7 24 -18 7 -15 -9 -35 -17 -45 -17 -21 0 -46 23
-36 33 3 3 -4 8 -16 12 -25 8 -36 33 -45 107 -7 58 -3 65 49 75 26 5 25 4 19
34 -3 18 -15 30 -39 39 -20 8 -39 25 -46 42 -7 15 -17 28 -21 28 -5 0 -5 -5
-1 -12 5 -7 3 -8 -5 -3 -8 4 -10 17 -7 31 4 13 3 24 0 24 -9 0 -54 -53 -54
-64 0 -5 -7 -17 -15 -26 -15 -16 -19 -16 -68 10 l-52 27 -5 84 c-4 61 -2 86 7
92 7 4 13 17 13 28 0 10 5 28 12 39 11 17 14 18 29 4 14 -12 18 -13 22 -2z
m229 -6 c-2 -9 4 -16 13 -16 8 0 15 -4 15 -10 0 -17 -26 -11 -44 9 -10 11 -15
25 -11 31 10 16 31 6 27 -14z m-2432 2 c1 -7 19 -31 40 -53 38 -38 52 -75 30
-75 -6 0 -20 -15 -31 -34 -27 -47 -74 -55 -107 -19 -21 23 -24 24 -36 8 -11
-15 -13 -15 -25 -1 -8 9 -19 16 -27 16 -21 0 -28 22 -10 32 11 6 15 16 11 29
-4 11 -2 19 4 19 6 0 11 13 11 29 0 34 22 46 53 30 18 -10 24 -8 36 9 18 23
51 29 51 10z m1909 -11 c19 -23 27 -88 17 -134 -6 -24 -14 -43 -18 -43 -5 0
-8 -5 -8 -11 0 -18 -35 -56 -48 -51 -6 2 -12 -1 -12 -7 0 -7 -20 -11 -54 -10
l-54 2 3 31 c3 17 6 67 9 111 6 97 11 113 39 118 50 10 115 6 126 -6z m3326
-34 c0 -48 -17 -94 -30 -81 -4 4 -2 23 5 42 6 20 9 40 5 46 -3 5 0 16 7 24 7
9 13 15 13 16 0 0 0 -21 0 -47z m-5148 -5 c-3 -8 -6 -5 -6 6 -1 11 2 17 5 13
3 -3 4 -12 1 -19z m-2383 -11 c24 -19 28 -28 22 -50 -4 -16 -13 -27 -24 -27
-21 0 -75 -111 -58 -122 6 -4 7 -10 3 -14 -4 -4 -13 -2 -19 4 -19 19 -31 14
-25 -9 5 -18 2 -20 -16 -14 -12 4 -33 9 -47 12 -33 7 -60 32 -60 54 0 12 -6
16 -20 12 -28 -7 -27 35 3 89 42 78 46 80 177 86 24 1 45 -6 64 -21z m1861 13
c4 -6 -5 -10 -19 -10 -40 0 -30 -17 14 -24 53 -8 51 -26 -2 -27 -26 -1 -33 -4
-19 -6 l23 -5 -26 -13 c-24 -13 -31 -12 -67 7 -27 14 -38 25 -35 35 3 8 6 21
6 28 0 13 20 17 97 23 12 1 25 -2 28 -8z m-3035 -10 c13 -9 13 -11 0 -20 -24
-16 -47 -11 -53 10 -4 15 0 20 16 20 12 0 29 -5 37 -10z m3776 -27 c-3 -21 -8
-74 -13 -118 -9 -100 -10 -108 -12 -120 -2 -19 -41 -12 -41 7 0 10 7 18 15 18
8 0 15 5 15 10 0 6 -7 10 -16 10 -12 0 -15 6 -10 23 3 12 6 32 6 45 0 12 6 22
14 22 19 0 26 22 26 86 0 32 4 54 11 54 7 0 9 -14 5 -37z m2375 -178 l-9 -60
-1 65 c0 36 3 90 7 120 l7 55 3 -60 c1 -33 -2 -87 -7 -120z m-979 123 c-9 -9
-12 -7 -12 12 0 19 3 21 12 12 9 -9 9 -15 0 -24z m-3910 -17 c15 -21 45 -36
91 -45 41 -9 32 -26 -14 -26 -29 0 -50 7 -70 24 -15 13 -34 26 -40 28 -14 5
-5 38 10 38 5 0 16 -9 23 -19z m1645 -13 c-3 -7 -5 -2 -5 12 0 14 2 19 5 13 2
-7 2 -19 0 -25z m667 7 c3 -9 0 -15 -9 -15 -9 0 -12 6 -9 15 4 8 7 15 9 15 2
0 5 -7 9 -15z m3411 -35 c4 -8 3 -66 0 -130 -4 -63 -8 -139 -10 -168 -1 -29
-5 -56 -9 -59 -7 -7 -10 36 -7 81 2 16 -3 33 -11 37 -11 7 -10 11 2 20 11 8
12 12 3 15 -10 4 -10 10 0 25 10 17 9 22 -10 37 -22 17 -42 81 -43 135 0 26 2
27 40 25 24 -2 42 -9 45 -18z m-2253 -30 c14 0 9 -37 -10 -60 -16 -20 -23 -21
-62 -13 -36 7 -46 13 -48 32 -5 31 25 61 60 61 15 0 28 6 29 13 0 6 5 2 11
-10 6 -13 15 -23 20 -23z m-3308 5 c11 -8 17 -17 14 -21 -7 -6 -48 17 -48 28
0 12 13 9 34 -7z m1148 0 c0 -5 -5 -11 -11 -13 -6 -2 -11 4 -11 13 0 9 5 15
11 13 6 -2 11 -8 11 -13z m608 -45 c11 -11 20 -27 20 -36 0 -9 6 -22 14 -28 7
-6 16 -26 20 -43 5 -30 3 -33 -18 -33 -22 0 -24 -3 -19 -40 5 -35 2 -43 -21
-61 -14 -11 -26 -26 -26 -32 0 -7 -12 -23 -27 -37 -18 -17 -25 -20 -20 -8 4
12 0 19 -14 23 -10 4 -19 13 -19 22 0 12 7 14 30 10 16 -4 32 -2 35 3 4 6 -6
10 -22 10 -22 0 -36 10 -61 42 -35 45 -40 78 -17 102 8 8 15 19 15 25 0 6 5
11 11 11 15 0 69 59 69 76 0 20 27 17 50 -6z m3463 -37 c-8 -19 -37 -12 -41
10 -2 10 2 25 9 33 11 13 14 13 25 -7 6 -13 10 -29 7 -36z m-2765 36 c-2 -6
-8 -10 -13 -10 -5 0 -11 4 -13 10 -2 6 4 11 13 11 9 0 15 -5 13 -11z m-2388
-19 c0 -5 -4 -10 -10 -10 -5 0 -10 5 -10 10 0 6 5 10 10 10 6 0 10 -4 10 -10z
m3739 -37 c0 9 7 17 15 17 22 0 76 -34 76 -47 0 -7 4 -13 9 -13 14 0 41 -65
41 -100 0 -26 -5 -34 -30 -43 -16 -6 -30 -17 -30 -23 0 -17 -49 -27 -66 -13
-8 6 -14 8 -14 3 0 -5 -5 -2 -10 6 -9 13 -11 13 -21 0 -8 -11 -9 14 -4 90 3
58 6 112 7 120 0 35 11 44 18 15 4 -16 8 -22 9 -12z m-2911 20 c-10 -2 -26 -2
-35 0 -10 3 -2 5 17 5 19 0 27 -2 18 -5z m109 -25 c-3 -8 -6 -5 -6 6 -1 11 2
17 5 13 3 -3 4 -12 1 -19z m2117 7 c4 -10 -1 -15 -14 -15 -13 0 -18 5 -14 15
4 8 10 15 14 15 4 0 10 -7 14 -15z m-3043 -55 c15 0 10 -84 -7 -125 -17 -41
-31 -43 -102 -14 -21 9 -35 10 -40 4 -4 -6 -17 -16 -29 -23 -20 -10 -26 -9
-43 10 -12 13 -27 30 -35 39 -8 9 -15 25 -15 37 0 11 -4 22 -10 24 -6 2 -5 19
2 46 12 47 40 56 46 14 2 -12 6 -22 10 -22 11 0 34 17 33 24 -5 33 15 35 52 6
17 -13 28 -17 32 -10 4 7 19 8 37 5 25 -6 30 -3 35 16 6 23 7 23 16 -4 5 -15
13 -27 18 -27z m829 41 c0 -17 -21 -23 -56 -17 -49 10 -42 26 11 26 25 0 45
-4 45 -9z m38 -5 c-7 -8 -15 -12 -17 -11 -5 6 10 25 20 25 5 0 4 -6 -3 -14z
m3312 -40 c22 -51 17 -80 -19 -118 -39 -41 -111 -37 -111 6 0 15 -9 27 -26 35
-17 8 -24 17 -20 27 3 9 6 22 6 30 0 9 11 14 30 14 34 0 81 19 93 37 14 23 27
14 47 -31z m465 -45 c-6 -31 -9 -33 -15 -16 -5 11 -8 34 -8 50 0 29 0 29 8 5
7 -22 8 -21 11 15 2 34 3 36 6 11 3 -16 1 -45 -2 -65z m-4257 39 c5 -32 22
-51 22 -24 0 16 2 17 10 4 15 -24 12 -43 -14 -73 -14 -16 -26 -32 -28 -37 -2
-4 -23 -10 -48 -14 l-45 -7 3 46 c4 42 2 45 -19 45 l-24 1 25 14 c25 14 25 14
3 15 -42 0 -24 25 30 42 67 20 81 18 85 -12z m820 -13 c2 -12 -3 -17 -17 -17
-12 0 -21 -4 -21 -10 0 -18 -59 -40 -107 -40 -45 1 -47 2 -28 16 13 10 19 24
17 42 -3 25 1 29 40 38 51 11 111 -4 116 -29z m-405 26 c-7 -2 -19 -2 -25 0
-7 3 -2 5 12 5 14 0 19 -2 13 -5z m1211 -24 c21 -22 26 -33 17 -38 -7 -5 -10
-18 -6 -33 4 -15 2 -29 -4 -33 -20 -12 -76 14 -110 50 -18 19 -39 35 -47 35
-8 0 -14 5 -14 10 0 14 54 12 68 -2 9 -9 12 -9 12 0 0 7 -5 12 -11 12 -5 0 -8
4 -4 10 3 5 12 7 19 4 8 -3 17 -1 21 5 11 18 29 12 59 -20z m-1014 5 c0 -2 -7
-4 -15 -4 -8 0 -15 4 -15 10 0 5 7 7 15 4 8 -4 15 -8 15 -10z m6090 -20 c0 -8
-5 -12 -10 -9 -6 4 -8 11 -5 16 9 14 15 11 15 -7z m-3433 -26 c-3 -7 -5 -2 -5
12 0 14 2 19 5 13 2 -7 2 -19 0 -25z m3372 21 c17 -6 31 -15 31 -20 0 -15 -23
-59 -31 -59 -4 0 -11 -9 -14 -20 -11 -35 -25 -22 -25 23 0 31 3 38 10 27 7
-11 10 -7 10 18 0 20 -4 31 -10 27 -5 -3 -10 -1 -10 4 0 13 0 13 39 0z m-7539
-14 c0 -9 9 -15 22 -15 17 0 19 -3 10 -12 -15 -15 -108 -16 -123 -1 -19 19 11
42 54 43 26 0 37 -4 37 -15z m2880 -25 c0 -5 -9 -10 -21 -10 -11 0 -17 5 -14
10 3 6 13 10 21 10 8 0 14 -4 14 -10z m460 -50 c0 -14 -5 -32 -10 -40 -8 -12
-10 -12 -11 5 -1 16 -2 15 -8 -5 -8 -29 -34 -34 -39 -7 -2 10 7 26 22 38 14
11 26 30 26 42 0 18 2 19 10 7 5 -8 10 -26 10 -40z m4727 44 c-3 -3 -12 -4
-19 -1 -8 3 -5 6 6 6 11 1 17 -2 13 -5z m-6947 -40 c0 -14 -3 -14 -15 -4 -8 7
-15 14 -15 16 0 2 7 4 15 4 8 0 15 -7 15 -16z m1753 9 c-7 -2 -19 -2 -25 0 -7
3 -2 5 12 5 14 0 19 -2 13 -5z m4266 -25 c8 -18 16 -27 19 -20 6 20 25 13 19
-7 -3 -13 0 -18 8 -15 15 6 31 -14 37 -48 4 -23 2 -26 -11 -18 -11 6 -22 3
-34 -8 -31 -27 -48 -5 -53 67 -2 35 -7 68 -10 72 -3 5 -2 9 3 9 4 0 15 -14 22
-32z m-4689 12 c0 -5 -2 -10 -4 -10 -3 0 -8 5 -11 10 -3 6 -1 10 4 10 6 0 11
-4 11 -10z m390 -10 c0 -5 -5 -10 -11 -10 -5 0 -7 5 -4 10 3 6 8 10 11 10 2 0
4 -4 4 -10z m70 -5 c0 -8 -4 -15 -10 -15 -5 0 -10 7 -10 15 0 8 5 15 10 15 6
0 10 -7 10 -15z m1775 -4 c-3 -6 -11 -11 -16 -11 -5 0 -4 6 3 14 14 16 24 13
13 -3z m2775 -5 c0 -8 -4 -18 -10 -21 -5 -3 -10 3 -10 14 0 12 5 21 10 21 6 0
10 -6 10 -14z m487 -23 c-3 -10 -5 -4 -5 12 0 17 2 24 5 18 2 -7 2 -21 0 -30z
m-5197 11 c0 -8 -4 -12 -10 -9 -5 3 -10 10 -10 16 0 5 5 9 10 9 6 0 10 -7 10
-16z m5247 -6 c-3 -8 -6 -5 -6 6 -1 11 2 17 5 13 3 -3 4 -12 1 -19z m-695 -39
c4 -39 -6 -59 -28 -59 -11 0 -19 85 -8 101 11 19 32 -5 36 -42z m-6902 25 c0
-8 -5 -12 -10 -9 -6 4 -8 11 -5 16 9 14 15 11 15 -7z m2083 -14 c5 -4 -3 -5
-17 -3 -16 3 -26 1 -26 -6 0 -15 -120 -11 -120 4 -1 21 141 25 163 5z m-865 3
c-10 -2 -26 -2 -35 0 -10 3 -2 5 17 5 19 0 27 -2 18 -5z m577 -2 c17 -7 17 -8
-8 -13 -19 -4 -27 -1 -27 8 0 15 6 16 35 5z m-467 -18 c-21 -2 -57 -2 -80 0
-24 2 -7 4 37 4 44 0 63 -2 43 -4z m6279 -45 c-3 -8 -6 -5 -6 6 -1 11 2 17 5
13 3 -3 4 -12 1 -19z m-3772 -38 c3 -5 -1 -10 -10 -10 -9 0 -13 5 -10 10 3 6
8 10 10 10 2 0 7 -4 10 -10z m85 -20 c0 -5 -2 -10 -4 -10 -3 0 -8 5 -11 10 -3
6 -1 10 4 10 6 0 11 -4 11 -10z"/>
<path d="M960 5520 c0 -5 5 -10 10 -10 6 0 10 5 10 10 0 6 -4 10 -10 10 -5 0
-10 -4 -10 -10z"/>
<path d="M875 5446 c17 -9 44 -15 60 -14 30 0 30 0 -5 8 -19 5 -46 11 -60 14
-21 5 -20 4 5 -8z"/>
<path d="M9800 4899 c0 -23 35 -26 44 -3 3 9 6 16 6 17 0 1 -11 3 -25 3 -18 2
-25 -3 -25 -17z"/>
<path d="M9618 4863 c7 -3 16 -2 19 1 4 3 -2 6 -13 5 -11 0 -14 -3 -6 -6z"/>
<path d="M9600 4730 c0 -5 5 -10 10 -10 6 0 10 5 10 10 0 6 -4 10 -10 10 -5 0
-10 -4 -10 -10z"/>
<path d="M9840 3771 c0 -10 30 -24 37 -17 3 2 -5 9 -16 16 -12 6 -21 7 -21 1z"/>
<path d="M9588 3541 c-24 -14 -27 -23 -33 -87 -5 -46 -3 -79 4 -90 6 -11 11
-13 11 -6 0 22 20 13 21 -10 1 -18 2 -19 6 -5 4 14 8 16 19 6 7 -6 12 -15 9
-19 -3 -5 0 -20 6 -34 9 -20 16 -23 29 -16 10 5 19 7 22 5 2 -2 5 7 6 21 1 14
6 33 12 42 8 14 9 13 10 -8 1 -54 19 8 22 76 2 60 0 72 -19 91 -19 19 -22 20
-26 5 -4 -13 -5 -12 -6 4 -1 22 -31 43 -31 22 0 -7 -7 -5 -17 4 -16 13 -21 13
-45 -1z"/>
<path d="M2237 3270 c-7 -27 -1 -39 12 -24 5 5 5 18 2 28 -7 18 -8 18 -14 -4z"/>
<path d="M2412 3131 c-8 -5 -12 -20 -10 -37 4 -25 5 -27 12 -9 4 11 12 28 17
38 10 18 2 22 -19 8z"/>
<path d="M2288 3033 c6 -2 18 -2 25 0 6 3 1 5 -13 5 -14 0 -19 -2 -12 -5z"/>
<path d="M2520 2936 c0 -9 5 -16 10 -16 6 0 10 4 10 9 0 6 -4 13 -10 16 -5 3
-10 -1 -10 -9z"/>
<path d="M5220 2965 c0 -8 5 -15 10 -15 6 0 10 7 10 15 0 8 -4 15 -10 15 -5 0
-10 -7 -10 -15z"/>
<path d="M2745 3021 c-16 -7 -14 -9 15 -14 37 -8 52 -1 30 13 -17 11 -18 11
-45 1z"/>
<path d="M2848 2713 c6 -2 18 -2 25 0 6 3 1 5 -13 5 -14 0 -19 -2 -12 -5z"/>
<path d="M2881 2684 c0 -11 3 -14 6 -6 3 7 2 16 -1 19 -3 4 -6 -2 -5 -13z"/>
<path d="M2781 2631 l-23 -6 26 -14 c28 -15 55 -3 42 18 -8 12 -10 12 -45 2z"/>
<path d="M3760 2941 c0 -10 36 -21 44 -14 3 3 3 10 0 14 -7 12 -44 12 -44 0z"/>
<path d="M3797 2703 c-12 -11 -8 -23 8 -23 8 0 15 7 15 15 0 16 -12 20 -23 8z"/>
<path d="M3820 2640 c0 -11 5 -20 10 -20 6 0 10 9 10 20 0 11 -4 20 -10 20 -5
0 -10 -9 -10 -20z"/>
<path d="M3680 2624 c0 -8 5 -12 10 -9 6 4 8 11 5 16 -9 14 -15 11 -15 -7z"/>
<path d="M3657 2484 c-3 -3 6 -17 20 -30 31 -28 43 -32 20 -6 -10 10 -17 24
-17 30 0 13 -13 16 -23 6z"/>
<path d="M3746 2445 c4 -8 8 -15 10 -15 2 0 4 7 4 15 0 8 -4 15 -10 15 -5 0
-7 -7 -4 -15z"/>
<path d="M3690 2406 c0 -2 7 -6 15 -10 8 -3 15 -1 15 4 0 6 -7 10 -15 10 -8 0
-15 -2 -15 -4z"/>
<path d="M3552 2171 c-8 -4 -12 -19 -10 -32 4 -30 36 -36 75 -15 26 14 27 15
8 22 -11 4 -26 14 -33 21 -16 15 -22 16 -40 4z"/>
<path d="M3608 2093 c6 -2 18 -2 25 0 6 3 1 5 -13 5 -14 0 -19 -2 -12 -5z"/>
<path d="M6101 2928 c-1 -32 2 -38 19 -38 15 0 20 7 20 25 0 15 -6 25 -14 25
-8 0 -17 6 -19 13 -3 6 -6 -5 -6 -25z"/>
<path d="M6195 2850 c-3 -5 -1 -10 4 -10 6 0 11 5 11 10 0 6 -2 10 -4 10 -3 0
-8 -4 -11 -10z"/>
<path d="M3382 2960 c0 -14 2 -19 5 -12 2 6 2 18 0 25 -3 6 -5 1 -5 -13z"/>
<path d="M9605 2766 c-14 -15 -30 -26 -35 -26 -14 0 -12 -14 2 -28 9 -9 9 -12
-1 -12 -8 0 -11 -14 -9 -47 3 -44 5 -48 36 -54 18 -4 35 -2 38 3 9 14 11 179
2 184 -4 3 -19 -6 -33 -20z"/>
<path d="M9653 2579 c-34 -12 -29 -14 28 -10 28 1 49 5 47 6 -9 9 -55 12 -75
4z"/>
<path d="M9444 2416 c-3 -8 -1 -23 5 -33 9 -15 10 -13 11 15 0 34 -7 42 -16
18z"/>
<path d="M9360 2381 c0 -8 -6 -11 -16 -7 -19 7 -54 -1 -54 -14 0 -15 68 -9 75
7 3 9 3 18 0 21 -3 3 -5 0 -5 -7z"/>
<path d="M5497 2763 c-9 -9 12 -33 29 -33 8 0 14 9 14 20 0 19 -28 28 -43 13z"/>
<path d="M681 2736 c12 -10 59 -15 59 -6 0 5 -14 10 -32 10 -17 0 -29 -2 -27
-4z"/>
<path d="M2115 2640 c10 -11 22 -20 27 -20 4 0 3 9 -4 20 -7 11 -19 20 -27 20
-11 0 -10 -5 4 -20z"/>
<path d="M2060 2361 c0 -6 5 -13 10 -16 6 -3 10 1 10 9 0 9 -4 16 -10 16 -5 0
-10 -4 -10 -9z"/>
<path d="M2430 2344 c0 -8 5 -12 10 -9 6 4 8 11 5 16 -9 14 -15 11 -15 -7z"/>
<path d="M3213 2463 c-17 -6 -16 -43 1 -43 18 0 39 27 31 40 -7 11 -13 11 -32
3z"/>
<path d="M8140 2206 c0 -2 7 -20 15 -40 14 -32 45 -51 45 -26 0 6 9 10 20 10
11 0 20 7 20 15 0 18 -40 20 -40 3 0 -7 -10 -1 -21 15 -18 23 -39 36 -39 23z"/>
<path d="M8373 2151 c6 -25 4 -26 -18 -4 -14 14 -18 14 -26 2 -11 -18 -12 -59
0 -59 4 0 6 11 3 25 -6 35 11 31 25 -5 13 -34 33 -40 33 -10 0 11 7 20 15 20
8 0 15 -9 15 -19 0 -11 5 -23 12 -27 8 -5 9 0 6 14 -5 17 -2 22 14 22 10 0 17
-4 14 -8 -18 -30 65 -53 98 -27 17 13 18 18 7 38 -10 19 -20 23 -56 22 -24 -1
-42 2 -39 7 3 4 2 9 -3 9 -4 1 -17 3 -28 4 -11 2 -33 6 -49 10 -26 7 -29 6
-23 -14z m187 -51 c0 -5 -5 -10 -11 -10 -5 0 -7 5 -4 10 3 6 8 10 11 10 2 0 4
-4 4 -10z"/>
<path d="M8220 2125 c0 -8 5 -15 10 -15 6 0 10 7 10 15 0 8 -4 15 -10 15 -5 0
-10 -7 -10 -15z"/>
<path d="M8145 2121 c-3 -5 -1 -12 5 -16 5 -3 10 1 10 9 0 18 -6 21 -15 7z"/>
<path d="M8070 2075 c-7 -9 -10 -19 -6 -22 4 -4 11 -1 16 7 7 11 11 11 23 1
10 -8 17 -8 21 -2 4 6 -2 15 -13 20 -25 14 -26 14 -41 -4z"/>
<path d="M8278 2035 c-6 -31 7 -33 17 -2 6 19 8 20 12 4 3 -10 -1 -24 -7 -32
-6 -8 -9 -19 -5 -25 3 -5 1 -10 -4 -10 -6 0 -11 -9 -11 -20 0 -11 7 -20 15
-20 8 0 15 7 15 16 0 8 5 12 10 9 6 -3 10 -1 10 4 0 6 -4 11 -9 11 -6 0 -9 19
-8 42 2 32 -2 43 -14 46 -11 2 -18 -6 -21 -23z"/>
<path d="M8453 2037 c-23 -30 -33 -34 -33 -13 0 13 -20 26 -39 26 -13 0 -31
-49 -31 -81 0 -47 60 -90 74 -53 5 14 7 14 22 0 8 -9 20 -13 26 -10 6 4 26 8
44 9 23 1 42 12 64 34 34 37 35 41 17 41 -8 0 -20 11 -27 25 -11 20 -21 25
-51 25 -20 0 -39 5 -41 12 -2 6 -13 0 -25 -15z m-43 -41 c16 -30 6 -59 -17
-54 -13 2 -19 14 -20 41 -3 43 17 50 37 13z m148 7 c12 -22 5 -43 -14 -43 -8
0 -14 -9 -14 -21 0 -11 -5 -17 -10 -14 -13 8 -10 78 4 87 17 12 25 9 34 -9z
m-84 -9 c11 -30 7 -64 -9 -64 -20 0 -29 23 -21 55 7 28 21 33 30 9z"/>
<path d="M8081 1998 c1 -18 3 -25 6 -15 5 20 33 23 33 3 0 -8 7 -17 16 -20 9
-3 14 -13 10 -21 -3 -8 -1 -17 4 -20 6 -4 10 3 10 14 0 11 -5 23 -10 26 -6 4
-8 10 -6 14 5 7 -46 51 -59 51 -3 0 -4 -15 -4 -32z"/>
<path d="M8166 2001 c-4 -5 -2 -12 3 -15 5 -4 12 -2 15 3 4 5 2 12 -3 15 -5 4
-12 2 -15 -3z"/>
<path d="M8233 1990 c4 -14 7 -33 7 -42 0 -10 4 -18 9 -18 10 0 -3 67 -15 78
-4 4 -4 -4 -1 -18z"/>
<path d="M8432 1874 c-7 -8 -8 -14 -3 -14 10 0 25 19 20 25 -2 1 -10 -3 -17
-11z"/>
<path d="M8928 1403 c7 -3 16 -2 19 1 4 3 -2 6 -13 5 -11 0 -14 -3 -6 -6z"/>
<path d="M8230 1370 c-8 -5 -29 -10 -47 -10 -40 0 -44 -6 -30 -57 8 -31 7 -48
-2 -72 -8 -17 -17 -31 -22 -31 -5 0 -9 -4 -9 -10 0 -5 19 -14 43 -20 23 -6 50
-13 59 -16 24 -7 13 23 -20 53 -20 19 -23 28 -18 58 5 26 12 35 27 35 12 0 17
4 14 11 -4 5 1 19 10 29 21 23 17 44 -5 30z"/>
<path d="M8671 1324 c0 -11 3 -14 6 -6 3 7 2 16 -1 19 -3 4 -6 -2 -5 -13z"/>
<path d="M8695 1300 c3 -5 10 -10 16 -10 5 0 9 5 9 10 0 6 -7 10 -16 10 -8 0
-12 -4 -9 -10z"/>
<path d="M8311 1154 c0 -11 3 -14 6 -6 3 7 2 16 -1 19 -3 4 -6 -2 -5 -13z"/>
<path d="M8760 1080 c0 -5 5 -10 11 -10 5 0 7 5 4 10 -3 6 -8 10 -11 10 -2 0
-4 -4 -4 -10z"/>
<path d="M8895 1081 c-6 -11 9 -23 19 -14 9 9 7 23 -3 23 -6 0 -12 -4 -16 -9z"/>
<path d="M8756 1027 c3 -10 9 -15 12 -12 3 3 0 11 -7 18 -10 9 -11 8 -5 -6z"/>
<path d="M9070 949 c0 -5 4 -9 9 -9 5 0 17 -3 27 -7 11 -4 15 -3 11 4 -9 14
-47 24 -47 12z"/>
<path d="M6524 2145 c-4 -18 -1 -32 12 -46 18 -20 18 -20 32 6 12 24 11 28 -9
46 -28 24 -27 24 -35 -6z"/>
<path d="M4358 2173 c7 -3 16 -2 19 1 4 3 -2 6 -13 5 -11 0 -14 -3 -6 -6z"/>
<path d="M4465 1760 c-3 -5 -1 -10 4 -10 6 0 11 5 11 10 0 6 -2 10 -4 10 -3 0
-8 -4 -11 -10z"/>
<path d="M6950 2160 c-13 -8 -12 -11 5 -24 24 -18 28 -15 18 12 -6 16 -12 19
-23 12z"/>
<path d="M6960 2026 c0 -8 -3 -23 -7 -33 -6 -17 -6 -17 10 -1 19 19 22 34 7
43 -5 3 -10 0 -10 -9z"/>
<path d="M9122 2020 c0 -14 2 -19 5 -12 2 6 2 18 0 25 -3 6 -5 1 -5 -13z"/>
<path d="M9270 2020 c0 -5 5 -10 11 -10 5 0 7 5 4 10 -3 6 -8 10 -11 10 -2 0
-4 -4 -4 -10z"/>
<path d="M9120 1969 c0 -5 5 -7 10 -4 6 3 10 8 10 11 0 2 -4 4 -10 4 -5 0 -10
-5 -10 -11z"/>
<path d="M9285 1930 c-3 -6 1 -7 9 -4 18 7 21 14 7 14 -6 0 -13 -4 -16 -10z"/>
<path d="M2790 1925 c-7 -8 -8 -15 -2 -15 5 0 15 7 22 15 7 8 8 15 2 15 -5 0
-15 -7 -22 -15z"/>
<path d="M2854 1926 c-10 -8 -16 -17 -13 -20 3 -3 14 1 25 8 10 8 16 17 13 20
-3 3 -14 -1 -25 -8z"/>
<path d="M2580 1861 c0 -15 16 -22 35 -15 13 5 14 8 3 15 -18 12 -38 11 -38 0z"/>
<path d="M2960 1794 c0 -8 5 -12 10 -9 6 3 10 10 10 16 0 5 -4 9 -10 9 -5 0
-10 -7 -10 -16z"/>
<path d="M3250 1170 c-12 -8 -11 -10 8 -10 12 0 22 5 22 10 0 13 -11 13 -30 0z"/>
<path d="M6230 1955 c0 -8 6 -15 14 -15 7 0 19 7 26 15 11 13 8 15 -14 15 -16
0 -26 -5 -26 -15z"/>
<path d="M6210 1875 c0 -15 4 -24 10 -20 6 3 10 12 10 20 0 8 -4 17 -10 20 -6
4 -10 -5 -10 -20z"/>
<path d="M9266 1571 c-5 -7 -3 -18 3 -24 14 -14 20 -6 11 17 -5 15 -9 16 -14
7z"/>
<path d="M2235 1724 c-20 -15 -20 -15 -1 -30 31 -22 48 -18 44 13 -4 32 -16
37 -43 17z"/>
<path d="M4054 1675 c-18 -15 -18 -15 5 -13 14 2 26 9 29 16 5 17 -10 15 -34
-3z"/>
<path d="M4043 1480 c0 -25 2 -35 4 -22 2 12 2 32 0 45 -2 12 -4 2 -4 -23z"/>
<path d="M2228 1293 c6 -2 18 -2 25 0 6 3 1 5 -13 5 -14 0 -19 -2 -12 -5z"/>
<path d="M3540 1200 c0 -5 7 -10 15 -10 8 0 15 5 15 10 0 6 -7 10 -15 10 -8 0
-15 -4 -15 -10z"/>
<path d="M4280 1275 c0 -8 5 -15 10 -15 6 0 10 7 10 15 0 8 -4 15 -10 15 -5 0
-10 -7 -10 -15z"/>
<path d="M4275 1220 c-3 -5 -1 -10 4 -10 6 0 11 5 11 10 0 6 -2 10 -4 10 -3 0
-8 -4 -11 -10z"/>
<path d="M4267 1183 c-13 -12 -7 -33 8 -33 8 0 15 9 15 20 0 20 -11 26 -23 13z"/>
<path d="M3743 6893 c-13 -2 -23 -9 -23 -15 0 -6 11 -7 28 -3 15 4 37 8 50 10
12 1 26 5 29 9 7 6 -48 6 -84 -1z"/>
<path d="M3850 6881 c0 -6 7 -11 15 -11 8 0 15 -4 15 -10 0 -5 9 -10 20 -10
25 0 26 16 3 23 -10 2 -26 8 -35 12 -11 4 -18 3 -18 -4z"/>
<path d="M3840 6837 c0 -7 18 -18 40 -24 22 -5 40 -6 40 -2 0 5 -6 9 -14 9 -7
0 -19 7 -26 15 -15 18 -40 20 -40 2z"/>
<path d="M3964 6829 c-11 -18 11 -31 41 -23 26 7 27 8 10 20 -23 17 -41 18
-51 3z"/>
<path d="M4076 6802 c-9 -15 9 -30 47 -37 30 -6 37 -4 37 9 0 24 -71 48 -84
28z"/>
<path d="M4196 6744 c-9 -32 5 -44 53 -44 20 0 40 -7 48 -17 8 -10 12 -12 8
-5 -4 7 1 12 12 13 14 0 15 2 3 6 -8 3 -22 11 -30 18 -8 6 -31 22 -51 33 l-37
22 -6 -26z"/>
<path d="M4120 6720 c0 -5 14 -10 30 -10 17 0 30 5 30 10 0 6 -13 10 -30 10
-16 0 -30 -4 -30 -10z"/>
<path d="M4373 6693 c15 -2 27 -11 27 -19 0 -8 6 -14 14 -14 8 0 22 -3 32 -7
12 -4 15 -3 10 5 -4 8 0 12 11 12 39 1 -12 18 -67 23 -30 2 -43 2 -27 0z"/>
<path d="M4380 6640 c0 -5 14 -10 30 -10 20 0 30 -5 30 -15 0 -8 8 -15 18 -15
14 0 15 2 2 10 -8 5 -11 10 -7 10 5 0 2 7 -7 15 -16 17 -66 21 -66 5z"/>
<path d="M0 6040 c0 -22 8 -25 30 -10 13 9 13 11 0 20 -22 15 -30 12 -30 -10z"/>
<path d="M0 5940 c0 -5 5 -10 11 -10 5 0 7 5 4 10 -3 6 -8 10 -11 10 -2 0 -4
-4 -4 -10z"/>
<path d="M290 5926 c0 -8 5 -18 10 -21 6 -3 10 3 10 14 0 12 -4 21 -10 21 -5
0 -10 -6 -10 -14z"/>
<path d="M258 5876 c-23 -17 -23 -26 2 -26 13 0 20 7 20 20 0 23 0 23 -22 6z"/>
<path d="M0 3970 c0 -28 2 -30 40 -30 36 0 40 3 40 24 0 25 -16 36 -56 36 -20
0 -24 -5 -24 -30z"/>
<path d="M0 3916 c0 -11 9 -16 26 -16 31 0 28 23 -4 28 -15 2 -22 -2 -22 -12z"/>
<path d="M0 3870 c0 -5 16 -10 36 -10 21 0 33 4 29 10 -3 6 -19 10 -36 10 -16
0 -29 -4 -29 -10z"/>
<path d="M48 3843 c7 -3 16 -2 19 1 4 3 -2 6 -13 5 -11 0 -14 -3 -6 -6z"/>
<path d="M0 3820 c0 -5 9 -10 20 -10 11 0 20 5 20 10 0 6 -9 10 -20 10 -11 0
-20 -4 -20 -10z"/>
<path d="M0 3780 c0 -13 7 -20 20 -20 11 0 20 5 20 10 0 6 9 10 20 10 11 0 20
5 20 10 0 6 -18 10 -40 10 -33 0 -40 -3 -40 -20z"/>
<path d="M0 3670 c0 -5 9 -10 20 -10 11 0 20 5 20 10 0 6 -9 10 -20 10 -11 0
-20 -4 -20 -10z"/>
<path d="M0 3509 c0 -5 5 -7 10 -4 5 3 10 8 10 11 0 2 -4 4 -10 4 -5 0 -10 -5
-10 -11z"/>
<path d="M0 3454 c0 -8 5 -12 10 -9 6 3 10 10 10 16 0 5 -4 9 -10 9 -5 0 -10
-7 -10 -16z"/>
<path d="M10023 750 c-2 -22 12 -34 27 -25 7 4 7 13 0 26 -14 25 -25 24 -27
-1z"/>
<path d="M10225 750 c-3 -5 -1 -10 4 -10 6 0 11 5 11 10 0 6 -2 10 -4 10 -3 0
-8 -4 -11 -10z"/>
<path d="M9980 691 c0 -25 6 -27 13 -6 4 8 2 17 -3 20 -6 4 -10 -3 -10 -14z"/>
<path d="M10039 708 c0 -2 -2 -41 -4 -88 -2 -63 1 -92 13 -115 9 -16 17 -37
18 -45 10 -61 18 -88 31 -114 15 -30 16 -30 24 -8 5 14 14 20 24 16 12 -5 15
1 15 27 -1 33 -1 33 -17 14 l-16 -20 8 20 c4 11 10 28 12 38 4 14 12 17 32 12
30 -6 59 17 58 48 0 18 -37 25 -37 7 0 -20 -40 -9 -56 15 -9 14 -20 23 -24 20
-4 -2 -14 3 -22 13 -23 26 -32 59 -37 145 -1 13 -18 25 -22 15z"/>
<path d="M5520 640 c0 -5 12 -10 26 -10 14 0 23 4 19 10 -3 6 -15 10 -26 10
-10 0 -19 -4 -19 -10z"/>
<path d="M2828 635 c-3 -3 -613 -5 -1356 -5 -743 0 -1378 -3 -1411 -6 -34 -4
-61 -11 -61 -16 0 -6 258 -6 658 -2 362 4 674 4 695 0 112 -21 -18 -26 -664
-26 l-689 0 0 -21 0 -21 478 6 c727 9 1313 19 1310 22 -2 1 -84 5 -183 9 -138
4 -183 9 -195 20 -12 13 -1 15 90 16 58 1 123 3 145 4 22 1 308 3 635 4 388 1
590 5 580 11 -17 11 -24 12 -32 5z"/>
<path d="M2900 631 c14 -4 88 -4 165 -1 l140 7 -165 0 c-91 1 -154 -2 -140 -6z"/>
<path d="M3287 633 c18 -2 50 -2 70 0 21 2 7 4 -32 4 -38 0 -55 -2 -38 -4z"/>
<path d="M3438 633 c17 -2 47 -2 65 0 17 2 3 4 -33 4 -36 0 -50 -2 -32 -4z"/>
<path d="M3698 633 c12 -2 32 -2 45 0 12 2 2 4 -23 4 -25 0 -35 -2 -22 -4z"/>
<path d="M3898 633 c56 -2 148 -2 205 0 56 1 10 3 -103 3 -113 0 -159 -2 -102
-3z"/>
<path d="M4293 633 c43 -2 110 -2 150 0 40 1 5 3 -78 3 -82 0 -115 -2 -72 -3z"/>
<path d="M4533 633 c9 -2 23 -2 30 0 6 3 -1 5 -18 5 -16 0 -22 -2 -12 -5z"/>
<path d="M4653 633 c42 -2 112 -2 155 0 42 1 7 3 -78 3 -85 0 -120 -2 -77 -3z"/>
<path d="M5378 633 c12 -2 32 -2 45 0 12 2 2 4 -23 4 -25 0 -35 -2 -22 -4z"/>
<path d="M7120 618 c0 -9 47 -10 463 -12 170 -1 294 2 275 6 -46 9 -738 15
-738 6z"/>
<path d="M7910 610 c-10 -6 122 -10 399 -10 228 0 412 2 410 4 -10 10 -795 16
-809 6z"/>
<path d="M9977 577 c-8 -53 6 -99 16 -56 3 13 2 42 -2 64 l-7 40 -7 -48z"/>
<path d="M9100 596 c0 -2 7 -7 16 -10 8 -3 12 -2 9 4 -6 10 -25 14 -25 6z"/>
<path d="M3218 583 c12 -2 30 -2 40 0 9 3 -1 5 -23 4 -22 0 -30 -2 -17 -4z"/>
<path d="M6438 583 c7 -3 16 -2 19 1 4 3 -2 6 -13 5 -11 0 -14 -3 -6 -6z"/>
<path d="M6503 583 c15 -2 39 -2 55 0 15 2 2 4 -28 4 -30 0 -43 -2 -27 -4z"/>
<path d="M6795 580 c307 -9 1314 -9 1175 0 -63 4 -401 7 -750 7 -395 0 -556
-3 -425 -7z"/>
<path d="M2768 573 c6 -2 18 -2 25 0 6 3 1 5 -13 5 -14 0 -19 -2 -12 -5z"/>
<path d="M8188 573 c39 -2 105 -2 145 0 39 1 7 3 -73 3 -80 0 -112 -2 -72 -3z"/>
<path d="M8559 417 c5 -5 26 -7 47 -5 l39 3 -47 5 c-26 3 -43 1 -39 -3z"/>
<path d="M8755 422 c-9 -9 46 -128 90 -197 26 -39 41 -55 54 -55 6 0 11 -6 11
-14 0 -47 110 -63 205 -31 59 21 135 63 135 76 0 5 19 41 42 79 39 67 43 70
78 70 34 0 38 3 42 28 2 16 2 34 0 40 -5 16 -29 15 -36 0 -5 -10 -7 -10 -12 0
-8 17 -41 15 -48 -3 -3 -9 -18 -15 -35 -15 -16 0 -31 6 -35 15 -4 12 -26 15
-111 15 -68 0 -104 -4 -100 -10 3 -5 15 -10 26 -10 11 0 17 -4 14 -10 -10 -16
-33 -12 -56 11 -19 19 -30 20 -140 18 -66 -2 -122 -5 -124 -7z m279 -78 c20
-8 9 -34 -15 -34 -18 0 -26 20 -12 33 8 8 8 8 27 1z"/>
<path d="M9440 415 c0 -13 4 -14 23 -4 33 17 33 19 4 19 -18 0 -27 -5 -27 -15z"/>
<path d="M6064 403 c3 -11 -1 -102 -9 -204 -8 -101 -15 -187 -15 -191 0 -5 8
-8 18 -8 17 0 20 17 33 198 8 108 14 202 14 207 0 6 -11 11 -23 13 -20 3 -23
0 -18 -15z"/>
<path d="M6488 413 l-78 -4 0 -39 c0 -50 16 -51 50 -5 23 32 29 34 78 35 33 0
51 4 47 10 -3 6 -9 9 -13 8 -4 -1 -42 -4 -84 -5z"/>
<path d="M6610 410 c0 -5 7 -10 15 -10 8 0 15 5 15 10 0 6 -7 10 -15 10 -8 0
-15 -4 -15 -10z"/>
<path d="M6694 409 c-14 -6 -10 -8 16 -9 31 -1 70 -19 70 -32 0 -2 20 -27 45
-54 38 -41 115 -172 115 -196 0 -25 44 -118 56 -118 19 0 18 12 -6 63 -10 23
-29 67 -40 97 -12 30 -37 76 -56 102 -19 27 -34 53 -34 59 0 6 -9 24 -21 40
-11 16 -19 36 -16 43 4 9 -9 13 -52 12 -32 0 -66 -3 -77 -7z"/>
<path d="M7213 409 c23 -13 288 -12 301 1 7 7 -48 10 -154 10 -121 -1 -160 -3
-147 -11z"/>
<path d="M7580 400 c-6 -12 -22 -25 -35 -30 -16 -6 -23 -15 -19 -25 13 -32 61
-9 77 38 4 9 17 17 29 17 13 0 30 5 38 10 11 7 2 10 -32 10 -38 0 -50 -4 -58
-20z"/>
<path d="M5468 390 c13 -11 18 -21 12 -25 -5 -3 -10 -25 -9 -48 0 -39 1 -40
11 -17 6 14 17 38 25 54 17 38 18 65 1 48 -15 -15 -32 -16 -23 -2 3 6 -4 10
-17 10 l-23 -1 23 -19z"/>
<path d="M5620 394 c0 -17 22 -14 28 4 2 7 -3 12 -12 12 -9 0 -16 -7 -16 -16z"/>
<path d="M5907 403 c7 -2 15 -20 19 -38 7 -37 34 -70 34 -42 0 23 -40 87 -53
86 -8 0 -8 -2 0 -6z"/>
<path d="M4238 383 c46 -2 118 -2 160 0 42 1 5 3 -83 3 -88 0 -123 -2 -77 -3z"/>
<path d="M3475 370 c-39 -5 -43 -7 -17 -8 18 -1 42 -7 52 -12 16 -8 18 -7 14
4 -4 11 4 16 33 19 38 4 38 4 3 4 -19 0 -57 -3 -85 -7z"/>
<path d="M3700 373 c131 -4 148 -10 95 -33 -22 -10 -47 -14 -55 -10 -21 10
-196 20 -180 10 7 -5 -18 -7 -56 -5 -38 1 -86 3 -106 4 -25 1 -37 5 -35 14 1
9 -74 11 -358 8 -198 -2 -362 -5 -364 -7 -14 -13 29 -14 233 -7 124 4 231 7
236 5 6 -2 10 -10 10 -18 0 -8 14 -17 31 -21 26 -5 28 -8 15 -15 -14 -8 -15
-13 -5 -24 8 -10 23 -12 50 -8 44 7 93 -2 84 -16 -8 -13 295 -13 315 0 17 11
11 12 -47 10 -24 -1 -43 1 -43 4 0 11 51 26 93 28 46 1 160 22 176 33 6 3 53
8 103 10 51 2 104 8 118 13 l25 10 -28 11 c-18 7 -99 10 -220 9 -110 -1 -147
-4 -87 -5z"/>
<path d="M7120 360 c0 -5 4 -10 9 -10 6 0 13 5 16 10 3 6 -1 10 -9 10 -9 0
-16 -4 -16 -10z"/>
<path d="M7185 360 c3 -5 8 -10 11 -10 2 0 4 5 4 10 0 6 -5 10 -11 10 -5 0 -7
-4 -4 -10z"/>
<path d="M4500 350 c0 -5 7 -10 15 -10 8 0 15 5 15 10 0 6 -7 10 -15 10 -8 0
-15 -4 -15 -10z"/>
<path d="M1453 337 c-461 -7 -630 -12 -627 -21 5 -13 196 -12 499 2 110 5 319
11 465 12 146 1 344 6 440 9 l175 8 -160 0 c-88 -1 -444 -5 -792 -10z"/>
<path d="M4230 337 c-19 -6 -65 -10 -102 -10 -65 0 -86 -8 -53 -21 8 -3 15
-11 15 -17 0 -7 -9 -5 -25 5 -14 9 -25 14 -25 10 0 -4 -6 -1 -14 5 -10 8 -20
9 -33 2 -68 -36 -118 -52 -172 -54 -51 -2 -61 1 -61 15 0 14 -5 15 -35 5 -19
-6 -35 -14 -35 -18 0 -9 38 -19 79 -19 19 0 49 -5 67 -12 28 -10 36 -9 51 4
19 17 73 28 138 29 22 1 68 10 102 21 61 20 93 19 93 -2 0 -5 -13 -10 -29 -10
-17 0 -32 -4 -35 -9 -3 -5 -34 -12 -68 -16 -35 -4 -81 -9 -103 -11 -40 -5 -73
-23 -45 -25 20 -1 -45 -18 -97 -25 -28 -3 -52 0 -73 11 -25 13 -75 17 -243 21
-235 6 -289 10 -266 25 16 10 -28 11 -75 0 -28 -6 -28 -6 -8 -24 11 -10 39
-21 61 -24 43 -6 47 -23 5 -23 -36 0 -29 -19 29 -78 102 -103 53 -92 411 -92
204 0 316 4 316 10 0 6 3 9 8 8 13 -5 72 24 72 35 0 6 3 8 6 4 3 -3 14 2 23
11 10 10 27 24 37 33 29 24 94 100 122 141 24 38 36 45 46 30 5 -9 111 -7 125
3 6 3 8 12 5 19 -3 7 2 21 11 30 25 25 -6 21 -39 -5 -19 -15 -37 -20 -61 -17
-19 2 -37 -1 -39 -7 -3 -6 -5 -5 -5 2 -1 6 6 18 14 26 13 13 13 16 -1 21 -21
8 -52 6 -94 -7z"/>
<path d="M5428 303 c-1 -15 -2 -40 -3 -55 -1 -14 -6 -32 -12 -40 -6 -7 -13
-24 -17 -38 l-7 -25 17 22 c9 13 23 23 30 23 8 0 14 4 14 9 0 5 3 17 7 27 4
12 3 15 -5 10 -9 -5 -10 5 -6 37 4 28 2 47 -5 51 -7 5 -12 -3 -13 -21z"/>
<path d="M163 312 l-163 -2 0 -155 0 -155 193 0 c105 0 201 3 212 6 12 3 25
15 30 26 6 12 19 26 30 32 11 6 22 14 25 17 3 4 14 9 25 12 12 4 7 5 -11 4
-30 -3 -30 -3 -17 25 8 15 19 28 24 28 19 0 8 19 -13 23 -20 4 -19 4 5 6 17 1
27 7 27 17 0 13 -9 15 -65 9 -45 -5 -65 -4 -65 4 0 7 21 11 56 11 31 0 53 4
50 9 -4 5 7 15 24 23 16 7 30 19 30 26 0 11 19 13 90 10 50 -1 90 0 90 4 0 4
15 12 33 17 31 10 -176 11 -610 3z m287 -158 c0 -8 -7 -14 -15 -14 -15 0 -21
21 -9 33 10 9 24 -2 24 -19z"/>
<path d="M6576 295 c4 -8 10 -15 15 -15 4 0 6 7 3 15 -4 8 -10 15 -15 15 -4 0
-6 -7 -3 -15z"/>
<path d="M1923 197 c-17 -19 -17 -19 5 -12 18 5 29 0 50 -20 29 -29 38 -22 23
17 -13 34 -54 42 -78 15z"/>
<path d="M9982 195 c0 -16 2 -22 5 -12 2 9 2 23 0 30 -3 6 -5 -1 -5 -18z"/>
<path d="M5912 201 c-9 -5 -11 -17 -6 -34 8 -35 20 -34 27 1 6 31 -2 45 -21
33z"/>
<path d="M7193 198 c2 -7 10 -13 17 -13 7 0 15 6 18 13 2 7 -5 12 -18 12 -13
0 -20 -5 -17 -12z"/>
<path d="M7613 193 c-7 -2 -13 -11 -13 -18 0 -8 -9 -15 -20 -17 -18 -3 -18 -4
4 -14 22 -10 24 -8 34 23 6 18 9 33 9 32 -1 0 -8 -3 -14 -6z"/>
<path d="M5473 163 c5 -33 -8 -63 -27 -63 -8 0 -13 -16 -14 -50 0 -27 3 -50 9
-50 12 0 29 43 29 73 0 12 6 34 13 48 9 16 11 33 6 47 -12 31 -20 27 -16 -5z"/>
<path d="M5580 173 c0 -6 8 -17 18 -24 16 -13 16 -13 2 6 -8 11 -16 22 -17 24
-2 2 -3 0 -3 -6z"/>
<path d="M9305 171 c-11 -5 -29 -18 -39 -30 -16 -17 -18 -27 -10 -49 5 -15 18
-28 29 -30 16 -3 18 -1 8 9 -7 7 -13 20 -13 29 0 24 46 64 65 56 11 -4 15 -2
13 6 -6 16 -27 19 -53 9z"/>
<path d="M1910 159 c0 -5 5 -7 10 -4 6 3 10 8 10 11 0 2 -4 4 -10 4 -5 0 -10
-5 -10 -11z"/>
<path d="M4426 157 c3 -10 9 -15 12 -12 3 3 0 11 -7 18 -10 9 -11 8 -5 -6z"/>
<path d="M5442 150 c0 -14 2 -19 5 -12 2 6 2 18 0 25 -3 6 -5 1 -5 -13z"/>
<path d="M7770 135 c0 -8 5 -15 10 -15 6 0 10 7 10 15 0 8 -4 15 -10 15 -5 0
-10 -7 -10 -15z"/>
<path d="M7840 130 c0 -10 -5 -22 -10 -25 -6 -4 -8 -11 -4 -16 3 -5 10 -6 16
-3 7 5 9 1 5 -9 -3 -9 1 -18 10 -21 22 -9 24 -4 17 42 -7 42 -34 68 -34 32z"/>
<path d="M1890 120 c0 -23 21 -35 72 -43 27 -4 38 -2 42 10 9 23 7 24 -13 11
-26 -16 -87 2 -85 25 1 9 -2 17 -7 17 -5 0 -9 -9 -9 -20z"/>
<path d="M5617 123 c-3 -5 -2 -15 2 -22 7 -10 10 -10 16 -1 4 6 3 16 -3 22 -5
5 -12 6 -15 1z"/>
<path d="M5909 126 c-3 -4 -4 -18 -1 -31 5 -26 26 -33 38 -13 5 7 2 9 -9 5
-11 -4 -17 1 -19 20 -2 13 -6 22 -9 19z"/>
<path d="M7073 113 c9 -9 19 -14 23 -11 10 10 -6 28 -24 28 -15 0 -15 -1 1
-17z"/>
<path d="M4470 100 c0 -5 5 -10 11 -10 5 0 7 5 4 10 -3 6 -8 10 -11 10 -2 0
-4 -4 -4 -10z"/>
<path d="M8058 103 c7 -3 16 -2 19 1 4 3 -2 6 -13 5 -11 0 -14 -3 -6 -6z"/>
<path d="M8910 95 c0 -8 5 -15 10 -15 6 0 10 7 10 15 0 8 -4 15 -10 15 -5 0
-10 -7 -10 -15z"/>
<path d="M4355 90 c-3 -6 1 -7 9 -4 18 7 21 14 7 14 -6 0 -13 -4 -16 -10z"/>
<path d="M4530 86 c0 -9 5 -16 10 -16 6 0 10 4 10 9 0 6 -4 13 -10 16 -5 3
-10 -1 -10 -9z"/>
<path d="M573 73 c-7 -3 -13 -13 -13 -24 0 -11 -7 -22 -15 -25 -23 -9 -18 -24
9 -24 20 0 25 6 28 38 6 43 7 41 -9 35z"/>
<path d="M2230 70 c8 -5 22 -10 30 -10 13 0 13 1 0 10 -8 5 -22 10 -30 10 -13
0 -13 -1 0 -10z"/>
<path d="M5630 70 c-13 -8 -12 -10 3 -10 9 0 17 5 17 10 0 12 -1 12 -20 0z"/>
<path d="M7593 60 c-8 -12 -9 -21 -3 -25 15 -9 30 4 30 26 0 24 -12 24 -27 -1z"/>
<path d="M5590 60 c0 -17 17 -47 23 -40 2 3 -2 16 -10 30 -7 14 -13 18 -13 10z"/>
<path d="M1165 40 c-4 -14 -14 -21 -28 -19 -12 1 -29 -1 -37 -4 -8 -3 -22 -8
-30 -10 -8 -3 13 -6 48 -6 47 -1 62 2 62 13 0 8 5 16 11 18 7 2 6 8 -4 16 -13
11 -16 10 -22 -8z"/>
<path d="M5942 30 c0 -19 2 -27 5 -17 2 9 2 25 0 35 -3 9 -5 1 -5 -18z"/>
<path d="M615 40 c-3 -5 1 -10 9 -10 9 0 16 5 16 10 0 6 -4 10 -9 10 -6 0 -13
-4 -16 -10z"/>
<path d="M1250 21 l-45 -16 37 -3 c21 -2 57 -1 80 1 36 3 39 5 21 11 -13 5
-23 12 -23 17 0 12 -16 10 -70 -10z"/>
<path d="M1387 24 c-13 -13 -7 -24 14 -24 11 0 19 5 17 12 -5 14 -22 21 -31
12z"/>
<path d="M4086 21 c-4 -7 -5 -15 -2 -18 9 -9 19 4 14 18 -4 11 -6 11 -12 0z"/>
<path d="M4220 15 l-45 -13 73 -1 c70 -1 95 10 50 23 -27 7 -21 7 -78 -9z"/>
<path d="M8300 9 c0 -12 37 -12 44 0 3 5 -6 9 -19 9 -14 0 -25 -4 -25 -9z"/>
<path d="M898 3 c12 -2 30 -2 40 0 9 3 -1 5 -23 4 -22 0 -30 -2 -17 -4z"/>
</g>
</svg>
