<svg width="979" height="705" viewBox="0 0 979 705" fill="none" xmlns="http://www.w3.org/2000/svg">
<g filter="url(#filter0_dddd_375_107)">
<mask id="path-1-outside-1_375_107" maskUnits="userSpaceOnUse" x="21.6339" y="20.4659" width="436.134" height="193.597" fill="black">
<rect fill="white" x="21.6339" y="20.4659" width="436.134" height="193.597"/>
<path d="M87.5745 33.0005C99.2583 32.9307 107.172 39.4875 107.246 51.9333L108.049 186.297C108.066 189.091 109.852 190.35 111.376 190.341C113.154 190.33 114.67 189.051 114.653 186.257L113.976 72.9754C113.902 60.5296 124.001 50.3091 136.446 50.2347C144.574 50.1861 151.712 54.4615 155.56 60.7886C159.332 54.4159 166.926 50.0524 175.054 50.0038C187.5 49.9294 197.72 60.0285 197.794 72.4743L198.2 182.71C198.221 186.266 201.031 189.043 204.587 189.022C208.143 189.001 211.175 186.188 211.153 182.632L211.029 161.805L217.633 161.765L217.757 182.593C217.822 193.515 209.238 202.202 198.316 202.267C187.395 202.333 178.707 193.749 178.642 182.827L177.975 71.3228C177.943 65.9889 173.855 61.9492 168.521 61.9811C163.187 62.013 159.148 66.1012 159.18 71.4351L159.722 162.112L140.164 162.228L139.876 71.5505C139.844 66.2166 135.248 62.18 129.914 62.2119C124.58 62.2438 120.54 66.332 120.572 71.6659L121.257 186.218C121.31 195.108 113.99 202.772 105.1 202.825C96.2103 202.878 88.5448 195.304 88.4917 186.414L87.6884 52.0502C87.6504 45.7003 83.0527 41.4097 76.7028 41.4477C58.9231 41.554 49.9023 62.1823 49.9813 75.39C50.0769 91.3918 58.5544 107.343 72.547 111.07C69.7819 115.912 62.7019 121.289 55.082 121.334C39.3343 121.429 32.0751 96.8335 32.0007 84.3877C31.8534 59.7501 49.2212 33.2298 87.5745 33.0005ZM245.01 104.705C236.882 104.753 230.062 111.144 230.111 119.272L230.439 174.135C230.487 182.263 237.385 188.826 245.512 188.777C258.974 188.697 260.12 167.861 260.025 152.114L259.828 119.094C259.779 110.966 253.138 104.656 245.01 104.705ZM275.918 91.3116C284.808 91.2584 292.473 98.8327 292.527 107.723L292.972 182.143C292.993 185.699 295.803 188.476 299.359 188.455C302.915 188.434 305.947 185.622 305.925 182.066L305.801 161.238L312.405 161.199L312.529 182.026C312.595 192.948 304.01 201.636 293.089 201.701C282.167 201.766 273.479 193.182 273.414 182.26L272.969 107.839C272.952 105.046 271.421 103.785 269.643 103.795C268.119 103.804 266.348 105.085 266.365 107.879L266.433 119.309L266.666 158.17C266.795 179.76 261.847 201.888 239.241 202.023C223.748 202.115 211.228 189.744 211.135 174.25L210.808 119.641C210.716 104.148 223.087 91.6274 238.581 91.5348C247.471 91.4816 255.37 95.7525 260.49 102.326C262.738 95.9625 268.806 91.3541 275.918 91.3116ZM352.968 103.805C344.84 103.854 338.276 110.497 338.325 118.625L338.82 201.427L319.516 201.543L318.954 107.565C318.937 104.771 317.152 103.511 315.374 103.522C313.85 103.531 312.079 104.812 312.096 107.606L312.417 161.199L305.813 161.238L305.492 107.645C305.439 98.7552 313.013 91.0898 321.903 91.0366C329.015 90.9941 334.884 95.5311 337.208 101.867C341.998 95.7426 349.335 90.8726 359.495 90.8119C379.56 90.6919 385.971 100.814 386.045 113.26C386.115 124.943 377.298 137.188 377.345 145.062C377.377 150.396 381.462 153.928 394.924 153.847L394.965 160.705C365.502 160.881 357.608 157.626 357.57 151.276C357.523 143.403 369.134 131.141 369.032 114.123C368.996 108.027 365.16 103.732 352.968 103.805ZM394.54 107.113C394.739 97.9673 402.061 90.5574 410.951 90.5043C419.84 90.4511 427.252 98.0269 427.305 106.917L427.75 181.337C427.771 184.893 430.836 187.669 434.392 187.648C437.948 187.627 440.725 184.816 440.704 181.26L440.579 160.432L447.183 160.393L447.308 181.221C447.373 192.142 438.789 200.83 427.867 200.895C416.945 200.96 408.512 192.375 408.446 181.453L408.001 107.032C407.985 104.238 406.199 102.979 404.421 102.99C402.897 102.999 401.127 104.279 401.143 107.073L401.464 160.666L394.86 160.706L394.54 107.113ZM410.87 77.0425C404.52 77.0805 399.154 71.7785 399.116 65.4286C399.078 59.0787 404.38 53.7129 410.73 53.6749C418.35 53.6294 421.941 59.45 421.976 65.2919C422.011 71.1338 418.49 76.9969 410.87 77.0425Z"/>
</mask>
<path d="M87.5745 33.0005C99.2583 32.9307 107.172 39.4875 107.246 51.9333L108.049 186.297C108.066 189.091 109.852 190.35 111.376 190.341C113.154 190.33 114.67 189.051 114.653 186.257L113.976 72.9754C113.902 60.5296 124.001 50.3091 136.446 50.2347C144.574 50.1861 151.712 54.4615 155.56 60.7886C159.332 54.4159 166.926 50.0524 175.054 50.0038C187.5 49.9294 197.72 60.0285 197.794 72.4743L198.2 182.71C198.221 186.266 201.031 189.043 204.587 189.022C208.143 189.001 211.175 186.188 211.153 182.632L211.029 161.805L217.633 161.765L217.757 182.593C217.822 193.515 209.238 202.202 198.316 202.267C187.395 202.333 178.707 193.749 178.642 182.827L177.975 71.3228C177.943 65.9889 173.855 61.9492 168.521 61.9811C163.187 62.013 159.148 66.1012 159.18 71.4351L159.722 162.112L140.164 162.228L139.876 71.5505C139.844 66.2166 135.248 62.18 129.914 62.2119C124.58 62.2438 120.54 66.332 120.572 71.6659L121.257 186.218C121.31 195.108 113.99 202.772 105.1 202.825C96.2103 202.878 88.5448 195.304 88.4917 186.414L87.6884 52.0502C87.6504 45.7003 83.0527 41.4097 76.7028 41.4477C58.9231 41.554 49.9023 62.1823 49.9813 75.39C50.0769 91.3918 58.5544 107.343 72.547 111.07C69.7819 115.912 62.7019 121.289 55.082 121.334C39.3343 121.429 32.0751 96.8335 32.0007 84.3877C31.8534 59.7501 49.2212 33.2298 87.5745 33.0005ZM245.01 104.705C236.882 104.753 230.062 111.144 230.111 119.272L230.439 174.135C230.487 182.263 237.385 188.826 245.512 188.777C258.974 188.697 260.12 167.861 260.025 152.114L259.828 119.094C259.779 110.966 253.138 104.656 245.01 104.705ZM275.918 91.3116C284.808 91.2584 292.473 98.8327 292.527 107.723L292.972 182.143C292.993 185.699 295.803 188.476 299.359 188.455C302.915 188.434 305.947 185.622 305.925 182.066L305.801 161.238L312.405 161.199L312.529 182.026C312.595 192.948 304.01 201.636 293.089 201.701C282.167 201.766 273.479 193.182 273.414 182.26L272.969 107.839C272.952 105.046 271.421 103.785 269.643 103.795C268.119 103.804 266.348 105.085 266.365 107.879L266.433 119.309L266.666 158.17C266.795 179.76 261.847 201.888 239.241 202.023C223.748 202.115 211.228 189.744 211.135 174.25L210.808 119.641C210.716 104.148 223.087 91.6274 238.581 91.5348C247.471 91.4816 255.37 95.7525 260.49 102.326C262.738 95.9625 268.806 91.3541 275.918 91.3116ZM352.968 103.805C344.84 103.854 338.276 110.497 338.325 118.625L338.82 201.427L319.516 201.543L318.954 107.565C318.937 104.771 317.152 103.511 315.374 103.522C313.85 103.531 312.079 104.812 312.096 107.606L312.417 161.199L305.813 161.238L305.492 107.645C305.439 98.7552 313.013 91.0898 321.903 91.0366C329.015 90.9941 334.884 95.5311 337.208 101.867C341.998 95.7426 349.335 90.8726 359.495 90.8119C379.56 90.6919 385.971 100.814 386.045 113.26C386.115 124.943 377.298 137.188 377.345 145.062C377.377 150.396 381.462 153.928 394.924 153.847L394.965 160.705C365.502 160.881 357.608 157.626 357.57 151.276C357.523 143.403 369.134 131.141 369.032 114.123C368.996 108.027 365.16 103.732 352.968 103.805ZM394.54 107.113C394.739 97.9673 402.061 90.5574 410.951 90.5043C419.84 90.4511 427.252 98.0269 427.305 106.917L427.75 181.337C427.771 184.893 430.836 187.669 434.392 187.648C437.948 187.627 440.725 184.816 440.704 181.26L440.579 160.432L447.183 160.393L447.308 181.221C447.373 192.142 438.789 200.83 427.867 200.895C416.945 200.96 408.512 192.375 408.446 181.453L408.001 107.032C407.985 104.238 406.199 102.979 404.421 102.99C402.897 102.999 401.127 104.279 401.143 107.073L401.464 160.666L394.86 160.706L394.54 107.113ZM410.87 77.0425C404.52 77.0805 399.154 71.7785 399.116 65.4286C399.078 59.0787 404.38 53.7129 410.73 53.6749C418.35 53.6294 421.941 59.45 421.976 65.2919C422.011 71.1338 418.49 76.9969 410.87 77.0425Z" fill="white"/>
<path d="M155.56 60.7886L147.016 65.9847C148.841 68.9859 152.107 70.8094 155.62 70.7884C159.132 70.7674 162.376 68.905 164.165 65.8822L155.56 60.7886ZM197.794 72.4743L207.794 72.4375C207.794 72.4299 207.794 72.4222 207.794 72.4145L197.794 72.4743ZM198.2 182.71L188.2 182.747C188.2 182.754 188.2 182.762 188.2 182.77L198.2 182.71ZM211.029 161.805L210.969 151.805C205.446 151.838 200.996 156.342 201.029 161.865L211.029 161.805ZM217.633 161.765L227.632 161.706C227.599 156.183 223.096 151.732 217.573 151.765L217.633 161.765ZM159.722 162.112L159.781 172.111C165.304 172.078 169.755 167.574 169.722 162.052L159.722 162.112ZM140.164 162.228L130.164 162.26C130.173 164.917 131.238 167.462 133.125 169.332C135.013 171.202 137.567 172.244 140.224 172.228L140.164 162.228ZM139.876 71.5505L149.876 71.5188C149.876 71.5094 149.876 71.5001 149.876 71.4908L139.876 71.5505ZM72.547 111.07L81.231 116.028C82.7698 113.333 82.9702 110.077 81.7736 107.214C80.5771 104.351 78.1191 102.205 75.1204 101.407L72.547 111.07ZM87.5745 33.0005L87.6343 43.0004C91.6491 42.9763 93.8545 44.0807 94.9772 45.118C95.9966 46.06 97.222 47.9496 97.2462 51.993L107.246 51.9333L117.246 51.8735C117.196 43.4711 114.427 35.8595 108.55 30.429C102.777 25.094 95.1837 22.9549 87.5147 23.0007L87.5745 33.0005ZM107.246 51.9333L97.2462 51.993L98.0495 186.357L108.049 186.297L118.049 186.237L117.246 51.8735L107.246 51.9333ZM108.049 186.297L98.0495 186.357C98.0965 194.208 103.934 200.386 111.435 200.341L111.376 190.341L111.316 180.341C113.272 180.33 115.074 181.11 116.347 182.43C117.725 183.86 118.044 185.426 118.049 186.237L108.049 186.297ZM111.376 190.341L111.435 200.341C114.774 200.321 118.424 199.049 121.143 196.008C123.806 193.028 124.672 189.378 124.653 186.198L114.653 186.257L104.653 186.317C104.651 185.93 104.767 184.317 106.232 182.678C107.753 180.977 109.755 180.351 111.316 180.341L111.376 190.341ZM114.653 186.257L124.653 186.198L123.976 72.9156L113.976 72.9754L103.976 73.0352L104.653 186.317L114.653 186.257ZM113.976 72.9754L123.976 72.9156C123.934 65.9926 129.583 60.2759 136.506 60.2345L136.446 50.2347L136.387 40.2348C118.418 40.3423 103.869 55.0667 103.976 73.0352L113.976 72.9754ZM136.446 50.2347L136.506 60.2345C141.045 60.2073 144.953 62.593 147.016 65.9847L155.56 60.7886L164.104 55.5924C158.471 46.3299 148.103 40.1648 136.387 40.2348L136.446 50.2347ZM155.56 60.7886L164.165 65.8822C166.061 62.6794 170.324 60.0323 175.113 60.0037L175.054 50.0038L174.994 40.004C163.528 40.0726 152.603 46.1524 146.954 55.695L155.56 60.7886ZM175.054 50.0038L175.113 60.0037C182.037 59.9623 187.753 65.6111 187.795 72.5341L197.794 72.4743L207.794 72.4145C207.687 54.446 192.962 39.8966 174.994 40.004L175.054 50.0038ZM197.794 72.4743L187.795 72.511L188.2 182.747L198.2 182.71L208.199 182.673L207.794 72.4375L197.794 72.4743ZM198.2 182.71L188.2 182.77C188.254 191.848 195.568 199.076 204.647 199.022L204.587 189.022L204.528 179.022C206.494 179.01 208.188 180.683 208.199 182.65L198.2 182.71ZM204.587 189.022L204.647 199.022C213.21 198.97 221.21 192.154 221.153 182.573L211.153 182.632L201.153 182.692C201.139 180.223 203.077 179.031 204.528 179.022L204.587 189.022ZM211.153 182.632L221.153 182.573L221.029 161.745L211.029 161.805L201.029 161.865L201.153 182.692L211.153 182.632ZM211.029 161.805L211.089 171.805L217.692 171.765L217.633 161.765L217.573 151.765L210.969 151.805L211.029 161.805ZM217.633 161.765L207.633 161.825L207.757 182.653L217.757 182.593L227.757 182.533L227.632 161.706L217.633 161.765ZM217.757 182.593L207.757 182.653C207.79 188.052 203.656 192.235 198.257 192.268L198.316 202.267L198.376 212.267C214.821 212.169 227.855 198.978 227.757 182.533L217.757 182.593ZM198.316 202.267L198.257 192.268C192.858 192.3 188.674 188.166 188.642 182.767L178.642 182.827L168.642 182.887C168.74 199.331 181.932 212.366 198.376 212.267L198.316 202.267ZM178.642 182.827L188.642 182.767L187.975 71.263L177.975 71.3228L167.975 71.3825L168.642 182.887L178.642 182.827ZM177.975 71.3228L187.975 71.263C187.91 60.4063 179.318 51.9164 168.461 51.9813L168.521 61.9811L168.581 71.9809C168.635 71.9806 168.597 71.989 168.502 71.9506C168.41 71.9135 168.305 71.8486 168.208 71.753C168.111 71.6573 168.045 71.5527 168.007 71.4613C167.967 71.3666 167.975 71.3287 167.975 71.3825L177.975 71.3228ZM168.521 61.9811L168.461 51.9813C157.605 52.0462 149.115 60.6383 149.18 71.4949L159.18 71.4351L169.179 71.3753C169.179 71.3215 169.187 71.3593 169.149 71.4545C169.112 71.5463 169.047 71.6517 168.951 71.7485C168.856 71.8453 168.751 71.9115 168.66 71.9496C168.565 71.9892 168.527 71.9813 168.581 71.9809L168.521 61.9811ZM159.18 71.4351L149.18 71.4949L149.722 162.171L159.722 162.112L169.722 162.052L169.179 71.3753L159.18 71.4351ZM159.722 162.112L159.662 152.112L140.104 152.229L140.164 162.228L140.224 172.228L159.781 172.111L159.722 162.112ZM140.164 162.228L150.164 162.197L149.876 71.5188L139.876 71.5505L129.876 71.5823L130.164 162.26L140.164 162.228ZM139.876 71.5505L149.876 71.4908C149.807 59.9613 140.013 52.1514 129.854 52.2121L129.914 62.2119L129.974 72.2117C130.104 72.211 130.15 72.2631 130.118 72.233C130.093 72.21 130.03 72.1428 129.971 72.0146C129.907 71.8755 129.877 71.7262 129.876 71.6103L139.876 71.5505ZM129.914 62.2119L129.854 52.2121C118.997 52.277 110.508 60.8691 110.572 71.7257L120.572 71.6659L130.572 71.6062C130.572 71.5524 130.58 71.5901 130.542 71.6853C130.505 71.7771 130.44 71.8825 130.344 71.9793C130.248 72.0762 130.144 72.1423 130.052 72.1804C129.958 72.22 129.92 72.2121 129.974 72.2117L129.914 62.2119ZM120.572 71.6659L110.572 71.7257L111.257 186.278L121.257 186.218L131.257 186.158L130.572 71.6062L120.572 71.6659ZM121.257 186.218L111.257 186.278C111.279 189.846 108.208 192.806 105.04 192.825L105.1 202.825L105.16 212.825C119.772 212.737 131.342 200.369 131.257 186.158L121.257 186.218ZM105.1 202.825L105.04 192.825C101.673 192.845 98.5117 189.721 98.4915 186.354L88.4917 186.414L78.4919 186.474C78.578 200.886 90.7473 212.911 105.16 212.825L105.1 202.825ZM88.4917 186.414L98.4915 186.354L97.6882 51.9904L87.6884 52.0502L77.6886 52.11L78.4919 186.474L88.4917 186.414ZM87.6884 52.0502L97.6882 51.9904C97.6543 46.3227 95.5304 41.003 91.4717 37.1241C87.4452 33.276 82.1174 31.4151 76.643 31.4479L76.7028 41.4477L76.7626 51.4475C77.2143 51.4448 77.4757 51.519 77.5853 51.56C77.691 51.5996 77.6935 51.6211 77.6534 51.5828C77.6109 51.5422 77.5987 51.5089 77.6084 51.5322C77.6194 51.5588 77.6863 51.731 77.6886 52.11L87.6884 52.0502ZM76.7028 41.4477L76.643 31.4479C63.3612 31.5273 53.9289 39.4016 48.2797 48.0267C42.7216 56.5127 39.9303 66.9022 39.9814 75.4498L49.9813 75.39L59.9811 75.3303C59.9532 70.6701 61.6329 64.1416 65.0104 58.9849C68.2968 53.9673 72.2647 51.4744 76.7626 51.4475L76.7028 41.4477ZM49.9813 75.39L39.9814 75.4498C40.0915 93.854 49.8771 115.381 69.9735 120.733L72.547 111.07L75.1204 101.407C67.2318 99.3057 60.0624 88.9295 59.9811 75.3303L49.9813 75.39ZM72.547 111.07L63.8629 106.111C63.4053 106.913 62.1798 108.345 60.261 109.568C58.3904 110.76 56.5332 111.326 55.0222 111.335L55.082 121.334L55.1418 131.334C61.2507 131.298 66.7435 129.152 71.0091 126.434C75.2265 123.747 78.9236 120.069 81.231 116.028L72.547 111.07ZM55.082 121.334L55.0222 111.335C53.1183 111.346 49.9491 109.868 46.6331 103.142C43.5389 96.8655 42.0291 89.105 42.0005 84.3279L32.0007 84.3877L22.0009 84.4475C22.0468 92.1162 24.2037 102.876 28.6947 111.985C32.9637 120.645 41.298 131.417 55.1418 131.334L55.082 121.334ZM32.0007 84.3877L42.0005 84.3279C41.9406 74.2988 45.4568 64.0583 52.6498 56.3756C59.6978 48.8477 70.9072 43.1004 87.6343 43.0004L87.5745 33.0005L87.5147 23.0007C65.8885 23.13 49.2373 30.7574 38.05 42.7064C27.0076 54.5006 21.9136 69.8391 22.0009 84.4475L32.0007 84.3877ZM305.801 161.238L305.741 151.238C300.218 151.271 295.768 155.775 295.801 161.298L305.801 161.238ZM312.405 161.199L322.405 161.139C322.372 155.616 317.868 151.166 312.345 151.199L312.405 161.199ZM260.49 102.326L252.6 108.47C254.846 111.354 258.486 112.783 262.093 112.197C265.701 111.611 268.701 109.103 269.919 105.657L260.49 102.326ZM245.01 104.705L244.95 94.7048C231.754 94.7837 220.026 105.238 220.111 119.332L230.111 119.272L240.11 119.212C240.097 117.051 242.01 114.723 245.07 114.704L245.01 104.705ZM230.111 119.272L220.111 119.332L220.439 174.195L230.439 174.135L240.438 174.075L240.11 119.212L230.111 119.272ZM230.439 174.135L220.439 174.195C220.522 188.066 232.145 198.857 245.572 198.777L245.512 188.777L245.453 178.777C242.624 178.794 240.453 176.46 240.438 174.075L230.439 174.135ZM245.512 188.777L245.572 198.777C251.903 198.739 257.119 196.107 260.89 191.936C264.368 188.089 266.317 183.297 267.501 178.948C269.856 170.299 270.072 159.908 270.025 152.054L260.025 152.114L250.026 152.173C250.073 160.067 249.763 167.967 248.204 173.693C247.431 176.531 246.575 177.947 246.055 178.522C245.828 178.773 245.853 178.775 245.453 178.777L245.512 188.777ZM260.025 152.114L270.025 152.054L269.828 119.034L259.828 119.094L249.828 119.154L250.026 152.173L260.025 152.114ZM259.828 119.094L269.828 119.034C269.745 105.158 258.372 94.6245 244.95 94.7048L245.01 104.705L245.07 114.704C247.903 114.687 249.814 116.775 249.828 119.154L259.828 119.094ZM275.918 91.3116L275.978 101.311C279.345 101.291 282.507 104.415 282.527 107.782L292.527 107.723L302.526 107.663C302.44 93.2502 290.271 81.2256 275.858 81.3117L275.918 91.3116ZM292.527 107.723L282.527 107.782L282.972 182.203L292.972 182.143L302.971 182.083L302.526 107.663L292.527 107.723ZM292.972 182.143L282.972 182.203C283.026 191.282 290.341 198.509 299.419 198.455L299.359 188.455L299.3 178.455C301.266 178.444 302.96 180.117 302.971 182.083L292.972 182.143ZM299.359 188.455L299.419 198.455C307.982 198.404 315.982 191.587 315.925 182.006L305.925 182.066L295.926 182.126C295.911 179.656 297.849 178.464 299.3 178.455L299.359 188.455ZM305.925 182.066L315.925 182.006L315.801 161.178L305.801 161.238L295.801 161.298L295.926 182.126L305.925 182.066ZM305.801 161.238L305.861 171.238L312.464 171.199L312.405 161.199L312.345 151.199L305.741 151.238L305.801 161.238ZM312.405 161.199L302.405 161.258L302.529 182.086L312.529 182.026L322.529 181.967L322.405 161.139L312.405 161.199ZM312.529 182.026L302.529 182.086C302.562 187.485 298.428 191.669 293.029 191.701L293.088 201.701L293.148 211.701C309.593 211.602 322.627 198.411 322.529 181.967L312.529 182.026ZM293.088 201.701L293.029 191.701C287.63 191.733 283.446 187.599 283.414 182.2L273.414 182.26L263.414 182.32C263.512 198.765 276.704 211.799 293.148 211.701L293.088 201.701ZM273.414 182.26L283.414 182.2L282.969 107.78L272.969 107.839L262.969 107.899L263.414 182.32L273.414 182.26ZM272.969 107.839L282.969 107.78C282.95 104.599 282.04 100.959 279.341 98.0123C276.586 95.0034 272.922 93.7755 269.583 93.7955L269.643 103.795L269.703 113.795C268.141 113.804 266.132 113.202 264.591 111.519C263.107 109.898 262.971 108.286 262.969 107.899L272.969 107.839ZM269.643 103.795L269.583 93.7955C262.082 93.8403 256.318 100.087 256.365 107.939L266.365 107.879L276.365 107.819C276.37 108.631 276.069 110.2 274.709 111.646C273.452 112.982 271.659 113.783 269.703 113.795L269.643 103.795ZM266.365 107.879L256.365 107.939L256.434 119.369L266.433 119.309L276.433 119.249L276.365 107.819L266.365 107.879ZM266.433 119.309L256.434 119.369L256.666 158.23L266.666 158.17L276.666 158.11L276.433 119.249L266.433 119.309ZM266.666 158.17L256.666 158.23C256.728 168.579 255.507 177.611 252.501 183.737C251.075 186.645 249.396 188.586 247.529 189.833C245.713 191.045 243.13 191.999 239.182 192.023L239.241 202.023L239.301 212.023C246.656 211.979 253.168 210.116 258.634 206.466C264.048 202.852 267.837 197.886 270.457 192.547C275.544 182.177 276.733 169.351 276.666 158.11L266.666 158.17ZM239.241 202.023L239.182 192.023C229.211 192.083 221.194 184.162 221.135 174.191L211.135 174.25L201.135 174.31C201.261 195.327 218.285 212.148 239.301 212.023L239.241 202.023ZM211.135 174.25L221.135 174.191L220.808 119.582L210.808 119.641L200.809 119.701L201.135 174.31L211.135 174.25ZM210.808 119.641L220.808 119.582C220.749 109.611 228.67 101.594 238.641 101.535L238.581 91.5348L238.521 81.535C217.505 81.6606 200.683 98.6846 200.809 119.701L210.808 119.641ZM238.581 91.5348L238.641 101.535C244.188 101.501 249.237 104.152 252.6 108.47L260.49 102.326L268.379 96.1816C261.504 87.3529 250.754 81.4618 238.521 81.535L238.581 91.5348ZM260.49 102.326L269.919 105.657C270.816 103.117 273.242 101.328 275.978 101.311L275.918 91.3116L275.858 81.3117C264.37 81.3804 254.66 88.808 251.061 98.9951L260.49 102.326ZM338.82 201.427L338.879 211.427C344.402 211.394 348.852 206.89 348.819 201.368L338.82 201.427ZM319.516 201.543L309.516 201.603C309.549 207.125 314.053 211.576 319.576 211.543L319.516 201.543ZM312.417 161.199L312.476 171.198C317.999 171.165 322.449 166.662 322.416 161.139L312.417 161.199ZM305.813 161.238L295.813 161.298C295.846 166.821 300.35 171.271 305.873 171.238L305.813 161.238ZM337.208 101.867L327.82 105.311C329.07 108.719 332.068 111.182 335.654 111.746C339.24 112.31 342.85 110.887 345.086 108.027L337.208 101.867ZM394.924 153.847L404.924 153.787C404.891 148.265 400.387 143.814 394.864 143.847L394.924 153.847ZM394.965 160.705L395.025 170.705C400.548 170.672 404.998 166.168 404.965 160.645L394.965 160.705ZM352.968 103.805L352.908 93.8053C339.258 93.8869 328.243 105.034 328.325 118.685L338.325 118.625L348.324 118.565C348.309 115.96 350.423 113.821 353.028 113.805L352.968 103.805ZM338.325 118.625L328.325 118.685L328.82 201.487L338.82 201.427L348.819 201.368L348.324 118.565L338.325 118.625ZM338.82 201.427L338.76 191.428L319.456 191.543L319.516 201.543L319.576 211.543L338.879 211.427L338.82 201.427ZM319.516 201.543L329.516 201.483L328.954 107.505L318.954 107.565L308.954 107.624L309.516 201.603L319.516 201.543ZM318.954 107.565L328.954 107.505C328.932 103.899 327.704 100.195 324.853 97.3783C322.091 94.6493 318.553 93.5027 315.314 93.5221L315.374 103.522L315.434 113.522C313.973 113.53 312.216 113.008 310.796 111.605C309.286 110.113 308.959 108.436 308.954 107.624L318.954 107.565ZM315.374 103.522L315.314 93.5221C307.813 93.5669 302.049 99.814 302.096 107.665L312.096 107.606L322.096 107.546C322.101 108.357 321.8 109.927 320.44 111.373C319.183 112.708 317.39 113.51 315.434 113.522L315.374 103.522ZM312.096 107.606L302.096 107.665L302.417 161.258L312.417 161.199L322.416 161.139L322.096 107.546L312.096 107.606ZM312.417 161.199L312.357 151.199L305.753 151.238L305.813 161.238L305.873 171.238L312.476 171.198L312.417 161.199ZM305.813 161.238L315.813 161.178L315.492 107.585L305.492 107.645L295.492 107.705L295.813 161.298L305.813 161.238ZM305.492 107.645L315.492 107.585C315.472 104.218 318.596 101.057 321.963 101.036L321.903 91.0366L321.844 81.0368C307.431 81.123 295.406 93.2922 295.492 107.705L305.492 107.645ZM321.903 91.0366L321.963 101.036C324.518 101.021 326.827 102.605 327.82 105.311L337.208 101.867L346.597 98.4239C342.941 88.4576 333.512 80.9671 321.844 81.0368L321.903 91.0366ZM337.208 101.867L345.086 108.027C348.341 103.865 352.973 100.851 359.554 100.812L359.495 90.8119L359.435 80.8121C345.696 80.8942 335.655 87.6199 329.331 95.7073L337.208 101.867ZM359.495 90.8119L359.554 100.812C368.011 100.761 371.652 102.87 373.238 104.437C374.829 106.009 376.018 108.682 376.045 113.319L386.045 113.26L396.045 113.2C395.998 105.391 393.945 96.7809 387.295 90.2104C380.641 83.6352 371.044 80.7427 359.435 80.8121L359.495 90.8119ZM386.045 113.26L376.045 113.319C376.067 116.961 374.658 121.245 372.412 126.894C371.408 129.417 370.148 132.453 369.215 135.23C368.296 137.966 367.324 141.471 367.345 145.122L377.345 145.062L387.345 145.002C387.343 144.716 387.455 143.738 388.174 141.599C388.879 139.5 389.81 137.268 390.996 134.285C393.129 128.922 396.093 121.242 396.045 113.2L386.045 113.26ZM377.345 145.062L367.345 145.122C367.361 147.732 367.882 150.683 369.463 153.54C371.069 156.439 373.427 158.627 376.156 160.178C381.206 163.049 387.772 163.89 394.984 163.847L394.924 153.847L394.864 143.847C391.904 143.865 389.759 143.68 388.246 143.412C386.711 143.14 386.113 142.833 386.041 142.792C386.026 142.783 386.158 142.856 386.356 143.05C386.56 143.249 386.777 143.521 386.961 143.853C387.347 144.55 387.345 145.059 387.345 145.002L377.345 145.062ZM394.924 153.847L384.924 153.907L384.965 160.765L394.965 160.705L404.965 160.645L404.924 153.787L394.924 153.847ZM394.965 160.705L394.905 150.705C380.202 150.793 372.113 149.98 367.93 148.809C365.882 148.235 365.818 147.848 366.326 148.352C367.192 149.21 367.565 150.442 367.57 151.217L357.57 151.276L347.57 151.336C347.594 155.286 348.968 159.306 352.245 162.555C355.165 165.449 358.923 167.056 362.536 168.068C369.675 170.067 380.265 170.793 395.025 170.705L394.965 160.705ZM357.57 151.276L367.57 151.217C367.571 151.437 367.552 150.805 368.548 148.479C369.569 146.094 370.68 144.005 372.383 140.36C375.431 133.832 379.097 124.856 379.032 114.064L369.032 114.123L359.032 114.183C359.07 120.408 356.981 126.072 354.261 131.898C353.079 134.429 351.302 137.946 350.163 140.606C348.998 143.326 347.545 147.179 347.57 151.336L357.57 151.276ZM369.032 114.123L379.032 114.064C379 108.74 377.152 102.758 371.477 98.5908C366.438 94.89 359.846 93.7638 352.908 93.8053L352.968 103.805L353.028 113.805C355.523 113.79 357.224 114.004 358.328 114.264C359.423 114.521 359.725 114.774 359.639 114.711C359.484 114.597 359.228 114.32 359.072 113.965C358.949 113.686 359.029 113.679 359.032 114.183L369.032 114.123ZM394.54 107.113L384.542 106.895C384.54 106.987 384.539 107.08 384.54 107.172L394.54 107.113ZM440.579 160.432L440.519 150.433C434.997 150.466 430.546 154.969 430.579 160.492L440.579 160.432ZM447.183 160.393L457.183 160.333C457.15 154.81 452.646 150.36 447.123 150.393L447.183 160.393ZM401.464 160.666L401.524 170.666C407.046 170.633 411.497 166.129 411.464 160.606L401.464 160.666ZM394.86 160.706L384.86 160.765C384.893 166.288 389.397 170.739 394.92 170.706L394.86 160.706ZM394.54 107.113L404.537 107.331C404.624 103.339 407.791 100.523 411.01 100.504L410.951 90.5043L410.891 80.5044C396.33 80.5915 384.854 92.596 384.542 106.895L394.54 107.113ZM410.951 90.5043L411.01 100.504C414.178 100.485 417.284 103.408 417.305 106.977L427.305 106.917L437.305 106.857C437.22 92.6461 425.503 80.4171 410.891 80.5044L410.951 90.5043ZM427.305 106.917L417.305 106.977L417.75 181.397L427.75 181.337L437.75 181.278L437.305 106.857L427.305 106.917ZM427.75 181.337L417.75 181.397C417.807 190.978 425.889 197.699 434.452 197.648L434.392 187.648L434.332 177.648C435.782 177.639 437.735 178.808 437.75 181.278L427.75 181.337ZM434.392 187.648L434.452 197.648C443.53 197.593 450.758 190.279 450.703 181.2L440.704 181.26L430.704 181.32C430.692 179.353 432.365 177.66 434.332 177.648L434.392 187.648ZM440.704 181.26L450.703 181.2L450.579 160.373L440.579 160.432L430.579 160.492L430.704 181.32L440.704 181.26ZM440.579 160.432L440.639 170.432L447.243 170.393L447.183 160.393L447.123 150.393L440.519 150.433L440.579 160.432ZM447.183 160.393L437.183 160.453L437.308 181.28L447.308 181.221L457.307 181.161L457.183 160.333L447.183 160.393ZM447.308 181.221L437.308 181.28C437.34 186.679 433.206 190.863 427.807 190.895L427.867 200.895L427.927 210.895C444.371 210.797 457.406 197.605 457.307 181.161L447.308 181.221ZM427.867 200.895L427.807 190.895C422.579 190.927 418.479 186.964 418.446 181.393L408.446 181.453L398.446 181.513C398.544 197.785 411.311 210.994 427.927 210.895L427.867 200.895ZM408.446 181.453L418.446 181.393L418.001 106.972L408.001 107.032L398.001 107.092L398.446 181.513L408.446 181.453ZM408.001 107.032L418.001 106.972C417.98 103.367 416.751 99.6631 413.9 96.8459C411.139 94.1169 407.6 92.9703 404.361 92.9897L404.421 102.99L404.481 112.989C403.02 112.998 401.263 112.476 399.843 111.072C398.333 109.581 398.006 107.903 398.001 107.092L408.001 107.032ZM404.421 102.99L404.361 92.9897C396.86 93.0345 391.097 99.2816 391.144 107.133L401.143 107.073L411.143 107.013C411.148 107.825 410.847 109.394 409.487 110.84C408.23 112.176 406.437 112.978 404.481 112.989L404.421 102.99ZM401.143 107.073L391.144 107.133L391.464 160.726L401.464 160.666L411.464 160.606L411.143 107.013L401.143 107.073ZM401.464 160.666L401.404 150.666L394.8 150.706L394.86 160.706L394.92 170.706L401.524 170.666L401.464 160.666ZM394.86 160.706L404.86 160.646L404.539 107.053L394.54 107.113L384.54 107.172L384.86 160.765L394.86 160.706ZM410.87 77.0425L410.81 67.0427C410.48 67.0447 410.05 66.908 409.655 66.5178C409.26 66.1275 409.118 65.699 409.116 65.3688L399.116 65.4286L389.117 65.4883C389.188 77.361 399.057 87.1133 410.93 87.0423L410.87 77.0425ZM399.116 65.4286L409.116 65.3688C409.114 65.0385 409.251 64.6084 409.641 64.2134C410.031 63.8185 410.46 63.6767 410.79 63.6747L410.73 53.6749L410.671 43.6751C398.798 43.7461 389.046 53.6157 389.117 65.4883L399.116 65.4286ZM410.73 53.6749L410.79 63.6747C411.102 63.6729 411.31 63.7013 411.431 63.7256C411.55 63.7496 411.604 63.7733 411.612 63.7767C411.619 63.7801 411.608 63.7756 411.591 63.7625C411.575 63.7503 411.572 63.7445 411.581 63.7558C411.602 63.7803 411.701 63.9087 411.8 64.2C411.899 64.4952 411.973 64.8908 411.976 65.3517L421.976 65.2919L431.976 65.2321C431.947 60.4059 430.461 55.0824 426.814 50.7954C422.96 46.2662 417.299 43.6355 410.671 43.6751L410.73 53.6749ZM421.976 65.2919L411.976 65.3517C411.979 65.8125 411.909 66.209 411.813 66.5054C411.719 66.7978 411.621 66.9274 411.6 66.9522C411.591 66.9635 411.594 66.9578 411.61 66.9453C411.627 66.932 411.638 66.9274 411.631 66.9309C411.623 66.9344 411.569 66.9588 411.45 66.9842C411.329 67.0099 411.122 67.0408 410.81 67.0427L410.87 77.0425L410.93 87.0423C417.558 87.0027 423.188 84.3044 426.987 79.7295C430.583 75.3991 432.005 70.0583 431.976 65.2321L421.976 65.2919Z" fill="url(#paint0_linear_375_107)" mask="url(#path-1-outside-1_375_107)"/>
<mask id="path-3-outside-2_375_107" maskUnits="userSpaceOnUse" x="22.0823" y="184.971" width="680.572" height="269.055" fill="black">
<rect fill="white" x="22.0823" y="184.971" width="680.572" height="269.055"/>
<path d="M88.0229 198.964C99.7067 198.895 107.62 205.451 107.694 217.897L108.498 352.261C108.514 355.055 110.3 356.314 111.824 356.305C113.602 356.294 115.118 355.015 115.102 352.221L114.424 238.939C114.35 226.493 124.449 216.273 136.895 216.198C145.023 216.15 152.16 220.425 156.008 226.752C159.78 220.38 167.374 216.016 175.502 215.968C187.948 215.893 198.168 225.992 198.243 238.438L198.648 348.674C198.669 352.23 201.48 355.007 205.036 354.986C208.592 354.964 211.623 352.152 211.602 348.596L211.477 327.769L218.081 327.729L218.206 348.557C218.271 359.479 209.687 368.166 198.765 368.231C187.843 368.297 179.156 359.712 179.09 348.791L178.424 237.287C178.392 231.953 174.304 227.913 168.97 227.945C163.636 227.977 159.596 232.065 159.628 237.399L160.17 328.075L140.612 328.192L140.324 237.514C140.292 232.18 135.696 228.144 130.362 228.176C125.028 228.208 120.989 232.296 121.021 237.63L121.705 352.182C121.759 361.072 114.438 368.735 105.548 368.789C96.6587 368.842 88.9932 361.267 88.9401 352.378L88.1368 218.014C88.0988 211.664 83.5011 207.374 77.1512 207.412C59.3715 207.518 50.3507 228.146 50.4296 241.354C50.5253 257.356 59.0028 273.307 72.9954 277.034C70.2303 281.876 63.1503 287.253 55.5304 287.298C39.7827 287.392 32.5235 262.797 32.4491 250.352C32.3018 225.714 49.6696 199.194 88.0229 198.964ZM245.458 270.668C237.33 270.717 230.51 277.108 230.559 285.236L230.887 340.099C230.936 348.227 237.833 354.79 245.961 354.741C259.423 354.66 260.568 333.825 260.474 318.078L260.276 285.058C260.228 276.93 253.586 270.62 245.458 270.668ZM276.367 257.275C285.256 257.222 292.922 264.797 292.975 273.686L293.42 348.107C293.441 351.663 296.252 354.44 299.808 354.419C303.364 354.398 306.395 351.586 306.374 348.03L306.249 327.202L312.853 327.163L312.978 347.99C313.043 358.912 304.459 367.599 293.537 367.665C282.615 367.73 273.928 359.146 273.862 348.224L273.417 273.803C273.401 271.009 271.869 269.749 270.091 269.759C268.567 269.768 266.797 271.049 266.813 273.843L266.882 285.273L267.114 324.134C267.243 345.724 262.295 367.852 239.69 367.987C224.196 368.079 211.676 355.708 211.583 340.214L211.257 285.605C211.164 270.111 223.536 257.591 239.029 257.499C247.919 257.445 255.819 261.716 260.938 268.29C263.186 261.926 269.255 257.318 276.367 257.275ZM340.21 270.102C332.082 270.151 325.263 276.541 325.311 284.669L325.639 339.532C325.688 347.66 332.585 354.223 340.713 354.174C354.175 354.094 355.322 333.513 355.229 318.019L355.029 284.492C354.98 276.364 348.338 270.053 340.21 270.102ZM388.289 367.098C376.605 367.168 368.69 360.357 368.616 347.912L367.813 213.548C367.798 211.008 366.266 209.747 364.488 209.758C362.964 209.767 361.194 211.047 361.209 213.587L361.886 326.869C362.008 347.189 355.524 367.294 334.442 367.42C318.948 367.513 306.428 355.141 306.336 339.648L306.009 285.039C305.916 269.545 318.288 257.025 333.781 256.932C342.417 256.881 349.806 260.646 354.922 266.712L354.605 213.627C354.552 204.737 361.874 197.327 370.763 197.274C379.653 197.221 387.317 204.541 387.37 213.431L388.172 347.541C388.193 351.097 391.004 353.874 394.56 353.853C398.116 353.831 401.147 351.019 401.126 347.463L401.001 326.636L407.605 326.596L407.73 347.424C407.795 358.345 399.211 367.033 388.289 367.098ZM434.963 269.535C426.835 269.584 420.015 275.975 420.063 284.103L420.391 338.966C420.44 347.094 427.337 353.657 435.465 353.608C448.927 353.527 450.072 332.692 449.978 316.945L449.781 283.925C449.732 275.797 443.09 269.487 434.963 269.535ZM465.871 256.142C474.761 256.089 482.426 263.664 482.479 272.553L482.924 346.974C482.946 350.53 485.756 353.307 489.312 353.286C492.868 353.265 495.899 350.453 495.878 346.897L495.754 326.069L502.358 326.03L502.482 346.857C502.547 357.779 493.963 366.466 483.041 366.532C472.12 366.597 463.432 358.013 463.367 347.091L462.922 272.67C462.905 269.876 461.374 268.616 459.596 268.626C458.072 268.635 456.301 269.916 456.318 272.71L456.386 284.14L456.619 323.001C456.748 344.591 451.8 366.719 429.194 366.854C413.701 366.946 401.18 354.575 401.088 339.081L400.761 284.472C400.669 268.978 413.04 256.458 428.534 256.366C437.424 256.313 445.323 260.583 450.443 267.157C452.691 260.793 458.759 256.185 465.871 256.142ZM511.856 255.868C518.968 255.825 524.837 260.362 527.161 266.698C532.202 260.064 540.558 255.696 549.447 255.643C564.941 255.55 577.46 267.668 577.552 283.161L577.931 346.406C577.952 349.962 580.509 352.741 584.064 352.72C587.62 352.698 590.652 349.886 590.63 346.33L590.506 325.503L597.11 325.463L597.234 346.291C597.3 357.212 588.969 365.898 578.048 365.964C567.126 366.029 558.184 357.446 558.119 346.525L557.741 283.28C557.692 275.152 551.049 268.587 542.921 268.636C534.793 268.685 528.229 275.328 528.277 283.456L528.772 366.258L509.469 366.374L508.907 272.395C508.89 269.601 507.105 268.342 505.327 268.353C503.803 268.362 502.032 269.642 502.049 272.436L502.369 326.029L495.766 326.069L495.445 272.476C495.392 263.586 502.966 255.921 511.856 255.868ZM650.45 365.785C643.862 368.618 634.249 375.026 634.318 386.71L634.508 418.459C634.54 423.793 638.628 427.833 643.962 427.801C649.296 427.769 653.336 423.681 653.304 418.347L652.984 364.754L650.45 365.785ZM650.406 358.419L652.939 357.388L652.417 270.013C652.4 267.219 650.869 265.959 649.091 265.969C647.567 265.978 645.797 267.259 645.813 270.053L646.114 320.344C646.273 347.014 627.572 362.874 611.824 362.968C600.394 363.036 590.694 354.966 590.583 336.424L590.257 281.815C590.164 266.322 602.535 253.801 618.029 253.709C626.919 253.656 634.819 257.926 639.938 264.5C642.186 258.136 648.254 253.528 655.366 253.485C664.256 253.432 671.922 261.007 671.975 269.896L672.724 352.697C680.835 349.855 685.383 345.764 685.308 333.318L685.247 323.158L691.851 323.119L691.912 333.278C692.006 349.026 683.921 356.187 672.512 359.811L672.856 417.214C672.93 429.66 663.085 439.879 650.639 439.953C638.193 440.027 627.973 429.928 627.898 417.483L627.718 387.257C627.622 371.255 642.047 362.279 650.406 358.419ZM624.458 266.879C616.33 266.927 609.51 273.318 609.559 281.446L609.887 336.309C609.943 345.707 616.322 350.495 622.926 350.455C638.419 350.363 639.575 331.305 639.469 313.526L639.276 281.268C639.228 273.14 632.586 266.83 624.458 266.879Z"/>
</mask>
<path d="M88.0229 198.964C99.7067 198.895 107.62 205.451 107.694 217.897L108.498 352.261C108.514 355.055 110.3 356.314 111.824 356.305C113.602 356.294 115.118 355.015 115.102 352.221L114.424 238.939C114.35 226.493 124.449 216.273 136.895 216.198C145.023 216.15 152.16 220.425 156.008 226.752C159.78 220.38 167.374 216.016 175.502 215.968C187.948 215.893 198.168 225.992 198.243 238.438L198.648 348.674C198.669 352.23 201.48 355.007 205.036 354.986C208.592 354.964 211.623 352.152 211.602 348.596L211.477 327.769L218.081 327.729L218.206 348.557C218.271 359.479 209.687 368.166 198.765 368.231C187.843 368.297 179.156 359.712 179.09 348.791L178.424 237.287C178.392 231.953 174.304 227.913 168.97 227.945C163.636 227.977 159.596 232.065 159.628 237.399L160.17 328.075L140.612 328.192L140.324 237.514C140.292 232.18 135.696 228.144 130.362 228.176C125.028 228.208 120.989 232.296 121.021 237.63L121.705 352.182C121.759 361.072 114.438 368.735 105.548 368.789C96.6587 368.842 88.9932 361.267 88.9401 352.378L88.1368 218.014C88.0988 211.664 83.5011 207.374 77.1512 207.412C59.3715 207.518 50.3507 228.146 50.4296 241.354C50.5253 257.356 59.0028 273.307 72.9954 277.034C70.2303 281.876 63.1503 287.253 55.5304 287.298C39.7827 287.392 32.5235 262.797 32.4491 250.352C32.3018 225.714 49.6696 199.194 88.0229 198.964ZM245.458 270.668C237.33 270.717 230.51 277.108 230.559 285.236L230.887 340.099C230.936 348.227 237.833 354.79 245.961 354.741C259.423 354.66 260.568 333.825 260.474 318.078L260.276 285.058C260.228 276.93 253.586 270.62 245.458 270.668ZM276.367 257.275C285.256 257.222 292.922 264.797 292.975 273.686L293.42 348.107C293.441 351.663 296.252 354.44 299.808 354.419C303.364 354.398 306.395 351.586 306.374 348.03L306.249 327.202L312.853 327.163L312.978 347.99C313.043 358.912 304.459 367.599 293.537 367.665C282.615 367.73 273.928 359.146 273.862 348.224L273.417 273.803C273.401 271.009 271.869 269.749 270.091 269.759C268.567 269.768 266.797 271.049 266.813 273.843L266.882 285.273L267.114 324.134C267.243 345.724 262.295 367.852 239.69 367.987C224.196 368.079 211.676 355.708 211.583 340.214L211.257 285.605C211.164 270.111 223.536 257.591 239.029 257.499C247.919 257.445 255.819 261.716 260.938 268.29C263.186 261.926 269.255 257.318 276.367 257.275ZM340.21 270.102C332.082 270.151 325.263 276.541 325.311 284.669L325.639 339.532C325.688 347.66 332.585 354.223 340.713 354.174C354.175 354.094 355.322 333.513 355.229 318.019L355.029 284.492C354.98 276.364 348.338 270.053 340.21 270.102ZM388.289 367.098C376.605 367.168 368.69 360.357 368.616 347.912L367.813 213.548C367.798 211.008 366.266 209.747 364.488 209.758C362.964 209.767 361.194 211.047 361.209 213.587L361.886 326.869C362.008 347.189 355.524 367.294 334.442 367.42C318.948 367.513 306.428 355.141 306.336 339.648L306.009 285.039C305.916 269.545 318.288 257.025 333.781 256.932C342.417 256.881 349.806 260.646 354.922 266.712L354.605 213.627C354.552 204.737 361.874 197.327 370.763 197.274C379.653 197.221 387.317 204.541 387.37 213.431L388.172 347.541C388.193 351.097 391.004 353.874 394.56 353.853C398.116 353.831 401.147 351.019 401.126 347.463L401.001 326.636L407.605 326.596L407.73 347.424C407.795 358.345 399.211 367.033 388.289 367.098ZM434.963 269.535C426.835 269.584 420.015 275.975 420.063 284.103L420.391 338.966C420.44 347.094 427.337 353.657 435.465 353.608C448.927 353.527 450.072 332.692 449.978 316.945L449.781 283.925C449.732 275.797 443.09 269.487 434.963 269.535ZM465.871 256.142C474.761 256.089 482.426 263.664 482.479 272.553L482.924 346.974C482.946 350.53 485.756 353.307 489.312 353.286C492.868 353.265 495.899 350.453 495.878 346.897L495.754 326.069L502.358 326.03L502.482 346.857C502.547 357.779 493.963 366.466 483.041 366.532C472.12 366.597 463.432 358.013 463.367 347.091L462.922 272.67C462.905 269.876 461.374 268.616 459.596 268.626C458.072 268.635 456.301 269.916 456.318 272.71L456.386 284.14L456.619 323.001C456.748 344.591 451.8 366.719 429.194 366.854C413.701 366.946 401.18 354.575 401.088 339.081L400.761 284.472C400.669 268.978 413.04 256.458 428.534 256.366C437.424 256.313 445.323 260.583 450.443 267.157C452.691 260.793 458.759 256.185 465.871 256.142ZM511.856 255.868C518.968 255.825 524.837 260.362 527.161 266.698C532.202 260.064 540.558 255.696 549.447 255.643C564.941 255.55 577.46 267.668 577.552 283.161L577.931 346.406C577.952 349.962 580.509 352.741 584.064 352.72C587.62 352.698 590.652 349.886 590.63 346.33L590.506 325.503L597.11 325.463L597.234 346.291C597.3 357.212 588.969 365.898 578.048 365.964C567.126 366.029 558.184 357.446 558.119 346.525L557.741 283.28C557.692 275.152 551.049 268.587 542.921 268.636C534.793 268.685 528.229 275.328 528.277 283.456L528.772 366.258L509.469 366.374L508.907 272.395C508.89 269.601 507.105 268.342 505.327 268.353C503.803 268.362 502.032 269.642 502.049 272.436L502.369 326.029L495.766 326.069L495.445 272.476C495.392 263.586 502.966 255.921 511.856 255.868ZM650.45 365.785C643.862 368.618 634.249 375.026 634.318 386.71L634.508 418.459C634.54 423.793 638.628 427.833 643.962 427.801C649.296 427.769 653.336 423.681 653.304 418.347L652.984 364.754L650.45 365.785ZM650.406 358.419L652.939 357.388L652.417 270.013C652.4 267.219 650.869 265.959 649.091 265.969C647.567 265.978 645.797 267.259 645.813 270.053L646.114 320.344C646.273 347.014 627.572 362.874 611.824 362.968C600.394 363.036 590.694 354.966 590.583 336.424L590.257 281.815C590.164 266.322 602.535 253.801 618.029 253.709C626.919 253.656 634.819 257.926 639.938 264.5C642.186 258.136 648.254 253.528 655.366 253.485C664.256 253.432 671.922 261.007 671.975 269.896L672.724 352.697C680.835 349.855 685.383 345.764 685.308 333.318L685.247 323.158L691.851 323.119L691.912 333.278C692.006 349.026 683.921 356.187 672.512 359.811L672.856 417.214C672.93 429.66 663.085 439.879 650.639 439.953C638.193 440.027 627.973 429.928 627.898 417.483L627.718 387.257C627.622 371.255 642.047 362.279 650.406 358.419ZM624.458 266.879C616.33 266.927 609.51 273.318 609.559 281.446L609.887 336.309C609.943 345.707 616.322 350.495 622.926 350.455C638.419 350.363 639.575 331.305 639.469 313.526L639.276 281.268C639.228 273.14 632.586 266.83 624.458 266.879Z" fill="white"/>
<path d="M156.008 226.752L147.464 231.949C149.289 234.95 152.555 236.773 156.068 236.752C159.581 236.731 162.825 234.869 164.614 231.846L156.008 226.752ZM198.243 238.438L208.243 238.401C208.243 238.394 208.243 238.386 208.243 238.378L198.243 238.438ZM198.648 348.674L188.648 348.71C188.648 348.718 188.648 348.726 188.648 348.733L198.648 348.674ZM211.477 327.769L211.417 317.769C205.895 317.802 201.444 322.306 201.477 327.828L211.477 327.769ZM218.081 327.729L228.081 327.669C228.048 322.147 223.544 317.696 218.021 317.729L218.081 327.729ZM160.17 328.075L160.23 338.075C165.753 338.042 170.203 333.538 170.17 328.016L160.17 328.075ZM140.612 328.192L130.612 328.224C130.621 330.881 131.686 333.425 133.574 335.296C135.461 337.166 138.015 338.208 140.672 338.192L140.612 328.192ZM140.324 237.514L150.324 237.483C150.324 237.473 150.324 237.464 150.324 237.455L140.324 237.514ZM72.9954 277.034L81.6794 281.992C83.2181 279.297 83.4186 276.041 82.222 273.178C81.0255 270.314 78.5675 268.169 75.5688 267.37L72.9954 277.034ZM88.0229 198.964L88.0827 208.964C92.0975 208.94 94.3029 210.045 95.4256 211.082C96.445 212.024 97.6704 213.913 97.6946 217.957L107.694 217.897L117.694 217.837C117.644 209.435 114.876 201.823 108.999 196.393C103.225 191.058 95.6321 188.919 87.9631 188.965L88.0229 198.964ZM107.694 217.897L97.6946 217.957L98.4979 352.32L108.498 352.261L118.498 352.201L117.694 217.837L107.694 217.897ZM108.498 352.261L98.4979 352.32C98.5449 360.172 104.383 366.35 111.884 366.305L111.824 356.305L111.764 346.305C113.721 346.293 115.523 347.074 116.796 348.394C118.173 349.824 118.493 351.389 118.498 352.201L108.498 352.261ZM111.824 356.305L111.884 366.305C115.223 366.285 118.872 365.013 121.591 361.971C124.254 358.992 125.12 355.342 125.101 352.161L115.102 352.221L105.102 352.281C105.099 351.894 105.216 350.281 106.68 348.642C108.201 346.941 110.203 346.314 111.764 346.305L111.824 356.305ZM115.102 352.221L125.101 352.161L124.424 238.879L114.424 238.939L104.425 238.999L105.102 352.281L115.102 352.221ZM114.424 238.939L124.424 238.879C124.383 231.956 130.032 226.24 136.955 226.198L136.895 216.199L136.835 206.199C118.866 206.306 104.317 221.031 104.425 238.999L114.424 238.939ZM136.895 216.199L136.955 226.198C141.494 226.171 145.402 228.557 147.464 231.949L156.008 226.752L164.552 221.556C158.919 212.294 148.552 206.129 136.835 206.199L136.895 216.199ZM156.008 226.752L164.614 231.846C166.509 228.643 170.772 225.996 175.562 225.968L175.502 215.968L175.442 205.968C163.976 206.036 153.051 212.116 147.403 221.659L156.008 226.752ZM175.502 215.968L175.562 225.968C182.485 225.926 188.202 231.575 188.243 238.498L198.243 238.438L208.243 238.378C208.135 220.41 193.411 205.86 175.442 205.968L175.502 215.968ZM198.243 238.438L188.243 238.475L188.648 348.71L198.648 348.674L208.648 348.637L208.243 238.401L198.243 238.438ZM198.648 348.674L188.648 348.733C188.702 357.812 196.017 365.04 205.096 364.985L205.036 354.986L204.976 344.986C206.943 344.974 208.636 346.647 208.648 348.614L198.648 348.674ZM205.036 354.986L205.096 364.985C213.658 364.934 221.659 358.118 221.601 348.536L211.602 348.596L201.602 348.656C201.587 346.187 203.525 344.994 204.976 344.986L205.036 354.986ZM211.602 348.596L221.601 348.536L221.477 327.709L211.477 327.769L201.477 327.828L201.602 348.656L211.602 348.596ZM211.477 327.769L211.537 337.768L218.141 337.729L218.081 327.729L218.021 317.729L211.417 317.769L211.477 327.769ZM218.081 327.729L208.081 327.789L208.206 348.617L218.206 348.557L228.205 348.497L228.081 327.669L218.081 327.729ZM218.206 348.557L208.206 348.617C208.238 354.016 204.104 358.199 198.705 358.232L198.765 368.231L198.825 378.231C215.269 378.133 228.304 364.942 228.205 348.497L218.206 348.557ZM198.765 368.231L198.705 358.232C193.306 358.264 189.122 354.13 189.09 348.731L179.09 348.791L169.09 348.85C169.189 365.295 182.38 378.329 198.825 378.231L198.765 368.231ZM179.09 348.791L189.09 348.731L188.423 237.227L178.424 237.287L168.424 237.346L169.09 348.85L179.09 348.791ZM178.424 237.287L188.423 237.227C188.359 226.37 179.766 217.88 168.91 217.945L168.97 227.945L169.029 237.945C169.083 237.944 169.045 237.953 168.95 237.914C168.858 237.877 168.753 237.812 168.656 237.717C168.559 237.621 168.493 237.517 168.455 237.425C168.416 237.33 168.423 237.293 168.424 237.346L178.424 237.287ZM168.97 227.945L168.91 217.945C158.053 218.01 149.563 226.602 149.628 237.459L159.628 237.399L169.628 237.339C169.627 237.285 169.636 237.323 169.597 237.418C169.56 237.51 169.495 237.616 169.4 237.712C169.304 237.809 169.2 237.875 169.108 237.913C169.013 237.953 168.976 237.945 169.029 237.945L168.97 227.945ZM159.628 237.399L149.628 237.459L150.17 328.135L160.17 328.075L170.17 328.016L169.628 237.339L159.628 237.399ZM160.17 328.075L160.11 318.076L140.553 318.192L140.612 328.192L140.672 338.192L160.23 338.075L160.17 328.075ZM140.612 328.192L150.612 328.161L150.324 237.483L140.324 237.514L130.324 237.546L130.612 328.224L140.612 328.192ZM140.324 237.514L150.324 237.455C150.255 225.925 140.461 218.115 130.302 218.176L130.362 228.176L130.422 238.176C130.552 238.175 130.599 238.227 130.566 238.197C130.541 238.174 130.478 238.107 130.419 237.978C130.355 237.839 130.325 237.69 130.324 237.574L140.324 237.514ZM130.362 228.176L130.302 218.176C119.446 218.241 110.956 226.833 111.021 237.69L121.021 237.63L131.02 237.57C131.02 237.516 131.028 237.554 130.99 237.649C130.953 237.741 130.888 237.846 130.793 237.943C130.697 238.04 130.592 238.106 130.501 238.144C130.406 238.184 130.368 238.176 130.422 238.176L130.362 228.176ZM121.021 237.63L111.021 237.69L111.706 352.242L121.706 352.182L131.705 352.122L131.02 237.57L121.021 237.63ZM121.706 352.182L111.706 352.242C111.727 355.81 108.656 358.77 105.489 358.789L105.548 368.789L105.608 378.788C120.22 378.701 131.79 366.333 131.705 352.122L121.706 352.182ZM105.548 368.789L105.489 358.789C102.122 358.809 98.96 355.685 98.9399 352.318L88.9401 352.378L78.9403 352.437C79.0264 366.85 91.1957 378.875 105.608 378.788L105.548 368.789ZM88.9401 352.378L98.9399 352.318L98.1366 217.954L88.1368 218.014L78.137 218.074L78.9403 352.437L88.9401 352.378ZM88.1368 218.014L98.1366 217.954C98.1027 212.287 95.9788 206.967 91.9201 203.088C87.8936 199.24 82.5658 197.379 77.0914 197.412L77.1512 207.412L77.211 217.411C77.6627 217.409 77.924 217.483 78.0337 217.524C78.1394 217.563 78.1418 217.585 78.1018 217.547C78.0593 217.506 78.0471 217.473 78.0568 217.496C78.0678 217.523 78.1347 217.695 78.137 218.074L88.1368 218.014ZM77.1512 207.412L77.0914 197.412C63.8096 197.491 54.3773 205.365 48.7281 213.991C43.17 222.477 40.3787 232.866 40.4298 241.414L50.4296 241.354L60.4295 241.294C60.4016 236.634 62.0813 230.105 65.4588 224.949C68.7452 219.931 72.7131 217.438 77.211 217.411L77.1512 207.412ZM50.4296 241.354L40.4298 241.414C40.5398 259.818 50.3255 281.345 70.4219 286.697L72.9954 277.034L75.5688 267.37C67.6802 265.27 60.5108 254.893 60.4295 241.294L50.4296 241.354ZM72.9954 277.034L64.3113 272.075C63.8536 272.877 62.6282 274.309 60.7094 275.532C58.8388 276.724 56.9816 277.289 55.4706 277.298L55.5304 287.298L55.5902 297.298C61.6991 297.262 67.1918 295.116 71.4574 292.398C75.6749 289.711 79.372 286.033 81.6794 281.992L72.9954 277.034ZM55.5304 287.298L55.4706 277.298C53.5667 277.31 50.3975 275.832 47.0815 269.105C43.9873 262.829 42.4775 255.069 42.4489 250.292L32.4491 250.352L22.4493 250.411C22.4951 258.08 24.6521 268.84 29.143 277.949C33.4121 286.609 41.7464 297.381 55.5902 297.298L55.5304 287.298ZM32.4491 250.352L42.4489 250.292C42.389 240.263 45.9052 230.022 53.0982 222.339C60.1462 214.812 71.3556 209.064 88.0827 208.964L88.0229 198.964L87.9631 188.965C66.3369 189.094 49.6857 196.721 38.4984 208.67C27.4559 220.464 22.362 235.803 22.4493 250.411L32.4491 250.352ZM306.249 327.202L306.189 317.202C300.667 317.235 296.216 321.739 296.249 327.262L306.249 327.202ZM312.853 327.163L322.853 327.103C322.82 321.58 318.316 317.13 312.793 317.163L312.853 327.163ZM260.938 268.29L253.049 274.434C255.294 277.318 258.934 278.746 262.542 278.16C266.149 277.574 269.15 275.067 270.367 271.621L260.938 268.29ZM245.458 270.668L245.398 260.669C232.202 260.748 220.475 271.201 220.559 285.296L230.559 285.236L240.559 285.176C240.546 283.014 242.459 280.687 245.518 280.668L245.458 270.668ZM230.559 285.236L220.559 285.296L220.887 340.159L230.887 340.099L240.887 340.039L240.559 285.176L230.559 285.236ZM230.887 340.099L220.887 340.159C220.97 354.03 232.593 364.821 246.021 364.741L245.961 354.741L245.901 344.741C243.073 344.758 240.901 342.424 240.887 340.039L230.887 340.099ZM245.961 354.741L246.021 364.741C252.351 364.703 257.567 362.07 261.338 357.9C264.816 354.053 266.765 349.261 267.949 344.912C270.305 336.263 270.521 325.872 270.474 318.018L260.474 318.078L250.474 318.137C250.521 326.031 250.211 333.931 248.652 339.657C247.879 342.495 247.023 343.911 246.504 344.486C246.277 344.737 246.301 344.739 245.901 344.741L245.961 354.741ZM260.474 318.078L270.474 318.018L270.276 284.998L260.276 285.058L250.277 285.118L250.474 318.137L260.474 318.078ZM260.276 285.058L270.276 284.998C270.193 271.122 258.82 260.588 245.398 260.669L245.458 270.668L245.518 280.668C248.352 280.651 250.262 282.739 250.277 285.118L260.276 285.058ZM276.367 257.275L276.426 267.275C279.793 267.255 282.955 270.379 282.975 273.746L292.975 273.686L302.975 273.627C302.889 259.214 290.719 247.189 276.307 247.276L276.367 257.275ZM292.975 273.686L282.975 273.746L283.42 348.167L293.42 348.107L303.42 348.047L302.975 273.627L292.975 273.686ZM293.42 348.107L283.42 348.167C283.474 357.246 290.789 364.473 299.868 364.419L299.808 354.419L299.748 344.419C301.715 344.407 303.408 346.081 303.42 348.047L293.42 348.107ZM299.808 354.419L299.868 364.419C308.43 364.368 316.431 357.551 316.374 347.97L306.374 348.03L296.374 348.089C296.359 345.62 298.298 344.428 299.748 344.419L299.808 354.419ZM306.374 348.03L316.374 347.97L316.249 327.142L306.249 327.202L296.249 327.262L296.374 348.089L306.374 348.03ZM306.249 327.202L306.309 337.202L312.913 337.162L312.853 327.163L312.793 317.163L306.189 317.202L306.249 327.202ZM312.853 327.163L302.853 327.222L302.978 348.05L312.978 347.99L322.977 347.93L322.853 327.103L312.853 327.163ZM312.978 347.99L302.978 348.05C303.01 353.449 298.876 357.633 293.477 357.665L293.537 367.665L293.597 377.665C310.041 377.566 323.076 364.375 322.977 347.93L312.978 347.99ZM293.537 367.665L293.477 357.665C288.078 357.697 283.894 353.563 283.862 348.164L273.862 348.224L263.862 348.284C263.961 364.728 277.152 377.763 293.597 377.665L293.537 367.665ZM273.862 348.224L283.862 348.164L283.417 273.744L273.417 273.803L263.418 273.863L263.862 348.284L273.862 348.224ZM273.417 273.803L283.417 273.744C283.398 270.563 282.489 266.923 279.79 263.976C277.035 260.967 273.37 259.739 270.031 259.759L270.091 269.759L270.151 279.759C268.59 279.768 266.58 279.166 265.04 277.483C263.555 275.862 263.42 274.25 263.418 273.863L273.417 273.803ZM270.091 269.759L270.031 259.759C262.53 259.804 256.767 266.051 256.814 273.903L266.813 273.843L276.813 273.783C276.818 274.594 276.518 276.164 275.157 277.61C273.9 278.946 272.107 279.747 270.151 279.759L270.091 269.759ZM266.813 273.843L256.814 273.903L256.882 285.332L266.882 285.273L276.882 285.213L276.813 273.783L266.813 273.843ZM266.882 285.273L256.882 285.332L257.114 324.194L267.114 324.134L277.114 324.074L276.882 285.213L266.882 285.273ZM267.114 324.134L257.114 324.194C257.176 334.543 255.955 343.575 252.95 349.701C251.523 352.609 249.845 354.55 247.977 355.797C246.161 357.009 243.578 357.963 239.63 357.987L239.69 367.987L239.75 377.986C247.104 377.943 253.617 376.08 259.083 372.43C264.496 368.816 268.285 363.85 270.905 358.51C275.993 348.141 277.181 335.314 277.114 324.074L267.114 324.134ZM239.69 367.987L239.63 357.987C229.659 358.046 221.643 350.125 221.583 340.154L211.583 340.214L201.583 340.274C201.709 361.29 218.733 378.112 239.75 377.986L239.69 367.987ZM211.583 340.214L221.583 340.154L221.257 285.545L211.257 285.605L201.257 285.665L201.583 340.274L211.583 340.214ZM211.257 285.605L221.257 285.545C221.197 275.574 229.118 267.558 239.089 267.498L239.029 257.499L238.969 247.499C217.953 247.624 201.131 264.648 201.257 285.665L211.257 285.605ZM239.029 257.499L239.089 267.498C244.636 267.465 249.685 270.116 253.049 274.434L260.938 268.29L268.828 262.145C261.952 253.317 251.202 247.426 238.969 247.499L239.029 257.499ZM260.938 268.29L270.367 271.621C271.264 269.081 273.691 267.292 276.426 267.275L276.367 257.275L276.307 247.276C264.819 247.344 255.108 254.772 251.509 264.959L260.938 268.29ZM354.922 266.712L347.279 273.16C349.993 276.378 354.433 277.551 358.383 276.094C362.333 274.637 364.947 270.862 364.922 266.652L354.922 266.712ZM401.001 326.636L400.942 316.636C395.419 316.669 390.969 321.173 391.002 326.695L401.001 326.636ZM407.605 326.596L417.605 326.536C417.572 321.014 413.068 316.563 407.546 316.596L407.605 326.596ZM340.21 270.102L340.151 260.102C326.954 260.181 315.227 270.635 315.311 284.729L325.311 284.669L335.311 284.609C335.298 282.448 337.211 280.12 340.27 280.102L340.21 270.102ZM325.311 284.669L315.311 284.729L315.639 339.592L325.639 339.532L335.639 339.473L335.311 284.609L325.311 284.669ZM325.639 339.532L315.639 339.592C315.722 353.463 327.345 364.255 340.773 364.174L340.713 354.174L340.653 344.175C337.825 344.192 335.653 341.857 335.639 339.473L325.639 339.532ZM340.713 354.174L340.773 364.174C347.06 364.137 352.264 361.556 356.048 357.424C359.542 353.609 361.502 348.852 362.693 344.538C365.059 335.968 365.275 325.688 365.229 317.959L355.229 318.019L345.229 318.079C345.276 325.843 344.964 333.602 343.414 339.216C342.648 341.993 341.803 343.365 341.299 343.916C341.085 344.15 341.097 344.172 340.653 344.175L340.713 354.174ZM355.229 318.019L365.229 317.959L365.028 284.432L355.029 284.492L345.029 284.551L345.229 318.079L355.229 318.019ZM355.029 284.492L365.028 284.432C364.945 270.555 353.573 260.022 340.151 260.102L340.21 270.102L340.27 280.102C343.104 280.085 345.015 282.172 345.029 284.551L355.029 284.492ZM388.289 367.098L388.229 357.098C384.312 357.122 382.113 356.01 380.957 354.921C379.875 353.901 378.64 351.904 378.616 347.852L368.616 347.912L358.616 347.971C358.666 356.365 361.426 363.997 367.241 369.476C372.982 374.886 380.583 377.144 388.349 377.098L388.289 367.098ZM368.616 347.912L378.616 347.852L377.813 213.488L367.813 213.548L357.813 213.608L358.616 347.971L368.616 347.912ZM367.813 213.548L377.813 213.488C377.793 210.192 376.744 206.599 374.02 203.766C371.302 200.939 367.738 199.738 364.428 199.758L364.488 209.758L364.548 219.758C363.016 219.767 361.107 219.191 359.603 217.627C358.093 216.057 357.817 214.364 357.813 213.608L367.813 213.548ZM364.488 209.758L364.428 199.758C357.382 199.8 351.161 205.584 351.209 213.647L361.209 213.587L371.209 213.528C371.216 214.731 370.739 216.381 369.384 217.752C368.173 218.978 366.468 219.746 364.548 219.758L364.488 209.758ZM361.209 213.587L351.209 213.647L351.886 326.929L361.886 326.869L371.886 326.81L371.209 213.528L361.209 213.587ZM361.886 326.869L351.886 326.929C351.942 336.288 350.424 344.407 347.388 349.836C344.728 354.59 340.977 357.381 334.382 357.42L334.442 367.42L334.502 377.42C348.989 377.333 359.02 370.009 364.843 359.599C370.288 349.864 371.951 337.771 371.886 326.81L361.886 326.869ZM334.442 367.42L334.382 357.42C324.411 357.48 316.395 349.559 316.335 339.588L306.336 339.648L296.336 339.707C296.461 360.724 313.485 377.546 334.502 377.42L334.442 367.42ZM306.336 339.648L316.335 339.588L316.009 284.979L306.009 285.039L296.009 285.098L296.336 339.707L306.336 339.648ZM306.009 285.039L316.009 284.979C315.949 275.008 323.87 266.992 333.841 266.932L333.781 256.932L333.722 246.932C312.705 247.058 295.884 264.082 296.009 285.098L306.009 285.039ZM333.781 256.932L333.841 266.932C339.346 266.899 343.968 269.235 347.279 273.16L354.922 266.712L362.566 260.264C355.644 252.058 345.489 246.862 333.722 246.932L333.781 256.932ZM354.922 266.712L364.922 266.652L364.605 213.567L354.605 213.627L344.605 213.687L344.923 266.772L354.922 266.712ZM354.605 213.627L364.605 213.567C364.585 210.2 367.456 207.294 370.823 207.274L370.763 197.274L370.704 187.274C356.291 187.36 344.519 199.274 344.605 213.687L354.605 213.627ZM370.763 197.274L370.823 207.274C374.392 207.252 377.352 210.323 377.371 213.491L387.37 213.431L397.37 213.371C397.283 198.759 384.915 187.189 370.704 187.274L370.763 197.274ZM387.37 213.431L377.371 213.491L378.172 347.6L388.172 347.541L398.172 347.481L397.37 213.371L387.37 213.431ZM388.172 347.541L378.172 347.6C378.227 356.679 385.541 363.907 394.62 363.852L394.56 353.853L394.5 343.853C396.467 343.841 398.16 345.514 398.172 347.481L388.172 347.541ZM394.56 353.853L394.62 363.852C403.182 363.801 411.183 356.985 411.126 347.403L401.126 347.463L391.126 347.523C391.111 345.054 393.05 343.861 394.5 343.853L394.56 353.853ZM401.126 347.463L411.126 347.403L411.001 326.576L401.001 326.636L391.002 326.695L391.126 347.523L401.126 347.463ZM401.001 326.636L401.061 336.635L407.665 336.596L407.605 326.596L407.546 316.596L400.942 316.636L401.001 326.636ZM407.605 326.596L397.605 326.656L397.73 347.483L407.73 347.424L417.73 347.364L417.605 326.536L407.605 326.596ZM407.73 347.424L397.73 347.483C397.762 352.883 393.628 357.066 388.229 357.098L388.289 367.098L388.349 377.098C404.793 377 417.828 363.808 417.73 347.364L407.73 347.424ZM495.754 326.069L495.694 316.069C490.171 316.102 485.721 320.606 485.754 326.129L495.754 326.069ZM502.358 326.03L512.357 325.97C512.324 320.447 507.82 315.997 502.298 316.03L502.358 326.03ZM450.443 267.157L442.553 273.301C444.799 276.185 448.439 277.614 452.046 277.027C455.654 276.441 458.654 273.934 459.872 270.488L450.443 267.157ZM434.963 269.535L434.903 259.536C421.706 259.615 409.979 270.068 410.064 284.163L420.063 284.103L430.063 284.043C430.05 281.881 431.963 279.554 435.022 279.535L434.963 269.535ZM420.063 284.103L410.064 284.163L410.392 339.026L420.391 338.966L430.391 338.906L430.063 284.043L420.063 284.103ZM420.391 338.966L410.392 339.026C410.475 352.897 422.097 363.688 435.525 363.608L435.465 353.608L435.405 343.608C432.577 343.625 430.405 341.291 430.391 338.906L420.391 338.966ZM435.465 353.608L435.525 363.608C441.856 363.57 447.071 360.937 450.843 356.767C454.321 352.92 456.269 348.128 457.454 343.779C459.809 335.13 460.025 324.739 459.978 316.885L449.978 316.945L439.978 317.004C440.026 324.898 439.716 332.798 438.157 338.524C437.384 341.362 436.528 342.778 436.008 343.353C435.781 343.604 435.805 343.606 435.405 343.608L435.465 353.608ZM449.978 316.945L459.978 316.885L459.781 283.865L449.781 283.925L439.781 283.985L439.978 317.004L449.978 316.945ZM449.781 283.925L459.781 283.865C459.698 269.989 448.325 259.455 434.903 259.536L434.963 269.535L435.022 279.535C437.856 279.518 439.767 281.606 439.781 283.985L449.781 283.925ZM465.871 256.142L465.931 266.142C469.298 266.122 472.459 269.246 472.48 272.613L482.479 272.553L492.479 272.494C492.393 258.081 480.224 246.056 465.811 246.143L465.871 256.142ZM482.479 272.553L472.48 272.613L472.925 347.034L482.924 346.974L492.924 346.914L492.479 272.494L482.479 272.553ZM482.924 346.974L472.925 347.034C472.979 356.113 480.293 363.34 489.372 363.286L489.312 353.286L489.252 343.286C491.219 343.274 492.912 344.948 492.924 346.914L482.924 346.974ZM489.312 353.286L489.372 363.286C497.934 363.235 505.935 356.418 505.878 346.837L495.878 346.897L485.878 346.956C485.864 344.487 487.802 343.295 489.252 343.286L489.312 353.286ZM495.878 346.897L505.878 346.837L505.753 326.009L495.754 326.069L485.754 326.129L485.878 346.956L495.878 346.897ZM495.754 326.069L495.813 336.069L502.417 336.029L502.358 326.03L502.298 316.03L495.694 316.069L495.754 326.069ZM502.358 326.03L492.358 326.089L492.482 346.917L502.482 346.857L512.482 346.797L512.357 325.97L502.358 326.03ZM502.482 346.857L492.482 346.917C492.514 352.316 488.381 356.5 482.982 356.532L483.041 366.532L483.101 376.532C499.546 376.433 512.58 363.242 512.482 346.797L502.482 346.857ZM483.041 366.532L482.982 356.532C477.582 356.564 473.399 352.43 473.367 347.031L463.367 347.091L453.367 347.151C453.465 363.595 466.657 376.63 483.101 376.532L483.041 366.532ZM463.367 347.091L473.367 347.031L472.922 272.611L462.922 272.67L452.922 272.73L453.367 347.151L463.367 347.091ZM462.922 272.67L472.922 272.611C472.903 269.43 471.993 265.79 469.294 262.843C466.539 259.834 462.875 258.606 459.536 258.626L459.596 268.626L459.655 278.626C458.094 278.635 456.085 278.033 454.544 276.35C453.06 274.729 452.924 273.117 452.922 272.73L462.922 272.67ZM459.596 268.626L459.536 258.626C452.035 258.671 446.271 264.918 446.318 272.77L456.318 272.71L466.318 272.65C466.323 273.461 466.022 275.031 464.661 276.477C463.404 277.813 461.612 278.614 459.655 278.626L459.596 268.626ZM456.318 272.71L446.318 272.77L446.386 284.199L456.386 284.14L466.386 284.08L466.318 272.65L456.318 272.71ZM456.386 284.14L446.386 284.199L446.619 323.061L456.619 323.001L466.618 322.941L466.386 284.08L456.386 284.14ZM456.619 323.001L446.619 323.061C446.681 333.41 445.46 342.442 442.454 348.568C441.027 351.476 439.349 353.417 437.481 354.664C435.666 355.876 433.083 356.83 429.134 356.854L429.194 366.854L429.254 376.854C436.609 376.81 443.121 374.947 448.587 371.297C454.001 367.683 457.79 362.717 460.41 357.377C465.497 347.008 466.686 334.181 466.618 322.941L456.619 323.001ZM429.194 366.854L429.134 356.854C419.164 356.913 411.147 348.992 411.088 339.021L401.088 339.081L391.088 339.141C391.214 360.157 408.238 376.979 429.254 376.854L429.194 366.854ZM401.088 339.081L411.088 339.021L410.761 284.412L400.761 284.472L390.761 284.532L391.088 339.141L401.088 339.081ZM400.761 284.472L410.761 284.412C410.701 274.441 418.623 266.425 428.593 266.365L428.534 256.366L428.474 246.366C407.457 246.491 390.636 263.516 390.761 284.532L400.761 284.472ZM428.534 256.366L428.593 266.365C434.14 266.332 439.19 268.983 442.553 273.301L450.443 267.157L458.332 261.012C451.457 252.184 440.707 246.293 428.474 246.366L428.534 256.366ZM450.443 267.157L459.872 270.488C460.769 267.948 463.195 266.159 465.931 266.142L465.871 256.142L465.811 246.143C454.323 246.211 444.612 253.639 441.014 263.826L450.443 267.157ZM527.161 266.698L517.773 270.142C519.031 273.573 522.061 276.044 525.676 276.587C529.29 277.13 532.913 275.658 535.124 272.748L527.161 266.698ZM590.506 325.503L590.446 315.503C584.923 315.536 580.473 320.04 580.506 325.562L590.506 325.503ZM597.11 325.463L607.11 325.403C607.077 319.881 602.573 315.43 597.05 315.463L597.11 325.463ZM528.772 366.258L528.832 376.258C534.355 376.225 538.805 371.721 538.772 366.199L528.772 366.258ZM509.469 366.374L499.469 366.434C499.502 371.956 504.006 376.407 509.529 376.374L509.469 366.374ZM502.369 326.029L502.429 336.029C507.952 335.996 512.402 331.492 512.369 325.97L502.369 326.029ZM495.766 326.069L485.766 326.129C485.799 331.651 490.303 336.102 495.825 336.069L495.766 326.069ZM511.856 255.868L511.916 265.867C514.471 265.852 516.78 267.436 517.773 270.142L527.161 266.698L536.55 263.255C532.894 253.288 523.465 245.798 511.796 245.868L511.856 255.868ZM527.161 266.698L535.124 272.748C538.311 268.553 543.763 265.677 549.507 265.643L549.447 255.643L549.388 245.643C537.352 245.715 526.092 251.575 519.199 260.649L527.161 266.698ZM549.447 255.643L549.507 265.643C559.598 265.582 567.494 273.369 567.553 283.221L577.552 283.161L587.552 283.101C587.426 261.966 570.284 245.518 549.388 245.643L549.447 255.643ZM577.552 283.161L567.553 283.221L567.931 346.466L577.931 346.406L587.93 346.346L587.552 283.101L577.552 283.161ZM577.931 346.406L567.931 346.466C567.982 354.998 574.515 362.777 584.124 362.719L584.064 352.72L584.005 342.72C584.966 342.714 586.078 343.134 586.901 343.995C587.682 344.812 587.927 345.724 587.93 346.346L577.931 346.406ZM584.064 352.72L584.124 362.719C592.687 362.668 600.687 355.852 600.63 346.27L590.63 346.33L580.631 346.39C580.616 343.921 582.554 342.728 584.005 342.72L584.064 352.72ZM590.63 346.33L600.63 346.27L600.506 325.443L590.506 325.503L580.506 325.562L580.631 346.39L590.63 346.33ZM590.506 325.503L590.566 335.502L597.17 335.463L597.11 325.463L597.05 315.463L590.446 315.503L590.506 325.503ZM597.11 325.463L587.11 325.523L587.234 346.35L597.234 346.291L607.234 346.231L607.11 325.403L597.11 325.463ZM597.234 346.291L587.234 346.35C587.268 351.922 583.216 355.933 577.988 355.964L578.048 365.964L578.107 375.964C594.722 375.864 607.331 362.503 607.234 346.231L597.234 346.291ZM578.048 365.964L577.988 355.964C572.42 355.997 568.15 351.696 568.119 346.465L558.119 346.525L548.119 346.584C548.218 363.196 561.832 376.061 578.107 375.964L578.048 365.964ZM558.119 346.525L568.119 346.465L567.741 283.22L557.741 283.28L547.741 283.339L548.119 346.584L558.119 346.525ZM557.741 283.28L567.741 283.22C567.659 269.569 556.512 258.555 542.861 258.636L542.921 268.636L542.981 278.636C545.586 278.62 547.725 280.734 547.741 283.339L557.741 283.28ZM542.921 268.636L542.861 258.636C529.211 258.718 518.196 269.865 518.278 283.516L528.277 283.456L538.277 283.396C538.262 280.791 540.376 278.651 542.981 278.636L542.921 268.636ZM528.277 283.456L518.278 283.516L518.773 366.318L528.772 366.258L538.772 366.199L538.277 283.396L528.277 283.456ZM528.772 366.258L528.713 356.259L509.409 356.374L509.469 366.374L509.529 376.374L528.832 376.258L528.772 366.258ZM509.469 366.374L519.469 366.314L518.907 272.336L508.907 272.395L498.907 272.455L499.469 366.434L509.469 366.374ZM508.907 272.395L518.907 272.336C518.885 268.73 517.657 265.026 514.806 262.209C512.044 259.48 508.506 258.334 505.267 258.353L505.327 268.353L505.386 278.353C503.925 278.361 502.169 277.839 500.749 276.436C499.239 274.944 498.912 273.267 498.907 272.455L508.907 272.395ZM505.327 268.353L505.267 258.353C497.766 258.398 492.002 264.645 492.049 272.496L502.049 272.436L512.049 272.377C512.054 273.188 511.753 274.758 510.393 276.203C509.136 277.539 507.343 278.341 505.386 278.353L505.327 268.353ZM502.049 272.436L492.049 272.496L492.37 326.089L502.369 326.029L512.369 325.97L512.049 272.377L502.049 272.436ZM502.369 326.029L502.31 316.03L495.706 316.069L495.766 326.069L495.825 336.069L502.429 336.029L502.369 326.029ZM495.766 326.069L505.765 326.009L505.445 272.416L495.445 272.476L485.445 272.536L485.766 326.129L495.766 326.069ZM495.445 272.476L505.445 272.416C505.425 269.049 508.549 265.887 511.916 265.867L511.856 255.868L511.796 245.868C497.384 245.954 485.359 258.123 485.445 272.536L495.445 272.476ZM650.45 365.785L646.68 356.522C646.619 356.547 646.559 356.573 646.498 356.599L650.45 365.785ZM652.984 364.754L662.983 364.694C662.963 361.376 661.299 358.284 658.54 356.44C655.781 354.596 652.288 354.241 649.214 355.491L652.984 364.754ZM650.406 358.419L646.636 349.157C646.494 349.215 646.353 349.276 646.213 349.34L650.406 358.419ZM652.939 357.388L656.709 366.65C660.496 365.109 662.964 361.417 662.939 357.328L652.939 357.388ZM639.938 264.5L632.048 270.644C634.294 273.528 637.934 274.957 641.541 274.371C645.149 273.784 648.149 271.277 649.367 267.831L639.938 264.5ZM671.975 269.896L661.975 269.956C661.975 269.966 661.975 269.977 661.975 269.987L671.975 269.896ZM672.724 352.697L662.724 352.788C662.753 356.013 664.337 359.027 666.976 360.881C669.615 362.735 672.987 363.202 676.031 362.135L672.724 352.697ZM685.247 323.158L685.188 313.158C679.665 313.191 675.215 317.695 675.248 323.218L685.247 323.158ZM691.851 323.119L701.851 323.059C701.818 317.536 697.314 313.086 691.792 313.119L691.851 323.119ZM672.512 359.811L669.485 350.28C665.312 351.606 662.486 355.492 662.513 359.871L672.512 359.811ZM650.45 365.785L646.498 356.599C639.14 359.764 624.21 368.638 624.319 386.769L634.318 386.71L644.318 386.65C644.302 383.861 645.349 381.716 647.167 379.785C649.136 377.694 651.868 376.061 654.401 374.971L650.45 365.785ZM634.318 386.71L624.319 386.769L624.508 418.519L634.508 418.459L644.508 418.399L644.318 386.65L634.318 386.71ZM634.508 418.459L624.508 418.519C624.573 429.376 633.165 437.866 644.022 437.801L643.962 427.801L643.903 417.801C643.849 417.801 643.886 417.793 643.982 417.831C644.073 417.868 644.179 417.933 644.276 418.029C644.372 418.125 644.439 418.229 644.477 418.321C644.516 418.415 644.508 418.453 644.508 418.399L634.508 418.459ZM643.962 427.801L644.022 437.801C654.879 437.736 663.369 429.144 663.304 418.287L653.304 418.347L643.304 418.407C643.304 418.46 643.296 418.423 643.335 418.327C643.371 418.236 643.436 418.13 643.532 418.033C643.628 417.937 643.732 417.87 643.824 417.832C643.918 417.793 643.956 417.801 643.903 417.801L643.962 427.801ZM653.304 418.347L663.304 418.287L662.983 364.694L652.984 364.754L642.984 364.814L643.304 418.407L653.304 418.347ZM652.984 364.754L649.214 355.491L646.68 356.522L650.45 365.785L654.219 375.047L656.753 374.016L652.984 364.754ZM650.406 358.419L654.175 367.681L656.709 366.65L652.939 357.388L649.17 348.125L646.636 349.157L650.406 358.419ZM652.939 357.388L662.939 357.328L662.417 269.954L652.417 270.013L642.417 270.073L642.94 357.448L652.939 357.388ZM652.417 270.013L662.417 269.954C662.398 266.773 661.488 263.133 658.79 260.186C656.034 257.177 652.37 255.949 649.031 255.969L649.091 265.969L649.151 275.969C647.59 275.978 645.58 275.376 644.039 273.693C642.555 272.072 642.42 270.46 642.417 270.073L652.417 270.013ZM649.091 265.969L649.031 255.969C641.53 256.014 635.766 262.261 635.813 270.113L645.813 270.053L655.813 269.993C655.818 270.805 655.517 272.374 654.157 273.82C652.9 275.156 651.107 275.957 649.151 275.969L649.091 265.969ZM645.813 270.053L635.813 270.113L636.114 320.404L646.114 320.344L656.114 320.284L655.813 269.993L645.813 270.053ZM646.114 320.344L636.114 320.404C636.245 342.384 621.192 352.912 611.764 352.968L611.824 362.968L611.884 372.968C633.952 372.836 656.301 351.644 656.114 320.284L646.114 320.344ZM611.824 362.968L611.764 352.968C608.507 352.987 606.114 351.912 604.414 350.01C602.62 348.003 600.628 343.967 600.583 336.364L590.583 336.424L580.583 336.484C580.649 347.423 583.562 356.693 589.504 363.339C595.539 370.091 603.711 373.016 611.884 372.968L611.824 362.968ZM590.583 336.424L600.583 336.364L600.256 281.755L590.257 281.815L580.257 281.875L580.583 336.484L590.583 336.424ZM590.257 281.815L600.256 281.755C600.197 271.784 608.118 263.768 618.089 263.709L618.029 253.709L617.969 243.709C596.953 243.835 580.131 260.859 580.257 281.875L590.257 281.815ZM618.029 253.709L618.089 263.709C623.636 263.675 628.685 266.326 632.048 270.644L639.938 264.5L647.828 258.356C640.952 249.527 630.202 243.636 617.969 243.709L618.029 253.709ZM639.938 264.5L649.367 267.831C650.264 265.291 652.69 263.502 655.426 263.485L655.366 253.485L655.307 243.486C643.819 243.554 634.108 250.982 630.509 261.169L639.938 264.5ZM655.366 253.485L655.426 263.485C658.793 263.465 661.955 266.589 661.975 269.956L671.975 269.896L681.975 269.837C681.888 255.424 669.719 243.399 655.307 243.486L655.366 253.485ZM671.975 269.896L661.975 269.987L662.724 352.788L672.724 352.697L682.723 352.607L681.974 269.806L671.975 269.896ZM672.724 352.697L676.031 362.135C680.802 360.463 686.251 357.864 690.163 352.505C694.071 347.15 695.352 340.566 695.308 333.258L685.308 333.318L675.308 333.378C675.339 338.515 674.383 340.2 674.008 340.713C673.638 341.221 672.757 342.09 669.417 343.26L672.724 352.697ZM685.308 333.318L695.308 333.258L695.247 323.098L685.247 323.158L675.248 323.218L675.308 333.378L685.308 333.318ZM685.247 323.158L685.307 333.158L691.911 333.118L691.851 323.119L691.792 313.119L685.188 313.158L685.247 323.158ZM691.851 323.119L681.851 323.178L681.912 333.338L691.912 333.278L701.912 333.219L701.851 323.059L691.851 323.119ZM691.912 333.278L681.912 333.338C681.949 339.411 680.444 342.726 678.777 344.77C676.997 346.952 674.108 348.812 669.485 350.28L672.512 359.811L675.54 369.342C682.326 367.186 689.183 363.653 694.275 357.412C699.479 351.032 701.97 342.894 701.912 333.219L691.912 333.278ZM672.512 359.811L662.513 359.871L662.856 417.274L672.856 417.214L682.855 417.154L682.512 359.751L672.512 359.811ZM672.856 417.214L662.856 417.274C662.898 424.345 657.356 429.913 650.579 429.953L650.639 439.953L650.699 449.953C668.814 449.845 682.962 434.975 682.855 417.154L672.856 417.214ZM650.639 439.953L650.579 429.953C643.656 429.995 637.94 424.346 637.898 417.423L627.898 417.483L617.899 417.542C618.006 435.511 632.73 450.06 650.699 449.953L650.639 439.953ZM627.898 417.483L637.898 417.423L637.717 387.197L627.718 387.257L617.718 387.317L617.899 417.542L627.898 417.483ZM627.718 387.257L637.717 387.197C637.69 382.529 639.689 378.691 643.028 375.289C646.485 371.767 650.98 369.169 654.598 367.498L650.406 358.419L646.213 349.34C641.473 351.529 634.575 355.349 628.754 361.28C622.815 367.332 617.65 375.983 617.718 387.317L627.718 387.257ZM624.458 266.879L624.398 256.879C611.202 256.958 599.475 267.412 599.559 281.506L609.559 281.446L619.559 281.386C619.546 279.224 621.458 276.897 624.518 276.878L624.458 266.879ZM609.559 281.446L599.559 281.506L599.887 336.369L609.887 336.309L619.887 336.249L619.559 281.386L609.559 281.446ZM609.887 336.309L599.887 336.369C599.929 343.433 602.416 349.64 606.969 354.081C611.428 358.429 617.27 360.489 622.985 360.455L622.925 350.455L622.866 340.455C621.977 340.461 621.328 340.147 620.932 339.761C620.631 339.468 619.9 338.583 619.887 336.249L609.887 336.309ZM622.925 350.455L622.985 360.455C629.108 360.418 634.523 358.423 638.788 354.546C642.834 350.868 645.165 346.12 646.582 341.637C649.335 332.931 649.521 322.205 649.469 313.466L639.469 313.526L629.469 313.585C629.523 322.626 629.185 330.319 627.512 335.609C626.717 338.124 625.86 339.269 625.336 339.746C625.03 340.024 624.489 340.446 622.866 340.455L622.925 350.455ZM639.469 313.526L649.469 313.466L649.276 281.208L639.276 281.268L629.276 281.328L629.469 313.585L639.469 313.526ZM639.276 281.268L649.276 281.208C649.193 267.332 637.82 256.798 624.398 256.879L624.458 266.879L624.518 276.878C627.351 276.861 629.262 278.949 629.276 281.328L639.276 281.268Z" fill="url(#paint1_linear_375_107)" mask="url(#path-3-outside-2_375_107)"/>
</g>
<defs>
<filter id="filter0_dddd_375_107" x="0" y="0" width="1005" height="704.953" filterUnits="userSpaceOnUse" color-interpolation-filters="sRGB">
<feFlood flood-opacity="0" result="BackgroundImageFix"/>
<feColorMatrix in="SourceAlpha" type="matrix" values="0 0 0 0 0 0 0 0 0 0 0 0 0 0 0 0 0 0 127 0" result="hardAlpha"/>
<feOffset dx="11" dy="10"/>
<feGaussianBlur stdDeviation="16.5"/>
<feColorMatrix type="matrix" values="0 0 0 0 0 0 0 0 0 0 0 0 0 0 0 0 0 0 0.1 0"/>
<feBlend mode="normal" in2="BackgroundImageFix" result="effect1_dropShadow_375_107"/>
<feColorMatrix in="SourceAlpha" type="matrix" values="0 0 0 0 0 0 0 0 0 0 0 0 0 0 0 0 0 0 127 0" result="hardAlpha"/>
<feOffset dx="45" dy="40"/>
<feGaussianBlur stdDeviation="30"/>
<feColorMatrix type="matrix" values="0 0 0 0 0 0 0 0 0 0 0 0 0 0 0 0 0 0 0.09 0"/>
<feBlend mode="normal" in2="effect1_dropShadow_375_107" result="effect2_dropShadow_375_107"/>
<feColorMatrix in="SourceAlpha" type="matrix" values="0 0 0 0 0 0 0 0 0 0 0 0 0 0 0 0 0 0 127 0" result="hardAlpha"/>
<feOffset dx="102" dy="89"/>
<feGaussianBlur stdDeviation="40.5"/>
<feColorMatrix type="matrix" values="0 0 0 0 0 0 0 0 0 0 0 0 0 0 0 0 0 0 0.05 0"/>
<feBlend mode="normal" in2="effect2_dropShadow_375_107" result="effect3_dropShadow_375_107"/>
<feColorMatrix in="SourceAlpha" type="matrix" values="0 0 0 0 0 0 0 0 0 0 0 0 0 0 0 0 0 0 127 0" result="hardAlpha"/>
<feOffset dx="181" dy="159"/>
<feGaussianBlur stdDeviation="48"/>
<feColorMatrix type="matrix" values="0 0 0 0 0 0 0 0 0 0 0 0 0 0 0 0 0 0 0.01 0"/>
<feBlend mode="normal" in2="effect3_dropShadow_375_107" result="effect4_dropShadow_375_107"/>
<feBlend mode="normal" in="SourceGraphic" in2="effect4_dropShadow_375_107" result="shape"/>
</filter>
<linearGradient id="paint0_linear_375_107" x1="21.5303" y1="135.309" x2="564.919" y2="227.491" gradientUnits="userSpaceOnUse">
<stop stop-color="#E7A24A"/>
<stop offset="1" stop-color="#F08A06"/>
</linearGradient>
<linearGradient id="paint1_linear_375_107" x1="17.3514" y1="216.27" x2="720.896" y2="435.845" gradientUnits="userSpaceOnUse">
<stop stop-color="#E7A24A"/>
<stop offset="1" stop-color="#F08A06"/>
</linearGradient>
</defs>
</svg>
