<svg width="1920" height="947" viewBox="0 0 1920 947" fill="none" xmlns="http://www.w3.org/2000/svg">
<g opacity="0.1">
<path d="M965 106.9C965 165.939 917.139 213.8 858.1 213.8C799.061 213.8 751.2 165.939 751.2 106.9C751.2 47.8608 799.061 0 858.1 0C917.139 0 965 47.8608 965 106.9Z" fill="white"/>
<path d="M858.1 0C858.1 0 872.882 48.36 894.761 70.239C916.64 92.118 965 106.9 965 106.9C965 106.9 916.64 121.682 894.761 143.561C872.882 165.44 858.1 213.8 858.1 213.8C858.1 213.8 843.318 165.44 821.439 143.561C799.56 121.682 751.2 106.9 751.2 106.9C751.2 106.9 799.56 92.118 821.439 70.239C843.318 48.36 858.1 0 858.1 0Z" fill="#FAC480"/>
<path d="M751.2 106.9C751.2 165.939 703.339 213.8 644.3 213.8C585.261 213.8 537.4 165.939 537.4 106.9C537.4 47.8608 585.261 0 644.3 0C703.339 0 751.2 47.8608 751.2 106.9Z" fill="white"/>
<path d="M644.3 0C644.3 0 659.082 48.36 680.961 70.239C702.84 92.118 751.2 106.9 751.2 106.9C751.2 106.9 702.84 121.682 680.961 143.561C659.082 165.44 644.3 213.8 644.3 213.8C644.3 213.8 629.518 165.44 607.639 143.561C585.76 121.682 537.4 106.9 537.4 106.9C537.4 106.9 585.76 92.118 607.639 70.239C629.518 48.36 644.3 0 644.3 0Z" fill="#FAC480"/>
<path d="M537.4 106.9C537.4 165.939 489.539 213.8 430.5 213.8C371.461 213.8 323.6 165.939 323.6 106.9C323.6 47.8608 371.461 0 430.5 0C489.539 0 537.4 47.8608 537.4 106.9Z" fill="white"/>
<path d="M430.5 0C430.5 0 445.282 48.36 467.161 70.239C489.04 92.118 537.4 106.9 537.4 106.9C537.4 106.9 489.04 121.682 467.161 143.561C445.282 165.44 430.5 213.8 430.5 213.8C430.5 213.8 415.718 165.44 393.839 143.561C371.96 121.682 323.6 106.9 323.6 106.9C323.6 106.9 371.96 92.118 393.839 70.239C415.718 48.36 430.5 0 430.5 0Z" fill="#FAC480"/>
<path d="M323.6 106.9C323.6 165.939 275.739 213.8 216.7 213.8C157.661 213.8 109.8 165.939 109.8 106.9C109.8 47.8608 157.661 0 216.7 0C275.739 0 323.6 47.8608 323.6 106.9Z" fill="white"/>
<path d="M216.7 0C216.7 0 231.482 48.36 253.361 70.239C275.24 92.118 323.6 106.9 323.6 106.9C323.6 106.9 275.24 121.682 253.361 143.561C231.482 165.44 216.7 213.8 216.7 213.8C216.7 213.8 201.918 165.44 180.039 143.561C158.16 121.682 109.8 106.9 109.8 106.9C109.8 106.9 158.16 92.118 180.039 70.239C201.918 48.36 216.7 0 216.7 0Z" fill="#FAC480"/>
<path d="M109.8 106.9C109.8 165.939 61.9392 213.8 2.89999 213.8C-56.1392 213.8 -104 165.939 -104 106.9C-104 47.8608 -56.1392 0 2.89999 0C61.9392 0 109.8 47.8608 109.8 106.9Z" fill="white"/>
<path d="M2.89999 0C2.89999 0 17.682 48.36 39.561 70.239C61.44 92.118 109.8 106.9 109.8 106.9C109.8 106.9 61.44 121.682 39.561 143.561C17.682 165.44 2.89999 213.8 2.89999 213.8C2.89999 213.8 -11.882 165.44 -33.761 143.561C-55.64 121.682 -104 106.9 -104 106.9C-104 106.9 -55.64 92.118 -33.761 70.239C-11.882 48.36 2.89999 0 2.89999 0Z" fill="#FAC480"/>
<path d="M965 320.7C965 379.739 917.139 427.6 858.1 427.6C799.061 427.6 751.2 379.739 751.2 320.7C751.2 261.661 799.061 213.8 858.1 213.8C917.139 213.8 965 261.661 965 320.7Z" fill="white"/>
<path d="M858.1 213.8C858.1 213.8 872.882 262.16 894.761 284.039C916.64 305.918 965 320.7 965 320.7C965 320.7 916.64 335.482 894.761 357.361C872.882 379.24 858.1 427.6 858.1 427.6C858.1 427.6 843.318 379.24 821.439 357.361C799.56 335.482 751.2 320.7 751.2 320.7C751.2 320.7 799.56 305.918 821.439 284.039C843.318 262.16 858.1 213.8 858.1 213.8Z" fill="#FAC480"/>
<path d="M751.2 320.7C751.2 379.739 703.339 427.6 644.3 427.6C585.261 427.6 537.4 379.739 537.4 320.7C537.4 261.661 585.261 213.8 644.3 213.8C703.339 213.8 751.2 261.661 751.2 320.7Z" fill="white"/>
<path d="M644.3 213.8C644.3 213.8 659.082 262.16 680.961 284.039C702.84 305.918 751.2 320.7 751.2 320.7C751.2 320.7 702.84 335.482 680.961 357.361C659.082 379.24 644.3 427.6 644.3 427.6C644.3 427.6 629.518 379.24 607.639 357.361C585.76 335.482 537.4 320.7 537.4 320.7C537.4 320.7 585.76 305.918 607.639 284.039C629.518 262.16 644.3 213.8 644.3 213.8Z" fill="#FAC480"/>
<path d="M537.4 320.7C537.4 379.739 489.539 427.6 430.5 427.6C371.461 427.6 323.6 379.739 323.6 320.7C323.6 261.661 371.461 213.8 430.5 213.8C489.539 213.8 537.4 261.661 537.4 320.7Z" fill="white"/>
<path d="M430.5 213.8C430.5 213.8 445.282 262.16 467.161 284.039C489.04 305.918 537.4 320.7 537.4 320.7C537.4 320.7 489.04 335.482 467.161 357.361C445.282 379.24 430.5 427.6 430.5 427.6C430.5 427.6 415.718 379.24 393.839 357.361C371.96 335.482 323.6 320.7 323.6 320.7C323.6 320.7 371.96 305.918 393.839 284.039C415.718 262.16 430.5 213.8 430.5 213.8Z" fill="#FAC480"/>
<path d="M323.6 320.7C323.6 379.739 275.739 427.6 216.7 427.6C157.661 427.6 109.8 379.739 109.8 320.7C109.8 261.661 157.661 213.8 216.7 213.8C275.739 213.8 323.6 261.661 323.6 320.7Z" fill="white"/>
<path d="M216.7 213.8C216.7 213.8 231.482 262.16 253.361 284.039C275.24 305.918 323.6 320.7 323.6 320.7C323.6 320.7 275.24 335.482 253.361 357.361C231.482 379.24 216.7 427.6 216.7 427.6C216.7 427.6 201.918 379.24 180.039 357.361C158.16 335.482 109.8 320.7 109.8 320.7C109.8 320.7 158.16 305.918 180.039 284.039C201.918 262.16 216.7 213.8 216.7 213.8Z" fill="#FAC480"/>
<path d="M109.8 320.7C109.8 379.739 61.9392 427.6 2.89999 427.6C-56.1392 427.6 -104 379.739 -104 320.7C-104 261.661 -56.1392 213.8 2.89999 213.8C61.9392 213.8 109.8 261.661 109.8 320.7Z" fill="white"/>
<path d="M2.89999 213.8C2.89999 213.8 17.682 262.16 39.561 284.039C61.44 305.918 109.8 320.7 109.8 320.7C109.8 320.7 61.44 335.482 39.561 357.361C17.682 379.24 2.89999 427.6 2.89999 427.6C2.89999 427.6 -11.882 379.24 -33.761 357.361C-55.64 335.482 -104 320.7 -104 320.7C-104 320.7 -55.64 305.918 -33.761 284.039C-11.882 262.16 2.89999 213.8 2.89999 213.8Z" fill="#FAC480"/>
<path d="M965 534.5C965 593.539 917.139 641.4 858.1 641.4C799.061 641.4 751.2 593.539 751.2 534.5C751.2 475.461 799.061 427.6 858.1 427.6C917.139 427.6 965 475.461 965 534.5Z" fill="white"/>
<path d="M858.1 427.6C858.1 427.6 872.882 475.96 894.761 497.839C916.64 519.718 965 534.5 965 534.5C965 534.5 916.64 549.282 894.761 571.161C872.882 593.04 858.1 641.4 858.1 641.4C858.1 641.4 843.318 593.04 821.439 571.161C799.56 549.282 751.2 534.5 751.2 534.5C751.2 534.5 799.56 519.718 821.439 497.839C843.318 475.96 858.1 427.6 858.1 427.6Z" fill="#FAC480"/>
<path d="M751.2 534.5C751.2 593.539 703.339 641.4 644.3 641.4C585.261 641.4 537.4 593.539 537.4 534.5C537.4 475.461 585.261 427.6 644.3 427.6C703.339 427.6 751.2 475.461 751.2 534.5Z" fill="white"/>
<path d="M644.3 427.6C644.3 427.6 659.082 475.96 680.961 497.839C702.84 519.718 751.2 534.5 751.2 534.5C751.2 534.5 702.84 549.282 680.961 571.161C659.082 593.04 644.3 641.4 644.3 641.4C644.3 641.4 629.518 593.04 607.639 571.161C585.76 549.282 537.4 534.5 537.4 534.5C537.4 534.5 585.76 519.718 607.639 497.839C629.518 475.96 644.3 427.6 644.3 427.6Z" fill="#FAC480"/>
<path d="M537.4 534.5C537.4 593.539 489.539 641.4 430.5 641.4C371.461 641.4 323.6 593.539 323.6 534.5C323.6 475.461 371.461 427.6 430.5 427.6C489.539 427.6 537.4 475.461 537.4 534.5Z" fill="white"/>
<path d="M430.5 427.6C430.5 427.6 445.282 475.96 467.161 497.839C489.04 519.718 537.4 534.5 537.4 534.5C537.4 534.5 489.04 549.282 467.161 571.161C445.282 593.04 430.5 641.4 430.5 641.4C430.5 641.4 415.718 593.04 393.839 571.161C371.96 549.282 323.6 534.5 323.6 534.5C323.6 534.5 371.96 519.718 393.839 497.839C415.718 475.96 430.5 427.6 430.5 427.6Z" fill="#FAC480"/>
<path d="M323.6 534.5C323.6 593.539 275.739 641.4 216.7 641.4C157.661 641.4 109.8 593.539 109.8 534.5C109.8 475.461 157.661 427.6 216.7 427.6C275.739 427.6 323.6 475.461 323.6 534.5Z" fill="white"/>
<path d="M216.7 427.6C216.7 427.6 231.482 475.96 253.361 497.839C275.24 519.718 323.6 534.5 323.6 534.5C323.6 534.5 275.24 549.282 253.361 571.161C231.482 593.04 216.7 641.4 216.7 641.4C216.7 641.4 201.918 593.04 180.039 571.161C158.16 549.282 109.8 534.5 109.8 534.5C109.8 534.5 158.16 519.718 180.039 497.839C201.918 475.96 216.7 427.6 216.7 427.6Z" fill="#FAC480"/>
<path d="M109.8 534.5C109.8 593.539 61.9392 641.4 2.89999 641.4C-56.1392 641.4 -104 593.539 -104 534.5C-104 475.461 -56.1392 427.6 2.89999 427.6C61.9392 427.6 109.8 475.461 109.8 534.5Z" fill="white"/>
<path d="M2.89999 427.6C2.89999 427.6 17.682 475.96 39.561 497.839C61.44 519.718 109.8 534.5 109.8 534.5C109.8 534.5 61.44 549.282 39.561 571.161C17.682 593.04 2.89999 641.4 2.89999 641.4C2.89999 641.4 -11.882 593.04 -33.761 571.161C-55.64 549.282 -104 534.5 -104 534.5C-104 534.5 -55.64 519.718 -33.761 497.839C-11.882 475.96 2.89999 427.6 2.89999 427.6Z" fill="#FAC480"/>
<path d="M965 748.3C965 807.339 917.139 855.2 858.1 855.2C799.061 855.2 751.2 807.339 751.2 748.3C751.2 689.261 799.061 641.4 858.1 641.4C917.139 641.4 965 689.261 965 748.3Z" fill="white"/>
<path d="M858.1 641.4C858.1 641.4 872.882 689.76 894.761 711.639C916.64 733.518 965 748.3 965 748.3C965 748.3 916.64 763.082 894.761 784.961C872.882 806.84 858.1 855.2 858.1 855.2C858.1 855.2 843.318 806.84 821.439 784.961C799.56 763.082 751.2 748.3 751.2 748.3C751.2 748.3 799.56 733.518 821.439 711.639C843.318 689.76 858.1 641.4 858.1 641.4Z" fill="#FAC480"/>
<path d="M751.2 748.3C751.2 807.339 703.339 855.2 644.3 855.2C585.261 855.2 537.4 807.339 537.4 748.3C537.4 689.261 585.261 641.4 644.3 641.4C703.339 641.4 751.2 689.261 751.2 748.3Z" fill="white"/>
<path d="M644.3 641.4C644.3 641.4 659.082 689.76 680.961 711.639C702.84 733.518 751.2 748.3 751.2 748.3C751.2 748.3 702.84 763.082 680.961 784.961C659.082 806.84 644.3 855.2 644.3 855.2C644.3 855.2 629.518 806.84 607.639 784.961C585.76 763.082 537.4 748.3 537.4 748.3C537.4 748.3 585.76 733.518 607.639 711.639C629.518 689.76 644.3 641.4 644.3 641.4Z" fill="#FAC480"/>
<path d="M537.4 748.3C537.4 807.339 489.539 855.2 430.5 855.2C371.461 855.2 323.6 807.339 323.6 748.3C323.6 689.261 371.461 641.4 430.5 641.4C489.539 641.4 537.4 689.261 537.4 748.3Z" fill="white"/>
<path d="M430.5 641.4C430.5 641.4 445.282 689.76 467.161 711.639C489.04 733.518 537.4 748.3 537.4 748.3C537.4 748.3 489.04 763.082 467.161 784.961C445.282 806.84 430.5 855.2 430.5 855.2C430.5 855.2 415.718 806.84 393.839 784.961C371.96 763.082 323.6 748.3 323.6 748.3C323.6 748.3 371.96 733.518 393.839 711.639C415.718 689.76 430.5 641.4 430.5 641.4Z" fill="#FAC480"/>
<path d="M323.6 748.3C323.6 807.339 275.739 855.2 216.7 855.2C157.661 855.2 109.8 807.339 109.8 748.3C109.8 689.261 157.661 641.4 216.7 641.4C275.739 641.4 323.6 689.261 323.6 748.3Z" fill="white"/>
<path d="M216.7 641.4C216.7 641.4 231.482 689.76 253.361 711.639C275.24 733.518 323.6 748.3 323.6 748.3C323.6 748.3 275.24 763.082 253.361 784.961C231.482 806.84 216.7 855.2 216.7 855.2C216.7 855.2 201.918 806.84 180.039 784.961C158.16 763.082 109.8 748.3 109.8 748.3C109.8 748.3 158.16 733.518 180.039 711.639C201.918 689.76 216.7 641.4 216.7 641.4Z" fill="#FAC480"/>
<path d="M109.8 748.3C109.8 807.339 61.9392 855.2 2.89999 855.2C-56.1392 855.2 -104 807.339 -104 748.3C-104 689.261 -56.1392 641.4 2.89999 641.4C61.9392 641.4 109.8 689.261 109.8 748.3Z" fill="white"/>
<path d="M2.89999 641.4C2.89999 641.4 17.682 689.76 39.561 711.639C61.44 733.518 109.8 748.3 109.8 748.3C109.8 748.3 61.44 763.082 39.561 784.961C17.682 806.84 2.89999 855.2 2.89999 855.2C2.89999 855.2 -11.882 806.84 -33.761 784.961C-55.64 763.082 -104 748.3 -104 748.3C-104 748.3 -55.64 733.518 -33.761 711.639C-11.882 689.76 2.89999 641.4 2.89999 641.4Z" fill="#FAC480"/>
<path d="M965 962.1C965 1021.14 917.139 1069 858.1 1069C799.061 1069 751.2 1021.14 751.2 962.1C751.2 903.061 799.061 855.2 858.1 855.2C917.139 855.2 965 903.061 965 962.1Z" fill="white"/>
<path d="M858.1 855.2C858.1 855.2 872.882 903.56 894.761 925.439C916.64 947.318 965 962.1 965 962.1C965 962.1 916.64 976.882 894.761 998.761C872.882 1020.64 858.1 1069 858.1 1069C858.1 1069 843.318 1020.64 821.439 998.761C799.56 976.882 751.2 962.1 751.2 962.1C751.2 962.1 799.56 947.318 821.439 925.439C843.318 903.56 858.1 855.2 858.1 855.2Z" fill="#FAC480"/>
<path d="M751.2 962.1C751.2 1021.14 703.339 1069 644.3 1069C585.261 1069 537.4 1021.14 537.4 962.1C537.4 903.061 585.261 855.2 644.3 855.2C703.339 855.2 751.2 903.061 751.2 962.1Z" fill="white"/>
<path d="M644.3 855.2C644.3 855.2 659.082 903.56 680.961 925.439C702.84 947.318 751.2 962.1 751.2 962.1C751.2 962.1 702.84 976.882 680.961 998.761C659.082 1020.64 644.3 1069 644.3 1069C644.3 1069 629.518 1020.64 607.639 998.761C585.76 976.882 537.4 962.1 537.4 962.1C537.4 962.1 585.76 947.318 607.639 925.439C629.518 903.56 644.3 855.2 644.3 855.2Z" fill="#FAC480"/>
<path d="M537.4 962.1C537.4 1021.14 489.539 1069 430.5 1069C371.461 1069 323.6 1021.14 323.6 962.1C323.6 903.061 371.461 855.2 430.5 855.2C489.539 855.2 537.4 903.061 537.4 962.1Z" fill="white"/>
<path d="M430.5 855.2C430.5 855.2 445.282 903.56 467.161 925.439C489.04 947.318 537.4 962.1 537.4 962.1C537.4 962.1 489.04 976.882 467.161 998.761C445.282 1020.64 430.5 1069 430.5 1069C430.5 1069 415.718 1020.64 393.839 998.761C371.96 976.882 323.6 962.1 323.6 962.1C323.6 962.1 371.96 947.318 393.839 925.439C415.718 903.56 430.5 855.2 430.5 855.2Z" fill="#FAC480"/>
<path d="M323.6 962.1C323.6 1021.14 275.739 1069 216.7 1069C157.661 1069 109.8 1021.14 109.8 962.1C109.8 903.061 157.661 855.2 216.7 855.2C275.739 855.2 323.6 903.061 323.6 962.1Z" fill="white"/>
<path d="M216.7 855.2C216.7 855.2 231.482 903.56 253.361 925.439C275.24 947.318 323.6 962.1 323.6 962.1C323.6 962.1 275.24 976.882 253.361 998.761C231.482 1020.64 216.7 1069 216.7 1069C216.7 1069 201.918 1020.64 180.039 998.761C158.16 976.882 109.8 962.1 109.8 962.1C109.8 962.1 158.16 947.318 180.039 925.439C201.918 903.56 216.7 855.2 216.7 855.2Z" fill="#FAC480"/>
<path d="M109.8 962.1C109.8 1021.14 61.9392 1069 2.89999 1069C-56.1392 1069 -104 1021.14 -104 962.1C-104 903.061 -56.1392 855.2 2.89999 855.2C61.9392 855.2 109.8 903.061 109.8 962.1Z" fill="white"/>
<path d="M2.89999 855.2C2.89999 855.2 17.682 903.56 39.561 925.439C61.44 947.318 109.8 962.1 109.8 962.1C109.8 962.1 61.44 976.882 39.561 998.761C17.682 1020.64 2.89999 1069 2.89999 1069C2.89999 1069 -11.882 1020.64 -33.761 998.761C-55.64 976.882 -104 962.1 -104 962.1C-104 962.1 -55.64 947.318 -33.761 925.439C-11.882 903.56 2.89999 855.2 2.89999 855.2Z" fill="#FAC480"/>
<path d="M2034 106.9C2034 165.939 1986.14 213.8 1927.1 213.8C1868.06 213.8 1820.2 165.939 1820.2 106.9C1820.2 47.8608 1868.06 0 1927.1 0C1986.14 0 2034 47.8608 2034 106.9Z" fill="white"/>
<path d="M1927.1 0C1927.1 0 1941.88 48.36 1963.76 70.239C1985.64 92.118 2034 106.9 2034 106.9C2034 106.9 1985.64 121.682 1963.76 143.561C1941.88 165.44 1927.1 213.8 1927.1 213.8C1927.1 213.8 1912.32 165.44 1890.44 143.561C1868.56 121.682 1820.2 106.9 1820.2 106.9C1820.2 106.9 1868.56 92.118 1890.44 70.239C1912.32 48.36 1927.1 0 1927.1 0Z" fill="#FAC480"/>
<path d="M1820.2 106.9C1820.2 165.939 1772.34 213.8 1713.3 213.8C1654.26 213.8 1606.4 165.939 1606.4 106.9C1606.4 47.8608 1654.26 0 1713.3 0C1772.34 0 1820.2 47.8608 1820.2 106.9Z" fill="white"/>
<path d="M1713.3 0C1713.3 0 1728.08 48.36 1749.96 70.239C1771.84 92.118 1820.2 106.9 1820.2 106.9C1820.2 106.9 1771.84 121.682 1749.96 143.561C1728.08 165.44 1713.3 213.8 1713.3 213.8C1713.3 213.8 1698.52 165.44 1676.64 143.561C1654.76 121.682 1606.4 106.9 1606.4 106.9C1606.4 106.9 1654.76 92.118 1676.64 70.239C1698.52 48.36 1713.3 0 1713.3 0Z" fill="#FAC480"/>
<path d="M1606.4 106.9C1606.4 165.939 1558.54 213.8 1499.5 213.8C1440.46 213.8 1392.6 165.939 1392.6 106.9C1392.6 47.8608 1440.46 0 1499.5 0C1558.54 0 1606.4 47.8608 1606.4 106.9Z" fill="white"/>
<path d="M1499.5 0C1499.5 0 1514.28 48.36 1536.16 70.239C1558.04 92.118 1606.4 106.9 1606.4 106.9C1606.4 106.9 1558.04 121.682 1536.16 143.561C1514.28 165.44 1499.5 213.8 1499.5 213.8C1499.5 213.8 1484.72 165.44 1462.84 143.561C1440.96 121.682 1392.6 106.9 1392.6 106.9C1392.6 106.9 1440.96 92.118 1462.84 70.239C1484.72 48.36 1499.5 0 1499.5 0Z" fill="#FAC480"/>
<path d="M1392.6 106.9C1392.6 165.939 1344.74 213.8 1285.7 213.8C1226.66 213.8 1178.8 165.939 1178.8 106.9C1178.8 47.8608 1226.66 0 1285.7 0C1344.74 0 1392.6 47.8608 1392.6 106.9Z" fill="white"/>
<path d="M1285.7 0C1285.7 0 1300.48 48.36 1322.36 70.239C1344.24 92.118 1392.6 106.9 1392.6 106.9C1392.6 106.9 1344.24 121.682 1322.36 143.561C1300.48 165.44 1285.7 213.8 1285.7 213.8C1285.7 213.8 1270.92 165.44 1249.04 143.561C1227.16 121.682 1178.8 106.9 1178.8 106.9C1178.8 106.9 1227.16 92.118 1249.04 70.239C1270.92 48.36 1285.7 0 1285.7 0Z" fill="#FAC480"/>
<path d="M1178.8 106.9C1178.8 165.939 1130.94 213.8 1071.9 213.8C1012.86 213.8 965 165.939 965 106.9C965 47.8608 1012.86 0 1071.9 0C1130.94 0 1178.8 47.8608 1178.8 106.9Z" fill="white"/>
<path d="M1071.9 0C1071.9 0 1086.68 48.36 1108.56 70.239C1130.44 92.118 1178.8 106.9 1178.8 106.9C1178.8 106.9 1130.44 121.682 1108.56 143.561C1086.68 165.44 1071.9 213.8 1071.9 213.8C1071.9 213.8 1057.12 165.44 1035.24 143.561C1013.36 121.682 965 106.9 965 106.9C965 106.9 1013.36 92.118 1035.24 70.239C1057.12 48.36 1071.9 0 1071.9 0Z" fill="#FAC480"/>
<path d="M2034 320.7C2034 379.739 1986.14 427.6 1927.1 427.6C1868.06 427.6 1820.2 379.739 1820.2 320.7C1820.2 261.661 1868.06 213.8 1927.1 213.8C1986.14 213.8 2034 261.661 2034 320.7Z" fill="white"/>
<path d="M1927.1 213.8C1927.1 213.8 1941.88 262.16 1963.76 284.039C1985.64 305.918 2034 320.7 2034 320.7C2034 320.7 1985.64 335.482 1963.76 357.361C1941.88 379.24 1927.1 427.6 1927.1 427.6C1927.1 427.6 1912.32 379.24 1890.44 357.361C1868.56 335.482 1820.2 320.7 1820.2 320.7C1820.2 320.7 1868.56 305.918 1890.44 284.039C1912.32 262.16 1927.1 213.8 1927.1 213.8Z" fill="#FAC480"/>
<path d="M1820.2 320.7C1820.2 379.739 1772.34 427.6 1713.3 427.6C1654.26 427.6 1606.4 379.739 1606.4 320.7C1606.4 261.661 1654.26 213.8 1713.3 213.8C1772.34 213.8 1820.2 261.661 1820.2 320.7Z" fill="white"/>
<path d="M1713.3 213.8C1713.3 213.8 1728.08 262.16 1749.96 284.039C1771.84 305.918 1820.2 320.7 1820.2 320.7C1820.2 320.7 1771.84 335.482 1749.96 357.361C1728.08 379.24 1713.3 427.6 1713.3 427.6C1713.3 427.6 1698.52 379.24 1676.64 357.361C1654.76 335.482 1606.4 320.7 1606.4 320.7C1606.4 320.7 1654.76 305.918 1676.64 284.039C1698.52 262.16 1713.3 213.8 1713.3 213.8Z" fill="#FAC480"/>
<path d="M1606.4 320.7C1606.4 379.739 1558.54 427.6 1499.5 427.6C1440.46 427.6 1392.6 379.739 1392.6 320.7C1392.6 261.661 1440.46 213.8 1499.5 213.8C1558.54 213.8 1606.4 261.661 1606.4 320.7Z" fill="white"/>
<path d="M1499.5 213.8C1499.5 213.8 1514.28 262.16 1536.16 284.039C1558.04 305.918 1606.4 320.7 1606.4 320.7C1606.4 320.7 1558.04 335.482 1536.16 357.361C1514.28 379.24 1499.5 427.6 1499.5 427.6C1499.5 427.6 1484.72 379.24 1462.84 357.361C1440.96 335.482 1392.6 320.7 1392.6 320.7C1392.6 320.7 1440.96 305.918 1462.84 284.039C1484.72 262.16 1499.5 213.8 1499.5 213.8Z" fill="#FAC480"/>
<path d="M1392.6 320.7C1392.6 379.739 1344.74 427.6 1285.7 427.6C1226.66 427.6 1178.8 379.739 1178.8 320.7C1178.8 261.661 1226.66 213.8 1285.7 213.8C1344.74 213.8 1392.6 261.661 1392.6 320.7Z" fill="white"/>
<path d="M1285.7 213.8C1285.7 213.8 1300.48 262.16 1322.36 284.039C1344.24 305.918 1392.6 320.7 1392.6 320.7C1392.6 320.7 1344.24 335.482 1322.36 357.361C1300.48 379.24 1285.7 427.6 1285.7 427.6C1285.7 427.6 1270.92 379.24 1249.04 357.361C1227.16 335.482 1178.8 320.7 1178.8 320.7C1178.8 320.7 1227.16 305.918 1249.04 284.039C1270.92 262.16 1285.7 213.8 1285.7 213.8Z" fill="#FAC480"/>
<path d="M1178.8 320.7C1178.8 379.739 1130.94 427.6 1071.9 427.6C1012.86 427.6 965 379.739 965 320.7C965 261.661 1012.86 213.8 1071.9 213.8C1130.94 213.8 1178.8 261.661 1178.8 320.7Z" fill="white"/>
<path d="M1071.9 213.8C1071.9 213.8 1086.68 262.16 1108.56 284.039C1130.44 305.918 1178.8 320.7 1178.8 320.7C1178.8 320.7 1130.44 335.482 1108.56 357.361C1086.68 379.24 1071.9 427.6 1071.9 427.6C1071.9 427.6 1057.12 379.24 1035.24 357.361C1013.36 335.482 965 320.7 965 320.7C965 320.7 1013.36 305.918 1035.24 284.039C1057.12 262.16 1071.9 213.8 1071.9 213.8Z" fill="#FAC480"/>
<path d="M2034 534.5C2034 593.539 1986.14 641.4 1927.1 641.4C1868.06 641.4 1820.2 593.539 1820.2 534.5C1820.2 475.461 1868.06 427.6 1927.1 427.6C1986.14 427.6 2034 475.461 2034 534.5Z" fill="white"/>
<path d="M1927.1 427.6C1927.1 427.6 1941.88 475.96 1963.76 497.839C1985.64 519.718 2034 534.5 2034 534.5C2034 534.5 1985.64 549.282 1963.76 571.161C1941.88 593.04 1927.1 641.4 1927.1 641.4C1927.1 641.4 1912.32 593.04 1890.44 571.161C1868.56 549.282 1820.2 534.5 1820.2 534.5C1820.2 534.5 1868.56 519.718 1890.44 497.839C1912.32 475.96 1927.1 427.6 1927.1 427.6Z" fill="#FAC480"/>
<path d="M1820.2 534.5C1820.2 593.539 1772.34 641.4 1713.3 641.4C1654.26 641.4 1606.4 593.539 1606.4 534.5C1606.4 475.461 1654.26 427.6 1713.3 427.6C1772.34 427.6 1820.2 475.461 1820.2 534.5Z" fill="white"/>
<path d="M1713.3 427.6C1713.3 427.6 1728.08 475.96 1749.96 497.839C1771.84 519.718 1820.2 534.5 1820.2 534.5C1820.2 534.5 1771.84 549.282 1749.96 571.161C1728.08 593.04 1713.3 641.4 1713.3 641.4C1713.3 641.4 1698.52 593.04 1676.64 571.161C1654.76 549.282 1606.4 534.5 1606.4 534.5C1606.4 534.5 1654.76 519.718 1676.64 497.839C1698.52 475.96 1713.3 427.6 1713.3 427.6Z" fill="#FAC480"/>
<path d="M1606.4 534.5C1606.4 593.539 1558.54 641.4 1499.5 641.4C1440.46 641.4 1392.6 593.539 1392.6 534.5C1392.6 475.461 1440.46 427.6 1499.5 427.6C1558.54 427.6 1606.4 475.461 1606.4 534.5Z" fill="white"/>
<path d="M1499.5 427.6C1499.5 427.6 1514.28 475.96 1536.16 497.839C1558.04 519.718 1606.4 534.5 1606.4 534.5C1606.4 534.5 1558.04 549.282 1536.16 571.161C1514.28 593.04 1499.5 641.4 1499.5 641.4C1499.5 641.4 1484.72 593.04 1462.84 571.161C1440.96 549.282 1392.6 534.5 1392.6 534.5C1392.6 534.5 1440.96 519.718 1462.84 497.839C1484.72 475.96 1499.5 427.6 1499.5 427.6Z" fill="#FAC480"/>
<path d="M1392.6 534.5C1392.6 593.539 1344.74 641.4 1285.7 641.4C1226.66 641.4 1178.8 593.539 1178.8 534.5C1178.8 475.461 1226.66 427.6 1285.7 427.6C1344.74 427.6 1392.6 475.461 1392.6 534.5Z" fill="white"/>
<path d="M1285.7 427.6C1285.7 427.6 1300.48 475.96 1322.36 497.839C1344.24 519.718 1392.6 534.5 1392.6 534.5C1392.6 534.5 1344.24 549.282 1322.36 571.161C1300.48 593.04 1285.7 641.4 1285.7 641.4C1285.7 641.4 1270.92 593.04 1249.04 571.161C1227.16 549.282 1178.8 534.5 1178.8 534.5C1178.8 534.5 1227.16 519.718 1249.04 497.839C1270.92 475.96 1285.7 427.6 1285.7 427.6Z" fill="#FAC480"/>
<path d="M1178.8 534.5C1178.8 593.539 1130.94 641.4 1071.9 641.4C1012.86 641.4 965 593.539 965 534.5C965 475.461 1012.86 427.6 1071.9 427.6C1130.94 427.6 1178.8 475.461 1178.8 534.5Z" fill="white"/>
<path d="M1071.9 427.6C1071.9 427.6 1086.68 475.96 1108.56 497.839C1130.44 519.718 1178.8 534.5 1178.8 534.5C1178.8 534.5 1130.44 549.282 1108.56 571.161C1086.68 593.04 1071.9 641.4 1071.9 641.4C1071.9 641.4 1057.12 593.04 1035.24 571.161C1013.36 549.282 965 534.5 965 534.5C965 534.5 1013.36 519.718 1035.24 497.839C1057.12 475.96 1071.9 427.6 1071.9 427.6Z" fill="#FAC480"/>
<path d="M2034 748.3C2034 807.339 1986.14 855.2 1927.1 855.2C1868.06 855.2 1820.2 807.339 1820.2 748.3C1820.2 689.261 1868.06 641.4 1927.1 641.4C1986.14 641.4 2034 689.261 2034 748.3Z" fill="white"/>
<path d="M1927.1 641.4C1927.1 641.4 1941.88 689.76 1963.76 711.639C1985.64 733.518 2034 748.3 2034 748.3C2034 748.3 1985.64 763.082 1963.76 784.961C1941.88 806.84 1927.1 855.2 1927.1 855.2C1927.1 855.2 1912.32 806.84 1890.44 784.961C1868.56 763.082 1820.2 748.3 1820.2 748.3C1820.2 748.3 1868.56 733.518 1890.44 711.639C1912.32 689.76 1927.1 641.4 1927.1 641.4Z" fill="#FAC480"/>
<path d="M1820.2 748.3C1820.2 807.339 1772.34 855.2 1713.3 855.2C1654.26 855.2 1606.4 807.339 1606.4 748.3C1606.4 689.261 1654.26 641.4 1713.3 641.4C1772.34 641.4 1820.2 689.261 1820.2 748.3Z" fill="white"/>
<path d="M1713.3 641.4C1713.3 641.4 1728.08 689.76 1749.96 711.639C1771.84 733.518 1820.2 748.3 1820.2 748.3C1820.2 748.3 1771.84 763.082 1749.96 784.961C1728.08 806.84 1713.3 855.2 1713.3 855.2C1713.3 855.2 1698.52 806.84 1676.64 784.961C1654.76 763.082 1606.4 748.3 1606.4 748.3C1606.4 748.3 1654.76 733.518 1676.64 711.639C1698.52 689.76 1713.3 641.4 1713.3 641.4Z" fill="#FAC480"/>
<path d="M1606.4 748.3C1606.4 807.339 1558.54 855.2 1499.5 855.2C1440.46 855.2 1392.6 807.339 1392.6 748.3C1392.6 689.261 1440.46 641.4 1499.5 641.4C1558.54 641.4 1606.4 689.261 1606.4 748.3Z" fill="white"/>
<path d="M1499.5 641.4C1499.5 641.4 1514.28 689.76 1536.16 711.639C1558.04 733.518 1606.4 748.3 1606.4 748.3C1606.4 748.3 1558.04 763.082 1536.16 784.961C1514.28 806.84 1499.5 855.2 1499.5 855.2C1499.5 855.2 1484.72 806.84 1462.84 784.961C1440.96 763.082 1392.6 748.3 1392.6 748.3C1392.6 748.3 1440.96 733.518 1462.84 711.639C1484.72 689.76 1499.5 641.4 1499.5 641.4Z" fill="#FAC480"/>
<path d="M1392.6 748.3C1392.6 807.339 1344.74 855.2 1285.7 855.2C1226.66 855.2 1178.8 807.339 1178.8 748.3C1178.8 689.261 1226.66 641.4 1285.7 641.4C1344.74 641.4 1392.6 689.261 1392.6 748.3Z" fill="white"/>
<path d="M1285.7 641.4C1285.7 641.4 1300.48 689.76 1322.36 711.639C1344.24 733.518 1392.6 748.3 1392.6 748.3C1392.6 748.3 1344.24 763.082 1322.36 784.961C1300.48 806.84 1285.7 855.2 1285.7 855.2C1285.7 855.2 1270.92 806.84 1249.04 784.961C1227.16 763.082 1178.8 748.3 1178.8 748.3C1178.8 748.3 1227.16 733.518 1249.04 711.639C1270.92 689.76 1285.7 641.4 1285.7 641.4Z" fill="#FAC480"/>
<path d="M1178.8 748.3C1178.8 807.339 1130.94 855.2 1071.9 855.2C1012.86 855.2 965 807.339 965 748.3C965 689.261 1012.86 641.4 1071.9 641.4C1130.94 641.4 1178.8 689.261 1178.8 748.3Z" fill="white"/>
<path d="M1071.9 641.4C1071.9 641.4 1086.68 689.76 1108.56 711.639C1130.44 733.518 1178.8 748.3 1178.8 748.3C1178.8 748.3 1130.44 763.082 1108.56 784.961C1086.68 806.84 1071.9 855.2 1071.9 855.2C1071.9 855.2 1057.12 806.84 1035.24 784.961C1013.36 763.082 965 748.3 965 748.3C965 748.3 1013.36 733.518 1035.24 711.639C1057.12 689.76 1071.9 641.4 1071.9 641.4Z" fill="#FAC480"/>
<path d="M2034 962.1C2034 1021.14 1986.14 1069 1927.1 1069C1868.06 1069 1820.2 1021.14 1820.2 962.1C1820.2 903.061 1868.06 855.2 1927.1 855.2C1986.14 855.2 2034 903.061 2034 962.1Z" fill="white"/>
<path d="M1927.1 855.2C1927.1 855.2 1941.88 903.56 1963.76 925.439C1985.64 947.318 2034 962.1 2034 962.1C2034 962.1 1985.64 976.882 1963.76 998.761C1941.88 1020.64 1927.1 1069 1927.1 1069C1927.1 1069 1912.32 1020.64 1890.44 998.761C1868.56 976.882 1820.2 962.1 1820.2 962.1C1820.2 962.1 1868.56 947.318 1890.44 925.439C1912.32 903.56 1927.1 855.2 1927.1 855.2Z" fill="#FAC480"/>
<path d="M1820.2 962.1C1820.2 1021.14 1772.34 1069 1713.3 1069C1654.26 1069 1606.4 1021.14 1606.4 962.1C1606.4 903.061 1654.26 855.2 1713.3 855.2C1772.34 855.2 1820.2 903.061 1820.2 962.1Z" fill="white"/>
<path d="M1713.3 855.2C1713.3 855.2 1728.08 903.56 1749.96 925.439C1771.84 947.318 1820.2 962.1 1820.2 962.1C1820.2 962.1 1771.84 976.882 1749.96 998.761C1728.08 1020.64 1713.3 1069 1713.3 1069C1713.3 1069 1698.52 1020.64 1676.64 998.761C1654.76 976.882 1606.4 962.1 1606.4 962.1C1606.4 962.1 1654.76 947.318 1676.64 925.439C1698.52 903.56 1713.3 855.2 1713.3 855.2Z" fill="#FAC480"/>
<path d="M1606.4 962.1C1606.4 1021.14 1558.54 1069 1499.5 1069C1440.46 1069 1392.6 1021.14 1392.6 962.1C1392.6 903.061 1440.46 855.2 1499.5 855.2C1558.54 855.2 1606.4 903.061 1606.4 962.1Z" fill="white"/>
<path d="M1499.5 855.2C1499.5 855.2 1514.28 903.56 1536.16 925.439C1558.04 947.318 1606.4 962.1 1606.4 962.1C1606.4 962.1 1558.04 976.882 1536.16 998.761C1514.28 1020.64 1499.5 1069 1499.5 1069C1499.5 1069 1484.72 1020.64 1462.84 998.761C1440.96 976.882 1392.6 962.1 1392.6 962.1C1392.6 962.1 1440.96 947.318 1462.84 925.439C1484.72 903.56 1499.5 855.2 1499.5 855.2Z" fill="#FAC480"/>
<path d="M1392.6 962.1C1392.6 1021.14 1344.74 1069 1285.7 1069C1226.66 1069 1178.8 1021.14 1178.8 962.1C1178.8 903.061 1226.66 855.2 1285.7 855.2C1344.74 855.2 1392.6 903.061 1392.6 962.1Z" fill="white"/>
<path d="M1285.7 855.2C1285.7 855.2 1300.48 903.56 1322.36 925.439C1344.24 947.318 1392.6 962.1 1392.6 962.1C1392.6 962.1 1344.24 976.882 1322.36 998.761C1300.48 1020.64 1285.7 1069 1285.7 1069C1285.7 1069 1270.92 1020.64 1249.04 998.761C1227.16 976.882 1178.8 962.1 1178.8 962.1C1178.8 962.1 1227.16 947.318 1249.04 925.439C1270.92 903.56 1285.7 855.2 1285.7 855.2Z" fill="#FAC480"/>
<path d="M1178.8 962.1C1178.8 1021.14 1130.94 1069 1071.9 1069C1012.86 1069 965 1021.14 965 962.1C965 903.061 1012.86 855.2 1071.9 855.2C1130.94 855.2 1178.8 903.061 1178.8 962.1Z" fill="white"/>
<path d="M1071.9 855.2C1071.9 855.2 1086.68 903.56 1108.56 925.439C1130.44 947.318 1178.8 962.1 1178.8 962.1C1178.8 962.1 1130.44 976.882 1108.56 998.761C1086.68 1020.64 1071.9 1069 1071.9 1069C1071.9 1069 1057.12 1020.64 1035.24 998.761C1013.36 976.882 965 962.1 965 962.1C965 962.1 1013.36 947.318 1035.24 925.439C1057.12 903.56 1071.9 855.2 1071.9 855.2Z" fill="#FAC480"/>
</g>
</svg>
