<svg width="129" height="29" viewBox="0 0 129 29" fill="none" xmlns="http://www.w3.org/2000/svg">
<mask id="path-1-outside-1_368_43" maskUnits="userSpaceOnUse" x="-0.185702" y="-0.688866" width="129.171" height="29.7707" fill="black">
<rect fill="white" x="-0.185702" y="-0.688866" width="129.171" height="29.7707"/>
<path d="M2.00026 15.7446C1.95694 8.4997 7.41711 2.65695 13.262 2.62201C17.7769 2.59501 21.2276 6.03945 22.0958 10.7593L21.0108 10.7658C20.2189 7.0955 17.5082 4.48665 14.0783 4.50716C9.17838 4.53646 4.93922 9.70689 4.97688 16.0068C5.00471 20.6617 7.1956 24.1487 11.2205 24.1246C13.5655 24.1106 15.9004 22.4166 15.8843 19.7216C15.8667 16.7817 13.5788 14.6253 11.1638 14.6398C9.69384 14.6486 8.84235 12.7286 8.839 12.1686L15.8389 12.1268C19.3738 12.1056 20.6772 13.4979 20.6972 16.8578L20.7519 25.9926L18.0219 26.009L17.9646 16.4191C17.9583 15.3692 17.5337 14.6017 16.4837 14.608L14.4888 14.6199C16.0698 15.6255 17.0963 17.5444 17.1101 19.8543C17.0948 23.1445 14.627 26.0293 11.057 26.0506C5.87713 26.0816 2.03499 21.5545 2.00026 15.7446ZM28.5132 12.541C27.3932 12.5477 26.4535 13.4283 26.4602 14.5483L26.5054 22.1082C26.5121 23.2282 27.4625 24.1325 28.5825 24.1258C30.4374 24.1147 30.5953 21.2437 30.5823 19.0738L30.5551 14.5238C30.5484 13.4039 29.6332 12.5343 28.5132 12.541ZM32.7723 10.6955C33.9972 10.6882 35.0535 11.7319 35.0608 12.9569L35.1221 23.2117C35.1251 23.7017 35.5124 24.0844 36.0023 24.0814C36.4923 24.0785 36.91 23.691 36.9071 23.201L36.8899 20.3311L37.7999 20.3256L37.8171 23.1956C37.8261 24.7005 36.6432 25.8976 35.1382 25.9066C33.6333 25.9156 32.4362 24.7328 32.4272 23.2278L32.3659 12.973C32.3636 12.588 32.1525 12.4142 31.9075 12.4157C31.6975 12.417 31.4536 12.5934 31.4559 12.9784L31.4653 14.5534L31.4973 19.9083C31.5151 22.8832 30.8333 25.9324 27.7184 25.951C25.5834 25.9638 23.8582 24.259 23.8454 22.1241L23.8004 14.5992C23.7877 12.4643 25.4924 10.739 27.6274 10.7263C28.8523 10.7189 29.9409 11.3074 30.6463 12.2132C30.9561 11.3364 31.7923 10.7014 32.7723 10.6955ZM39.1088 10.6576C39.9838 10.6524 40.7217 11.138 41.1109 11.8357C41.6665 11.0973 42.5737 10.6369 43.5537 10.6311C44.6737 10.6244 45.6572 11.2135 46.1875 12.0853C46.7072 11.2072 47.7536 10.6059 48.8736 10.5992C50.5886 10.589 51.9619 11.9808 51.9722 13.6958L52.0285 23.1106C52.0314 23.6006 52.4187 23.9833 52.9087 23.9804C53.3987 23.9774 53.8164 23.5899 53.8134 23.0999L53.7963 20.23L54.7063 20.2245L54.7234 23.0945C54.7324 24.5995 53.5496 25.7966 52.0446 25.8056C50.5396 25.8146 49.3425 24.6317 49.3335 23.1267L49.2764 13.5719C49.272 12.8369 48.7087 12.2803 47.9737 12.2847C47.2387 12.2891 46.682 12.8524 46.6864 13.5874L46.7419 22.8622L44.0469 22.8783L43.9915 13.6035C43.9871 12.8685 43.3888 12.3121 42.6538 12.3165C41.9188 12.3209 41.3621 12.8842 41.3665 13.6192L41.4398 25.869L38.7798 25.8849L38.7024 12.9351C38.7001 12.5501 38.4541 12.3766 38.2091 12.378C37.9991 12.3793 37.7551 12.5558 37.7574 12.9407L37.8016 20.3256L36.8916 20.3311L36.8474 12.9462C36.8401 11.7212 37.8838 10.665 39.1088 10.6576ZM58.4883 12.3618C57.3683 12.3685 56.4285 13.2491 56.4352 14.3691L56.4804 21.929C56.4871 23.049 57.4376 23.9533 58.5575 23.9466C60.4125 23.9355 60.5703 21.0645 60.5574 18.8945L60.5302 14.3446C60.5235 13.2246 59.6083 12.3551 58.4883 12.3618ZM62.7473 10.5163C63.9723 10.509 65.0286 11.5527 65.0359 12.7777L65.0972 23.0325C65.1001 23.5225 65.4874 23.9052 65.9774 23.9022C66.4674 23.8993 66.8851 23.5118 66.8822 23.0218L66.865 20.1519L67.775 20.1464L67.7921 23.0164C67.8011 24.5213 66.6183 25.7184 65.1133 25.7274C63.6083 25.7364 62.4112 24.5536 62.4022 23.0486L62.3409 12.7938C62.3386 12.4088 62.1276 12.235 61.8826 12.2365C61.6726 12.2378 61.4286 12.4142 61.4309 12.7992L61.4404 14.3742L61.4724 19.7291C61.4902 22.704 60.8084 25.7532 57.6934 25.7718C55.5585 25.7846 53.8332 24.0798 53.8205 21.9449L53.7755 14.42C53.7627 12.285 55.4674 10.5598 57.6024 10.5471C58.8274 10.5397 59.9159 11.1282 60.6213 12.034C60.9311 11.1572 61.7673 10.5222 62.7473 10.5163ZM71.5447 12.2837C70.4247 12.2904 69.4849 13.1711 69.4916 14.291L69.5368 21.8509C69.5435 22.9709 70.494 23.8752 71.6139 23.8685C73.4689 23.8574 73.627 21.0214 73.6142 18.8865L73.5866 14.2666C73.5799 13.1466 72.6647 12.277 71.5447 12.2837ZM78.1697 25.6494C76.5597 25.659 75.4691 24.7205 75.4588 23.0055L75.3482 4.49086C75.3461 4.14087 75.135 3.96712 74.89 3.96859C74.68 3.96984 74.4361 4.14631 74.4382 4.4963L74.5315 20.106C74.5482 22.906 73.6548 25.6764 70.7498 25.6937C68.6149 25.7065 66.8897 24.0018 66.8769 21.8668L66.8319 14.342C66.8191 12.207 68.5239 10.4818 70.6588 10.469C71.8488 10.4619 72.8669 10.9808 73.5719 11.8166L73.5282 4.50174C73.5209 3.27676 74.5298 2.25571 75.7548 2.24839C76.9797 2.24106 78.0358 3.24977 78.0431 4.47475L78.1536 22.9544C78.1565 23.4444 78.5438 23.8271 79.0338 23.8242C79.5238 23.8212 79.9415 23.4337 79.9386 22.9437L79.9214 20.0738L80.8314 20.0684L80.8485 22.9383C80.8575 24.4433 79.6747 25.6404 78.1697 25.6494ZM84.6011 12.2057C83.4811 12.2124 82.5414 13.093 82.548 14.213L82.5932 21.7729C82.5999 22.8928 83.5504 23.7972 84.6703 23.7905C86.5253 23.7794 86.6832 20.9084 86.6702 18.7384L86.643 14.1885C86.6363 13.0685 85.7211 12.199 84.6011 12.2057ZM88.8601 10.3602C90.0851 10.3529 91.1414 11.3966 91.1487 12.6215L91.21 22.8764C91.2129 23.3663 91.6002 23.749 92.0902 23.7461C92.5802 23.7432 92.9979 23.3557 92.995 22.8657L92.9778 19.9957L93.8878 19.9903L93.905 22.8602C93.9139 24.3652 92.7311 25.5623 91.2261 25.5713C89.7211 25.5803 88.524 24.3974 88.515 22.8925L88.4537 12.6377C88.4514 12.2527 88.2404 12.0789 87.9954 12.0804C87.7854 12.0816 87.5415 12.2581 87.5438 12.6431L87.5532 14.2181L87.5852 19.573C87.603 22.5479 86.9212 25.597 83.8062 25.6157C81.6713 25.6284 79.9461 23.9237 79.9333 21.7888L79.8883 14.2639C79.8755 12.1289 81.5803 10.4037 83.7152 10.3909C84.9402 10.3836 86.0287 10.9721 86.7342 11.8779C87.0439 11.0011 87.8801 10.366 88.8601 10.3602ZM95.1967 10.3223C96.1766 10.3164 96.9854 10.9416 97.3056 11.8147C98.0002 10.9005 99.1516 10.2987 100.377 10.2913C102.512 10.2786 104.237 11.9483 104.249 14.0832L104.301 22.7981C104.304 23.2881 104.657 23.671 105.147 23.6681C105.637 23.6651 106.054 23.2776 106.051 22.7876L106.034 19.9177L106.944 19.9122L106.961 22.7822C106.97 24.2872 105.822 25.484 104.318 25.493C102.813 25.502 101.58 24.3194 101.571 22.8144L101.519 14.0996C101.513 12.9796 100.597 12.075 99.4773 12.0817C98.3573 12.0884 97.4527 13.0039 97.4594 14.1238L97.5276 25.5336L94.8677 25.5495L94.7903 12.5998C94.788 12.2148 94.5419 12.0412 94.2969 12.0427C94.0869 12.044 93.843 12.2204 93.8453 12.6054L93.8894 19.9903L92.9794 19.9957L92.9353 12.6109C92.928 11.3859 93.9717 10.3296 95.1967 10.3223ZM106.007 15.1228C105.964 7.87788 111.424 2.03513 117.269 2.00019C121.784 1.9732 125.235 5.41763 126.103 10.1375L125.018 10.144C124.226 6.47368 121.515 3.86484 118.085 3.88534C113.185 3.91464 108.946 9.08508 108.984 15.385C109.012 20.0399 111.203 23.5268 115.227 23.5028C117.572 23.4888 119.907 21.7948 119.891 19.0998C119.874 16.1599 117.586 14.0035 115.171 14.0179C113.701 14.0267 112.849 12.1068 112.846 11.5468L119.846 11.505C123.381 11.4838 124.684 12.8761 124.704 16.236L124.759 25.3708L122.029 25.3872L121.972 15.7973C121.965 14.7473 121.541 13.9799 120.491 13.9861L118.496 13.9981C120.077 15.0036 121.103 16.9225 121.117 19.2325C121.102 22.5226 118.634 25.4074 115.064 25.4288C109.884 25.4598 106.042 20.9327 106.007 15.1228Z"/>
</mask>
<path d="M2.00026 15.7446C1.95694 8.4997 7.41711 2.65695 13.262 2.62201C17.7769 2.59501 21.2276 6.03945 22.0958 10.7593L21.0108 10.7658C20.2189 7.0955 17.5082 4.48665 14.0783 4.50716C9.17838 4.53646 4.93922 9.70689 4.97688 16.0068C5.00471 20.6617 7.1956 24.1487 11.2205 24.1246C13.5655 24.1106 15.9004 22.4166 15.8843 19.7216C15.8667 16.7817 13.5788 14.6253 11.1638 14.6398C9.69384 14.6486 8.84235 12.7286 8.839 12.1686L15.8389 12.1268C19.3738 12.1056 20.6772 13.4979 20.6972 16.8578L20.7519 25.9926L18.0219 26.009L17.9646 16.4191C17.9583 15.3692 17.5337 14.6017 16.4837 14.608L14.4888 14.6199C16.0698 15.6255 17.0963 17.5444 17.1101 19.8543C17.0948 23.1445 14.627 26.0293 11.057 26.0506C5.87713 26.0816 2.03499 21.5545 2.00026 15.7446ZM28.5132 12.541C27.3932 12.5477 26.4535 13.4283 26.4602 14.5483L26.5054 22.1082C26.5121 23.2282 27.4625 24.1325 28.5825 24.1258C30.4374 24.1147 30.5953 21.2437 30.5823 19.0738L30.5551 14.5238C30.5484 13.4039 29.6332 12.5343 28.5132 12.541ZM32.7723 10.6955C33.9972 10.6882 35.0535 11.7319 35.0608 12.9569L35.1221 23.2117C35.1251 23.7017 35.5124 24.0844 36.0023 24.0814C36.4923 24.0785 36.91 23.691 36.9071 23.201L36.8899 20.3311L37.7999 20.3256L37.8171 23.1956C37.8261 24.7005 36.6432 25.8976 35.1382 25.9066C33.6333 25.9156 32.4362 24.7328 32.4272 23.2278L32.3659 12.973C32.3636 12.588 32.1525 12.4142 31.9075 12.4157C31.6975 12.417 31.4536 12.5934 31.4559 12.9784L31.4653 14.5534L31.4973 19.9083C31.5151 22.8832 30.8333 25.9324 27.7184 25.951C25.5834 25.9638 23.8582 24.259 23.8454 22.1241L23.8004 14.5992C23.7877 12.4643 25.4924 10.739 27.6274 10.7263C28.8523 10.7189 29.9409 11.3074 30.6463 12.2132C30.9561 11.3364 31.7923 10.7014 32.7723 10.6955ZM39.1088 10.6576C39.9838 10.6524 40.7217 11.138 41.1109 11.8357C41.6665 11.0973 42.5737 10.6369 43.5537 10.6311C44.6737 10.6244 45.6572 11.2135 46.1875 12.0853C46.7072 11.2072 47.7536 10.6059 48.8736 10.5992C50.5886 10.589 51.9619 11.9808 51.9722 13.6958L52.0285 23.1106C52.0314 23.6006 52.4187 23.9833 52.9087 23.9804C53.3987 23.9774 53.8164 23.5899 53.8134 23.0999L53.7963 20.23L54.7063 20.2245L54.7234 23.0945C54.7324 24.5995 53.5496 25.7966 52.0446 25.8056C50.5396 25.8146 49.3425 24.6317 49.3335 23.1267L49.2764 13.5719C49.272 12.8369 48.7087 12.2803 47.9737 12.2847C47.2387 12.2891 46.682 12.8524 46.6864 13.5874L46.7419 22.8622L44.0469 22.8783L43.9915 13.6035C43.9871 12.8685 43.3888 12.3121 42.6538 12.3165C41.9188 12.3209 41.3621 12.8842 41.3665 13.6192L41.4398 25.869L38.7798 25.8849L38.7024 12.9351C38.7001 12.5501 38.4541 12.3766 38.2091 12.378C37.9991 12.3793 37.7551 12.5558 37.7574 12.9407L37.8016 20.3256L36.8916 20.3311L36.8474 12.9462C36.8401 11.7212 37.8838 10.665 39.1088 10.6576ZM58.4883 12.3618C57.3683 12.3685 56.4285 13.2491 56.4352 14.3691L56.4804 21.929C56.4871 23.049 57.4376 23.9533 58.5575 23.9466C60.4125 23.9355 60.5703 21.0645 60.5574 18.8945L60.5302 14.3446C60.5235 13.2246 59.6083 12.3551 58.4883 12.3618ZM62.7473 10.5163C63.9723 10.509 65.0286 11.5527 65.0359 12.7777L65.0972 23.0325C65.1001 23.5225 65.4874 23.9052 65.9774 23.9022C66.4674 23.8993 66.8851 23.5118 66.8822 23.0218L66.865 20.1519L67.775 20.1464L67.7921 23.0164C67.8011 24.5213 66.6183 25.7184 65.1133 25.7274C63.6083 25.7364 62.4112 24.5536 62.4022 23.0486L62.3409 12.7938C62.3386 12.4088 62.1276 12.235 61.8826 12.2365C61.6726 12.2378 61.4286 12.4142 61.4309 12.7992L61.4404 14.3742L61.4724 19.7291C61.4902 22.704 60.8084 25.7532 57.6934 25.7718C55.5585 25.7846 53.8332 24.0798 53.8205 21.9449L53.7755 14.42C53.7627 12.285 55.4674 10.5598 57.6024 10.5471C58.8274 10.5397 59.9159 11.1282 60.6213 12.034C60.9311 11.1572 61.7673 10.5222 62.7473 10.5163ZM71.5447 12.2837C70.4247 12.2904 69.4849 13.1711 69.4916 14.291L69.5368 21.8509C69.5435 22.9709 70.494 23.8752 71.6139 23.8685C73.4689 23.8574 73.627 21.0214 73.6142 18.8865L73.5866 14.2666C73.5799 13.1466 72.6647 12.277 71.5447 12.2837ZM78.1697 25.6494C76.5597 25.659 75.4691 24.7205 75.4588 23.0055L75.3482 4.49086C75.3461 4.14087 75.135 3.96712 74.89 3.96859C74.68 3.96984 74.4361 4.14631 74.4382 4.4963L74.5315 20.106C74.5482 22.906 73.6548 25.6764 70.7498 25.6937C68.6149 25.7065 66.8897 24.0018 66.8769 21.8668L66.8319 14.342C66.8191 12.207 68.5239 10.4818 70.6588 10.469C71.8488 10.4619 72.8669 10.9808 73.5719 11.8166L73.5282 4.50174C73.5209 3.27676 74.5298 2.25571 75.7548 2.24839C76.9797 2.24106 78.0358 3.24977 78.0431 4.47475L78.1536 22.9544C78.1565 23.4444 78.5438 23.8271 79.0338 23.8242C79.5238 23.8212 79.9415 23.4337 79.9386 22.9437L79.9214 20.0738L80.8314 20.0684L80.8485 22.9383C80.8575 24.4433 79.6747 25.6404 78.1697 25.6494ZM84.6011 12.2057C83.4811 12.2124 82.5414 13.093 82.548 14.213L82.5932 21.7729C82.5999 22.8928 83.5504 23.7972 84.6703 23.7905C86.5253 23.7794 86.6832 20.9084 86.6702 18.7384L86.643 14.1885C86.6363 13.0685 85.7211 12.199 84.6011 12.2057ZM88.8601 10.3602C90.0851 10.3529 91.1414 11.3966 91.1487 12.6215L91.21 22.8764C91.2129 23.3663 91.6002 23.749 92.0902 23.7461C92.5802 23.7432 92.9979 23.3557 92.995 22.8657L92.9778 19.9957L93.8878 19.9903L93.905 22.8602C93.9139 24.3652 92.7311 25.5623 91.2261 25.5713C89.7211 25.5803 88.524 24.3974 88.515 22.8925L88.4537 12.6377C88.4514 12.2527 88.2404 12.0789 87.9954 12.0804C87.7854 12.0816 87.5415 12.2581 87.5438 12.6431L87.5532 14.2181L87.5852 19.573C87.603 22.5479 86.9212 25.597 83.8062 25.6157C81.6713 25.6284 79.9461 23.9237 79.9333 21.7888L79.8883 14.2639C79.8755 12.1289 81.5803 10.4037 83.7152 10.3909C84.9402 10.3836 86.0287 10.9721 86.7342 11.8779C87.0439 11.0011 87.8801 10.366 88.8601 10.3602ZM95.1967 10.3223C96.1766 10.3164 96.9854 10.9416 97.3056 11.8147C98.0002 10.9005 99.1516 10.2987 100.377 10.2913C102.512 10.2786 104.237 11.9483 104.249 14.0832L104.301 22.7981C104.304 23.2881 104.657 23.671 105.147 23.6681C105.637 23.6651 106.054 23.2776 106.051 22.7876L106.034 19.9177L106.944 19.9122L106.961 22.7822C106.97 24.2872 105.822 25.484 104.318 25.493C102.813 25.502 101.58 24.3194 101.571 22.8144L101.519 14.0996C101.513 12.9796 100.597 12.075 99.4773 12.0817C98.3573 12.0884 97.4527 13.0039 97.4594 14.1238L97.5276 25.5336L94.8677 25.5495L94.7903 12.5998C94.788 12.2148 94.5419 12.0412 94.2969 12.0427C94.0869 12.044 93.843 12.2204 93.8453 12.6054L93.8894 19.9903L92.9794 19.9957L92.9353 12.6109C92.928 11.3859 93.9717 10.3296 95.1967 10.3223ZM106.007 15.1228C105.964 7.87788 111.424 2.03513 117.269 2.00019C121.784 1.9732 125.235 5.41763 126.103 10.1375L125.018 10.144C124.226 6.47368 121.515 3.86484 118.085 3.88534C113.185 3.91464 108.946 9.08508 108.984 15.385C109.012 20.0399 111.203 23.5268 115.227 23.5028C117.572 23.4888 119.907 21.7948 119.891 19.0998C119.874 16.1599 117.586 14.0035 115.171 14.0179C113.701 14.0267 112.849 12.1068 112.846 11.5468L119.846 11.505C123.381 11.4838 124.684 12.8761 124.704 16.236L124.759 25.3708L122.029 25.3872L121.972 15.7973C121.965 14.7473 121.541 13.9799 120.491 13.9861L118.496 13.9981C120.077 15.0036 121.103 16.9225 121.117 19.2325C121.102 22.5226 118.634 25.4074 115.064 25.4288C109.884 25.4598 106.042 20.9327 106.007 15.1228Z" fill="white"/>
<path d="M22.0958 10.7593L22.1078 12.7593C22.6994 12.7558 23.2592 12.4904 23.6365 12.0346C24.0137 11.5789 24.1699 10.9794 24.0628 10.3975L22.0958 10.7593ZM21.0108 10.7658L19.0558 11.1877C19.2555 12.1129 20.0763 12.7714 21.0228 12.7658L21.0108 10.7658ZM8.839 12.1686L8.82705 10.1687C7.7225 10.1753 6.83243 11.076 6.83904 12.1806L8.839 12.1686ZM20.7519 25.9926L20.7638 27.9926C21.8684 27.986 22.7584 27.0852 22.7518 25.9807L20.7519 25.9926ZM18.0219 26.009L16.0219 26.0209C16.0286 27.1255 16.9293 28.0155 18.0339 28.0089L18.0219 26.009ZM14.4888 14.6199L14.4768 12.6199C13.5897 12.6252 12.8122 13.2142 12.5668 14.0667C12.3214 14.9192 12.6669 15.8314 13.4154 16.3075L14.4888 14.6199ZM17.1101 19.8543L19.1101 19.8636C19.1101 19.8565 19.1101 19.8494 19.1101 19.8424L17.1101 19.8543ZM2.00026 15.7446L4.00022 15.7326C3.9622 9.37212 8.74163 4.64907 13.274 4.62197L13.262 2.62201L13.25 0.622043C6.09259 0.664834 -0.0483068 7.62728 0.000294741 15.7565L2.00026 15.7446ZM13.262 2.62201L13.274 4.62197C16.6037 4.60206 19.3938 7.12572 20.1288 11.1212L22.0958 10.7593L24.0628 10.3975C23.0613 4.95317 18.9501 0.587964 13.25 0.622043L13.262 2.62201ZM22.0958 10.7593L22.0839 8.75938L20.9989 8.76586L21.0108 10.7658L21.0228 12.7658L22.1078 12.7593L22.0958 10.7593ZM21.0108 10.7658L22.9658 10.344C22.0251 5.98389 18.6644 2.47971 14.0663 2.5072L14.0783 4.50716L14.0902 6.50713C16.3521 6.4936 18.4127 8.2071 19.0558 11.1877L21.0108 10.7658ZM14.0783 4.50716L14.0663 2.5072C7.68903 2.54532 2.93512 9.0283 2.97692 16.0187L4.97688 16.0068L6.97684 15.9948C6.94331 10.3855 10.6677 6.52759 14.0902 6.50713L14.0783 4.50716ZM4.97688 16.0068L2.97692 16.0187C2.9925 18.6246 3.61049 21.1092 4.98197 22.9962C6.4042 24.953 8.55743 26.1406 11.2325 26.1246L11.2205 24.1246L11.2086 22.1246C9.85869 22.1327 8.90401 21.5888 8.21761 20.6444C7.48046 19.6302 6.98909 18.0439 6.97684 15.9948L4.97688 16.0068ZM11.2205 24.1246L11.2325 26.1246C14.3899 26.1057 17.9086 23.7802 17.8842 19.7097L15.8843 19.7216L13.8843 19.7336C13.8922 21.053 12.741 22.1155 11.2086 22.1246L11.2205 24.1246ZM15.8843 19.7216L17.8842 19.7097C17.8606 15.7495 14.7538 12.6183 11.1519 12.6398L11.1638 14.6398L11.1758 16.6397C12.4037 16.6324 13.8728 17.8139 13.8843 19.7336L15.8843 19.7216ZM11.1638 14.6398L11.1519 12.6398C11.243 12.6393 11.2931 12.6738 11.2759 12.6625C11.2449 12.6422 11.1683 12.5785 11.0719 12.4453C10.978 12.3155 10.9021 12.1701 10.8543 12.0505C10.8311 11.9922 10.8216 11.9577 10.82 11.9516C10.8194 11.9492 10.8229 11.9624 10.827 11.9896C10.8307 12.014 10.8385 12.0725 10.839 12.1567L8.839 12.1686L6.83904 12.1806C6.84209 12.6916 7.00262 13.191 7.13956 13.5339C7.29834 13.9315 7.52779 14.3706 7.83094 14.7897C8.39278 15.5664 9.50073 16.6497 11.1758 16.6397L11.1638 14.6398ZM8.839 12.1686L8.85096 14.1686L15.8508 14.1267L15.8389 12.1268L15.8269 10.1268L8.82705 10.1687L8.839 12.1686ZM15.8389 12.1268L15.8508 14.1267C17.4281 14.1173 17.9719 14.4398 18.1764 14.643C18.3821 14.8475 18.6883 15.3715 18.6973 16.8698L20.6972 16.8578L22.6972 16.8459C22.6861 14.9842 22.3306 13.1321 20.9959 11.8058C19.66 10.4781 17.7846 10.1151 15.8269 10.1268L15.8389 12.1268ZM20.6972 16.8578L18.6973 16.8698L18.7519 26.0046L20.7519 25.9926L22.7518 25.9807L22.6972 16.8459L20.6972 16.8578ZM20.7519 25.9926L20.7399 23.9927L18.01 24.009L18.0219 26.009L18.0339 28.0089L20.7638 27.9926L20.7519 25.9926ZM18.0219 26.009L20.0219 25.997L19.9645 16.4072L17.9646 16.4191L15.9646 16.4311L16.0219 26.0209L18.0219 26.009ZM17.9646 16.4191L19.9645 16.4072C19.9601 15.6645 19.8138 14.727 19.224 13.9289C18.5582 13.0277 17.55 12.6016 16.4718 12.608L16.4837 14.608L16.4957 16.6079C16.5123 16.6078 16.4348 16.6105 16.3118 16.5532C16.1821 16.4927 16.0763 16.3998 16.007 16.306C15.9448 16.2219 15.936 16.1703 15.9426 16.1958C15.9494 16.2219 15.9638 16.2967 15.9646 16.4311L17.9646 16.4191ZM16.4837 14.608L16.4718 12.608L14.4768 12.6199L14.4888 14.6199L14.5007 16.6199L16.4957 16.6079L16.4837 14.608ZM14.4888 14.6199L13.4154 16.3075C14.3395 16.8952 15.0998 18.1309 15.1101 19.8663L17.1101 19.8543L19.1101 19.8424C19.0928 16.9578 17.8001 14.3557 15.5621 12.9323L14.4888 14.6199ZM17.1101 19.8543L15.1101 19.845C15.0993 22.1576 13.4037 24.0365 11.0451 24.0506L11.057 26.0506L11.069 28.0506C15.8502 28.022 19.0902 24.1313 19.1101 19.8636L17.1101 19.8543ZM11.057 26.0506L11.0451 24.0506C7.24382 24.0734 4.03012 20.7336 4.00022 15.7326L2.00026 15.7446L0.000294741 15.7565C0.0398659 22.3753 4.51043 28.0898 11.069 28.0506L11.057 26.0506ZM36.8899 20.3311L36.878 18.3311C35.7734 18.3377 34.8834 19.2385 34.89 20.343L36.8899 20.3311ZM37.7999 20.3256L39.7999 20.3137C39.7933 19.2091 38.8925 18.3191 37.788 18.3257L37.7999 20.3256ZM30.6463 12.2132L29.0684 13.4421C29.5175 14.0188 30.2455 14.3046 30.967 14.1874C31.6885 14.0702 32.2886 13.5687 32.5321 12.8794L30.6463 12.2132ZM28.5132 12.541L28.5013 10.541C26.3676 10.5538 24.4464 12.247 24.4602 14.5603L26.4602 14.5483L28.4601 14.5364C28.4602 14.5375 28.46 14.5414 28.4588 14.5472C28.4577 14.5528 28.456 14.5579 28.4541 14.5621C28.4505 14.5705 28.4483 14.5709 28.453 14.5664C28.4646 14.5552 28.4892 14.5412 28.5252 14.541L28.5132 12.541ZM26.4602 14.5483L24.4602 14.5603L24.5054 22.1201L26.5054 22.1082L28.5053 22.0962L28.4601 14.5364L26.4602 14.5483ZM26.5054 22.1082L24.5054 22.1201C24.519 24.3888 26.4145 26.1388 28.5944 26.1258L28.5825 24.1258L28.5705 22.1258C28.563 22.1259 28.5555 22.1246 28.5463 22.1209C28.5359 22.1166 28.5248 22.1095 28.5154 22.1004C28.506 22.0914 28.5031 22.0851 28.5031 22.0852C28.5039 22.087 28.5053 22.0921 28.5053 22.0962L26.5054 22.1082ZM28.5825 24.1258L28.5944 26.1258C29.6513 26.1194 30.5329 25.6749 31.1628 24.9783C31.7341 24.3465 32.0366 23.5812 32.2126 22.9349C32.5619 21.6522 32.5887 20.1428 32.5823 19.0618L30.5823 19.0738L28.5823 19.0857C28.5889 20.1746 28.5433 21.1858 28.3532 21.8838C28.2594 22.2279 28.1755 22.318 28.1959 22.2955C28.2749 22.2081 28.4412 22.1266 28.5705 22.1258L28.5825 24.1258ZM30.5823 19.0738L32.5823 19.0618L32.5551 14.5119L30.5551 14.5238L28.5551 14.5358L28.5823 19.0857L30.5823 19.0738ZM30.5551 14.5238L32.5551 14.5119C32.5415 12.2422 30.6801 10.528 28.5013 10.541L28.5132 12.541L28.5252 14.541C28.5347 14.5409 28.5415 14.5418 28.546 14.5426C28.5507 14.5435 28.554 14.5446 28.5563 14.5456C28.5612 14.5475 28.5632 14.5494 28.5632 14.5494C28.563 14.5492 28.5603 14.5465 28.5576 14.5404C28.5563 14.5375 28.5556 14.5348 28.5552 14.5329C28.5547 14.5309 28.5551 14.5316 28.5551 14.5358L30.5551 14.5238ZM32.7723 10.6955L32.7842 12.6955C32.8181 12.6953 32.8909 12.7111 32.9674 12.7867C33.044 12.8623 33.0607 12.935 33.0609 12.9688L35.0608 12.9569L37.0608 12.9449C37.0469 10.6154 35.0898 8.68162 32.7603 8.69555L32.7723 10.6955ZM35.0608 12.9569L33.0609 12.9688L33.1222 23.2236L35.1221 23.2117L37.1221 23.1997L37.0608 12.9449L35.0608 12.9569ZM35.1221 23.2117L33.1222 23.2236C33.1317 24.8182 34.4198 26.0909 36.0143 26.0814L36.0023 24.0814L35.9904 22.0815C36.605 22.0778 37.1184 22.5852 37.1221 23.1997L35.1221 23.2117ZM36.0023 24.0814L36.0143 26.0814C37.5056 26.0725 38.9172 24.8841 38.9071 23.1891L36.9071 23.201L34.9071 23.213C34.9029 22.4979 35.4791 22.0845 35.9904 22.0815L36.0023 24.0814ZM36.9071 23.201L38.9071 23.1891L38.8899 20.3191L36.8899 20.3311L34.89 20.343L34.9071 23.213L36.9071 23.201ZM36.8899 20.3311L36.9019 22.331L37.8119 22.3256L37.7999 20.3256L37.788 18.3257L36.878 18.3311L36.8899 20.3311ZM37.7999 20.3256L35.8 20.3376L35.8171 23.2075L37.8171 23.1956L39.8171 23.1836L39.7999 20.3137L37.7999 20.3256ZM37.8171 23.1956L35.8171 23.2075C35.8195 23.608 35.5267 23.9043 35.1263 23.9067L35.1382 25.9066L35.1502 27.9066C37.7597 27.891 39.8327 25.7931 39.8171 23.1836L37.8171 23.1956ZM35.1382 25.9066L35.1263 23.9067C34.7259 23.9091 34.4295 23.6163 34.4271 23.2158L32.4272 23.2278L30.4272 23.2398C30.4428 25.8493 32.5407 27.9222 35.1502 27.9066L35.1382 25.9066ZM32.4272 23.2278L34.4271 23.2158L34.3658 12.961L32.3659 12.973L30.3659 12.9849L30.4272 23.2398L32.4272 23.2278ZM32.3659 12.973L34.3658 12.961C34.3626 12.4118 34.2047 11.7469 33.7027 11.1988C33.1895 10.6382 32.5081 10.4121 31.8956 10.4157L31.9075 12.4157L31.9195 14.4157C31.552 14.4179 31.0986 14.2779 30.7527 13.9001C30.4181 13.5347 30.3669 13.1492 30.3659 12.9849L32.3659 12.973ZM31.9075 12.4157L31.8956 10.4157C30.4902 10.4241 29.4476 11.5939 29.4559 12.9904L31.4559 12.9784L33.4559 12.9665C33.4573 13.2156 33.3699 13.5929 33.0586 13.9238C32.7679 14.2327 32.3582 14.4131 31.9195 14.4157L31.9075 12.4157ZM31.4559 12.9784L29.4559 12.9904L29.4653 14.5654L31.4653 14.5534L33.4653 14.5414L33.4559 12.9665L31.4559 12.9784ZM31.4653 14.5534L29.4653 14.5654L29.4974 19.9203L31.4973 19.9083L33.4973 19.8963L33.4653 14.5414L31.4653 14.5534ZM31.4973 19.9083L29.4974 19.9203C29.5057 21.3186 29.3365 22.4452 28.9871 23.1573C28.8276 23.4824 28.662 23.6558 28.5149 23.754C28.3783 23.8452 28.1445 23.9484 27.7064 23.951L27.7184 25.951L27.7303 27.951C28.8497 27.9443 29.8693 27.6593 30.736 27.0806C31.5923 26.5089 32.1801 25.7306 32.5782 24.9192C33.3439 23.3584 33.5067 21.4729 33.4973 19.8963L31.4973 19.9083ZM27.7184 25.951L27.7064 23.951C26.676 23.9572 25.8516 23.1425 25.8454 22.1121L23.8454 22.1241L21.8455 22.136C21.8648 25.3756 24.4908 27.9703 27.7303 27.951L27.7184 25.951ZM23.8454 22.1241L25.8454 22.1121L25.8004 14.5873L23.8004 14.5992L21.8005 14.6112L21.8455 22.136L23.8454 22.1241ZM23.8004 14.5992L25.8004 14.5873C25.7942 13.5568 26.6089 12.7324 27.6393 12.7262L27.6274 10.7263L27.6154 8.72631C24.3759 8.74567 21.7811 11.3717 21.8005 14.6112L23.8004 14.5992ZM27.6274 10.7263L27.6393 12.7262C28.1957 12.7229 28.7142 12.9874 29.0684 13.4421L30.6463 12.2132L32.2242 10.9844C31.1675 9.62753 29.509 8.71498 27.6154 8.72631L27.6274 10.7263ZM30.6463 12.2132L32.5321 12.8794C32.5717 12.7673 32.6795 12.6961 32.7842 12.6955L32.7723 10.6955L32.7603 8.69555C30.9051 8.70664 29.3404 9.90548 28.7605 11.5471L30.6463 12.2132ZM41.1109 11.8357L39.3642 12.81C39.6938 13.4008 40.2997 13.785 40.9747 13.831C41.6497 13.8771 42.3022 13.5788 42.709 13.0382L41.1109 11.8357ZM46.1875 12.0853L44.4787 13.1246C44.8437 13.7248 45.4969 14.0895 46.1994 14.0853C46.9019 14.0811 47.5507 13.7086 47.9086 13.1041L46.1875 12.0853ZM53.7963 20.23L53.7843 18.23C52.6798 18.2366 51.7897 19.1374 51.7963 20.2419L53.7963 20.23ZM54.7063 20.2245L56.7062 20.2126C56.6996 19.108 55.7989 18.218 54.6943 18.2246L54.7063 20.2245ZM46.7419 22.8622L46.7538 24.8622C47.8584 24.8556 48.7485 23.9548 48.7419 22.8503L46.7419 22.8622ZM44.0469 22.8783L42.047 22.8903C42.0536 23.9948 42.9543 24.8849 44.0589 24.8783L44.0469 22.8783ZM41.4398 25.869L41.4517 27.8689C42.5563 27.8623 43.4463 26.9616 43.4397 25.857L41.4398 25.869ZM38.7798 25.8849L36.7799 25.8968C36.7865 27.0014 37.6872 27.8914 38.7918 27.8848L38.7798 25.8849ZM37.8016 20.3256L37.8135 22.3256C38.9181 22.319 39.8081 21.4182 39.8015 20.3137L37.8016 20.3256ZM36.8916 20.3311L34.8916 20.343C34.8982 21.4476 35.799 22.3376 36.9035 22.331L36.8916 20.3311ZM39.1088 10.6576L39.1207 12.6576C39.1773 12.6573 39.2185 12.6711 39.254 12.6926C39.294 12.7169 39.3344 12.7566 39.3642 12.81L41.1109 11.8357L42.8575 10.8614C42.1401 9.57525 40.7551 8.64775 39.0968 8.65766L39.1088 10.6576ZM41.1109 11.8357L42.709 13.0382C42.8811 12.8095 43.1962 12.6332 43.5657 12.631L43.5537 10.6311L43.5418 8.63109C41.9513 8.6406 40.4518 9.3852 39.5128 10.6331L41.1109 11.8357ZM43.5537 10.6311L43.5657 12.631C43.9679 12.6286 44.3055 12.8398 44.4787 13.1246L46.1875 12.0853L47.8963 11.0461C47.009 9.58718 45.3795 8.6201 43.5418 8.63109L43.5537 10.6311ZM46.1875 12.0853L47.9086 13.1041C48.0531 12.8599 48.4332 12.6019 48.8856 12.5992L48.8736 10.5992L48.8617 8.59928C47.074 8.60997 45.3614 9.5545 44.4663 11.0666L46.1875 12.0853ZM48.8736 10.5992L48.8856 12.5992C49.4666 12.5957 49.9684 13.0677 49.9722 13.7077L51.9722 13.6958L53.9721 13.6838C53.9555 10.8939 51.7105 8.58225 48.8617 8.59928L48.8736 10.5992ZM51.9722 13.6958L49.9722 13.7077L50.0285 23.1226L52.0285 23.1106L54.0284 23.0987L53.9721 13.6838L51.9722 13.6958ZM52.0285 23.1106L50.0285 23.1226C50.038 24.7171 51.3261 25.9899 52.9206 25.9803L52.9087 23.9804L52.8967 21.9804C53.5113 21.9767 54.0248 22.4841 54.0284 23.0987L52.0285 23.1106ZM52.9087 23.9804L52.9206 25.9803C54.4119 25.9714 55.8235 24.783 55.8134 23.088L53.8134 23.0999L51.8135 23.1119C51.8092 22.3968 52.3854 21.9835 52.8967 21.9804L52.9087 23.9804ZM53.8134 23.0999L55.8134 23.088L55.7962 20.218L53.7963 20.23L51.7963 20.2419L51.8135 23.1119L53.8134 23.0999ZM53.7963 20.23L53.8082 22.23L54.7182 22.2245L54.7063 20.2245L54.6943 18.2246L53.7843 18.23L53.7963 20.23ZM54.7063 20.2245L52.7063 20.2365L52.7235 23.1065L54.7234 23.0945L56.7234 23.0825L56.7062 20.2126L54.7063 20.2245ZM54.7234 23.0945L52.7235 23.1065C52.7259 23.5069 52.4331 23.8032 52.0326 23.8056L52.0446 25.8056L52.0565 27.8055C54.6661 27.7899 56.739 25.6921 56.7234 23.0825L54.7234 23.0945ZM52.0446 25.8056L52.0326 23.8056C51.6322 23.808 51.3359 23.5152 51.3335 23.1148L49.3335 23.1267L47.3336 23.1387C47.3492 25.7482 49.447 27.8211 52.0565 27.8055L52.0446 25.8056ZM49.3335 23.1267L51.3335 23.1148L51.2764 13.5599L49.2764 13.5719L47.2764 13.5838L47.3336 23.1387L49.3335 23.1267ZM49.2764 13.5719L51.2764 13.5599C51.2654 11.7204 49.8013 10.2737 47.9617 10.2847L47.9737 12.2847L47.9856 14.2846C47.8318 14.2855 47.6438 14.2224 47.4933 14.0736C47.3428 13.9249 47.2774 13.7376 47.2764 13.5838L49.2764 13.5719ZM47.9737 12.2847L47.9617 10.2847C46.1222 10.2957 44.6755 11.7598 44.6865 13.5993L46.6864 13.5874L48.6864 13.5754C48.6873 13.7292 48.6241 13.9173 48.4754 14.0678C48.3267 14.2183 48.1394 14.2837 47.9856 14.2846L47.9737 12.2847ZM46.6864 13.5874L44.6865 13.5993L44.7419 22.8742L46.7419 22.8622L48.7419 22.8503L48.6864 13.5754L46.6864 13.5874ZM46.7419 22.8622L46.7299 20.8622L44.035 20.8784L44.0469 22.8783L44.0589 24.8783L46.7538 24.8622L46.7419 22.8622ZM44.0469 22.8783L46.0469 22.8664L45.9915 13.5915L43.9915 13.6035L41.9915 13.6154L42.047 22.8903L44.0469 22.8783ZM43.9915 13.6035L45.9915 13.5915C45.98 11.6828 44.4109 10.3059 42.6418 10.3165L42.6538 12.3165L42.6657 14.3164C42.519 14.3173 42.3527 14.2599 42.2175 14.1311C42.0776 13.9979 41.9927 13.807 41.9915 13.6154L43.9915 13.6035ZM42.6538 12.3165L42.6418 10.3165C40.8023 10.3275 39.3556 11.7916 39.3666 13.6311L41.3665 13.6192L43.3665 13.6072C43.3674 13.761 43.3042 13.9491 43.1555 14.0996C43.0068 14.2501 42.8195 14.3155 42.6657 14.3164L42.6538 12.3165ZM41.3665 13.6192L39.3666 13.6311L39.4398 25.8809L41.4398 25.869L43.4397 25.857L43.3665 13.6072L41.3665 13.6192ZM41.4398 25.869L41.4278 23.869L38.7679 23.8849L38.7798 25.8849L38.7918 27.8848L41.4517 27.8689L41.4398 25.869ZM38.7798 25.8849L40.7798 25.8729L40.7024 12.9231L38.7024 12.9351L36.7024 12.9471L36.7799 25.8968L38.7798 25.8849ZM38.7024 12.9351L40.7024 12.9231C40.6986 12.289 40.481 11.6112 39.9525 11.089C39.4418 10.5844 38.7896 10.3745 38.1971 10.3781L38.2091 12.378L38.221 14.378C37.8735 14.3801 37.4668 14.2562 37.141 13.9343C36.7974 13.5947 36.7039 13.1962 36.7024 12.9471L38.7024 12.9351ZM38.2091 12.378L38.1971 10.3781C36.7917 10.3865 35.7491 11.5562 35.7575 12.9527L37.7574 12.9407L39.7574 12.9288C39.7589 13.178 39.6715 13.5553 39.3601 13.8861C39.0695 14.195 38.6597 14.3754 38.221 14.378L38.2091 12.378ZM37.7574 12.9407L35.7575 12.9527L35.8016 20.3376L37.8016 20.3256L39.8015 20.3137L39.7574 12.9288L37.7574 12.9407ZM37.8016 20.3256L37.7896 18.3257L36.8796 18.3311L36.8916 20.3311L36.9035 22.331L37.8135 22.3256L37.8016 20.3256ZM36.8916 20.3311L38.8915 20.3191L38.8474 12.9342L36.8474 12.9462L34.8475 12.9581L34.8916 20.343L36.8916 20.3311ZM36.8474 12.9462L38.8474 12.9342C38.8472 12.9004 38.863 12.8276 38.9386 12.751C39.0143 12.6745 39.0869 12.6578 39.1207 12.6576L39.1088 10.6576L39.0968 8.65766C36.7673 8.67159 34.8335 10.6286 34.8475 12.9581L36.8474 12.9462ZM66.865 20.1519L66.853 18.1519C65.7485 18.1585 64.8584 19.0593 64.865 20.1638L66.865 20.1519ZM67.775 20.1464L69.7749 20.1345C69.7683 19.0299 68.8676 18.1398 67.763 18.1465L67.775 20.1464ZM60.6213 12.034L59.0434 13.2629C59.4926 13.8396 60.2205 14.1254 60.9421 14.0082C61.6636 13.8909 62.2637 13.3894 62.5071 12.7002L60.6213 12.034ZM58.4883 12.3618L58.4763 10.3618C56.3426 10.3746 54.4214 12.0678 54.4353 14.3811L56.4352 14.3691L58.4352 14.3571C58.4352 14.3583 58.4351 14.3622 58.4339 14.368C58.4327 14.3735 58.431 14.3787 58.4292 14.3829C58.4255 14.3913 58.4233 14.3917 58.428 14.3872C58.4396 14.376 58.4643 14.362 58.5002 14.3618L58.4883 12.3618ZM56.4352 14.3691L54.4353 14.3811L54.4805 21.9409L56.4804 21.929L58.4804 21.917L58.4352 14.3571L56.4352 14.3691ZM56.4804 21.929L54.4805 21.9409C54.494 24.2096 56.3896 25.9596 58.5695 25.9466L58.5575 23.9466L58.5456 21.9466C58.5381 21.9467 58.5305 21.9454 58.5214 21.9417C58.5109 21.9374 58.4998 21.9303 58.4904 21.9212C58.4811 21.9122 58.4781 21.9058 58.4782 21.9059C58.479 21.9078 58.4804 21.9129 58.4804 21.917L56.4804 21.929ZM58.5575 23.9466L58.5695 25.9466C59.6263 25.9402 60.508 25.4957 61.1379 24.7991C61.7091 24.1673 62.0116 23.402 62.1876 22.7557C62.537 21.473 62.5638 19.9636 62.5573 18.8826L60.5574 18.8945L58.5574 18.9065C58.5639 19.9954 58.5183 21.0066 58.3282 21.7046C58.2345 22.0487 58.1506 22.1388 58.1709 22.1163C58.2499 22.0289 58.4162 21.9474 58.5456 21.9466L58.5575 23.9466ZM60.5574 18.8945L62.5573 18.8826L62.5301 14.3327L60.5302 14.3446L58.5302 14.3566L58.5574 18.9065L60.5574 18.8945ZM60.5302 14.3446L62.5301 14.3327C62.5166 12.063 60.6551 10.3488 58.4763 10.3618L58.4883 12.3618L58.5002 14.3618C58.5098 14.3617 58.5166 14.3626 58.5211 14.3634C58.5257 14.3643 58.529 14.3654 58.5314 14.3664C58.5362 14.3683 58.5382 14.3702 58.5382 14.3702C58.538 14.37 58.5353 14.3673 58.5327 14.3612C58.5314 14.3582 58.5306 14.3556 58.5302 14.3537C58.5298 14.3517 58.5302 14.3524 58.5302 14.3566L60.5302 14.3446ZM62.7473 10.5163L62.7593 12.5163C62.7931 12.5161 62.8659 12.5319 62.9425 12.6075C63.019 12.6831 63.0357 12.7558 63.0359 12.7896L65.0359 12.7777L67.0358 12.7657C67.0219 10.4362 65.0649 8.50241 62.7354 8.51634L62.7473 10.5163ZM65.0359 12.7777L63.0359 12.7896L63.0972 23.0444L65.0972 23.0325L67.0971 23.0205L67.0358 12.7657L65.0359 12.7777ZM65.0972 23.0325L63.0972 23.0444C63.1068 24.639 64.3948 25.9117 65.9894 25.9022L65.9774 23.9022L65.9654 21.9023C66.58 21.8986 67.0935 22.406 67.0971 23.0205L65.0972 23.0325ZM65.9774 23.9022L65.9894 25.9022C67.4806 25.8933 68.8923 24.7049 68.8821 23.0098L66.8822 23.0218L64.8822 23.0338C64.8779 22.3187 65.4541 21.9053 65.9654 21.9023L65.9774 23.9022ZM66.8822 23.0218L68.8821 23.0098L68.865 20.1399L66.865 20.1519L64.865 20.1638L64.8822 23.0338L66.8822 23.0218ZM66.865 20.1519L66.877 22.1518L67.7869 22.1464L67.775 20.1464L67.763 18.1465L66.853 18.1519L66.865 20.1519ZM67.775 20.1464L65.775 20.1584L65.7922 23.0283L67.7921 23.0164L69.7921 23.0044L69.7749 20.1345L67.775 20.1464ZM67.7921 23.0164L65.7922 23.0283C65.7946 23.4287 65.5018 23.7251 65.1013 23.7275L65.1133 25.7274L65.1253 27.7274C67.7348 27.7118 69.8077 25.6139 69.7921 23.0044L67.7921 23.0164ZM65.1133 25.7274L65.1013 23.7275C64.7009 23.7299 64.4046 23.4371 64.4022 23.0366L62.4022 23.0486L60.4023 23.0605C60.4179 25.6701 62.5157 27.743 65.1253 27.7274L65.1133 25.7274ZM62.4022 23.0486L64.4022 23.0366L64.3409 12.7818L62.3409 12.7938L60.341 12.8057L60.4023 23.0605L62.4022 23.0486ZM62.3409 12.7938L64.3409 12.7818C64.3376 12.2326 64.1797 11.5677 63.6778 11.0195C63.1645 10.459 62.4831 10.2329 61.8706 10.2365L61.8826 12.2365L61.8945 14.2365C61.527 14.2387 61.0737 14.0987 60.7277 13.7209C60.3931 13.3555 60.3419 12.97 60.341 12.8057L62.3409 12.7938ZM61.8826 12.2365L61.8706 10.2365C60.4652 10.2449 59.4226 11.4147 59.431 12.8112L61.4309 12.7992L63.4309 12.7873C63.4324 13.0364 63.345 13.4137 63.0336 13.7446C62.743 14.0534 62.3332 14.2338 61.8945 14.2365L61.8826 12.2365ZM61.4309 12.7992L59.431 12.8112L59.4404 14.3861L61.4404 14.3742L63.4403 14.3622L63.4309 12.7873L61.4309 12.7992ZM61.4404 14.3742L59.4404 14.3861L59.4724 19.741L61.4724 19.7291L63.4723 19.7171L63.4403 14.3622L61.4404 14.3742ZM61.4724 19.7291L59.4724 19.741C59.4808 21.1394 59.3115 22.266 58.9621 22.9781C58.8026 23.3032 58.637 23.4766 58.4899 23.5748C58.3533 23.666 58.1195 23.7692 57.6815 23.7718L57.6934 25.7718L57.7054 27.7718C58.8248 27.7651 59.8443 27.4801 60.7111 26.9014C61.5674 26.3297 62.1551 25.5514 62.5532 24.74C63.319 23.1792 63.4818 21.2937 63.4723 19.7171L61.4724 19.7291ZM57.6934 25.7718L57.6815 23.7718C56.6511 23.778 55.8266 22.9633 55.8204 21.9329L53.8205 21.9449L51.8205 21.9568C51.8399 25.1963 54.4659 27.7911 57.7054 27.7718L57.6934 25.7718ZM53.8205 21.9449L55.8204 21.9329L55.7755 14.4081L53.7755 14.42L51.7755 14.432L51.8205 21.9568L53.8205 21.9449ZM53.7755 14.42L55.7755 14.4081C55.7693 13.3776 56.584 12.5532 57.6144 12.547L57.6024 10.5471L57.5904 8.5471C54.3509 8.56646 51.7562 11.1925 51.7755 14.432L53.7755 14.42ZM57.6024 10.5471L57.6144 12.547C58.1708 12.5437 58.6893 12.8082 59.0434 13.2629L60.6213 12.034L62.1993 10.8052C61.1426 9.44832 59.484 8.53578 57.5904 8.5471L57.6024 10.5471ZM60.6213 12.034L62.5071 12.7002C62.5468 12.5881 62.6545 12.5169 62.7593 12.5163L62.7473 10.5163L62.7354 8.51634C60.8801 8.52743 59.3155 9.72627 58.7356 11.3679L60.6213 12.034ZM73.5719 11.8166L72.0432 13.1061C72.5861 13.7498 73.474 13.9844 74.264 13.693C75.054 13.4017 75.5769 12.6467 75.5719 11.8047L73.5719 11.8166ZM79.9214 20.0738L79.9094 18.0738C78.8049 18.0804 77.9148 18.9812 77.9214 20.0858L79.9214 20.0738ZM80.8314 20.0684L82.8313 20.0564C82.8247 18.9518 81.924 18.0618 80.8194 18.0684L80.8314 20.0684ZM71.5447 12.2837L71.5327 10.2838C69.399 10.2965 67.4778 11.9898 67.4917 14.303L69.4916 14.291L71.4916 14.2791C71.4916 14.2802 71.4915 14.2842 71.4903 14.2899C71.4891 14.2955 71.4874 14.3006 71.4856 14.3049C71.4819 14.3132 71.4797 14.3136 71.4844 14.3091C71.496 14.2979 71.5207 14.2839 71.5566 14.2837L71.5447 12.2837ZM69.4916 14.291L67.4917 14.303L67.5369 21.8629L69.5368 21.8509L71.5368 21.839L71.4916 14.2791L69.4916 14.291ZM69.5368 21.8509L67.5369 21.8629C67.5504 24.1315 69.446 25.8815 71.6259 25.8685L71.6139 23.8685L71.602 21.8686C71.5945 21.8686 71.5869 21.8674 71.5778 21.8636C71.5674 21.8593 71.5562 21.8522 71.5468 21.8431C71.5375 21.8342 71.5345 21.8278 71.5346 21.8279C71.5354 21.8297 71.5368 21.8349 71.5368 21.839L69.5368 21.8509ZM71.6139 23.8685L71.6259 25.8685C72.674 25.8622 73.5533 25.427 74.1858 24.7364C74.7602 24.1092 75.065 23.3485 75.2423 22.7062C75.5937 21.4333 75.6205 19.9385 75.6142 18.8745L73.6142 18.8865L71.6142 18.8984C71.6206 19.9695 71.5748 20.9601 71.3866 21.6417C71.2941 21.9767 71.2124 22.0605 71.2359 22.0349C71.3174 21.9458 71.4814 21.8693 71.602 21.8686L71.6139 23.8685ZM73.6142 18.8865L75.6142 18.8745L75.5865 14.2546L73.5866 14.2666L71.5866 14.2785L71.6142 18.8984L73.6142 18.8865ZM73.5866 14.2666L75.5865 14.2546C75.573 11.9849 73.7115 10.2707 71.5327 10.2838L71.5447 12.2837L71.5566 14.2837C71.5662 14.2836 71.573 14.2845 71.5775 14.2854C71.5821 14.2863 71.5854 14.2874 71.5878 14.2883C71.5926 14.2902 71.5946 14.2921 71.5946 14.2921C71.5944 14.292 71.5917 14.2892 71.5891 14.2831C71.5878 14.2802 71.587 14.2775 71.5866 14.2756C71.5862 14.2737 71.5866 14.2743 71.5866 14.2785L73.5866 14.2666ZM78.1697 25.6494L78.1577 23.6494C77.7376 23.6519 77.6026 23.5343 77.586 23.5186C77.5841 23.5168 77.4613 23.417 77.4588 22.9936L75.4588 23.0055L73.4589 23.0175C73.4666 24.3091 73.8943 25.536 74.8427 26.4297C75.7765 27.3096 76.9918 27.6564 78.1817 27.6493L78.1697 25.6494ZM75.4588 23.0055L77.4588 22.9936L77.3481 4.4789L75.3482 4.49086L73.3482 4.50282L73.4589 23.0175L75.4588 23.0055ZM75.3482 4.49086L77.3481 4.4789C77.3447 3.89861 77.1589 3.23913 76.6519 2.71178C76.1461 2.18567 75.4847 1.965 74.8781 1.96862L74.89 3.96859L74.902 5.96855C74.5403 5.97072 74.107 5.83618 73.7684 5.48407C73.4287 5.13072 73.3496 4.73311 73.3482 4.50282L75.3482 4.49086ZM74.89 3.96859L74.8781 1.96862C73.5635 1.97648 72.4295 3.05371 72.4382 4.50826L74.4382 4.4963L76.4381 4.48434C76.44 4.80406 76.3174 5.19345 76.0072 5.5074C75.7256 5.79238 75.3334 5.96597 74.902 5.96855L74.89 3.96859ZM74.4382 4.4963L72.4382 4.50826L72.5315 20.118L74.5315 20.106L76.5315 20.0941L76.4381 4.48434L74.4382 4.4963ZM74.5315 20.106L72.5315 20.118C72.5389 21.3577 72.3343 22.3528 71.9908 22.967C71.7227 23.4462 71.4012 23.6898 70.7379 23.6938L70.7498 25.6937L70.7618 27.6937C73.0035 27.6803 74.5811 26.53 75.4818 24.9197C76.307 23.4443 76.5408 21.6543 76.5315 20.0941L74.5315 20.106ZM70.7498 25.6937L70.7379 23.6938C69.7075 23.6999 68.883 22.8853 68.8769 21.8549L66.8769 21.8668L64.8769 21.8788C64.8963 25.1183 67.5223 27.7131 70.7618 27.6937L70.7498 25.6937ZM66.8769 21.8668L68.8769 21.8549L68.8319 14.33L66.8319 14.342L64.8319 14.3539L64.8769 21.8788L66.8769 21.8668ZM66.8319 14.342L68.8319 14.33C68.8257 13.2996 69.6404 12.4751 70.6708 12.469L70.6588 10.469L70.6469 8.46904C67.4073 8.4884 64.8126 11.1144 64.8319 14.3539L66.8319 14.342ZM70.6588 10.469L70.6708 12.469C71.2345 12.4656 71.6993 12.6985 72.0432 13.1061L73.5719 11.8166L75.1007 10.5271C74.0345 9.26315 72.4631 8.45818 70.6469 8.46904L70.6588 10.469ZM73.5719 11.8166L75.5719 11.8047L75.5282 4.48978L73.5282 4.50174L71.5282 4.5137L71.572 11.8286L73.5719 11.8166ZM73.5282 4.50174L75.5282 4.48978C75.5279 4.43962 75.5474 4.37948 75.602 4.32418C75.6567 4.26887 75.7166 4.24865 75.7667 4.24835L75.7548 2.24839L75.7428 0.248423C73.4133 0.26235 71.5143 2.18417 71.5282 4.5137L73.5282 4.50174ZM75.7548 2.24839L75.7667 4.24835C75.8217 4.24802 75.8974 4.27159 75.965 4.33697C76.0309 4.40067 76.043 4.45801 76.0431 4.4867L78.0431 4.47475L80.0431 4.46279C80.0289 2.09336 78.032 0.234737 75.7428 0.248423L75.7548 2.24839ZM78.0431 4.47475L76.0431 4.4867L76.1536 22.9664L78.1536 22.9544L80.1536 22.9425L80.0431 4.46279L78.0431 4.47475ZM78.1536 22.9544L76.1536 22.9664C76.1632 24.5609 77.4512 25.8337 79.0458 25.8241L79.0338 23.8242L79.0218 21.8242C79.6364 21.8205 80.1499 22.3279 80.1536 22.9425L78.1536 22.9544ZM79.0338 23.8242L79.0458 25.8241C80.537 25.8152 81.9487 24.6268 81.9385 22.9318L79.9386 22.9437L77.9386 22.9557C77.9343 22.2406 78.5106 21.8273 79.0218 21.8242L79.0338 23.8242ZM79.9386 22.9437L81.9385 22.9318L81.9214 20.0618L79.9214 20.0738L77.9214 20.0858L77.9386 22.9557L79.9386 22.9437ZM79.9214 20.0738L79.9334 22.0738L80.8433 22.0683L80.8314 20.0684L80.8194 18.0684L79.9094 18.0738L79.9214 20.0738ZM80.8314 20.0684L78.8314 20.0803L78.8486 22.9503L80.8485 22.9383L82.8485 22.9263L82.8313 20.0564L80.8314 20.0684ZM80.8485 22.9383L78.8486 22.9503C78.851 23.3507 78.5582 23.647 78.1577 23.6494L78.1697 25.6494L78.1817 27.6493C80.7912 27.6337 82.8641 25.5359 82.8485 22.9263L80.8485 22.9383ZM92.9778 19.9957L92.9659 17.9958C91.8613 18.0024 90.9712 18.9031 90.9778 20.0077L92.9778 19.9957ZM93.8878 19.9903L95.8878 19.9783C95.8812 18.8738 94.9804 17.9837 93.8758 17.9903L93.8878 19.9903ZM86.7342 11.8779L85.1562 13.1068C85.6054 13.6835 86.3334 13.9693 87.0549 13.852C87.7764 13.7348 88.3765 13.2333 88.62 12.5441L86.7342 11.8779ZM84.6011 12.2057L84.5891 10.2057C82.4554 10.2185 80.5343 11.9117 80.5481 14.2249L82.548 14.213L84.548 14.201C84.548 14.2021 84.5479 14.2061 84.5467 14.2118C84.5455 14.2174 84.5438 14.2226 84.542 14.2268C84.5383 14.2352 84.5362 14.2356 84.5408 14.231C84.5524 14.2199 84.5771 14.2059 84.613 14.2056L84.6011 12.2057ZM82.548 14.213L80.5481 14.2249L80.5933 21.7848L82.5932 21.7729L84.5932 21.7609L84.548 14.201L82.548 14.213ZM82.5932 21.7729L80.5933 21.7848C80.6068 24.0534 82.5024 25.8035 84.6823 25.7904L84.6703 23.7905L84.6584 21.7905C84.6509 21.7906 84.6434 21.7893 84.6342 21.7855C84.6238 21.7813 84.6126 21.7742 84.6032 21.7651C84.5939 21.7561 84.591 21.7497 84.591 21.7498C84.5918 21.7516 84.5932 21.7568 84.5932 21.7609L82.5932 21.7729ZM84.6703 23.7905L84.6823 25.7904C85.7391 25.7841 86.6208 25.3396 87.2507 24.643C87.8219 24.0112 88.1245 23.2458 88.3005 22.5995C88.6498 21.3168 88.6766 19.8075 88.6701 18.7265L86.6702 18.7384L84.6702 18.7504C84.6767 19.8393 84.6311 20.8504 84.441 21.5485C84.3473 21.8926 84.2634 21.9827 84.2837 21.9602C84.3627 21.8728 84.5291 21.7913 84.6584 21.7905L84.6703 23.7905ZM86.6702 18.7384L88.6701 18.7265L88.6429 14.1765L86.643 14.1885L84.643 14.2005L84.6702 18.7504L86.6702 18.7384ZM86.643 14.1885L88.6429 14.1765C88.6294 11.9069 86.768 10.1927 84.5891 10.2057L84.6011 12.2057L84.613 14.2056C84.6226 14.2056 84.6294 14.2065 84.6339 14.2073C84.6385 14.2082 84.6419 14.2093 84.6442 14.2102C84.649 14.2122 84.651 14.2141 84.651 14.2141C84.6508 14.2139 84.6481 14.2111 84.6455 14.2051C84.6442 14.2021 84.6434 14.1995 84.643 14.1976C84.6426 14.1956 84.643 14.1963 84.643 14.2005L86.643 14.1885ZM88.8601 10.3602L88.8721 12.3601C88.9059 12.3599 88.9788 12.3758 89.0553 12.4514C89.1318 12.527 89.1485 12.5997 89.1487 12.6335L91.1487 12.6215L93.1487 12.6096C93.1347 10.2801 91.1777 8.34629 88.8482 8.36022L88.8601 10.3602ZM91.1487 12.6215L89.1487 12.6335L89.21 22.8883L91.21 22.8764L93.21 22.8644L93.1487 12.6096L91.1487 12.6215ZM91.21 22.8764L89.21 22.8883C89.2196 24.4829 90.5076 25.7556 92.1022 25.7461L92.0902 23.7461L92.0783 21.7461C92.6928 21.7425 93.2063 22.2498 93.21 22.8644L91.21 22.8764ZM92.0902 23.7461L92.1022 25.7461C93.5934 25.7372 95.0051 24.5488 94.9949 22.8537L92.995 22.8657L90.995 22.8776C90.9907 22.1626 91.567 21.7492 92.0783 21.7461L92.0902 23.7461ZM92.995 22.8657L94.9949 22.8537L94.9778 19.9838L92.9778 19.9957L90.9778 20.0077L90.995 22.8776L92.995 22.8657ZM92.9778 19.9957L92.9898 21.9957L93.8997 21.9903L93.8878 19.9903L93.8758 17.9903L92.9659 17.9958L92.9778 19.9957ZM93.8878 19.9903L91.8878 20.0023L91.905 22.8722L93.905 22.8602L95.9049 22.8483L95.8878 19.9783L93.8878 19.9903ZM93.905 22.8602L91.905 22.8722C91.9074 23.2726 91.6146 23.569 91.2142 23.5713L91.2261 25.5713L91.2381 27.5713C93.8476 27.5557 95.9205 25.4578 95.9049 22.8483L93.905 22.8602ZM91.2261 25.5713L91.2142 23.5713C90.8137 23.5737 90.5174 23.2809 90.515 22.8805L88.515 22.8925L86.5151 22.9044C86.5307 25.514 88.6285 27.5869 91.2381 27.5713L91.2261 25.5713ZM88.515 22.8925L90.515 22.8805L90.4537 12.6257L88.4537 12.6377L86.4538 12.6496L86.5151 22.9044L88.515 22.8925ZM88.4537 12.6377L90.4537 12.6257C90.4504 12.0765 90.2926 11.4116 89.7906 10.8634C89.2773 10.3029 88.596 10.0768 87.9834 10.0804L87.9954 12.0804L88.0074 14.0803C87.6398 14.0825 87.1865 13.9425 86.8406 13.5648C86.5059 13.1993 86.4548 12.8138 86.4538 12.6496L88.4537 12.6377ZM87.9954 12.0804L87.9834 10.0804C86.5781 10.0888 85.5354 11.2586 85.5438 12.6551L87.5438 12.6431L89.5437 12.6311C89.5452 12.8803 89.4578 13.2576 89.1465 13.5885C88.8558 13.8973 88.446 14.0777 88.0074 14.0803L87.9954 12.0804ZM87.5438 12.6431L85.5438 12.6551L85.5532 14.23L87.5532 14.2181L89.5531 14.2061L89.5437 12.6311L87.5438 12.6431ZM87.5532 14.2181L85.5532 14.23L85.5852 19.5849L87.5852 19.573L89.5851 19.561L89.5531 14.2061L87.5532 14.2181ZM87.5852 19.573L85.5852 19.5849C85.5936 20.9833 85.4244 22.1099 85.075 22.822C84.9155 23.1471 84.7498 23.3205 84.6028 23.4187C84.4661 23.5099 84.2324 23.6131 83.7943 23.6157L83.8062 25.6157L83.8182 27.6156C84.9376 27.6089 85.9572 27.324 86.8239 26.7453C87.6802 26.1736 88.2679 25.3953 88.666 24.5839C89.4318 23.0231 89.5946 21.1376 89.5851 19.561L87.5852 19.573ZM83.8062 25.6157L83.7943 23.6157C82.7639 23.6219 81.9394 22.8072 81.9333 21.7768L79.9333 21.7888L77.9333 21.8007C77.9527 25.0402 80.5787 27.635 83.8182 27.6156L83.8062 25.6157ZM79.9333 21.7888L81.9333 21.7768L81.8883 14.2519L79.8883 14.2639L77.8883 14.2758L77.9333 21.8007L79.9333 21.7888ZM79.8883 14.2639L81.8883 14.2519C81.8821 13.2215 82.6968 12.3971 83.7272 12.3909L83.7152 10.3909L83.7033 8.39098C80.4638 8.41035 77.869 11.0363 77.8883 14.2758L79.8883 14.2639ZM83.7152 10.3909L83.7272 12.3909C84.2836 12.3876 84.8021 12.652 85.1562 13.1068L86.7342 11.8779L88.3121 10.649C87.2554 9.2922 85.5968 8.37966 83.7033 8.39098L83.7152 10.3909ZM86.7342 11.8779L88.62 12.5441C88.6596 12.432 88.7673 12.3608 88.8721 12.3601L88.8601 10.3602L88.8482 8.36022C86.9929 8.37131 85.4283 9.57015 84.8484 11.2117L86.7342 11.8779ZM97.3056 11.8147L95.4279 12.5034C95.6796 13.1897 96.2857 13.684 97.0085 13.7925C97.7314 13.9011 98.4559 13.6067 98.8981 13.0246L97.3056 11.8147ZM106.034 19.9177L106.022 17.9177C104.918 17.9243 104.028 18.8251 104.034 19.9296L106.034 19.9177ZM106.944 19.9122L108.944 19.9003C108.938 18.7957 108.037 17.9057 106.932 17.9123L106.944 19.9122ZM97.5276 25.5336L97.5396 27.5336C98.6441 27.527 99.5342 26.6262 99.5276 25.5217L97.5276 25.5336ZM94.8677 25.5495L92.8677 25.5615C92.8743 26.666 93.7751 27.5561 94.8796 27.5495L94.8677 25.5495ZM93.8894 19.9903L93.9014 21.9903C95.0059 21.9836 95.896 21.0829 95.8894 19.9783L93.8894 19.9903ZM92.9794 19.9957L90.9795 20.0077C90.9861 21.1122 91.8869 22.0023 92.9914 21.9957L92.9794 19.9957ZM95.1967 10.3223L95.2086 12.3223C95.259 12.322 95.2928 12.335 95.3238 12.3575C95.3601 12.3839 95.4016 12.4316 95.4279 12.5034L97.3056 11.8147L99.1833 11.126C98.5968 9.5269 97.076 8.31103 95.1847 8.32233L95.1967 10.3223ZM97.3056 11.8147L98.8981 13.0246C99.2221 12.5983 99.7927 12.2949 100.389 12.2913L100.377 10.2913L100.365 8.29137C98.5104 8.30245 96.7783 9.20281 95.7131 10.6048L97.3056 11.8147ZM100.377 10.2913L100.389 12.2913C101.443 12.285 102.243 13.0886 102.249 14.0952L104.249 14.0832L106.249 14.0713C106.23 10.808 103.58 8.27214 100.365 8.29137L100.377 10.2913ZM104.249 14.0832L102.249 14.0952L102.301 22.81L104.301 22.7981L106.301 22.7861L106.249 14.0713L104.249 14.0832ZM104.301 22.7981L102.301 22.81C102.31 24.2953 103.458 25.6782 105.159 25.668L105.147 23.6681L105.135 21.6681C105.438 21.6663 105.755 21.7932 105.987 22.036C106.211 22.2701 106.3 22.5511 106.301 22.7861L104.301 22.7981ZM105.147 23.6681L105.159 25.668C106.65 25.6591 108.061 24.4707 108.051 22.7757L106.051 22.7876L104.051 22.7996C104.047 22.0845 104.623 21.6711 105.135 21.6681L105.147 23.6681ZM106.051 22.7876L108.051 22.7757L108.034 19.9057L106.034 19.9177L104.034 19.9296L104.051 22.7996L106.051 22.7876ZM106.034 19.9177L106.046 21.9176L106.956 21.9122L106.944 19.9122L106.932 17.9123L106.022 17.9177L106.034 19.9177ZM106.944 19.9122L104.944 19.9242L104.961 22.7941L106.961 22.7822L108.961 22.7702L108.944 19.9003L106.944 19.9122ZM106.961 22.7822L104.961 22.7941C104.963 23.0253 104.879 23.1955 104.772 23.3059C104.667 23.4139 104.515 23.4918 104.306 23.4931L104.318 25.493L104.329 27.493C106.973 27.4772 108.977 25.3453 108.961 22.7702L106.961 22.7822ZM104.318 25.493L104.306 23.4931C103.871 23.4957 103.574 23.1694 103.571 22.8025L101.571 22.8144L99.5715 22.8264C99.5873 25.4694 101.754 27.5084 104.329 27.493L104.318 25.493ZM101.571 22.8144L103.571 22.8025L103.519 14.0876L101.519 14.0996L99.5194 14.1115L99.5715 22.8264L101.571 22.8144ZM101.519 14.0996L103.519 14.0876C103.506 11.8631 101.69 10.0685 99.4653 10.0818L99.4773 12.0817L99.4892 14.0817C99.4935 14.0817 99.4956 14.0821 99.4964 14.0822C99.4973 14.0824 99.4981 14.0826 99.4991 14.083C99.5013 14.084 99.5055 14.0863 99.51 14.0908C99.5146 14.0953 99.517 14.0994 99.5179 14.1017C99.5184 14.1026 99.5186 14.1034 99.5188 14.1043C99.5189 14.1051 99.5194 14.1073 99.5194 14.1115L101.519 14.0996ZM99.4773 12.0817L99.4653 10.0818C97.2408 10.0951 95.4462 11.9113 95.4595 14.1358L97.4594 14.1238L99.4594 14.1119C99.4594 14.1076 99.4597 14.1054 99.4599 14.1047C99.4601 14.1038 99.4603 14.103 99.4607 14.102C99.4617 14.0998 99.464 14.0956 99.4685 14.091C99.473 14.0865 99.4771 14.0841 99.4793 14.0832C99.4803 14.0827 99.4811 14.0825 99.482 14.0823C99.4828 14.0821 99.485 14.0817 99.4892 14.0817L99.4773 12.0817ZM97.4594 14.1238L95.4595 14.1358L95.5277 25.5456L97.5276 25.5336L99.5276 25.5217L99.4594 14.1119L97.4594 14.1238ZM97.5276 25.5336L97.5157 23.5337L94.8557 23.5496L94.8677 25.5495L94.8796 27.5495L97.5396 27.5336L97.5276 25.5336ZM94.8677 25.5495L96.8676 25.5376L96.7902 12.5878L94.7903 12.5998L92.7903 12.6117L92.8677 25.5615L94.8677 25.5495ZM94.7903 12.5998L96.7902 12.5878C96.7864 11.9536 96.5688 11.2759 96.0403 10.7537C95.5297 10.2491 94.8775 10.0392 94.285 10.0427L94.2969 12.0427L94.3089 14.0427C93.9614 14.0448 93.5547 13.9209 93.2289 13.599C92.8852 13.2594 92.7918 12.8609 92.7903 12.6117L94.7903 12.5998ZM94.2969 12.0427L94.285 10.0427C92.8796 10.0511 91.837 11.2209 91.8453 12.6174L93.8453 12.6054L95.8452 12.5935C95.8467 12.8426 95.7593 13.2199 95.448 13.5508C95.1573 13.8597 94.7476 14.0401 94.3089 14.0427L94.2969 12.0427ZM93.8453 12.6054L91.8453 12.6174L91.8895 20.0022L93.8894 19.9903L95.8894 19.9783L95.8452 12.5935L93.8453 12.6054ZM93.8894 19.9903L93.8775 17.9903L92.9675 17.9958L92.9794 19.9957L92.9914 21.9957L93.9014 21.9903L93.8894 19.9903ZM92.9794 19.9957L94.9794 19.9838L94.9353 12.5989L92.9353 12.6109L90.9353 12.6228L90.9795 20.0077L92.9794 19.9957ZM92.9353 12.6109L94.9353 12.5989C94.9351 12.5651 94.9509 12.4922 95.0265 12.4157C95.1021 12.3392 95.1748 12.3225 95.2086 12.3223L95.1967 10.3223L95.1847 8.32233C92.8552 8.33626 90.9214 10.2933 90.9353 12.6228L92.9353 12.6109ZM126.103 10.1375L126.115 12.1375C126.706 12.134 127.266 11.8686 127.643 11.4128C128.021 10.957 128.177 10.3576 128.07 9.77569L126.103 10.1375ZM125.018 10.144L123.063 10.5658C123.262 11.4911 124.083 12.1496 125.03 12.144L125.018 10.144ZM112.846 11.5468L112.834 9.54684C111.729 9.55344 110.839 10.4542 110.846 11.5588L112.846 11.5468ZM124.759 25.3708L124.771 27.3708C125.875 27.3642 126.765 26.4634 126.759 25.3589L124.759 25.3708ZM122.029 25.3872L120.029 25.3991C120.035 26.5037 120.936 27.3937 122.041 27.3871L122.029 25.3872ZM118.496 13.9981L118.484 11.9981C117.597 12.0034 116.819 12.5924 116.574 13.4449C116.328 14.2974 116.674 15.2096 117.422 15.6857L118.496 13.9981ZM121.117 19.2325L123.117 19.2418C123.117 19.2347 123.117 19.2276 123.117 19.2205L121.117 19.2325ZM106.007 15.1228L108.007 15.1108C107.969 8.7503 112.749 4.02725 117.281 4.00015L117.269 2.00019L117.257 0.000226052C110.1 0.0430177 103.959 7.00547 104.007 15.1347L106.007 15.1228ZM117.269 2.00019L117.281 4.00015C120.611 3.98025 123.401 6.50391 124.136 10.4994L126.103 10.1375L128.07 9.77569C127.068 4.33135 122.957 -0.0338525 117.257 0.000226052L117.269 2.00019ZM126.103 10.1375L126.091 8.13756L125.006 8.14405L125.018 10.144L125.03 12.144L126.115 12.1375L126.103 10.1375ZM125.018 10.144L126.973 9.72217C126.032 5.36207 122.671 1.85789 118.073 1.88538L118.085 3.88534L118.097 5.88531C120.359 5.87179 122.42 7.58529 123.063 10.5658L125.018 10.144ZM118.085 3.88534L118.073 1.88538C111.696 1.92351 106.942 8.40648 106.984 15.3969L108.984 15.385L110.984 15.373C110.95 9.76367 114.675 5.90577 118.097 5.88531L118.085 3.88534ZM108.984 15.385L106.984 15.3969C106.999 18.0028 107.617 20.4874 108.989 22.3743C110.411 24.3312 112.564 25.5187 115.239 25.5027L115.227 23.5028L115.215 21.5028C113.866 21.5109 112.911 20.967 112.225 20.0226C111.487 19.0084 110.996 17.422 110.984 15.373L108.984 15.385ZM115.227 23.5028L115.239 25.5027C118.397 25.4839 121.916 23.1584 121.891 19.0879L119.891 19.0998L117.891 19.1118C117.899 20.4312 116.748 21.4937 115.215 21.5028L115.227 23.5028ZM119.891 19.0998L121.891 19.0879C121.868 15.1277 118.761 11.9965 115.159 12.018L115.171 14.0179L115.183 16.0179C116.411 16.0106 117.88 17.1921 117.891 19.1118L119.891 19.0998ZM115.171 14.0179L115.159 12.018C115.25 12.0174 115.3 12.052 115.283 12.0407C115.252 12.0204 115.175 11.9567 115.079 11.8235C114.985 11.6937 114.909 11.5483 114.861 11.4287C114.838 11.3704 114.828 11.3359 114.827 11.3298C114.826 11.3274 114.83 11.3405 114.834 11.3678C114.838 11.3922 114.845 11.4507 114.846 11.5348L112.846 11.5468L110.846 11.5588C110.849 12.0697 111.01 12.5691 111.146 12.9121C111.305 13.3097 111.535 13.7488 111.838 14.1679C112.4 14.9446 113.508 16.0279 115.183 16.0179L115.171 14.0179ZM112.846 11.5468L112.858 13.5468L119.858 13.5049L119.846 11.505L119.834 9.50499L112.834 9.54684L112.846 11.5468ZM119.846 11.505L119.858 13.5049C121.435 13.4955 121.979 13.818 122.183 14.0212C122.389 14.2257 122.695 14.7497 122.704 16.248L124.704 16.236L126.704 16.224C126.693 14.3624 126.338 12.5103 125.003 11.1839C123.667 9.85631 121.792 9.49329 119.834 9.50499L119.846 11.505ZM124.704 16.236L122.704 16.248L122.759 25.3828L124.759 25.3708L126.759 25.3589L126.704 16.224L124.704 16.236ZM124.759 25.3708L124.747 23.3709L122.017 23.3872L122.029 25.3872L122.041 27.3871L124.771 27.3708L124.759 25.3708ZM122.029 25.3872L124.029 25.3752L123.971 15.7854L121.972 15.7973L119.972 15.8093L120.029 25.3991L122.029 25.3872ZM121.972 15.7973L123.971 15.7854C123.967 15.0427 123.821 14.1052 123.231 13.3071C122.565 12.4059 121.557 11.9797 120.479 11.9862L120.491 13.9861L120.503 15.9861C120.519 15.986 120.442 15.9887 120.319 15.9314C120.189 15.8709 120.083 15.778 120.014 15.6842C119.952 15.6 119.943 15.5485 119.95 15.5739C119.956 15.6001 119.971 15.6749 119.972 15.8093L121.972 15.7973ZM120.491 13.9861L120.479 11.9862L118.484 11.9981L118.496 13.9981L118.508 15.998L120.503 15.9861L120.491 13.9861ZM118.496 13.9981L117.422 15.6857C118.346 16.2734 119.107 17.5091 119.117 19.2445L121.117 19.2325L123.117 19.2205C123.1 16.3359 121.807 13.7339 119.569 12.3105L118.496 13.9981ZM121.117 19.2325L119.117 19.2232C119.106 21.5358 117.411 23.4147 115.052 23.4288L115.064 25.4288L115.076 27.4288C119.857 27.4002 123.097 23.5095 123.117 19.2418L121.117 19.2325ZM115.064 25.4288L115.052 23.4288C111.251 23.4516 108.037 20.1118 108.007 15.1108L106.007 15.1228L104.007 15.1347C104.047 21.7535 108.517 27.468 115.076 27.4288L115.064 25.4288Z" fill="url(#paint0_linear_368_43)" mask="url(#path-1-outside-1_368_43)"/>
<defs>
<linearGradient id="paint0_linear_368_43" x1="-5.01787" y1="6.66361" x2="127.585" y2="53.0349" gradientUnits="userSpaceOnUse">
<stop stop-color="#E7A24A"/>
<stop offset="1" stop-color="#F08A06"/>
</linearGradient>
</defs>
</svg>
